<svg width="24" height="25" viewBox="0 0 24 25" fill="none" xmlns="http://www.w3.org/2000/svg">
<path d="M19.875 3.69055H4.125C3.71079 3.69055 3.375 4.02549 3.375 4.43865V20.1488C3.375 20.5619 3.71079 20.8969 4.125 20.8969H19.875C20.2892 20.8969 20.625 20.5619 20.625 20.1488V4.43865C20.625 4.02549 20.2892 3.69055 19.875 3.69055Z" stroke="#2F2F2F" stroke-width="2" stroke-linecap="round" stroke-linejoin="round"/>
<path d="M11.25 10.7975V16.7823" stroke="#2F2F2F" stroke-width="2" stroke-linecap="round" stroke-linejoin="round"/>
<path d="M8.25 10.7975V16.7823" stroke="#2F2F2F" stroke-width="2" stroke-linecap="round" stroke-linejoin="round"/>
<path d="M11.25 13.4158C11.25 12.7214 11.5266 12.0554 12.0188 11.5644C12.5111 11.0733 13.1788 10.7975 13.875 10.7975C14.5712 10.7975 15.2389 11.0733 15.7312 11.5644C16.2234 12.0554 16.5 12.7214 16.5 13.4158V16.7823" stroke="#2F2F2F" stroke-width="2" stroke-linecap="round" stroke-linejoin="round"/>
<path d="M8.25 8.92728C8.87132 8.92728 9.375 8.42487 9.375 7.80513C9.375 7.18539 8.87132 6.68298 8.25 6.68298C7.62868 6.68298 7.125 7.18539 7.125 7.80513C7.125 8.42487 7.62868 8.92728 8.25 8.92728Z" fill="#2F2F2F"/>
</svg>
