<svg width="24" height="25" viewBox="0 0 24 25" fill="none" xmlns="http://www.w3.org/2000/svg">
<path d="M12.0005 8.55359C12.0005 6.49631 13.7349 4.78503 15.7974 4.81308C16.5197 4.8214 17.2242 5.03763 17.8262 5.43576C18.4283 5.8339 18.9022 6.39701 19.1911 7.05739H22.5005L19.4724 10.0779C19.2769 13.1119 17.9304 15.9579 15.7066 18.0372C13.4828 20.1164 10.5486 21.2728 7.5005 21.2713C4.50051 21.2713 3.75051 20.1492 3.75051 20.1492C3.75051 20.1492 6.7505 19.027 8.2505 16.7827C8.2505 16.7827 2.25051 13.7903 3.75051 5.56119C3.75051 5.56119 7.5005 9.3017 12.0005 10.0498V8.55359Z" stroke="#2F2F2F" stroke-width="2" stroke-linecap="round" stroke-linejoin="round"/>
</svg>
