<svg width="301" height="252" viewBox="0 0 301 252" fill="none" xmlns="http://www.w3.org/2000/svg">
<path d="M26.5 6V182" stroke="#FAFBFC"/>
<path d="M47.5 6V182" stroke="#FAFBFC"/>
<path d="M69.5 6V182" stroke="#FAFBFC"/>
<path d="M90.5 6V182" stroke="#FAFBFC"/>
<path d="M111.5 6V182" stroke="#FAFBFC"/>
<path d="M132.5 6V182" stroke="#FAFBFC"/>
<path d="M154.5 6V182" stroke="#FAFBFC"/>
<path d="M175.5 6V182" stroke="#FAFBFC"/>
<path d="M196.5 6V182" stroke="#FAFBFC"/>
<path d="M217.5 6V182" stroke="#FAFBFC"/>
<path d="M239.5 6V182" stroke="#FAFBFC"/>
<path d="M260.5 6V182" stroke="#FAFBFC"/>
<path d="M282.5 6V182" stroke="#FAFBFC"/>
<path d="M27 182.5H282" stroke="#FAFBFC"/>
<path d="M27 123.5H282" stroke="#FAFBFC"/>
<path d="M27 65.5H282" stroke="#FAFBFC"/>
<path d="M27 5.5H282" stroke="#FAFBFC"/>
<path d="M27 182.5H282" stroke="#FAFBFC"/>
<path d="M26.5 6V182" stroke="#FAFBFC"/>
<path d="M27.5016 202.064C26.8562 202.064 26.3656 201.819 26.0296 201.328C25.6936 200.837 25.5256 200.123 25.5256 199.184C25.5256 198.24 25.6936 197.523 26.0296 197.032C26.3656 196.541 26.8562 196.296 27.5016 196.296C28.1469 196.296 28.6376 196.541 28.9736 197.032C29.3096 197.517 29.4776 198.232 29.4776 199.176C29.4776 200.12 29.3096 200.837 28.9736 201.328C28.6376 201.819 28.1469 202.064 27.5016 202.064ZM27.5016 201.512C27.9496 201.512 28.2802 201.323 28.4936 200.944C28.7069 200.565 28.8136 199.976 28.8136 199.176C28.8136 198.371 28.7069 197.784 28.4936 197.416C28.2856 197.043 27.9549 196.856 27.5016 196.856C27.0536 196.856 26.7229 197.043 26.5096 197.416C26.2962 197.789 26.1896 198.376 26.1896 199.176C26.1896 199.976 26.2962 200.565 26.5096 200.944C26.7229 201.323 27.0536 201.512 27.5016 201.512Z" fill="#2F2F2F"/>
<path d="M48.9955 198.456C49.3368 198.456 49.6408 198.531 49.9075 198.68C50.1741 198.829 50.3821 199.04 50.5315 199.312C50.6808 199.584 50.7555 199.896 50.7555 200.248C50.7555 200.595 50.6781 200.907 50.5235 201.184C50.3688 201.461 50.1528 201.677 49.8755 201.832C49.5981 201.987 49.2861 202.064 48.9395 202.064C48.2568 202.064 47.7288 201.827 47.3555 201.352C46.9875 200.877 46.8035 200.2 46.8035 199.32C46.8035 198.685 46.8888 198.141 47.0595 197.688C47.2355 197.235 47.4861 196.891 47.8115 196.656C48.1368 196.416 48.5261 196.296 48.9795 196.296C49.3048 196.296 49.6221 196.357 49.9315 196.48C50.2408 196.597 50.5128 196.768 50.7475 196.992L50.4995 197.496C50.2328 197.272 49.9768 197.109 49.7315 197.008C49.4915 196.901 49.2461 196.848 48.9955 196.848C48.5101 196.848 48.1315 197.064 47.8595 197.496C47.5928 197.923 47.4595 198.528 47.4595 199.312V199.432C47.5821 199.133 47.7795 198.896 48.0515 198.72C48.3235 198.544 48.6381 198.456 48.9955 198.456ZM48.9075 201.512C49.2701 201.512 49.5608 201.397 49.7795 201.168C49.9981 200.939 50.1075 200.635 50.1075 200.256C50.1075 199.883 49.9955 199.581 49.7715 199.352C49.5528 199.123 49.2621 199.008 48.8995 199.008C48.5315 199.008 48.2301 199.125 47.9955 199.36C47.7661 199.589 47.6515 199.888 47.6515 200.256C47.6515 200.629 47.7661 200.933 47.9955 201.168C48.2301 201.397 48.5341 201.512 48.9075 201.512Z" fill="#2F2F2F"/>
<path d="M67.4891 201.448H68.7291V202H65.5931V201.448H66.8331V197.176L65.8411 197.8L65.5371 197.296L67.0171 196.36H67.4891V201.448ZM73.962 201.448V202H70.33V201.504L72.306 199.328C72.5727 199.029 72.7647 198.763 72.882 198.528C73.0047 198.288 73.066 198.048 73.066 197.808C73.066 197.499 72.9753 197.261 72.794 197.096C72.6127 196.931 72.3567 196.848 72.026 196.848C71.482 196.848 70.9487 197.064 70.426 197.496L70.178 196.992C70.402 196.779 70.682 196.611 71.018 196.488C71.3593 196.36 71.7007 196.296 72.042 196.296C72.5593 196.296 72.9673 196.429 73.266 196.696C73.57 196.963 73.722 197.323 73.722 197.776C73.722 198.101 73.6473 198.413 73.498 198.712C73.354 199.011 73.114 199.344 72.778 199.712L71.178 201.448H73.962Z" fill="#2F2F2F"/>
<path d="M88.7391 201.448H89.9791V202H86.8431V201.448H88.0831V197.176L87.0911 197.8L86.7871 197.296L88.2671 196.36H88.7391V201.448ZM94.276 199.104C94.6067 199.205 94.8627 199.379 95.044 199.624C95.2307 199.869 95.324 200.163 95.324 200.504C95.324 200.989 95.148 201.371 94.796 201.648C94.444 201.92 93.9453 202.056 93.3 202.056C92.6547 202.056 92.156 201.92 91.804 201.648C91.452 201.371 91.276 200.989 91.276 200.504C91.276 200.157 91.3693 199.861 91.556 199.616C91.7427 199.371 92.0013 199.2 92.332 199.104C92.0493 198.997 91.8253 198.829 91.66 198.6C91.4947 198.371 91.412 198.101 91.412 197.792C91.412 197.333 91.5773 196.971 91.908 196.704C92.244 196.432 92.708 196.296 93.3 196.296C93.892 196.296 94.3533 196.432 94.684 196.704C95.02 196.971 95.188 197.333 95.188 197.792C95.188 198.101 95.1053 198.373 94.94 198.608C94.7747 198.837 94.5533 199.003 94.276 199.104ZM92.06 197.84C92.06 198.171 92.164 198.424 92.372 198.6C92.5853 198.776 92.8947 198.864 93.3 198.864C93.7053 198.864 94.012 198.776 94.22 198.6C94.4333 198.424 94.54 198.171 94.54 197.84C94.54 197.525 94.4333 197.28 94.22 197.104C94.012 196.928 93.7053 196.84 93.3 196.84C92.8947 196.84 92.5853 196.928 92.372 197.104C92.164 197.28 92.06 197.525 92.06 197.84ZM93.3 201.512C94.2173 201.512 94.676 201.163 94.676 200.464C94.676 199.765 94.2173 199.416 93.3 199.416C92.3827 199.416 91.924 199.765 91.924 200.464C91.924 201.163 92.3827 201.512 93.3 201.512Z" fill="#2F2F2F"/>
<path d="M18.4 214.478V219.998H17.696V214.478H18.4ZM21.032 216.742V217.35H18.336V216.742H21.032ZM21.648 214.478V219.998H20.944V214.478H21.648ZM27.0158 214.374C27.4158 214.374 27.7544 214.422 28.0318 214.518C28.3144 214.614 28.5384 214.774 28.7038 214.998C28.8744 215.217 28.9971 215.51 29.0718 215.878C29.1518 216.246 29.1918 216.699 29.1918 217.238C29.1918 217.777 29.1518 218.23 29.0718 218.598C28.9971 218.966 28.8744 219.262 28.7038 219.486C28.5384 219.705 28.3144 219.862 28.0318 219.958C27.7544 220.054 27.4158 220.102 27.0158 220.102C26.6158 220.102 26.2744 220.054 25.9918 219.958C25.7144 219.862 25.4904 219.705 25.3198 219.486C25.1491 219.262 25.0238 218.966 24.9438 218.598C24.8691 218.23 24.8318 217.777 24.8318 217.238C24.8318 216.699 24.8691 216.246 24.9438 215.878C25.0238 215.51 25.1491 215.217 25.3198 214.998C25.4904 214.774 25.7144 214.614 25.9918 214.518C26.2744 214.422 26.6158 214.374 27.0158 214.374ZM27.0158 215.006C26.6531 215.006 26.3651 215.075 26.1518 215.214C25.9438 215.353 25.7944 215.585 25.7038 215.91C25.6184 216.23 25.5758 216.673 25.5758 217.238C25.5758 217.798 25.6184 218.241 25.7038 218.566C25.7944 218.891 25.9438 219.123 26.1518 219.262C26.3651 219.401 26.6531 219.47 27.0158 219.47C27.3784 219.47 27.6638 219.401 27.8718 219.262C28.0851 219.123 28.2344 218.891 28.3198 218.566C28.4104 218.241 28.4557 217.798 28.4557 217.238C28.4557 216.673 28.4104 216.23 28.3198 215.91C28.2344 215.585 28.0851 215.353 27.8718 215.214C27.6638 215.075 27.3784 215.006 27.0158 215.006ZM36.3595 214.478V217.886C36.3595 218.419 36.2955 218.849 36.1675 219.174C36.0395 219.499 35.8315 219.737 35.5435 219.886C35.2555 220.03 34.8688 220.102 34.3835 220.102C33.8875 220.102 33.4902 220.03 33.1915 219.886C32.8928 219.737 32.6768 219.499 32.5435 219.174C32.4102 218.849 32.3435 218.419 32.3435 217.886V214.478H33.0475V217.886C33.0475 218.281 33.0875 218.595 33.1675 218.83C33.2528 219.059 33.3915 219.225 33.5835 219.326C33.7755 219.422 34.0315 219.47 34.3515 219.47C34.6715 219.47 34.9248 219.422 35.1115 219.326C35.3035 219.225 35.4422 219.059 35.5275 218.83C35.6128 218.595 35.6555 218.281 35.6555 217.886V214.478H36.3595ZM41.6156 214.406C42.0423 214.406 42.3863 214.454 42.6476 214.55C42.909 214.641 43.0983 214.801 43.2156 215.03C43.3383 215.259 43.3996 215.582 43.3996 215.998C43.3996 216.297 43.365 216.547 43.2956 216.75C43.2263 216.947 43.117 217.102 42.9676 217.214C42.8236 217.321 42.629 217.39 42.3836 217.422V217.462C42.4743 217.483 42.5623 217.529 42.6476 217.598C42.7383 217.662 42.821 217.75 42.8956 217.862C42.9703 217.969 43.0263 218.099 43.0636 218.254L43.5996 219.998H42.8476L42.3596 218.27C42.2903 218.062 42.197 217.915 42.0796 217.83C41.9623 217.739 41.8103 217.694 41.6236 217.694C41.2983 217.694 41.0156 217.694 40.7756 217.694C40.5356 217.689 40.3356 217.683 40.1756 217.678C40.0156 217.673 39.8876 217.67 39.7916 217.67L39.8156 217.086H41.5996C41.8716 217.081 42.085 217.049 42.2396 216.99C42.3996 216.931 42.5143 216.827 42.5836 216.678C42.653 216.523 42.6876 216.31 42.6876 216.038C42.6876 215.766 42.653 215.558 42.5836 215.414C42.5143 215.265 42.3996 215.161 42.2396 215.102C42.085 215.043 41.8716 215.014 41.5996 215.014C41.1623 215.014 40.7836 215.017 40.4636 215.022C40.149 215.027 39.9356 215.03 39.8236 215.03L39.7116 214.478C39.9143 214.457 40.1036 214.441 40.2796 214.43C40.4556 214.419 40.6476 214.414 40.8556 214.414C41.069 214.409 41.3223 214.406 41.6156 214.406ZM40.4076 214.478V219.998H39.7116V214.478H40.4076ZM52.4142 214.374C52.8142 214.374 53.1529 214.422 53.4302 214.518C53.7129 214.614 53.9369 214.774 54.1022 214.998C54.2729 215.217 54.3955 215.51 54.4702 215.878C54.5502 216.246 54.5902 216.699 54.5902 217.238C54.5902 217.777 54.5502 218.23 54.4702 218.598C54.3955 218.966 54.2729 219.262 54.1022 219.486C53.9369 219.705 53.7129 219.862 53.4302 219.958C53.1529 220.054 52.8142 220.102 52.4142 220.102C52.0142 220.102 51.6729 220.054 51.3902 219.958C51.1129 219.862 50.8889 219.705 50.7182 219.486C50.5475 219.262 50.4222 218.966 50.3422 218.598C50.2675 218.23 50.2302 217.777 50.2302 217.238C50.2302 216.699 50.2675 216.246 50.3422 215.878C50.4222 215.51 50.5475 215.217 50.7182 214.998C50.8889 214.774 51.1129 214.614 51.3902 214.518C51.6729 214.422 52.0142 214.374 52.4142 214.374ZM52.4142 215.006C52.0515 215.006 51.7635 215.075 51.5502 215.214C51.3422 215.353 51.1929 215.585 51.1022 215.91C51.0169 216.23 50.9742 216.673 50.9742 217.238C50.9742 217.798 51.0169 218.241 51.1022 218.566C51.1929 218.891 51.3422 219.123 51.5502 219.262C51.7635 219.401 52.0515 219.47 52.4142 219.47C52.7769 219.47 53.0622 219.401 53.2702 219.262C53.4835 219.123 53.6329 218.891 53.7182 218.566C53.8089 218.241 53.8542 217.798 53.8542 217.238C53.8542 216.673 53.8089 216.23 53.7182 215.91C53.6329 215.585 53.4835 215.353 53.2702 215.214C53.0622 215.075 52.7769 215.006 52.4142 215.006ZM58.8299 214.47C59.0859 214.47 59.3446 214.473 59.6059 214.478C59.8673 214.478 60.1259 214.481 60.3819 214.486C60.6379 214.491 60.8833 214.505 61.1179 214.526L61.0779 215.07H59.0059C58.8193 215.07 58.6833 215.113 58.5979 215.198C58.5126 215.278 58.4699 215.411 58.4699 215.598V219.998H57.7659V215.462C57.7659 215.147 57.8619 214.905 58.0539 214.734C58.2459 214.558 58.5046 214.47 58.8299 214.47ZM57.9019 216.878H60.7739V217.446H57.9019V216.878ZM69.5314 214.478V219.998H68.8274V214.478H69.5314ZM71.3154 214.478V215.102H67.0514V214.478H71.3154ZM74.9078 214.478V219.998H74.2038V214.478H74.9078ZM77.5398 216.742V217.35H74.8438V216.742H77.5398ZM78.1558 214.478V219.998H77.4518V214.478H78.1558ZM82.5636 214.47C82.8302 214.47 83.0969 214.47 83.3636 214.47C83.6356 214.47 83.9022 214.475 84.1636 214.486C84.4302 214.491 84.6862 214.502 84.9316 214.518L84.8996 215.07H82.6836C82.5182 215.07 82.3956 215.113 82.3156 215.198C82.2409 215.278 82.2036 215.411 82.2036 215.598V218.878C82.2036 219.065 82.2409 219.201 82.3156 219.286C82.3956 219.371 82.5182 219.414 82.6836 219.414H84.8996L84.9316 219.958C84.6862 219.974 84.4302 219.985 84.1636 219.99C83.9022 219.995 83.6356 219.998 83.3636 219.998C83.0969 220.003 82.8302 220.006 82.5636 220.006C82.2382 220.006 81.9796 219.921 81.7876 219.75C81.6009 219.574 81.5049 219.339 81.4996 219.046V215.43C81.5049 215.131 81.6009 214.897 81.7876 214.726C81.9796 214.555 82.2382 214.47 82.5636 214.47ZM81.6436 216.798H84.5876V217.366H81.6436V216.798ZM93.7734 214.406C94.168 214.406 94.5014 214.454 94.7734 214.55C95.0507 214.646 95.272 214.803 95.4374 215.022C95.608 215.241 95.7307 215.531 95.8054 215.894C95.8854 216.257 95.9254 216.705 95.9254 217.238C95.9254 217.771 95.8854 218.219 95.8054 218.582C95.7307 218.945 95.608 219.235 95.4374 219.454C95.272 219.673 95.0507 219.83 94.7734 219.926C94.5014 220.022 94.168 220.07 93.7734 220.07C93.3947 220.07 93.0427 220.062 92.7174 220.046C92.3974 220.035 92.0934 220.019 91.8054 219.998L92.1094 219.422C92.3334 219.427 92.5814 219.435 92.8534 219.446C93.1307 219.451 93.4374 219.454 93.7734 219.454C94.1254 219.454 94.4054 219.387 94.6134 219.254C94.8214 219.115 94.968 218.886 95.0534 218.566C95.144 218.241 95.1894 217.798 95.1894 217.238C95.1894 216.678 95.144 216.238 95.0534 215.918C94.968 215.593 94.8214 215.361 94.6134 215.222C94.4054 215.083 94.1254 215.014 93.7734 215.014C93.4427 215.014 93.144 215.017 92.8774 215.022C92.616 215.027 92.36 215.033 92.1094 215.038L91.8054 214.478C92.0934 214.457 92.3974 214.441 92.7174 214.43C93.0427 214.414 93.3947 214.406 93.7734 214.406ZM92.5094 214.478V219.998H91.8054V214.478H92.5094ZM101.247 214.478C101.311 214.478 101.367 214.497 101.415 214.534C101.463 214.566 101.495 214.611 101.511 214.67L103.287 219.998H102.559L101.127 215.47C101.105 215.395 101.081 215.321 101.055 215.246C101.033 215.166 101.012 215.091 100.991 215.022H100.767C100.745 215.091 100.724 215.166 100.703 215.246C100.681 215.321 100.657 215.395 100.631 215.47L99.1986 219.998H98.4706L100.247 214.67C100.263 214.611 100.295 214.566 100.343 214.534C100.391 214.497 100.447 214.478 100.511 214.478H101.247ZM102.271 217.662V218.27H99.4706V217.662H102.271ZM109.394 214.478L107.53 218.126H106.898L105.026 214.478H105.778L106.938 216.806C106.986 216.907 107.028 217.011 107.066 217.118C107.108 217.225 107.148 217.329 107.186 217.43H107.242C107.279 217.329 107.319 217.225 107.362 217.118C107.404 217.011 107.447 216.91 107.49 216.814L108.65 214.478H109.394ZM107.562 217.63V219.998H106.858V217.63H107.562Z" fill="#2F2F2F"/>
<path d="M112.502 202.064C111.856 202.064 111.366 201.819 111.03 201.328C110.694 200.837 110.526 200.123 110.526 199.184C110.526 198.24 110.694 197.523 111.03 197.032C111.366 196.541 111.856 196.296 112.502 196.296C113.147 196.296 113.638 196.541 113.974 197.032C114.31 197.517 114.478 198.232 114.478 199.176C114.478 200.12 114.31 200.837 113.974 201.328C113.638 201.819 113.147 202.064 112.502 202.064ZM112.502 201.512C112.95 201.512 113.28 201.323 113.494 200.944C113.707 200.565 113.814 199.976 113.814 199.176C113.814 198.371 113.707 197.784 113.494 197.416C113.286 197.043 112.955 196.856 112.502 196.856C112.054 196.856 111.723 197.043 111.51 197.416C111.296 197.789 111.19 198.376 111.19 199.176C111.19 199.976 111.296 200.565 111.51 200.944C111.723 201.323 112.054 201.512 112.502 201.512Z" fill="#2F2F2F"/>
<path d="M133.995 198.456C134.337 198.456 134.641 198.531 134.907 198.68C135.174 198.829 135.382 199.04 135.531 199.312C135.681 199.584 135.755 199.896 135.755 200.248C135.755 200.595 135.678 200.907 135.523 201.184C135.369 201.461 135.153 201.677 134.875 201.832C134.598 201.987 134.286 202.064 133.939 202.064C133.257 202.064 132.729 201.827 132.355 201.352C131.987 200.877 131.803 200.2 131.803 199.32C131.803 198.685 131.889 198.141 132.059 197.688C132.235 197.235 132.486 196.891 132.811 196.656C133.137 196.416 133.526 196.296 133.979 196.296C134.305 196.296 134.622 196.357 134.931 196.48C135.241 196.597 135.513 196.768 135.747 196.992L135.499 197.496C135.233 197.272 134.977 197.109 134.731 197.008C134.491 196.901 134.246 196.848 133.995 196.848C133.51 196.848 133.131 197.064 132.859 197.496C132.593 197.923 132.459 198.528 132.459 199.312V199.432C132.582 199.133 132.779 198.896 133.051 198.72C133.323 198.544 133.638 198.456 133.995 198.456ZM133.907 201.512C134.27 201.512 134.561 201.397 134.779 201.168C134.998 200.939 135.107 200.635 135.107 200.256C135.107 199.883 134.995 199.581 134.771 199.352C134.553 199.123 134.262 199.008 133.899 199.008C133.531 199.008 133.23 199.125 132.995 199.36C132.766 199.589 132.651 199.888 132.651 200.256C132.651 200.629 132.766 200.933 132.995 201.168C133.23 201.397 133.534 201.512 133.907 201.512Z" fill="#2F2F2F"/>
<path d="M152.489 201.448H153.729V202H150.593V201.448H151.833V197.176L150.841 197.8L150.537 197.296L152.017 196.36H152.489V201.448ZM158.962 201.448V202H155.33V201.504L157.306 199.328C157.573 199.029 157.765 198.763 157.882 198.528C158.005 198.288 158.066 198.048 158.066 197.808C158.066 197.499 157.975 197.261 157.794 197.096C157.613 196.931 157.357 196.848 157.026 196.848C156.482 196.848 155.949 197.064 155.426 197.496L155.178 196.992C155.402 196.779 155.682 196.611 156.018 196.488C156.359 196.36 156.701 196.296 157.042 196.296C157.559 196.296 157.967 196.429 158.266 196.696C158.57 196.963 158.722 197.323 158.722 197.776C158.722 198.101 158.647 198.413 158.498 198.712C158.354 199.011 158.114 199.344 157.778 199.712L156.178 201.448H158.962Z" fill="#2F2F2F"/>
<path d="M173.739 201.448H174.979V202H171.843V201.448H173.083V197.176L172.091 197.8L171.787 197.296L173.267 196.36H173.739V201.448ZM179.276 199.104C179.607 199.205 179.863 199.379 180.044 199.624C180.231 199.869 180.324 200.163 180.324 200.504C180.324 200.989 180.148 201.371 179.796 201.648C179.444 201.92 178.945 202.056 178.3 202.056C177.655 202.056 177.156 201.92 176.804 201.648C176.452 201.371 176.276 200.989 176.276 200.504C176.276 200.157 176.369 199.861 176.556 199.616C176.743 199.371 177.001 199.2 177.332 199.104C177.049 198.997 176.825 198.829 176.66 198.6C176.495 198.371 176.412 198.101 176.412 197.792C176.412 197.333 176.577 196.971 176.908 196.704C177.244 196.432 177.708 196.296 178.3 196.296C178.892 196.296 179.353 196.432 179.684 196.704C180.02 196.971 180.188 197.333 180.188 197.792C180.188 198.101 180.105 198.373 179.94 198.608C179.775 198.837 179.553 199.003 179.276 199.104ZM177.06 197.84C177.06 198.171 177.164 198.424 177.372 198.6C177.585 198.776 177.895 198.864 178.3 198.864C178.705 198.864 179.012 198.776 179.22 198.6C179.433 198.424 179.54 198.171 179.54 197.84C179.54 197.525 179.433 197.28 179.22 197.104C179.012 196.928 178.705 196.84 178.3 196.84C177.895 196.84 177.585 196.928 177.372 197.104C177.164 197.28 177.06 197.525 177.06 197.84ZM178.3 201.512C179.217 201.512 179.676 201.163 179.676 200.464C179.676 199.765 179.217 199.416 178.3 199.416C177.383 199.416 176.924 199.765 176.924 200.464C176.924 201.163 177.383 201.512 178.3 201.512Z" fill="#2F2F2F"/>
<path d="M197.502 202.064C196.856 202.064 196.366 201.819 196.03 201.328C195.694 200.837 195.526 200.123 195.526 199.184C195.526 198.24 195.694 197.523 196.03 197.032C196.366 196.541 196.856 196.296 197.502 196.296C198.147 196.296 198.638 196.541 198.974 197.032C199.31 197.517 199.478 198.232 199.478 199.176C199.478 200.12 199.31 200.837 198.974 201.328C198.638 201.819 198.147 202.064 197.502 202.064ZM197.502 201.512C197.95 201.512 198.28 201.323 198.494 200.944C198.707 200.565 198.814 199.976 198.814 199.176C198.814 198.371 198.707 197.784 198.494 197.416C198.286 197.043 197.955 196.856 197.502 196.856C197.054 196.856 196.723 197.043 196.51 197.416C196.296 197.789 196.19 198.376 196.19 199.176C196.19 199.976 196.296 200.565 196.51 200.944C196.723 201.323 197.054 201.512 197.502 201.512Z" fill="#2F2F2F"/>
<path d="M218.995 198.456C219.337 198.456 219.641 198.531 219.907 198.68C220.174 198.829 220.382 199.04 220.531 199.312C220.681 199.584 220.755 199.896 220.755 200.248C220.755 200.595 220.678 200.907 220.523 201.184C220.369 201.461 220.153 201.677 219.875 201.832C219.598 201.987 219.286 202.064 218.939 202.064C218.257 202.064 217.729 201.827 217.355 201.352C216.987 200.877 216.803 200.2 216.803 199.32C216.803 198.685 216.889 198.141 217.059 197.688C217.235 197.235 217.486 196.891 217.811 196.656C218.137 196.416 218.526 196.296 218.979 196.296C219.305 196.296 219.622 196.357 219.931 196.48C220.241 196.597 220.513 196.768 220.747 196.992L220.499 197.496C220.233 197.272 219.977 197.109 219.731 197.008C219.491 196.901 219.246 196.848 218.995 196.848C218.51 196.848 218.131 197.064 217.859 197.496C217.593 197.923 217.459 198.528 217.459 199.312V199.432C217.582 199.133 217.779 198.896 218.051 198.72C218.323 198.544 218.638 198.456 218.995 198.456ZM218.907 201.512C219.27 201.512 219.561 201.397 219.779 201.168C219.998 200.939 220.107 200.635 220.107 200.256C220.107 199.883 219.995 199.581 219.771 199.352C219.553 199.123 219.262 199.008 218.899 199.008C218.531 199.008 218.23 199.125 217.995 199.36C217.766 199.589 217.651 199.888 217.651 200.256C217.651 200.629 217.766 200.933 217.995 201.168C218.23 201.397 218.534 201.512 218.907 201.512Z" fill="#2F2F2F"/>
<path d="M237.489 201.448H238.729V202H235.593V201.448H236.833V197.176L235.841 197.8L235.537 197.296L237.017 196.36H237.489V201.448ZM243.962 201.448V202H240.33V201.504L242.306 199.328C242.573 199.029 242.765 198.763 242.882 198.528C243.005 198.288 243.066 198.048 243.066 197.808C243.066 197.499 242.975 197.261 242.794 197.096C242.613 196.931 242.357 196.848 242.026 196.848C241.482 196.848 240.949 197.064 240.426 197.496L240.178 196.992C240.402 196.779 240.682 196.611 241.018 196.488C241.359 196.36 241.701 196.296 242.042 196.296C242.559 196.296 242.967 196.429 243.266 196.696C243.57 196.963 243.722 197.323 243.722 197.776C243.722 198.101 243.647 198.413 243.498 198.712C243.354 199.011 243.114 199.344 242.778 199.712L241.178 201.448H243.962Z" fill="#2F2F2F"/>
<path d="M258.739 201.448H259.979V202H256.843V201.448H258.083V197.176L257.091 197.8L256.787 197.296L258.267 196.36H258.739V201.448ZM264.276 199.104C264.607 199.205 264.863 199.379 265.044 199.624C265.231 199.869 265.324 200.163 265.324 200.504C265.324 200.989 265.148 201.371 264.796 201.648C264.444 201.92 263.945 202.056 263.3 202.056C262.655 202.056 262.156 201.92 261.804 201.648C261.452 201.371 261.276 200.989 261.276 200.504C261.276 200.157 261.369 199.861 261.556 199.616C261.743 199.371 262.001 199.2 262.332 199.104C262.049 198.997 261.825 198.829 261.66 198.6C261.495 198.371 261.412 198.101 261.412 197.792C261.412 197.333 261.577 196.971 261.908 196.704C262.244 196.432 262.708 196.296 263.3 196.296C263.892 196.296 264.353 196.432 264.684 196.704C265.02 196.971 265.188 197.333 265.188 197.792C265.188 198.101 265.105 198.373 264.94 198.608C264.775 198.837 264.553 199.003 264.276 199.104ZM262.06 197.84C262.06 198.171 262.164 198.424 262.372 198.6C262.585 198.776 262.895 198.864 263.3 198.864C263.705 198.864 264.012 198.776 264.22 198.6C264.433 198.424 264.54 198.171 264.54 197.84C264.54 197.525 264.433 197.28 264.22 197.104C264.012 196.928 263.705 196.84 263.3 196.84C262.895 196.84 262.585 196.928 262.372 197.104C262.164 197.28 262.06 197.525 262.06 197.84ZM263.3 201.512C264.217 201.512 264.676 201.163 264.676 200.464C264.676 199.765 264.217 199.416 263.3 199.416C262.383 199.416 261.924 199.765 261.924 200.464C261.924 201.163 262.383 201.512 263.3 201.512Z" fill="#2F2F2F"/>
<path d="M14.6031 188.064C13.9578 188.064 13.4671 187.819 13.1311 187.328C12.7951 186.837 12.6271 186.123 12.6271 185.184C12.6271 184.24 12.7951 183.523 13.1311 183.032C13.4671 182.541 13.9578 182.296 14.6031 182.296C15.2485 182.296 15.7391 182.541 16.0751 183.032C16.4111 183.517 16.5791 184.232 16.5791 185.176C16.5791 186.12 16.4111 186.837 16.0751 187.328C15.7391 187.819 15.2485 188.064 14.6031 188.064ZM14.6031 187.512C15.0511 187.512 15.3818 187.323 15.5951 186.944C15.8085 186.565 15.9151 185.976 15.9151 185.176C15.9151 184.371 15.8085 183.784 15.5951 183.416C15.3871 183.043 15.0565 182.856 14.6031 182.856C14.1551 182.856 13.8245 183.043 13.6111 183.416C13.3978 183.789 13.2911 184.376 13.2911 185.176C13.2911 185.976 13.3978 186.565 13.6111 186.944C13.8245 187.323 14.1551 187.512 14.6031 187.512Z" fill="#2F2F2F"/>
<path d="M6.32137 129.448V130H2.68937V129.504L4.66537 127.328C4.93204 127.029 5.12404 126.763 5.24137 126.528C5.36404 126.288 5.42537 126.048 5.42537 125.808C5.42537 125.499 5.33471 125.261 5.15337 125.096C4.97204 124.931 4.71604 124.848 4.38537 124.848C3.84137 124.848 3.30804 125.064 2.78537 125.496L2.53737 124.992C2.76137 124.779 3.04137 124.611 3.37737 124.488C3.71871 124.36 4.06004 124.296 4.40137 124.296C4.91871 124.296 5.32671 124.429 5.62537 124.696C5.92937 124.963 6.08137 125.323 6.08137 125.776C6.08137 126.101 6.00671 126.413 5.85737 126.712C5.71337 127.011 5.47337 127.344 5.13737 127.712L3.53737 129.448H6.32137ZM9.74625 126.464C10.1036 126.464 10.4129 126.539 10.6742 126.688C10.9409 126.837 11.1462 127.048 11.2902 127.32C11.4342 127.587 11.5062 127.896 11.5062 128.248C11.5062 128.605 11.4262 128.92 11.2663 129.192C11.1116 129.464 10.8902 129.677 10.6022 129.832C10.3142 129.981 9.97825 130.056 9.59425 130.056C9.25292 130.056 8.91425 129.995 8.57825 129.872C8.24758 129.744 7.96758 129.573 7.73825 129.36L7.98625 128.856C8.50892 129.288 9.04492 129.504 9.59425 129.504C9.98892 129.504 10.2982 129.392 10.5222 129.168C10.7462 128.944 10.8582 128.64 10.8582 128.256C10.8582 127.883 10.7462 127.581 10.5222 127.352C10.3036 127.123 10.0102 127.008 9.64225 127.008C9.10358 127.008 8.67425 127.227 8.35425 127.664H7.89825V124.36H11.2822V124.904H8.54625V126.912C8.69558 126.768 8.87158 126.659 9.07425 126.584C9.28225 126.504 9.50625 126.464 9.74625 126.464ZM14.6031 130.064C13.9578 130.064 13.4671 129.819 13.1311 129.328C12.7951 128.837 12.6271 128.123 12.6271 127.184C12.6271 126.24 12.7951 125.523 13.1311 125.032C13.4671 124.541 13.9578 124.296 14.6031 124.296C15.2485 124.296 15.7391 124.541 16.0751 125.032C16.4111 125.517 16.5791 126.232 16.5791 127.176C16.5791 128.12 16.4111 128.837 16.0751 129.328C15.7391 129.819 15.2485 130.064 14.6031 130.064ZM14.6031 129.512C15.0511 129.512 15.3818 129.323 15.5951 128.944C15.8085 128.565 15.9151 127.976 15.9151 127.176C15.9151 126.371 15.8085 125.784 15.5951 125.416C15.3871 125.043 15.0565 124.856 14.6031 124.856C14.1551 124.856 13.8245 125.043 13.6111 125.416C13.3978 125.789 13.2911 126.376 13.2911 127.176C13.2911 127.976 13.3978 128.565 13.6111 128.944C13.8245 129.323 14.1551 129.512 14.6031 129.512Z" fill="#2F2F2F"/>
<path d="M4.64937 67.464C5.00671 67.464 5.31604 67.5387 5.57737 67.688C5.84404 67.8373 6.04937 68.048 6.19337 68.32C6.33737 68.5867 6.40937 68.896 6.40937 69.248C6.40937 69.6053 6.32937 69.92 6.16937 70.192C6.01471 70.464 5.79337 70.6773 5.50537 70.832C5.21737 70.9813 4.88137 71.056 4.49737 71.056C4.15604 71.056 3.81737 70.9947 3.48137 70.872C3.15071 70.744 2.87071 70.5733 2.64137 70.36L2.88937 69.856C3.41204 70.288 3.94804 70.504 4.49737 70.504C4.89204 70.504 5.20137 70.392 5.42537 70.168C5.64937 69.944 5.76137 69.64 5.76137 69.256C5.76137 68.8827 5.64937 68.5813 5.42537 68.352C5.20671 68.1227 4.91337 68.008 4.54537 68.008C4.00671 68.008 3.57737 68.2267 3.25737 68.664H2.80137V65.36H6.18537V65.904H3.44937V67.912C3.59871 67.768 3.77471 67.6587 3.97737 67.584C4.18537 67.504 4.40937 67.464 4.64937 67.464ZM9.50625 71.064C8.86092 71.064 8.37025 70.8187 8.03425 70.328C7.69825 69.8373 7.53025 69.1227 7.53025 68.184C7.53025 67.24 7.69825 66.5227 8.03425 66.032C8.37025 65.5413 8.86092 65.296 9.50625 65.296C10.1516 65.296 10.6423 65.5413 10.9783 66.032C11.3143 66.5173 11.4823 67.232 11.4823 68.176C11.4823 69.12 11.3143 69.8373 10.9783 70.328C10.6423 70.8187 10.1516 71.064 9.50625 71.064ZM9.50625 70.512C9.95425 70.512 10.2849 70.3227 10.4983 69.944C10.7116 69.5653 10.8182 68.976 10.8182 68.176C10.8182 67.3707 10.7116 66.784 10.4983 66.416C10.2902 66.0427 9.95958 65.856 9.50625 65.856C9.05825 65.856 8.72758 66.0427 8.51425 66.416C8.30092 66.7893 8.19425 67.376 8.19425 68.176C8.19425 68.976 8.30092 69.5653 8.51425 69.944C8.72758 70.3227 9.05825 70.512 9.50625 70.512ZM14.6031 71.064C13.9578 71.064 13.4671 70.8187 13.1311 70.328C12.7951 69.8373 12.6271 69.1227 12.6271 68.184C12.6271 67.24 12.7951 66.5227 13.1311 66.032C13.4671 65.5413 13.9578 65.296 14.6031 65.296C15.2485 65.296 15.7391 65.5413 16.0751 66.032C16.4111 66.5173 16.5791 67.232 16.5791 68.176C16.5791 69.12 16.4111 69.8373 16.0751 70.328C15.7391 70.8187 15.2485 71.064 14.6031 71.064ZM14.6031 70.512C15.0511 70.512 15.3818 70.3227 15.5951 69.944C15.8085 69.5653 15.9151 68.976 15.9151 68.176C15.9151 67.3707 15.8085 66.784 15.5951 66.416C15.3871 66.0427 15.0565 65.856 14.6031 65.856C14.1551 65.856 13.8245 66.0427 13.6111 66.416C13.3978 66.7893 13.2911 67.376 13.2911 68.176C13.2911 68.976 13.3978 69.5653 13.6111 69.944C13.8245 70.3227 14.1551 70.512 14.6031 70.512Z" fill="#2F2F2F"/>
<path d="M2.54537 6.36H6.27338V6.848L3.63337 12H2.92137L5.55337 6.912H2.54537V6.36ZM9.74625 8.464C10.1036 8.464 10.4129 8.53867 10.6742 8.688C10.9409 8.83733 11.1462 9.048 11.2902 9.32C11.4342 9.58667 11.5062 9.896 11.5062 10.248C11.5062 10.6053 11.4262 10.92 11.2663 11.192C11.1116 11.464 10.8902 11.6773 10.6022 11.832C10.3142 11.9813 9.97825 12.056 9.59425 12.056C9.25292 12.056 8.91425 11.9947 8.57825 11.872C8.24758 11.744 7.96758 11.5733 7.73825 11.36L7.98625 10.856C8.50892 11.288 9.04492 11.504 9.59425 11.504C9.98892 11.504 10.2982 11.392 10.5222 11.168C10.7462 10.944 10.8582 10.64 10.8582 10.256C10.8582 9.88267 10.7462 9.58133 10.5222 9.352C10.3036 9.12267 10.0102 9.008 9.64225 9.008C9.10358 9.008 8.67425 9.22667 8.35425 9.664H7.89825V6.36H11.2822V6.904H8.54625V8.912C8.69558 8.768 8.87158 8.65867 9.07425 8.584C9.28225 8.504 9.50625 8.464 9.74625 8.464ZM14.6031 12.064C13.9578 12.064 13.4671 11.8187 13.1311 11.328C12.7951 10.8373 12.6271 10.1227 12.6271 9.184C12.6271 8.24 12.7951 7.52267 13.1311 7.032C13.4671 6.54133 13.9578 6.296 14.6031 6.296C15.2485 6.296 15.7391 6.54133 16.0751 7.032C16.4111 7.51733 16.5791 8.232 16.5791 9.176C16.5791 10.12 16.4111 10.8373 16.0751 11.328C15.7391 11.8187 15.2485 12.064 14.6031 12.064ZM14.6031 11.512C15.0511 11.512 15.3818 11.3227 15.5951 10.944C15.8085 10.5653 15.9151 9.976 15.9151 9.176C15.9151 8.37067 15.8085 7.784 15.5951 7.416C15.3871 7.04267 15.0565 6.856 14.6031 6.856C14.1551 6.856 13.8245 7.04267 13.6111 7.416C13.3978 7.78933 13.2911 8.376 13.2911 9.176C13.2911 9.976 13.3978 10.5653 13.6111 10.944C13.8245 11.3227 14.1551 11.512 14.6031 11.512Z" fill="#2F2F2F"/>
<path d="M27 181.999C27 181.999 29.125 181.999 30.5417 181.999C31.9583 181.999 32.6667 181.999 34.0833 181.999C35.5 181.999 36.2083 181.999 37.625 181.999C39.0417 181.999 39.75 181.999 41.1667 181.999C42.5833 181.999 43.2917 180.591 44.7083 179.653C46.125 178.714 46.8333 178.608 48.25 177.306C49.6667 176.004 50.375 174.384 51.7917 173.141C53.2083 171.897 53.9167 171.85 55.3333 171.087C56.75 170.325 57.4583 171.087 58.875 169.327C60.2917 167.567 61 152.537 62.4167 143.573C63.8333 134.608 64.5417 125.679 65.9583 124.506C67.375 123.333 68.0833 124.506 69.5 123.333C70.9167 122.159 71.625 114.885 73.0417 111.599C74.4583 108.314 75.1667 109.722 76.5833 106.906C78 104.09 78.7083 97.5193 80.125 97.5193C81.5417 97.5193 82.25 105.498 83.6667 109.253C85.0833 113.007 85.7917 112.069 87.2083 116.293C88.625 120.517 89.3333 118.006 90.75 130.373C92.1667 142.74 92.875 175.663 94.2917 178.127C95.7083 180.591 96.4167 180.591 97.8333 180.591C99.25 180.591 99.9583 179.477 101.375 179.477C102.792 179.477 103.5 181.882 104.917 181.882C106.333 181.882 107.042 180.591 108.458 180.591C109.875 180.591 110.583 181.999 112 181.999C113.417 181.999 114.125 181.999 115.542 181.999C116.958 181.999 117.667 181.999 119.083 181.999C120.5 181.999 121.208 181.999 122.625 181.999C124.042 181.999 124.75 181.999 126.167 181.999C127.583 181.999 128.292 180.591 129.708 179.653C131.125 178.714 131.833 178.608 133.25 177.306C134.667 176.004 135.375 174.384 136.792 173.141C138.208 171.897 138.917 171.85 140.333 171.087C141.75 170.325 142.458 171.087 143.875 169.327C145.292 167.567 146 152.537 147.417 143.573C148.833 134.608 149.542 133.013 150.958 124.506C152.375 115.999 153.083 107.375 154.5 101.039C155.917 94.7033 156.625 94.9379 158.042 92.8259C159.458 90.7139 160.167 91.8873 161.583 90.4793C163 89.0713 163.708 85.7859 165.125 85.7859C166.542 85.7859 167.25 86.7246 168.667 88.1326C170.083 89.5406 170.792 88.1326 172.208 92.8259C173.625 97.5193 174.333 113.312 175.75 130.373C177.167 147.433 177.875 175.663 179.292 178.127C180.708 180.591 181.417 180.591 182.833 180.591C184.25 180.591 184.958 179.477 186.375 179.477C187.792 179.477 188.5 181.882 189.917 181.882C191.333 181.882 192.042 180.591 193.458 180.591C194.875 180.591 195.583 181.999 197 181.999C198.417 181.999 199.125 181.999 200.542 181.999C201.958 181.999 202.667 181.999 204.083 181.999C205.5 181.999 206.208 181.999 207.625 181.999C209.042 181.999 209.75 181.999 211.167 181.999C212.583 181.999 213.292 180.591 214.708 179.653C216.125 178.714 216.833 178.608 218.25 177.306C219.667 176.004 220.375 174.384 221.792 173.141C223.208 171.897 223.917 171.85 225.333 171.087C226.75 170.325 227.458 171.087 228.875 169.327C230.292 167.567 231 157.406 232.417 146.799C233.833 136.192 234.542 129.669 235.958 116.293C237.375 102.917 238.083 89.7753 239.5 79.9193C240.917 70.0633 241.625 71.4713 243.042 67.0126C244.458 62.5539 245.167 60.9113 246.583 57.6259C248 54.3406 248.708 50.5859 250.125 50.5859C251.542 50.5859 252.25 50.5859 253.667 52.9326C255.083 55.2793 255.792 55.2793 257.208 69.3593C258.625 83.4393 259.333 101.579 260.75 123.333C262.167 145.086 262.875 175.663 264.292 178.127C265.708 180.591 266.417 180.591 267.833 180.591C269.25 180.591 269.958 179.477 271.375 179.477C272.792 179.477 273.5 181.882 274.917 181.882C276.333 181.882 277.042 180.591 278.458 180.591C279.875 180.591 282 181.999 282 181.999" stroke="#0087FF"/>
<path opacity="0.5" d="M23.5667 5.49988C23.5667 5.49988 25.7167 5.49988 27.15 5.49988C28.5833 5.49988 29.3 5.49988 30.7333 5.49988C32.1667 5.49988 32.8833 5.49988 34.3167 5.49988C35.75 5.49988 36.4667 5.49988 37.9 5.49988C39.3333 5.49988 40.05 5.49988 41.4833 5.49988C42.9167 5.49988 43.6333 5.49988 45.0667 5.49988C46.5 5.49988 47.2167 5.49988 48.65 5.49988C50.0833 5.49988 50.8 5.49988 52.2333 5.49988C53.6667 5.49988 55.8168 182.833 57.2501 182.833C58.6834 182.833 59.4001 182.833 60.8334 182.833C62.2668 182.833 62.9834 182.833 64.4168 182.833C65.8501 182.833 66.5668 182.833 68.0001 182.833C69.4334 182.833 70.1501 182.833 71.5834 182.833C73.0168 182.833 73.7334 182.833 75.1668 182.833C76.6001 182.833 77.3168 182.833 78.7501 182.833C80.1834 182.833 80.9001 182.833 82.3334 182.833C83.7668 182.833 84.4834 182.833 85.9168 182.833C87.3501 182.833 88.0668 182.833 89.5001 182.833C90.9334 182.833 90.2167 5.49988 91.65 5.49988C93.0833 5.49988 93.8 5.49988 95.2333 5.49988C96.6666 5.49988 97.3833 5.49988 98.8167 5.49988C100.25 5.49988 100.967 5.49988 102.4 5.49988C103.833 5.49988 104.55 5.49988 105.983 5.49988C107.417 5.49988 108.133 5.49988 109.567 5.49988C111 5.49988 111.717 5.49988 113.15 5.49988C114.583 5.49988 115.3 5.49988 116.733 5.49988C118.167 5.49988 118.883 5.49988 120.317 5.49988C121.75 5.49988 122.467 5.49988 123.9 5.49988C125.333 5.49988 126.05 5.49988 127.483 5.49988C128.917 5.49988 129.633 5.49988 131.067 5.49988C132.5 5.49988 133.217 5.49988 134.65 5.49988C136.083 5.49988 136.8 5.49988 138.233 5.49988C139.667 5.49988 141.817 182.833 143.25 182.833C144.683 182.833 145.4 182.833 146.833 182.833C148.267 182.833 148.983 182.833 150.417 182.833C151.85 182.833 152.567 182.833 154 182.833C155.433 182.833 156.15 182.833 157.583 182.833C159.017 182.833 159.733 182.833 161.167 182.833C162.6 182.833 163.317 182.833 164.75 182.833C166.183 182.833 166.9 182.833 168.333 182.833C169.767 182.833 170.483 182.833 171.917 182.833C173.35 182.833 174.067 182.833 175.5 182.833C176.933 182.833 176.217 5.49988 177.65 5.49988C179.083 5.49988 179.8 5.49988 181.233 5.49988C182.667 5.49988 183.383 5.49988 184.817 5.49988C186.25 5.49988 186.967 5.49988 188.4 5.49988C189.833 5.49988 190.55 5.49988 191.983 5.49988C193.417 5.49988 194.133 5.49988 195.567 5.49988C197 5.49988 197.717 5.49988 199.15 5.49988C200.583 5.49988 201.3 5.49988 202.733 5.49988C204.167 5.49988 204.883 5.49988 206.317 5.49988C207.75 5.49988 208.467 5.49988 209.9 5.49988C211.333 5.49988 212.05 5.49988 213.483 5.49988C214.917 5.49988 215.633 5.49988 217.067 5.49988C218.5 5.49988 219.217 5.49988 220.65 5.49988C222.083 5.49988 222.8 5.49988 224.233 5.49988C225.667 5.49988 227.817 182.833 229.25 182.833C230.683 182.833 231.4 182.833 232.833 182.833C234.267 182.833 234.983 182.833 236.417 182.833C237.85 182.833 238.567 182.833 240 182.833C241.433 182.833 242.15 182.833 243.583 182.833C245.017 182.833 245.733 182.833 247.167 182.833C248.6 182.833 249.317 182.833 250.75 182.833C252.183 182.833 252.9 182.833 254.333 182.833C255.767 182.833 256.483 182.833 257.917 182.833C259.35 182.833 260.067 182.833 261.5 182.833C262.933 182.833 262.217 5.49988 263.65 5.49988C265.083 5.49988 265.8 5.49988 267.233 5.49988C268.667 5.49988 269.383 5.49988 270.817 5.49988C272.25 5.49988 272.967 5.49988 274.4 5.49988C275.833 5.49988 276.55 5.49988 277.983 5.49988C279.417 5.49988 281.567 5.49988 281.567 5.49988L283 182.833C283 182.833 280.85 182.833 279.417 182.833C277.983 182.833 277.267 182.833 275.833 182.833C274.4 182.833 273.683 182.833 272.25 182.833C270.817 182.833 270.1 182.833 268.667 182.833C267.233 182.833 266.517 182.833 265.083 182.833C263.65 182.833 262.933 182.833 261.5 182.833C260.067 182.833 259.35 182.833 257.917 182.833C256.483 182.833 255.767 182.833 254.333 182.833C252.9 182.833 252.183 182.833 250.75 182.833C249.317 182.833 248.6 182.833 247.167 182.833C245.733 182.833 245.017 182.833 243.583 182.833C242.15 182.833 241.433 182.833 240 182.833C238.567 182.833 237.85 182.833 236.417 182.833C234.983 182.833 234.267 182.833 232.833 182.833C231.4 182.833 230.683 182.833 229.25 182.833C227.817 182.833 227.1 182.833 225.667 182.833C224.233 182.833 223.517 182.833 222.083 182.833C220.65 182.833 219.933 182.833 218.5 182.833C217.067 182.833 216.35 182.833 214.917 182.833C213.483 182.833 212.767 182.833 211.333 182.833C209.9 182.833 209.183 182.833 207.75 182.833C206.317 182.833 205.6 182.833 204.167 182.833C202.733 182.833 202.017 182.833 200.583 182.833C199.15 182.833 198.433 182.833 197 182.833C195.567 182.833 194.85 182.833 193.417 182.833C191.983 182.833 191.267 182.833 189.833 182.833C188.4 182.833 187.683 182.833 186.25 182.833C184.817 182.833 184.1 182.833 182.667 182.833C181.233 182.833 180.517 182.833 179.083 182.833C177.65 182.833 176.933 182.833 175.5 182.833C174.067 182.833 173.35 182.833 171.917 182.833C170.483 182.833 169.767 182.833 168.333 182.833C166.9 182.833 166.183 182.833 164.75 182.833C163.317 182.833 162.6 182.833 161.167 182.833C159.733 182.833 159.017 182.833 157.583 182.833C156.15 182.833 155.433 182.833 154 182.833C152.567 182.833 151.85 182.833 150.417 182.833C148.983 182.833 148.267 182.833 146.833 182.833C145.4 182.833 144.683 182.833 143.25 182.833C141.817 182.833 141.1 182.833 139.667 182.833C138.233 182.833 137.517 182.833 136.083 182.833C134.65 182.833 133.933 182.833 132.5 182.833C131.067 182.833 130.35 182.833 128.917 182.833C127.483 182.833 126.767 182.833 125.333 182.833C123.9 182.833 123.183 182.833 121.75 182.833C120.317 182.833 119.6 182.833 118.167 182.833C116.733 182.833 116.017 182.833 114.583 182.833C113.15 182.833 112.433 182.833 111 182.833C109.567 182.833 108.85 182.833 107.417 182.833C105.983 182.833 105.267 182.833 103.833 182.833C102.4 182.833 101.683 182.833 100.25 182.833C98.8168 182.833 98.1001 182.833 96.6668 182.833C95.2334 182.833 94.5168 182.833 93.0834 182.833C91.6501 182.833 90.9334 182.833 89.5001 182.833C88.0668 182.833 87.3501 182.833 85.9168 182.833C84.4834 182.833 83.7668 182.833 82.3334 182.833C80.9001 182.833 80.1834 182.833 78.7501 182.833C77.3168 182.833 76.6001 182.833 75.1668 182.833C73.7334 182.833 73.0168 182.833 71.5834 182.833C70.1501 182.833 69.4334 182.833 68.0001 182.833C66.5668 182.833 65.8501 182.833 64.4168 182.833C62.9834 182.833 62.2668 182.833 60.8334 182.833C59.4001 182.833 58.6834 182.833 57.2501 182.833C55.8168 182.833 55.1 182.833 53.6667 182.833C52.2333 182.833 51.5167 182.833 50.0833 182.833C48.65 182.833 47.9333 182.833 46.5 182.833C45.0667 182.833 44.35 182.833 42.9167 182.833C41.4833 182.833 40.7667 182.833 39.3334 182.833C37.9 182.833 37.1834 182.833 35.75 182.833C34.3167 182.833 33.6 182.833 32.1667 182.833C30.7334 182.833 30.0167 182.833 28.5834 182.833C27.15 182.833 25 182.833 25 182.833L23.5667 5.49988Z" fill="#EFF2F5"/>
<path d="M43.4509 244.384C43.7123 244.389 43.9816 244.403 44.2589 244.424C44.5363 244.445 44.8136 244.485 45.0909 244.544L45.0429 245.056C44.8136 245.045 44.5603 245.037 44.2829 245.032C44.0056 245.021 43.7389 245.016 43.4829 245.016C43.2856 245.016 43.1149 245.024 42.9709 245.04C42.8323 245.051 42.7176 245.083 42.6269 245.136C42.5363 245.184 42.4696 245.267 42.4269 245.384C42.3896 245.496 42.3709 245.653 42.3709 245.856C42.3709 246.16 42.4243 246.373 42.5309 246.496C42.6429 246.613 42.8216 246.701 43.0669 246.76L44.1869 247.04C44.6136 247.141 44.9043 247.32 45.0589 247.576C45.2189 247.827 45.2989 248.165 45.2989 248.592C45.2989 248.912 45.2616 249.171 45.1869 249.368C45.1176 249.565 45.0083 249.717 44.8589 249.824C44.7096 249.925 44.5176 249.995 44.2829 250.032C44.0483 250.075 43.7709 250.096 43.4509 250.096C43.2696 250.096 43.0323 250.088 42.7389 250.072C42.4509 250.056 42.1176 250.013 41.7389 249.944L41.7869 249.424C42.1016 249.435 42.3549 249.445 42.5469 249.456C42.7389 249.461 42.9043 249.464 43.0429 249.464C43.1816 249.464 43.3256 249.464 43.4749 249.464C43.7576 249.464 43.9789 249.443 44.1389 249.4C44.3043 249.357 44.4189 249.272 44.4829 249.144C44.5523 249.016 44.5869 248.827 44.5869 248.576C44.5869 248.363 44.5629 248.197 44.5149 248.08C44.4669 247.963 44.3896 247.875 44.2829 247.816C44.1816 247.752 44.0509 247.701 43.8909 247.664L42.7469 247.376C42.3469 247.275 42.0643 247.099 41.8989 246.848C41.7389 246.597 41.6589 246.261 41.6589 245.84C41.6589 245.52 41.6936 245.264 41.7629 245.072C41.8376 244.875 41.9469 244.728 42.0909 244.632C42.2403 244.531 42.4269 244.464 42.6509 244.432C42.8749 244.4 43.1416 244.384 43.4509 244.384ZM47.887 244.48V250H47.183V244.48H47.887ZM50.519 246.744V247.352H47.823V246.744H50.519ZM51.135 244.48V250H50.431V244.48H51.135ZM55.4704 244.48C55.5344 244.48 55.5904 244.499 55.6384 244.536C55.6864 244.568 55.7184 244.613 55.7344 244.672L57.5104 250H56.7824L55.3504 245.472C55.3291 245.397 55.3051 245.323 55.2784 245.248C55.2571 245.168 55.2357 245.093 55.2144 245.024H54.9904C54.9691 245.093 54.9477 245.168 54.9264 245.248C54.9051 245.323 54.8811 245.397 54.8544 245.472L53.4224 250H52.6944L54.4704 244.672C54.4864 244.613 54.5184 244.568 54.5664 244.536C54.6144 244.499 54.6704 244.48 54.7344 244.48H55.4704ZM56.4944 247.664V248.272H53.6944V247.664H56.4944ZM61.0386 244.408C61.4333 244.408 61.7666 244.456 62.0386 244.552C62.316 244.648 62.5373 244.805 62.7026 245.024C62.8733 245.243 62.996 245.533 63.0706 245.896C63.1506 246.259 63.1906 246.707 63.1906 247.24C63.1906 247.773 63.1506 248.221 63.0706 248.584C62.996 248.947 62.8733 249.237 62.7026 249.456C62.5373 249.675 62.316 249.832 62.0386 249.928C61.7666 250.024 61.4333 250.072 61.0386 250.072C60.66 250.072 60.308 250.064 59.9826 250.048C59.6626 250.037 59.3586 250.021 59.0706 250L59.3746 249.424C59.5986 249.429 59.8466 249.437 60.1186 249.448C60.396 249.453 60.7026 249.456 61.0386 249.456C61.3906 249.456 61.6706 249.389 61.8786 249.256C62.0866 249.117 62.2333 248.888 62.3186 248.568C62.4093 248.243 62.4546 247.8 62.4546 247.24C62.4546 246.68 62.4093 246.24 62.3186 245.92C62.2333 245.595 62.0866 245.363 61.8786 245.224C61.6706 245.085 61.3906 245.016 61.0386 245.016C60.708 245.016 60.4093 245.019 60.1426 245.024C59.8813 245.029 59.6253 245.035 59.3746 245.04L59.0706 244.48C59.3586 244.459 59.6626 244.443 59.9826 244.432C60.308 244.416 60.66 244.408 61.0386 244.408ZM59.7746 244.48V250H59.0706V244.48H59.7746ZM65.8708 244.48V250H65.1668V244.48H65.8708ZM72.2922 244.48V249.72C72.2922 249.907 72.2016 250 72.0202 250H71.3322C71.2522 250 71.1882 249.981 71.1402 249.944C71.0922 249.907 71.0522 249.851 71.0202 249.776L69.1562 245.864C69.1082 245.757 69.0522 245.637 68.9882 245.504C68.9242 245.371 68.8762 245.248 68.8442 245.136H68.7162C68.7269 245.253 68.7349 245.373 68.7402 245.496C68.7456 245.619 68.7482 245.741 68.7482 245.864V250H68.0442V244.76C68.0442 244.573 68.1376 244.48 68.3242 244.48H68.9882C69.0682 244.48 69.1322 244.499 69.1802 244.536C69.2282 244.573 69.2682 244.629 69.3002 244.704L71.1082 248.52C71.1669 248.632 71.2282 248.76 71.2922 248.904C71.3616 249.043 71.4256 249.181 71.4842 249.32H71.6202C71.6149 249.176 71.6096 249.035 71.6042 248.896C71.5989 248.757 71.5962 248.619 71.5962 248.48V244.48H72.2922ZM76.5725 244.376C76.7592 244.376 76.9405 244.381 77.1165 244.392C77.2925 244.403 77.4632 244.421 77.6285 244.448C77.7938 244.469 77.9538 244.501 78.1085 244.544L78.0365 245.072C77.8712 245.056 77.7032 245.043 77.5325 245.032C77.3672 245.021 77.2072 245.016 77.0525 245.016C76.8978 245.011 76.7512 245.008 76.6125 245.008C76.3138 245.008 76.0605 245.037 75.8525 245.096C75.6498 245.149 75.4872 245.256 75.3645 245.416C75.2418 245.576 75.1512 245.805 75.0925 246.104C75.0392 246.403 75.0125 246.792 75.0125 247.272C75.0125 247.816 75.0498 248.251 75.1245 248.576C75.1992 248.896 75.3245 249.128 75.5005 249.272C75.6765 249.416 75.9112 249.488 76.2045 249.488C76.4072 249.488 76.5912 249.459 76.7565 249.4C76.9272 249.341 77.0845 249.267 77.2285 249.176C77.3778 249.08 77.5218 248.981 77.6605 248.88L77.7565 249.312C77.6605 249.424 77.5272 249.541 77.3565 249.664C77.1912 249.787 76.9965 249.891 76.7725 249.976C76.5485 250.061 76.2952 250.104 76.0125 250.104C75.6018 250.104 75.2658 250.003 75.0045 249.8C74.7485 249.592 74.5618 249.277 74.4445 248.856C74.3272 248.429 74.2685 247.885 74.2685 247.224C74.2685 246.493 74.3405 245.923 74.4845 245.512C74.6338 245.096 74.8765 244.803 75.2125 244.632C75.5538 244.461 76.0072 244.376 76.5725 244.376ZM78.2525 246.808V250H77.7405L77.6285 249.184L77.5645 249.024V246.808H78.2525ZM84.7365 244.408C85.1792 244.408 85.5285 244.459 85.7845 244.56C86.0459 244.661 86.2325 244.837 86.3445 245.088C86.4565 245.333 86.5125 245.683 86.5125 246.136C86.5125 246.589 86.4565 246.941 86.3445 247.192C86.2379 247.443 86.0592 247.619 85.8085 247.72C85.5632 247.816 85.2325 247.864 84.8165 247.864C84.5925 247.864 84.3765 247.859 84.1685 247.848C83.9659 247.837 83.7792 247.824 83.6085 247.808C83.4379 247.787 83.2912 247.765 83.1685 247.744C83.0512 247.723 82.9685 247.704 82.9205 247.688L82.9445 247.256C83.2272 247.256 83.5205 247.256 83.8245 247.256C84.1285 247.256 84.4299 247.256 84.7285 247.256C84.9952 247.251 85.2059 247.219 85.3605 247.16C85.5205 247.096 85.6325 246.984 85.6965 246.824C85.7659 246.659 85.8005 246.429 85.8005 246.136C85.8005 245.837 85.7659 245.608 85.6965 245.448C85.6325 245.288 85.5205 245.176 85.3605 245.112C85.2059 245.048 84.9952 245.016 84.7285 245.016C84.2912 245.016 83.9125 245.019 83.5925 245.024C83.2779 245.029 83.0645 245.037 82.9525 245.048L82.8405 244.48C83.0432 244.459 83.2325 244.443 83.4085 244.432C83.5845 244.421 83.7765 244.416 83.9845 244.416C84.1925 244.411 84.4432 244.408 84.7365 244.408ZM83.5445 244.48V250H82.8405V244.48H83.5445ZM90.3189 244.376C90.7189 244.376 91.0576 244.424 91.3349 244.52C91.6176 244.616 91.8416 244.776 92.0069 245C92.1776 245.219 92.3003 245.512 92.3749 245.88C92.4549 246.248 92.4949 246.701 92.4949 247.24C92.4949 247.779 92.4549 248.232 92.3749 248.6C92.3003 248.968 92.1776 249.264 92.0069 249.488C91.8416 249.707 91.6176 249.864 91.3349 249.96C91.0576 250.056 90.7189 250.104 90.3189 250.104C89.9189 250.104 89.5776 250.056 89.2949 249.96C89.0176 249.864 88.7936 249.707 88.6229 249.488C88.4523 249.264 88.3269 248.968 88.2469 248.6C88.1723 248.232 88.1349 247.779 88.1349 247.24C88.1349 246.701 88.1723 246.248 88.2469 245.88C88.3269 245.512 88.4523 245.219 88.6229 245C88.7936 244.776 89.0176 244.616 89.2949 244.52C89.5776 244.424 89.9189 244.376 90.3189 244.376ZM90.3189 245.008C89.9563 245.008 89.6683 245.077 89.4549 245.216C89.2469 245.355 89.0976 245.587 89.0069 245.912C88.9216 246.232 88.8789 246.675 88.8789 247.24C88.8789 247.8 88.9216 248.243 89.0069 248.568C89.0976 248.893 89.2469 249.125 89.4549 249.264C89.6683 249.403 89.9563 249.472 90.3189 249.472C90.6816 249.472 90.9669 249.403 91.1749 249.264C91.3883 249.125 91.5376 248.893 91.6229 248.568C91.7136 248.243 91.7589 247.8 91.7589 247.24C91.7589 246.675 91.7136 246.232 91.6229 245.912C91.5376 245.587 91.3883 245.355 91.1749 245.216C90.9669 245.077 90.6816 245.008 90.3189 245.008ZM96.0064 244.384C96.2677 244.389 96.537 244.403 96.8144 244.424C97.0917 244.445 97.369 244.485 97.6464 244.544L97.5984 245.056C97.369 245.045 97.1157 245.037 96.8384 245.032C96.561 245.021 96.2944 245.016 96.0384 245.016C95.841 245.016 95.6704 245.024 95.5264 245.04C95.3877 245.051 95.273 245.083 95.1824 245.136C95.0917 245.184 95.025 245.267 94.9824 245.384C94.945 245.496 94.9264 245.653 94.9264 245.856C94.9264 246.16 94.9797 246.373 95.0864 246.496C95.1984 246.613 95.377 246.701 95.6224 246.76L96.7424 247.04C97.169 247.141 97.4597 247.32 97.6144 247.576C97.7744 247.827 97.8544 248.165 97.8544 248.592C97.8544 248.912 97.817 249.171 97.7424 249.368C97.673 249.565 97.5637 249.717 97.4144 249.824C97.265 249.925 97.073 249.995 96.8384 250.032C96.6037 250.075 96.3264 250.096 96.0064 250.096C95.825 250.096 95.5877 250.088 95.2944 250.072C95.0064 250.056 94.673 250.013 94.2944 249.944L94.3424 249.424C94.657 249.435 94.9104 249.445 95.1024 249.456C95.2944 249.461 95.4597 249.464 95.5984 249.464C95.737 249.464 95.881 249.464 96.0304 249.464C96.313 249.464 96.5344 249.443 96.6944 249.4C96.8597 249.357 96.9744 249.272 97.0384 249.144C97.1077 249.016 97.1424 248.827 97.1424 248.576C97.1424 248.363 97.1184 248.197 97.0704 248.08C97.0224 247.963 96.945 247.875 96.8384 247.816C96.737 247.752 96.6064 247.701 96.4464 247.664L95.3024 247.376C94.9024 247.275 94.6197 247.099 94.4544 246.848C94.2944 246.597 94.2144 246.261 94.2144 245.84C94.2144 245.52 94.249 245.264 94.3184 245.072C94.393 244.875 94.5024 244.728 94.6464 244.632C94.7957 244.531 94.9824 244.464 95.2064 244.432C95.4304 244.4 95.697 244.384 96.0064 244.384ZM100.442 244.48V250H99.7384V244.48H100.442ZM104.592 244.48V250H103.888V244.48H104.592ZM106.376 244.48V245.104H102.112V244.48H106.376ZM108.752 244.48V250H108.048V244.48H108.752ZM112.901 244.376C113.301 244.376 113.64 244.424 113.917 244.52C114.2 244.616 114.424 244.776 114.589 245C114.76 245.219 114.883 245.512 114.957 245.88C115.037 246.248 115.077 246.701 115.077 247.24C115.077 247.779 115.037 248.232 114.957 248.6C114.883 248.968 114.76 249.264 114.589 249.488C114.424 249.707 114.2 249.864 113.917 249.96C113.64 250.056 113.301 250.104 112.901 250.104C112.501 250.104 112.16 250.056 111.877 249.96C111.6 249.864 111.376 249.707 111.205 249.488C111.035 249.264 110.909 248.968 110.829 248.6C110.755 248.232 110.717 247.779 110.717 247.24C110.717 246.701 110.755 246.248 110.829 245.88C110.909 245.512 111.035 245.219 111.205 245C111.376 244.776 111.6 244.616 111.877 244.52C112.16 244.424 112.501 244.376 112.901 244.376ZM112.901 245.008C112.539 245.008 112.251 245.077 112.037 245.216C111.829 245.355 111.68 245.587 111.589 245.912C111.504 246.232 111.461 246.675 111.461 247.24C111.461 247.8 111.504 248.243 111.589 248.568C111.68 248.893 111.829 249.125 112.037 249.264C112.251 249.403 112.539 249.472 112.901 249.472C113.264 249.472 113.549 249.403 113.757 249.264C113.971 249.125 114.12 248.893 114.205 248.568C114.296 248.243 114.341 247.8 114.341 247.24C114.341 246.675 114.296 246.232 114.205 245.912C114.12 245.587 113.971 245.355 113.757 245.216C113.549 245.077 113.264 245.008 112.901 245.008ZM121.301 244.48V249.72C121.301 249.907 121.21 250 121.029 250H120.341C120.261 250 120.197 249.981 120.149 249.944C120.101 249.907 120.061 249.851 120.029 249.776L118.165 245.864C118.117 245.757 118.061 245.637 117.997 245.504C117.933 245.371 117.885 245.248 117.853 245.136H117.725C117.735 245.253 117.743 245.373 117.749 245.496C117.754 245.619 117.757 245.741 117.757 245.864V250H117.053V244.76C117.053 244.573 117.146 244.48 117.333 244.48H117.997C118.077 244.48 118.141 244.499 118.189 244.536C118.237 244.573 118.277 244.629 118.309 244.704L120.117 248.52C120.175 248.632 120.237 248.76 120.301 248.904C120.37 249.043 120.434 249.181 120.493 249.32H120.629C120.623 249.176 120.618 249.035 120.613 248.896C120.607 248.757 120.605 248.619 120.605 248.48V244.48H121.301Z" fill="#2F2F2F"/>
<g filter="url(#filter0_d_496_45090)">
<path d="M143 236H20C19.4477 236 19 236.448 19 237C19 237.552 19.4477 238 20 238H143C143.552 238 144 237.552 144 237C144 236.448 143.552 236 143 236Z" fill="#E4E9EF"/>
</g>
<path d="M169.911 244.376C170.098 244.376 170.279 244.381 170.455 244.392C170.631 244.403 170.802 244.421 170.967 244.448C171.132 244.469 171.292 244.501 171.447 244.544L171.375 245.072C171.21 245.056 171.042 245.043 170.871 245.032C170.706 245.021 170.546 245.016 170.391 245.016C170.236 245.011 170.09 245.008 169.951 245.008C169.652 245.008 169.399 245.037 169.191 245.096C168.988 245.149 168.826 245.256 168.703 245.416C168.58 245.576 168.49 245.805 168.431 246.104C168.378 246.403 168.351 246.792 168.351 247.272C168.351 247.816 168.388 248.251 168.463 248.576C168.538 248.896 168.663 249.128 168.839 249.272C169.015 249.416 169.25 249.488 169.543 249.488C169.746 249.488 169.93 249.459 170.095 249.4C170.266 249.341 170.423 249.267 170.567 249.176C170.716 249.08 170.86 248.981 170.999 248.88L171.095 249.312C170.999 249.424 170.866 249.541 170.695 249.664C170.53 249.787 170.335 249.891 170.111 249.976C169.887 250.061 169.634 250.104 169.351 250.104C168.94 250.104 168.604 250.003 168.343 249.8C168.087 249.592 167.9 249.277 167.783 248.856C167.666 248.429 167.607 247.885 167.607 247.224C167.607 246.493 167.679 245.923 167.823 245.512C167.972 245.096 168.215 244.803 168.551 244.632C168.892 244.461 169.346 244.376 169.911 244.376ZM171.591 246.808V250H171.079L170.967 249.184L170.903 249.024V246.808H171.591ZM174.294 244.48V248.88C174.294 249.061 174.337 249.195 174.422 249.28C174.513 249.365 174.649 249.408 174.83 249.408H176.822L176.854 249.952C176.508 249.979 176.153 249.995 175.79 250C175.433 250.005 175.076 250.008 174.718 250.008C174.313 250.008 174.025 249.909 173.854 249.712C173.684 249.515 173.598 249.267 173.598 248.968V244.48H174.294ZM180.358 244.376C180.758 244.376 181.097 244.424 181.374 244.52C181.657 244.616 181.881 244.776 182.046 245C182.217 245.219 182.34 245.512 182.414 245.88C182.494 246.248 182.534 246.701 182.534 247.24C182.534 247.779 182.494 248.232 182.414 248.6C182.34 248.968 182.217 249.264 182.046 249.488C181.881 249.707 181.657 249.864 181.374 249.96C181.097 250.056 180.758 250.104 180.358 250.104C179.958 250.104 179.617 250.056 179.334 249.96C179.057 249.864 178.833 249.707 178.662 249.488C178.492 249.264 178.366 248.968 178.286 248.6C178.212 248.232 178.174 247.779 178.174 247.24C178.174 246.701 178.212 246.248 178.286 245.88C178.366 245.512 178.492 245.219 178.662 245C178.833 244.776 179.057 244.616 179.334 244.52C179.617 244.424 179.958 244.376 180.358 244.376ZM180.358 245.008C179.996 245.008 179.708 245.077 179.494 245.216C179.286 245.355 179.137 245.587 179.046 245.912C178.961 246.232 178.918 246.675 178.918 247.24C178.918 247.8 178.961 248.243 179.046 248.568C179.137 248.893 179.286 249.125 179.494 249.264C179.708 249.403 179.996 249.472 180.358 249.472C180.721 249.472 181.006 249.403 181.214 249.264C181.428 249.125 181.577 248.893 181.662 248.568C181.753 248.243 181.798 247.8 181.798 247.24C181.798 246.675 181.753 246.232 181.662 245.912C181.577 245.587 181.428 245.355 181.214 245.216C181.006 245.077 180.721 245.008 180.358 245.008ZM186.302 244.416C186.755 244.416 187.115 244.459 187.382 244.544C187.648 244.624 187.84 244.768 187.958 244.976C188.08 245.184 188.142 245.477 188.142 245.856C188.142 246.251 188.067 246.552 187.918 246.76C187.774 246.968 187.536 247.088 187.206 247.12V247.152C187.616 247.189 187.902 247.333 188.062 247.584C188.227 247.835 188.31 248.181 188.31 248.624C188.31 249.003 188.251 249.296 188.134 249.504C188.016 249.712 187.827 249.859 187.566 249.944C187.31 250.024 186.971 250.064 186.55 250.064C186.235 250.064 185.963 250.061 185.734 250.056C185.51 250.056 185.302 250.051 185.11 250.04C184.918 250.029 184.718 250.016 184.51 250L184.622 249.44C184.739 249.445 184.96 249.451 185.286 249.456C185.616 249.461 186 249.464 186.438 249.464C186.731 249.464 186.96 249.44 187.126 249.392C187.296 249.339 187.416 249.243 187.486 249.104C187.56 248.965 187.598 248.765 187.598 248.504C187.598 248.216 187.56 247.995 187.486 247.84C187.411 247.685 187.286 247.576 187.11 247.512C186.934 247.448 186.694 247.413 186.39 247.408H184.614V246.872H186.382C186.648 246.867 186.859 246.84 187.014 246.792C187.174 246.739 187.288 246.645 187.358 246.512C187.427 246.373 187.462 246.181 187.462 245.936C187.462 245.685 187.424 245.493 187.35 245.36C187.275 245.227 187.15 245.136 186.974 245.088C186.803 245.04 186.568 245.016 186.27 245.016C186.008 245.016 185.774 245.016 185.566 245.016C185.358 245.016 185.174 245.019 185.014 245.024C184.859 245.024 184.728 245.029 184.622 245.04L184.51 244.48C184.696 244.459 184.872 244.445 185.038 244.44C185.208 244.429 185.392 244.424 185.59 244.424C185.792 244.419 186.03 244.416 186.302 244.416ZM185.198 244.48V250H184.51V244.48H185.198ZM192.414 244.48C192.478 244.48 192.534 244.499 192.582 244.536C192.63 244.568 192.662 244.613 192.678 244.672L194.454 250H193.726L192.294 245.472C192.273 245.397 192.249 245.323 192.222 245.248C192.201 245.168 192.18 245.093 192.158 245.024H191.934C191.913 245.093 191.892 245.168 191.87 245.248C191.849 245.323 191.825 245.397 191.798 245.472L190.366 250H189.638L191.414 244.672C191.43 244.613 191.462 244.568 191.51 244.536C191.558 244.499 191.614 244.48 191.678 244.48H192.414ZM193.438 247.664V248.272H190.638V247.664H193.438ZM196.694 244.48V248.88C196.694 249.061 196.737 249.195 196.822 249.28C196.913 249.365 197.049 249.408 197.23 249.408H199.222L199.254 249.952C198.908 249.979 198.553 249.995 198.19 250C197.833 250.005 197.476 250.008 197.118 250.008C196.713 250.008 196.425 249.909 196.254 249.712C196.084 249.515 195.998 249.267 195.998 248.968V244.48H196.694ZM204.821 244.384C205.082 244.389 205.352 244.403 205.629 244.424C205.906 244.445 206.184 244.485 206.461 244.544L206.413 245.056C206.184 245.045 205.93 245.037 205.653 245.032C205.376 245.021 205.109 245.016 204.853 245.016C204.656 245.016 204.485 245.024 204.341 245.04C204.202 245.051 204.088 245.083 203.997 245.136C203.906 245.184 203.84 245.267 203.797 245.384C203.76 245.496 203.741 245.653 203.741 245.856C203.741 246.16 203.794 246.373 203.901 246.496C204.013 246.613 204.192 246.701 204.437 246.76L205.557 247.04C205.984 247.141 206.274 247.32 206.429 247.576C206.589 247.827 206.669 248.165 206.669 248.592C206.669 248.912 206.632 249.171 206.557 249.368C206.488 249.565 206.378 249.717 206.229 249.824C206.08 249.925 205.888 249.995 205.653 250.032C205.418 250.075 205.141 250.096 204.821 250.096C204.64 250.096 204.402 250.088 204.109 250.072C203.821 250.056 203.488 250.013 203.109 249.944L203.157 249.424C203.472 249.435 203.725 249.445 203.917 249.456C204.109 249.461 204.274 249.464 204.413 249.464C204.552 249.464 204.696 249.464 204.845 249.464C205.128 249.464 205.349 249.443 205.509 249.4C205.674 249.357 205.789 249.272 205.853 249.144C205.922 249.016 205.957 248.827 205.957 248.576C205.957 248.363 205.933 248.197 205.885 248.08C205.837 247.963 205.76 247.875 205.653 247.816C205.552 247.752 205.421 247.701 205.261 247.664L204.117 247.376C203.717 247.275 203.434 247.099 203.269 246.848C203.109 246.597 203.029 246.261 203.029 245.84C203.029 245.52 203.064 245.264 203.133 245.072C203.208 244.875 203.317 244.728 203.461 244.632C203.61 244.531 203.797 244.464 204.021 244.432C204.245 244.4 204.512 244.384 204.821 244.384ZM210.529 244.376C210.929 244.376 211.268 244.424 211.545 244.52C211.828 244.616 212.052 244.776 212.217 245C212.388 245.219 212.51 245.512 212.585 245.88C212.665 246.248 212.705 246.701 212.705 247.24C212.705 247.779 212.665 248.232 212.585 248.6C212.51 248.968 212.388 249.264 212.217 249.488C212.052 249.707 211.828 249.864 211.545 249.96C211.268 250.056 210.929 250.104 210.529 250.104C210.129 250.104 209.788 250.056 209.505 249.96C209.228 249.864 209.004 249.707 208.833 249.488C208.662 249.264 208.537 248.968 208.457 248.6C208.382 248.232 208.345 247.779 208.345 247.24C208.345 246.701 208.382 246.248 208.457 245.88C208.537 245.512 208.662 245.219 208.833 245C209.004 244.776 209.228 244.616 209.505 244.52C209.788 244.424 210.129 244.376 210.529 244.376ZM210.529 245.008C210.166 245.008 209.878 245.077 209.665 245.216C209.457 245.355 209.308 245.587 209.217 245.912C209.132 246.232 209.089 246.675 209.089 247.24C209.089 247.8 209.132 248.243 209.217 248.568C209.308 248.893 209.457 249.125 209.665 249.264C209.878 249.403 210.166 249.472 210.529 249.472C210.892 249.472 211.177 249.403 211.385 249.264C211.598 249.125 211.748 248.893 211.833 248.568C211.924 248.243 211.969 247.8 211.969 247.24C211.969 246.675 211.924 246.232 211.833 245.912C211.748 245.587 211.598 245.355 211.385 245.216C211.177 245.077 210.892 245.008 210.529 245.008ZM215.36 244.48V248.88C215.36 249.061 215.403 249.195 215.488 249.28C215.579 249.365 215.715 249.408 215.896 249.408H217.888L217.92 249.952C217.574 249.979 217.219 249.995 216.856 250C216.499 250.005 216.142 250.008 215.784 250.008C215.379 250.008 215.091 249.909 214.92 249.712C214.75 249.515 214.664 249.267 214.664 248.968V244.48H215.36ZM221.733 244.48C221.797 244.48 221.853 244.499 221.901 244.536C221.949 244.568 221.981 244.613 221.997 244.672L223.773 250H223.045L221.613 245.472C221.592 245.397 221.568 245.323 221.541 245.248C221.52 245.168 221.499 245.093 221.477 245.024H221.253C221.232 245.093 221.211 245.168 221.189 245.248C221.168 245.323 221.144 245.397 221.117 245.472L219.685 250H218.957L220.733 244.672C220.749 244.613 220.781 244.568 220.829 244.536C220.877 244.499 220.933 244.48 220.997 244.48H221.733ZM222.757 247.664V248.272H219.957V247.664H222.757ZM227.238 244.408C227.664 244.408 228.008 244.456 228.27 244.552C228.531 244.643 228.72 244.803 228.838 245.032C228.96 245.261 229.022 245.584 229.022 246C229.022 246.299 228.987 246.549 228.918 246.752C228.848 246.949 228.739 247.104 228.59 247.216C228.446 247.323 228.251 247.392 228.006 247.424V247.464C228.096 247.485 228.184 247.531 228.27 247.6C228.36 247.664 228.443 247.752 228.518 247.864C228.592 247.971 228.648 248.101 228.686 248.256L229.222 250H228.47L227.982 248.272C227.912 248.064 227.819 247.917 227.702 247.832C227.584 247.741 227.432 247.696 227.246 247.696C226.92 247.696 226.638 247.696 226.398 247.696C226.158 247.691 225.958 247.685 225.798 247.68C225.638 247.675 225.51 247.672 225.414 247.672L225.438 247.088H227.222C227.494 247.083 227.707 247.051 227.862 246.992C228.022 246.933 228.136 246.829 228.206 246.68C228.275 246.525 228.31 246.312 228.31 246.04C228.31 245.768 228.275 245.56 228.206 245.416C228.136 245.267 228.022 245.163 227.862 245.104C227.707 245.045 227.494 245.016 227.222 245.016C226.784 245.016 226.406 245.019 226.086 245.024C225.771 245.029 225.558 245.032 225.446 245.032L225.334 244.48C225.536 244.459 225.726 244.443 225.902 244.432C226.078 244.421 226.27 244.416 226.478 244.416C226.691 244.411 226.944 244.408 227.238 244.408ZM226.03 244.48V250H225.334V244.48H226.03ZM234.332 244.48V250H233.628V244.48H234.332ZM240.753 244.48V249.72C240.753 249.907 240.662 250 240.481 250H239.793C239.713 250 239.649 249.981 239.601 249.944C239.553 249.907 239.513 249.851 239.481 249.776L237.617 245.864C237.569 245.757 237.513 245.637 237.449 245.504C237.385 245.371 237.337 245.248 237.305 245.136H237.177C237.188 245.253 237.196 245.373 237.201 245.496C237.206 245.619 237.209 245.741 237.209 245.864V250H236.505V244.76C236.505 244.573 236.598 244.48 236.785 244.48H237.449C237.529 244.48 237.593 244.499 237.641 244.536C237.689 244.573 237.729 244.629 237.761 244.704L239.569 248.52C239.628 248.632 239.689 248.76 239.753 248.904C239.822 249.043 239.886 249.181 239.945 249.32H240.081C240.076 249.176 240.07 249.035 240.065 248.896C240.06 248.757 240.057 248.619 240.057 248.48V244.48H240.753ZM244.905 244.48V250H244.201V244.48H244.905ZM246.689 244.48V245.104H242.425V244.48H246.689ZM250.053 244.48C250.117 244.48 250.173 244.499 250.221 244.536C250.269 244.568 250.301 244.613 250.317 244.672L252.093 250H251.365L249.933 245.472C249.911 245.397 249.887 245.323 249.861 245.248C249.839 245.168 249.818 245.093 249.797 245.024H249.573C249.551 245.093 249.53 245.168 249.509 245.248C249.487 245.323 249.463 245.397 249.437 245.472L248.005 250H247.277L249.053 244.672C249.069 244.613 249.101 244.568 249.149 244.536C249.197 244.499 249.253 244.48 249.317 244.48H250.053ZM251.077 247.664V248.272H248.277V247.664H251.077ZM257.421 244.48L255.813 246.768C255.765 246.837 255.717 246.899 255.669 246.952C255.626 247 255.573 247.056 255.509 247.12V247.136C255.578 247.2 255.642 247.264 255.701 247.328C255.759 247.392 255.81 247.456 255.853 247.52L257.533 250H256.741L254.781 247.112L256.653 244.48H257.421ZM254.349 244.48V246.208C254.349 246.368 254.341 246.52 254.325 246.664C254.309 246.808 254.285 246.957 254.253 247.112C254.279 247.261 254.301 247.411 254.317 247.56C254.338 247.709 254.349 247.853 254.349 247.992V250H253.653V244.48H254.349ZM255.165 246.84V247.408H254.101V246.84H255.165ZM260.124 244.472C260.391 244.472 260.658 244.472 260.924 244.472C261.196 244.472 261.463 244.477 261.724 244.488C261.991 244.493 262.247 244.504 262.492 244.52L262.46 245.072H260.244C260.079 245.072 259.956 245.115 259.876 245.2C259.802 245.28 259.764 245.413 259.764 245.6V248.88C259.764 249.067 259.802 249.203 259.876 249.288C259.956 249.373 260.079 249.416 260.244 249.416H262.46L262.492 249.96C262.247 249.976 261.991 249.987 261.724 249.992C261.463 249.997 261.196 250 260.924 250C260.658 250.005 260.391 250.008 260.124 250.008C259.799 250.008 259.54 249.923 259.348 249.752C259.162 249.576 259.066 249.341 259.06 249.048V245.432C259.066 245.133 259.162 244.899 259.348 244.728C259.54 244.557 259.799 244.472 260.124 244.472ZM259.204 246.8H262.148V247.368H259.204V246.8Z" fill="#2F2F2F"/>
<g filter="url(#filter1_d_496_45090)">
<path d="M276 236H153C152.448 236 152 236.448 152 237C152 237.552 152.448 238 153 238H276C276.552 238 277 237.552 277 237C277 236.448 276.552 236 276 236Z" fill="#0087FF"/>
</g>
<path d="M29.376 160.2C29.376 160.013 29.3813 159.832 29.392 159.656C29.4027 159.48 29.4213 159.309 29.448 159.144C29.4693 158.979 29.5013 158.819 29.544 158.664L30.072 158.736C30.056 158.901 30.0427 159.069 30.032 159.24C30.0213 159.405 30.016 159.565 30.016 159.72C30.0107 159.875 30.008 160.021 30.008 160.16C30.008 160.459 30.0373 160.712 30.096 160.92C30.1493 161.123 30.256 161.285 30.416 161.408C30.576 161.531 30.8053 161.621 31.104 161.68C31.4027 161.733 31.792 161.76 32.272 161.76C32.816 161.76 33.2507 161.723 33.576 161.648C33.896 161.573 34.128 161.448 34.272 161.272C34.416 161.096 34.488 160.861 34.488 160.568C34.488 160.365 34.4587 160.181 34.4 160.016C34.3413 159.845 34.2667 159.688 34.176 159.544C34.08 159.395 33.9813 159.251 33.88 159.112L34.312 159.016C34.424 159.112 34.5413 159.245 34.664 159.416C34.7867 159.581 34.8907 159.776 34.976 160C35.0613 160.224 35.104 160.477 35.104 160.76C35.104 161.171 35.0027 161.507 34.8 161.768C34.592 162.024 34.2773 162.211 33.856 162.328C33.4293 162.445 32.8853 162.504 32.224 162.504C31.4933 162.504 30.9227 162.432 30.512 162.288C30.096 162.139 29.8027 161.896 29.632 161.56C29.4613 161.219 29.376 160.765 29.376 160.2ZM31.808 158.52H35V159.032L34.184 159.144L34.024 159.208H31.808V158.52ZM29.48 154.601H33.88C34.0613 154.601 34.1947 154.558 34.28 154.473C34.3653 154.382 34.408 154.246 34.408 154.065V152.073L34.952 152.041C34.9787 152.387 34.9947 152.742 35 153.105C35.0053 153.462 35.008 153.819 35.008 154.177C35.008 154.582 34.9093 154.87 34.712 155.041C34.5147 155.211 34.2667 155.297 33.968 155.297H29.48V154.601ZM29.376 147.32C29.376 146.92 29.424 146.582 29.52 146.304C29.616 146.022 29.776 145.798 30 145.632C30.2187 145.462 30.512 145.339 30.88 145.264C31.248 145.184 31.7013 145.144 32.24 145.144C32.7787 145.144 33.232 145.184 33.6 145.264C33.968 145.339 34.264 145.462 34.488 145.632C34.7067 145.798 34.864 146.022 34.96 146.304C35.056 146.582 35.104 146.92 35.104 147.32C35.104 147.72 35.056 148.062 34.96 148.344C34.864 148.622 34.7067 148.846 34.488 149.016C34.264 149.187 33.968 149.312 33.6 149.392C33.232 149.467 32.7787 149.504 32.24 149.504C31.7013 149.504 31.248 149.467 30.88 149.392C30.512 149.312 30.2187 149.187 30 149.016C29.776 148.846 29.616 148.622 29.52 148.344C29.424 148.062 29.376 147.72 29.376 147.32ZM30.008 147.32C30.008 147.683 30.0773 147.971 30.216 148.184C30.3547 148.392 30.5867 148.542 30.912 148.632C31.232 148.718 31.6747 148.76 32.24 148.76C32.8 148.76 33.2427 148.718 33.568 148.632C33.8933 148.542 34.1253 148.392 34.264 148.184C34.4027 147.971 34.472 147.683 34.472 147.32C34.472 146.958 34.4027 146.672 34.264 146.464C34.1253 146.251 33.8933 146.102 33.568 146.016C33.2427 145.926 32.8 145.88 32.24 145.88C31.6747 145.88 31.232 145.926 30.912 146.016C30.5867 146.102 30.3547 146.251 30.216 146.464C30.0773 146.672 30.008 146.958 30.008 147.32ZM29.416 140.16C29.416 139.707 29.4587 139.347 29.544 139.08C29.624 138.814 29.768 138.622 29.976 138.504C30.184 138.382 30.4773 138.32 30.856 138.32C31.2507 138.32 31.552 138.395 31.76 138.544C31.968 138.688 32.088 138.926 32.12 139.256H32.152C32.1893 138.846 32.3333 138.56 32.584 138.4C32.8347 138.235 33.1813 138.152 33.624 138.152C34.0027 138.152 34.296 138.211 34.504 138.328C34.712 138.446 34.8587 138.635 34.944 138.896C35.024 139.152 35.064 139.491 35.064 139.912C35.064 140.227 35.0613 140.499 35.056 140.728C35.056 140.952 35.0507 141.16 35.04 141.352C35.0293 141.544 35.016 141.744 35 141.952L34.44 141.84C34.4453 141.723 34.4507 141.502 34.456 141.176C34.4613 140.846 34.464 140.462 34.464 140.024C34.464 139.731 34.44 139.502 34.392 139.336C34.3387 139.166 34.2427 139.046 34.104 138.976C33.9653 138.902 33.7653 138.864 33.504 138.864C33.216 138.864 32.9947 138.902 32.84 138.976C32.6853 139.051 32.576 139.176 32.512 139.352C32.448 139.528 32.4133 139.768 32.408 140.072V141.848H31.872V140.08C31.8667 139.814 31.84 139.603 31.792 139.448C31.7387 139.288 31.6453 139.174 31.512 139.104C31.3733 139.035 31.1813 139 30.936 139C30.6853 139 30.4933 139.038 30.36 139.112C30.2267 139.187 30.136 139.312 30.088 139.488C30.04 139.659 30.016 139.894 30.016 140.192C30.016 140.454 30.016 140.688 30.016 140.896C30.016 141.104 30.0187 141.288 30.024 141.448C30.024 141.603 30.0293 141.734 30.04 141.84L29.48 141.952C29.4587 141.766 29.4453 141.59 29.44 141.424C29.4293 141.254 29.424 141.07 29.424 140.872C29.4187 140.67 29.416 140.432 29.416 140.16ZM29.48 141.264H35V141.952H29.48V141.264ZM29.48 132.831C29.48 132.767 29.4987 132.711 29.536 132.663C29.568 132.615 29.6133 132.583 29.672 132.567L35 130.791V131.519L30.472 132.951C30.3973 132.973 30.3227 132.997 30.248 133.023C30.168 133.045 30.0933 133.066 30.024 133.087V133.311C30.0933 133.333 30.168 133.354 30.248 133.375C30.3227 133.397 30.3973 133.421 30.472 133.447L35 134.879V135.607L29.672 133.831C29.6133 133.815 29.568 133.783 29.536 133.735C29.4987 133.687 29.48 133.631 29.48 133.567V132.831ZM32.664 131.807H33.272V134.607H32.664V131.807ZM29.48 127.335H33.88C34.0613 127.335 34.1947 127.292 34.28 127.207C34.3653 127.116 34.408 126.98 34.408 126.799V124.807L34.952 124.775C34.9787 125.122 34.9947 125.476 35 125.839C35.0053 126.196 35.008 126.554 35.008 126.911C35.008 127.316 34.9093 127.604 34.712 127.775C34.5147 127.946 34.2667 128.031 33.968 128.031H29.48V127.335ZM29.384 116.776C29.3893 116.514 29.4027 116.245 29.424 115.968C29.4453 115.69 29.4853 115.413 29.544 115.136L30.056 115.184C30.0453 115.413 30.0373 115.666 30.032 115.944C30.0213 116.221 30.016 116.488 30.016 116.744C30.016 116.941 30.024 117.112 30.04 117.256C30.0507 117.394 30.0827 117.509 30.136 117.6C30.184 117.69 30.2667 117.757 30.384 117.8C30.496 117.837 30.6533 117.856 30.856 117.856C31.16 117.856 31.3733 117.802 31.496 117.696C31.6133 117.584 31.7013 117.405 31.76 117.16L32.04 116.04C32.1413 115.613 32.32 115.322 32.576 115.168C32.8267 115.008 33.1653 114.928 33.592 114.928C33.912 114.928 34.1707 114.965 34.368 115.04C34.5653 115.109 34.7173 115.218 34.824 115.368C34.9253 115.517 34.9947 115.709 35.032 115.944C35.0747 116.178 35.096 116.456 35.096 116.776C35.096 116.957 35.088 117.194 35.072 117.488C35.056 117.776 35.0133 118.109 34.944 118.488L34.424 118.44C34.4347 118.125 34.4453 117.872 34.456 117.68C34.4613 117.488 34.464 117.322 34.464 117.184C34.464 117.045 34.464 116.901 34.464 116.752C34.464 116.469 34.4427 116.248 34.4 116.088C34.3573 115.922 34.272 115.808 34.144 115.744C34.016 115.674 33.8267 115.64 33.576 115.64C33.3627 115.64 33.1973 115.664 33.08 115.712C32.9627 115.76 32.8747 115.837 32.816 115.944C32.752 116.045 32.7013 116.176 32.664 116.336L32.376 117.48C32.2747 117.88 32.0987 118.162 31.848 118.328C31.5973 118.488 31.2613 118.568 30.84 118.568C30.52 118.568 30.264 118.533 30.072 118.464C29.8747 118.389 29.728 118.28 29.632 118.136C29.5307 117.986 29.464 117.8 29.432 117.576C29.4 117.352 29.384 117.085 29.384 116.776ZM29.376 109.851C29.376 109.451 29.424 109.113 29.52 108.835C29.616 108.553 29.776 108.329 30 108.163C30.2187 107.993 30.512 107.87 30.88 107.795C31.248 107.715 31.7013 107.675 32.24 107.675C32.7787 107.675 33.232 107.715 33.6 107.795C33.968 107.87 34.264 107.993 34.488 108.163C34.7067 108.329 34.864 108.553 34.96 108.835C35.056 109.113 35.104 109.451 35.104 109.851C35.104 110.251 35.056 110.593 34.96 110.875C34.864 111.153 34.7067 111.377 34.488 111.547C34.264 111.718 33.968 111.843 33.6 111.923C33.232 111.998 32.7787 112.035 32.24 112.035C31.7013 112.035 31.248 111.998 30.88 111.923C30.512 111.843 30.2187 111.718 30 111.547C29.776 111.377 29.616 111.153 29.52 110.875C29.424 110.593 29.376 110.251 29.376 109.851ZM30.008 109.851C30.008 110.214 30.0773 110.502 30.216 110.715C30.3547 110.923 30.5867 111.073 30.912 111.163C31.232 111.249 31.6747 111.291 32.24 111.291C32.8 111.291 33.2427 111.249 33.568 111.163C33.8933 111.073 34.1253 110.923 34.264 110.715C34.4027 110.502 34.472 110.214 34.472 109.851C34.472 109.489 34.4027 109.203 34.264 108.995C34.1253 108.782 33.8933 108.633 33.568 108.547C33.2427 108.457 32.8 108.411 32.24 108.411C31.6747 108.411 31.232 108.457 30.912 108.547C30.5867 108.633 30.3547 108.782 30.216 108.995C30.0773 109.203 30.008 109.489 30.008 109.851ZM29.48 103.804H33.88C34.0613 103.804 34.1947 103.761 34.28 103.676C34.3653 103.585 34.408 103.449 34.408 103.268V101.276L34.952 101.244C34.9787 101.59 34.9947 101.945 35 102.308C35.0053 102.665 35.008 103.022 35.008 103.38C35.008 103.785 34.9093 104.073 34.712 104.244C34.5147 104.414 34.2667 104.5 33.968 104.5H29.48V103.804ZM29.48 96.2143C29.48 96.1503 29.4987 96.0943 29.536 96.0463C29.568 95.9983 29.6133 95.9663 29.672 95.9503L35 94.1743V94.9023L30.472 96.3343C30.3973 96.3556 30.3227 96.3796 30.248 96.4063C30.168 96.4276 30.0933 96.449 30.024 96.4703V96.6943C30.0933 96.7156 30.168 96.737 30.248 96.7583C30.3227 96.7796 30.3973 96.8036 30.472 96.8303L35 98.2623V98.9903L29.672 97.2143C29.6133 97.1983 29.568 97.1663 29.536 97.1183C29.4987 97.0703 29.48 97.0143 29.48 96.9503V96.2143ZM32.664 95.1903H33.272L33.272 97.9903H32.664L32.664 95.1903ZM29.408 89.4937C29.408 89.0671 29.456 88.7231 29.552 88.4617C29.6427 88.2004 29.8027 88.0111 30.032 87.8937C30.2613 87.7711 30.584 87.7097 31 87.7097C31.2987 87.7097 31.5493 87.7444 31.752 87.8137C31.9493 87.8831 32.104 87.9924 32.216 88.1417C32.3227 88.2857 32.392 88.4804 32.424 88.7257H32.464C32.4853 88.6351 32.5307 88.5471 32.6 88.4617C32.664 88.3711 32.752 88.2884 32.864 88.2137C32.9707 88.1391 33.1013 88.0831 33.256 88.0457L35 87.5097V88.2617L33.272 88.7497C33.064 88.8191 32.9173 88.9124 32.832 89.0297C32.7413 89.1471 32.696 89.2991 32.696 89.4857C32.696 89.8111 32.696 90.0937 32.696 90.3337C32.6907 90.5737 32.6853 90.7737 32.68 90.9337C32.6747 91.0937 32.672 91.2217 32.672 91.3177L32.088 91.2937V89.5097C32.0827 89.2377 32.0507 89.0244 31.992 88.8697C31.9333 88.7097 31.8293 88.5951 31.68 88.5257C31.5253 88.4564 31.312 88.4217 31.04 88.4217C30.768 88.4217 30.56 88.4564 30.416 88.5257C30.2667 88.5951 30.1627 88.7097 30.104 88.8697C30.0453 89.0244 30.016 89.2377 30.016 89.5097C30.016 89.9471 30.0187 90.3257 30.024 90.6457C30.0293 90.9604 30.032 91.1737 30.032 91.2857L29.48 91.3977C29.4587 91.1951 29.4427 91.0057 29.432 90.8297C29.4213 90.6537 29.416 90.4617 29.416 90.2537C29.4107 90.0404 29.408 89.7871 29.408 89.4937ZM29.48 90.7017H35V91.3977H29.48V90.7017ZM29.48 79.9672H35V80.6712H29.48V79.9672ZM29.48 72.3294H34.72C34.9067 72.3294 35 72.4201 35 72.6014V73.2894C35 73.3694 34.9813 73.4334 34.944 73.4814C34.9067 73.5294 34.8507 73.5694 34.776 73.6014L30.864 75.4654C30.7573 75.5134 30.6373 75.5694 30.504 75.6334C30.3707 75.6974 30.248 75.7454 30.136 75.7774V75.9054C30.2533 75.8948 30.3733 75.8868 30.496 75.8814C30.6187 75.8761 30.7413 75.8734 30.864 75.8734H35V76.5774H29.76C29.5733 76.5774 29.48 76.4841 29.48 76.2974V75.6334C29.48 75.5534 29.4987 75.4894 29.536 75.4414C29.5733 75.3934 29.6293 75.3534 29.704 75.3214L33.52 73.5134C33.632 73.4548 33.76 73.3934 33.904 73.3294C34.0427 73.2601 34.1813 73.1961 34.32 73.1374V73.0014C34.176 73.0068 34.0347 73.0121 33.896 73.0174C33.7573 73.0228 33.6187 73.0254 33.48 73.0254H29.48V72.3294ZM29.48 66.9608H35V67.6648H29.48V66.9608ZM29.48 65.1768H30.104V69.4408H29.48V65.1768ZM29.48 60.5971C29.48 60.5331 29.4987 60.4771 29.536 60.4291C29.568 60.3811 29.6133 60.3491 29.672 60.3331L35 58.5571V59.2851L30.472 60.7171C30.3973 60.7385 30.3227 60.7625 30.248 60.7891C30.168 60.8105 30.0933 60.8318 30.024 60.8531V61.0771C30.0933 61.0985 30.168 61.1198 30.248 61.1411C30.3227 61.1625 30.3973 61.1865 30.472 61.2131L35 62.6451V63.3731L29.672 61.5971C29.6133 61.5811 29.568 61.5491 29.536 61.5011C29.4987 61.4531 29.48 61.3971 29.48 61.3331V60.5971ZM32.664 59.5731H33.272V62.3731H32.664V59.5731ZM29.48 52.0126L31.768 53.6206C31.8373 53.6686 31.8987 53.7166 31.952 53.7646C32 53.8072 32.056 53.8606 32.12 53.9246H32.136C32.2 53.8552 32.264 53.7912 32.328 53.7326C32.392 53.6739 32.456 53.6232 32.52 53.5806L35 51.9006V52.6926L32.112 54.6526L29.48 52.7806V52.0126ZM29.48 55.0846H31.208C31.368 55.0846 31.52 55.0926 31.664 55.1086C31.808 55.1246 31.9573 55.1486 32.112 55.1806C32.2613 55.1539 32.4107 55.1326 32.56 55.1166C32.7093 55.0952 32.8533 55.0846 32.992 55.0846H35V55.7806H29.48V55.0846ZM31.84 54.2686H32.408V55.3326H31.84V54.2686ZM29.472 48.0927C29.472 47.826 29.472 47.5594 29.472 47.2927C29.472 47.0207 29.4773 46.754 29.488 46.4927C29.4933 46.226 29.504 45.97 29.52 45.7247L30.072 45.7567V47.9727C30.072 48.138 30.1147 48.2607 30.2 48.3407C30.28 48.4154 30.4133 48.4527 30.6 48.4527H33.88C34.0667 48.4527 34.2027 48.4154 34.288 48.3407C34.3733 48.2607 34.416 48.138 34.416 47.9727V45.7567L34.96 45.7247C34.976 45.97 34.9867 46.226 34.992 46.4927C34.9973 46.754 35 47.0207 35 47.2927C35.0053 47.5594 35.008 47.826 35.008 48.0927C35.008 48.418 34.9227 48.6767 34.752 48.8687C34.576 49.0554 34.3413 49.1514 34.048 49.1567H30.432C30.1333 49.1514 29.8987 49.0554 29.728 48.8687C29.5573 48.6767 29.472 48.418 29.472 48.0927ZM31.8 49.0127V46.0687H32.368V49.0127H31.8Z" fill="#2F2F2F"/>
<path d="M274.384 152.768C274.389 152.507 274.403 152.237 274.424 151.96C274.445 151.683 274.485 151.405 274.544 151.128L275.056 151.176C275.045 151.405 275.037 151.659 275.032 151.936C275.021 152.213 275.016 152.48 275.016 152.736C275.016 152.933 275.024 153.104 275.04 153.248C275.051 153.387 275.083 153.501 275.136 153.592C275.184 153.683 275.267 153.749 275.384 153.792C275.496 153.829 275.653 153.848 275.856 153.848C276.16 153.848 276.373 153.795 276.496 153.688C276.613 153.576 276.701 153.397 276.76 153.152L277.04 152.032C277.141 151.605 277.32 151.315 277.576 151.16C277.827 151 278.165 150.92 278.592 150.92C278.912 150.92 279.171 150.957 279.368 151.032C279.565 151.101 279.717 151.211 279.824 151.36C279.925 151.509 279.995 151.701 280.032 151.936C280.075 152.171 280.096 152.448 280.096 152.768C280.096 152.949 280.088 153.187 280.072 153.48C280.056 153.768 280.013 154.101 279.944 154.48L279.424 154.432C279.435 154.117 279.445 153.864 279.456 153.672C279.461 153.48 279.464 153.315 279.464 153.176C279.464 153.037 279.464 152.893 279.464 152.744C279.464 152.461 279.443 152.24 279.4 152.08C279.357 151.915 279.272 151.8 279.144 151.736C279.016 151.667 278.827 151.632 278.576 151.632C278.363 151.632 278.197 151.656 278.08 151.704C277.963 151.752 277.875 151.829 277.816 151.936C277.752 152.037 277.701 152.168 277.664 152.328L277.376 153.472C277.275 153.872 277.099 154.155 276.848 154.32C276.597 154.48 276.261 154.56 275.84 154.56C275.52 154.56 275.264 154.525 275.072 154.456C274.875 154.381 274.728 154.272 274.632 154.128C274.531 153.979 274.464 153.792 274.432 153.568C274.4 153.344 274.384 153.077 274.384 152.768ZM274.48 147.116H280V147.82H274.48V147.116ZM276.744 144.484H277.352V147.18H276.744V144.484ZM274.48 143.868H280V144.572H274.48V143.868ZM274.48 138.316C274.48 138.252 274.499 138.196 274.536 138.148C274.568 138.1 274.613 138.068 274.672 138.052L280 136.276V137.004L275.472 138.436C275.397 138.457 275.323 138.481 275.248 138.508C275.168 138.529 275.093 138.551 275.024 138.572V138.796C275.093 138.817 275.168 138.839 275.248 138.86C275.323 138.881 275.397 138.905 275.472 138.932L280 140.364V141.092L274.672 139.316C274.613 139.3 274.568 139.268 274.536 139.22C274.499 139.172 274.48 139.116 274.48 139.052V138.316ZM277.664 137.292H278.272V140.092H277.664V137.292ZM274.408 131.531C274.408 131.137 274.456 130.803 274.552 130.531C274.648 130.254 274.805 130.033 275.024 129.867C275.243 129.697 275.533 129.574 275.896 129.499C276.259 129.419 276.707 129.379 277.24 129.379C277.773 129.379 278.221 129.419 278.584 129.499C278.947 129.574 279.237 129.697 279.456 129.867C279.675 130.033 279.832 130.254 279.928 130.531C280.024 130.803 280.072 131.137 280.072 131.531C280.072 131.91 280.064 132.262 280.048 132.587C280.037 132.907 280.021 133.211 280 133.499L279.424 133.195C279.429 132.971 279.437 132.723 279.448 132.451C279.453 132.174 279.456 131.867 279.456 131.531C279.456 131.179 279.389 130.899 279.256 130.691C279.117 130.483 278.888 130.337 278.568 130.251C278.243 130.161 277.8 130.115 277.24 130.115C276.68 130.115 276.24 130.161 275.92 130.251C275.595 130.337 275.363 130.483 275.224 130.691C275.085 130.899 275.016 131.179 275.016 131.531C275.016 131.862 275.019 132.161 275.024 132.427C275.029 132.689 275.035 132.945 275.04 133.195L274.48 133.499C274.459 133.211 274.443 132.907 274.432 132.587C274.416 132.262 274.408 131.91 274.408 131.531ZM274.48 132.795H280V133.499H274.48V132.795ZM274.48 125.483H280V126.187H274.48V125.483ZM274.48 117.845H279.72C279.907 117.845 280 117.936 280 118.117V118.805C280 118.885 279.981 118.949 279.944 118.997C279.907 119.045 279.851 119.085 279.776 119.117L275.864 120.981C275.757 121.029 275.637 121.085 275.504 121.149C275.371 121.213 275.248 121.261 275.136 121.293V121.421C275.253 121.41 275.373 121.402 275.496 121.397C275.619 121.392 275.741 121.389 275.864 121.389H280V122.093H274.76C274.573 122.093 274.48 122 274.48 121.813V121.149C274.48 121.069 274.499 121.005 274.536 120.957C274.573 120.909 274.629 120.869 274.704 120.837L278.52 119.029C278.632 118.97 278.76 118.909 278.904 118.845C279.043 118.776 279.181 118.712 279.32 118.653V118.517C279.176 118.522 279.035 118.528 278.896 118.533C278.757 118.538 278.619 118.541 278.48 118.541H274.48V117.845ZM274.376 112.348C274.376 112.162 274.381 111.98 274.392 111.804C274.403 111.628 274.421 111.458 274.448 111.292C274.469 111.127 274.501 110.967 274.544 110.812L275.072 110.884C275.056 111.05 275.043 111.218 275.032 111.388C275.021 111.554 275.016 111.714 275.016 111.868C275.011 112.023 275.008 112.17 275.008 112.308C275.008 112.607 275.037 112.86 275.096 113.068C275.149 113.271 275.256 113.434 275.416 113.556C275.576 113.679 275.805 113.77 276.104 113.828C276.403 113.882 276.792 113.908 277.272 113.908C277.816 113.908 278.251 113.871 278.576 113.796C278.896 113.722 279.128 113.596 279.272 113.42C279.416 113.244 279.488 113.01 279.488 112.716C279.488 112.514 279.459 112.33 279.4 112.164C279.341 111.994 279.267 111.836 279.176 111.692C279.08 111.543 278.981 111.399 278.88 111.26L279.312 111.164C279.424 111.26 279.541 111.394 279.664 111.564C279.787 111.73 279.891 111.924 279.976 112.148C280.061 112.372 280.104 112.626 280.104 112.908C280.104 113.319 280.003 113.655 279.8 113.916C279.592 114.172 279.277 114.359 278.856 114.476C278.429 114.594 277.885 114.652 277.224 114.652C276.493 114.652 275.923 114.58 275.512 114.436C275.096 114.287 274.803 114.044 274.632 113.708C274.461 113.367 274.376 112.914 274.376 112.348ZM276.808 110.668H280V111.18L279.184 111.292L279.024 111.356H276.808V110.668ZM274.408 101.752C274.408 101.309 274.459 100.96 274.56 100.704C274.661 100.442 274.837 100.256 275.088 100.144C275.333 100.032 275.683 99.9757 276.136 99.9757C276.589 99.9757 276.941 100.032 277.192 100.144C277.443 100.25 277.619 100.429 277.72 100.68C277.816 100.925 277.864 101.256 277.864 101.672C277.864 101.896 277.859 102.112 277.848 102.32C277.837 102.522 277.824 102.709 277.808 102.88C277.787 103.05 277.765 103.197 277.744 103.32C277.723 103.437 277.704 103.52 277.688 103.568L277.256 103.544C277.256 103.261 277.256 102.968 277.256 102.664C277.256 102.36 277.256 102.058 277.256 101.76C277.251 101.493 277.219 101.282 277.16 101.128C277.096 100.968 276.984 100.856 276.824 100.792C276.659 100.722 276.429 100.688 276.136 100.688C275.837 100.688 275.608 100.722 275.448 100.792C275.288 100.856 275.176 100.968 275.112 101.128C275.048 101.282 275.016 101.493 275.016 101.76C275.016 102.197 275.019 102.576 275.024 102.896C275.029 103.21 275.037 103.424 275.048 103.536L274.48 103.648C274.459 103.445 274.443 103.256 274.432 103.08C274.421 102.904 274.416 102.712 274.416 102.504C274.411 102.296 274.408 102.045 274.408 101.752ZM274.48 102.944H280V103.648H274.48V102.944ZM274.376 94.953C274.376 94.553 274.424 94.2143 274.52 93.937C274.616 93.6543 274.776 93.4303 275 93.265C275.219 93.0943 275.512 92.9717 275.88 92.897C276.248 92.817 276.701 92.777 277.24 92.777C277.779 92.777 278.232 92.817 278.6 92.897C278.968 92.9717 279.264 93.0943 279.488 93.265C279.707 93.4303 279.864 93.6543 279.96 93.937C280.056 94.2143 280.104 94.553 280.104 94.953C280.104 95.353 280.056 95.6943 279.96 95.977C279.864 96.2543 279.707 96.4783 279.488 96.649C279.264 96.8197 278.968 96.945 278.6 97.025C278.232 97.0997 277.779 97.137 277.24 97.137C276.701 97.137 276.248 97.0997 275.88 97.025C275.512 96.945 275.219 96.8197 275 96.649C274.776 96.4783 274.616 96.2543 274.52 95.977C274.424 95.6943 274.376 95.353 274.376 94.953ZM275.008 94.953C275.008 95.3157 275.077 95.6037 275.216 95.817C275.355 96.025 275.587 96.1743 275.912 96.265C276.232 96.3503 276.675 96.393 277.24 96.393C277.8 96.393 278.243 96.3503 278.568 96.265C278.893 96.1743 279.125 96.025 279.264 95.817C279.403 95.6037 279.472 95.3157 279.472 94.953C279.472 94.5903 279.403 94.305 279.264 94.097C279.125 93.8837 278.893 93.7343 278.568 93.649C278.243 93.5583 277.8 93.513 277.24 93.513C276.675 93.513 276.232 93.5583 275.912 93.649C275.587 93.7343 275.355 93.8837 275.216 94.097C275.077 94.305 275.008 94.5903 275.008 94.953ZM274.384 88.0492C274.389 87.7879 274.403 87.5186 274.424 87.2412C274.445 86.9639 274.485 86.6866 274.544 86.4092L275.056 86.4572C275.045 86.6866 275.037 86.9399 275.032 87.2172C275.021 87.4946 275.016 87.7612 275.016 88.0172C275.016 88.2146 275.024 88.3852 275.04 88.5292C275.051 88.6679 275.083 88.7826 275.136 88.8732C275.184 88.9639 275.267 89.0306 275.384 89.0732C275.496 89.1106 275.653 89.1292 275.856 89.1292C276.16 89.1292 276.373 89.0759 276.496 88.9692C276.613 88.8572 276.701 88.6786 276.76 88.4332L277.04 87.3132C277.141 86.8866 277.32 86.5959 277.576 86.4412C277.827 86.2812 278.165 86.2012 278.592 86.2012C278.912 86.2012 279.171 86.2386 279.368 86.3132C279.565 86.3826 279.717 86.4919 279.824 86.6412C279.925 86.7906 279.995 86.9826 280.032 87.2172C280.075 87.4519 280.096 87.7292 280.096 88.0492C280.096 88.2306 280.088 88.4679 280.072 88.7612C280.056 89.0492 280.013 89.3826 279.944 89.7612L279.424 89.7132C279.435 89.3986 279.445 89.1452 279.456 88.9532C279.461 88.7612 279.464 88.5959 279.464 88.4572C279.464 88.3186 279.464 88.1746 279.464 88.0252C279.464 87.7426 279.443 87.5212 279.4 87.3612C279.357 87.1959 279.272 87.0812 279.144 87.0172C279.016 86.9479 278.827 86.9132 278.576 86.9132C278.363 86.9132 278.197 86.9372 278.08 86.9852C277.963 87.0332 277.875 87.1106 277.816 87.2172C277.752 87.3186 277.701 87.4492 277.664 87.6092L277.376 88.7532C277.275 89.1532 277.099 89.4359 276.848 89.6012C276.597 89.7612 276.261 89.8412 275.84 89.8412C275.52 89.8412 275.264 89.8066 275.072 89.7372C274.875 89.6626 274.728 89.5532 274.632 89.4092C274.531 89.2599 274.464 89.0732 274.432 88.8492C274.4 88.6252 274.384 88.3586 274.384 88.0492ZM274.48 82.3969H280V83.1009H274.48V82.3969ZM274.48 77.0311H280V77.7351H274.48V77.0311ZM274.48 75.2471H275.104V79.5111H274.48V75.2471ZM274.48 71.6547H280V72.3587H274.48V71.6547ZM274.376 66.2889C274.376 65.8889 274.424 65.5503 274.52 65.2729C274.616 64.9903 274.776 64.7663 275 64.6009C275.219 64.4303 275.512 64.3076 275.88 64.2329C276.248 64.1529 276.701 64.1129 277.24 64.1129C277.779 64.1129 278.232 64.1529 278.6 64.2329C278.968 64.3076 279.264 64.4303 279.488 64.6009C279.707 64.7663 279.864 64.9903 279.96 65.2729C280.056 65.5503 280.104 65.8889 280.104 66.2889C280.104 66.6889 280.056 67.0303 279.96 67.3129C279.864 67.5903 279.707 67.8143 279.488 67.9849C279.264 68.1556 278.968 68.2809 278.6 68.3609C278.232 68.4356 277.779 68.4729 277.24 68.4729C276.701 68.4729 276.248 68.4356 275.88 68.3609C275.512 68.2809 275.219 68.1556 275 67.9849C274.776 67.8143 274.616 67.5903 274.52 67.3129C274.424 67.0303 274.376 66.6889 274.376 66.2889ZM275.008 66.2889C275.008 66.6516 275.077 66.9396 275.216 67.1529C275.355 67.3609 275.587 67.5103 275.912 67.6009C276.232 67.6863 276.675 67.7289 277.24 67.7289C277.8 67.7289 278.243 67.6863 278.568 67.6009C278.893 67.5103 279.125 67.3609 279.264 67.1529C279.403 66.9396 279.472 66.6516 279.472 66.2889C279.472 65.9263 279.403 65.6409 279.264 65.4329C279.125 65.2196 278.893 65.0703 278.568 64.9849C278.243 64.8943 277.8 64.8489 277.24 64.8489C276.675 64.8489 276.232 64.8943 275.912 64.9849C275.587 65.0703 275.355 65.2196 275.216 65.4329C275.077 65.6409 275.008 65.9263 275.008 66.2889ZM274.48 56.6732H279.72C279.907 56.6732 280 56.7639 280 56.9452V57.6332C280 57.7132 279.981 57.7772 279.944 57.8252C279.907 57.8732 279.851 57.9132 279.776 57.9452L275.864 59.8092C275.757 59.8572 275.637 59.9132 275.504 59.9772C275.371 60.0412 275.248 60.0892 275.136 60.1212V60.2492C275.253 60.2385 275.373 60.2305 275.496 60.2252C275.619 60.2199 275.741 60.2172 275.864 60.2172H280V60.9212H274.76C274.573 60.9212 274.48 60.8279 274.48 60.6412V59.9772C274.48 59.8972 274.499 59.8332 274.536 59.7852C274.573 59.7372 274.629 59.6972 274.704 59.6652L278.52 57.8572C278.632 57.7985 278.76 57.7372 278.904 57.6732C279.043 57.6039 279.181 57.5399 279.32 57.4812V57.3452C279.176 57.3505 279.035 57.3559 278.896 57.3612C278.757 57.3665 278.619 57.3692 278.48 57.3692H274.48V56.6732Z" fill="#2F2F2F"/>
<path d="M298.603 188.064C297.958 188.064 297.467 187.819 297.131 187.328C296.795 186.837 296.627 186.123 296.627 185.184C296.627 184.24 296.795 183.523 297.131 183.032C297.467 182.541 297.958 182.296 298.603 182.296C299.248 182.296 299.739 182.541 300.075 183.032C300.411 183.517 300.579 184.232 300.579 185.176C300.579 186.12 300.411 186.837 300.075 187.328C299.739 187.819 299.248 188.064 298.603 188.064ZM298.603 187.512C299.051 187.512 299.382 187.323 299.595 186.944C299.808 186.565 299.915 185.976 299.915 185.176C299.915 184.371 299.808 183.784 299.595 183.416C299.387 183.043 299.056 182.856 298.603 182.856C298.155 182.856 297.824 183.043 297.611 183.416C297.398 183.789 297.291 184.376 297.291 185.176C297.291 185.976 297.398 186.565 297.611 186.944C297.824 187.323 298.155 187.512 298.603 187.512Z" fill="#2F2F2F"/>
<path d="M291.378 130.064C290.733 130.064 290.242 129.819 289.906 129.328C289.57 128.837 289.402 128.123 289.402 127.184C289.402 126.24 289.57 125.523 289.906 125.032C290.242 124.541 290.733 124.296 291.378 124.296C292.023 124.296 292.514 124.541 292.85 125.032C293.186 125.517 293.354 126.232 293.354 127.176C293.354 128.12 293.186 128.837 292.85 129.328C292.514 129.819 292.023 130.064 291.378 130.064ZM291.378 129.512C291.826 129.512 292.157 129.323 292.37 128.944C292.583 128.565 292.69 127.976 292.69 127.176C292.69 126.371 292.583 125.784 292.37 125.416C292.162 125.043 291.831 124.856 291.378 124.856C290.93 124.856 290.599 125.043 290.386 125.416C290.173 125.789 290.066 126.376 290.066 127.176C290.066 127.976 290.173 128.565 290.386 128.944C290.599 129.323 290.93 129.512 291.378 129.512ZM294.579 129.184H295.395V130H294.579V129.184ZM298.843 126.464C299.2 126.464 299.51 126.539 299.771 126.688C300.038 126.837 300.243 127.048 300.387 127.32C300.531 127.587 300.603 127.896 300.603 128.248C300.603 128.605 300.523 128.92 300.363 129.192C300.208 129.464 299.987 129.677 299.699 129.832C299.411 129.981 299.075 130.056 298.691 130.056C298.35 130.056 298.011 129.995 297.675 129.872C297.344 129.744 297.064 129.573 296.835 129.36L297.083 128.856C297.606 129.288 298.142 129.504 298.691 129.504C299.086 129.504 299.395 129.392 299.619 129.168C299.843 128.944 299.955 128.64 299.955 128.256C299.955 127.883 299.843 127.581 299.619 127.352C299.4 127.123 299.107 127.008 298.739 127.008C298.2 127.008 297.771 127.227 297.451 127.664H296.995V124.36H300.379V124.904H297.643V126.912C297.792 126.768 297.968 126.659 298.171 126.584C298.379 126.504 298.603 126.464 298.843 126.464Z" fill="#2F2F2F"/>
<path d="M299.139 70.448H300.379V71H297.243V70.448H298.483V66.176L297.491 66.8L297.187 66.296L298.667 65.36H299.139V70.448Z" fill="#2F2F2F"/>
<path d="M291.914 11.448H293.154V12H290.018V11.448H291.258V7.176L290.266 7.8L289.962 7.296L291.442 6.36H291.914V11.448ZM294.579 11.184H295.395V12H294.579V11.184ZM298.843 8.464C299.2 8.464 299.51 8.53867 299.771 8.688C300.038 8.83733 300.243 9.048 300.387 9.32C300.531 9.58667 300.603 9.896 300.603 10.248C300.603 10.6053 300.523 10.92 300.363 11.192C300.208 11.464 299.987 11.6773 299.699 11.832C299.411 11.9813 299.075 12.056 298.691 12.056C298.35 12.056 298.011 11.9947 297.675 11.872C297.344 11.744 297.064 11.5733 296.835 11.36L297.083 10.856C297.606 11.288 298.142 11.504 298.691 11.504C299.086 11.504 299.395 11.392 299.619 11.168C299.843 10.944 299.955 10.64 299.955 10.256C299.955 9.88267 299.843 9.58133 299.619 9.352C299.4 9.12267 299.107 9.008 298.739 9.008C298.2 9.008 297.771 9.22667 297.451 9.664H296.995V6.36H300.379V6.904H297.643V8.912C297.792 8.768 297.968 8.65867 298.171 8.584C298.379 8.504 298.603 8.464 298.843 8.464Z" fill="#2F2F2F"/>
<defs>
<filter id="filter0_d_496_45090" x="12.9078" y="231.05" width="141.754" height="18.7537" filterUnits="userSpaceOnUse" color-interpolation-filters="sRGB">
<feFlood flood-opacity="0" result="BackgroundImageFix"/>
<feColorMatrix in="SourceAlpha" type="matrix" values="0 0 0 0 0 0 0 0 0 0 0 0 0 0 0 0 0 0 127 0" result="hardAlpha"/>
<feOffset dx="2.28459" dy="3.42689"/>
<feGaussianBlur stdDeviation="4.18842"/>
<feComposite in2="hardAlpha" operator="out"/>
<feColorMatrix type="matrix" values="0 0 0 0 0 0 0 0 0 0.529412 0 0 0 0 1 0 0 0 0.15 0"/>
<feBlend mode="normal" in2="BackgroundImageFix" result="effect1_dropShadow_496_45090"/>
<feBlend mode="normal" in="SourceGraphic" in2="effect1_dropShadow_496_45090" result="shape"/>
</filter>
<filter id="filter1_d_496_45090" x="145.908" y="231.05" width="141.754" height="18.7537" filterUnits="userSpaceOnUse" color-interpolation-filters="sRGB">
<feFlood flood-opacity="0" result="BackgroundImageFix"/>
<feColorMatrix in="SourceAlpha" type="matrix" values="0 0 0 0 0 0 0 0 0 0 0 0 0 0 0 0 0 0 127 0" result="hardAlpha"/>
<feOffset dx="2.28459" dy="3.42689"/>
<feGaussianBlur stdDeviation="4.18842"/>
<feComposite in2="hardAlpha" operator="out"/>
<feColorMatrix type="matrix" values="0 0 0 0 0 0 0 0 0 0.529412 0 0 0 0 1 0 0 0 0.15 0"/>
<feBlend mode="normal" in2="BackgroundImageFix" result="effect1_dropShadow_496_45090"/>
<feBlend mode="normal" in="SourceGraphic" in2="effect1_dropShadow_496_45090" result="shape"/>
</filter>
</defs>
</svg>
