<svg width="24" height="24" viewBox="0 0 24 24" fill="none" xmlns="http://www.w3.org/2000/svg">
<path d="M3.50727 4.46303L9.00102 20.3349C9.2354 21.0193 10.2104 21.0005 10.426 20.3068L12.6385 13.1255C12.6719 13.0081 12.7353 12.9015 12.8224 12.816C12.9095 12.7305 13.0174 12.6692 13.1354 12.638L20.3073 10.4255C21.001 10.2099 21.0198 9.23491 20.3354 9.00053L4.46352 3.50678C4.33017 3.45991 4.18628 3.45169 4.04845 3.48305C3.91062 3.5144 3.78446 3.58408 3.68451 3.68403C3.58456 3.78398 3.51489 3.91014 3.48353 4.04796C3.45217 4.18579 3.4604 4.32968 3.50727 4.46303V4.46303Z" stroke="url(#paint0_linear_187_4158)" stroke-linecap="round" stroke-linejoin="round"/>
<defs>
<linearGradient id="paint0_linear_187_4158" x1="12.1516" y1="3.46436" x2="12.1516" y2="20.8378" gradientUnits="userSpaceOnUse">
<stop stop-color="#2F2F2F"/>
<stop offset="1" stop-color="#0087FF"/>
</linearGradient>
</defs>
</svg>
