<svg width="24" height="24" viewBox="0 0 24 24" fill="none" xmlns="http://www.w3.org/2000/svg">
<path d="M7.47187 5.31602L7.07812 3.10352" stroke="#2F2F2F" stroke-linecap="round" stroke-linejoin="round"/>
<path d="M4.56563 7.17266L2.71875 5.87891" stroke="#2F2F2F" stroke-linecap="round" stroke-linejoin="round"/>
<path d="M3.81602 10.5273L1.60352 10.9211" stroke="#2F2F2F" stroke-linecap="round" stroke-linejoin="round"/>
<path d="M10.8281 6.06562L12.1219 4.21875" stroke="#2F2F2F" stroke-linecap="round" stroke-linejoin="round"/>
<path d="M4.8362 12.6942C4.31048 12.0752 3.95793 11.328 3.81432 10.5286C3.62387 9.44729 3.83533 8.33363 4.40888 7.39736C4.98244 6.4611 5.87851 5.76683 6.92836 5.44531C7.97821 5.12379 9.10939 5.19719 10.1089 5.6517C11.1084 6.10621 11.9072 6.91046 12.3549 7.91299" stroke="#2F2F2F" stroke-linecap="round" stroke-linejoin="round"/>
<path d="M8.25 13.875C8.25 12.6141 8.62389 11.3816 9.32438 10.3332C10.0249 9.28488 11.0205 8.46778 12.1854 7.98527C13.3503 7.50276 14.6321 7.37652 15.8687 7.6225C17.1053 7.86848 18.2412 8.47564 19.1328 9.3672C20.0244 10.2588 20.6315 11.3947 20.8775 12.6313C21.1235 13.8679 20.9972 15.1497 20.5147 16.3146C20.0322 17.4795 19.2151 18.4751 18.1668 19.1756C17.1184 19.8761 15.8859 20.25 14.625 20.25H7.125C6.03098 20.25 4.98177 19.8154 4.20818 19.0418C3.4346 18.2682 3 17.219 3 16.125C3 15.031 3.4346 13.9818 4.20818 13.2082C4.98177 12.4346 6.03098 12 7.125 12C7.58146 11.9977 8.03494 12.0738 8.46563 12.225" stroke="#0087FF" stroke-linecap="round" stroke-linejoin="round"/>
</svg>
