<svg width="24" height="24" viewBox="0 0 24 24" fill="none" xmlns="http://www.w3.org/2000/svg">
<path d="M20.25 20.2495V10.8276C20.2483 10.7238 20.2259 10.6214 20.184 10.5264C20.1422 10.4314 20.0817 10.3457 20.0062 10.2745L12.5062 3.45884C12.368 3.33236 12.1874 3.26221 12 3.26221C11.8126 3.26221 11.632 3.33236 11.4937 3.45884L3.99375 10.2745C3.91828 10.3457 3.85783 10.4314 3.81597 10.5264C3.77411 10.6214 3.75168 10.7238 3.75 10.8276V20.2495" stroke="#2F2F2F" stroke-linecap="round" stroke-linejoin="round"/>
<path d="M14.25 20.25V15C14.25 14.8011 14.171 14.6103 14.0303 14.4697C13.8897 14.329 13.6989 14.25 13.5 14.25H10.5C10.3011 14.25 10.1103 14.329 9.96967 14.4697C9.82902 14.6103 9.75 14.8011 9.75 15V20.25" stroke="#0087FF" stroke-linecap="round" stroke-linejoin="round"/>
<path d="M1.5 20.25H22.5" stroke="#2F2F2F" stroke-linecap="round" stroke-linejoin="round"/>
</svg>
