<svg width="24" height="24" viewBox="0 0 24 24" fill="none" xmlns="http://www.w3.org/2000/svg">
<path d="M3.75 21H20.25" stroke="#0087FF" stroke-linecap="round" stroke-linejoin="round"/>
<path d="M10.4994 12.75L8.83062 4.96875C8.76073 4.64064 8.76509 4.30106 8.84339 3.97485C8.92169 3.64864 9.07194 3.34408 9.28315 3.08344C9.49436 2.8228 9.76117 2.61269 10.0641 2.46848C10.367 2.32428 10.6983 2.24963 11.0337 2.25H12.965C13.3005 2.24963 13.6318 2.32428 13.9347 2.46848C14.2376 2.61269 14.5044 2.8228 14.7156 3.08344C14.9268 3.34408 15.077 3.64864 15.1553 3.97485C15.2336 4.30106 15.238 4.64064 15.1681 4.96875L13.4994 12.75" stroke="#2F2F2F" stroke-linecap="round" stroke-linejoin="round"/>
<path d="M19.5 12.75H4.5C4.08579 12.75 3.75 13.0858 3.75 13.5V17.25C3.75 17.6642 4.08579 18 4.5 18H19.5C19.9142 18 20.25 17.6642 20.25 17.25V13.5C20.25 13.0858 19.9142 12.75 19.5 12.75Z" stroke="#2F2F2F" stroke-linecap="round" stroke-linejoin="round"/>
</svg>
