<svg width="24" height="24" viewBox="0 0 24 24" fill="none" xmlns="http://www.w3.org/2000/svg">
<path d="M12 14.25L7.5 12" stroke="#0087FF" stroke-linecap="round" stroke-linejoin="round"/>
<path d="M12 12L16.5 9.75" stroke="#0087FF" stroke-linecap="round" stroke-linejoin="round"/>
<path d="M12.4225 16.9876C13.1106 17.4563 13.8887 17.7766 14.7074 17.9283C15.526 18.0799 16.3672 18.0595 17.1775 17.8684C17.9878 17.6773 18.7495 17.3196 19.4141 16.8182C20.0786 16.3167 20.6316 15.6824 21.0377 14.9557C21.4439 14.2289 21.6943 13.4256 21.7732 12.5968C21.852 11.768 21.7575 10.9318 21.4957 10.1415C21.2338 9.35124 20.8104 8.62409 20.2522 8.00633C19.6941 7.38857 19.0135 6.89372 18.2538 6.55326C18.087 6.46939 17.9544 6.33022 17.8788 6.15951C17.3928 5.00166 16.5756 4.01314 15.5299 3.31797C14.4841 2.6228 13.2564 2.25195 12.0007 2.25195C10.7449 2.25195 9.51718 2.6228 8.47144 3.31797C7.4257 4.01314 6.60856 5.00166 6.12253 6.15951C6.0469 6.33022 5.91435 6.46939 5.74753 6.55326C4.98778 6.89372 4.3072 7.38857 3.74908 8.00633C3.19096 8.62409 2.76751 9.35124 2.50566 10.1415C2.24381 10.9318 2.1493 11.768 2.22813 12.5968C2.30697 13.4256 2.55742 14.2289 2.96357 14.9557C3.36972 15.6824 3.92267 16.3167 4.58725 16.8182C5.25183 17.3196 6.0135 17.6773 6.82381 17.8684C7.63412 18.0595 8.47534 18.0799 9.29396 17.9283C10.1126 17.7766 10.8907 17.4563 11.5788 16.9876C11.7041 16.9054 11.8507 16.8615 12.0007 16.8615C12.1506 16.8615 12.2972 16.9054 12.4225 16.9876Z" stroke="#2F2F2F" stroke-linecap="round" stroke-linejoin="round"/>
<path d="M12 21.75V8.25" stroke="#0087FF" stroke-linecap="round" stroke-linejoin="round"/>
</svg>
