<svg width="24" height="24" viewBox="0 0 24 24" fill="none" xmlns="http://www.w3.org/2000/svg">
<path d="M12 19.5004H20.25C20.5129 19.4995 20.7709 19.4295 20.9981 19.2975C21.2254 19.1654 21.414 18.976 21.5451 18.7481C21.6761 18.5202 21.7449 18.2619 21.7447 17.9991C21.7445 17.7362 21.6752 17.478 21.5438 17.2504L19.3031 13.3691" stroke="#2F2F2F" stroke-linecap="round" stroke-linejoin="round"/>
<path d="M6.58183 10.125L2.45683 17.25C2.3254 17.4776 2.25609 17.7358 2.25586 17.9987C2.25563 18.2615 2.32447 18.5198 2.4555 18.7477C2.58653 18.9756 2.77513 19.165 3.00243 19.2971C3.22972 19.4291 3.48772 19.4991 3.75058 19.5H8.25058" stroke="#2F2F2F" stroke-linecap="round" stroke-linejoin="round"/>
<path d="M17.4195 10.1252L13.2945 3.00024C13.1641 2.7723 12.9757 2.58287 12.7486 2.45113C12.5214 2.31938 12.2634 2.25 12.0008 2.25C11.7382 2.25 11.4802 2.31938 11.253 2.45113C11.0258 2.58287 10.8375 2.7723 10.707 3.00024L8.45703 6.88149" stroke="#2F2F2F" stroke-linecap="round" stroke-linejoin="round"/>
<path d="M14.25 21.75L12 19.5L14.25 17.25" stroke="#0087FF" stroke-linecap="round" stroke-linejoin="round"/>
<path d="M18.2441 7.05078L17.4191 10.1258L14.3535 9.30078" stroke="#0087FF" stroke-linecap="round" stroke-linejoin="round"/>
<path d="M7.40586 13.2L6.58086 10.125L3.50586 10.95" stroke="#0087FF" stroke-linecap="round" stroke-linejoin="round"/>
</svg>
