<svg width="24" height="24" viewBox="0 0 24 24" fill="none" xmlns="http://www.w3.org/2000/svg">
<path d="M20.5219 6.65605C21.0139 7.80476 21.1343 9.07856 20.8664 10.2991C20.5984 11.5197 19.9554 12.6259 19.0275 13.4629C18.0996 14.2998 16.9332 14.8257 15.6916 14.9668C14.4499 15.1079 13.1953 14.8572 12.1032 14.2498L6.84381 20.3436C6.42112 20.7662 5.84783 21.0037 5.25006 21.0037C4.65229 21.0037 4.079 20.7662 3.65631 20.3436C3.23362 19.9209 2.99615 19.3476 2.99615 18.7498C2.99615 18.152 3.23362 17.5787 3.65631 17.1561L9.75006 11.8967C9.14264 10.8046 8.89194 9.54993 9.03305 8.3083C9.17416 7.06667 9.70002 5.90024 10.537 4.97233C11.374 4.04441 12.4802 3.40147 13.7007 3.1335C14.9213 2.86553 16.1951 2.98596 17.3438 3.47793L13.4063 7.40605L13.9407 10.0592L16.5938 10.5936L20.5219 6.65605Z" stroke="url(#paint0_linear_1517_68857)" stroke-linecap="round" stroke-linejoin="round"/>
<defs>
<linearGradient id="paint0_linear_1517_68857" x1="12.0009" y1="2.99414" x2="12.0009" y2="21.0037" gradientUnits="userSpaceOnUse">
<stop stop-color="#2F2F2F"/>
<stop offset="1" stop-color="#0087FF"/>
</linearGradient>
</defs>
</svg>
