<svg width="754" height="514" viewBox="0 0 754 514" fill="none" xmlns="http://www.w3.org/2000/svg">
<path d="M155.808 505.096C154.488 505.096 153.432 504.74 152.64 504.028L153.024 503.272C153.44 503.624 153.864 503.876 154.296 504.028C154.736 504.18 155.244 504.256 155.82 504.256C156.5 504.256 157.024 504.124 157.392 503.86C157.76 503.596 157.944 503.224 157.944 502.744C157.944 502.464 157.856 502.236 157.68 502.06C157.504 501.884 157.272 501.744 156.984 501.64C156.696 501.536 156.308 501.428 155.82 501.316C155.164 501.164 154.624 501.004 154.2 500.836C153.784 500.668 153.444 500.428 153.18 500.116C152.924 499.804 152.796 499.396 152.796 498.892C152.796 498.412 152.92 497.988 153.168 497.62C153.424 497.244 153.784 496.956 154.248 496.756C154.72 496.548 155.264 496.444 155.88 496.444C156.464 496.444 157.008 496.536 157.512 496.72C158.024 496.904 158.456 497.168 158.808 497.512L158.436 498.268C158.036 497.924 157.628 497.676 157.212 497.524C156.804 497.364 156.36 497.284 155.88 497.284C155.224 497.284 154.708 497.424 154.332 497.704C153.964 497.976 153.78 498.36 153.78 498.856C153.78 499.28 153.944 499.6 154.272 499.816C154.6 500.032 155.096 500.216 155.76 500.368C156.488 500.544 157.06 500.708 157.476 500.86C157.892 501.004 158.236 501.224 158.508 501.52C158.788 501.816 158.928 502.212 158.928 502.708C158.928 503.188 158.8 503.608 158.544 503.968C158.296 504.328 157.936 504.608 157.464 504.808C156.992 505 156.44 505.096 155.808 505.096ZM163.322 499.012C164.722 499.012 165.422 499.784 165.422 501.328V505H164.45V501.388C164.45 500.844 164.342 500.448 164.126 500.2C163.918 499.952 163.582 499.828 163.118 499.828C162.582 499.828 162.154 499.992 161.834 500.32C161.514 500.648 161.354 501.092 161.354 501.652V505H160.382V496.54H161.354V500.092C161.546 499.74 161.81 499.472 162.146 499.288C162.49 499.104 162.882 499.012 163.322 499.012ZM169.579 499.012C170.323 499.012 170.875 499.204 171.235 499.588C171.603 499.964 171.787 500.54 171.787 501.316V505H170.839V504.004C170.687 504.348 170.455 504.616 170.143 504.808C169.831 504.992 169.471 505.084 169.063 505.084C168.687 505.084 168.339 505.008 168.019 504.856C167.707 504.704 167.459 504.492 167.275 504.22C167.091 503.948 166.999 503.648 166.999 503.32C166.999 502.88 167.111 502.54 167.335 502.3C167.559 502.052 167.927 501.876 168.439 501.772C168.951 501.66 169.663 501.604 170.575 501.604H170.839V501.208C170.839 500.72 170.739 500.368 170.539 500.152C170.339 499.928 170.015 499.816 169.567 499.816C168.895 499.816 168.227 500.024 167.563 500.44L167.239 499.732C167.543 499.516 167.907 499.344 168.331 499.216C168.763 499.08 169.179 499.012 169.579 499.012ZM169.195 504.316C169.675 504.316 170.067 504.156 170.371 503.836C170.683 503.508 170.839 503.088 170.839 502.576V502.228H170.623C169.919 502.228 169.383 502.26 169.015 502.324C168.647 502.38 168.383 502.48 168.223 502.624C168.071 502.76 167.995 502.964 167.995 503.236C167.995 503.548 168.107 503.808 168.331 504.016C168.563 504.216 168.851 504.316 169.195 504.316ZM178.75 496.54V505H177.778V503.932C177.602 504.3 177.342 504.584 176.998 504.784C176.662 504.984 176.266 505.084 175.81 505.084C175.298 505.084 174.846 504.956 174.454 504.7C174.062 504.444 173.758 504.088 173.542 503.632C173.326 503.168 173.218 502.632 173.218 502.024C173.218 501.424 173.326 500.896 173.542 500.44C173.758 499.984 174.062 499.632 174.454 499.384C174.846 499.136 175.298 499.012 175.81 499.012C176.266 499.012 176.662 499.112 176.998 499.312C177.342 499.512 177.602 499.796 177.778 500.164V496.54H178.75ZM176.002 504.28C176.57 504.28 177.006 504.088 177.31 503.704C177.622 503.312 177.778 502.76 177.778 502.048C177.778 501.336 177.622 500.788 177.31 500.404C177.006 500.02 176.57 499.828 176.002 499.828C175.434 499.828 174.99 500.02 174.67 500.404C174.358 500.788 174.202 501.328 174.202 502.024C174.202 502.736 174.358 503.292 174.67 503.692C174.99 504.084 175.434 504.28 176.002 504.28ZM180.55 505V499.156H181.522V505H180.55ZM180.454 496.624H181.63V497.716H180.454V496.624ZM186.279 499.012C187.679 499.012 188.379 499.784 188.379 501.328V505H187.407V501.388C187.407 500.844 187.299 500.448 187.083 500.2C186.875 499.952 186.539 499.828 186.075 499.828C185.539 499.828 185.111 499.992 184.791 500.32C184.471 500.648 184.311 501.092 184.311 501.652V505H183.339V499.156H184.299V500.116C184.491 499.756 184.759 499.484 185.103 499.3C185.447 499.108 185.839 499.012 186.279 499.012ZM195.392 499.156V504.604C195.392 505.476 195.168 506.132 194.72 506.572C194.272 507.02 193.608 507.244 192.728 507.244C191.704 507.244 190.844 506.98 190.148 506.452L190.472 505.732C190.864 505.988 191.232 506.172 191.576 506.284C191.92 506.396 192.304 506.452 192.728 506.452C193.288 506.452 193.712 506.3 194 505.996C194.288 505.7 194.432 505.264 194.432 504.688V503.656C194.264 504.032 194.004 504.32 193.652 504.52C193.308 504.72 192.9 504.82 192.428 504.82C191.916 504.82 191.46 504.7 191.06 504.46C190.668 504.22 190.36 503.88 190.136 503.44C189.92 503 189.812 502.492 189.812 501.916C189.812 501.34 189.92 500.832 190.136 500.392C190.36 499.952 190.668 499.612 191.06 499.372C191.46 499.132 191.916 499.012 192.428 499.012C192.892 499.012 193.296 499.112 193.64 499.312C193.984 499.512 194.244 499.796 194.42 500.164V499.156H195.392ZM192.62 504.016C193.18 504.016 193.62 503.832 193.94 503.464C194.26 503.088 194.42 502.572 194.42 501.916C194.42 501.268 194.26 500.76 193.94 500.392C193.628 500.016 193.188 499.828 192.62 499.828C192.052 499.828 191.604 500.016 191.276 500.392C190.956 500.76 190.796 501.268 190.796 501.916C190.796 502.572 190.956 503.088 191.276 503.464C191.604 503.832 192.052 504.016 192.62 504.016ZM203.225 499.012C203.737 499.012 204.189 499.14 204.581 499.396C204.973 499.652 205.277 500.012 205.493 500.476C205.709 500.932 205.817 501.464 205.817 502.072C205.817 502.68 205.709 503.212 205.493 503.668C205.277 504.116 204.973 504.464 204.581 504.712C204.197 504.96 203.745 505.084 203.225 505.084C202.769 505.084 202.369 504.984 202.025 504.784C201.689 504.584 201.433 504.3 201.257 503.932V507.16H200.285V499.156H201.257V500.164C201.433 499.796 201.689 499.512 202.025 499.312C202.369 499.112 202.769 499.012 203.225 499.012ZM203.033 504.28C203.601 504.28 204.041 504.088 204.353 503.704C204.665 503.32 204.821 502.776 204.821 502.072C204.821 501.368 204.665 500.82 204.353 500.428C204.041 500.028 203.601 499.828 203.033 499.828C202.465 499.828 202.025 500.02 201.713 500.404C201.409 500.788 201.257 501.336 201.257 502.048C201.257 502.76 201.409 503.312 201.713 503.704C202.025 504.088 202.465 504.28 203.033 504.28ZM209.693 505.084C209.141 505.084 208.653 504.96 208.229 504.712C207.813 504.464 207.489 504.112 207.257 503.656C207.033 503.192 206.921 502.656 206.921 502.048C206.921 501.44 207.033 500.908 207.257 500.452C207.489 499.988 207.813 499.632 208.229 499.384C208.653 499.136 209.141 499.012 209.693 499.012C210.245 499.012 210.733 499.136 211.157 499.384C211.581 499.632 211.905 499.988 212.129 500.452C212.361 500.908 212.477 501.44 212.477 502.048C212.477 502.656 212.361 503.192 212.129 503.656C211.905 504.112 211.581 504.464 211.157 504.712C210.733 504.96 210.245 505.084 209.693 505.084ZM209.693 504.28C210.269 504.28 210.709 504.092 211.013 503.716C211.325 503.332 211.481 502.776 211.481 502.048C211.481 501.336 211.325 500.788 211.013 500.404C210.701 500.012 210.261 499.816 209.693 499.816C209.125 499.816 208.685 500.012 208.373 500.404C208.061 500.788 207.905 501.336 207.905 502.048C207.905 502.768 208.057 503.32 208.361 503.704C208.673 504.088 209.117 504.28 209.693 504.28ZM215.905 505.084C214.921 505.084 214.141 504.832 213.565 504.328L213.889 503.608C214.201 503.856 214.517 504.036 214.837 504.148C215.165 504.252 215.533 504.304 215.941 504.304C216.373 504.304 216.701 504.232 216.925 504.088C217.157 503.936 217.273 503.72 217.273 503.44C217.273 503.208 217.197 503.024 217.045 502.888C216.893 502.752 216.641 502.644 216.289 502.564L215.305 502.336C214.809 502.224 214.429 502.032 214.165 501.76C213.901 501.488 213.769 501.152 213.769 500.752C213.769 500.232 213.973 499.812 214.381 499.492C214.789 499.172 215.333 499.012 216.013 499.012C216.421 499.012 216.809 499.08 217.177 499.216C217.545 499.344 217.853 499.532 218.101 499.78L217.777 500.488C217.241 500.032 216.653 499.804 216.013 499.804C215.605 499.804 215.285 499.884 215.053 500.044C214.829 500.196 214.717 500.412 214.717 500.692C214.717 500.924 214.785 501.112 214.921 501.256C215.065 501.392 215.293 501.496 215.605 501.568L216.601 501.808C217.145 501.936 217.549 502.132 217.813 502.396C218.077 502.652 218.209 502.988 218.209 503.404C218.209 503.916 218.001 504.324 217.585 504.628C217.177 504.932 216.617 505.084 215.905 505.084ZM219.691 505V499.156H220.663V505H219.691ZM219.595 496.624H220.771V497.716H219.595V496.624ZM225.048 504.304C225.224 504.304 225.4 504.292 225.576 504.268L225.528 505.036C225.344 505.068 225.144 505.084 224.928 505.084C224.224 505.084 223.692 504.9 223.332 504.532C222.98 504.164 222.804 503.652 222.804 502.996V499.924H221.664V499.156H222.804V497.38H223.776V499.156H225.432V499.924H223.776V502.924C223.776 503.844 224.2 504.304 225.048 504.304ZM226.558 505V499.156H227.53V505H226.558ZM226.462 496.624H227.638V497.716H226.462V496.624ZM231.771 505.084C231.219 505.084 230.731 504.96 230.307 504.712C229.891 504.464 229.567 504.112 229.335 503.656C229.111 503.192 228.999 502.656 228.999 502.048C228.999 501.44 229.111 500.908 229.335 500.452C229.567 499.988 229.891 499.632 230.307 499.384C230.731 499.136 231.219 499.012 231.771 499.012C232.323 499.012 232.811 499.136 233.235 499.384C233.659 499.632 233.983 499.988 234.207 500.452C234.439 500.908 234.555 501.44 234.555 502.048C234.555 502.656 234.439 503.192 234.207 503.656C233.983 504.112 233.659 504.464 233.235 504.712C232.811 504.96 232.323 505.084 231.771 505.084ZM231.771 504.28C232.347 504.28 232.787 504.092 233.091 503.716C233.403 503.332 233.559 502.776 233.559 502.048C233.559 501.336 233.403 500.788 233.091 500.404C232.779 500.012 232.339 499.816 231.771 499.816C231.203 499.816 230.763 500.012 230.451 500.404C230.139 500.788 229.983 501.336 229.983 502.048C229.983 502.768 230.135 503.32 230.439 503.704C230.751 504.088 231.195 504.28 231.771 504.28ZM238.944 499.012C240.344 499.012 241.044 499.784 241.044 501.328V505H240.072V501.388C240.072 500.844 239.964 500.448 239.748 500.2C239.54 499.952 239.204 499.828 238.74 499.828C238.204 499.828 237.776 499.992 237.456 500.32C237.136 500.648 236.976 501.092 236.976 501.652V505H236.004V499.156H236.964V500.116C237.156 499.756 237.424 499.484 237.768 499.3C238.112 499.108 238.504 499.012 238.944 499.012Z" fill="#2F2F2F"/>
<g filter="url(#filter0_d_126_17766)">
<path d="M356 479H39C37.8954 479 37 479.895 37 481C37 482.105 37.8954 483 39 483H356C357.105 483 358 482.105 358 481C358 479.895 357.105 479 356 479Z" fill="#E4E9EF"/>
</g>
<path d="M523.013 500.596V504.508C522.677 504.684 522.237 504.828 521.693 504.94C521.157 505.044 520.613 505.096 520.061 505.096C519.221 505.096 518.497 504.924 517.889 504.58C517.281 504.236 516.813 503.74 516.485 503.092C516.165 502.444 516.005 501.668 516.005 500.764C516.005 499.868 516.165 499.096 516.485 498.448C516.805 497.8 517.265 497.304 517.865 496.96C518.465 496.616 519.173 496.444 519.989 496.444C520.581 496.444 521.125 496.536 521.621 496.72C522.117 496.896 522.541 497.16 522.893 497.512L522.521 498.268C522.113 497.916 521.709 497.664 521.309 497.512C520.917 497.36 520.477 497.284 519.989 497.284C519.037 497.284 518.305 497.584 517.793 498.184C517.281 498.784 517.025 499.644 517.025 500.764C517.025 501.908 517.285 502.78 517.805 503.38C518.325 503.972 519.085 504.268 520.085 504.268C520.813 504.268 521.489 504.16 522.113 503.944V501.364H520.013V500.596H523.013ZM524.857 505V496.54H525.829V505H524.857ZM530.07 505.084C529.518 505.084 529.03 504.96 528.606 504.712C528.19 504.464 527.866 504.112 527.634 503.656C527.41 503.192 527.298 502.656 527.298 502.048C527.298 501.44 527.41 500.908 527.634 500.452C527.866 499.988 528.19 499.632 528.606 499.384C529.03 499.136 529.518 499.012 530.07 499.012C530.622 499.012 531.11 499.136 531.534 499.384C531.958 499.632 532.282 499.988 532.506 500.452C532.738 500.908 532.854 501.44 532.854 502.048C532.854 502.656 532.738 503.192 532.506 503.656C532.282 504.112 531.958 504.464 531.534 504.712C531.11 504.96 530.622 505.084 530.07 505.084ZM530.07 504.28C530.646 504.28 531.086 504.092 531.39 503.716C531.702 503.332 531.858 502.776 531.858 502.048C531.858 501.336 531.702 500.788 531.39 500.404C531.078 500.012 530.638 499.816 530.07 499.816C529.502 499.816 529.062 500.012 528.75 500.404C528.438 500.788 528.282 501.336 528.282 502.048C528.282 502.768 528.434 503.32 528.738 503.704C529.05 504.088 529.494 504.28 530.07 504.28ZM537.242 499.012C537.754 499.012 538.206 499.136 538.598 499.384C538.99 499.632 539.294 499.984 539.51 500.44C539.726 500.896 539.834 501.424 539.834 502.024C539.834 502.632 539.726 503.168 539.51 503.632C539.294 504.088 538.99 504.444 538.598 504.7C538.206 504.956 537.754 505.084 537.242 505.084C536.786 505.084 536.386 504.984 536.042 504.784C535.706 504.584 535.45 504.3 535.274 503.932V505H534.302V496.54H535.274V500.164C535.45 499.796 535.706 499.512 536.042 499.312C536.386 499.112 536.786 499.012 537.242 499.012ZM537.05 504.28C537.618 504.28 538.058 504.084 538.37 503.692C538.682 503.292 538.838 502.736 538.838 502.024C538.838 501.328 538.682 500.788 538.37 500.404C538.058 500.02 537.618 499.828 537.05 499.828C536.482 499.828 536.042 500.02 535.73 500.404C535.426 500.788 535.274 501.336 535.274 502.048C535.274 502.76 535.426 503.312 535.73 503.704C536.042 504.088 536.482 504.28 537.05 504.28ZM543.663 499.012C544.407 499.012 544.959 499.204 545.319 499.588C545.687 499.964 545.871 500.54 545.871 501.316V505H544.923V504.004C544.771 504.348 544.539 504.616 544.227 504.808C543.915 504.992 543.555 505.084 543.147 505.084C542.771 505.084 542.423 505.008 542.103 504.856C541.791 504.704 541.543 504.492 541.359 504.22C541.175 503.948 541.083 503.648 541.083 503.32C541.083 502.88 541.195 502.54 541.419 502.3C541.643 502.052 542.011 501.876 542.523 501.772C543.035 501.66 543.747 501.604 544.659 501.604H544.923V501.208C544.923 500.72 544.823 500.368 544.623 500.152C544.423 499.928 544.099 499.816 543.651 499.816C542.979 499.816 542.311 500.024 541.647 500.44L541.323 499.732C541.627 499.516 541.991 499.344 542.415 499.216C542.847 499.08 543.263 499.012 543.663 499.012ZM543.279 504.316C543.759 504.316 544.151 504.156 544.455 503.836C544.767 503.508 544.923 503.088 544.923 502.576V502.228H544.707C544.003 502.228 543.467 502.26 543.099 502.324C542.731 502.38 542.467 502.48 542.307 502.624C542.155 502.76 542.079 502.964 542.079 503.236C542.079 503.548 542.191 503.808 542.415 504.016C542.647 504.216 542.935 504.316 543.279 504.316ZM547.65 505V496.54H548.622V505H547.65ZM556.365 505.096C555.045 505.096 553.989 504.74 553.197 504.028L553.581 503.272C553.997 503.624 554.421 503.876 554.853 504.028C555.293 504.18 555.801 504.256 556.377 504.256C557.057 504.256 557.581 504.124 557.949 503.86C558.317 503.596 558.501 503.224 558.501 502.744C558.501 502.464 558.413 502.236 558.237 502.06C558.061 501.884 557.829 501.744 557.541 501.64C557.253 501.536 556.865 501.428 556.377 501.316C555.721 501.164 555.181 501.004 554.757 500.836C554.341 500.668 554.001 500.428 553.737 500.116C553.481 499.804 553.353 499.396 553.353 498.892C553.353 498.412 553.477 497.988 553.725 497.62C553.981 497.244 554.341 496.956 554.805 496.756C555.277 496.548 555.821 496.444 556.437 496.444C557.021 496.444 557.565 496.536 558.069 496.72C558.581 496.904 559.013 497.168 559.365 497.512L558.993 498.268C558.593 497.924 558.185 497.676 557.769 497.524C557.361 497.364 556.917 497.284 556.437 497.284C555.781 497.284 555.265 497.424 554.889 497.704C554.521 497.976 554.337 498.36 554.337 498.856C554.337 499.28 554.501 499.6 554.829 499.816C555.157 500.032 555.653 500.216 556.317 500.368C557.045 500.544 557.617 500.708 558.033 500.86C558.449 501.004 558.793 501.224 559.065 501.52C559.345 501.816 559.485 502.212 559.485 502.708C559.485 503.188 559.357 503.608 559.101 503.968C558.853 504.328 558.493 504.608 558.021 504.808C557.549 505 556.997 505.096 556.365 505.096ZM563.363 505.084C562.811 505.084 562.323 504.96 561.899 504.712C561.483 504.464 561.159 504.112 560.927 503.656C560.703 503.192 560.591 502.656 560.591 502.048C560.591 501.44 560.703 500.908 560.927 500.452C561.159 499.988 561.483 499.632 561.899 499.384C562.323 499.136 562.811 499.012 563.363 499.012C563.915 499.012 564.403 499.136 564.827 499.384C565.251 499.632 565.575 499.988 565.799 500.452C566.031 500.908 566.147 501.44 566.147 502.048C566.147 502.656 566.031 503.192 565.799 503.656C565.575 504.112 565.251 504.464 564.827 504.712C564.403 504.96 563.915 505.084 563.363 505.084ZM563.363 504.28C563.939 504.28 564.379 504.092 564.683 503.716C564.995 503.332 565.151 502.776 565.151 502.048C565.151 501.336 564.995 500.788 564.683 500.404C564.371 500.012 563.931 499.816 563.363 499.816C562.795 499.816 562.355 500.012 562.043 500.404C561.731 500.788 561.575 501.336 561.575 502.048C561.575 502.768 561.727 503.32 562.031 503.704C562.343 504.088 562.787 504.28 563.363 504.28ZM567.595 505V496.54H568.567V505H567.595ZM572.76 499.012C573.504 499.012 574.056 499.204 574.416 499.588C574.784 499.964 574.968 500.54 574.968 501.316V505H574.02V504.004C573.868 504.348 573.636 504.616 573.324 504.808C573.012 504.992 572.652 505.084 572.244 505.084C571.868 505.084 571.52 505.008 571.2 504.856C570.888 504.704 570.64 504.492 570.456 504.22C570.272 503.948 570.18 503.648 570.18 503.32C570.18 502.88 570.292 502.54 570.516 502.3C570.74 502.052 571.108 501.876 571.62 501.772C572.132 501.66 572.844 501.604 573.756 501.604H574.02V501.208C574.02 500.72 573.92 500.368 573.72 500.152C573.52 499.928 573.196 499.816 572.748 499.816C572.076 499.816 571.408 500.024 570.744 500.44L570.42 499.732C570.724 499.516 571.088 499.344 571.512 499.216C571.944 499.08 572.36 499.012 572.76 499.012ZM572.376 504.316C572.856 504.316 573.248 504.156 573.552 503.836C573.864 503.508 574.02 503.088 574.02 502.576V502.228H573.804C573.1 502.228 572.564 502.26 572.196 502.324C571.828 502.38 571.564 502.48 571.404 502.624C571.252 502.76 571.176 502.964 571.176 503.236C571.176 503.548 571.288 503.808 571.512 504.016C571.744 504.216 572.032 504.316 572.376 504.316ZM580.06 499.852L579.424 499.912C578.824 499.968 578.388 500.156 578.116 500.476C577.852 500.796 577.72 501.192 577.72 501.664V505H576.748V499.156H577.696V500.176C578.024 499.496 578.668 499.116 579.628 499.036L579.976 499.012L580.06 499.852ZM584.216 505V496.54H585.2V505H584.216ZM590.082 499.012C591.482 499.012 592.182 499.784 592.182 501.328V505H591.21V501.388C591.21 500.844 591.102 500.448 590.886 500.2C590.678 499.952 590.342 499.828 589.878 499.828C589.342 499.828 588.914 499.992 588.594 500.32C588.274 500.648 588.114 501.092 588.114 501.652V505H587.142V499.156H588.102V500.116C588.294 499.756 588.562 499.484 588.906 499.3C589.25 499.108 589.642 499.012 590.082 499.012ZM596.531 504.304C596.707 504.304 596.883 504.292 597.059 504.268L597.011 505.036C596.827 505.068 596.627 505.084 596.411 505.084C595.707 505.084 595.175 504.9 594.815 504.532C594.463 504.164 594.287 503.652 594.287 502.996V499.924H593.147V499.156H594.287V497.38H595.259V499.156H596.915V499.924H595.259V502.924C595.259 503.844 595.683 504.304 596.531 504.304ZM600.417 499.012C601.161 499.012 601.713 499.204 602.073 499.588C602.441 499.964 602.625 500.54 602.625 501.316V505H601.677V504.004C601.525 504.348 601.293 504.616 600.981 504.808C600.669 504.992 600.309 505.084 599.901 505.084C599.525 505.084 599.177 505.008 598.857 504.856C598.545 504.704 598.297 504.492 598.113 504.22C597.929 503.948 597.837 503.648 597.837 503.32C597.837 502.88 597.949 502.54 598.173 502.3C598.397 502.052 598.765 501.876 599.277 501.772C599.789 501.66 600.501 501.604 601.413 501.604H601.677V501.208C601.677 500.72 601.577 500.368 601.377 500.152C601.177 499.928 600.853 499.816 600.405 499.816C599.733 499.816 599.065 500.024 598.401 500.44L598.077 499.732C598.381 499.516 598.745 499.344 599.169 499.216C599.601 499.08 600.017 499.012 600.417 499.012ZM600.033 504.316C600.513 504.316 600.905 504.156 601.209 503.836C601.521 503.508 601.677 503.088 601.677 502.576V502.228H601.461C600.757 502.228 600.221 502.26 599.853 502.324C599.485 502.38 599.221 502.48 599.061 502.624C598.909 502.76 598.833 502.964 598.833 503.236C598.833 503.548 598.945 503.808 599.169 504.016C599.401 504.216 599.689 504.316 600.033 504.316ZM609.612 505H608.352L605.376 502.204V505H604.404V496.54H605.376V501.808L608.1 499.168H609.336L606.432 501.964L609.612 505ZM615.194 502.228H610.922C610.954 502.908 611.138 503.424 611.474 503.776C611.81 504.12 612.286 504.292 612.902 504.292C613.582 504.292 614.206 504.06 614.774 503.596L615.098 504.304C614.842 504.544 614.514 504.736 614.114 504.88C613.714 505.016 613.306 505.084 612.89 505.084C611.978 505.084 611.258 504.816 610.73 504.28C610.21 503.744 609.95 503.004 609.95 502.06C609.95 501.46 610.066 500.932 610.298 500.476C610.53 500.012 610.854 499.652 611.27 499.396C611.694 499.14 612.174 499.012 612.71 499.012C613.486 499.012 614.094 499.268 614.534 499.78C614.974 500.284 615.194 500.98 615.194 501.868V502.228ZM612.722 499.768C612.21 499.768 611.798 499.928 611.486 500.248C611.182 500.568 611.002 501.02 610.946 501.604H614.342C614.326 501.012 614.178 500.56 613.898 500.248C613.618 499.928 613.226 499.768 612.722 499.768Z" fill="#2F2F2F"/>
<g filter="url(#filter1_d_126_17766)">
<path d="M724 479H407C405.895 479 405 479.895 405 481C405 482.105 405.895 483 407 483H724C725.105 483 726 482.105 726 481C726 479.895 725.105 479 724 479Z" fill="#0087FF"/>
</g>
<path d="M55.9902 6V396" stroke="#FAFBFC"/>
<path d="M83 6V396" stroke="#FAFBFC"/>
<path d="M110 6V396" stroke="#FAFBFC"/>
<path d="M137 6V396" stroke="#FAFBFC"/>
<path d="M164 6V396" stroke="#FAFBFC"/>
<path d="M191 6V396" stroke="#FAFBFC"/>
<path d="M218 6V396" stroke="#FAFBFC"/>
<path d="M245 6V396" stroke="#FAFBFC"/>
<path d="M272 6V396" stroke="#FAFBFC"/>
<path d="M299 6V396" stroke="#FAFBFC"/>
<path d="M326 6V396" stroke="#FAFBFC"/>
<path d="M353 6V396" stroke="#FAFBFC"/>
<path d="M380 6V396" stroke="#FAFBFC"/>
<path d="M407 6V396" stroke="#FAFBFC"/>
<path d="M434 6V396" stroke="#FAFBFC"/>
<path d="M461 6V396" stroke="#FAFBFC"/>
<path d="M488 6V396" stroke="#FAFBFC"/>
<path d="M515 6V396" stroke="#FAFBFC"/>
<path d="M542 6V396" stroke="#FAFBFC"/>
<path d="M569 6V396" stroke="#FAFBFC"/>
<path d="M596 6V396" stroke="#FAFBFC"/>
<path d="M623 6V396" stroke="#FAFBFC"/>
<path d="M650 6V396" stroke="#FAFBFC"/>
<path d="M677 6V396" stroke="#FAFBFC"/>
<path d="M704 6V396" stroke="#FAFBFC"/>
<path d="M55 10V400" stroke="#FAFBFC"/>
<path d="M56 400H705" stroke="#FAFBFC"/>
<path d="M56 396H705" stroke="#FAFBFC"/>
<path d="M56 331H705" stroke="#FAFBFC"/>
<path d="M56 266H705" stroke="#FAFBFC"/>
<path d="M56 201H705" stroke="#FAFBFC"/>
<path d="M56 136H705" stroke="#FAFBFC"/>
<path d="M56 71H705" stroke="#FAFBFC"/>
<path d="M56 5.9043H705" stroke="#FAFBFC"/>
<path d="M56.0023 422.096C55.0343 422.096 54.2983 421.728 53.7943 420.992C53.2903 420.256 53.0383 419.184 53.0383 417.776C53.0383 416.36 53.2903 415.284 53.7943 414.548C54.2983 413.812 55.0343 413.444 56.0023 413.444C56.9703 413.444 57.7063 413.812 58.2103 414.548C58.7143 415.276 58.9663 416.348 58.9663 417.764C58.9663 419.18 58.7143 420.256 58.2103 420.992C57.7063 421.728 56.9703 422.096 56.0023 422.096ZM56.0023 421.268C56.6743 421.268 57.1703 420.984 57.4903 420.416C57.8103 419.848 57.9703 418.964 57.9703 417.764C57.9703 416.556 57.8103 415.676 57.4903 415.124C57.1783 414.564 56.6823 414.284 56.0023 414.284C55.3303 414.284 54.8343 414.564 54.5143 415.124C54.1943 415.684 54.0343 416.564 54.0343 417.764C54.0343 418.964 54.1943 419.848 54.5143 420.416C54.8343 420.984 55.3303 421.268 56.0023 421.268Z" fill="#2F2F2F"/>
<path d="M81.8703 421.172V422H76.4223V421.256L79.3863 417.992C79.7863 417.544 80.0743 417.144 80.2503 416.792C80.4343 416.432 80.5263 416.072 80.5263 415.712C80.5263 415.248 80.3903 414.892 80.1183 414.644C79.8463 414.396 79.4623 414.272 78.9663 414.272C78.1503 414.272 77.3503 414.596 76.5663 415.244L76.1943 414.488C76.5303 414.168 76.9503 413.916 77.4543 413.732C77.9663 413.54 78.4783 413.444 78.9903 413.444C79.7663 413.444 80.3783 413.644 80.8263 414.044C81.2823 414.444 81.5103 414.984 81.5103 415.664C81.5103 416.152 81.3983 416.62 81.1743 417.068C80.9583 417.516 80.5983 418.016 80.0943 418.568L77.6943 421.172H81.8703Z" fill="#2F2F2F"/>
<path d="M105.17 419.348V420.164H103.898V422H102.926V420.164H99.0143V419.42L103.094 413.54H103.898V419.348H105.17ZM100.034 419.348H102.926V415.184L100.034 419.348Z" fill="#2F2F2F"/>
<path d="M125.368 416.684C125.88 416.684 126.336 416.796 126.736 417.02C127.136 417.244 127.448 417.56 127.672 417.968C127.896 418.376 128.008 418.844 128.008 419.372C128.008 419.892 127.892 420.36 127.66 420.776C127.428 421.192 127.104 421.516 126.688 421.748C126.272 421.98 125.804 422.096 125.284 422.096C124.26 422.096 123.468 421.74 122.908 421.028C122.356 420.316 122.08 419.3 122.08 417.98C122.08 417.028 122.208 416.212 122.464 415.532C122.728 414.852 123.104 414.336 123.592 413.984C124.08 413.624 124.664 413.444 125.344 413.444C125.832 413.444 126.308 413.536 126.772 413.72C127.236 413.896 127.644 414.152 127.996 414.488L127.624 415.244C127.224 414.908 126.84 414.664 126.472 414.512C126.112 414.352 125.744 414.272 125.368 414.272C124.64 414.272 124.072 414.596 123.664 415.244C123.264 415.884 123.064 416.792 123.064 417.968V418.148C123.248 417.7 123.544 417.344 123.952 417.08C124.36 416.816 124.832 416.684 125.368 416.684ZM125.236 421.268C125.78 421.268 126.216 421.096 126.544 420.752C126.872 420.408 127.036 419.952 127.036 419.384C127.036 418.824 126.868 418.372 126.532 418.028C126.204 417.684 125.768 417.512 125.224 417.512C124.672 417.512 124.22 417.688 123.868 418.04C123.524 418.384 123.352 418.832 123.352 419.384C123.352 419.944 123.524 420.4 123.868 420.752C124.22 421.096 124.676 421.268 125.236 421.268Z" fill="#2F2F2F"/>
<path d="M149.466 417.656C149.962 417.808 150.346 418.068 150.618 418.436C150.898 418.804 151.038 419.244 151.038 419.756C151.038 420.484 150.774 421.056 150.246 421.472C149.718 421.88 148.97 422.084 148.002 422.084C147.034 422.084 146.286 421.88 145.758 421.472C145.23 421.056 144.966 420.484 144.966 419.756C144.966 419.236 145.106 418.792 145.386 418.424C145.666 418.056 146.054 417.8 146.55 417.656C146.126 417.496 145.79 417.244 145.542 416.9C145.294 416.556 145.17 416.152 145.17 415.688C145.17 415 145.418 414.456 145.914 414.056C146.418 413.648 147.114 413.444 148.002 413.444C148.89 413.444 149.582 413.648 150.078 414.056C150.582 414.456 150.834 415 150.834 415.688C150.834 416.152 150.71 416.56 150.462 416.912C150.214 417.256 149.882 417.504 149.466 417.656ZM146.142 415.76C146.142 416.256 146.298 416.636 146.61 416.9C146.93 417.164 147.394 417.296 148.002 417.296C148.61 417.296 149.07 417.164 149.382 416.9C149.702 416.636 149.862 416.256 149.862 415.76C149.862 415.288 149.702 414.92 149.382 414.656C149.07 414.392 148.61 414.26 148.002 414.26C147.394 414.26 146.93 414.392 146.61 414.656C146.298 414.92 146.142 415.288 146.142 415.76ZM148.002 421.268C149.378 421.268 150.066 420.744 150.066 419.696C150.066 418.648 149.378 418.124 148.002 418.124C146.626 418.124 145.938 418.648 145.938 419.696C145.938 420.744 146.626 421.268 148.002 421.268Z" fill="#2F2F2F"/>
<path d="M171.709 421.172H173.569V422H168.865V421.172H170.725V414.764L169.237 415.7L168.781 414.944L171.001 413.54H171.709V421.172ZM178.1 422.096C177.132 422.096 176.396 421.728 175.892 420.992C175.388 420.256 175.136 419.184 175.136 417.776C175.136 416.36 175.388 415.284 175.892 414.548C176.396 413.812 177.132 413.444 178.1 413.444C179.068 413.444 179.804 413.812 180.308 414.548C180.812 415.276 181.064 416.348 181.064 417.764C181.064 419.18 180.812 420.256 180.308 420.992C179.804 421.728 179.068 422.096 178.1 422.096ZM178.1 421.268C178.772 421.268 179.268 420.984 179.588 420.416C179.908 419.848 180.068 418.964 180.068 417.764C180.068 416.556 179.908 415.676 179.588 415.124C179.276 414.564 178.78 414.284 178.1 414.284C177.428 414.284 176.932 414.564 176.612 415.124C176.292 415.684 176.132 416.564 176.132 417.764C176.132 418.964 176.292 419.848 176.612 420.416C176.932 420.984 177.428 421.268 178.1 421.268Z" fill="#2F2F2F"/>
<path d="M201.709 421.172H203.569V422H198.865V421.172H200.725V414.764L199.237 415.7L198.781 414.944L201.001 413.54H201.709V421.172ZM210.968 421.172V422H205.52V421.256L208.484 417.992C208.884 417.544 209.172 417.144 209.348 416.792C209.532 416.432 209.624 416.072 209.624 415.712C209.624 415.248 209.488 414.892 209.216 414.644C208.944 414.396 208.56 414.272 208.064 414.272C207.248 414.272 206.448 414.596 205.664 415.244L205.292 414.488C205.628 414.168 206.048 413.916 206.552 413.732C207.064 413.54 207.576 413.444 208.088 413.444C208.864 413.444 209.476 413.644 209.924 414.044C210.38 414.444 210.608 414.984 210.608 415.664C210.608 416.152 210.496 416.62 210.272 417.068C210.056 417.516 209.696 418.016 209.192 418.568L206.792 421.172H210.968Z" fill="#2F2F2F"/>
<path d="M231.709 421.172H233.569V422H228.865V421.172H230.725V414.764L229.237 415.7L228.781 414.944L231.001 413.54H231.709V421.172ZM241.268 419.348V420.164H239.996V422H239.024V420.164H235.112V419.42L239.192 413.54H239.996V419.348H241.268ZM236.132 419.348H239.024V415.184L236.132 419.348Z" fill="#2F2F2F"/>
<path d="M54.1 439.72V448H53.044V439.72H54.1ZM58.048 443.116V444.028H54.004V443.116H58.048ZM58.972 439.72V448H57.916V439.72H58.972ZM66.0236 439.564C66.6236 439.564 67.1316 439.636 67.5476 439.78C67.9716 439.924 68.3076 440.164 68.5556 440.5C68.8116 440.828 68.9956 441.268 69.1076 441.82C69.2276 442.372 69.2876 443.052 69.2876 443.86C69.2876 444.668 69.2276 445.348 69.1076 445.9C68.9956 446.452 68.8116 446.896 68.5556 447.232C68.3076 447.56 67.9716 447.796 67.5476 447.94C67.1316 448.084 66.6236 448.156 66.0236 448.156C65.4236 448.156 64.9116 448.084 64.4876 447.94C64.0716 447.796 63.7356 447.56 63.4796 447.232C63.2236 446.896 63.0356 446.452 62.9156 445.9C62.8036 445.348 62.7476 444.668 62.7476 443.86C62.7476 443.052 62.8036 442.372 62.9156 441.82C63.0356 441.268 63.2236 440.828 63.4796 440.5C63.7356 440.164 64.0716 439.924 64.4876 439.78C64.9116 439.636 65.4236 439.564 66.0236 439.564ZM66.0236 440.512C65.4796 440.512 65.0476 440.616 64.7276 440.824C64.4156 441.032 64.1916 441.38 64.0556 441.868C63.9276 442.348 63.8636 443.012 63.8636 443.86C63.8636 444.7 63.9276 445.364 64.0556 445.852C64.1916 446.34 64.4156 446.688 64.7276 446.896C65.0476 447.104 65.4796 447.208 66.0236 447.208C66.5676 447.208 66.9956 447.104 67.3076 446.896C67.6276 446.688 67.8516 446.34 67.9796 445.852C68.1156 445.364 68.1836 444.7 68.1836 443.86C68.1836 443.012 68.1156 442.348 67.9796 441.868C67.8516 441.38 67.6276 441.032 67.3076 440.824C66.9956 440.616 66.5676 440.512 66.0236 440.512ZM79.0393 439.72V444.832C79.0393 445.632 78.9433 446.276 78.7513 446.764C78.5593 447.252 78.2473 447.608 77.8153 447.832C77.3833 448.048 76.8033 448.156 76.0753 448.156C75.3313 448.156 74.7353 448.048 74.2873 447.832C73.8393 447.608 73.5153 447.252 73.3153 446.764C73.1153 446.276 73.0153 445.632 73.0153 444.832V439.72H74.0713V444.832C74.0713 445.424 74.1313 445.896 74.2513 446.248C74.3793 446.592 74.5873 446.84 74.8753 446.992C75.1633 447.136 75.5473 447.208 76.0273 447.208C76.5073 447.208 76.8873 447.136 77.1673 446.992C77.4553 446.84 77.6633 446.592 77.7913 446.248C77.9193 445.896 77.9833 445.424 77.9833 444.832V439.72H79.0393ZM85.9234 439.612C86.5634 439.612 87.0794 439.684 87.4714 439.828C87.8634 439.964 88.1474 440.204 88.3234 440.548C88.5074 440.892 88.5994 441.376 88.5994 442C88.5994 442.448 88.5474 442.824 88.4434 443.128C88.3394 443.424 88.1754 443.656 87.9514 443.824C87.7354 443.984 87.4434 444.088 87.0754 444.136V444.196C87.2114 444.228 87.3434 444.296 87.4714 444.4C87.6074 444.496 87.7314 444.628 87.8434 444.796C87.9554 444.956 88.0394 445.152 88.0954 445.384L88.8994 448H87.7714L87.0394 445.408C86.9354 445.096 86.7954 444.876 86.6194 444.748C86.4434 444.612 86.2154 444.544 85.9354 444.544C85.4474 444.544 85.0234 444.544 84.6634 444.544C84.3034 444.536 84.0034 444.528 83.7634 444.52C83.5234 444.512 83.3314 444.508 83.1874 444.508L83.2234 443.632H85.8994C86.3074 443.624 86.6274 443.576 86.8594 443.488C87.0994 443.4 87.2714 443.244 87.3754 443.02C87.4794 442.788 87.5314 442.468 87.5314 442.06C87.5314 441.652 87.4794 441.34 87.3754 441.124C87.2714 440.9 87.0994 440.744 86.8594 440.656C86.6274 440.568 86.3074 440.524 85.8994 440.524C85.2434 440.524 84.6754 440.528 84.1954 440.536C83.7234 440.544 83.4034 440.548 83.2354 440.548L83.0674 439.72C83.3714 439.688 83.6554 439.664 83.9194 439.648C84.1834 439.632 84.4714 439.624 84.7834 439.624C85.1034 439.616 85.4834 439.612 85.9234 439.612ZM84.1114 439.72V448H83.0674V439.72H84.1114ZM100.121 439.564C100.721 439.564 101.229 439.636 101.645 439.78C102.069 439.924 102.405 440.164 102.653 440.5C102.909 440.828 103.093 441.268 103.205 441.82C103.325 442.372 103.385 443.052 103.385 443.86C103.385 444.668 103.325 445.348 103.205 445.9C103.093 446.452 102.909 446.896 102.653 447.232C102.405 447.56 102.069 447.796 101.645 447.94C101.229 448.084 100.721 448.156 100.121 448.156C99.5213 448.156 99.0093 448.084 98.5853 447.94C98.1693 447.796 97.8333 447.56 97.5773 447.232C97.3213 446.896 97.1333 446.452 97.0133 445.9C96.9013 445.348 96.8453 444.668 96.8453 443.86C96.8453 443.052 96.9013 442.372 97.0133 441.82C97.1333 441.268 97.3213 440.828 97.5773 440.5C97.8333 440.164 98.1693 439.924 98.5853 439.78C99.0093 439.636 99.5213 439.564 100.121 439.564ZM100.121 440.512C99.5773 440.512 99.1453 440.616 98.8253 440.824C98.5133 441.032 98.2893 441.38 98.1533 441.868C98.0253 442.348 97.9613 443.012 97.9613 443.86C97.9613 444.7 98.0253 445.364 98.1533 445.852C98.2893 446.34 98.5133 446.688 98.8253 446.896C99.1453 447.104 99.5773 447.208 100.121 447.208C100.665 447.208 101.093 447.104 101.405 446.896C101.725 446.688 101.949 446.34 102.077 445.852C102.213 445.364 102.281 444.7 102.281 443.86C102.281 443.012 102.213 442.348 102.077 441.868C101.949 441.38 101.725 441.032 101.405 440.824C101.093 440.616 100.665 440.512 100.121 440.512ZM108.745 439.708C109.129 439.708 109.517 439.712 109.909 439.72C110.301 439.72 110.689 439.724 111.073 439.732C111.457 439.74 111.825 439.76 112.177 439.792L112.117 440.608H109.009C108.729 440.608 108.525 440.672 108.397 440.8C108.269 440.92 108.205 441.12 108.205 441.4V448H107.149V441.196C107.149 440.724 107.293 440.36 107.581 440.104C107.869 439.84 108.257 439.708 108.745 439.708ZM107.353 443.32H111.661V444.172H107.353V443.32ZM122.797 439.72V448H121.741V439.72H122.797ZM125.473 439.72V440.656H119.077V439.72H125.473ZM129.862 439.72V448H128.806V439.72H129.862ZM133.81 443.116V444.028H129.766V443.116H133.81ZM134.734 439.72V448H133.678V439.72H134.734ZM140.345 439.708C140.745 439.708 141.145 439.708 141.545 439.708C141.953 439.708 142.353 439.716 142.745 439.732C143.145 439.74 143.529 439.756 143.897 439.78L143.849 440.608H140.525C140.277 440.608 140.093 440.672 139.973 440.8C139.861 440.92 139.805 441.12 139.805 441.4V446.32C139.805 446.6 139.861 446.804 139.973 446.932C140.093 447.06 140.277 447.124 140.525 447.124H143.849L143.897 447.94C143.529 447.964 143.145 447.98 142.745 447.988C142.353 447.996 141.953 448 141.545 448C141.145 448.008 140.745 448.012 140.345 448.012C139.857 448.012 139.469 447.884 139.181 447.628C138.901 447.364 138.757 447.012 138.749 446.572V441.148C138.757 440.7 138.901 440.348 139.181 440.092C139.469 439.836 139.857 439.708 140.345 439.708ZM138.965 443.2H143.381V444.052H138.965V443.2ZM155.16 439.612C155.752 439.612 156.252 439.684 156.66 439.828C157.076 439.972 157.408 440.208 157.656 440.536C157.912 440.864 158.096 441.3 158.208 441.844C158.328 442.388 158.388 443.06 158.388 443.86C158.388 444.66 158.328 445.332 158.208 445.876C158.096 446.42 157.912 446.856 157.656 447.184C157.408 447.512 157.076 447.748 156.66 447.892C156.252 448.036 155.752 448.108 155.16 448.108C154.592 448.108 154.064 448.096 153.576 448.072C153.096 448.056 152.64 448.032 152.208 448L152.664 447.136C153 447.144 153.372 447.156 153.78 447.172C154.196 447.18 154.656 447.184 155.16 447.184C155.688 447.184 156.108 447.084 156.42 446.884C156.732 446.676 156.952 446.332 157.08 445.852C157.216 445.364 157.284 444.7 157.284 443.86C157.284 443.02 157.216 442.36 157.08 441.88C156.952 441.392 156.732 441.044 156.42 440.836C156.108 440.628 155.688 440.524 155.16 440.524C154.664 440.524 154.216 440.528 153.816 440.536C153.424 440.544 153.04 440.552 152.664 440.56L152.208 439.72C152.64 439.688 153.096 439.664 153.576 439.648C154.064 439.624 154.592 439.612 155.16 439.612ZM153.264 439.72V448H152.208V439.72H153.264ZM165.37 439.72C165.466 439.72 165.55 439.748 165.622 439.804C165.694 439.852 165.742 439.92 165.766 440.008L168.43 448H167.338L165.19 441.208C165.158 441.096 165.122 440.984 165.082 440.872C165.05 440.752 165.018 440.64 164.986 440.536H164.65C164.618 440.64 164.586 440.752 164.554 440.872C164.522 440.984 164.486 441.096 164.446 441.208L162.298 448H161.206L163.87 440.008C163.894 439.92 163.942 439.852 164.014 439.804C164.086 439.748 164.17 439.72 164.266 439.72H165.37ZM166.906 444.496V445.408H162.706V444.496H166.906ZM176.59 439.72L173.794 445.192H172.846L170.038 439.72H171.166L172.906 443.212C172.978 443.364 173.042 443.52 173.098 443.68C173.162 443.84 173.222 443.996 173.278 444.148H173.362C173.418 443.996 173.478 443.84 173.542 443.68C173.606 443.52 173.67 443.368 173.734 443.224L175.474 439.72H176.59ZM173.842 444.448V448H172.786V444.448H173.842Z" fill="#2F2F2F"/>
<path d="M261.715 421.172H263.575V422H258.871V421.172H260.731V414.764L259.243 415.7L258.787 414.944L261.007 413.54H261.715V421.172ZM268.466 416.684C268.978 416.684 269.434 416.796 269.834 417.02C270.234 417.244 270.546 417.56 270.77 417.968C270.994 418.376 271.106 418.844 271.106 419.372C271.106 419.892 270.99 420.36 270.758 420.776C270.526 421.192 270.202 421.516 269.786 421.748C269.37 421.98 268.902 422.096 268.382 422.096C267.358 422.096 266.566 421.74 266.006 421.028C265.454 420.316 265.178 419.3 265.178 417.98C265.178 417.028 265.306 416.212 265.562 415.532C265.826 414.852 266.202 414.336 266.69 413.984C267.178 413.624 267.762 413.444 268.442 413.444C268.93 413.444 269.406 413.536 269.87 413.72C270.334 413.896 270.742 414.152 271.094 414.488L270.722 415.244C270.322 414.908 269.938 414.664 269.57 414.512C269.21 414.352 268.842 414.272 268.466 414.272C267.738 414.272 267.17 414.596 266.762 415.244C266.362 415.884 266.162 416.792 266.162 417.968V418.148C266.346 417.7 266.642 417.344 267.05 417.08C267.458 416.816 267.93 416.684 268.466 416.684ZM268.334 421.268C268.878 421.268 269.314 421.096 269.642 420.752C269.97 420.408 270.134 419.952 270.134 419.384C270.134 418.824 269.966 418.372 269.63 418.028C269.302 417.684 268.866 417.512 268.322 417.512C267.77 417.512 267.318 417.688 266.966 418.04C266.622 418.384 266.45 418.832 266.45 419.384C266.45 419.944 266.622 420.4 266.966 420.752C267.318 421.096 267.774 421.268 268.334 421.268Z" fill="#2F2F2F"/>
<path d="M291.709 421.172H293.569V422H288.865V421.172H290.725V414.764L289.237 415.7L288.781 414.944L291.001 413.54H291.709V421.172ZM299.564 417.656C300.06 417.808 300.444 418.068 300.716 418.436C300.996 418.804 301.136 419.244 301.136 419.756C301.136 420.484 300.872 421.056 300.344 421.472C299.816 421.88 299.068 422.084 298.1 422.084C297.132 422.084 296.384 421.88 295.856 421.472C295.328 421.056 295.064 420.484 295.064 419.756C295.064 419.236 295.204 418.792 295.484 418.424C295.764 418.056 296.152 417.8 296.648 417.656C296.224 417.496 295.888 417.244 295.64 416.9C295.392 416.556 295.268 416.152 295.268 415.688C295.268 415 295.516 414.456 296.012 414.056C296.516 413.648 297.212 413.444 298.1 413.444C298.988 413.444 299.68 413.648 300.176 414.056C300.68 414.456 300.932 415 300.932 415.688C300.932 416.152 300.808 416.56 300.56 416.912C300.312 417.256 299.98 417.504 299.564 417.656ZM296.24 415.76C296.24 416.256 296.396 416.636 296.708 416.9C297.028 417.164 297.492 417.296 298.1 417.296C298.708 417.296 299.168 417.164 299.48 416.9C299.8 416.636 299.96 416.256 299.96 415.76C299.96 415.288 299.8 414.92 299.48 414.656C299.168 414.392 298.708 414.26 298.1 414.26C297.492 414.26 297.028 414.392 296.708 414.656C296.396 414.92 296.24 415.288 296.24 415.76ZM298.1 421.268C299.476 421.268 300.164 420.744 300.164 419.696C300.164 418.648 299.476 418.124 298.1 418.124C296.724 418.124 296.036 418.648 296.036 419.696C296.036 420.744 296.724 421.268 298.1 421.268Z" fill="#2F2F2F"/>
<path d="M323.773 421.172V422H318.325V421.256L321.289 417.992C321.689 417.544 321.977 417.144 322.153 416.792C322.337 416.432 322.429 416.072 322.429 415.712C322.429 415.248 322.293 414.892 322.021 414.644C321.749 414.396 321.365 414.272 320.869 414.272C320.053 414.272 319.253 414.596 318.469 415.244L318.097 414.488C318.433 414.168 318.853 413.916 319.357 413.732C319.869 413.54 320.381 413.444 320.893 413.444C321.669 413.444 322.281 413.644 322.729 414.044C323.185 414.444 323.413 414.984 323.413 415.664C323.413 416.152 323.301 416.62 323.077 417.068C322.861 417.516 322.501 418.016 321.997 418.568L319.597 421.172H323.773ZM328.1 422.096C327.132 422.096 326.396 421.728 325.892 420.992C325.388 420.256 325.136 419.184 325.136 417.776C325.136 416.36 325.388 415.284 325.892 414.548C326.396 413.812 327.132 413.444 328.1 413.444C329.068 413.444 329.804 413.812 330.308 414.548C330.812 415.276 331.064 416.348 331.064 417.764C331.064 419.18 330.812 420.256 330.308 420.992C329.804 421.728 329.068 422.096 328.1 422.096ZM328.1 421.268C328.772 421.268 329.268 420.984 329.588 420.416C329.908 419.848 330.068 418.964 330.068 417.764C330.068 416.556 329.908 415.676 329.588 415.124C329.276 414.564 328.78 414.284 328.1 414.284C327.428 414.284 326.932 414.564 326.612 415.124C326.292 415.684 326.132 416.564 326.132 417.764C326.132 418.964 326.292 419.848 326.612 420.416C326.932 420.984 327.428 421.268 328.1 421.268Z" fill="#2F2F2F"/>
<path d="M353.773 421.172V422H348.325V421.256L351.289 417.992C351.689 417.544 351.977 417.144 352.153 416.792C352.337 416.432 352.429 416.072 352.429 415.712C352.429 415.248 352.293 414.892 352.021 414.644C351.749 414.396 351.365 414.272 350.869 414.272C350.053 414.272 349.253 414.596 348.469 415.244L348.097 414.488C348.433 414.168 348.853 413.916 349.357 413.732C349.869 413.54 350.381 413.444 350.893 413.444C351.669 413.444 352.281 413.644 352.729 414.044C353.185 414.444 353.413 414.984 353.413 415.664C353.413 416.152 353.301 416.62 353.077 417.068C352.861 417.516 352.501 418.016 351.997 418.568L349.597 421.172H353.773ZM360.968 421.172V422H355.52V421.256L358.484 417.992C358.884 417.544 359.172 417.144 359.348 416.792C359.532 416.432 359.624 416.072 359.624 415.712C359.624 415.248 359.488 414.892 359.216 414.644C358.944 414.396 358.56 414.272 358.064 414.272C357.248 414.272 356.448 414.596 355.664 415.244L355.292 414.488C355.628 414.168 356.048 413.916 356.552 413.732C357.064 413.54 357.576 413.444 358.088 413.444C358.864 413.444 359.476 413.644 359.924 414.044C360.38 414.444 360.608 414.984 360.608 415.664C360.608 416.152 360.496 416.62 360.272 417.068C360.056 417.516 359.696 418.016 359.192 418.568L356.792 421.172H360.968Z" fill="#2F2F2F"/>
<path d="M381.002 422.096C380.034 422.096 379.298 421.728 378.794 420.992C378.29 420.256 378.038 419.184 378.038 417.776C378.038 416.36 378.29 415.284 378.794 414.548C379.298 413.812 380.034 413.444 381.002 413.444C381.97 413.444 382.706 413.812 383.21 414.548C383.714 415.276 383.966 416.348 383.966 417.764C383.966 419.18 383.714 420.256 383.21 420.992C382.706 421.728 381.97 422.096 381.002 422.096ZM381.002 421.268C381.674 421.268 382.17 420.984 382.49 420.416C382.81 419.848 382.97 418.964 382.97 417.764C382.97 416.556 382.81 415.676 382.49 415.124C382.178 414.564 381.682 414.284 381.002 414.284C380.33 414.284 379.834 414.564 379.514 415.124C379.194 415.684 379.034 416.564 379.034 417.764C379.034 418.964 379.194 419.848 379.514 420.416C379.834 420.984 380.33 421.268 381.002 421.268Z" fill="#2F2F2F"/>
<path d="M406.87 421.172V422H401.422V421.256L404.386 417.992C404.786 417.544 405.074 417.144 405.25 416.792C405.434 416.432 405.526 416.072 405.526 415.712C405.526 415.248 405.39 414.892 405.118 414.644C404.846 414.396 404.462 414.272 403.966 414.272C403.15 414.272 402.35 414.596 401.566 415.244L401.194 414.488C401.53 414.168 401.95 413.916 402.454 413.732C402.966 413.54 403.478 413.444 403.99 413.444C404.766 413.444 405.378 413.644 405.826 414.044C406.282 414.444 406.51 414.984 406.51 415.664C406.51 416.152 406.398 416.62 406.174 417.068C405.958 417.516 405.598 418.016 405.094 418.568L402.694 421.172H406.87Z" fill="#2F2F2F"/>
<path d="M430.17 419.348V420.164H428.898V422H427.926V420.164H424.014V419.42L428.094 413.54H428.898V419.348H430.17ZM425.034 419.348H427.926V415.184L425.034 419.348Z" fill="#2F2F2F"/>
<path d="M450.368 416.684C450.88 416.684 451.336 416.796 451.736 417.02C452.136 417.244 452.448 417.56 452.672 417.968C452.896 418.376 453.008 418.844 453.008 419.372C453.008 419.892 452.892 420.36 452.66 420.776C452.428 421.192 452.104 421.516 451.688 421.748C451.272 421.98 450.804 422.096 450.284 422.096C449.26 422.096 448.468 421.74 447.908 421.028C447.356 420.316 447.08 419.3 447.08 417.98C447.08 417.028 447.208 416.212 447.464 415.532C447.728 414.852 448.104 414.336 448.592 413.984C449.08 413.624 449.664 413.444 450.344 413.444C450.832 413.444 451.308 413.536 451.772 413.72C452.236 413.896 452.644 414.152 452.996 414.488L452.624 415.244C452.224 414.908 451.84 414.664 451.472 414.512C451.112 414.352 450.744 414.272 450.368 414.272C449.64 414.272 449.072 414.596 448.664 415.244C448.264 415.884 448.064 416.792 448.064 417.968V418.148C448.248 417.7 448.544 417.344 448.952 417.08C449.36 416.816 449.832 416.684 450.368 416.684ZM450.236 421.268C450.78 421.268 451.216 421.096 451.544 420.752C451.872 420.408 452.036 419.952 452.036 419.384C452.036 418.824 451.868 418.372 451.532 418.028C451.204 417.684 450.768 417.512 450.224 417.512C449.672 417.512 449.22 417.688 448.868 418.04C448.524 418.384 448.352 418.832 448.352 419.384C448.352 419.944 448.524 420.4 448.868 420.752C449.22 421.096 449.676 421.268 450.236 421.268Z" fill="#2F2F2F"/>
<path d="M474.466 417.656C474.962 417.808 475.346 418.068 475.618 418.436C475.898 418.804 476.038 419.244 476.038 419.756C476.038 420.484 475.774 421.056 475.246 421.472C474.718 421.88 473.97 422.084 473.002 422.084C472.034 422.084 471.286 421.88 470.758 421.472C470.23 421.056 469.966 420.484 469.966 419.756C469.966 419.236 470.106 418.792 470.386 418.424C470.666 418.056 471.054 417.8 471.55 417.656C471.126 417.496 470.79 417.244 470.542 416.9C470.294 416.556 470.17 416.152 470.17 415.688C470.17 415 470.418 414.456 470.914 414.056C471.418 413.648 472.114 413.444 473.002 413.444C473.89 413.444 474.582 413.648 475.078 414.056C475.582 414.456 475.834 415 475.834 415.688C475.834 416.152 475.71 416.56 475.462 416.912C475.214 417.256 474.882 417.504 474.466 417.656ZM471.142 415.76C471.142 416.256 471.298 416.636 471.61 416.9C471.93 417.164 472.394 417.296 473.002 417.296C473.61 417.296 474.07 417.164 474.382 416.9C474.702 416.636 474.862 416.256 474.862 415.76C474.862 415.288 474.702 414.92 474.382 414.656C474.07 414.392 473.61 414.26 473.002 414.26C472.394 414.26 471.93 414.392 471.61 414.656C471.298 414.92 471.142 415.288 471.142 415.76ZM473.002 421.268C474.378 421.268 475.066 420.744 475.066 419.696C475.066 418.648 474.378 418.124 473.002 418.124C471.626 418.124 470.938 418.648 470.938 419.696C470.938 420.744 471.626 421.268 473.002 421.268Z" fill="#2F2F2F"/>
<path d="M496.709 421.172H498.569V422H493.865V421.172H495.725V414.764L494.237 415.7L493.781 414.944L496.001 413.54H496.709V421.172ZM503.1 422.096C502.132 422.096 501.396 421.728 500.892 420.992C500.388 420.256 500.136 419.184 500.136 417.776C500.136 416.36 500.388 415.284 500.892 414.548C501.396 413.812 502.132 413.444 503.1 413.444C504.068 413.444 504.804 413.812 505.308 414.548C505.812 415.276 506.064 416.348 506.064 417.764C506.064 419.18 505.812 420.256 505.308 420.992C504.804 421.728 504.068 422.096 503.1 422.096ZM503.1 421.268C503.772 421.268 504.268 420.984 504.588 420.416C504.908 419.848 505.068 418.964 505.068 417.764C505.068 416.556 504.908 415.676 504.588 415.124C504.276 414.564 503.78 414.284 503.1 414.284C502.428 414.284 501.932 414.564 501.612 415.124C501.292 415.684 501.132 416.564 501.132 417.764C501.132 418.964 501.292 419.848 501.612 420.416C501.932 420.984 502.428 421.268 503.1 421.268Z" fill="#2F2F2F"/>
<path d="M526.709 421.172H528.569V422H523.865V421.172H525.725V414.764L524.237 415.7L523.781 414.944L526.001 413.54H526.709V421.172ZM535.968 421.172V422H530.52V421.256L533.484 417.992C533.884 417.544 534.172 417.144 534.348 416.792C534.532 416.432 534.624 416.072 534.624 415.712C534.624 415.248 534.488 414.892 534.216 414.644C533.944 414.396 533.56 414.272 533.064 414.272C532.248 414.272 531.448 414.596 530.664 415.244L530.292 414.488C530.628 414.168 531.048 413.916 531.552 413.732C532.064 413.54 532.576 413.444 533.088 413.444C533.864 413.444 534.476 413.644 534.924 414.044C535.38 414.444 535.608 414.984 535.608 415.664C535.608 416.152 535.496 416.62 535.272 417.068C535.056 417.516 534.696 418.016 534.192 418.568L531.792 421.172H535.968Z" fill="#2F2F2F"/>
<path d="M556.709 421.172H558.569V422H553.865V421.172H555.725V414.764L554.237 415.7L553.781 414.944L556.001 413.54H556.709V421.172ZM566.268 419.348V420.164H564.996V422H564.024V420.164H560.112V419.42L564.192 413.54H564.996V419.348H566.268ZM561.132 419.348H564.024V415.184L561.132 419.348Z" fill="#2F2F2F"/>
<path d="M586.715 421.172H588.575V422H583.871V421.172H585.731V414.764L584.243 415.7L583.787 414.944L586.007 413.54H586.715V421.172ZM593.466 416.684C593.978 416.684 594.434 416.796 594.834 417.02C595.234 417.244 595.546 417.56 595.77 417.968C595.994 418.376 596.106 418.844 596.106 419.372C596.106 419.892 595.99 420.36 595.758 420.776C595.526 421.192 595.202 421.516 594.786 421.748C594.37 421.98 593.902 422.096 593.382 422.096C592.358 422.096 591.566 421.74 591.006 421.028C590.454 420.316 590.178 419.3 590.178 417.98C590.178 417.028 590.306 416.212 590.562 415.532C590.826 414.852 591.202 414.336 591.69 413.984C592.178 413.624 592.762 413.444 593.442 413.444C593.93 413.444 594.406 413.536 594.87 413.72C595.334 413.896 595.742 414.152 596.094 414.488L595.722 415.244C595.322 414.908 594.938 414.664 594.57 414.512C594.21 414.352 593.842 414.272 593.466 414.272C592.738 414.272 592.17 414.596 591.762 415.244C591.362 415.884 591.162 416.792 591.162 417.968V418.148C591.346 417.7 591.642 417.344 592.05 417.08C592.458 416.816 592.93 416.684 593.466 416.684ZM593.334 421.268C593.878 421.268 594.314 421.096 594.642 420.752C594.97 420.408 595.134 419.952 595.134 419.384C595.134 418.824 594.966 418.372 594.63 418.028C594.302 417.684 593.866 417.512 593.322 417.512C592.77 417.512 592.318 417.688 591.966 418.04C591.622 418.384 591.45 418.832 591.45 419.384C591.45 419.944 591.622 420.4 591.966 420.752C592.318 421.096 592.774 421.268 593.334 421.268Z" fill="#2F2F2F"/>
<path d="M616.709 421.172H618.569V422H613.865V421.172H615.725V414.764L614.237 415.7L613.781 414.944L616.001 413.54H616.709V421.172ZM624.564 417.656C625.06 417.808 625.444 418.068 625.716 418.436C625.996 418.804 626.136 419.244 626.136 419.756C626.136 420.484 625.872 421.056 625.344 421.472C624.816 421.88 624.068 422.084 623.1 422.084C622.132 422.084 621.384 421.88 620.856 421.472C620.328 421.056 620.064 420.484 620.064 419.756C620.064 419.236 620.204 418.792 620.484 418.424C620.764 418.056 621.152 417.8 621.648 417.656C621.224 417.496 620.888 417.244 620.64 416.9C620.392 416.556 620.268 416.152 620.268 415.688C620.268 415 620.516 414.456 621.012 414.056C621.516 413.648 622.212 413.444 623.1 413.444C623.988 413.444 624.68 413.648 625.176 414.056C625.68 414.456 625.932 415 625.932 415.688C625.932 416.152 625.808 416.56 625.56 416.912C625.312 417.256 624.98 417.504 624.564 417.656ZM621.24 415.76C621.24 416.256 621.396 416.636 621.708 416.9C622.028 417.164 622.492 417.296 623.1 417.296C623.708 417.296 624.168 417.164 624.48 416.9C624.8 416.636 624.96 416.256 624.96 415.76C624.96 415.288 624.8 414.92 624.48 414.656C624.168 414.392 623.708 414.26 623.1 414.26C622.492 414.26 622.028 414.392 621.708 414.656C621.396 414.92 621.24 415.288 621.24 415.76ZM623.1 421.268C624.476 421.268 625.164 420.744 625.164 419.696C625.164 418.648 624.476 418.124 623.1 418.124C621.724 418.124 621.036 418.648 621.036 419.696C621.036 420.744 621.724 421.268 623.1 421.268Z" fill="#2F2F2F"/>
<path d="M648.773 421.172V422H643.325V421.256L646.289 417.992C646.689 417.544 646.977 417.144 647.153 416.792C647.337 416.432 647.429 416.072 647.429 415.712C647.429 415.248 647.293 414.892 647.021 414.644C646.749 414.396 646.365 414.272 645.869 414.272C645.053 414.272 644.253 414.596 643.469 415.244L643.097 414.488C643.433 414.168 643.853 413.916 644.357 413.732C644.869 413.54 645.381 413.444 645.893 413.444C646.669 413.444 647.281 413.644 647.729 414.044C648.185 414.444 648.413 414.984 648.413 415.664C648.413 416.152 648.301 416.62 648.077 417.068C647.861 417.516 647.501 418.016 646.997 418.568L644.597 421.172H648.773ZM653.1 422.096C652.132 422.096 651.396 421.728 650.892 420.992C650.388 420.256 650.136 419.184 650.136 417.776C650.136 416.36 650.388 415.284 650.892 414.548C651.396 413.812 652.132 413.444 653.1 413.444C654.068 413.444 654.804 413.812 655.308 414.548C655.812 415.276 656.064 416.348 656.064 417.764C656.064 419.18 655.812 420.256 655.308 420.992C654.804 421.728 654.068 422.096 653.1 422.096ZM653.1 421.268C653.772 421.268 654.268 420.984 654.588 420.416C654.908 419.848 655.068 418.964 655.068 417.764C655.068 416.556 654.908 415.676 654.588 415.124C654.276 414.564 653.78 414.284 653.1 414.284C652.428 414.284 651.932 414.564 651.612 415.124C651.292 415.684 651.132 416.564 651.132 417.764C651.132 418.964 651.292 419.848 651.612 420.416C651.932 420.984 652.428 421.268 653.1 421.268Z" fill="#2F2F2F"/>
<path d="M678.773 421.172V422H673.325V421.256L676.289 417.992C676.689 417.544 676.977 417.144 677.153 416.792C677.337 416.432 677.429 416.072 677.429 415.712C677.429 415.248 677.293 414.892 677.021 414.644C676.749 414.396 676.365 414.272 675.869 414.272C675.053 414.272 674.253 414.596 673.469 415.244L673.097 414.488C673.433 414.168 673.853 413.916 674.357 413.732C674.869 413.54 675.381 413.444 675.893 413.444C676.669 413.444 677.281 413.644 677.729 414.044C678.185 414.444 678.413 414.984 678.413 415.664C678.413 416.152 678.301 416.62 678.077 417.068C677.861 417.516 677.501 418.016 676.997 418.568L674.597 421.172H678.773ZM685.968 421.172V422H680.52V421.256L683.484 417.992C683.884 417.544 684.172 417.144 684.348 416.792C684.532 416.432 684.624 416.072 684.624 415.712C684.624 415.248 684.488 414.892 684.216 414.644C683.944 414.396 683.56 414.272 683.064 414.272C682.248 414.272 681.448 414.596 680.664 415.244L680.292 414.488C680.628 414.168 681.048 413.916 681.552 413.732C682.064 413.54 682.576 413.444 683.088 413.444C683.864 413.444 684.476 413.644 684.924 414.044C685.38 414.444 685.608 414.984 685.608 415.664C685.608 416.152 685.496 416.62 685.272 417.068C685.056 417.516 684.696 418.016 684.192 418.568L681.792 421.172H685.968Z" fill="#2F2F2F"/>
<path d="M708.773 421.172V422H703.325V421.256L706.289 417.992C706.689 417.544 706.977 417.144 707.153 416.792C707.337 416.432 707.429 416.072 707.429 415.712C707.429 415.248 707.293 414.892 707.021 414.644C706.749 414.396 706.365 414.272 705.869 414.272C705.053 414.272 704.253 414.596 703.469 415.244L703.097 414.488C703.433 414.168 703.853 413.916 704.357 413.732C704.869 413.54 705.381 413.444 705.893 413.444C706.669 413.444 707.281 413.644 707.729 414.044C708.185 414.444 708.413 414.984 708.413 415.664C708.413 416.152 708.301 416.62 708.077 417.068C707.861 417.516 707.501 418.016 706.997 418.568L704.597 421.172H708.773ZM716.268 419.348V420.164H714.996V422H714.024V420.164H710.112V419.42L714.192 413.54H714.996V419.348H716.268ZM711.132 419.348H714.024V415.184L711.132 419.348Z" fill="#2F2F2F"/>
<path d="M42.4047 404.096C41.4367 404.096 40.7007 403.728 40.1967 402.992C39.6927 402.256 39.4407 401.184 39.4407 399.776C39.4407 398.36 39.6927 397.284 40.1967 396.548C40.7007 395.812 41.4367 395.444 42.4047 395.444C43.3727 395.444 44.1087 395.812 44.6127 396.548C45.1167 397.276 45.3687 398.348 45.3687 399.764C45.3687 401.18 45.1167 402.256 44.6127 402.992C44.1087 403.728 43.3727 404.096 42.4047 404.096ZM42.4047 403.268C43.0767 403.268 43.5727 402.984 43.8927 402.416C44.2127 401.848 44.3727 400.964 44.3727 399.764C44.3727 398.556 44.2127 397.676 43.8927 397.124C43.5807 396.564 43.0847 396.284 42.4047 396.284C41.7327 396.284 41.2367 396.564 40.9167 397.124C40.5967 397.684 40.4367 398.564 40.4367 399.764C40.4367 400.964 40.5967 401.848 40.9167 402.416C41.2367 402.984 41.7327 403.268 42.4047 403.268Z" fill="#2F2F2F"/>
<path d="M30.8181 338.172H32.6781V339H27.9741V338.172H29.8341V331.764L28.3461 332.7L27.8901 331.944L30.1101 330.54H30.8181V338.172ZM37.2094 339.096C36.2414 339.096 35.5054 338.728 35.0014 337.992C34.4974 337.256 34.2454 336.184 34.2454 334.776C34.2454 333.36 34.4974 332.284 35.0014 331.548C35.5054 330.812 36.2414 330.444 37.2094 330.444C38.1774 330.444 38.9134 330.812 39.4174 331.548C39.9214 332.276 40.1734 333.348 40.1734 334.764C40.1734 336.18 39.9214 337.256 39.4174 337.992C38.9134 338.728 38.1774 339.096 37.2094 339.096ZM37.2094 338.268C37.8814 338.268 38.3774 337.984 38.6974 337.416C39.0174 336.848 39.1774 335.964 39.1774 334.764C39.1774 333.556 39.0174 332.676 38.6974 332.124C38.3854 331.564 37.8894 331.284 37.2094 331.284C36.5374 331.284 36.0414 331.564 35.7214 332.124C35.4014 332.684 35.2414 333.564 35.2414 334.764C35.2414 335.964 35.4014 336.848 35.7214 337.416C36.0414 337.984 36.5374 338.268 37.2094 338.268ZM44.4047 339.096C43.4367 339.096 42.7007 338.728 42.1967 337.992C41.6927 337.256 41.4407 336.184 41.4407 334.776C41.4407 333.36 41.6927 332.284 42.1967 331.548C42.7007 330.812 43.4367 330.444 44.4047 330.444C45.3727 330.444 46.1087 330.812 46.6127 331.548C47.1167 332.276 47.3687 333.348 47.3687 334.764C47.3687 336.18 47.1167 337.256 46.6127 337.992C46.1087 338.728 45.3727 339.096 44.4047 339.096ZM44.4047 338.268C45.0767 338.268 45.5727 337.984 45.8927 337.416C46.2127 336.848 46.3727 335.964 46.3727 334.764C46.3727 333.556 46.2127 332.676 45.8927 332.124C45.5807 331.564 45.0847 331.284 44.4047 331.284C43.7327 331.284 43.2367 331.564 42.9167 332.124C42.5967 332.684 42.4367 333.564 42.4367 334.764C42.4367 335.964 42.5967 336.848 42.9167 337.416C43.2367 337.984 43.7327 338.268 44.4047 338.268Z" fill="#2F2F2F"/>
<path d="M32.8821 273.172V274H27.4341V273.256L30.3981 269.992C30.7981 269.544 31.0861 269.144 31.2621 268.792C31.4461 268.432 31.5381 268.072 31.5381 267.712C31.5381 267.248 31.4021 266.892 31.1301 266.644C30.8581 266.396 30.4741 266.272 29.9781 266.272C29.1621 266.272 28.3621 266.596 27.5781 267.244L27.2061 266.488C27.5421 266.168 27.9621 265.916 28.4661 265.732C28.9781 265.54 29.4901 265.444 30.0021 265.444C30.7781 265.444 31.3901 265.644 31.8381 266.044C32.2941 266.444 32.5221 266.984 32.5221 267.664C32.5221 268.152 32.4101 268.62 32.1861 269.068C31.9701 269.516 31.6101 270.016 31.1061 270.568L28.7061 273.172H32.8821ZM37.2094 274.096C36.2414 274.096 35.5054 273.728 35.0014 272.992C34.4974 272.256 34.2454 271.184 34.2454 269.776C34.2454 268.36 34.4974 267.284 35.0014 266.548C35.5054 265.812 36.2414 265.444 37.2094 265.444C38.1774 265.444 38.9134 265.812 39.4174 266.548C39.9214 267.276 40.1734 268.348 40.1734 269.764C40.1734 271.18 39.9214 272.256 39.4174 272.992C38.9134 273.728 38.1774 274.096 37.2094 274.096ZM37.2094 273.268C37.8814 273.268 38.3774 272.984 38.6974 272.416C39.0174 271.848 39.1774 270.964 39.1774 269.764C39.1774 268.556 39.0174 267.676 38.6974 267.124C38.3854 266.564 37.8894 266.284 37.2094 266.284C36.5374 266.284 36.0414 266.564 35.7214 267.124C35.4014 267.684 35.2414 268.564 35.2414 269.764C35.2414 270.964 35.4014 271.848 35.7214 272.416C36.0414 272.984 36.5374 273.268 37.2094 273.268ZM44.4047 274.096C43.4367 274.096 42.7007 273.728 42.1967 272.992C41.6927 272.256 41.4407 271.184 41.4407 269.776C41.4407 268.36 41.6927 267.284 42.1967 266.548C42.7007 265.812 43.4367 265.444 44.4047 265.444C45.3727 265.444 46.1087 265.812 46.6127 266.548C47.1167 267.276 47.3687 268.348 47.3687 269.764C47.3687 271.18 47.1167 272.256 46.6127 272.992C46.1087 273.728 45.3727 274.096 44.4047 274.096ZM44.4047 273.268C45.0767 273.268 45.5727 272.984 45.8927 272.416C46.2127 271.848 46.3727 270.964 46.3727 269.764C46.3727 268.556 46.2127 267.676 45.8927 267.124C45.5807 266.564 45.0847 266.284 44.4047 266.284C43.7327 266.284 43.2367 266.564 42.9167 267.124C42.5967 267.684 42.4367 268.564 42.4367 269.764C42.4367 270.964 42.5967 271.848 42.9167 272.416C43.2367 272.984 43.7327 273.268 44.4047 273.268Z" fill="#2F2F2F"/>
<path d="M31.1781 204.656C31.6741 204.8 32.0541 205.048 32.3181 205.4C32.5821 205.744 32.7141 206.18 32.7141 206.708C32.7141 207.444 32.4621 208.024 31.9581 208.448C31.4621 208.872 30.7861 209.084 29.9301 209.084C29.3861 209.084 28.8621 208.992 28.3581 208.808C27.8541 208.624 27.4301 208.368 27.0861 208.04L27.4581 207.284C28.2261 207.932 29.0421 208.256 29.9061 208.256C30.5061 208.256 30.9621 208.124 31.2741 207.86C31.5861 207.588 31.7421 207.192 31.7421 206.672C31.7421 205.64 31.0941 205.124 29.7981 205.124H28.8261V204.296H29.6061C30.2301 204.296 30.7101 204.16 31.0461 203.888C31.3821 203.608 31.5501 203.208 31.5501 202.688C31.5501 202.232 31.4141 201.884 31.1421 201.644C30.8701 201.396 30.4821 201.272 29.9781 201.272C29.1621 201.272 28.3621 201.596 27.5781 202.244L27.2061 201.488C27.5501 201.16 27.9701 200.904 28.4661 200.72C28.9621 200.536 29.4781 200.444 30.0141 200.444C30.7821 200.444 31.3901 200.64 31.8381 201.032C32.2941 201.416 32.5221 201.936 32.5221 202.592C32.5221 203.08 32.4021 203.508 32.1621 203.876C31.9301 204.236 31.6021 204.496 31.1781 204.656ZM37.2094 209.096C36.2414 209.096 35.5054 208.728 35.0014 207.992C34.4974 207.256 34.2454 206.184 34.2454 204.776C34.2454 203.36 34.4974 202.284 35.0014 201.548C35.5054 200.812 36.2414 200.444 37.2094 200.444C38.1774 200.444 38.9134 200.812 39.4174 201.548C39.9214 202.276 40.1734 203.348 40.1734 204.764C40.1734 206.18 39.9214 207.256 39.4174 207.992C38.9134 208.728 38.1774 209.096 37.2094 209.096ZM37.2094 208.268C37.8814 208.268 38.3774 207.984 38.6974 207.416C39.0174 206.848 39.1774 205.964 39.1774 204.764C39.1774 203.556 39.0174 202.676 38.6974 202.124C38.3854 201.564 37.8894 201.284 37.2094 201.284C36.5374 201.284 36.0414 201.564 35.7214 202.124C35.4014 202.684 35.2414 203.564 35.2414 204.764C35.2414 205.964 35.4014 206.848 35.7214 207.416C36.0414 207.984 36.5374 208.268 37.2094 208.268ZM44.4047 209.096C43.4367 209.096 42.7007 208.728 42.1967 207.992C41.6927 207.256 41.4407 206.184 41.4407 204.776C41.4407 203.36 41.6927 202.284 42.1967 201.548C42.7007 200.812 43.4367 200.444 44.4047 200.444C45.3727 200.444 46.1087 200.812 46.6127 201.548C47.1167 202.276 47.3687 203.348 47.3687 204.764C47.3687 206.18 47.1167 207.256 46.6127 207.992C46.1087 208.728 45.3727 209.096 44.4047 209.096ZM44.4047 208.268C45.0767 208.268 45.5727 207.984 45.8927 207.416C46.2127 206.848 46.3727 205.964 46.3727 204.764C46.3727 203.556 46.2127 202.676 45.8927 202.124C45.5807 201.564 45.0847 201.284 44.4047 201.284C43.7327 201.284 43.2367 201.564 42.9167 202.124C42.5967 202.684 42.4367 203.564 42.4367 204.764C42.4367 205.964 42.5967 206.848 42.9167 207.416C43.2367 207.984 43.7327 208.268 44.4047 208.268Z" fill="#2F2F2F"/>
<path d="M3.576 294.347C3.584 293.955 3.604 293.551 3.636 293.135C3.668 292.719 3.728 292.303 3.816 291.887L4.584 291.959C4.568 292.303 4.556 292.683 4.548 293.099C4.532 293.515 4.524 293.915 4.524 294.299C4.524 294.595 4.536 294.851 4.56 295.067C4.576 295.275 4.624 295.447 4.704 295.583C4.776 295.719 4.9 295.819 5.076 295.883C5.244 295.939 5.48 295.967 5.784 295.967C6.24 295.967 6.56 295.887 6.744 295.727C6.92 295.559 7.052 295.291 7.14 294.923L7.56 293.243C7.712 292.603 7.98 292.167 8.364 291.935C8.74 291.695 9.248 291.575 9.888 291.575C10.368 291.575 10.756 291.631 11.052 291.743C11.348 291.847 11.576 292.011 11.736 292.235C11.888 292.459 11.992 292.747 12.048 293.099C12.112 293.451 12.144 293.867 12.144 294.347C12.144 294.619 12.132 294.975 12.108 295.415C12.084 295.847 12.02 296.347 11.916 296.915L11.136 296.843C11.152 296.371 11.168 295.991 11.184 295.703C11.192 295.415 11.196 295.167 11.196 294.959C11.196 294.751 11.196 294.535 11.196 294.311C11.196 293.887 11.164 293.555 11.1 293.315C11.036 293.067 10.908 292.895 10.716 292.799C10.524 292.695 10.24 292.643 9.864 292.643C9.544 292.643 9.296 292.679 9.12 292.751C8.944 292.823 8.812 292.939 8.724 293.099C8.628 293.251 8.552 293.447 8.496 293.687L8.064 295.403C7.912 296.003 7.648 296.427 7.272 296.675C6.896 296.915 6.392 297.035 5.76 297.035C5.28 297.035 4.896 296.983 4.608 296.879C4.312 296.767 4.092 296.603 3.948 296.387C3.796 296.163 3.696 295.883 3.648 295.547C3.6 295.211 3.576 294.811 3.576 294.347ZM3.564 284.961C3.564 284.361 3.636 283.853 3.78 283.437C3.924 283.013 4.164 282.677 4.5 282.429C4.828 282.173 5.268 281.989 5.82 281.877C6.372 281.757 7.052 281.697 7.86 281.697C8.668 281.697 9.348 281.757 9.9 281.877C10.452 281.989 10.896 282.173 11.232 282.429C11.56 282.677 11.796 283.013 11.94 283.437C12.084 283.853 12.156 284.361 12.156 284.961C12.156 285.561 12.084 286.073 11.94 286.497C11.796 286.913 11.56 287.249 11.232 287.505C10.896 287.761 10.452 287.949 9.9 288.069C9.348 288.181 8.668 288.237 7.86 288.237C7.052 288.237 6.372 288.181 5.82 288.069C5.268 287.949 4.828 287.761 4.5 287.505C4.164 287.249 3.924 286.913 3.78 286.497C3.636 286.073 3.564 285.561 3.564 284.961ZM4.512 284.961C4.512 285.505 4.616 285.937 4.824 286.257C5.032 286.569 5.38 286.793 5.868 286.929C6.348 287.057 7.012 287.121 7.86 287.121C8.7 287.121 9.364 287.057 9.852 286.929C10.34 286.793 10.688 286.569 10.896 286.257C11.104 285.937 11.208 285.505 11.208 284.961C11.208 284.417 11.104 283.989 10.896 283.677C10.688 283.357 10.34 283.133 9.852 283.005C9.364 282.869 8.7 282.801 7.86 282.801C7.012 282.801 6.348 282.869 5.868 283.005C5.38 283.133 5.032 283.357 4.824 283.677C4.616 283.989 4.512 284.417 4.512 284.961ZM3.72 276.889H10.32C10.592 276.889 10.792 276.825 10.92 276.697C11.048 276.561 11.112 276.357 11.112 276.085V273.097L11.928 273.049C11.968 273.569 11.992 274.101 12 274.645C12.008 275.181 12.012 275.717 12.012 276.253C12.012 276.861 11.864 277.293 11.568 277.549C11.272 277.805 10.9 277.933 10.452 277.933H3.72V276.889ZM3.72 266.505C3.72 266.409 3.748 266.325 3.804 266.253C3.852 266.181 3.92 266.133 4.008 266.109L12 263.445V264.537L5.208 266.685C5.096 266.717 4.984 266.753 4.872 266.793C4.752 266.825 4.64 266.857 4.536 266.889V267.225C4.64 267.257 4.752 267.289 4.872 267.321C4.984 267.353 5.096 267.389 5.208 267.429L12 269.577V270.669L4.008 268.005C3.92 267.981 3.852 267.933 3.804 267.861C3.748 267.789 3.72 267.705 3.72 267.609V266.505ZM8.496 264.969H9.408V269.169H8.496V264.969ZM3.612 257.424C3.612 256.784 3.684 256.268 3.828 255.876C3.964 255.484 4.204 255.2 4.548 255.024C4.892 254.84 5.376 254.748 6 254.748C6.448 254.748 6.824 254.8 7.128 254.904C7.424 255.008 7.656 255.172 7.824 255.396C7.984 255.612 8.088 255.904 8.136 256.272H8.196C8.228 256.136 8.296 256.004 8.4 255.876C8.496 255.74 8.628 255.616 8.796 255.504C8.956 255.392 9.152 255.308 9.384 255.252L12 254.448V255.576L9.408 256.308C9.096 256.412 8.876 256.552 8.748 256.728C8.612 256.904 8.544 257.132 8.544 257.412C8.544 257.9 8.544 258.324 8.544 258.684C8.536 259.044 8.528 259.344 8.52 259.584C8.512 259.824 8.508 260.016 8.508 260.16L7.632 260.124V257.448C7.624 257.04 7.576 256.72 7.488 256.488C7.4 256.248 7.244 256.076 7.02 255.972C6.788 255.868 6.468 255.816 6.06 255.816C5.652 255.816 5.34 255.868 5.124 255.972C4.9 256.076 4.744 256.248 4.656 256.488C4.568 256.72 4.524 257.04 4.524 257.448C4.524 258.104 4.528 258.672 4.536 259.152C4.544 259.624 4.548 259.944 4.548 260.112L3.72 260.28C3.688 259.976 3.664 259.692 3.648 259.428C3.632 259.164 3.624 258.876 3.624 258.564C3.616 258.244 3.612 257.864 3.612 257.424ZM3.72 259.236H12V260.28H3.72V259.236ZM3.612 243.334C3.612 242.694 3.684 242.178 3.828 241.786C3.964 241.394 4.204 241.11 4.548 240.934C4.892 240.75 5.376 240.658 6 240.658C6.448 240.658 6.824 240.71 7.128 240.814C7.424 240.918 7.656 241.082 7.824 241.306C7.984 241.522 8.088 241.814 8.136 242.182H8.196C8.228 242.046 8.296 241.914 8.4 241.786C8.496 241.65 8.628 241.526 8.796 241.414C8.956 241.302 9.152 241.218 9.384 241.162L12 240.358V241.486L9.408 242.218C9.096 242.322 8.876 242.462 8.748 242.638C8.612 242.814 8.544 243.042 8.544 243.322C8.544 243.81 8.544 244.234 8.544 244.594C8.536 244.954 8.528 245.254 8.52 245.494C8.512 245.734 8.508 245.926 8.508 246.07L7.632 246.034V243.358C7.624 242.95 7.576 242.63 7.488 242.398C7.4 242.158 7.244 241.986 7.02 241.882C6.788 241.778 6.468 241.726 6.06 241.726C5.652 241.726 5.34 241.778 5.124 241.882C4.9 241.986 4.744 242.158 4.656 242.398C4.568 242.63 4.524 242.95 4.524 243.358C4.524 244.014 4.528 244.582 4.536 245.062C4.544 245.534 4.548 245.854 4.548 246.022L3.72 246.19C3.688 245.886 3.664 245.602 3.648 245.338C3.632 245.074 3.624 244.786 3.624 244.474C3.616 244.154 3.612 243.774 3.612 243.334ZM3.72 245.146H12V246.19H3.72V245.146ZM3.72 233.532C3.72 233.436 3.748 233.352 3.804 233.28C3.852 233.208 3.92 233.16 4.008 233.136L12 230.472V231.564L5.208 233.712C5.096 233.744 4.984 233.78 4.872 233.82C4.752 233.852 4.64 233.884 4.536 233.916V234.252C4.64 234.284 4.752 234.316 4.872 234.348C4.984 234.38 5.096 234.416 5.208 234.456L12 236.604V237.696L4.008 235.032C3.92 235.008 3.852 234.96 3.804 234.888C3.748 234.816 3.72 234.732 3.72 234.636V233.532ZM8.496 231.996H9.408V236.196H8.496V231.996ZM3.612 224.356C3.612 223.764 3.684 223.264 3.828 222.856C3.972 222.44 4.208 222.108 4.536 221.86C4.864 221.604 5.3 221.42 5.844 221.308C6.388 221.188 7.06 221.128 7.86 221.128C8.66 221.128 9.332 221.188 9.876 221.308C10.42 221.42 10.856 221.604 11.184 221.86C11.512 222.108 11.748 222.44 11.892 222.856C12.036 223.264 12.108 223.764 12.108 224.356C12.108 224.924 12.096 225.452 12.072 225.94C12.056 226.42 12.032 226.876 12 227.308L11.136 226.852C11.144 226.516 11.156 226.144 11.172 225.736C11.18 225.32 11.184 224.86 11.184 224.356C11.184 223.828 11.084 223.408 10.884 223.096C10.676 222.784 10.332 222.564 9.852 222.436C9.364 222.3 8.7 222.232 7.86 222.232C7.02 222.232 6.36 222.3 5.88 222.436C5.392 222.564 5.044 222.784 4.836 223.096C4.628 223.408 4.524 223.828 4.524 224.356C4.524 224.852 4.528 225.3 4.536 225.7C4.544 226.092 4.552 226.476 4.56 226.852L3.72 227.308C3.688 226.876 3.664 226.42 3.648 225.94C3.624 225.452 3.612 224.924 3.612 224.356ZM3.72 226.252H12V227.308H3.72V226.252ZM3.72 216.283H12V217.339H3.72V216.283ZM3.72 208.958C3.72 208.862 3.748 208.778 3.804 208.706C3.852 208.634 3.92 208.586 4.008 208.562L12 205.898V206.99L5.208 209.138C5.096 209.17 4.984 209.206 4.872 209.246C4.752 209.278 4.64 209.31 4.536 209.342V209.678C4.64 209.71 4.752 209.742 4.872 209.774C4.984 209.806 5.096 209.842 5.208 209.882L12 212.03V213.122L4.008 210.458C3.92 210.434 3.852 210.386 3.804 210.314C3.748 210.242 3.72 210.158 3.72 210.062V208.958ZM8.496 207.422H9.408V211.622H8.496V207.422ZM3.72 200.472H12V201.528H3.72V200.472ZM3.72 197.796H4.656L4.656 204.192H3.72L3.72 197.796ZM3.72 193.408H12V194.464H3.72V193.408ZM3.564 186.359C3.564 185.759 3.636 185.251 3.78 184.835C3.924 184.411 4.164 184.075 4.5 183.827C4.828 183.571 5.268 183.387 5.82 183.275C6.372 183.155 7.052 183.095 7.86 183.095C8.668 183.095 9.348 183.155 9.9 183.275C10.452 183.387 10.896 183.571 11.232 183.827C11.56 184.075 11.796 184.411 11.94 184.835C12.084 185.251 12.156 185.759 12.156 186.359C12.156 186.959 12.084 187.471 11.94 187.895C11.796 188.311 11.56 188.647 11.232 188.903C10.896 189.159 10.452 189.347 9.9 189.467C9.348 189.579 8.668 189.635 7.86 189.635C7.052 189.635 6.372 189.579 5.82 189.467C5.268 189.347 4.828 189.159 4.5 188.903C4.164 188.647 3.924 188.311 3.78 187.895C3.636 187.471 3.564 186.959 3.564 186.359ZM4.512 186.359C4.512 186.903 4.616 187.335 4.824 187.655C5.032 187.967 5.38 188.191 5.868 188.327C6.348 188.455 7.012 188.519 7.86 188.519C8.7 188.519 9.364 188.455 9.852 188.327C10.34 188.191 10.688 187.967 10.896 187.655C11.104 187.335 11.208 186.903 11.208 186.359C11.208 185.815 11.104 185.387 10.896 185.075C10.688 184.755 10.34 184.531 9.852 184.403C9.364 184.267 8.7 184.199 7.86 184.199C7.012 184.199 6.348 184.267 5.868 184.403C5.38 184.531 5.032 184.755 4.824 185.075C4.616 185.387 4.512 185.815 4.512 186.359ZM3.72 172.936H11.58C11.86 172.936 12 173.072 12 173.344V174.376C12 174.496 11.972 174.592 11.916 174.664C11.86 174.736 11.776 174.796 11.664 174.844L5.796 177.64C5.636 177.712 5.456 177.796 5.256 177.892C5.056 177.988 4.872 178.06 4.704 178.108V178.3C4.88 178.284 5.06 178.272 5.244 178.264C5.428 178.256 5.612 178.252 5.796 178.252H12V179.308H4.14C3.86 179.308 3.72 179.168 3.72 178.888L3.72 177.892C3.72 177.772 3.748 177.676 3.804 177.604C3.86 177.532 3.944 177.472 4.056 177.424L9.78 174.712C9.948 174.624 10.14 174.532 10.356 174.436C10.564 174.332 10.772 174.236 10.98 174.148V173.944C10.764 173.952 10.552 173.96 10.344 173.968C10.136 173.976 9.928 173.98 9.72 173.98H3.72V172.936ZM3.72 158.523L7.152 160.935C7.256 161.007 7.348 161.079 7.428 161.151C7.5 161.215 7.584 161.295 7.68 161.391H7.704C7.8 161.287 7.896 161.191 7.992 161.103C8.088 161.015 8.184 160.939 8.28 160.875L12 158.355V159.543L7.668 162.483L3.72 159.675V158.523ZM3.72 163.131H6.312C6.552 163.131 6.78 163.143 6.996 163.167C7.212 163.191 7.436 163.227 7.668 163.275C7.892 163.235 8.116 163.203 8.34 163.179C8.564 163.147 8.78 163.131 8.988 163.131H12V164.175H3.72L3.72 163.131ZM7.26 161.907H8.112V163.503H7.26V161.907ZM3.72 145.125L11.688 146.805C11.776 146.829 11.852 146.877 11.916 146.949C11.972 147.021 12 147.113 12 147.225V148.425C12 148.529 11.972 148.621 11.916 148.701C11.852 148.773 11.772 148.817 11.676 148.833L5.448 150.129C5.288 150.161 5.132 150.193 4.98 150.225C4.82 150.257 4.664 150.289 4.512 150.321V150.573C4.664 150.605 4.82 150.637 4.98 150.669C5.14 150.693 5.296 150.721 5.448 150.753L11.676 152.037C11.772 152.061 11.852 152.113 11.916 152.193C11.972 152.265 12 152.353 12 152.457V153.669C12 153.773 11.972 153.865 11.916 153.945C11.852 154.017 11.776 154.061 11.688 154.077L3.72 155.757V154.641L10.176 153.345C10.328 153.313 10.492 153.285 10.668 153.261C10.836 153.237 11.012 153.209 11.196 153.177V152.901C11.012 152.869 10.836 152.837 10.668 152.805C10.5 152.773 10.336 152.741 10.176 152.709L4.068 151.425C3.964 151.409 3.88 151.365 3.816 151.293C3.752 151.213 3.72 151.121 3.72 151.017V149.865C3.72 149.761 3.752 149.673 3.816 149.601C3.88 149.529 3.964 149.481 4.068 149.457L10.176 148.173C10.352 148.133 10.524 148.101 10.692 148.077C10.86 148.045 11.028 148.021 11.196 148.005V147.705C11.028 147.681 10.86 147.657 10.692 147.633C10.516 147.609 10.348 147.581 10.188 147.549L3.72 146.241V145.125ZM3.72 140.65H12V141.706H3.72V140.65ZM7.116 136.702H8.028L8.028 140.746H7.116V136.702ZM3.72 135.778H12V136.834H3.72V135.778ZM3.72 126.854L12.792 131.57V132.41L3.72 127.694L3.72 126.854ZM3.72 115.667C3.72 115.379 3.868 115.235 4.164 115.235L12 114.887V115.943L4.596 116.243L4.596 116.495L10.704 118.343C10.944 118.407 11.064 118.559 11.064 118.799V119.747C11.064 119.995 10.944 120.155 10.704 120.227L4.596 122.075V122.315L12 122.603V123.659L4.164 123.335C3.868 123.319 3.72 123.171 3.72 122.891V121.691C3.72 121.467 3.84 121.319 4.08 121.247L9.132 119.699C9.316 119.635 9.5 119.583 9.684 119.543C9.868 119.495 10.056 119.443 10.248 119.387V119.171C10.056 119.115 9.868 119.063 9.684 119.015C9.5 118.967 9.308 118.915 9.108 118.859L4.08 117.311C3.84 117.247 3.72 117.095 3.72 116.855V115.667ZM3.576 108.76C3.576 108.232 3.62 107.78 3.708 107.404C3.796 107.02 3.968 106.728 4.224 106.528C4.48 106.32 4.86 106.216 5.364 106.216C5.708 106.216 6.032 106.264 6.336 106.36C6.64 106.448 6.956 106.6 7.284 106.816C7.604 107.032 7.968 107.324 8.376 107.692L11.028 110.068C11.012 109.86 11 109.64 10.992 109.408C10.984 109.168 10.98 108.94 10.98 108.724V105.916H12L12 111.352H11.34C11.252 111.352 11.172 111.34 11.1 111.316C11.02 111.292 10.948 111.252 10.884 111.196L8.172 108.796C7.604 108.268 7.1 107.88 6.66 107.632C6.22 107.384 5.804 107.268 5.412 107.284C5.14 107.292 4.944 107.36 4.824 107.488C4.696 107.608 4.612 107.784 4.572 108.016C4.532 108.24 4.512 108.512 4.512 108.832C4.512 109.088 4.516 109.332 4.524 109.564C4.532 109.796 4.552 110.044 4.584 110.308C4.608 110.564 4.648 110.864 4.704 111.208L3.888 111.28C3.8 110.904 3.736 110.576 3.696 110.296C3.648 110.008 3.616 109.744 3.6 109.504C3.584 109.256 3.576 109.008 3.576 108.76Z" fill="#2F2F2F"/>
<path d="M33.1821 141.348V142.164H31.9101V144H30.9381V142.164H27.0261V141.42L31.1061 135.54H31.9101V141.348H33.1821ZM28.0461 141.348H30.9381V137.184L28.0461 141.348ZM37.2094 144.096C36.2414 144.096 35.5054 143.728 35.0014 142.992C34.4974 142.256 34.2454 141.184 34.2454 139.776C34.2454 138.36 34.4974 137.284 35.0014 136.548C35.5054 135.812 36.2414 135.444 37.2094 135.444C38.1774 135.444 38.9134 135.812 39.4174 136.548C39.9214 137.276 40.1734 138.348 40.1734 139.764C40.1734 141.18 39.9214 142.256 39.4174 142.992C38.9134 143.728 38.1774 144.096 37.2094 144.096ZM37.2094 143.268C37.8814 143.268 38.3774 142.984 38.6974 142.416C39.0174 141.848 39.1774 140.964 39.1774 139.764C39.1774 138.556 39.0174 137.676 38.6974 137.124C38.3854 136.564 37.8894 136.284 37.2094 136.284C36.5374 136.284 36.0414 136.564 35.7214 137.124C35.4014 137.684 35.2414 138.564 35.2414 139.764C35.2414 140.964 35.4014 141.848 35.7214 142.416C36.0414 142.984 36.5374 143.268 37.2094 143.268ZM44.4047 144.096C43.4367 144.096 42.7007 143.728 42.1967 142.992C41.6927 142.256 41.4407 141.184 41.4407 139.776C41.4407 138.36 41.6927 137.284 42.1967 136.548C42.7007 135.812 43.4367 135.444 44.4047 135.444C45.3727 135.444 46.1087 135.812 46.6127 136.548C47.1167 137.276 47.3687 138.348 47.3687 139.764C47.3687 141.18 47.1167 142.256 46.6127 142.992C46.1087 143.728 45.3727 144.096 44.4047 144.096ZM44.4047 143.268C45.0767 143.268 45.5727 142.984 45.8927 142.416C46.2127 141.848 46.3727 140.964 46.3727 139.764C46.3727 138.556 46.2127 137.676 45.8927 137.124C45.5807 136.564 45.0847 136.284 44.4047 136.284C43.7327 136.284 43.2367 136.564 42.9167 137.124C42.5967 137.684 42.4367 138.564 42.4367 139.764C42.4367 140.964 42.5967 141.848 42.9167 142.416C43.2367 142.984 43.7327 143.268 44.4047 143.268Z" fill="#2F2F2F"/>
<path d="M30.3741 73.696C30.9101 73.696 31.3741 73.808 31.7661 74.032C32.1661 74.256 32.4741 74.572 32.6901 74.98C32.9061 75.38 33.0141 75.844 33.0141 76.372C33.0141 76.908 32.8941 77.38 32.6541 77.788C32.4221 78.196 32.0901 78.516 31.6581 78.748C31.2261 78.972 30.7221 79.084 30.1461 79.084C29.6341 79.084 29.1261 78.992 28.6221 78.808C28.1261 78.616 27.7061 78.36 27.3621 78.04L27.7341 77.284C28.5181 77.932 29.3221 78.256 30.1461 78.256C30.7381 78.256 31.2021 78.088 31.5381 77.752C31.8741 77.416 32.0421 76.96 32.0421 76.384C32.0421 75.824 31.8741 75.372 31.5381 75.028C31.2101 74.684 30.7701 74.512 30.2181 74.512C29.4101 74.512 28.7661 74.84 28.2861 75.496H27.6021V70.54H32.6781V71.356H28.5741V74.368C28.7981 74.152 29.0621 73.988 29.3661 73.876C29.6781 73.756 30.0141 73.696 30.3741 73.696ZM37.2094 79.096C36.2414 79.096 35.5054 78.728 35.0014 77.992C34.4974 77.256 34.2454 76.184 34.2454 74.776C34.2454 73.36 34.4974 72.284 35.0014 71.548C35.5054 70.812 36.2414 70.444 37.2094 70.444C38.1774 70.444 38.9134 70.812 39.4174 71.548C39.9214 72.276 40.1734 73.348 40.1734 74.764C40.1734 76.18 39.9214 77.256 39.4174 77.992C38.9134 78.728 38.1774 79.096 37.2094 79.096ZM37.2094 78.268C37.8814 78.268 38.3774 77.984 38.6974 77.416C39.0174 76.848 39.1774 75.964 39.1774 74.764C39.1774 73.556 39.0174 72.676 38.6974 72.124C38.3854 71.564 37.8894 71.284 37.2094 71.284C36.5374 71.284 36.0414 71.564 35.7214 72.124C35.4014 72.684 35.2414 73.564 35.2414 74.764C35.2414 75.964 35.4014 76.848 35.7214 77.416C36.0414 77.984 36.5374 78.268 37.2094 78.268ZM44.4047 79.096C43.4367 79.096 42.7007 78.728 42.1967 77.992C41.6927 77.256 41.4407 76.184 41.4407 74.776C41.4407 73.36 41.6927 72.284 42.1967 71.548C42.7007 70.812 43.4367 70.444 44.4047 70.444C45.3727 70.444 46.1087 70.812 46.6127 71.548C47.1167 72.276 47.3687 73.348 47.3687 74.764C47.3687 76.18 47.1167 77.256 46.6127 77.992C46.1087 78.728 45.3727 79.096 44.4047 79.096ZM44.4047 78.268C45.0767 78.268 45.5727 77.984 45.8927 77.416C46.2127 76.848 46.3727 75.964 46.3727 74.764C46.3727 73.556 46.2127 72.676 45.8927 72.124C45.5807 71.564 45.0847 71.284 44.4047 71.284C43.7327 71.284 43.2367 71.564 42.9167 72.124C42.5967 72.684 42.4367 73.564 42.4367 74.764C42.4367 75.964 42.5967 76.848 42.9167 77.416C43.2367 77.984 43.7327 78.268 44.4047 78.268Z" fill="#2F2F2F"/>
<path d="M30.3858 8.684C30.8978 8.684 31.3538 8.796 31.7538 9.02C32.1538 9.244 32.4658 9.56 32.6898 9.968C32.9138 10.376 33.0258 10.844 33.0258 11.372C33.0258 11.892 32.9098 12.36 32.6778 12.776C32.4458 13.192 32.1218 13.516 31.7058 13.748C31.2898 13.98 30.8218 14.096 30.3018 14.096C29.2778 14.096 28.4858 13.74 27.9258 13.028C27.3738 12.316 27.0978 11.3 27.0978 9.98C27.0978 9.028 27.2258 8.212 27.4818 7.532C27.7458 6.852 28.1218 6.336 28.6098 5.984C29.0978 5.624 29.6818 5.444 30.3618 5.444C30.8498 5.444 31.3258 5.536 31.7898 5.72C32.2538 5.896 32.6618 6.152 33.0138 6.488L32.6418 7.244C32.2418 6.908 31.8578 6.664 31.4898 6.512C31.1298 6.352 30.7618 6.272 30.3858 6.272C29.6578 6.272 29.0898 6.596 28.6818 7.244C28.2818 7.884 28.0818 8.792 28.0818 9.968V10.148C28.2658 9.7 28.5618 9.344 28.9698 9.08C29.3778 8.816 29.8498 8.684 30.3858 8.684ZM30.2538 13.268C30.7978 13.268 31.2338 13.096 31.5618 12.752C31.8898 12.408 32.0538 11.952 32.0538 11.384C32.0538 10.824 31.8858 10.372 31.5498 10.028C31.2218 9.684 30.7858 9.512 30.2418 9.512C29.6898 9.512 29.2378 9.688 28.8858 10.04C28.5418 10.384 28.3698 10.832 28.3698 11.384C28.3698 11.944 28.5418 12.4 28.8858 12.752C29.2378 13.096 29.6938 13.268 30.2538 13.268ZM37.2094 14.096C36.2414 14.096 35.5054 13.728 35.0014 12.992C34.4974 12.256 34.2454 11.184 34.2454 9.776C34.2454 8.36 34.4974 7.284 35.0014 6.548C35.5054 5.812 36.2414 5.444 37.2094 5.444C38.1774 5.444 38.9134 5.812 39.4174 6.548C39.9214 7.276 40.1734 8.348 40.1734 9.764C40.1734 11.18 39.9214 12.256 39.4174 12.992C38.9134 13.728 38.1774 14.096 37.2094 14.096ZM37.2094 13.268C37.8814 13.268 38.3774 12.984 38.6974 12.416C39.0174 11.848 39.1774 10.964 39.1774 9.764C39.1774 8.556 39.0174 7.676 38.6974 7.124C38.3854 6.564 37.8894 6.284 37.2094 6.284C36.5374 6.284 36.0414 6.564 35.7214 7.124C35.4014 7.684 35.2414 8.564 35.2414 9.764C35.2414 10.964 35.4014 11.848 35.7214 12.416C36.0414 12.984 36.5374 13.268 37.2094 13.268ZM44.4047 14.096C43.4367 14.096 42.7007 13.728 42.1967 12.992C41.6927 12.256 41.4407 11.184 41.4407 9.776C41.4407 8.36 41.6927 7.284 42.1967 6.548C42.7007 5.812 43.4367 5.444 44.4047 5.444C45.3727 5.444 46.1087 5.812 46.6127 6.548C47.1167 7.276 47.3687 8.348 47.3687 9.764C47.3687 11.18 47.1167 12.256 46.6127 12.992C46.1087 13.728 45.3727 14.096 44.4047 14.096ZM44.4047 13.268C45.0767 13.268 45.5727 12.984 45.8927 12.416C46.2127 11.848 46.3727 10.964 46.3727 9.764C46.3727 8.556 46.2127 7.676 45.8927 7.124C45.5807 6.564 45.0847 6.284 44.4047 6.284C43.7327 6.284 43.2367 6.564 42.9167 7.124C42.5967 7.684 42.4367 8.564 42.4367 9.764C42.4367 10.964 42.5967 11.848 42.9167 12.416C43.2367 12.984 43.7327 13.268 44.4047 13.268Z" fill="#2F2F2F"/>
<path d="M56 396C56 396 64.125 396 69.5417 396C74.9583 396 77.6667 396 83.0833 396C88.5 396 91.2083 396 96.625 396C102.042 396 104.75 396 110.167 396C115.583 396 118.292 392.099 123.708 389.499C129.125 386.899 131.833 386.606 137.25 382.998C142.667 379.39 145.375 374.905 150.792 371.459C156.208 368.014 158.917 367.884 164.333 365.771C169.75 363.658 172.458 365.771 177.875 360.895C183.292 356.019 186 327.415 191.417 289.547C196.833 251.68 199.542 203.345 204.958 171.556C210.375 139.766 213.083 143.082 218.5 130.6C223.917 118.118 226.625 109.147 232.042 109.147C237.458 109.147 240.167 109.797 245.583 109.797C251 109.797 253.708 106.221 259.125 106.221C264.542 106.221 267.25 106.221 272.667 106.709C278.083 107.197 280.792 106.709 286.208 109.797C291.625 112.885 294.333 369.996 299.75 377.635C305.167 385.273 307.875 382.381 313.292 385.274C318.708 388.166 321.417 392.099 326.833 392.099C332.25 392.099 334.958 389.012 340.375 389.012C345.792 389.012 348.5 395.675 353.917 395.675C359.333 395.675 362.042 392.099 367.458 392.099C372.875 392.099 375.583 396 381 396C386.417 396 389.125 396 394.542 396C399.958 396 402.667 396 408.083 396C413.5 396 416.208 396 421.625 396C427.042 396 429.75 396 435.167 396C440.583 396 443.292 392.099 448.708 389.499C454.125 386.899 456.833 386.606 462.25 382.998C467.667 379.39 470.375 374.905 475.792 371.459C481.208 368.014 483.917 367.884 489.333 365.771C494.75 363.658 497.458 365.771 502.875 360.895C508.292 356.019 511 314.869 516.417 272.483C521.833 230.097 524.542 185.37 529.958 148.965C535.375 112.56 538.083 103.459 543.5 90.4567C548.917 77.4549 551.625 83.9558 557.042 77.4549C562.458 70.954 565.167 64.8431 570.583 57.9521C576 51.0611 578.708 43 584.125 43C589.542 43 592.25 44.5927 597.667 57.9521C603.083 71.3115 605.792 62.9903 611.208 109.797C616.625 156.604 619.333 236.89 624.75 291.985C630.167 347.081 632.875 378.448 638.292 385.274C643.708 392.099 646.417 392.099 651.833 392.099C657.25 392.099 659.958 389.012 665.375 389.012C670.792 389.012 673.5 395.675 678.917 395.675C684.333 395.675 687.042 392.099 692.458 392.099C697.875 392.099 706 396 706 396" stroke="#0087FF" stroke-width="2"/>
<path d="M56 6C56 6 64.1625 6 69.6042 6C75.0458 6 77.7667 6 83.2083 6C88.65 6 91.3708 6 96.8125 6C102.254 6 104.975 6 110.417 6C115.858 6 118.579 6 124.021 6C129.463 6 132.183 6 137.625 6C143.067 6 145.787 6 151.229 6C156.671 6 159.392 6 164.833 6C170.275 6 172.996 124.2 178.437 203C183.879 281.8 186.6 400 192.042 400C197.483 400 200.204 400 205.646 400C211.087 400 213.808 400 219.25 400C224.692 400 227.413 400 232.854 400C238.296 400 241.017 400 246.458 400C251.9 400 254.621 400 260.062 400C265.504 400 268.225 400 273.667 400C279.108 400 281.829 400 287.271 400C292.712 400 295.433 6 300.875 6C306.317 6 309.037 6 314.479 6C319.921 6 322.642 6 328.083 6C333.525 6 336.246 6 341.688 6C347.129 6 349.85 6 355.292 6C360.733 6 363.454 6 368.896 6C374.338 6 377.058 6 382.5 6C387.942 6 390.662 6 396.104 6C401.546 6 404.267 6 409.708 6C415.15 6 417.871 6 423.312 6C428.754 6 431.475 6 436.917 6C442.358 6 445.079 6 450.521 6C455.962 6 458.683 6 464.125 6C469.567 6 472.287 6 477.729 6C483.171 6 485.892 6 491.333 6C496.775 6 499.496 124.2 504.937 203C510.379 281.8 513.1 400 518.542 400C523.983 400 526.704 400 532.146 400C537.587 400 540.308 400 545.75 400C551.192 400 553.912 400 559.354 400C564.796 400 567.517 400 572.958 400C578.4 400 581.121 400 586.562 400C592.004 400 594.725 400 600.167 400C605.608 400 608.329 400 613.771 400C619.212 400 621.933 281.8 627.375 203C632.817 124.2 635.538 6 640.979 6C646.421 6 649.142 6 654.583 6C660.025 6 662.746 6 668.188 6C673.629 6 676.35 6 681.792 6C687.233 6 689.954 6 695.396 6C700.837 6 709 6 709 6V400C709 400 700.837 400 695.396 400C689.954 400 687.233 400 681.792 400C676.35 400 673.629 400 668.188 400C662.746 400 660.025 400 654.583 400C649.142 400 646.421 400 640.979 400C635.538 400 632.817 400 627.375 400C621.933 400 619.212 400 613.771 400C608.329 400 605.608 400 600.167 400C594.725 400 592.004 400 586.562 400C581.121 400 578.4 400 572.958 400C567.517 400 564.796 400 559.354 400C553.912 400 551.192 400 545.75 400C540.308 400 537.587 400 532.146 400C526.704 400 523.983 400 518.542 400C513.1 400 510.379 400 504.937 400C499.496 400 496.775 400 491.333 400C485.892 400 483.171 400 477.729 400C472.287 400 469.567 400 464.125 400C458.683 400 455.962 400 450.521 400C445.079 400 442.358 400 436.917 400C431.475 400 428.754 400 423.312 400C417.871 400 415.15 400 409.708 400C404.267 400 401.546 400 396.104 400C390.662 400 387.942 400 382.5 400C377.058 400 374.338 400 368.896 400C363.454 400 360.733 400 355.292 400C349.85 400 347.129 400 341.688 400C336.246 400 333.525 400 328.083 400C322.642 400 319.921 400 314.479 400C309.037 400 306.317 400 300.875 400C295.433 400 292.712 400 287.271 400C281.829 400 279.108 400 273.667 400C268.225 400 265.504 400 260.062 400C254.621 400 251.9 400 246.458 400C241.017 400 238.296 400 232.854 400C227.413 400 224.692 400 219.25 400C213.808 400 211.087 400 205.646 400C200.204 400 197.483 400 192.042 400C186.6 400 183.879 400 178.437 400C172.996 400 170.275 400 164.833 400C159.392 400 156.671 400 151.229 400C145.787 400 143.067 400 137.625 400C132.183 400 129.463 400 124.021 400C118.579 400 115.858 400 110.417 400C104.975 400 102.254 400 96.8125 400C91.3708 400 88.65 400 83.2083 400C77.7667 400 75.0458 400 69.6042 400C64.1625 400 56 400 56 400V6Z" fill="#E4E9EF" fill-opacity="0.5"/>
<path d="M731.405 398.096C730.437 398.096 729.701 397.728 729.197 396.992C728.693 396.256 728.441 395.184 728.441 393.776C728.441 392.36 728.693 391.284 729.197 390.548C729.701 389.812 730.437 389.444 731.405 389.444C732.373 389.444 733.109 389.812 733.613 390.548C734.117 391.276 734.369 392.348 734.369 393.764C734.369 395.18 734.117 396.256 733.613 396.992C733.109 397.728 732.373 398.096 731.405 398.096ZM731.405 397.268C732.077 397.268 732.573 396.984 732.893 396.416C733.213 395.848 733.373 394.964 733.373 393.764C733.373 392.556 733.213 391.676 732.893 391.124C732.581 390.564 732.085 390.284 731.405 390.284C730.733 390.284 730.237 390.564 729.917 391.124C729.597 391.684 729.437 392.564 729.437 393.764C729.437 394.964 729.597 395.848 729.917 396.416C730.237 396.984 730.733 397.268 731.405 397.268Z" fill="#2F2F2F"/>
<path d="M721.467 334.096C720.499 334.096 719.763 333.728 719.259 332.992C718.755 332.256 718.503 331.184 718.503 329.776C718.503 328.36 718.755 327.284 719.259 326.548C719.763 325.812 720.499 325.444 721.467 325.444C722.435 325.444 723.171 325.812 723.675 326.548C724.179 327.276 724.431 328.348 724.431 329.764C724.431 331.18 724.179 332.256 723.675 332.992C723.171 333.728 722.435 334.096 721.467 334.096ZM721.467 333.268C722.139 333.268 722.635 332.984 722.955 332.416C723.275 331.848 723.435 330.964 723.435 329.764C723.435 328.556 723.275 327.676 722.955 327.124C722.643 326.564 722.147 326.284 721.467 326.284C720.795 326.284 720.299 326.564 719.979 327.124C719.659 327.684 719.499 328.564 719.499 329.764C719.499 330.964 719.659 331.848 719.979 332.416C720.299 332.984 720.795 333.268 721.467 333.268ZM725.819 332.776H727.043V334H725.819V332.776ZM734.273 333.172V334H728.825V333.256L731.789 329.992C732.189 329.544 732.477 329.144 732.653 328.792C732.837 328.432 732.929 328.072 732.929 327.712C732.929 327.248 732.793 326.892 732.521 326.644C732.249 326.396 731.865 326.272 731.369 326.272C730.553 326.272 729.753 326.596 728.969 327.244L728.597 326.488C728.933 326.168 729.353 325.916 729.857 325.732C730.369 325.54 730.881 325.444 731.393 325.444C732.169 325.444 732.781 325.644 733.229 326.044C733.685 326.444 733.913 326.984 733.913 327.664C733.913 328.152 733.801 328.62 733.577 329.068C733.361 329.516 733.001 330.016 732.497 330.568L730.097 333.172H734.273Z" fill="#2F2F2F"/>
<path d="M721.467 270.096C720.499 270.096 719.763 269.728 719.259 268.992C718.755 268.256 718.503 267.184 718.503 265.776C718.503 264.36 718.755 263.284 719.259 262.548C719.763 261.812 720.499 261.444 721.467 261.444C722.435 261.444 723.171 261.812 723.675 262.548C724.179 263.276 724.431 264.348 724.431 265.764C724.431 267.18 724.179 268.256 723.675 268.992C723.171 269.728 722.435 270.096 721.467 270.096ZM721.467 269.268C722.139 269.268 722.635 268.984 722.955 268.416C723.275 267.848 723.435 266.964 723.435 265.764C723.435 264.556 723.275 263.676 722.955 263.124C722.643 262.564 722.147 262.284 721.467 262.284C720.795 262.284 720.299 262.564 719.979 263.124C719.659 263.684 719.499 264.564 719.499 265.764C719.499 266.964 719.659 267.848 719.979 268.416C720.299 268.984 720.795 269.268 721.467 269.268ZM725.819 268.776H727.043V270H725.819V268.776ZM734.573 267.348V268.164H733.301V270H732.329V268.164H728.417V267.42L732.497 261.54H733.301V267.348H734.573ZM729.437 267.348H732.329V263.184L729.437 267.348Z" fill="#2F2F2F"/>
<path d="M721.479 206.096C720.511 206.096 719.775 205.728 719.271 204.992C718.767 204.256 718.515 203.184 718.515 201.776C718.515 200.36 718.767 199.284 719.271 198.548C719.775 197.812 720.511 197.444 721.479 197.444C722.447 197.444 723.183 197.812 723.687 198.548C724.191 199.276 724.443 200.348 724.443 201.764C724.443 203.18 724.191 204.256 723.687 204.992C723.183 205.728 722.447 206.096 721.479 206.096ZM721.479 205.268C722.151 205.268 722.647 204.984 722.967 204.416C723.287 203.848 723.447 202.964 723.447 201.764C723.447 200.556 723.287 199.676 722.967 199.124C722.655 198.564 722.159 198.284 721.479 198.284C720.807 198.284 720.311 198.564 719.991 199.124C719.671 199.684 719.511 200.564 719.511 201.764C719.511 202.964 719.671 203.848 719.991 204.416C720.311 204.984 720.807 205.268 721.479 205.268ZM725.83 204.776H727.054V206H725.83V204.776ZM731.776 200.684C732.288 200.684 732.744 200.796 733.144 201.02C733.544 201.244 733.856 201.56 734.08 201.968C734.304 202.376 734.416 202.844 734.416 203.372C734.416 203.892 734.3 204.36 734.068 204.776C733.836 205.192 733.512 205.516 733.096 205.748C732.68 205.98 732.212 206.096 731.692 206.096C730.668 206.096 729.876 205.74 729.316 205.028C728.764 204.316 728.488 203.3 728.488 201.98C728.488 201.028 728.616 200.212 728.872 199.532C729.136 198.852 729.512 198.336 730 197.984C730.488 197.624 731.072 197.444 731.752 197.444C732.24 197.444 732.716 197.536 733.18 197.72C733.644 197.896 734.052 198.152 734.404 198.488L734.032 199.244C733.632 198.908 733.248 198.664 732.88 198.512C732.52 198.352 732.152 198.272 731.776 198.272C731.048 198.272 730.48 198.596 730.072 199.244C729.672 199.884 729.472 200.792 729.472 201.968V202.148C729.656 201.7 729.952 201.344 730.36 201.08C730.768 200.816 731.24 200.684 731.776 200.684ZM731.644 205.268C732.188 205.268 732.624 205.096 732.952 204.752C733.28 204.408 733.444 203.952 733.444 203.384C733.444 202.824 733.276 202.372 732.94 202.028C732.612 201.684 732.176 201.512 731.632 201.512C731.08 201.512 730.628 201.688 730.276 202.04C729.932 202.384 729.76 202.832 729.76 203.384C729.76 203.944 729.932 204.4 730.276 204.752C730.628 205.096 731.084 205.268 731.644 205.268Z" fill="#2F2F2F"/>
<path d="M721.467 142.096C720.499 142.096 719.763 141.728 719.259 140.992C718.755 140.256 718.503 139.184 718.503 137.776C718.503 136.36 718.755 135.284 719.259 134.548C719.763 133.812 720.499 133.444 721.467 133.444C722.435 133.444 723.171 133.812 723.675 134.548C724.179 135.276 724.431 136.348 724.431 137.764C724.431 139.18 724.179 140.256 723.675 140.992C723.171 141.728 722.435 142.096 721.467 142.096ZM721.467 141.268C722.139 141.268 722.635 140.984 722.955 140.416C723.275 139.848 723.435 138.964 723.435 137.764C723.435 136.556 723.275 135.676 722.955 135.124C722.643 134.564 722.147 134.284 721.467 134.284C720.795 134.284 720.299 134.564 719.979 135.124C719.659 135.684 719.499 136.564 719.499 137.764C719.499 138.964 719.659 139.848 719.979 140.416C720.299 140.984 720.795 141.268 721.467 141.268ZM725.819 140.776H727.043V142H725.819V140.776ZM732.869 137.656C733.365 137.808 733.749 138.068 734.021 138.436C734.301 138.804 734.441 139.244 734.441 139.756C734.441 140.484 734.177 141.056 733.649 141.472C733.121 141.88 732.373 142.084 731.405 142.084C730.437 142.084 729.689 141.88 729.161 141.472C728.633 141.056 728.369 140.484 728.369 139.756C728.369 139.236 728.509 138.792 728.789 138.424C729.069 138.056 729.457 137.8 729.953 137.656C729.529 137.496 729.193 137.244 728.945 136.9C728.697 136.556 728.573 136.152 728.573 135.688C728.573 135 728.821 134.456 729.317 134.056C729.821 133.648 730.517 133.444 731.405 133.444C732.293 133.444 732.985 133.648 733.481 134.056C733.985 134.456 734.237 135 734.237 135.688C734.237 136.152 734.113 136.56 733.865 136.912C733.617 137.256 733.285 137.504 732.869 137.656ZM729.545 135.76C729.545 136.256 729.701 136.636 730.013 136.9C730.333 137.164 730.797 137.296 731.405 137.296C732.013 137.296 732.473 137.164 732.785 136.9C733.105 136.636 733.265 136.256 733.265 135.76C733.265 135.288 733.105 134.92 732.785 134.656C732.473 134.392 732.013 134.26 731.405 134.26C730.797 134.26 730.333 134.392 730.013 134.656C729.701 134.92 729.545 135.288 729.545 135.76ZM731.405 141.268C732.781 141.268 733.469 140.744 733.469 139.696C733.469 138.648 732.781 138.124 731.405 138.124C730.029 138.124 729.341 138.648 729.341 139.696C729.341 140.744 730.029 141.268 731.405 141.268Z" fill="#2F2F2F"/>
<path d="M722.271 77.172H724.131V78H719.427V77.172H721.287V70.764L719.799 71.7L719.343 70.944L721.563 69.54H722.271V77.172ZM725.819 76.776H727.043V78H725.819V76.776ZM731.405 78.096C730.437 78.096 729.701 77.728 729.197 76.992C728.693 76.256 728.441 75.184 728.441 73.776C728.441 72.36 728.693 71.284 729.197 70.548C729.701 69.812 730.437 69.444 731.405 69.444C732.373 69.444 733.109 69.812 733.613 70.548C734.117 71.276 734.369 72.348 734.369 73.764C734.369 75.18 734.117 76.256 733.613 76.992C733.109 77.728 732.373 78.096 731.405 78.096ZM731.405 77.268C732.077 77.268 732.573 76.984 732.893 76.416C733.213 75.848 733.373 74.964 733.373 73.764C733.373 72.556 733.213 71.676 732.893 71.124C732.581 70.564 732.085 70.284 731.405 70.284C730.733 70.284 730.237 70.564 729.917 71.124C729.597 71.684 729.437 72.564 729.437 73.764C729.437 74.964 729.597 75.848 729.917 76.416C730.237 76.984 730.733 77.268 731.405 77.268Z" fill="#2F2F2F"/>
<path d="M722.271 13.172H724.131V14H719.427V13.172H721.287V6.764L719.799 7.7L719.343 6.944L721.563 5.54H722.271V13.172ZM725.819 12.776H727.043V14H725.819V12.776ZM734.273 13.172V14H728.825V13.256L731.789 9.992C732.189 9.544 732.477 9.144 732.653 8.792C732.837 8.432 732.929 8.072 732.929 7.712C732.929 7.248 732.793 6.892 732.521 6.644C732.249 6.396 731.865 6.272 731.369 6.272C730.553 6.272 729.753 6.596 728.969 7.244L728.597 6.488C728.933 6.168 729.353 5.916 729.857 5.732C730.369 5.54 730.881 5.444 731.393 5.444C732.169 5.444 732.781 5.644 733.229 6.044C733.685 6.444 733.913 6.984 733.913 7.664C733.913 8.152 733.801 8.62 733.577 9.068C733.361 9.516 733.001 10.016 732.497 10.568L730.097 13.172H734.273Z" fill="#2F2F2F"/>
<defs>
<filter id="filter0_d_126_17766" x="21" y="466" width="365" height="48" filterUnits="userSpaceOnUse" color-interpolation-filters="sRGB">
<feFlood flood-opacity="0" result="BackgroundImageFix"/>
<feColorMatrix in="SourceAlpha" type="matrix" values="0 0 0 0 0 0 0 0 0 0 0 0 0 0 0 0 0 0 127 0" result="hardAlpha"/>
<feOffset dx="6" dy="9"/>
<feGaussianBlur stdDeviation="11"/>
<feComposite in2="hardAlpha" operator="out"/>
<feColorMatrix type="matrix" values="0 0 0 0 0 0 0 0 0 0.529412 0 0 0 0 1 0 0 0 0.08 0"/>
<feBlend mode="normal" in2="BackgroundImageFix" result="effect1_dropShadow_126_17766"/>
<feBlend mode="normal" in="SourceGraphic" in2="effect1_dropShadow_126_17766" result="shape"/>
</filter>
<filter id="filter1_d_126_17766" x="389" y="466" width="365" height="48" filterUnits="userSpaceOnUse" color-interpolation-filters="sRGB">
<feFlood flood-opacity="0" result="BackgroundImageFix"/>
<feColorMatrix in="SourceAlpha" type="matrix" values="0 0 0 0 0 0 0 0 0 0 0 0 0 0 0 0 0 0 127 0" result="hardAlpha"/>
<feOffset dx="6" dy="9"/>
<feGaussianBlur stdDeviation="11"/>
<feComposite in2="hardAlpha" operator="out"/>
<feColorMatrix type="matrix" values="0 0 0 0 0 0 0 0 0 0.529412 0 0 0 0 1 0 0 0 0.08 0"/>
<feBlend mode="normal" in2="BackgroundImageFix" result="effect1_dropShadow_126_17766"/>
<feBlend mode="normal" in="SourceGraphic" in2="effect1_dropShadow_126_17766" result="shape"/>
</filter>
</defs>
</svg>
