<svg width="735" height="542" viewBox="0 0 735 542" fill="none" xmlns="http://www.w3.org/2000/svg">
<path d="M51 70L50.5 493" stroke="#FAFBFC"/>
<path d="M237 70V493" stroke="#FAFBFC"/>
<path d="M424 70V493" stroke="#FAFBFC"/>
<path d="M611 70V493" stroke="#FAFBFC"/>
<path d="M51 493.5H734" stroke="#FAFBFC"/>
<path d="M51 423.5H734" stroke="#FAFBFC"/>
<path d="M51 352.5H734" stroke="#FAFBFC"/>
<path d="M51 282.5H734" stroke="#FAFBFC"/>
<path d="M51 211.5H734" stroke="#FAFBFC"/>
<path d="M51 141.5H734" stroke="#FAFBFC"/>
<path d="M51 70H734" stroke="#FAFBFC"/>
<path d="M50 493L734 493" stroke="#FAFBFC"/>
<path d="M51 70L50 493" stroke="#FAFBFC"/>
<path d="M58.1219 515.112C56.9925 515.112 56.1339 514.683 55.5459 513.824C54.9579 512.965 54.6639 511.715 54.6639 510.072C54.6639 508.42 54.9579 507.165 55.5459 506.306C56.1339 505.447 56.9925 505.018 58.1219 505.018C59.2512 505.018 60.1099 505.447 60.6979 506.306C61.2859 507.155 61.5799 508.406 61.5799 510.058C61.5799 511.71 61.2859 512.965 60.6979 513.824C60.1099 514.683 59.2512 515.112 58.1219 515.112ZM58.1219 514.146C58.9059 514.146 59.4845 513.815 59.8579 513.152C60.2312 512.489 60.4179 511.458 60.4179 510.058C60.4179 508.649 60.2312 507.622 59.8579 506.978C59.4939 506.325 58.9152 505.998 58.1219 505.998C57.3379 505.998 56.7592 506.325 56.3859 506.978C56.0125 507.631 55.8259 508.658 55.8259 510.058C55.8259 511.458 56.0125 512.489 56.3859 513.152C56.7592 513.815 57.3379 514.146 58.1219 514.146ZM66.5164 515.112C65.3871 515.112 64.5284 514.683 63.9404 513.824C63.3524 512.965 63.0584 511.715 63.0584 510.072C63.0584 508.42 63.3524 507.165 63.9404 506.306C64.5284 505.447 65.3871 505.018 66.5164 505.018C67.6457 505.018 68.5044 505.447 69.0924 506.306C69.6804 507.155 69.9744 508.406 69.9744 510.058C69.9744 511.71 69.6804 512.965 69.0924 513.824C68.5044 514.683 67.6457 515.112 66.5164 515.112ZM66.5164 514.146C67.3004 514.146 67.8791 513.815 68.2524 513.152C68.6257 512.489 68.8124 511.458 68.8124 510.058C68.8124 508.649 68.6257 507.622 68.2524 506.978C67.8884 506.325 67.3097 505.998 66.5164 505.998C65.7324 505.998 65.1537 506.325 64.7804 506.978C64.4071 507.631 64.2204 508.658 64.2204 510.058C64.2204 511.458 64.4071 512.489 64.7804 513.152C65.1537 513.815 65.7324 514.146 66.5164 514.146ZM71.5929 508.182H73.0209V509.624H71.5929V508.182ZM71.5929 513.572H73.0209V515H71.5929V513.572ZM78.1102 515.112C76.9808 515.112 76.1222 514.683 75.5342 513.824C74.9462 512.965 74.6522 511.715 74.6522 510.072C74.6522 508.42 74.9462 507.165 75.5342 506.306C76.1222 505.447 76.9808 505.018 78.1102 505.018C79.2395 505.018 80.0982 505.447 80.6862 506.306C81.2742 507.155 81.5682 508.406 81.5682 510.058C81.5682 511.71 81.2742 512.965 80.6862 513.824C80.0982 514.683 79.2395 515.112 78.1102 515.112ZM78.1102 514.146C78.8942 514.146 79.4728 513.815 79.8462 513.152C80.2195 512.489 80.4062 511.458 80.4062 510.058C80.4062 508.649 80.2195 507.622 79.8462 506.978C79.4822 506.325 78.9035 505.998 78.1102 505.998C77.3262 505.998 76.7475 506.325 76.3742 506.978C76.0008 507.631 75.8142 508.658 75.8142 510.058C75.8142 511.458 76.0008 512.489 76.3742 513.152C76.7475 513.815 77.3262 514.146 78.1102 514.146ZM86.5047 515.112C85.3754 515.112 84.5167 514.683 83.9287 513.824C83.3407 512.965 83.0467 511.715 83.0467 510.072C83.0467 508.42 83.3407 507.165 83.9287 506.306C84.5167 505.447 85.3754 505.018 86.5047 505.018C87.634 505.018 88.4927 505.447 89.0807 506.306C89.6687 507.155 89.9627 508.406 89.9627 510.058C89.9627 511.71 89.6687 512.965 89.0807 513.824C88.4927 514.683 87.634 515.112 86.5047 515.112ZM86.5047 514.146C87.2887 514.146 87.8674 513.815 88.2407 513.152C88.614 512.489 88.8007 511.458 88.8007 510.058C88.8007 508.649 88.614 507.622 88.2407 506.978C87.8767 506.325 87.298 505.998 86.5047 505.998C85.7207 505.998 85.142 506.325 84.7687 506.978C84.3954 507.631 84.2087 508.658 84.2087 510.058C84.2087 511.458 84.3954 512.489 84.7687 513.152C85.142 513.815 85.7207 514.146 86.5047 514.146ZM91.5812 508.182H93.0092V509.624H91.5812V508.182ZM91.5812 513.572H93.0092V515H91.5812V513.572ZM98.0984 515.112C96.9691 515.112 96.1104 514.683 95.5224 513.824C94.9344 512.965 94.6404 511.715 94.6404 510.072C94.6404 508.42 94.9344 507.165 95.5224 506.306C96.1104 505.447 96.9691 505.018 98.0984 505.018C99.2278 505.018 100.086 505.447 100.674 506.306C101.262 507.155 101.556 508.406 101.556 510.058C101.556 511.71 101.262 512.965 100.674 513.824C100.086 514.683 99.2278 515.112 98.0984 515.112ZM98.0984 514.146C98.8824 514.146 99.4611 513.815 99.8344 513.152C100.208 512.489 100.394 511.458 100.394 510.058C100.394 508.649 100.208 507.622 99.8344 506.978C99.4704 506.325 98.8918 505.998 98.0984 505.998C97.3144 505.998 96.7358 506.325 96.3624 506.978C95.9891 507.631 95.8024 508.658 95.8024 510.058C95.8024 511.458 95.9891 512.489 96.3624 513.152C96.7358 513.815 97.3144 514.146 98.0984 514.146ZM106.493 515.112C105.364 515.112 104.505 514.683 103.917 513.824C103.329 512.965 103.035 511.715 103.035 510.072C103.035 508.42 103.329 507.165 103.917 506.306C104.505 505.447 105.364 505.018 106.493 505.018C107.622 505.018 108.481 505.447 109.069 506.306C109.657 507.155 109.951 508.406 109.951 510.058C109.951 511.71 109.657 512.965 109.069 513.824C108.481 514.683 107.622 515.112 106.493 515.112ZM106.493 514.146C107.277 514.146 107.856 513.815 108.229 513.152C108.602 512.489 108.789 511.458 108.789 510.058C108.789 508.649 108.602 507.622 108.229 506.978C107.865 506.325 107.286 505.998 106.493 505.998C105.709 505.998 105.13 506.325 104.757 506.978C104.384 507.631 104.197 508.658 104.197 510.058C104.197 511.458 104.384 512.489 104.757 513.152C105.13 513.815 105.709 514.146 106.493 514.146Z" fill="#2F2F2F"/>
<path d="M237.129 515.112C235.999 515.112 235.141 514.683 234.553 513.824C233.965 512.965 233.671 511.715 233.671 510.072C233.671 508.42 233.965 507.165 234.553 506.306C235.141 505.447 235.999 505.018 237.129 505.018C238.258 505.018 239.117 505.447 239.705 506.306C240.293 507.155 240.587 508.406 240.587 510.058C240.587 511.71 240.293 512.965 239.705 513.824C239.117 514.683 238.258 515.112 237.129 515.112ZM237.129 514.146C237.913 514.146 238.491 513.815 238.865 513.152C239.238 512.489 239.425 511.458 239.425 510.058C239.425 508.649 239.238 507.622 238.865 506.978C238.501 506.325 237.922 505.998 237.129 505.998C236.345 505.998 235.766 506.325 235.393 506.978C235.019 507.631 234.833 508.658 234.833 510.058C234.833 511.458 235.019 512.489 235.393 513.152C235.766 513.815 236.345 514.146 237.129 514.146ZM245.943 508.798C246.541 508.798 247.073 508.929 247.539 509.19C248.006 509.451 248.37 509.82 248.631 510.296C248.893 510.772 249.023 511.318 249.023 511.934C249.023 512.541 248.888 513.087 248.617 513.572C248.347 514.057 247.969 514.435 247.483 514.706C246.998 514.977 246.452 515.112 245.845 515.112C244.651 515.112 243.727 514.697 243.073 513.866C242.429 513.035 242.107 511.85 242.107 510.31C242.107 509.199 242.257 508.247 242.555 507.454C242.863 506.661 243.302 506.059 243.871 505.648C244.441 505.228 245.122 505.018 245.915 505.018C246.485 505.018 247.04 505.125 247.581 505.34C248.123 505.545 248.599 505.844 249.009 506.236L248.575 507.118C248.109 506.726 247.661 506.441 247.231 506.264C246.811 506.077 246.382 505.984 245.943 505.984C245.094 505.984 244.431 506.362 243.955 507.118C243.489 507.865 243.255 508.924 243.255 510.296V510.506C243.47 509.983 243.815 509.568 244.291 509.26C244.767 508.952 245.318 508.798 245.943 508.798ZM245.789 514.146C246.424 514.146 246.933 513.945 247.315 513.544C247.698 513.143 247.889 512.611 247.889 511.948C247.889 511.295 247.693 510.767 247.301 510.366C246.919 509.965 246.41 509.764 245.775 509.764C245.131 509.764 244.604 509.969 244.193 510.38C243.792 510.781 243.591 511.304 243.591 511.948C243.591 512.601 243.792 513.133 244.193 513.544C244.604 513.945 245.136 514.146 245.789 514.146ZM250.586 508.182H252.014V509.624H250.586V508.182ZM250.586 513.572H252.014V515H250.586V513.572ZM258.461 509.932C259.04 510.1 259.483 510.389 259.791 510.8C260.099 511.201 260.253 511.71 260.253 512.326C260.253 513.185 259.959 513.861 259.371 514.356C258.793 514.851 258.004 515.098 257.005 515.098C256.371 515.098 255.759 514.991 255.171 514.776C254.583 514.561 254.089 514.263 253.687 513.88L254.121 512.998C255.017 513.754 255.969 514.132 256.977 514.132C257.677 514.132 258.209 513.978 258.573 513.67C258.937 513.353 259.119 512.891 259.119 512.284C259.119 511.08 258.363 510.478 256.851 510.478H255.717V509.512H256.627C257.355 509.512 257.915 509.353 258.307 509.036C258.699 508.709 258.895 508.243 258.895 507.636C258.895 507.104 258.737 506.698 258.419 506.418C258.102 506.129 257.649 505.984 257.061 505.984C256.109 505.984 255.176 506.362 254.261 507.118L253.827 506.236C254.229 505.853 254.719 505.555 255.297 505.34C255.876 505.125 256.478 505.018 257.103 505.018C257.999 505.018 258.709 505.247 259.231 505.704C259.763 506.152 260.029 506.759 260.029 507.524C260.029 508.093 259.889 508.593 259.609 509.022C259.339 509.442 258.956 509.745 258.461 509.932ZM265.498 515.112C264.369 515.112 263.51 514.683 262.922 513.824C262.334 512.965 262.04 511.715 262.04 510.072C262.04 508.42 262.334 507.165 262.922 506.306C263.51 505.447 264.369 505.018 265.498 505.018C266.627 505.018 267.486 505.447 268.074 506.306C268.662 507.155 268.956 508.406 268.956 510.058C268.956 511.71 268.662 512.965 268.074 513.824C267.486 514.683 266.627 515.112 265.498 515.112ZM265.498 514.146C266.282 514.146 266.861 513.815 267.234 513.152C267.607 512.489 267.794 511.458 267.794 510.058C267.794 508.649 267.607 507.622 267.234 506.978C266.87 506.325 266.291 505.998 265.498 505.998C264.714 505.998 264.135 506.325 263.762 506.978C263.389 507.631 263.202 508.658 263.202 510.058C263.202 511.458 263.389 512.489 263.762 513.152C264.135 513.815 264.714 514.146 265.498 514.146ZM270.574 508.182H272.002V509.624H270.574V508.182ZM270.574 513.572H272.002V515H270.574V513.572ZM277.092 515.112C275.962 515.112 275.104 514.683 274.516 513.824C273.928 512.965 273.634 511.715 273.634 510.072C273.634 508.42 273.928 507.165 274.516 506.306C275.104 505.447 275.962 505.018 277.092 505.018C278.221 505.018 279.08 505.447 279.668 506.306C280.256 507.155 280.55 508.406 280.55 510.058C280.55 511.71 280.256 512.965 279.668 513.824C279.08 514.683 278.221 515.112 277.092 515.112ZM277.092 514.146C277.876 514.146 278.454 513.815 278.828 513.152C279.201 512.489 279.388 511.458 279.388 510.058C279.388 508.649 279.201 507.622 278.828 506.978C278.464 506.325 277.885 505.998 277.092 505.998C276.308 505.998 275.729 506.325 275.356 506.978C274.982 507.631 274.796 508.658 274.796 510.058C274.796 511.458 274.982 512.489 275.356 513.152C275.729 513.815 276.308 514.146 277.092 514.146ZM285.486 515.112C284.357 515.112 283.498 514.683 282.91 513.824C282.322 512.965 282.028 511.715 282.028 510.072C282.028 508.42 282.322 507.165 282.91 506.306C283.498 505.447 284.357 505.018 285.486 505.018C286.615 505.018 287.474 505.447 288.062 506.306C288.65 507.155 288.944 508.406 288.944 510.058C288.944 511.71 288.65 512.965 288.062 513.824C287.474 514.683 286.615 515.112 285.486 515.112ZM285.486 514.146C286.27 514.146 286.849 513.815 287.222 513.152C287.595 512.489 287.782 511.458 287.782 510.058C287.782 508.649 287.595 507.622 287.222 506.978C286.858 506.325 286.279 505.998 285.486 505.998C284.702 505.998 284.123 506.325 283.75 506.978C283.377 507.631 283.19 508.658 283.19 510.058C283.19 511.458 283.377 512.489 283.75 513.152C284.123 513.815 284.702 514.146 285.486 514.146Z" fill="#2F2F2F"/>
<path d="M413.255 514.034H415.425V515H409.937V514.034H412.107V506.558L410.371 507.65L409.839 506.768L412.429 505.13H413.255V514.034ZM422.07 509.932C422.648 510.1 423.092 510.389 423.4 510.8C423.708 511.201 423.862 511.71 423.862 512.326C423.862 513.185 423.568 513.861 422.98 514.356C422.401 514.851 421.612 515.098 420.614 515.098C419.979 515.098 419.368 514.991 418.78 514.776C418.192 514.561 417.697 514.263 417.296 513.88L417.73 512.998C418.626 513.754 419.578 514.132 420.586 514.132C421.286 514.132 421.818 513.978 422.182 513.67C422.546 513.353 422.728 512.891 422.728 512.284C422.728 511.08 421.972 510.478 420.46 510.478H419.326V509.512H420.236C420.964 509.512 421.524 509.353 421.916 509.036C422.308 508.709 422.504 508.243 422.504 507.636C422.504 507.104 422.345 506.698 422.028 506.418C421.71 506.129 421.258 505.984 420.67 505.984C419.718 505.984 418.784 506.362 417.87 507.118L417.436 506.236C417.837 505.853 418.327 505.555 418.906 505.34C419.484 505.125 420.086 505.018 420.712 505.018C421.608 505.018 422.317 505.247 422.84 505.704C423.372 506.152 423.638 506.759 423.638 507.524C423.638 508.093 423.498 508.593 423.218 509.022C422.947 509.442 422.564 509.745 422.07 509.932ZM425.788 508.182H427.216V509.624H425.788V508.182ZM425.788 513.572H427.216V515H425.788V513.572ZM432.305 515.112C431.176 515.112 430.317 514.683 429.729 513.824C429.141 512.965 428.847 511.715 428.847 510.072C428.847 508.42 429.141 507.165 429.729 506.306C430.317 505.447 431.176 505.018 432.305 505.018C433.435 505.018 434.293 505.447 434.881 506.306C435.469 507.155 435.763 508.406 435.763 510.058C435.763 511.71 435.469 512.965 434.881 513.824C434.293 514.683 433.435 515.112 432.305 515.112ZM432.305 514.146C433.089 514.146 433.668 513.815 434.041 513.152C434.415 512.489 434.601 511.458 434.601 510.058C434.601 508.649 434.415 507.622 434.041 506.978C433.677 506.325 433.099 505.998 432.305 505.998C431.521 505.998 430.943 506.325 430.569 506.978C430.196 507.631 430.009 508.658 430.009 510.058C430.009 511.458 430.196 512.489 430.569 513.152C430.943 513.815 431.521 514.146 432.305 514.146ZM440.7 515.112C439.571 515.112 438.712 514.683 438.124 513.824C437.536 512.965 437.242 511.715 437.242 510.072C437.242 508.42 437.536 507.165 438.124 506.306C438.712 505.447 439.571 505.018 440.7 505.018C441.829 505.018 442.688 505.447 443.276 506.306C443.864 507.155 444.158 508.406 444.158 510.058C444.158 511.71 443.864 512.965 443.276 513.824C442.688 514.683 441.829 515.112 440.7 515.112ZM440.7 514.146C441.484 514.146 442.063 513.815 442.436 513.152C442.809 512.489 442.996 511.458 442.996 510.058C442.996 508.649 442.809 507.622 442.436 506.978C442.072 506.325 441.493 505.998 440.7 505.998C439.916 505.998 439.337 506.325 438.964 506.978C438.591 507.631 438.404 508.658 438.404 510.058C438.404 511.458 438.591 512.489 438.964 513.152C439.337 513.815 439.916 514.146 440.7 514.146ZM445.777 508.182H447.205V509.624H445.777V508.182ZM445.777 513.572H447.205V515H445.777V513.572ZM452.294 515.112C451.164 515.112 450.306 514.683 449.718 513.824C449.13 512.965 448.836 511.715 448.836 510.072C448.836 508.42 449.13 507.165 449.718 506.306C450.306 505.447 451.164 505.018 452.294 505.018C453.423 505.018 454.282 505.447 454.87 506.306C455.458 507.155 455.752 508.406 455.752 510.058C455.752 511.71 455.458 512.965 454.87 513.824C454.282 514.683 453.423 515.112 452.294 515.112ZM452.294 514.146C453.078 514.146 453.656 513.815 454.03 513.152C454.403 512.489 454.59 511.458 454.59 510.058C454.59 508.649 454.403 507.622 454.03 506.978C453.666 506.325 453.087 505.998 452.294 505.998C451.51 505.998 450.931 506.325 450.558 506.978C450.184 507.631 449.998 508.658 449.998 510.058C449.998 511.458 450.184 512.489 450.558 513.152C450.931 513.815 451.51 514.146 452.294 514.146ZM460.688 515.112C459.559 515.112 458.7 514.683 458.112 513.824C457.524 512.965 457.23 511.715 457.23 510.072C457.23 508.42 457.524 507.165 458.112 506.306C458.7 505.447 459.559 505.018 460.688 505.018C461.818 505.018 462.676 505.447 463.264 506.306C463.852 507.155 464.146 508.406 464.146 510.058C464.146 511.71 463.852 512.965 463.264 513.824C462.676 514.683 461.818 515.112 460.688 515.112ZM460.688 514.146C461.472 514.146 462.051 513.815 462.424 513.152C462.798 512.489 462.984 511.458 462.984 510.058C462.984 508.649 462.798 507.622 462.424 506.978C462.06 506.325 461.482 505.998 460.688 505.998C459.904 505.998 459.326 506.325 458.952 506.978C458.579 507.631 458.392 508.658 458.392 510.058C458.392 511.458 458.579 512.489 458.952 513.152C459.326 513.815 459.904 514.146 460.688 514.146Z" fill="#2F2F2F"/>
<path d="M588.255 514.034H590.425V515H584.937V514.034H587.107V506.558L585.371 507.65L584.839 506.768L587.429 505.13H588.255V514.034ZM595.404 505.018C596.598 505.018 597.518 505.433 598.162 506.264C598.815 507.095 599.142 508.28 599.142 509.82C599.142 511.491 598.806 512.793 598.134 513.726C597.462 514.65 596.524 515.112 595.32 515.112C594.76 515.112 594.209 515.009 593.668 514.804C593.126 514.589 592.65 514.286 592.24 513.894L592.674 513.012C593.14 513.404 593.584 513.693 594.004 513.88C594.433 514.057 594.867 514.146 595.306 514.146C596.155 514.146 596.813 513.773 597.28 513.026C597.746 512.27 597.98 511.206 597.98 509.834V509.652C597.765 510.175 597.415 510.585 596.93 510.884C596.454 511.183 595.912 511.332 595.306 511.332C594.708 511.332 594.176 511.201 593.71 510.94C593.243 510.679 592.879 510.31 592.618 509.834C592.356 509.358 592.226 508.812 592.226 508.196C592.226 507.589 592.361 507.043 592.632 506.558C592.902 506.073 593.28 505.695 593.766 505.424C594.251 505.153 594.797 505.018 595.404 505.018ZM595.474 510.366C596.118 510.366 596.64 510.165 597.042 509.764C597.452 509.353 597.658 508.826 597.658 508.182C597.658 507.529 597.452 507.001 597.042 506.6C596.64 506.189 596.113 505.984 595.46 505.984C594.825 505.984 594.316 506.185 593.934 506.586C593.551 506.987 593.36 507.519 593.36 508.182C593.36 508.845 593.551 509.377 593.934 509.778C594.326 510.17 594.839 510.366 595.474 510.366ZM600.788 508.182H602.216V509.624H600.788V508.182ZM600.788 513.572H602.216V515H600.788V513.572ZM608.663 509.932C609.242 510.1 609.685 510.389 609.993 510.8C610.301 511.201 610.455 511.71 610.455 512.326C610.455 513.185 610.161 513.861 609.573 514.356C608.995 514.851 608.206 515.098 607.207 515.098C606.573 515.098 605.961 514.991 605.373 514.776C604.785 514.561 604.291 514.263 603.889 513.88L604.323 512.998C605.219 513.754 606.171 514.132 607.179 514.132C607.879 514.132 608.411 513.978 608.775 513.67C609.139 513.353 609.321 512.891 609.321 512.284C609.321 511.08 608.565 510.478 607.053 510.478H605.919V509.512H606.829C607.557 509.512 608.117 509.353 608.509 509.036C608.901 508.709 609.097 508.243 609.097 507.636C609.097 507.104 608.939 506.698 608.621 506.418C608.304 506.129 607.851 505.984 607.263 505.984C606.311 505.984 605.378 506.362 604.463 507.118L604.029 506.236C604.431 505.853 604.921 505.555 605.499 505.34C606.078 505.125 606.68 505.018 607.305 505.018C608.201 505.018 608.911 505.247 609.433 505.704C609.965 506.152 610.231 506.759 610.231 507.524C610.231 508.093 610.091 508.593 609.811 509.022C609.541 509.442 609.158 509.745 608.663 509.932ZM615.7 515.112C614.571 515.112 613.712 514.683 613.124 513.824C612.536 512.965 612.242 511.715 612.242 510.072C612.242 508.42 612.536 507.165 613.124 506.306C613.712 505.447 614.571 505.018 615.7 505.018C616.829 505.018 617.688 505.447 618.276 506.306C618.864 507.155 619.158 508.406 619.158 510.058C619.158 511.71 618.864 512.965 618.276 513.824C617.688 514.683 616.829 515.112 615.7 515.112ZM615.7 514.146C616.484 514.146 617.063 513.815 617.436 513.152C617.809 512.489 617.996 511.458 617.996 510.058C617.996 508.649 617.809 507.622 617.436 506.978C617.072 506.325 616.493 505.998 615.7 505.998C614.916 505.998 614.337 506.325 613.964 506.978C613.591 507.631 613.404 508.658 613.404 510.058C613.404 511.458 613.591 512.489 613.964 513.152C614.337 513.815 614.916 514.146 615.7 514.146ZM620.777 508.182H622.205V509.624H620.777V508.182ZM620.777 513.572H622.205V515H620.777V513.572ZM627.294 515.112C626.164 515.112 625.306 514.683 624.718 513.824C624.13 512.965 623.836 511.715 623.836 510.072C623.836 508.42 624.13 507.165 624.718 506.306C625.306 505.447 626.164 505.018 627.294 505.018C628.423 505.018 629.282 505.447 629.87 506.306C630.458 507.155 630.752 508.406 630.752 510.058C630.752 511.71 630.458 512.965 629.87 513.824C629.282 514.683 628.423 515.112 627.294 515.112ZM627.294 514.146C628.078 514.146 628.656 513.815 629.03 513.152C629.403 512.489 629.59 511.458 629.59 510.058C629.59 508.649 629.403 507.622 629.03 506.978C628.666 506.325 628.087 505.998 627.294 505.998C626.51 505.998 625.931 506.325 625.558 506.978C625.184 507.631 624.998 508.658 624.998 510.058C624.998 511.458 625.184 512.489 625.558 513.152C625.931 513.815 626.51 514.146 627.294 514.146ZM635.688 515.112C634.559 515.112 633.7 514.683 633.112 513.824C632.524 512.965 632.23 511.715 632.23 510.072C632.23 508.42 632.524 507.165 633.112 506.306C633.7 505.447 634.559 505.018 635.688 505.018C636.818 505.018 637.676 505.447 638.264 506.306C638.852 507.155 639.146 508.406 639.146 510.058C639.146 511.71 638.852 512.965 638.264 513.824C637.676 514.683 636.818 515.112 635.688 515.112ZM635.688 514.146C636.472 514.146 637.051 513.815 637.424 513.152C637.798 512.489 637.984 511.458 637.984 510.058C637.984 508.649 637.798 507.622 637.424 506.978C637.06 506.325 636.482 505.998 635.688 505.998C634.904 505.998 634.326 506.325 633.952 506.978C633.579 507.631 633.392 508.658 633.392 510.058C633.392 511.458 633.579 512.489 633.952 513.152C634.326 513.815 634.904 514.146 635.688 514.146Z" fill="#2F2F2F"/>
<path d="M26.2 501.112C25.0707 501.112 24.212 500.683 23.624 499.824C23.036 498.965 22.742 497.715 22.742 496.072C22.742 494.42 23.036 493.165 23.624 492.306C24.212 491.447 25.0707 491.018 26.2 491.018C27.3293 491.018 28.188 491.447 28.776 492.306C29.364 493.155 29.658 494.406 29.658 496.058C29.658 497.71 29.364 498.965 28.776 499.824C28.188 500.683 27.3293 501.112 26.2 501.112ZM26.2 500.146C26.984 500.146 27.5627 499.815 27.936 499.152C28.3093 498.489 28.496 497.458 28.496 496.058C28.496 494.649 28.3093 493.622 27.936 492.978C27.572 492.325 26.9933 491.998 26.2 491.998C25.416 491.998 24.8373 492.325 24.464 492.978C24.0907 493.631 23.904 494.658 23.904 496.058C23.904 497.458 24.0907 498.489 24.464 499.152C24.8373 499.815 25.416 500.146 26.2 500.146ZM31.2765 499.572H32.7045V501H31.2765V499.572ZM38.2138 494.812C38.8391 494.812 39.3804 494.943 39.8378 495.204C40.3044 495.465 40.6638 495.834 40.9158 496.31C41.1678 496.777 41.2938 497.318 41.2938 497.934C41.2938 498.559 41.1538 499.11 40.8738 499.586C40.6031 500.062 40.2158 500.435 39.7118 500.706C39.2078 500.967 38.6198 501.098 37.9478 501.098C37.3504 501.098 36.7578 500.991 36.1698 500.776C35.5911 500.552 35.1011 500.253 34.6998 499.88L35.1338 498.998C36.0484 499.754 36.9864 500.132 37.9478 500.132C38.6384 500.132 39.1798 499.936 39.5718 499.544C39.9638 499.152 40.1598 498.62 40.1598 497.948C40.1598 497.295 39.9638 496.767 39.5718 496.366C39.1891 495.965 38.6758 495.764 38.0318 495.764C37.0891 495.764 36.3378 496.147 35.7778 496.912H34.9798V491.13H40.9018V492.082H36.1138V495.596C36.3751 495.344 36.6831 495.153 37.0378 495.022C37.4018 494.882 37.7938 494.812 38.2138 494.812Z" fill="#2F2F2F"/>
<path d="M27.138 430.034H29.308V431H23.82V430.034H25.99V422.558L24.254 423.65L23.722 422.768L26.312 421.13H27.138V430.034Z" fill="#2F2F2F"/>
<path d="M27.138 359.034H29.308V360H23.82V359.034H25.99V351.558L24.254 352.65L23.722 351.768L26.312 350.13H27.138V359.034ZM31.2765 358.572H32.7045V360H31.2765V358.572ZM38.2138 353.812C38.8391 353.812 39.3804 353.943 39.8378 354.204C40.3044 354.465 40.6638 354.834 40.9158 355.31C41.1678 355.777 41.2938 356.318 41.2938 356.934C41.2938 357.559 41.1538 358.11 40.8738 358.586C40.6031 359.062 40.2158 359.435 39.7118 359.706C39.2078 359.967 38.6198 360.098 37.9478 360.098C37.3504 360.098 36.7578 359.991 36.1698 359.776C35.5911 359.552 35.1011 359.253 34.6998 358.88L35.1338 357.998C36.0484 358.754 36.9864 359.132 37.9478 359.132C38.6384 359.132 39.1798 358.936 39.5718 358.544C39.9638 358.152 40.1598 357.62 40.1598 356.948C40.1598 356.295 39.9638 355.767 39.5718 355.366C39.1891 354.965 38.6758 354.764 38.0318 354.764C37.0891 354.764 36.3378 355.147 35.7778 355.912H34.9798V350.13H40.9018V351.082H36.1138V354.596C36.3751 354.344 36.6831 354.153 37.0378 354.022C37.4018 353.882 37.7938 353.812 38.2138 353.812Z" fill="#2F2F2F"/>
<path d="M29.546 289.034V290H23.19V289.132L26.648 285.324C27.1147 284.801 27.4507 284.335 27.656 283.924C27.8707 283.504 27.978 283.084 27.978 282.664C27.978 282.123 27.8193 281.707 27.502 281.418C27.1847 281.129 26.7367 280.984 26.158 280.984C25.206 280.984 24.2727 281.362 23.358 282.118L22.924 281.236C23.316 280.863 23.806 280.569 24.394 280.354C24.9913 280.13 25.5887 280.018 26.186 280.018C27.0913 280.018 27.8053 280.251 28.328 280.718C28.86 281.185 29.126 281.815 29.126 282.608C29.126 283.177 28.9953 283.723 28.734 284.246C28.482 284.769 28.062 285.352 27.474 285.996L24.674 289.034H29.546Z" fill="#2F2F2F"/>
<path d="M29.546 219.034V220H23.19V219.132L26.648 215.324C27.1147 214.801 27.4507 214.335 27.656 213.924C27.8707 213.504 27.978 213.084 27.978 212.664C27.978 212.123 27.8193 211.707 27.502 211.418C27.1847 211.129 26.7367 210.984 26.158 210.984C25.206 210.984 24.2727 211.362 23.358 212.118L22.924 211.236C23.316 210.863 23.806 210.569 24.394 210.354C24.9913 210.13 25.5887 210.018 26.186 210.018C27.0913 210.018 27.8053 210.251 28.328 210.718C28.86 211.185 29.126 211.815 29.126 212.608C29.126 213.177 28.9953 213.723 28.734 214.246C28.482 214.769 28.062 215.352 27.474 215.996L24.674 219.034H29.546ZM31.2765 218.572H32.7045V220H31.2765V218.572ZM38.2138 213.812C38.8391 213.812 39.3804 213.943 39.8378 214.204C40.3044 214.465 40.6638 214.834 40.9158 215.31C41.1678 215.777 41.2938 216.318 41.2938 216.934C41.2938 217.559 41.1538 218.11 40.8738 218.586C40.6031 219.062 40.2158 219.435 39.7118 219.706C39.2078 219.967 38.6198 220.098 37.9478 220.098C37.3504 220.098 36.7578 219.991 36.1698 219.776C35.5911 219.552 35.1011 219.253 34.6998 218.88L35.1338 217.998C36.0484 218.754 36.9864 219.132 37.9478 219.132C38.6384 219.132 39.1798 218.936 39.5718 218.544C39.9638 218.152 40.1598 217.62 40.1598 216.948C40.1598 216.295 39.9638 215.767 39.5718 215.366C39.1891 214.965 38.6758 214.764 38.0318 214.764C37.0891 214.764 36.3378 215.147 35.7778 215.912H34.9798V210.13H40.9018V211.082H36.1138V214.596C36.3751 214.344 36.6831 214.153 37.0378 214.022C37.4018 213.882 37.7938 213.812 38.2138 213.812Z" fill="#2F2F2F"/>
<path d="M27.558 143.932C28.1367 144.1 28.58 144.389 28.888 144.8C29.196 145.201 29.35 145.71 29.35 146.326C29.35 147.185 29.056 147.861 28.468 148.356C27.8893 148.851 27.1007 149.098 26.102 149.098C25.4673 149.098 24.856 148.991 24.268 148.776C23.68 148.561 23.1853 148.263 22.784 147.88L23.218 146.998C24.114 147.754 25.066 148.132 26.074 148.132C26.774 148.132 27.306 147.978 27.67 147.67C28.034 147.353 28.216 146.891 28.216 146.284C28.216 145.08 27.46 144.478 25.948 144.478H24.814V143.512H25.724C26.452 143.512 27.012 143.353 27.404 143.036C27.796 142.709 27.992 142.243 27.992 141.636C27.992 141.104 27.8333 140.698 27.516 140.418C27.1987 140.129 26.746 139.984 26.158 139.984C25.206 139.984 24.2727 140.362 23.358 141.118L22.924 140.236C23.3253 139.853 23.8153 139.555 24.394 139.34C24.9727 139.125 25.5747 139.018 26.2 139.018C27.096 139.018 27.8053 139.247 28.328 139.704C28.86 140.152 29.126 140.759 29.126 141.524C29.126 142.093 28.986 142.593 28.706 143.022C28.4353 143.442 28.0527 143.745 27.558 143.932Z" fill="#2F2F2F"/>
<path d="M27.558 73.932C28.1367 74.1 28.58 74.3893 28.888 74.8C29.196 75.2013 29.35 75.71 29.35 76.326C29.35 77.1847 29.056 77.8613 28.468 78.356C27.8893 78.8507 27.1007 79.098 26.102 79.098C25.4673 79.098 24.856 78.9907 24.268 78.776C23.68 78.5613 23.1853 78.2627 22.784 77.88L23.218 76.998C24.114 77.754 25.066 78.132 26.074 78.132C26.774 78.132 27.306 77.978 27.67 77.67C28.034 77.3527 28.216 76.8907 28.216 76.284C28.216 75.08 27.46 74.478 25.948 74.478H24.814V73.512H25.724C26.452 73.512 27.012 73.3533 27.404 73.036C27.796 72.7093 27.992 72.2427 27.992 71.636C27.992 71.104 27.8333 70.698 27.516 70.418C27.1987 70.1287 26.746 69.984 26.158 69.984C25.206 69.984 24.2727 70.362 23.358 71.118L22.924 70.236C23.3253 69.8533 23.8153 69.5547 24.394 69.34C24.9727 69.1253 25.5747 69.018 26.2 69.018C27.096 69.018 27.8053 69.2467 28.328 69.704C28.86 70.152 29.126 70.7587 29.126 71.524C29.126 72.0933 28.986 72.5927 28.706 73.022C28.4353 73.442 28.0527 73.7453 27.558 73.932ZM31.2765 77.572H32.7045V79H31.2765V77.572ZM38.2138 72.812C38.8391 72.812 39.3804 72.9427 39.8378 73.204C40.3044 73.4653 40.6638 73.834 40.9158 74.31C41.1678 74.7767 41.2938 75.318 41.2938 75.934C41.2938 76.5593 41.1538 77.11 40.8738 77.586C40.6031 78.062 40.2158 78.4353 39.7118 78.706C39.2078 78.9673 38.6198 79.098 37.9478 79.098C37.3504 79.098 36.7578 78.9907 36.1698 78.776C35.5911 78.552 35.1011 78.2533 34.6998 77.88L35.1338 76.998C36.0484 77.754 36.9864 78.132 37.9478 78.132C38.6384 78.132 39.1798 77.936 39.5718 77.544C39.9638 77.152 40.1598 76.62 40.1598 75.948C40.1598 75.2947 39.9638 74.7673 39.5718 74.366C39.1891 73.9647 38.6758 73.764 38.0318 73.764C37.0891 73.764 36.3378 74.1467 35.7778 74.912H34.9798V69.13H40.9018V70.082H36.1138V73.596C36.3751 73.344 36.6831 73.1527 37.0378 73.022C37.4018 72.882 37.7938 72.812 38.2138 72.812Z" fill="#2F2F2F"/>
<path d="M51 416.387C51 416.387 55.3137 406.718 58.1895 406.718C61.0653 406.718 62.5032 411.915 65.3789 411.915C68.2547 411.915 69.6926 408.485 72.5684 408.485C75.4442 408.485 76.8821 416.254 79.7579 416.254C82.6337 416.254 84.0716 405.478 86.9474 405.478C89.8232 405.478 91.2611 406.127 94.1368 407.436C97.0126 408.745 98.4505 412.021 101.326 412.021C104.202 412.021 105.64 408.505 108.516 406.809C111.392 405.113 112.829 403.541 115.705 403.541C118.581 403.541 120.019 412.218 122.895 412.218C125.771 412.218 127.208 412.197 130.084 412.197C132.96 412.197 134.398 416.303 137.274 416.303C140.149 416.303 141.587 414.258 144.463 413C147.339 411.742 148.777 410.014 151.653 410.014C154.528 410.014 155.966 415.634 158.842 416.789C161.718 417.944 163.156 417.944 166.032 417.944C168.907 417.944 170.345 417.944 173.221 417.493C176.097 417.042 177.535 407.725 180.411 406.774C183.286 405.823 184.724 405.823 187.6 405.823C190.476 405.823 191.914 417.641 194.789 417.641C197.665 417.641 199.103 417.641 201.979 415.704C204.855 413.768 206.293 404.295 209.168 394.4C212.044 384.504 213.482 378.905 216.358 366.228C219.234 353.551 220.672 338.057 223.547 331.014C226.423 323.971 227.861 330.732 230.737 323.971C233.613 317.21 235.051 308.477 237.926 297.208C240.802 285.94 242.24 267.628 245.116 267.628C247.992 267.628 249.429 288.757 252.305 288.757C255.181 288.757 256.619 288.757 259.495 287.348C262.371 285.94 263.808 282.327 266.684 278.521C269.56 274.715 270.998 268.318 273.874 268.318C276.749 268.318 278.187 273.353 281.063 273.353C283.939 273.353 285.377 258.599 288.253 252.448C291.128 246.298 292.566 246.333 295.442 242.6C298.318 238.867 299.756 236.476 302.632 233.785C305.507 231.093 306.945 231.389 309.821 229.144C312.697 226.899 314.135 229.144 317.011 222.56C319.886 215.975 321.324 145.449 324.2 136.366C327.076 127.282 328.514 130.525 331.389 127.282C334.265 124.04 335.703 122.775 338.579 120.152C341.455 117.529 342.893 114.168 345.768 114.168C348.644 114.168 350.082 118.434 352.958 118.434C355.834 118.434 357.272 114.859 360.147 113.069C363.023 111.279 364.461 109.484 367.337 109.484C370.213 109.484 371.651 115.026 374.526 115.026C377.402 115.026 378.84 111.91 381.716 111.91C384.592 111.91 386.029 128.633 388.905 128.633C391.781 128.633 393.219 127.665 396.095 127.114C398.971 126.564 400.408 126.212 403.284 125.88C406.16 125.549 407.598 125.88 410.474 125.457C413.349 125.034 414.787 84.2773 417.663 84.2773C420.539 84.2773 421.977 232.996 424.853 232.996C427.728 232.996 429.166 230.717 432.042 230.717C434.918 230.717 436.356 231.694 439.232 231.694C442.107 231.694 443.545 134.74 446.421 127.044C449.297 119.347 450.735 119.347 453.611 119.347C456.486 119.347 457.924 119.467 460.8 119.784C463.676 120.101 465.114 120.931 467.989 120.931C470.865 120.931 472.303 118.628 475.179 118.628C478.055 118.628 479.493 119.765 482.368 120.478C485.244 121.19 486.682 121.358 489.558 122.192C492.434 123.026 493.872 123.959 496.747 124.648C499.623 125.336 501.061 125.634 503.937 125.634C506.813 125.634 508.251 123.043 511.126 123.043C514.002 123.043 515.44 125.989 518.316 128.129C521.192 130.269 522.629 133.741 525.505 133.741C528.381 133.741 529.819 126.374 532.695 126.374C535.571 126.374 537.008 133.158 539.884 133.158C542.76 133.158 544.198 130.128 547.074 130.128C549.949 130.128 551.387 217.689 554.263 233.659C557.139 249.629 558.577 244.355 561.453 249.629C564.328 254.903 565.766 255.925 568.642 260.028C571.518 264.131 572.956 266.562 575.832 270.143C578.707 273.725 580.145 270.143 583.021 277.935C585.897 285.728 587.335 345.997 590.211 355.867C593.086 365.736 594.524 362.814 597.4 365.736C600.276 368.658 601.714 368.113 604.589 370.476C607.465 372.838 608.903 374.51 611.779 377.55C614.655 380.59 616.093 382.238 618.968 385.677C621.844 389.115 623.282 391.658 626.158 394.743C629.034 397.829 630.472 399.349 633.347 401.104C636.223 402.859 637.661 402.398 640.537 403.519C643.413 404.64 644.851 405.676 647.726 406.708C650.602 407.741 652.04 407.926 654.916 408.681C657.792 409.437 659.229 409.31 662.105 410.487C664.981 411.663 666.419 414.565 669.295 414.565C672.171 414.565 673.608 406.33 676.484 406.33C679.36 406.33 680.798 420.381 683.674 420.381C686.549 420.381 687.987 400.999 690.863 400.999C693.739 400.999 695.177 409.598 698.053 409.598C700.928 409.598 702.366 405.112 705.242 405.112C708.118 405.112 709.556 417.345 712.432 417.345C715.307 417.345 716.745 406.211 719.621 406.211C722.497 406.211 723.935 416.31 726.811 416.31C729.686 416.31 734 407.929 734 407.929" stroke="#0087FF" stroke-width="2"/>
<path d="M3.708 359.18C3.708 358.78 3.708 358.38 3.708 357.98C3.708 357.572 3.716 357.172 3.732 356.78C3.74 356.38 3.756 355.996 3.78 355.628L4.608 355.676V359C4.608 359.248 4.672 359.432 4.8 359.552C4.92 359.664 5.12 359.72 5.4 359.72H10.32C10.6 359.72 10.804 359.664 10.932 359.552C11.06 359.432 11.124 359.248 11.124 359V355.676L11.94 355.628C11.964 355.996 11.98 356.38 11.988 356.78C11.996 357.172 12 357.572 12 357.98C12.008 358.38 12.012 358.78 12.012 359.18C12.012 359.668 11.884 360.056 11.628 360.344C11.364 360.624 11.012 360.768 10.572 360.776H5.148C4.7 360.768 4.348 360.624 4.092 360.344C3.836 360.056 3.708 359.668 3.708 359.18ZM7.2 360.56V356.144H8.052V360.56H7.2ZM3.72 345.617H11.58C11.86 345.617 12 345.753 12 346.025V347.057C12 347.177 11.972 347.273 11.916 347.345C11.86 347.417 11.776 347.477 11.664 347.525L5.796 350.321C5.636 350.393 5.456 350.477 5.256 350.573C5.056 350.669 4.872 350.741 4.704 350.789V350.981C4.88 350.965 5.06 350.953 5.244 350.945C5.428 350.937 5.612 350.933 5.796 350.933H12V351.989H4.14C3.86 351.989 3.72 351.849 3.72 351.569L3.72 350.573C3.72 350.453 3.748 350.357 3.804 350.285C3.86 350.213 3.944 350.153 4.056 350.105L9.78 347.393C9.948 347.305 10.14 347.213 10.356 347.117C10.564 347.013 10.772 346.917 10.98 346.829V346.625C10.764 346.633 10.552 346.641 10.344 346.649C10.136 346.657 9.928 346.661 9.72 346.661H3.72V345.617ZM3.708 340.004C3.708 339.604 3.708 339.204 3.708 338.804C3.708 338.396 3.716 337.996 3.732 337.604C3.74 337.204 3.756 336.82 3.78 336.452L4.608 336.5V339.824C4.608 340.072 4.672 340.256 4.8 340.376C4.92 340.488 5.12 340.544 5.4 340.544H10.32C10.6 340.544 10.804 340.488 10.932 340.376C11.06 340.256 11.124 340.072 11.124 339.824V336.5L11.94 336.452C11.964 336.82 11.98 337.204 11.988 337.604C11.996 337.996 12 338.396 12 338.804C12.008 339.204 12.012 339.604 12.012 340.004C12.012 340.492 11.884 340.88 11.628 341.168C11.364 341.448 11.012 341.592 10.572 341.6H5.148C4.7 341.592 4.348 341.448 4.092 341.168C3.836 340.88 3.708 340.492 3.708 340.004ZM7.2 341.384L7.2 336.968H8.052V341.384H7.2ZM3.612 329.957C3.612 329.317 3.684 328.801 3.828 328.409C3.964 328.017 4.204 327.733 4.548 327.557C4.892 327.373 5.376 327.281 6 327.281C6.448 327.281 6.824 327.333 7.128 327.437C7.424 327.541 7.656 327.705 7.824 327.929C7.984 328.145 8.088 328.437 8.136 328.805H8.196C8.228 328.669 8.296 328.537 8.4 328.409C8.496 328.273 8.628 328.149 8.796 328.037C8.956 327.925 9.152 327.841 9.384 327.785L12 326.981V328.109L9.408 328.841C9.096 328.945 8.876 329.085 8.748 329.261C8.612 329.437 8.544 329.665 8.544 329.945C8.544 330.433 8.544 330.857 8.544 331.217C8.536 331.577 8.528 331.877 8.52 332.117C8.512 332.357 8.508 332.549 8.508 332.693L7.632 332.657V329.981C7.624 329.573 7.576 329.253 7.488 329.021C7.4 328.781 7.244 328.609 7.02 328.505C6.788 328.401 6.468 328.349 6.06 328.349C5.652 328.349 5.34 328.401 5.124 328.505C4.9 328.609 4.744 328.781 4.656 329.021C4.568 329.253 4.524 329.573 4.524 329.981C4.524 330.637 4.528 331.205 4.536 331.685C4.544 332.157 4.548 332.477 4.548 332.645L3.72 332.813C3.688 332.509 3.664 332.225 3.648 331.961C3.632 331.697 3.624 331.409 3.624 331.097C3.616 330.777 3.612 330.397 3.612 329.957ZM3.72 331.769H12V332.813H3.72V331.769ZM3.564 320.239C3.564 319.959 3.572 319.687 3.588 319.423C3.604 319.159 3.632 318.903 3.672 318.655C3.704 318.407 3.752 318.167 3.816 317.935L4.608 318.043C4.584 318.291 4.564 318.543 4.548 318.799C4.532 319.047 4.524 319.287 4.524 319.519C4.516 319.751 4.512 319.971 4.512 320.179C4.512 320.627 4.556 321.007 4.644 321.319C4.724 321.623 4.884 321.867 5.124 322.051C5.364 322.235 5.708 322.371 6.156 322.459C6.604 322.539 7.188 322.579 7.908 322.579C8.724 322.579 9.376 322.523 9.864 322.411C10.344 322.299 10.692 322.111 10.908 321.847C11.124 321.583 11.232 321.231 11.232 320.791C11.232 320.487 11.188 320.211 11.1 319.963C11.012 319.707 10.9 319.471 10.764 319.255C10.62 319.031 10.472 318.815 10.32 318.607L10.968 318.463C11.136 318.607 11.312 318.807 11.496 319.063C11.68 319.311 11.836 319.603 11.964 319.939C12.092 320.275 12.156 320.655 12.156 321.079C12.156 321.695 12.004 322.199 11.7 322.591C11.388 322.975 10.916 323.255 10.284 323.431C9.644 323.607 8.828 323.695 7.836 323.695C6.74 323.695 5.884 323.587 5.268 323.371C4.644 323.147 4.204 322.783 3.948 322.279C3.692 321.767 3.564 321.087 3.564 320.239ZM7.212 317.719H12L12 318.487L10.776 318.655L10.536 318.751H7.212V317.719ZM3.72 308.267L9.192 311.063V312.011L3.72 314.819V313.691L7.212 311.951C7.364 311.879 7.52 311.815 7.68 311.759C7.84 311.695 7.996 311.635 8.148 311.579V311.495C7.996 311.439 7.84 311.379 7.68 311.315C7.52 311.251 7.368 311.187 7.224 311.123L3.72 309.383V308.267ZM8.448 311.015H12V312.071H8.448V311.015ZM3.624 298.043C3.624 297.363 3.688 296.823 3.816 296.423C3.936 296.023 4.152 295.735 4.464 295.559C4.776 295.375 5.216 295.283 5.784 295.283C6.376 295.283 6.828 295.395 7.14 295.619C7.452 295.835 7.632 296.191 7.68 296.687H7.728C7.784 296.071 8 295.643 8.376 295.403C8.752 295.155 9.272 295.031 9.936 295.031C10.504 295.031 10.944 295.119 11.256 295.295C11.568 295.471 11.788 295.755 11.916 296.147C12.036 296.531 12.096 297.039 12.096 297.671C12.096 298.143 12.092 298.551 12.084 298.895C12.084 299.231 12.076 299.543 12.06 299.831C12.044 300.119 12.024 300.419 12 300.731L11.16 300.563C11.168 300.387 11.176 300.055 11.184 299.567C11.192 299.071 11.196 298.495 11.196 297.839C11.196 297.399 11.16 297.055 11.088 296.807C11.008 296.551 10.864 296.371 10.656 296.267C10.448 296.155 10.148 296.099 9.756 296.099C9.324 296.099 8.992 296.155 8.76 296.267C8.528 296.379 8.364 296.567 8.268 296.831C8.172 297.095 8.12 297.455 8.112 297.911V300.575H7.308V297.923C7.3 297.523 7.26 297.207 7.188 296.975C7.108 296.735 6.968 296.563 6.768 296.459C6.56 296.355 6.272 296.303 5.904 296.303C5.528 296.303 5.24 296.359 5.04 296.471C4.84 296.583 4.704 296.771 4.632 297.035C4.56 297.291 4.524 297.643 4.524 298.091C4.524 298.483 4.524 298.835 4.524 299.147C4.524 299.459 4.528 299.735 4.536 299.975C4.536 300.207 4.544 300.403 4.56 300.563L3.72 300.731C3.688 300.451 3.668 300.187 3.66 299.939C3.644 299.683 3.636 299.407 3.636 299.111C3.628 298.807 3.624 298.451 3.624 298.043ZM3.72 299.699H12V300.731H3.72L3.72 299.699ZM3.72 288.05C3.72 287.954 3.748 287.87 3.804 287.798C3.852 287.726 3.92 287.678 4.008 287.654L12 284.99V286.082L5.208 288.23C5.096 288.262 4.984 288.298 4.872 288.338C4.752 288.37 4.64 288.402 4.536 288.434V288.77C4.64 288.802 4.752 288.834 4.872 288.866C4.984 288.898 5.096 288.934 5.208 288.974L12 291.122V292.214L4.008 289.55C3.92 289.526 3.852 289.478 3.804 289.406C3.748 289.334 3.72 289.25 3.72 289.154V288.05ZM8.496 286.514H9.408L9.408 290.714H8.496L8.496 286.514ZM3.72 280.805H10.32C10.592 280.805 10.792 280.741 10.92 280.613C11.048 280.477 11.112 280.273 11.112 280.001V277.013L11.928 276.965C11.968 277.485 11.992 278.017 12 278.561C12.008 279.097 12.012 279.633 12.012 280.169C12.012 280.777 11.864 281.209 11.568 281.465C11.272 281.721 10.9 281.849 10.452 281.849H3.72V280.805ZM3.72 270.421C3.72 270.325 3.748 270.241 3.804 270.169C3.852 270.097 3.92 270.049 4.008 270.025L12 267.361V268.453L5.208 270.601C5.096 270.633 4.984 270.669 4.872 270.709C4.752 270.741 4.64 270.773 4.536 270.805V271.141C4.64 271.173 4.752 271.205 4.872 271.237C4.984 271.269 5.096 271.305 5.208 271.345L12 273.493V274.585L4.008 271.921C3.92 271.897 3.852 271.849 3.804 271.777C3.748 271.705 3.72 271.621 3.72 271.525L3.72 270.421ZM8.496 268.885H9.408V273.085H8.496V268.885ZM3.72 257.824H11.58C11.86 257.824 12 257.96 12 258.232V259.264C12 259.384 11.972 259.48 11.916 259.552C11.86 259.624 11.776 259.684 11.664 259.732L5.796 262.528C5.636 262.6 5.456 262.684 5.256 262.78C5.056 262.876 4.872 262.948 4.704 262.996V263.188C4.88 263.172 5.06 263.16 5.244 263.152C5.428 263.144 5.612 263.14 5.796 263.14H12V264.196H4.14C3.86 264.196 3.72 264.056 3.72 263.776V262.78C3.72 262.66 3.748 262.564 3.804 262.492C3.86 262.42 3.944 262.36 4.056 262.312L9.78 259.6C9.948 259.512 10.14 259.42 10.356 259.324C10.564 259.22 10.772 259.124 10.98 259.036V258.832C10.764 258.84 10.552 258.848 10.344 258.856C10.136 258.864 9.928 258.868 9.72 258.868H3.72V257.824ZM3.576 250.795C3.576 250.443 3.584 250.143 3.6 249.895C3.616 249.639 3.644 249.407 3.684 249.199C3.716 248.983 3.76 248.763 3.816 248.539L4.62 248.647C4.596 248.887 4.576 249.111 4.56 249.319C4.544 249.519 4.532 249.735 4.524 249.967C4.516 250.199 4.512 250.475 4.512 250.795C4.512 251.331 4.616 251.755 4.824 252.067C5.032 252.379 5.38 252.603 5.868 252.739C6.356 252.867 7.02 252.931 7.86 252.931C8.7 252.931 9.364 252.867 9.852 252.739C10.34 252.603 10.688 252.379 10.896 252.067C11.104 251.755 11.208 251.331 11.208 250.795C11.208 250.283 11.2 249.855 11.184 249.511C11.16 249.159 11.124 248.815 11.076 248.479L11.868 248.371C11.964 248.715 12.032 249.071 12.072 249.439C12.12 249.799 12.144 250.251 12.144 250.795C12.144 251.587 12.008 252.223 11.736 252.703C11.456 253.175 11.004 253.519 10.38 253.735C9.756 253.943 8.916 254.047 7.86 254.047C6.804 254.047 5.964 253.943 5.34 253.735C4.716 253.519 4.268 253.175 3.996 252.703C3.716 252.223 3.576 251.587 3.576 250.795ZM3.708 243.368C3.708 242.968 3.708 242.568 3.708 242.168C3.708 241.76 3.716 241.36 3.732 240.968C3.74 240.568 3.756 240.184 3.78 239.816L4.608 239.864V243.188C4.608 243.436 4.672 243.62 4.8 243.74C4.92 243.852 5.12 243.908 5.4 243.908H10.32C10.6 243.908 10.804 243.852 10.932 243.74C11.06 243.62 11.124 243.436 11.124 243.188V239.864L11.94 239.816C11.964 240.184 11.98 240.568 11.988 240.968C11.996 241.36 12 241.76 12 242.168C12.008 242.568 12.012 242.968 12.012 243.368C12.012 243.856 11.884 244.244 11.628 244.532C11.364 244.812 11.012 244.956 10.572 244.964H5.148C4.7 244.956 4.348 244.812 4.092 244.532C3.836 244.244 3.708 243.856 3.708 243.368ZM7.2 244.748V240.332H8.052V244.748H7.2ZM2.784 229.093H3.456V230.317C3.456 230.429 3.52 230.485 3.648 230.485H13.116C13.244 230.485 13.308 230.429 13.308 230.317V229.093H13.98V230.809C13.98 230.993 13.928 231.149 13.824 231.277C13.72 231.397 13.556 231.457 13.332 231.457H3.432C3.24 231.457 3.084 231.397 2.964 231.277C2.844 231.149 2.784 230.993 2.784 230.809V229.093ZM3.72 219.974L7.152 222.386C7.256 222.458 7.348 222.53 7.428 222.602C7.5 222.666 7.584 222.746 7.68 222.842H7.704C7.8 222.738 7.896 222.642 7.992 222.554C8.088 222.466 8.184 222.39 8.28 222.326L12 219.806V220.994L7.668 223.934L3.72 221.126L3.72 219.974ZM3.72 224.582H6.312C6.552 224.582 6.78 224.594 6.996 224.618C7.212 224.642 7.436 224.678 7.668 224.726C7.892 224.686 8.116 224.654 8.34 224.63C8.564 224.598 8.78 224.582 8.988 224.582H12V225.626H3.72V224.582ZM7.26 223.358H8.112V224.954H7.26L7.26 223.358ZM3.72 206.576L11.688 208.256C11.776 208.28 11.852 208.328 11.916 208.4C11.972 208.472 12 208.564 12 208.676V209.876C12 209.98 11.972 210.072 11.916 210.152C11.852 210.224 11.772 210.268 11.676 210.284L5.448 211.58C5.288 211.612 5.132 211.644 4.98 211.676C4.82 211.708 4.664 211.74 4.512 211.772V212.024C4.664 212.056 4.82 212.088 4.98 212.12C5.14 212.144 5.296 212.172 5.448 212.204L11.676 213.488C11.772 213.512 11.852 213.564 11.916 213.644C11.972 213.716 12 213.804 12 213.908V215.12C12 215.224 11.972 215.316 11.916 215.396C11.852 215.468 11.776 215.512 11.688 215.528L3.72 217.208V216.092L10.176 214.796C10.328 214.764 10.492 214.736 10.668 214.712C10.836 214.688 11.012 214.66 11.196 214.628V214.352C11.012 214.32 10.836 214.288 10.668 214.256C10.5 214.224 10.336 214.192 10.176 214.16L4.068 212.876C3.964 212.86 3.88 212.816 3.816 212.744C3.752 212.664 3.72 212.572 3.72 212.468V211.316C3.72 211.212 3.752 211.124 3.816 211.052C3.88 210.98 3.964 210.932 4.068 210.908L10.176 209.624C10.352 209.584 10.524 209.552 10.692 209.528C10.86 209.496 11.028 209.472 11.196 209.456V209.156C11.028 209.132 10.86 209.108 10.692 209.084C10.516 209.06 10.348 209.032 10.188 209L3.72 207.692V206.576ZM2.784 202.005C2.784 201.813 2.844 201.657 2.964 201.537C3.084 201.417 3.24 201.357 3.432 201.357H13.332C13.524 201.357 13.68 201.417 13.8 201.537C13.92 201.657 13.98 201.813 13.98 202.005L13.98 203.709H13.308V202.497C13.308 202.377 13.244 202.317 13.116 202.317H3.648C3.52 202.317 3.456 202.377 3.456 202.497V203.709H2.784V202.005Z" fill="#2F2F2F"/>
<path d="M341.711 44.768C342.415 44.768 343.018 44.8267 343.519 44.944C344.031 45.0613 344.42 45.2907 344.687 45.632C344.964 45.9733 345.103 46.48 345.103 47.152C345.103 47.6107 345.039 48.0427 344.911 48.448C344.794 48.8533 344.591 49.2747 344.303 49.712C344.015 50.1387 343.626 50.624 343.135 51.168L339.967 54.704C340.244 54.6827 340.538 54.6667 340.847 54.656C341.167 54.6453 341.471 54.64 341.759 54.64H345.503V56H338.255V55.12C338.255 55.0027 338.271 54.896 338.303 54.8C338.335 54.6933 338.388 54.5973 338.463 54.512L341.663 50.896C342.367 50.1387 342.884 49.4667 343.215 48.88C343.546 48.2933 343.7 47.7387 343.679 47.216C343.668 46.8533 343.578 46.592 343.407 46.432C343.247 46.2613 343.012 46.1493 342.703 46.096C342.404 46.0427 342.042 46.016 341.615 46.016C341.274 46.016 340.948 46.0213 340.639 46.032C340.33 46.0427 339.999 46.0693 339.647 46.112C339.306 46.144 338.906 46.1973 338.447 46.272L338.351 45.184C338.852 45.0667 339.29 44.9813 339.663 44.928C340.047 44.864 340.399 44.8213 340.719 44.8C341.05 44.7787 341.38 44.768 341.711 44.768ZM353.175 44.752C354.125 44.752 354.877 44.9493 355.431 45.344C355.986 45.7387 356.381 46.3573 356.615 47.2C356.861 48.0427 356.983 49.136 356.983 50.48C356.983 51.824 356.861 52.9173 356.615 53.76C356.381 54.6027 355.986 55.2213 355.431 55.616C354.877 56.0107 354.125 56.208 353.175 56.208C352.237 56.208 351.49 56.0107 350.935 55.616C350.381 55.2213 349.981 54.6027 349.735 53.76C349.501 52.9173 349.383 51.824 349.383 50.48C349.383 49.136 349.501 48.0427 349.735 47.2C349.981 46.3573 350.381 45.7387 350.935 45.344C351.49 44.9493 352.237 44.752 353.175 44.752ZM353.175 45.984C352.717 45.984 352.333 46.0693 352.023 46.24C351.714 46.4 351.463 46.656 351.271 47.008C351.09 47.36 350.957 47.824 350.871 48.4C350.797 48.9653 350.759 49.6587 350.759 50.48C350.759 51.2907 350.797 51.984 350.871 52.56C350.957 53.136 351.09 53.6 351.271 53.952C351.463 54.304 351.714 54.5653 352.023 54.736C352.333 54.896 352.717 54.976 353.175 54.976C353.634 54.976 354.018 54.896 354.327 54.736C354.647 54.5653 354.898 54.304 355.079 53.952C355.271 53.6 355.405 53.136 355.479 52.56C355.565 51.984 355.607 51.2907 355.607 50.48C355.607 49.6587 355.565 48.9653 355.479 48.4C355.405 47.824 355.271 47.36 355.079 47.008C354.898 46.656 354.647 46.4 354.327 46.24C354.018 46.0693 353.634 45.984 353.175 45.984ZM364.336 44.768C365.04 44.768 365.643 44.8267 366.144 44.944C366.656 45.0613 367.045 45.2907 367.312 45.632C367.589 45.9733 367.728 46.48 367.728 47.152C367.728 47.6107 367.664 48.0427 367.536 48.448C367.419 48.8533 367.216 49.2747 366.928 49.712C366.64 50.1387 366.251 50.624 365.76 51.168L362.592 54.704C362.869 54.6827 363.163 54.6667 363.472 54.656C363.792 54.6453 364.096 54.64 364.384 54.64H368.128V56H360.88V55.12C360.88 55.0027 360.896 54.896 360.928 54.8C360.96 54.6933 361.013 54.5973 361.088 54.512L364.288 50.896C364.992 50.1387 365.509 49.4667 365.84 48.88C366.171 48.2933 366.325 47.7387 366.304 47.216C366.293 46.8533 366.203 46.592 366.032 46.432C365.872 46.2613 365.637 46.1493 365.328 46.096C365.029 46.0427 364.667 46.016 364.24 46.016C363.899 46.016 363.573 46.0213 363.264 46.032C362.955 46.0427 362.624 46.0693 362.272 46.112C361.931 46.144 361.531 46.1973 361.072 46.272L360.976 45.184C361.477 45.0667 361.915 44.9813 362.288 44.928C362.672 44.864 363.024 44.8213 363.344 44.8C363.675 44.7787 364.005 44.768 364.336 44.768ZM375.32 44.768C376.024 44.768 376.627 44.8267 377.128 44.944C377.64 45.0613 378.03 45.2907 378.296 45.632C378.574 45.9733 378.712 46.48 378.712 47.152C378.712 47.6107 378.648 48.0427 378.52 48.448C378.403 48.8533 378.2 49.2747 377.912 49.712C377.624 50.1387 377.235 50.624 376.744 51.168L373.576 54.704C373.854 54.6827 374.147 54.6667 374.456 54.656C374.776 54.6453 375.08 54.64 375.368 54.64H379.112V56H371.864V55.12C371.864 55.0027 371.88 54.896 371.912 54.8C371.944 54.6933 371.998 54.5973 372.072 54.512L375.272 50.896C375.976 50.1387 376.494 49.4667 376.824 48.88C377.155 48.2933 377.31 47.7387 377.288 47.216C377.278 46.8533 377.187 46.592 377.016 46.432C376.856 46.2613 376.622 46.1493 376.312 46.096C376.014 46.0427 375.651 46.016 375.224 46.016C374.883 46.016 374.558 46.0213 374.248 46.032C373.939 46.0427 373.608 46.0693 373.256 46.112C372.915 46.144 372.515 46.1973 372.056 46.272L371.96 45.184C372.462 45.0667 372.899 44.9813 373.272 44.928C373.656 44.864 374.008 44.8213 374.328 44.8C374.659 44.7787 374.99 44.768 375.32 44.768ZM388.001 51.44V52.48H383.121V51.44H388.001ZM395.972 44.752C396.922 44.752 397.674 44.9493 398.228 45.344C398.783 45.7387 399.178 46.3573 399.412 47.2C399.658 48.0427 399.78 49.136 399.78 50.48C399.78 51.824 399.658 52.9173 399.412 53.76C399.178 54.6027 398.783 55.2213 398.228 55.616C397.674 56.0107 396.922 56.208 395.972 56.208C395.034 56.208 394.287 56.0107 393.732 55.616C393.178 55.2213 392.778 54.6027 392.532 53.76C392.298 52.9173 392.18 51.824 392.18 50.48C392.18 49.136 392.298 48.0427 392.532 47.2C392.778 46.3573 393.178 45.7387 393.732 45.344C394.287 44.9493 395.034 44.752 395.972 44.752ZM395.972 45.984C395.514 45.984 395.13 46.0693 394.82 46.24C394.511 46.4 394.26 46.656 394.068 47.008C393.887 47.36 393.754 47.824 393.668 48.4C393.594 48.9653 393.556 49.6587 393.556 50.48C393.556 51.2907 393.594 51.984 393.668 52.56C393.754 53.136 393.887 53.6 394.068 53.952C394.26 54.304 394.511 54.5653 394.82 54.736C395.13 54.896 395.514 54.976 395.972 54.976C396.431 54.976 396.815 54.896 397.124 54.736C397.444 54.5653 397.695 54.304 397.876 53.952C398.068 53.6 398.202 53.136 398.276 52.56C398.362 51.984 398.404 51.2907 398.404 50.48C398.404 49.6587 398.362 48.9653 398.276 48.4C398.202 47.824 398.068 47.36 397.876 47.008C397.695 46.656 397.444 46.4 397.124 46.24C396.815 46.0693 396.431 45.984 395.972 45.984ZM408.141 44.768C408.365 44.768 408.68 44.7787 409.085 44.8C409.49 44.8213 409.917 44.8907 410.365 45.008L410.237 46.032C410.002 46.0107 409.784 45.9947 409.581 45.984C409.389 45.9733 409.181 45.968 408.957 45.968C408.733 45.968 408.461 45.968 408.141 45.968C407.597 45.968 407.138 46.0267 406.765 46.144C406.392 46.2613 406.093 46.4853 405.869 46.816C405.645 47.1467 405.485 47.632 405.389 48.272C405.293 48.912 405.245 49.7547 405.245 50.8C405.245 51.6 405.266 52.272 405.309 52.816C405.352 53.36 405.448 53.792 405.597 54.112C405.757 54.4213 405.992 54.6453 406.301 54.784C406.621 54.9227 407.053 54.992 407.597 54.992C408.226 54.992 408.69 54.896 408.989 54.704C409.298 54.5013 409.496 54.208 409.581 53.824C409.677 53.44 409.725 52.976 409.725 52.432C409.725 51.824 409.666 51.3387 409.549 50.976C409.442 50.6133 409.24 50.352 408.941 50.192C408.642 50.0213 408.221 49.936 407.677 49.936C407.325 49.936 407 49.9787 406.701 50.064C406.402 50.1493 406.098 50.304 405.789 50.528C405.48 50.7413 405.122 51.0453 404.717 51.44L404.653 50.736C405.005 50.2347 405.341 49.8453 405.661 49.568C405.981 49.28 406.328 49.0827 406.701 48.976C407.085 48.8587 407.533 48.8 408.045 48.8C408.824 48.8 409.432 48.9173 409.869 49.152C410.306 49.3867 410.616 49.7707 410.797 50.304C410.978 50.8267 411.069 51.536 411.069 52.432C411.069 52.9973 411.026 53.5147 410.941 53.984C410.856 54.4427 410.69 54.8373 410.445 55.168C410.2 55.4987 409.848 55.7547 409.389 55.936C408.93 56.1067 408.328 56.192 407.581 56.192C406.802 56.192 406.168 56.1067 405.677 55.936C405.186 55.7547 404.808 55.456 404.541 55.04C404.285 54.624 404.104 54.0693 403.997 53.376C403.901 52.672 403.853 51.7973 403.853 50.752C403.853 49.4507 403.938 48.4053 404.109 47.616C404.29 46.8267 404.557 46.2293 404.909 45.824C405.261 45.408 405.704 45.1307 406.237 44.992C406.781 44.8427 407.416 44.768 408.141 44.768ZM419.985 51.44V52.48H415.105V51.44H419.985ZM427.957 44.752C428.906 44.752 429.658 44.9493 430.213 45.344C430.767 45.7387 431.162 46.3573 431.397 47.2C431.642 48.0427 431.765 49.136 431.765 50.48C431.765 51.824 431.642 52.9173 431.397 53.76C431.162 54.6027 430.767 55.2213 430.213 55.616C429.658 56.0107 428.906 56.208 427.957 56.208C427.018 56.208 426.271 56.0107 425.717 55.616C425.162 55.2213 424.762 54.6027 424.517 53.76C424.282 52.9173 424.165 51.824 424.165 50.48C424.165 49.136 424.282 48.0427 424.517 47.2C424.762 46.3573 425.162 45.7387 425.717 45.344C426.271 44.9493 427.018 44.752 427.957 44.752ZM427.957 45.984C427.498 45.984 427.114 46.0693 426.805 46.24C426.495 46.4 426.245 46.656 426.053 47.008C425.871 47.36 425.738 47.824 425.653 48.4C425.578 48.9653 425.541 49.6587 425.541 50.48C425.541 51.2907 425.578 51.984 425.653 52.56C425.738 53.136 425.871 53.6 426.053 53.952C426.245 54.304 426.495 54.5653 426.805 54.736C427.114 54.896 427.498 54.976 427.957 54.976C428.415 54.976 428.799 54.896 429.109 54.736C429.429 54.5653 429.679 54.304 429.861 53.952C430.053 53.6 430.186 53.136 430.261 52.56C430.346 51.984 430.389 51.2907 430.389 50.48C430.389 49.6587 430.346 48.9653 430.261 48.4C430.186 47.824 430.053 47.36 429.861 47.008C429.679 46.656 429.429 46.4 429.109 46.24C428.799 46.0693 428.415 45.984 427.957 45.984ZM440.061 44.96L436.973 51.488C436.877 51.7013 436.872 51.8667 436.957 51.984C437.053 52.0907 437.192 52.144 437.373 52.144H443.917V53.152L442.445 53.296H436.589C436.291 53.296 436.04 53.2107 435.837 53.04C435.635 52.8693 435.501 52.6507 435.437 52.384C435.384 52.1173 435.416 51.8507 435.533 51.584L438.669 44.96H440.061ZM442.493 47.072V56H441.165V48.896L441.405 47.072H442.493Z" fill="#2F2F2F"/>
<path d="M55.3322 531.72V540H54.2762V531.72H55.3322ZM58.0082 531.72V532.656H51.6122V531.72H58.0082ZM62.3969 531.72V540H61.3409V531.72H62.3969ZM74.3055 531.72C74.5935 531.72 74.7375 531.868 74.7375 532.164L75.0855 540H74.0295L73.7295 532.596H73.4775L71.6295 538.704C71.5655 538.944 71.4135 539.064 71.1735 539.064H70.2255C69.9775 539.064 69.8175 538.944 69.7455 538.704L67.8975 532.596H67.6575L67.3695 540H66.3135L66.6375 532.164C66.6535 531.868 66.8015 531.72 67.0815 531.72H68.2815C68.5055 531.72 68.6535 531.84 68.7255 532.08L70.2735 537.132C70.3375 537.316 70.3895 537.5 70.4295 537.684C70.4775 537.868 70.5295 538.056 70.5855 538.248H70.8015C70.8575 538.056 70.9095 537.868 70.9575 537.684C71.0055 537.5 71.0575 537.308 71.1135 537.108L72.6615 532.08C72.7255 531.84 72.8775 531.72 73.1175 531.72H74.3055ZM80.5289 531.708C80.9289 531.708 81.3289 531.708 81.7289 531.708C82.1369 531.708 82.5369 531.716 82.9289 531.732C83.3289 531.74 83.7129 531.756 84.0809 531.78L84.0329 532.608H80.7089C80.4609 532.608 80.2769 532.672 80.1569 532.8C80.0449 532.92 79.9889 533.12 79.9889 533.4V538.32C79.9889 538.6 80.0449 538.804 80.1569 538.932C80.2769 539.06 80.4609 539.124 80.7089 539.124H84.0329L84.0809 539.94C83.7129 539.964 83.3289 539.98 82.9289 539.988C82.5369 539.996 82.1369 540 81.7289 540C81.3289 540.008 80.9289 540.012 80.5289 540.012C80.0409 540.012 79.6529 539.884 79.3649 539.628C79.0849 539.364 78.9409 539.012 78.9329 538.572V533.148C78.9409 532.7 79.0849 532.348 79.3649 532.092C79.6529 531.836 80.0409 531.708 80.5289 531.708ZM79.1489 535.2H83.5649V536.052H79.1489V535.2Z" fill="#2F2F2F"/>
</svg>
