<svg width="735" height="542" viewBox="0 0 735 542" fill="none" xmlns="http://www.w3.org/2000/svg">
<path d="M51 70L50.5 493" stroke="#FAFBFC"/>
<path d="M237 70V493" stroke="#FAFBFC"/>
<path d="M424 70V493" stroke="#FAFBFC"/>
<path d="M611 70V493" stroke="#FAFBFC"/>
<path d="M51 493.5H734" stroke="#FAFBFC"/>
<path d="M51 423.5H734" stroke="#FAFBFC"/>
<path d="M51 352.5H734" stroke="#FAFBFC"/>
<path d="M51 282.5H734" stroke="#FAFBFC"/>
<path d="M51 211.5H734" stroke="#FAFBFC"/>
<path d="M51 141.5H734" stroke="#FAFBFC"/>
<path d="M51 70H734" stroke="#FAFBFC"/>
<path d="M50 493L734 493" stroke="#FAFBFC"/>
<path d="M51 70L50 493" stroke="#FAFBFC"/>
<path d="M58.1287 515.126C56.9994 515.126 56.1407 514.692 55.5527 513.824C54.9647 512.956 54.6707 511.701 54.6707 510.058C54.6707 508.406 54.9647 507.151 55.5527 506.292C56.1407 505.433 56.9994 505.004 58.1287 505.004C59.2674 505.004 60.126 505.433 60.7047 506.292C61.2927 507.141 61.5867 508.392 61.5867 510.044C61.5867 511.696 61.288 512.956 60.6907 513.824C60.1027 514.692 59.2487 515.126 58.1287 515.126ZM58.1287 514.132C58.9127 514.132 59.4914 513.801 59.8647 513.138C60.2474 512.475 60.4387 511.444 60.4387 510.044C60.4387 508.644 60.252 507.622 59.8787 506.978C59.5054 506.325 58.922 505.998 58.1287 505.998C57.3447 505.998 56.7614 506.325 56.3787 506.978C56.0054 507.631 55.8187 508.653 55.8187 510.044C55.8187 511.444 56.0054 512.475 56.3787 513.138C56.7614 513.801 57.3447 514.132 58.1287 514.132ZM66.5232 515.126C65.3939 515.126 64.5352 514.692 63.9472 513.824C63.3592 512.956 63.0652 511.701 63.0652 510.058C63.0652 508.406 63.3592 507.151 63.9472 506.292C64.5352 505.433 65.3939 505.004 66.5232 505.004C67.6619 505.004 68.5206 505.433 69.0992 506.292C69.6872 507.141 69.9812 508.392 69.9812 510.044C69.9812 511.696 69.6826 512.956 69.0852 513.824C68.4972 514.692 67.6432 515.126 66.5232 515.126ZM66.5232 514.132C67.3072 514.132 67.8859 513.801 68.2592 513.138C68.6419 512.475 68.8332 511.444 68.8332 510.044C68.8332 508.644 68.6466 507.622 68.2732 506.978C67.8999 506.325 67.3166 505.998 66.5232 505.998C65.7392 505.998 65.1559 506.325 64.7732 506.978C64.3999 507.631 64.2132 508.653 64.2132 510.044C64.2132 511.444 64.3999 512.475 64.7732 513.138C65.1559 513.801 65.7392 514.132 66.5232 514.132ZM71.5998 509.624V508.196H73.0278V509.624H71.5998ZM71.5998 515V513.572H73.0278V515H71.5998ZM78.1033 515.126C76.974 515.126 76.1153 514.692 75.5273 513.824C74.9393 512.956 74.6453 511.701 74.6453 510.058C74.6453 508.406 74.9393 507.151 75.5273 506.292C76.1153 505.433 76.974 505.004 78.1033 505.004C79.242 505.004 80.1007 505.433 80.6793 506.292C81.2673 507.141 81.5613 508.392 81.5613 510.044C81.5613 511.696 81.2627 512.956 80.6653 513.824C80.0773 514.692 79.2233 515.126 78.1033 515.126ZM78.1033 514.132C78.8873 514.132 79.466 513.801 79.8393 513.138C80.222 512.475 80.4133 511.444 80.4133 510.044C80.4133 508.644 80.2267 507.622 79.8533 506.978C79.48 506.325 78.8967 505.998 78.1033 505.998C77.3193 505.998 76.736 506.325 76.3533 506.978C75.98 507.631 75.7933 508.653 75.7933 510.044C75.7933 511.444 75.98 512.475 76.3533 513.138C76.736 513.801 77.3193 514.132 78.1033 514.132ZM86.4979 515.126C85.3685 515.126 84.5099 514.692 83.9219 513.824C83.3339 512.956 83.0399 511.701 83.0399 510.058C83.0399 508.406 83.3339 507.151 83.9219 506.292C84.5099 505.433 85.3685 505.004 86.4979 505.004C87.6365 505.004 88.4952 505.433 89.0739 506.292C89.6619 507.141 89.9559 508.392 89.9559 510.044C89.9559 511.696 89.6572 512.956 89.0599 513.824C88.4719 514.692 87.6179 515.126 86.4979 515.126ZM86.4979 514.132C87.2819 514.132 87.8605 513.801 88.2339 513.138C88.6165 512.475 88.8079 511.444 88.8079 510.044C88.8079 508.644 88.6212 507.622 88.2479 506.978C87.8745 506.325 87.2912 505.998 86.4979 505.998C85.7139 505.998 85.1305 506.325 84.7479 506.978C84.3745 507.631 84.1879 508.653 84.1879 510.044C84.1879 511.444 84.3745 512.475 84.7479 513.138C85.1305 513.801 85.7139 514.132 86.4979 514.132ZM91.5744 509.624V508.196H93.0024V509.624H91.5744ZM91.5744 515V513.572H93.0024V515H91.5744ZM98.0779 515.126C96.9486 515.126 96.0899 514.692 95.5019 513.824C94.9139 512.956 94.6199 511.701 94.6199 510.058C94.6199 508.406 94.9139 507.151 95.5019 506.292C96.0899 505.433 96.9486 505.004 98.0779 505.004C99.2166 505.004 100.075 505.433 100.654 506.292C101.242 507.141 101.536 508.392 101.536 510.044C101.536 511.696 101.237 512.956 100.64 513.824C100.052 514.692 99.1979 515.126 98.0779 515.126ZM98.0779 514.132C98.8619 514.132 99.4406 513.801 99.8139 513.138C100.197 512.475 100.388 511.444 100.388 510.044C100.388 508.644 100.201 507.622 99.8279 506.978C99.4546 506.325 98.8713 505.998 98.0779 505.998C97.2939 505.998 96.7106 506.325 96.3279 506.978C95.9546 507.631 95.7679 508.653 95.7679 510.044C95.7679 511.444 95.9546 512.475 96.3279 513.138C96.7106 513.801 97.2939 514.132 98.0779 514.132ZM106.472 515.126C105.343 515.126 104.484 514.692 103.896 513.824C103.308 512.956 103.014 511.701 103.014 510.058C103.014 508.406 103.308 507.151 103.896 506.292C104.484 505.433 105.343 505.004 106.472 505.004C107.611 505.004 108.47 505.433 109.048 506.292C109.636 507.141 109.93 508.392 109.93 510.044C109.93 511.696 109.632 512.956 109.034 513.824C108.446 514.692 107.592 515.126 106.472 515.126ZM106.472 514.132C107.256 514.132 107.835 513.801 108.208 513.138C108.591 512.475 108.782 511.444 108.782 510.044C108.782 508.644 108.596 507.622 108.222 506.978C107.849 506.325 107.266 505.998 106.472 505.998C105.688 505.998 105.105 506.325 104.722 506.978C104.349 507.631 104.162 508.653 104.162 510.044C104.162 511.444 104.349 512.475 104.722 513.138C105.105 513.801 105.688 514.132 106.472 514.132Z" fill="#2F2F2F"/>
<path d="M237.129 515.126C235.999 515.126 235.141 514.692 234.553 513.824C233.965 512.956 233.671 511.701 233.671 510.058C233.671 508.406 233.965 507.151 234.553 506.292C235.141 505.433 235.999 505.004 237.129 505.004C238.267 505.004 239.126 505.433 239.705 506.292C240.293 507.141 240.587 508.392 240.587 510.044C240.587 511.696 240.288 512.956 239.691 513.824C239.103 514.692 238.249 515.126 237.129 515.126ZM237.129 514.132C237.913 514.132 238.491 513.801 238.865 513.138C239.247 512.475 239.439 511.444 239.439 510.044C239.439 508.644 239.252 507.622 238.879 506.978C238.505 506.325 237.922 505.998 237.129 505.998C236.345 505.998 235.761 506.325 235.379 506.978C235.005 507.631 234.819 508.653 234.819 510.044C234.819 511.444 235.005 512.475 235.379 513.138C235.761 513.801 236.345 514.132 237.129 514.132ZM245.859 515.126C244.693 515.126 243.792 514.706 243.157 513.866C242.532 513.017 242.219 511.831 242.219 510.31C242.219 508.602 242.569 507.291 243.269 506.376C243.969 505.461 244.949 505.004 246.209 505.004C246.713 505.004 247.217 505.111 247.721 505.326C248.235 505.541 248.655 505.83 248.981 506.194L248.561 507.09C248.216 506.735 247.838 506.469 247.427 506.292C247.026 506.115 246.611 506.026 246.181 506.026C245.267 506.026 244.562 506.367 244.067 507.048C243.582 507.729 243.339 508.742 243.339 510.086V510.772C243.517 510.156 243.843 509.675 244.319 509.33C244.805 508.985 245.374 508.812 246.027 508.812C246.606 508.812 247.119 508.947 247.567 509.218C248.015 509.479 248.365 509.843 248.617 510.31C248.869 510.777 248.995 511.313 248.995 511.92C248.995 512.545 248.86 513.101 248.589 513.586C248.328 514.062 247.959 514.44 247.483 514.72C247.017 514.991 246.475 515.126 245.859 515.126ZM245.789 514.146C246.415 514.146 246.919 513.945 247.301 513.544C247.693 513.143 247.889 512.615 247.889 511.962C247.889 511.318 247.693 510.795 247.301 510.394C246.919 509.983 246.415 509.778 245.789 509.778C245.164 509.778 244.655 509.983 244.263 510.394C243.881 510.795 243.689 511.318 243.689 511.962C243.689 512.615 243.881 513.143 244.263 513.544C244.655 513.945 245.164 514.146 245.789 514.146ZM250.6 509.624V508.196H252.028V509.624H250.6ZM250.6 515V513.572H252.028V515H250.6ZM256.991 515.126C256.338 515.126 255.717 515.028 255.129 514.832C254.541 514.627 254.047 514.333 253.645 513.95L254.065 513.04C254.523 513.413 254.985 513.684 255.451 513.852C255.918 514.02 256.422 514.104 256.963 514.104C257.673 514.104 258.214 513.95 258.587 513.642C258.97 513.325 259.161 512.863 259.161 512.256C259.161 511.677 258.97 511.239 258.587 510.94C258.205 510.641 257.649 510.492 256.921 510.492H255.465V509.498H256.823C257.458 509.498 257.957 509.335 258.321 509.008C258.695 508.672 258.881 508.215 258.881 507.636C258.881 507.123 258.709 506.726 258.363 506.446C258.027 506.166 257.547 506.026 256.921 506.026C255.895 506.026 254.999 506.399 254.233 507.146L253.813 506.25C254.177 505.858 254.639 505.555 255.199 505.34C255.769 505.116 256.366 505.004 256.991 505.004C257.943 505.004 258.685 505.228 259.217 505.676C259.759 506.124 260.029 506.745 260.029 507.538C260.029 508.089 259.889 508.574 259.609 508.994C259.329 509.405 258.942 509.703 258.447 509.89C259.035 510.049 259.493 510.343 259.819 510.772C260.146 511.192 260.309 511.715 260.309 512.34C260.309 513.189 260.011 513.866 259.413 514.37C258.825 514.874 258.018 515.126 256.991 515.126ZM265.498 515.126C264.369 515.126 263.51 514.692 262.922 513.824C262.334 512.956 262.04 511.701 262.04 510.058C262.04 508.406 262.334 507.151 262.922 506.292C263.51 505.433 264.369 505.004 265.498 505.004C266.637 505.004 267.495 505.433 268.074 506.292C268.662 507.141 268.956 508.392 268.956 510.044C268.956 511.696 268.657 512.956 268.06 513.824C267.472 514.692 266.618 515.126 265.498 515.126ZM265.498 514.132C266.282 514.132 266.861 513.801 267.234 513.138C267.617 512.475 267.808 511.444 267.808 510.044C267.808 508.644 267.621 507.622 267.248 506.978C266.875 506.325 266.291 505.998 265.498 505.998C264.714 505.998 264.131 506.325 263.748 506.978C263.375 507.631 263.188 508.653 263.188 510.044C263.188 511.444 263.375 512.475 263.748 513.138C264.131 513.801 264.714 514.132 265.498 514.132ZM270.574 509.624V508.196H272.002V509.624H270.574ZM270.574 515V513.572H272.002V515H270.574ZM277.078 515.126C275.949 515.126 275.09 514.692 274.502 513.824C273.914 512.956 273.62 511.701 273.62 510.058C273.62 508.406 273.914 507.151 274.502 506.292C275.09 505.433 275.949 505.004 277.078 505.004C278.217 505.004 279.075 505.433 279.654 506.292C280.242 507.141 280.536 508.392 280.536 510.044C280.536 511.696 280.237 512.956 279.64 513.824C279.052 514.692 278.198 515.126 277.078 515.126ZM277.078 514.132C277.862 514.132 278.441 513.801 278.814 513.138C279.197 512.475 279.388 511.444 279.388 510.044C279.388 508.644 279.201 507.622 278.828 506.978C278.455 506.325 277.871 505.998 277.078 505.998C276.294 505.998 275.711 506.325 275.328 506.978C274.955 507.631 274.768 508.653 274.768 510.044C274.768 511.444 274.955 512.475 275.328 513.138C275.711 513.801 276.294 514.132 277.078 514.132ZM285.472 515.126C284.343 515.126 283.484 514.692 282.896 513.824C282.308 512.956 282.014 511.701 282.014 510.058C282.014 508.406 282.308 507.151 282.896 506.292C283.484 505.433 284.343 505.004 285.472 505.004C286.611 505.004 287.47 505.433 288.048 506.292C288.636 507.141 288.93 508.392 288.93 510.044C288.93 511.696 288.632 512.956 288.034 513.824C287.446 514.692 286.592 515.126 285.472 515.126ZM285.472 514.132C286.256 514.132 286.835 513.801 287.208 513.138C287.591 512.475 287.782 511.444 287.782 510.044C287.782 508.644 287.596 507.622 287.222 506.978C286.849 506.325 286.266 505.998 285.472 505.998C284.688 505.998 284.105 506.325 283.722 506.978C283.349 507.631 283.162 508.653 283.162 510.044C283.162 511.444 283.349 512.475 283.722 513.138C284.105 513.801 284.688 514.132 285.472 514.132Z" fill="#2F2F2F"/>
<path d="M409.867 515V514.02H412.121V506.516L410.343 507.636L409.853 506.782L412.443 505.13H413.269V514.02H415.383V515H409.867ZM420.613 515.126C419.96 515.126 419.339 515.028 418.751 514.832C418.163 514.627 417.669 514.333 417.267 513.95L417.687 513.04C418.145 513.413 418.607 513.684 419.073 513.852C419.54 514.02 420.044 514.104 420.585 514.104C421.295 514.104 421.836 513.95 422.209 513.642C422.592 513.325 422.783 512.863 422.783 512.256C422.783 511.677 422.592 511.239 422.209 510.94C421.827 510.641 421.271 510.492 420.543 510.492H419.087V509.498H420.445C421.08 509.498 421.579 509.335 421.943 509.008C422.317 508.672 422.503 508.215 422.503 507.636C422.503 507.123 422.331 506.726 421.985 506.446C421.649 506.166 421.169 506.026 420.543 506.026C419.517 506.026 418.621 506.399 417.855 507.146L417.435 506.25C417.799 505.858 418.261 505.555 418.821 505.34C419.391 505.116 419.988 505.004 420.613 505.004C421.565 505.004 422.307 505.228 422.839 505.676C423.381 506.124 423.651 506.745 423.651 507.538C423.651 508.089 423.511 508.574 423.231 508.994C422.951 509.405 422.564 509.703 422.069 509.89C422.657 510.049 423.115 510.343 423.441 510.772C423.768 511.192 423.931 511.715 423.931 512.34C423.931 513.189 423.633 513.866 423.035 514.37C422.447 514.874 421.64 515.126 420.613 515.126ZM425.802 509.624V508.196H427.23V509.624H425.802ZM425.802 515V513.572H427.23V515H425.802ZM432.305 515.126C431.176 515.126 430.317 514.692 429.729 513.824C429.141 512.956 428.847 511.701 428.847 510.058C428.847 508.406 429.141 507.151 429.729 506.292C430.317 505.433 431.176 505.004 432.305 505.004C433.444 505.004 434.303 505.433 434.881 506.292C435.469 507.141 435.763 508.392 435.763 510.044C435.763 511.696 435.465 512.956 434.867 513.824C434.279 514.692 433.425 515.126 432.305 515.126ZM432.305 514.132C433.089 514.132 433.668 513.801 434.041 513.138C434.424 512.475 434.615 511.444 434.615 510.044C434.615 508.644 434.429 507.622 434.055 506.978C433.682 506.325 433.099 505.998 432.305 505.998C431.521 505.998 430.938 506.325 430.555 506.978C430.182 507.631 429.995 508.653 429.995 510.044C429.995 511.444 430.182 512.475 430.555 513.138C430.938 513.801 431.521 514.132 432.305 514.132ZM440.7 515.126C439.571 515.126 438.712 514.692 438.124 513.824C437.536 512.956 437.242 511.701 437.242 510.058C437.242 508.406 437.536 507.151 438.124 506.292C438.712 505.433 439.571 505.004 440.7 505.004C441.839 505.004 442.697 505.433 443.276 506.292C443.864 507.141 444.158 508.392 444.158 510.044C444.158 511.696 443.859 512.956 443.262 513.824C442.674 514.692 441.82 515.126 440.7 515.126ZM440.7 514.132C441.484 514.132 442.063 513.801 442.436 513.138C442.819 512.475 443.01 511.444 443.01 510.044C443.01 508.644 442.823 507.622 442.45 506.978C442.077 506.325 441.493 505.998 440.7 505.998C439.916 505.998 439.333 506.325 438.95 506.978C438.577 507.631 438.39 508.653 438.39 510.044C438.39 511.444 438.577 512.475 438.95 513.138C439.333 513.801 439.916 514.132 440.7 514.132ZM445.777 509.624V508.196H447.205V509.624H445.777ZM445.777 515V513.572H447.205V515H445.777ZM452.28 515.126C451.151 515.126 450.292 514.692 449.704 513.824C449.116 512.956 448.822 511.701 448.822 510.058C448.822 508.406 449.116 507.151 449.704 506.292C450.292 505.433 451.151 505.004 452.28 505.004C453.419 505.004 454.277 505.433 454.856 506.292C455.444 507.141 455.738 508.392 455.738 510.044C455.738 511.696 455.439 512.956 454.842 513.824C454.254 514.692 453.4 515.126 452.28 515.126ZM452.28 514.132C453.064 514.132 453.643 513.801 454.016 513.138C454.399 512.475 454.59 511.444 454.59 510.044C454.59 508.644 454.403 507.622 454.03 506.978C453.657 506.325 453.073 505.998 452.28 505.998C451.496 505.998 450.913 506.325 450.53 506.978C450.157 507.631 449.97 508.653 449.97 510.044C449.97 511.444 450.157 512.475 450.53 513.138C450.913 513.801 451.496 514.132 452.28 514.132ZM460.675 515.126C459.545 515.126 458.687 514.692 458.099 513.824C457.511 512.956 457.217 511.701 457.217 510.058C457.217 508.406 457.511 507.151 458.099 506.292C458.687 505.433 459.545 505.004 460.675 505.004C461.813 505.004 462.672 505.433 463.251 506.292C463.839 507.141 464.133 508.392 464.133 510.044C464.133 511.696 463.834 512.956 463.237 513.824C462.649 514.692 461.795 515.126 460.675 515.126ZM460.675 514.132C461.459 514.132 462.037 513.801 462.411 513.138C462.793 512.475 462.985 511.444 462.985 510.044C462.985 508.644 462.798 507.622 462.425 506.978C462.051 506.325 461.468 505.998 460.675 505.998C459.891 505.998 459.307 506.325 458.925 506.978C458.551 507.631 458.365 508.653 458.365 510.044C458.365 511.444 458.551 512.475 458.925 513.138C459.307 513.801 459.891 514.132 460.675 514.132Z" fill="#2F2F2F"/>
<path d="M584.867 515V514.02H587.121V506.516L585.343 507.636L584.853 506.782L587.443 505.13H588.269V514.02H590.383V515H584.867ZM595.053 515.126C594.549 515.126 594.041 515.019 593.527 514.804C593.014 514.589 592.594 514.3 592.267 513.936L592.701 513.026C593.037 513.39 593.406 513.661 593.807 513.838C594.218 514.015 594.638 514.104 595.067 514.104C595.982 514.104 596.687 513.763 597.181 513.082C597.676 512.401 597.923 511.388 597.923 510.044V509.344C597.737 509.96 597.401 510.445 596.915 510.8C596.439 511.145 595.875 511.318 595.221 511.318C594.643 511.318 594.129 511.187 593.681 510.926C593.233 510.655 592.883 510.287 592.631 509.82C592.379 509.353 592.253 508.817 592.253 508.21C592.253 507.585 592.384 507.034 592.645 506.558C592.916 506.073 593.285 505.695 593.751 505.424C594.227 505.144 594.773 505.004 595.389 505.004C596.556 505.004 597.452 505.429 598.077 506.278C598.712 507.118 599.029 508.299 599.029 509.82C599.029 511.519 598.679 512.83 597.979 513.754C597.279 514.669 596.304 515.126 595.053 515.126ZM595.459 510.352C596.085 510.352 596.593 510.151 596.985 509.75C597.377 509.339 597.573 508.812 597.573 508.168C597.573 507.515 597.377 506.987 596.985 506.586C596.593 506.175 596.085 505.97 595.459 505.97C594.843 505.97 594.339 506.175 593.947 506.586C593.555 506.987 593.359 507.515 593.359 508.168C593.359 508.812 593.555 509.339 593.947 509.75C594.339 510.151 594.843 510.352 595.459 510.352ZM600.802 509.624V508.196H602.23V509.624H600.802ZM600.802 515V513.572H602.23V515H600.802ZM607.193 515.126C606.54 515.126 605.919 515.028 605.331 514.832C604.743 514.627 604.249 514.333 603.847 513.95L604.267 513.04C604.725 513.413 605.187 513.684 605.653 513.852C606.12 514.02 606.624 514.104 607.165 514.104C607.875 514.104 608.416 513.95 608.789 513.642C609.172 513.325 609.363 512.863 609.363 512.256C609.363 511.677 609.172 511.239 608.789 510.94C608.407 510.641 607.851 510.492 607.123 510.492H605.667V509.498H607.025C607.66 509.498 608.159 509.335 608.523 509.008C608.897 508.672 609.083 508.215 609.083 507.636C609.083 507.123 608.911 506.726 608.565 506.446C608.229 506.166 607.749 506.026 607.123 506.026C606.097 506.026 605.201 506.399 604.435 507.146L604.015 506.25C604.379 505.858 604.841 505.555 605.401 505.34C605.971 505.116 606.568 505.004 607.193 505.004C608.145 505.004 608.887 505.228 609.419 505.676C609.961 506.124 610.231 506.745 610.231 507.538C610.231 508.089 610.091 508.574 609.811 508.994C609.531 509.405 609.144 509.703 608.649 509.89C609.237 510.049 609.695 510.343 610.021 510.772C610.348 511.192 610.511 511.715 610.511 512.34C610.511 513.189 610.213 513.866 609.615 514.37C609.027 514.874 608.22 515.126 607.193 515.126ZM615.7 515.126C614.571 515.126 613.712 514.692 613.124 513.824C612.536 512.956 612.242 511.701 612.242 510.058C612.242 508.406 612.536 507.151 613.124 506.292C613.712 505.433 614.571 505.004 615.7 505.004C616.839 505.004 617.697 505.433 618.276 506.292C618.864 507.141 619.158 508.392 619.158 510.044C619.158 511.696 618.859 512.956 618.262 513.824C617.674 514.692 616.82 515.126 615.7 515.126ZM615.7 514.132C616.484 514.132 617.063 513.801 617.436 513.138C617.819 512.475 618.01 511.444 618.01 510.044C618.01 508.644 617.823 507.622 617.45 506.978C617.077 506.325 616.493 505.998 615.7 505.998C614.916 505.998 614.333 506.325 613.95 506.978C613.577 507.631 613.39 508.653 613.39 510.044C613.39 511.444 613.577 512.475 613.95 513.138C614.333 513.801 614.916 514.132 615.7 514.132ZM620.777 509.624V508.196H622.205V509.624H620.777ZM620.777 515V513.572H622.205V515H620.777ZM627.28 515.126C626.151 515.126 625.292 514.692 624.704 513.824C624.116 512.956 623.822 511.701 623.822 510.058C623.822 508.406 624.116 507.151 624.704 506.292C625.292 505.433 626.151 505.004 627.28 505.004C628.419 505.004 629.277 505.433 629.856 506.292C630.444 507.141 630.738 508.392 630.738 510.044C630.738 511.696 630.439 512.956 629.842 513.824C629.254 514.692 628.4 515.126 627.28 515.126ZM627.28 514.132C628.064 514.132 628.643 513.801 629.016 513.138C629.399 512.475 629.59 511.444 629.59 510.044C629.59 508.644 629.403 507.622 629.03 506.978C628.657 506.325 628.073 505.998 627.28 505.998C626.496 505.998 625.913 506.325 625.53 506.978C625.157 507.631 624.97 508.653 624.97 510.044C624.97 511.444 625.157 512.475 625.53 513.138C625.913 513.801 626.496 514.132 627.28 514.132ZM635.675 515.126C634.545 515.126 633.687 514.692 633.099 513.824C632.511 512.956 632.217 511.701 632.217 510.058C632.217 508.406 632.511 507.151 633.099 506.292C633.687 505.433 634.545 505.004 635.675 505.004C636.813 505.004 637.672 505.433 638.251 506.292C638.839 507.141 639.133 508.392 639.133 510.044C639.133 511.696 638.834 512.956 638.237 513.824C637.649 514.692 636.795 515.126 635.675 515.126ZM635.675 514.132C636.459 514.132 637.037 513.801 637.411 513.138C637.793 512.475 637.985 511.444 637.985 510.044C637.985 508.644 637.798 507.622 637.425 506.978C637.051 506.325 636.468 505.998 635.675 505.998C634.891 505.998 634.307 506.325 633.925 506.978C633.551 507.631 633.365 508.653 633.365 510.044C633.365 511.444 633.551 512.475 633.925 513.138C634.307 513.801 634.891 514.132 635.675 514.132Z" fill="#2F2F2F"/>
<path d="M26.2 501.126C25.0707 501.126 24.212 500.692 23.624 499.824C23.036 498.956 22.742 497.701 22.742 496.058C22.742 494.406 23.036 493.151 23.624 492.292C24.212 491.433 25.0707 491.004 26.2 491.004C27.3387 491.004 28.1973 491.433 28.776 492.292C29.364 493.141 29.658 494.392 29.658 496.044C29.658 497.696 29.3593 498.956 28.762 499.824C28.174 500.692 27.32 501.126 26.2 501.126ZM26.2 500.132C26.984 500.132 27.5627 499.801 27.936 499.138C28.3187 498.475 28.51 497.444 28.51 496.044C28.51 494.644 28.3233 493.622 27.95 492.978C27.5767 492.325 26.9933 491.998 26.2 491.998C25.416 491.998 24.8327 492.325 24.45 492.978C24.0767 493.631 23.89 494.653 23.89 496.044C23.89 497.444 24.0767 498.475 24.45 499.138C24.8327 499.801 25.416 500.132 26.2 500.132ZM31.2765 501V499.572H32.7045V501H31.2765ZM37.9901 501.126C37.3554 501.126 36.7487 501.023 36.1701 500.818C35.5914 500.613 35.1014 500.323 34.7001 499.95L35.1341 499.04C36.0021 499.749 36.9494 500.104 37.9761 500.104C38.6574 500.104 39.1941 499.913 39.5861 499.53C39.9781 499.147 40.1741 498.643 40.1741 498.018C40.1741 497.374 39.9874 496.847 39.6141 496.436C39.2407 496.025 38.7274 495.82 38.0741 495.82C37.1314 495.82 36.3894 496.212 35.8481 496.996H35.0081V491.13H40.7341V492.11H36.1421V495.638C36.6834 495.097 37.3974 494.826 38.2841 494.826C38.9001 494.826 39.4367 494.957 39.8941 495.218C40.3514 495.479 40.7014 495.848 40.9441 496.324C41.1961 496.791 41.3221 497.337 41.3221 497.962C41.3221 498.578 41.1867 499.124 40.9161 499.6C40.6454 500.076 40.2581 500.449 39.7541 500.72C39.2594 500.991 38.6714 501.126 37.9901 501.126Z" fill="#2F2F2F"/>
<path d="M23.736 431V430.02H25.99V422.516L24.212 423.636L23.722 422.782L26.312 421.13H27.138V430.02H29.252V431H23.736Z" fill="#2F2F2F"/>
<path d="M23.736 360V359.02H25.99V351.516L24.212 352.636L23.722 351.782L26.312 350.13H27.138V359.02H29.252V360H23.736ZM31.2765 360V358.572H32.7045V360H31.2765ZM37.9901 360.126C37.3554 360.126 36.7487 360.023 36.1701 359.818C35.5914 359.613 35.1014 359.323 34.7001 358.95L35.1341 358.04C36.0021 358.749 36.9494 359.104 37.9761 359.104C38.6574 359.104 39.1941 358.913 39.5861 358.53C39.9781 358.147 40.1741 357.643 40.1741 357.018C40.1741 356.374 39.9874 355.847 39.6141 355.436C39.2407 355.025 38.7274 354.82 38.0741 354.82C37.1314 354.82 36.3894 355.212 35.8481 355.996H35.0081V350.13H40.7341V351.11H36.1421V354.638C36.6834 354.097 37.3974 353.826 38.2841 353.826C38.9001 353.826 39.4367 353.957 39.8941 354.218C40.3514 354.479 40.7014 354.848 40.9441 355.324C41.1961 355.791 41.3221 356.337 41.3221 356.962C41.3221 357.578 41.1867 358.124 40.9161 358.6C40.6454 359.076 40.2581 359.449 39.7541 359.72C39.2594 359.991 38.6714 360.126 37.9901 360.126Z" fill="#2F2F2F"/>
<path d="M23.26 290V289.132L26.634 285.492C27.11 284.969 27.4507 284.493 27.656 284.064C27.8707 283.635 27.978 283.196 27.978 282.748C27.978 281.6 27.3107 281.026 25.976 281.026C24.9773 281.026 24.0953 281.399 23.33 282.146L22.896 281.25C23.26 280.877 23.722 280.578 24.282 280.354C24.8513 280.121 25.4487 280.004 26.074 280.004C27.0633 280.004 27.8193 280.237 28.342 280.704C28.874 281.161 29.14 281.815 29.14 282.664C29.14 283.252 28.9953 283.831 28.706 284.4C28.4167 284.96 27.9733 285.557 27.376 286.192L24.73 289.02H29.546V290H23.26Z" fill="#2F2F2F"/>
<path d="M23.26 220V219.132L26.634 215.492C27.11 214.969 27.4507 214.493 27.656 214.064C27.8707 213.635 27.978 213.196 27.978 212.748C27.978 211.6 27.3107 211.026 25.976 211.026C24.9773 211.026 24.0953 211.399 23.33 212.146L22.896 211.25C23.26 210.877 23.722 210.578 24.282 210.354C24.8513 210.121 25.4487 210.004 26.074 210.004C27.0633 210.004 27.8193 210.237 28.342 210.704C28.874 211.161 29.14 211.815 29.14 212.664C29.14 213.252 28.9953 213.831 28.706 214.4C28.4167 214.96 27.9733 215.557 27.376 216.192L24.73 219.02H29.546V220H23.26ZM31.2765 220V218.572H32.7045V220H31.2765ZM37.9901 220.126C37.3554 220.126 36.7487 220.023 36.1701 219.818C35.5914 219.613 35.1014 219.323 34.7001 218.95L35.1341 218.04C36.0021 218.749 36.9494 219.104 37.9761 219.104C38.6574 219.104 39.1941 218.913 39.5861 218.53C39.9781 218.147 40.1741 217.643 40.1741 217.018C40.1741 216.374 39.9874 215.847 39.6141 215.436C39.2407 215.025 38.7274 214.82 38.0741 214.82C37.1314 214.82 36.3894 215.212 35.8481 215.996H35.0081V210.13H40.7341V211.11H36.1421V214.638C36.6834 214.097 37.3974 213.826 38.2841 213.826C38.9001 213.826 39.4367 213.957 39.8941 214.218C40.3514 214.479 40.7014 214.848 40.9441 215.324C41.1961 215.791 41.3221 216.337 41.3221 216.962C41.3221 217.578 41.1867 218.124 40.9161 218.6C40.6454 219.076 40.2581 219.449 39.7541 219.72C39.2594 219.991 38.6714 220.126 37.9901 220.126Z" fill="#2F2F2F"/>
<path d="M26.088 149.126C25.4347 149.126 24.814 149.028 24.226 148.832C23.638 148.627 23.1433 148.333 22.742 147.95L23.162 147.04C23.6193 147.413 24.0813 147.684 24.548 147.852C25.0147 148.02 25.5187 148.104 26.06 148.104C26.7693 148.104 27.3107 147.95 27.684 147.642C28.0667 147.325 28.258 146.863 28.258 146.256C28.258 145.677 28.0667 145.239 27.684 144.94C27.3013 144.641 26.746 144.492 26.018 144.492H24.562V143.498H25.92C26.5547 143.498 27.054 143.335 27.418 143.008C27.7913 142.672 27.978 142.215 27.978 141.636C27.978 141.123 27.8053 140.726 27.46 140.446C27.124 140.166 26.6433 140.026 26.018 140.026C24.9913 140.026 24.0953 140.399 23.33 141.146L22.91 140.25C23.274 139.858 23.736 139.555 24.296 139.34C24.8653 139.116 25.4627 139.004 26.088 139.004C27.04 139.004 27.782 139.228 28.314 139.676C28.8553 140.124 29.126 140.745 29.126 141.538C29.126 142.089 28.986 142.574 28.706 142.994C28.426 143.405 28.0387 143.703 27.544 143.89C28.132 144.049 28.5893 144.343 28.916 144.772C29.2427 145.192 29.406 145.715 29.406 146.34C29.406 147.189 29.1073 147.866 28.51 148.37C27.922 148.874 27.1147 149.126 26.088 149.126Z" fill="#2F2F2F"/>
<path d="M26.088 79.126C25.4347 79.126 24.814 79.028 24.226 78.832C23.638 78.6267 23.1433 78.3327 22.742 77.95L23.162 77.04C23.6193 77.4133 24.0813 77.684 24.548 77.852C25.0147 78.02 25.5187 78.104 26.06 78.104C26.7693 78.104 27.3107 77.95 27.684 77.642C28.0667 77.3247 28.258 76.8627 28.258 76.256C28.258 75.6773 28.0667 75.2387 27.684 74.94C27.3013 74.6413 26.746 74.492 26.018 74.492H24.562V73.498H25.92C26.5547 73.498 27.054 73.3347 27.418 73.008C27.7913 72.672 27.978 72.2147 27.978 71.636C27.978 71.1227 27.8053 70.726 27.46 70.446C27.124 70.166 26.6433 70.026 26.018 70.026C24.9913 70.026 24.0953 70.3993 23.33 71.146L22.91 70.25C23.274 69.858 23.736 69.5547 24.296 69.34C24.8653 69.116 25.4627 69.004 26.088 69.004C27.04 69.004 27.782 69.228 28.314 69.676C28.8553 70.124 29.126 70.7447 29.126 71.538C29.126 72.0887 28.986 72.574 28.706 72.994C28.426 73.4047 28.0387 73.7033 27.544 73.89C28.132 74.0487 28.5893 74.3427 28.916 74.772C29.2427 75.192 29.406 75.7147 29.406 76.34C29.406 77.1893 29.1073 77.866 28.51 78.37C27.922 78.874 27.1147 79.126 26.088 79.126ZM31.2765 79V77.572H32.7045V79H31.2765ZM37.9901 79.126C37.3554 79.126 36.7487 79.0233 36.1701 78.818C35.5914 78.6127 35.1014 78.3233 34.7001 77.95L35.1341 77.04C36.0021 77.7493 36.9494 78.104 37.9761 78.104C38.6574 78.104 39.1941 77.9127 39.5861 77.53C39.9781 77.1473 40.1741 76.6433 40.1741 76.018C40.1741 75.374 39.9874 74.8467 39.6141 74.436C39.2407 74.0253 38.7274 73.82 38.0741 73.82C37.1314 73.82 36.3894 74.212 35.8481 74.996H35.0081V69.13H40.7341V70.11H36.1421V73.638C36.6834 73.0967 37.3974 72.826 38.2841 72.826C38.9001 72.826 39.4367 72.9567 39.8941 73.218C40.3514 73.4793 40.7014 73.848 40.9441 74.324C41.1961 74.7907 41.3221 75.3367 41.3221 75.962C41.3221 76.578 41.1867 77.124 40.9161 77.6C40.6454 78.076 40.2581 78.4493 39.7541 78.72C39.2594 78.9907 38.6714 79.126 37.9901 79.126Z" fill="#2F2F2F"/>
<path d="M51 416.387C51 416.387 55.3137 406.718 58.1895 406.718C61.0653 406.718 62.5032 411.915 65.3789 411.915C68.2547 411.915 69.6926 408.485 72.5684 408.485C75.4442 408.485 76.8821 416.254 79.7579 416.254C82.6337 416.254 84.0716 405.478 86.9474 405.478C89.8232 405.478 91.2611 406.127 94.1368 407.436C97.0126 408.745 98.4505 412.021 101.326 412.021C104.202 412.021 105.64 408.505 108.516 406.809C111.392 405.113 112.829 403.541 115.705 403.541C118.581 403.541 120.019 412.218 122.895 412.218C125.771 412.218 127.208 412.197 130.084 412.197C132.96 412.197 134.398 416.303 137.274 416.303C140.149 416.303 141.587 414.258 144.463 413C147.339 411.742 148.777 410.014 151.653 410.014C154.528 410.014 155.966 415.634 158.842 416.789C161.718 417.944 163.156 417.944 166.032 417.944C168.907 417.944 170.345 417.944 173.221 417.493C176.097 417.042 177.535 407.725 180.411 406.774C183.286 405.823 184.724 405.823 187.6 405.823C190.476 405.823 191.914 417.641 194.789 417.641C197.665 417.641 199.103 417.641 201.979 415.704C204.855 413.768 206.293 404.295 209.168 394.4C212.044 384.504 213.482 378.905 216.358 366.228C219.234 353.551 220.672 338.057 223.547 331.014C226.423 323.971 227.861 330.732 230.737 323.971C233.613 317.21 235.051 308.477 237.926 297.208C240.802 285.94 242.24 267.628 245.116 267.628C247.992 267.628 249.429 288.757 252.305 288.757C255.181 288.757 256.619 288.757 259.495 287.348C262.371 285.94 263.808 282.327 266.684 278.521C269.56 274.715 270.998 268.318 273.874 268.318C276.749 268.318 278.187 273.353 281.063 273.353C283.939 273.353 285.377 258.599 288.253 252.448C291.128 246.298 292.566 246.333 295.442 242.6C298.318 238.867 299.756 236.476 302.632 233.785C305.507 231.093 306.945 231.389 309.821 229.144C312.697 226.899 314.135 229.144 317.011 222.56C319.886 215.975 321.324 145.449 324.2 136.366C327.076 127.282 328.514 130.525 331.389 127.282C334.265 124.04 335.703 122.775 338.579 120.152C341.455 117.529 342.893 114.168 345.768 114.168C348.644 114.168 350.082 118.434 352.958 118.434C355.834 118.434 357.272 114.859 360.147 113.069C363.023 111.279 364.461 109.484 367.337 109.484C370.213 109.484 371.651 115.026 374.526 115.026C377.402 115.026 378.84 111.91 381.716 111.91C384.592 111.91 386.029 128.633 388.905 128.633C391.781 128.633 393.219 127.665 396.095 127.114C398.971 126.564 400.408 126.212 403.284 125.88C406.16 125.549 407.598 125.88 410.474 125.457C413.349 125.034 414.787 84.2773 417.663 84.2773C420.539 84.2773 421.977 232.996 424.853 232.996C427.728 232.996 429.166 230.717 432.042 230.717C434.918 230.717 436.356 231.694 439.232 231.694C442.107 231.694 443.545 134.74 446.421 127.044C449.297 119.347 450.735 119.347 453.611 119.347C456.486 119.347 457.924 119.467 460.8 119.784C463.676 120.101 465.114 120.931 467.989 120.931C470.865 120.931 472.303 118.628 475.179 118.628C478.055 118.628 479.493 119.765 482.368 120.478C485.244 121.19 486.682 121.358 489.558 122.192C492.434 123.026 493.872 123.959 496.747 124.648C499.623 125.336 501.061 125.634 503.937 125.634C506.813 125.634 508.251 123.043 511.126 123.043C514.002 123.043 515.44 125.989 518.316 128.129C521.192 130.269 522.629 133.741 525.505 133.741C528.381 133.741 529.819 126.374 532.695 126.374C535.571 126.374 537.008 133.158 539.884 133.158C542.76 133.158 544.198 130.128 547.074 130.128C549.949 130.128 551.387 217.689 554.263 233.659C557.139 249.629 558.577 244.355 561.453 249.629C564.328 254.903 565.766 255.925 568.642 260.028C571.518 264.131 572.956 266.562 575.832 270.143C578.707 273.725 580.145 270.143 583.021 277.935C585.897 285.728 587.335 345.997 590.211 355.867C593.086 365.736 594.524 362.814 597.4 365.736C600.276 368.658 601.714 368.113 604.589 370.476C607.465 372.838 608.903 374.51 611.779 377.55C614.655 380.59 616.093 382.238 618.968 385.677C621.844 389.115 623.282 391.658 626.158 394.743C629.034 397.829 630.472 399.349 633.347 401.104C636.223 402.859 637.661 402.398 640.537 403.519C643.413 404.64 644.851 405.676 647.726 406.708C650.602 407.741 652.04 407.926 654.916 408.681C657.792 409.437 659.229 409.31 662.105 410.487C664.981 411.663 666.419 414.565 669.295 414.565C672.171 414.565 673.608 406.33 676.484 406.33C679.36 406.33 680.798 420.381 683.674 420.381C686.549 420.381 687.987 400.999 690.863 400.999C693.739 400.999 695.177 409.598 698.053 409.598C700.928 409.598 702.366 405.112 705.242 405.112C708.118 405.112 709.556 417.345 712.432 417.345C715.307 417.345 716.745 406.211 719.621 406.211C722.497 406.211 723.935 416.31 726.811 416.31C729.686 416.31 734 407.929 734 407.929" stroke="#0087FF" stroke-width="2"/>
<path d="M3.708 366.041C3.708 365.641 3.708 365.241 3.708 364.841C3.708 364.433 3.716 364.033 3.732 363.641C3.74 363.241 3.756 362.857 3.78 362.489L4.608 362.537V365.861C4.608 366.109 4.672 366.293 4.8 366.413C4.92 366.525 5.12 366.581 5.4 366.581H10.32C10.6 366.581 10.804 366.525 10.932 366.413C11.06 366.293 11.124 366.109 11.124 365.861V362.537L11.94 362.489C11.964 362.857 11.98 363.241 11.988 363.641C11.996 364.033 12 364.433 12 364.841C12.008 365.241 12.012 365.641 12.012 366.041C12.012 366.529 11.884 366.917 11.628 367.205C11.364 367.485 11.012 367.629 10.572 367.637H5.148C4.7 367.629 4.348 367.485 4.092 367.205C3.836 366.917 3.708 366.529 3.708 366.041ZM7.2 367.421V363.005H8.052V367.421H7.2ZM3.72 352.479H11.58C11.86 352.479 12 352.615 12 352.887V353.919C12 354.039 11.972 354.135 11.916 354.207C11.86 354.279 11.776 354.339 11.664 354.387L5.796 357.183C5.636 357.255 5.456 357.339 5.256 357.435C5.056 357.531 4.872 357.603 4.704 357.651V357.843C4.88 357.827 5.06 357.815 5.244 357.807C5.428 357.799 5.612 357.795 5.796 357.795H12V358.851H4.14C3.86 358.851 3.72 358.711 3.72 358.431L3.72 357.435C3.72 357.315 3.748 357.219 3.804 357.147C3.86 357.075 3.944 357.015 4.056 356.967L9.78 354.255C9.948 354.167 10.14 354.075 10.356 353.979C10.564 353.875 10.772 353.779 10.98 353.691V353.487C10.764 353.495 10.552 353.503 10.344 353.511C10.136 353.519 9.928 353.523 9.72 353.523H3.72V352.479ZM3.708 346.866C3.708 346.466 3.708 346.066 3.708 345.666C3.708 345.258 3.716 344.858 3.732 344.466C3.74 344.066 3.756 343.682 3.78 343.314L4.608 343.362V346.686C4.608 346.934 4.672 347.118 4.8 347.238C4.92 347.35 5.12 347.406 5.4 347.406H10.32C10.6 347.406 10.804 347.35 10.932 347.238C11.06 347.118 11.124 346.934 11.124 346.686V343.362L11.94 343.314C11.964 343.682 11.98 344.066 11.988 344.466C11.996 344.858 12 345.258 12 345.666C12.008 346.066 12.012 346.466 12.012 346.866C12.012 347.354 11.884 347.742 11.628 348.03C11.364 348.31 11.012 348.454 10.572 348.462H5.148C4.7 348.454 4.348 348.31 4.092 348.03C3.836 347.742 3.708 347.354 3.708 346.866ZM7.2 348.246L7.2 343.83H8.052V348.246H7.2ZM3.612 336.819C3.612 336.179 3.684 335.663 3.828 335.271C3.964 334.879 4.204 334.595 4.548 334.419C4.892 334.235 5.376 334.143 6 334.143C6.448 334.143 6.824 334.195 7.128 334.299C7.424 334.403 7.656 334.567 7.824 334.791C7.984 335.007 8.088 335.299 8.136 335.667H8.196C8.228 335.531 8.296 335.399 8.4 335.271C8.496 335.135 8.628 335.011 8.796 334.899C8.956 334.787 9.152 334.703 9.384 334.647L12 333.843V334.971L9.408 335.703C9.096 335.807 8.876 335.947 8.748 336.123C8.612 336.299 8.544 336.527 8.544 336.807C8.544 337.295 8.544 337.719 8.544 338.079C8.536 338.439 8.528 338.739 8.52 338.979C8.512 339.219 8.508 339.411 8.508 339.555L7.632 339.519V336.843C7.624 336.435 7.576 336.115 7.488 335.883C7.4 335.643 7.244 335.471 7.02 335.367C6.788 335.263 6.468 335.211 6.06 335.211C5.652 335.211 5.34 335.263 5.124 335.367C4.9 335.471 4.744 335.643 4.656 335.883C4.568 336.115 4.524 336.435 4.524 336.843C4.524 337.499 4.528 338.067 4.536 338.547C4.544 339.019 4.548 339.339 4.548 339.507L3.72 339.675C3.688 339.371 3.664 339.087 3.648 338.823C3.632 338.559 3.624 338.271 3.624 337.959C3.616 337.639 3.612 337.259 3.612 336.819ZM3.72 338.631H12V339.675H3.72V338.631ZM3.564 327.101C3.564 326.821 3.572 326.549 3.588 326.285C3.604 326.021 3.632 325.765 3.672 325.517C3.704 325.269 3.752 325.029 3.816 324.797L4.608 324.905C4.584 325.153 4.564 325.405 4.548 325.661C4.532 325.909 4.524 326.149 4.524 326.381C4.516 326.613 4.512 326.833 4.512 327.041C4.512 327.489 4.556 327.869 4.644 328.181C4.724 328.485 4.884 328.729 5.124 328.913C5.364 329.097 5.708 329.233 6.156 329.321C6.604 329.401 7.188 329.441 7.908 329.441C8.724 329.441 9.376 329.385 9.864 329.273C10.344 329.161 10.692 328.973 10.908 328.709C11.124 328.445 11.232 328.093 11.232 327.653C11.232 327.349 11.188 327.073 11.1 326.825C11.012 326.569 10.9 326.333 10.764 326.117C10.62 325.893 10.472 325.677 10.32 325.469L10.968 325.325C11.136 325.469 11.312 325.669 11.496 325.925C11.68 326.173 11.836 326.465 11.964 326.801C12.092 327.137 12.156 327.517 12.156 327.941C12.156 328.557 12.004 329.061 11.7 329.453C11.388 329.837 10.916 330.117 10.284 330.293C9.644 330.469 8.828 330.557 7.836 330.557C6.74 330.557 5.884 330.449 5.268 330.233C4.644 330.009 4.204 329.645 3.948 329.141C3.692 328.629 3.564 327.949 3.564 327.101ZM7.212 324.581H12V325.349L10.776 325.517L10.536 325.613H7.212V324.581ZM3.72 319.666H12V320.722H3.72V319.666ZM3.708 314.057C3.708 313.657 3.708 313.257 3.708 312.857C3.708 312.449 3.716 312.049 3.732 311.657C3.74 311.257 3.756 310.873 3.78 310.505L4.608 310.553V313.877C4.608 314.125 4.672 314.309 4.8 314.429C4.92 314.541 5.12 314.597 5.4 314.597H10.32C10.6 314.597 10.804 314.541 10.932 314.429C11.06 314.309 11.124 314.125 11.124 313.877V310.553L11.94 310.505C11.964 310.873 11.98 311.257 11.988 311.657C11.996 312.049 12 312.449 12 312.857C12.008 313.257 12.012 313.657 12.012 314.057C12.012 314.545 11.884 314.933 11.628 315.221C11.364 315.501 11.012 315.645 10.572 315.653H5.148C4.7 315.645 4.348 315.501 4.092 315.221C3.836 314.933 3.708 314.545 3.708 314.057ZM7.2 315.437V311.021H8.052V315.437H7.2ZM3.72 303.626C3.72 303.53 3.748 303.446 3.804 303.374C3.852 303.302 3.92 303.254 4.008 303.23L12 300.566V301.658L5.208 303.806C5.096 303.838 4.984 303.874 4.872 303.914C4.752 303.946 4.64 303.978 4.536 304.01V304.346C4.64 304.378 4.752 304.41 4.872 304.442C4.984 304.474 5.096 304.51 5.208 304.55L12 306.698V307.79L4.008 305.126C3.92 305.102 3.852 305.054 3.804 304.982C3.748 304.91 3.72 304.826 3.72 304.73V303.626ZM8.496 302.09H9.408V306.29H8.496V302.09ZM3.72 291.484H8.832C9.632 291.484 10.276 291.58 10.764 291.772C11.252 291.964 11.608 292.276 11.832 292.708C12.048 293.14 12.156 293.72 12.156 294.448C12.156 295.192 12.048 295.788 11.832 296.236C11.608 296.684 11.252 297.008 10.764 297.208C10.276 297.408 9.632 297.508 8.832 297.508H3.72V296.452H8.832C9.424 296.452 9.896 296.392 10.248 296.272C10.592 296.144 10.84 295.936 10.992 295.648C11.136 295.36 11.208 294.976 11.208 294.496C11.208 294.016 11.136 293.636 10.992 293.356C10.84 293.068 10.592 292.86 10.248 292.732C9.896 292.604 9.424 292.54 8.832 292.54H3.72V291.484ZM3.576 285.152C3.584 284.76 3.604 284.356 3.636 283.94C3.668 283.524 3.728 283.108 3.816 282.692L4.584 282.764C4.568 283.108 4.556 283.488 4.548 283.904C4.532 284.32 4.524 284.72 4.524 285.104C4.524 285.4 4.536 285.656 4.56 285.872C4.576 286.08 4.624 286.252 4.704 286.388C4.776 286.524 4.9 286.624 5.076 286.688C5.244 286.744 5.48 286.772 5.784 286.772C6.24 286.772 6.56 286.692 6.744 286.532C6.92 286.364 7.052 286.096 7.14 285.728L7.56 284.048C7.712 283.408 7.98 282.972 8.364 282.74C8.74 282.5 9.248 282.38 9.888 282.38C10.368 282.38 10.756 282.436 11.052 282.548C11.348 282.652 11.576 282.816 11.736 283.04C11.888 283.264 11.992 283.552 12.048 283.904C12.112 284.256 12.144 284.672 12.144 285.152C12.144 285.424 12.132 285.78 12.108 286.22C12.084 286.652 12.02 287.152 11.916 287.72L11.136 287.648C11.152 287.176 11.168 286.796 11.184 286.508C11.192 286.22 11.196 285.972 11.196 285.764C11.196 285.556 11.196 285.34 11.196 285.116C11.196 284.692 11.164 284.36 11.1 284.12C11.036 283.872 10.908 283.7 10.716 283.604C10.524 283.5 10.24 283.448 9.864 283.448C9.544 283.448 9.296 283.484 9.12 283.556C8.944 283.628 8.812 283.744 8.724 283.904C8.628 284.056 8.552 284.252 8.496 284.492L8.064 286.208C7.912 286.808 7.648 287.232 7.272 287.48C6.896 287.72 6.392 287.84 5.76 287.84C5.28 287.84 4.896 287.788 4.608 287.684C4.312 287.572 4.092 287.408 3.948 287.192C3.796 286.968 3.696 286.688 3.648 286.352C3.6 286.016 3.576 285.616 3.576 285.152ZM3.564 275.573C3.564 275.293 3.572 275.021 3.588 274.757C3.604 274.493 3.632 274.237 3.672 273.989C3.704 273.741 3.752 273.501 3.816 273.269L4.608 273.377C4.584 273.625 4.564 273.877 4.548 274.133C4.532 274.381 4.524 274.621 4.524 274.853C4.516 275.085 4.512 275.305 4.512 275.513C4.512 275.961 4.556 276.341 4.644 276.653C4.724 276.957 4.884 277.201 5.124 277.385C5.364 277.569 5.708 277.705 6.156 277.793C6.604 277.873 7.188 277.913 7.908 277.913C8.724 277.913 9.376 277.857 9.864 277.745C10.344 277.633 10.692 277.445 10.908 277.181C11.124 276.917 11.232 276.565 11.232 276.125C11.232 275.821 11.188 275.545 11.1 275.297C11.012 275.041 10.9 274.805 10.764 274.589C10.62 274.365 10.472 274.149 10.32 273.941L10.968 273.797C11.136 273.941 11.312 274.141 11.496 274.397C11.68 274.645 11.836 274.937 11.964 275.273C12.092 275.609 12.156 275.989 12.156 276.413C12.156 277.029 12.004 277.533 11.7 277.925C11.388 278.309 10.916 278.589 10.284 278.765C9.644 278.941 8.828 279.029 7.836 279.029C6.74 279.029 5.884 278.921 5.268 278.705C4.644 278.481 4.204 278.117 3.948 277.613C3.692 277.101 3.564 276.421 3.564 275.573ZM7.212 273.053H12V273.821L10.776 273.989L10.536 274.085H7.212V273.053ZM3.72 268.174H10.32C10.592 268.174 10.792 268.11 10.92 267.982C11.048 267.846 11.112 267.642 11.112 267.37V264.382L11.928 264.334C11.968 264.854 11.992 265.386 12 265.93C12.008 266.466 12.012 267.002 12.012 267.538C12.012 268.146 11.864 268.578 11.568 268.834C11.272 269.09 10.9 269.218 10.452 269.218H3.72V268.174ZM3.708 259.506C3.708 259.106 3.708 258.706 3.708 258.306C3.708 257.898 3.716 257.498 3.732 257.106C3.74 256.706 3.756 256.322 3.78 255.954L4.608 256.002V259.326C4.608 259.574 4.672 259.758 4.8 259.878C4.92 259.99 5.12 260.046 5.4 260.046H10.32C10.6 260.046 10.804 259.99 10.932 259.878C11.06 259.758 11.124 259.574 11.124 259.326V256.002L11.94 255.954C11.964 256.322 11.98 256.706 11.988 257.106C11.996 257.498 12 257.898 12 258.306C12.008 258.706 12.012 259.106 12.012 259.506C12.012 259.994 11.884 260.382 11.628 260.67C11.364 260.95 11.012 261.094 10.572 261.102H5.148C4.7 261.094 4.348 260.95 4.092 260.67C3.836 260.382 3.708 259.994 3.708 259.506ZM7.2 260.886L7.2 256.47H8.052V260.886H7.2ZM3.72 251.259H12V252.315H3.72V251.259ZM3.576 244.235C3.576 243.883 3.584 243.583 3.6 243.335C3.616 243.079 3.644 242.847 3.684 242.639C3.716 242.423 3.76 242.203 3.816 241.979L4.62 242.087C4.596 242.327 4.576 242.551 4.56 242.759C4.544 242.959 4.532 243.175 4.524 243.407C4.516 243.639 4.512 243.915 4.512 244.235C4.512 244.771 4.616 245.195 4.824 245.507C5.032 245.819 5.38 246.043 5.868 246.179C6.356 246.307 7.02 246.371 7.86 246.371C8.7 246.371 9.364 246.307 9.852 246.179C10.34 246.043 10.688 245.819 10.896 245.507C11.104 245.195 11.208 244.771 11.208 244.235C11.208 243.723 11.2 243.295 11.184 242.951C11.16 242.599 11.124 242.255 11.076 241.919L11.868 241.811C11.964 242.155 12.032 242.511 12.072 242.879C12.12 243.239 12.144 243.691 12.144 244.235C12.144 245.027 12.008 245.663 11.736 246.143C11.456 246.615 11.004 246.959 10.38 247.175C9.756 247.383 8.916 247.487 7.86 247.487C6.804 247.487 5.964 247.383 5.34 247.175C4.716 246.959 4.268 246.615 3.996 246.143C3.716 245.663 3.576 245.027 3.576 244.235ZM3.72 237.275H12V238.331H3.72V237.275ZM7.116 233.327H8.028V237.371H7.116V233.327ZM3.72 232.403H12V233.459H3.72V232.403ZM2.784 221.231H3.456V222.455C3.456 222.567 3.52 222.623 3.648 222.623H13.116C13.244 222.623 13.308 222.567 13.308 222.455V221.231H13.98V222.947C13.98 223.131 13.928 223.287 13.824 223.415C13.72 223.535 13.556 223.595 13.332 223.595H3.432C3.24 223.595 3.084 223.535 2.964 223.415C2.844 223.287 2.784 223.131 2.784 222.947V221.231ZM3.72 212.113L7.152 214.525C7.256 214.597 7.348 214.669 7.428 214.741C7.5 214.805 7.584 214.885 7.68 214.981H7.704C7.8 214.877 7.896 214.781 7.992 214.693C8.088 214.605 8.184 214.529 8.28 214.465L12 211.945V213.133L7.668 216.073L3.72 213.265L3.72 212.113ZM3.72 216.721H6.312C6.552 216.721 6.78 216.733 6.996 216.757C7.212 216.781 7.436 216.817 7.668 216.865C7.892 216.825 8.116 216.793 8.34 216.769C8.564 216.737 8.78 216.721 8.988 216.721H12V217.765H3.72V216.721ZM7.26 215.497H8.112V217.093H7.26L7.26 215.497ZM3.72 198.715L11.688 200.395C11.776 200.419 11.852 200.467 11.916 200.539C11.972 200.611 12 200.703 12 200.815V202.015C12 202.119 11.972 202.211 11.916 202.291C11.852 202.363 11.772 202.407 11.676 202.423L5.448 203.719C5.288 203.751 5.132 203.783 4.98 203.815C4.82 203.847 4.664 203.879 4.512 203.911V204.163C4.664 204.195 4.82 204.227 4.98 204.259C5.14 204.283 5.296 204.311 5.448 204.343L11.676 205.627C11.772 205.651 11.852 205.703 11.916 205.783C11.972 205.855 12 205.943 12 206.047V207.259C12 207.363 11.972 207.455 11.916 207.535C11.852 207.607 11.776 207.651 11.688 207.667L3.72 209.347V208.231L10.176 206.935C10.328 206.903 10.492 206.875 10.668 206.851C10.836 206.827 11.012 206.799 11.196 206.767V206.491C11.012 206.459 10.836 206.427 10.668 206.395C10.5 206.363 10.336 206.331 10.176 206.299L4.068 205.015C3.964 204.999 3.88 204.955 3.816 204.883C3.752 204.803 3.72 204.711 3.72 204.607V203.455C3.72 203.351 3.752 203.263 3.816 203.191C3.88 203.119 3.964 203.071 4.068 203.047L10.176 201.763C10.352 201.723 10.524 201.691 10.692 201.667C10.86 201.635 11.028 201.611 11.196 201.595V201.295C11.028 201.271 10.86 201.247 10.692 201.223C10.516 201.199 10.348 201.171 10.188 201.139L3.72 199.831V198.715ZM2.784 194.144C2.784 193.952 2.844 193.796 2.964 193.676C3.084 193.556 3.24 193.496 3.432 193.496H13.332C13.524 193.496 13.68 193.556 13.8 193.676C13.92 193.796 13.98 193.952 13.98 194.144V195.848H13.308V194.636C13.308 194.516 13.244 194.456 13.116 194.456H3.648C3.52 194.456 3.456 194.516 3.456 194.636V195.848H2.784V194.144Z" fill="#2F2F2F"/>
<path d="M341.711 44.768C342.415 44.768 343.018 44.8267 343.519 44.944C344.031 45.0613 344.42 45.2907 344.687 45.632C344.964 45.9733 345.103 46.48 345.103 47.152C345.103 47.6107 345.039 48.0427 344.911 48.448C344.794 48.8533 344.591 49.2747 344.303 49.712C344.015 50.1387 343.626 50.624 343.135 51.168L339.967 54.704C340.244 54.6827 340.538 54.6667 340.847 54.656C341.167 54.6453 341.471 54.64 341.759 54.64H345.503V56H338.255V55.12C338.255 55.0027 338.271 54.896 338.303 54.8C338.335 54.6933 338.388 54.5973 338.463 54.512L341.663 50.896C342.367 50.1387 342.884 49.4667 343.215 48.88C343.546 48.2933 343.7 47.7387 343.679 47.216C343.668 46.8533 343.578 46.592 343.407 46.432C343.247 46.2613 343.012 46.1493 342.703 46.096C342.404 46.0427 342.042 46.016 341.615 46.016C341.274 46.016 340.948 46.0213 340.639 46.032C340.33 46.0427 339.999 46.0693 339.647 46.112C339.306 46.144 338.906 46.1973 338.447 46.272L338.351 45.184C338.852 45.0667 339.29 44.9813 339.663 44.928C340.047 44.864 340.399 44.8213 340.719 44.8C341.05 44.7787 341.38 44.768 341.711 44.768ZM353.175 44.752C354.125 44.752 354.877 44.9493 355.431 45.344C355.986 45.7387 356.381 46.3573 356.615 47.2C356.861 48.0427 356.983 49.136 356.983 50.48C356.983 51.824 356.861 52.9173 356.615 53.76C356.381 54.6027 355.986 55.2213 355.431 55.616C354.877 56.0107 354.125 56.208 353.175 56.208C352.237 56.208 351.49 56.0107 350.935 55.616C350.381 55.2213 349.981 54.6027 349.735 53.76C349.501 52.9173 349.383 51.824 349.383 50.48C349.383 49.136 349.501 48.0427 349.735 47.2C349.981 46.3573 350.381 45.7387 350.935 45.344C351.49 44.9493 352.237 44.752 353.175 44.752ZM353.175 45.984C352.717 45.984 352.333 46.0693 352.023 46.24C351.714 46.4 351.463 46.656 351.271 47.008C351.09 47.36 350.957 47.824 350.871 48.4C350.797 48.9653 350.759 49.6587 350.759 50.48C350.759 51.2907 350.797 51.984 350.871 52.56C350.957 53.136 351.09 53.6 351.271 53.952C351.463 54.304 351.714 54.5653 352.023 54.736C352.333 54.896 352.717 54.976 353.175 54.976C353.634 54.976 354.018 54.896 354.327 54.736C354.647 54.5653 354.898 54.304 355.079 53.952C355.271 53.6 355.405 53.136 355.479 52.56C355.565 51.984 355.607 51.2907 355.607 50.48C355.607 49.6587 355.565 48.9653 355.479 48.4C355.405 47.824 355.271 47.36 355.079 47.008C354.898 46.656 354.647 46.4 354.327 46.24C354.018 46.0693 353.634 45.984 353.175 45.984ZM364.336 44.768C365.04 44.768 365.643 44.8267 366.144 44.944C366.656 45.0613 367.045 45.2907 367.312 45.632C367.589 45.9733 367.728 46.48 367.728 47.152C367.728 47.6107 367.664 48.0427 367.536 48.448C367.419 48.8533 367.216 49.2747 366.928 49.712C366.64 50.1387 366.251 50.624 365.76 51.168L362.592 54.704C362.869 54.6827 363.163 54.6667 363.472 54.656C363.792 54.6453 364.096 54.64 364.384 54.64H368.128V56H360.88V55.12C360.88 55.0027 360.896 54.896 360.928 54.8C360.96 54.6933 361.013 54.5973 361.088 54.512L364.288 50.896C364.992 50.1387 365.509 49.4667 365.84 48.88C366.171 48.2933 366.325 47.7387 366.304 47.216C366.293 46.8533 366.203 46.592 366.032 46.432C365.872 46.2613 365.637 46.1493 365.328 46.096C365.029 46.0427 364.667 46.016 364.24 46.016C363.899 46.016 363.573 46.0213 363.264 46.032C362.955 46.0427 362.624 46.0693 362.272 46.112C361.931 46.144 361.531 46.1973 361.072 46.272L360.976 45.184C361.477 45.0667 361.915 44.9813 362.288 44.928C362.672 44.864 363.024 44.8213 363.344 44.8C363.675 44.7787 364.005 44.768 364.336 44.768ZM375.32 44.768C376.024 44.768 376.627 44.8267 377.128 44.944C377.64 45.0613 378.03 45.2907 378.296 45.632C378.574 45.9733 378.712 46.48 378.712 47.152C378.712 47.6107 378.648 48.0427 378.52 48.448C378.403 48.8533 378.2 49.2747 377.912 49.712C377.624 50.1387 377.235 50.624 376.744 51.168L373.576 54.704C373.854 54.6827 374.147 54.6667 374.456 54.656C374.776 54.6453 375.08 54.64 375.368 54.64H379.112V56H371.864V55.12C371.864 55.0027 371.88 54.896 371.912 54.8C371.944 54.6933 371.998 54.5973 372.072 54.512L375.272 50.896C375.976 50.1387 376.494 49.4667 376.824 48.88C377.155 48.2933 377.31 47.7387 377.288 47.216C377.278 46.8533 377.187 46.592 377.016 46.432C376.856 46.2613 376.622 46.1493 376.312 46.096C376.014 46.0427 375.651 46.016 375.224 46.016C374.883 46.016 374.558 46.0213 374.248 46.032C373.939 46.0427 373.608 46.0693 373.256 46.112C372.915 46.144 372.515 46.1973 372.056 46.272L371.96 45.184C372.462 45.0667 372.899 44.9813 373.272 44.928C373.656 44.864 374.008 44.8213 374.328 44.8C374.659 44.7787 374.99 44.768 375.32 44.768ZM388.001 51.44V52.48H383.121V51.44H388.001ZM395.972 44.752C396.922 44.752 397.674 44.9493 398.228 45.344C398.783 45.7387 399.178 46.3573 399.412 47.2C399.658 48.0427 399.78 49.136 399.78 50.48C399.78 51.824 399.658 52.9173 399.412 53.76C399.178 54.6027 398.783 55.2213 398.228 55.616C397.674 56.0107 396.922 56.208 395.972 56.208C395.034 56.208 394.287 56.0107 393.732 55.616C393.178 55.2213 392.778 54.6027 392.532 53.76C392.298 52.9173 392.18 51.824 392.18 50.48C392.18 49.136 392.298 48.0427 392.532 47.2C392.778 46.3573 393.178 45.7387 393.732 45.344C394.287 44.9493 395.034 44.752 395.972 44.752ZM395.972 45.984C395.514 45.984 395.13 46.0693 394.82 46.24C394.511 46.4 394.26 46.656 394.068 47.008C393.887 47.36 393.754 47.824 393.668 48.4C393.594 48.9653 393.556 49.6587 393.556 50.48C393.556 51.2907 393.594 51.984 393.668 52.56C393.754 53.136 393.887 53.6 394.068 53.952C394.26 54.304 394.511 54.5653 394.82 54.736C395.13 54.896 395.514 54.976 395.972 54.976C396.431 54.976 396.815 54.896 397.124 54.736C397.444 54.5653 397.695 54.304 397.876 53.952C398.068 53.6 398.202 53.136 398.276 52.56C398.362 51.984 398.404 51.2907 398.404 50.48C398.404 49.6587 398.362 48.9653 398.276 48.4C398.202 47.824 398.068 47.36 397.876 47.008C397.695 46.656 397.444 46.4 397.124 46.24C396.815 46.0693 396.431 45.984 395.972 45.984ZM408.141 44.768C408.365 44.768 408.68 44.7787 409.085 44.8C409.49 44.8213 409.917 44.8907 410.365 45.008L410.237 46.032C410.002 46.0107 409.784 45.9947 409.581 45.984C409.389 45.9733 409.181 45.968 408.957 45.968C408.733 45.968 408.461 45.968 408.141 45.968C407.597 45.968 407.138 46.0267 406.765 46.144C406.392 46.2613 406.093 46.4853 405.869 46.816C405.645 47.1467 405.485 47.632 405.389 48.272C405.293 48.912 405.245 49.7547 405.245 50.8C405.245 51.6 405.266 52.272 405.309 52.816C405.352 53.36 405.448 53.792 405.597 54.112C405.757 54.4213 405.992 54.6453 406.301 54.784C406.621 54.9227 407.053 54.992 407.597 54.992C408.226 54.992 408.69 54.896 408.989 54.704C409.298 54.5013 409.496 54.208 409.581 53.824C409.677 53.44 409.725 52.976 409.725 52.432C409.725 51.824 409.666 51.3387 409.549 50.976C409.442 50.6133 409.24 50.352 408.941 50.192C408.642 50.0213 408.221 49.936 407.677 49.936C407.325 49.936 407 49.9787 406.701 50.064C406.402 50.1493 406.098 50.304 405.789 50.528C405.48 50.7413 405.122 51.0453 404.717 51.44L404.653 50.736C405.005 50.2347 405.341 49.8453 405.661 49.568C405.981 49.28 406.328 49.0827 406.701 48.976C407.085 48.8587 407.533 48.8 408.045 48.8C408.824 48.8 409.432 48.9173 409.869 49.152C410.306 49.3867 410.616 49.7707 410.797 50.304C410.978 50.8267 411.069 51.536 411.069 52.432C411.069 52.9973 411.026 53.5147 410.941 53.984C410.856 54.4427 410.69 54.8373 410.445 55.168C410.2 55.4987 409.848 55.7547 409.389 55.936C408.93 56.1067 408.328 56.192 407.581 56.192C406.802 56.192 406.168 56.1067 405.677 55.936C405.186 55.7547 404.808 55.456 404.541 55.04C404.285 54.624 404.104 54.0693 403.997 53.376C403.901 52.672 403.853 51.7973 403.853 50.752C403.853 49.4507 403.938 48.4053 404.109 47.616C404.29 46.8267 404.557 46.2293 404.909 45.824C405.261 45.408 405.704 45.1307 406.237 44.992C406.781 44.8427 407.416 44.768 408.141 44.768ZM419.985 51.44V52.48H415.105V51.44H419.985ZM427.957 44.752C428.906 44.752 429.658 44.9493 430.213 45.344C430.767 45.7387 431.162 46.3573 431.397 47.2C431.642 48.0427 431.765 49.136 431.765 50.48C431.765 51.824 431.642 52.9173 431.397 53.76C431.162 54.6027 430.767 55.2213 430.213 55.616C429.658 56.0107 428.906 56.208 427.957 56.208C427.018 56.208 426.271 56.0107 425.717 55.616C425.162 55.2213 424.762 54.6027 424.517 53.76C424.282 52.9173 424.165 51.824 424.165 50.48C424.165 49.136 424.282 48.0427 424.517 47.2C424.762 46.3573 425.162 45.7387 425.717 45.344C426.271 44.9493 427.018 44.752 427.957 44.752ZM427.957 45.984C427.498 45.984 427.114 46.0693 426.805 46.24C426.495 46.4 426.245 46.656 426.053 47.008C425.871 47.36 425.738 47.824 425.653 48.4C425.578 48.9653 425.541 49.6587 425.541 50.48C425.541 51.2907 425.578 51.984 425.653 52.56C425.738 53.136 425.871 53.6 426.053 53.952C426.245 54.304 426.495 54.5653 426.805 54.736C427.114 54.896 427.498 54.976 427.957 54.976C428.415 54.976 428.799 54.896 429.109 54.736C429.429 54.5653 429.679 54.304 429.861 53.952C430.053 53.6 430.186 53.136 430.261 52.56C430.346 51.984 430.389 51.2907 430.389 50.48C430.389 49.6587 430.346 48.9653 430.261 48.4C430.186 47.824 430.053 47.36 429.861 47.008C429.679 46.656 429.429 46.4 429.109 46.24C428.799 46.0693 428.415 45.984 427.957 45.984ZM440.061 44.96L436.973 51.488C436.877 51.7013 436.872 51.8667 436.957 51.984C437.053 52.0907 437.192 52.144 437.373 52.144H443.917V53.152L442.445 53.296H436.589C436.291 53.296 436.04 53.2107 435.837 53.04C435.635 52.8693 435.501 52.6507 435.437 52.384C435.384 52.1173 435.416 51.8507 435.533 51.584L438.669 44.96H440.061ZM442.493 47.072V56H441.165V48.896L441.405 47.072H442.493Z" fill="#2F2F2F"/>
<path d="M56.1795 532.608L57.3315 532.62L52.9275 539.112L51.7635 539.1L56.1795 532.608ZM57.4155 539.1V540H51.7635V539.1H57.4155ZM57.3315 531.72V532.62H51.8355V531.72H57.3315ZM62.5524 531.708C62.9524 531.708 63.3524 531.708 63.7524 531.708C64.1604 531.708 64.5604 531.716 64.9524 531.732C65.3524 531.74 65.7364 531.756 66.1044 531.78L66.0564 532.608H62.7324C62.4844 532.608 62.3004 532.672 62.1804 532.8C62.0684 532.92 62.0124 533.12 62.0124 533.4V538.32C62.0124 538.6 62.0684 538.804 62.1804 538.932C62.3004 539.06 62.4844 539.124 62.7324 539.124H66.0564L66.1044 539.94C65.7364 539.964 65.3524 539.98 64.9524 539.988C64.5604 539.996 64.1604 540 63.7524 540C63.3524 540.008 62.9524 540.012 62.5524 540.012C62.0644 540.012 61.6764 539.884 61.3884 539.628C61.1084 539.364 60.9644 539.012 60.9564 538.572V533.148C60.9644 532.7 61.1084 532.348 61.3884 532.092C61.6764 531.836 62.0644 531.708 62.5524 531.708ZM61.1724 535.2H65.5884V536.052H61.1724V535.2ZM70.7992 531.72V540H69.7432V531.72H70.7992ZM77.8478 531.72V540H76.7918V531.72H77.8478ZM80.5238 531.72V532.656H74.1278V531.72H80.5238Z" fill="#2F2F2F"/>
</svg>
