<svg width="285" height="210" viewBox="0 0 285 210" fill="none" xmlns="http://www.w3.org/2000/svg">
<path d="M41.5 15V179" stroke="#FAFBFC"/>
<path d="M62.5 15V179" stroke="#FAFBFC"/>
<path d="M83.5 15V179" stroke="#FAFBFC"/>
<path d="M104.5 15V179" stroke="#FAFBFC"/>
<path d="M125.5 15V179" stroke="#FAFBFC"/>
<path d="M146.5 15V179" stroke="#FAFBFC"/>
<path d="M166.5 15V179" stroke="#FAFBFC"/>
<path d="M187.5 15V179" stroke="#FAFBFC"/>
<path d="M208.5 15V179" stroke="#FAFBFC"/>
<path d="M229.5 15V179" stroke="#FAFBFC"/>
<path d="M250.5 15V179" stroke="#FAFBFC"/>
<path d="M271.5 15V179" stroke="#FAFBFC"/>
<path d="M32 179.5H282" stroke="#FAFBFC"/>
<path d="M32 124.5H282" stroke="#FAFBFC"/>
<path d="M32 70.5H282" stroke="#FAFBFC"/>
<path d="M32 14.5H282" stroke="#FAFBFC"/>
<path d="M32 179.5H282" stroke="#FAFBFC"/>
<path d="M31.5 15V179" stroke="#FAFBFC"/>
<path d="M35.6341 201.609L35.9509 201.247C36.1243 201.044 36.2035 200.833 36.1885 200.614C36.1734 200.388 36.0621 200.171 35.8547 199.963L32.9301 197.039L33.394 196.575L36.3242 199.505C36.6523 199.833 36.8239 200.174 36.839 200.529C36.8541 200.883 36.7089 201.232 36.4034 201.575L36.0583 201.966L35.6341 201.609ZM36.5967 195.703C36.9474 195.352 37.2982 195.182 37.6489 195.194C37.9996 195.197 38.3579 195.382 38.7237 195.748L40.4604 197.485L40.0135 197.932L39.5439 197.462C39.6345 197.696 39.6514 197.932 39.5949 198.169C39.5345 198.403 39.4082 198.616 39.2158 198.808C39.0386 198.986 38.8387 199.114 38.6162 199.193C38.3975 199.268 38.1806 199.285 37.9657 199.244C37.7507 199.202 37.5659 199.104 37.4113 198.95C37.2039 198.742 37.0964 198.529 37.0889 198.311C37.0776 198.088 37.1681 197.832 37.3604 197.541C37.549 197.247 37.8582 196.885 38.2881 196.455L38.4126 196.331L38.2259 196.144C37.9958 195.914 37.7828 195.795 37.5867 195.788C37.3868 195.776 37.1813 195.876 36.9701 196.087C36.6533 196.404 36.4364 196.817 36.3195 197.326L35.833 197.145C35.8745 196.9 35.965 196.647 36.1046 196.387C36.2441 196.119 36.4082 195.891 36.5967 195.703ZM38.916 198.384C39.1423 198.158 39.2517 197.898 39.2441 197.603C39.2366 197.302 39.1121 197.03 38.8708 196.789L38.7067 196.625L38.6049 196.727C38.273 197.058 38.0354 197.326 37.8921 197.53C37.7451 197.73 37.6678 197.901 37.6602 198.045C37.6527 198.18 37.713 198.312 37.8412 198.441C37.9883 198.588 38.1637 198.657 38.3673 198.65C38.571 198.635 38.7539 198.546 38.916 198.384ZM39.8623 192.437C40.5222 191.777 41.2161 191.811 41.944 192.539L43.675 194.27L43.2168 194.728L41.5141 193.025C41.2576 192.769 41.02 192.633 40.8013 192.618C40.5863 192.599 40.3695 192.699 40.1508 192.918C39.8981 193.171 39.7736 193.45 39.7774 193.755C39.7812 194.061 39.9151 194.345 40.1791 194.609L41.7573 196.188L41.2991 196.646L38.5442 193.891L38.9968 193.438L39.4493 193.891C39.3701 193.631 39.3682 193.376 39.4437 193.127C39.5153 192.875 39.6549 192.645 39.8623 192.437Z" fill="#2F2F2F"/>
<path d="M56.897 202.775L52.9089 198.787L55.3753 196.32L55.7656 196.711L53.7574 198.719L55.132 200.093L57.0271 198.198L57.4174 198.589L55.5223 200.484L57.3552 202.317L56.897 202.775ZM60.9239 196.134L58.9101 198.148C59.2457 198.454 59.5757 198.61 59.9 198.618C60.2206 198.622 60.5261 198.478 60.8164 198.188C61.137 197.867 61.3218 197.464 61.3708 196.977L61.8573 197.158C61.8498 197.392 61.7857 197.637 61.665 197.894C61.5405 198.146 61.3802 198.371 61.1841 198.567C60.7542 198.997 60.2885 199.21 59.7869 199.206C59.2891 199.199 58.8177 198.972 58.3727 198.527C58.0898 198.244 57.8956 197.941 57.79 197.616C57.6807 197.288 57.6637 196.966 57.7391 196.649C57.8183 196.329 57.9842 196.042 58.2369 195.789C58.6027 195.423 59.01 195.258 59.4588 195.292C59.9038 195.322 60.3356 195.546 60.7542 195.965L60.9239 196.134ZM58.599 196.14C58.3576 196.381 58.2388 196.651 58.2426 196.949C58.2501 197.243 58.3783 197.541 58.6272 197.843L60.2281 196.242C59.9415 195.97 59.6587 195.827 59.3796 195.812C59.0968 195.793 58.8365 195.902 58.599 196.14ZM61.4689 192.557C61.7103 192.316 61.9818 192.161 62.2835 192.093C62.5852 192.026 62.8945 192.048 63.2112 192.161C63.528 192.274 63.8278 192.472 64.1107 192.755C64.3973 193.042 64.5991 193.345 64.716 193.666C64.8291 193.983 64.8536 194.294 64.7895 194.599C64.7254 194.905 64.5727 195.178 64.3313 195.42C64.1163 195.635 63.8806 195.776 63.6242 195.844C63.3715 195.908 63.117 195.895 62.8605 195.804L63.364 196.308L62.9058 196.766L58.9177 192.778L59.3759 192.32L61.0843 194.028C60.9938 193.772 60.9806 193.517 61.0447 193.264C61.1125 193.008 61.254 192.772 61.4689 192.557ZM63.8618 195.131C64.1295 194.863 64.2446 194.564 64.2068 194.232C64.1654 193.896 63.9768 193.56 63.6412 193.225C63.3131 192.897 62.985 192.716 62.6569 192.682C62.3288 192.648 62.0308 192.765 61.7631 193.032C61.4953 193.3 61.3784 193.598 61.4124 193.926C61.4501 194.251 61.6368 194.581 61.9724 194.916C62.308 195.252 62.6399 195.44 62.968 195.482C63.2961 195.516 63.594 195.399 63.8618 195.131Z" fill="#2F2F2F"/>
<path d="M76.7056 195.686L77.0846 195.307L81.0727 199.295L80.6484 199.719L77.5655 196.625L78.7251 200.375L78.397 200.703L74.6635 199.572L77.7352 202.632L77.3052 203.062L73.3172 199.074L73.7018 198.689L78.1029 200.07L76.7056 195.686ZM80.291 194.431C80.6418 194.08 80.9925 193.91 81.3432 193.922C81.6939 193.925 82.0522 194.11 82.418 194.476L84.1547 196.213L83.7078 196.66L83.2383 196.19C83.3288 196.424 83.3457 196.66 83.2892 196.897C83.2288 197.131 83.1025 197.344 82.9102 197.536C82.7329 197.714 82.533 197.842 82.3105 197.921C82.0918 197.996 81.875 198.013 81.66 197.972C81.445 197.93 81.2603 197.832 81.1056 197.678C80.8982 197.47 80.7907 197.257 80.7832 197.039C80.7719 196.816 80.8624 196.56 81.0547 196.269C81.2433 195.975 81.5525 195.613 81.9824 195.183L82.1069 195.059L81.9202 194.872C81.6902 194.642 81.4771 194.523 81.281 194.516C81.0811 194.504 80.8756 194.604 80.6644 194.815C80.3476 195.132 80.1308 195.545 80.0139 196.054L79.5274 195.873C79.5689 195.628 79.6594 195.375 79.7989 195.115C79.9384 194.847 80.1025 194.619 80.291 194.431ZM82.6104 197.112C82.8366 196.886 82.946 196.626 82.9385 196.331C82.9309 196.03 82.8065 195.758 82.5651 195.517L82.4011 195.353L82.2992 195.455C81.9674 195.787 81.7298 196.054 81.5865 196.258C81.4394 196.458 81.3621 196.629 81.3545 196.773C81.347 196.908 81.4073 197.04 81.5356 197.169C81.6826 197.316 81.858 197.386 82.0616 197.378C82.2653 197.363 82.4482 197.274 82.6104 197.112ZM84.1279 191.386L83.8564 191.714C83.6 192.023 83.4831 192.317 83.5057 192.596C83.5321 192.872 83.6565 193.121 83.879 193.343L85.4516 194.916L84.9934 195.374L82.2386 192.619L82.6854 192.172L83.1663 192.653C83.0003 192.178 83.1248 191.695 83.5396 191.205L83.6924 191.029L84.1279 191.386Z" fill="#2F2F2F"/>
<path d="M100.063 197.361L98.5982 196.779L96.5164 198.86L97.0991 200.326L96.6239 200.801L94.3895 195.059L94.7911 194.657L100.533 196.892L100.063 197.361ZM96.2958 198.312L98.0495 196.558L95.1305 195.393L96.2958 198.312ZM99.6196 192.16C99.8609 191.918 100.134 191.765 100.44 191.701C100.745 191.637 101.058 191.664 101.379 191.781C101.696 191.894 101.997 192.094 102.284 192.38C102.571 192.667 102.77 192.968 102.884 193.285C102.993 193.598 103.014 193.906 102.946 194.207C102.882 194.505 102.727 194.777 102.482 195.022C102.267 195.237 102.031 195.378 101.775 195.446C101.522 195.51 101.268 195.497 101.011 195.407L102.533 196.928L102.075 197.386L98.3015 193.613L98.7597 193.155L99.2349 193.63C99.1444 193.374 99.1312 193.119 99.1953 192.867C99.2632 192.61 99.4046 192.375 99.6196 192.16ZM102.012 194.733C102.28 194.466 102.397 194.168 102.363 193.84C102.329 193.512 102.146 193.182 101.814 192.85C101.483 192.518 101.151 192.333 100.819 192.295C100.483 192.254 100.181 192.367 99.9137 192.635C99.646 192.902 99.5291 193.2 99.563 193.529C99.6007 193.853 99.7874 194.183 100.123 194.518C100.459 194.854 100.791 195.043 101.119 195.084C101.447 195.118 101.745 195.001 102.012 194.733ZM103.483 189.088L103.212 189.416C102.955 189.725 102.839 190.019 102.861 190.298C102.888 190.574 103.012 190.822 103.234 191.045L104.807 192.618L104.349 193.076L101.594 190.321L102.041 189.874L102.522 190.355C102.356 189.88 102.48 189.397 102.895 188.907L103.048 188.731L103.483 189.088Z" fill="#2F2F2F"/>
<path d="M115.344 195.457L115.723 195.078L119.711 199.066L119.287 199.49L116.204 196.396L117.363 200.147L117.035 200.475L113.302 199.343L116.373 202.404L115.944 202.834L111.955 198.845L112.34 198.461L116.741 199.841L115.344 195.457ZM118.929 194.202C119.28 193.851 119.631 193.682 119.982 193.693C120.332 193.697 120.691 193.882 121.056 194.247L122.793 195.984L122.346 196.431L121.877 195.961C121.967 196.195 121.984 196.431 121.927 196.669C121.867 196.902 121.741 197.115 121.548 197.308C121.371 197.485 121.171 197.613 120.949 197.692C120.73 197.768 120.513 197.785 120.298 197.743C120.083 197.702 119.899 197.604 119.744 197.449C119.537 197.242 119.429 197.029 119.422 196.81C119.41 196.587 119.501 196.331 119.693 196.041C119.882 195.747 120.191 195.384 120.621 194.955L120.745 194.83L120.559 194.643C120.328 194.413 120.115 194.295 119.919 194.287C119.719 194.276 119.514 194.376 119.303 194.587C118.986 194.904 118.769 195.317 118.652 195.826L118.166 195.645C118.207 195.4 118.298 195.147 118.437 194.887C118.577 194.619 118.741 194.391 118.929 194.202ZM121.249 196.884C121.475 196.657 121.584 196.397 121.577 196.103C121.569 195.801 121.445 195.53 121.203 195.288L121.039 195.124L120.938 195.226C120.606 195.558 120.368 195.826 120.225 196.029C120.078 196.229 120 196.401 119.993 196.544C119.985 196.68 120.046 196.812 120.174 196.94C120.321 197.087 120.496 197.157 120.7 197.149C120.904 197.134 121.087 197.046 121.249 196.884ZM122.857 190.422L123.315 189.964L125.453 195.36L124.984 195.83L124.395 194.314L120.515 192.764L121.001 192.277L124.175 193.607L122.857 190.422Z" fill="#2F2F2F"/>
<path d="M136.254 204.756L136.57 204.394C136.744 204.191 136.823 203.979 136.808 203.761C136.793 203.534 136.682 203.317 136.474 203.11L133.55 200.185L134.014 199.722L136.944 202.652C137.272 202.98 137.444 203.321 137.459 203.676C137.474 204.03 137.329 204.379 137.023 204.722L136.678 205.113L136.254 204.756ZM138.483 197.718L141.238 200.473L140.791 200.92L140.322 200.45C140.401 200.703 140.405 200.952 140.333 201.197C140.265 201.438 140.133 201.657 139.937 201.853C139.609 202.181 139.272 202.338 138.925 202.323C138.574 202.304 138.219 202.115 137.861 201.757L136.153 200.049L136.611 199.591L138.308 201.288C138.553 201.533 138.783 201.665 138.998 201.684C139.209 201.699 139.421 201.601 139.632 201.389C139.873 201.148 139.99 200.877 139.983 200.575C139.971 200.269 139.837 199.988 139.581 199.732L138.025 198.176L138.483 197.718ZM140.653 195.413C141.313 194.753 142.007 194.787 142.735 195.514L144.466 197.245L144.008 197.704L142.305 196.001C142.049 195.745 141.811 195.609 141.592 195.594C141.377 195.575 141.16 195.675 140.942 195.893C140.689 196.146 140.565 196.425 140.568 196.731C140.572 197.036 140.706 197.321 140.97 197.585L142.548 199.163L142.09 199.621L139.335 196.866L139.788 196.414L140.24 196.866C140.161 196.606 140.159 196.352 140.235 196.103C140.306 195.85 140.446 195.62 140.653 195.413ZM146.306 192.792L144.293 194.805C144.628 195.111 144.958 195.267 145.282 195.275C145.603 195.279 145.909 195.135 146.199 194.845C146.519 194.524 146.704 194.121 146.753 193.634L147.24 193.815C147.232 194.049 147.168 194.294 147.047 194.551C146.923 194.803 146.763 195.028 146.567 195.224C146.137 195.654 145.671 195.867 145.169 195.863C144.672 195.856 144.2 195.629 143.755 195.184C143.472 194.902 143.278 194.598 143.172 194.274C143.063 193.946 143.046 193.623 143.122 193.306C143.201 192.986 143.367 192.699 143.619 192.446C143.985 192.081 144.392 191.915 144.841 191.949C145.286 191.979 145.718 192.203 146.137 192.622L146.306 192.792ZM143.981 192.797C143.74 193.039 143.621 193.308 143.625 193.606C143.633 193.9 143.761 194.198 144.01 194.5L145.611 192.899C145.324 192.627 145.041 192.484 144.762 192.469C144.479 192.45 144.219 192.56 143.981 192.797Z" fill="#2F2F2F"/>
<path d="M157.815 201.2L158.132 200.838C158.305 200.634 158.384 200.423 158.369 200.204C158.354 199.978 158.243 199.761 158.035 199.554L155.111 196.629L155.575 196.165L158.505 199.096C158.833 199.424 159.005 199.765 159.02 200.119C159.035 200.474 158.89 200.823 158.584 201.166L158.239 201.556L157.815 201.2ZM160.045 194.162L162.8 196.917L162.353 197.364L161.883 196.894C161.962 197.147 161.966 197.396 161.894 197.641C161.827 197.882 161.695 198.101 161.498 198.297C161.17 198.625 160.833 198.782 160.486 198.767C160.135 198.748 159.781 198.559 159.422 198.201L157.714 196.492L158.172 196.034L159.869 197.731C160.114 197.976 160.344 198.108 160.559 198.127C160.771 198.142 160.982 198.044 161.193 197.833C161.434 197.592 161.551 197.32 161.544 197.019C161.532 196.713 161.399 196.432 161.142 196.176L159.586 194.62L160.045 194.162ZM163.651 196.065L159.663 192.077L160.121 191.619L164.109 195.607L163.651 196.065ZM164.191 190.027L164.649 189.569L166.787 194.965L166.318 195.435L165.73 193.919L161.849 192.369L162.335 191.882L165.509 193.212L164.191 190.027Z" fill="#2F2F2F"/>
<path d="M182.587 197.824L181.122 197.241L179.04 199.323L179.623 200.788L179.148 201.263L176.913 195.522L177.315 195.12L183.057 197.355L182.587 197.824ZM178.82 198.774L180.573 197.021L177.654 195.855L178.82 198.774ZM183.145 191.757L185.899 194.512L185.453 194.958L184.983 194.489C185.062 194.742 185.066 194.991 184.994 195.236C184.926 195.477 184.794 195.696 184.598 195.892C184.27 196.22 183.933 196.376 183.586 196.361C183.235 196.343 182.881 196.154 182.522 195.796L180.814 194.087L181.272 193.629L182.969 195.326C183.214 195.571 183.444 195.703 183.659 195.722C183.871 195.737 184.082 195.639 184.293 195.428C184.534 195.187 184.651 194.915 184.644 194.613C184.632 194.308 184.498 194.027 184.242 193.771L182.686 192.215L183.145 191.757ZM186.463 188.439L189.031 191.007C189.442 191.418 189.645 191.833 189.642 192.251C189.642 192.674 189.434 193.092 189.019 193.507C188.537 193.99 188.007 194.271 187.43 194.35L187.243 193.858C187.549 193.794 187.809 193.707 188.024 193.598C188.239 193.488 188.446 193.334 188.646 193.134C188.91 192.87 189.038 192.598 189.031 192.319C189.027 192.044 188.889 191.771 188.618 191.499L188.131 191.013C188.229 191.269 188.243 191.527 188.171 191.788C188.103 192.044 187.958 192.283 187.735 192.506C187.494 192.747 187.222 192.906 186.921 192.981C186.623 193.053 186.317 193.038 186.004 192.936C185.695 192.83 185.405 192.642 185.133 192.37C184.862 192.099 184.673 191.808 184.568 191.499C184.466 191.186 184.451 190.881 184.522 190.583C184.598 190.281 184.756 190.009 184.997 189.768C185.216 189.549 185.454 189.406 185.71 189.338C185.967 189.27 186.223 189.282 186.48 189.372L186.004 188.897L186.463 188.439ZM187.447 192.036C187.711 191.772 187.832 191.478 187.809 191.154C187.782 190.826 187.615 190.507 187.305 190.198C187 189.893 186.685 189.728 186.361 189.706C186.036 189.676 185.74 189.794 185.473 190.062C185.205 190.33 185.082 190.63 185.105 190.962C185.128 191.286 185.292 191.601 185.597 191.906C185.906 192.216 186.225 192.383 186.553 192.41C186.881 192.429 187.179 192.304 187.447 192.036Z" fill="#2F2F2F"/>
<path d="M201.714 200.257C201.092 200.879 200.426 201.209 199.717 201.247L199.542 200.709C199.904 200.679 200.222 200.598 200.498 200.466C200.777 200.33 201.052 200.127 201.324 199.855C201.644 199.535 201.829 199.225 201.878 198.927C201.927 198.629 201.838 198.367 201.612 198.141C201.48 198.009 201.331 197.943 201.165 197.943C200.999 197.943 200.824 197.987 200.639 198.073C200.454 198.16 200.22 198.292 199.938 198.469C199.557 198.707 199.227 198.886 198.948 199.007C198.672 199.124 198.399 199.171 198.127 199.148C197.86 199.122 197.607 198.99 197.369 198.752C197.143 198.526 197.002 198.267 196.945 197.977C196.889 197.679 196.922 197.374 197.047 197.061C197.171 196.74 197.379 196.435 197.669 196.144C197.944 195.869 198.244 195.656 198.569 195.505C198.897 195.35 199.225 195.271 199.553 195.267L199.734 195.799C199.383 195.826 199.074 195.901 198.806 196.025C198.538 196.142 198.291 196.314 198.065 196.54C197.756 196.849 197.579 197.159 197.533 197.468C197.488 197.77 197.582 198.037 197.816 198.271C198.016 198.471 198.244 198.545 198.501 198.492C198.757 198.439 199.078 198.292 199.462 198.051C199.889 197.79 200.236 197.598 200.503 197.474C200.767 197.345 201.033 197.287 201.301 197.298C201.572 197.306 201.825 197.426 202.059 197.66C202.285 197.887 202.423 198.145 202.472 198.435C202.525 198.722 202.487 199.024 202.359 199.34C202.227 199.653 202.012 199.959 201.714 200.257ZM204.826 194.44L202.812 196.454C203.148 196.76 203.478 196.916 203.802 196.924C204.123 196.928 204.428 196.784 204.719 196.494C205.039 196.173 205.224 195.77 205.273 195.283L205.76 195.464C205.752 195.698 205.688 195.943 205.567 196.2C205.443 196.452 205.282 196.677 205.086 196.873C204.656 197.303 204.191 197.516 203.689 197.512C203.191 197.505 202.72 197.278 202.275 196.833C201.992 196.55 201.798 196.247 201.692 195.923C201.583 195.594 201.566 195.272 201.641 194.955C201.721 194.635 201.886 194.348 202.139 194.095C202.505 193.73 202.912 193.564 203.361 193.598C203.806 193.628 204.238 193.852 204.656 194.271L204.826 194.44ZM202.501 194.446C202.26 194.687 202.141 194.957 202.145 195.255C202.152 195.549 202.281 195.847 202.529 196.149L204.13 194.548C203.844 194.276 203.561 194.133 203.282 194.118C202.999 194.099 202.739 194.209 202.501 194.446ZM205.371 190.863C205.613 190.622 205.886 190.469 206.191 190.405C206.497 190.341 206.81 190.367 207.13 190.484C207.447 190.598 207.749 190.797 208.036 191.084C208.322 191.371 208.522 191.672 208.635 191.989C208.745 192.302 208.765 192.609 208.697 192.911C208.633 193.209 208.479 193.481 208.234 193.726C208.019 193.941 207.783 194.082 207.526 194.15C207.274 194.214 207.019 194.201 206.763 194.11L208.284 195.632L207.826 196.09L204.053 192.317L204.511 191.859L204.987 192.334C204.896 192.078 204.883 191.823 204.947 191.571C205.015 191.314 205.156 191.078 205.371 190.863ZM207.764 193.437C208.032 193.17 208.149 192.872 208.115 192.543C208.081 192.215 207.898 191.885 207.566 191.554C207.234 191.222 206.902 191.037 206.57 190.999C206.235 190.958 205.933 191.071 205.665 191.339C205.398 191.606 205.281 191.904 205.315 192.232C205.352 192.557 205.539 192.887 205.875 193.222C206.21 193.558 206.542 193.747 206.87 193.788C207.198 193.822 207.496 193.705 207.764 193.437Z" fill="#2F2F2F"/>
<path d="M225.75 199.763C225.38 200.132 224.975 200.372 224.534 200.481C224.096 200.587 223.651 200.56 223.199 200.402C222.746 200.243 222.313 199.957 221.898 199.542C221.479 199.123 221.189 198.69 221.027 198.241C220.864 197.785 220.838 197.34 220.947 196.906C221.057 196.465 221.298 196.057 221.671 195.684C222.045 195.311 222.45 195.071 222.888 194.966C223.325 194.852 223.77 194.879 224.223 195.045C224.675 195.203 225.109 195.49 225.524 195.905C225.939 196.319 226.227 196.755 226.389 197.211C226.548 197.664 226.572 198.111 226.463 198.552C226.357 198.99 226.12 199.393 225.75 199.763ZM225.354 199.367C225.776 198.944 225.963 198.475 225.914 197.958C225.865 197.434 225.577 196.908 225.049 196.38C224.521 195.852 223.998 195.563 223.482 195.514C222.965 195.465 222.494 195.654 222.067 196.08C221.645 196.502 221.458 196.976 221.507 197.5C221.556 198.017 221.843 198.537 222.367 199.061C222.891 199.585 223.414 199.874 223.934 199.927C224.458 199.976 224.932 199.789 225.354 199.367ZM229.493 196.008C229.221 196.28 228.927 196.457 228.611 196.54C228.294 196.623 227.975 196.614 227.654 196.512C227.334 196.402 227.03 196.204 226.744 195.918C226.457 195.631 226.261 195.326 226.155 195.001C226.05 194.67 226.037 194.343 226.116 194.023C226.199 193.698 226.376 193.401 226.648 193.129C226.832 192.944 227.047 192.797 227.292 192.688C227.534 192.575 227.764 192.518 227.983 192.518L228.169 193.01C227.698 193.059 227.328 193.218 227.061 193.485C226.778 193.768 226.649 194.081 226.676 194.424C226.702 194.768 226.883 195.107 227.219 195.443C227.551 195.775 227.886 195.952 228.226 195.974C228.565 195.997 228.876 195.867 229.159 195.584C229.427 195.316 229.585 194.947 229.634 194.475L230.127 194.662C230.119 194.888 230.059 195.122 229.946 195.363C229.832 195.605 229.682 195.82 229.493 196.008ZM231.883 192.883C231.966 192.8 232.043 192.711 232.115 192.617L232.454 193.002C232.383 193.104 232.296 193.205 232.194 193.307C231.862 193.639 231.525 193.803 231.181 193.799C230.842 193.792 230.518 193.633 230.209 193.324L228.76 191.876L228.223 192.413L227.861 192.051L228.398 191.514L227.561 190.677L228.019 190.219L228.857 191.056L229.637 190.275L229.999 190.637L229.219 191.418L230.633 192.832C231.066 193.266 231.483 193.283 231.883 192.883Z" fill="#2F2F2F"/>
<path d="M242.476 196.195L242.912 195.759L246.9 199.747L246.544 200.104L240.932 199.3L244.14 202.508L243.704 202.943L239.716 198.955L240.072 198.599L245.684 199.402L242.476 196.195ZM249 197.726C248.74 197.986 248.451 198.158 248.135 198.241C247.822 198.32 247.503 198.307 247.179 198.201C246.854 198.088 246.549 197.888 246.262 197.602C245.976 197.315 245.778 197.012 245.668 196.691C245.559 196.363 245.544 196.042 245.623 195.729C245.706 195.413 245.878 195.124 246.138 194.864C246.398 194.604 246.687 194.432 247.003 194.349C247.32 194.266 247.641 194.281 247.965 194.394C248.289 194.5 248.595 194.696 248.881 194.983C249.168 195.269 249.366 195.577 249.475 195.905C249.585 196.225 249.598 196.544 249.515 196.861C249.432 197.178 249.26 197.466 249 197.726ZM248.621 197.347C248.893 197.076 249.012 196.78 248.978 196.459C248.944 196.131 248.755 195.795 248.412 195.452C248.076 195.117 247.744 194.932 247.416 194.898C247.084 194.86 246.785 194.975 246.517 195.243C246.249 195.511 246.134 195.81 246.172 196.142C246.206 196.47 246.391 196.802 246.726 197.138C247.066 197.477 247.397 197.666 247.722 197.704C248.05 197.738 248.35 197.619 248.621 197.347ZM250.148 191.001L250.606 190.543L252.167 194.48L251.737 194.91L247.806 193.343L248.292 192.857L251.466 194.186L250.148 191.001Z" fill="#2F2F2F"/>
<path d="M260.48 199.093L261.821 197.753C262.458 197.115 263.124 196.797 263.818 196.797C264.511 196.789 265.177 197.104 265.814 197.741C266.452 198.379 266.769 199.046 266.765 199.744C266.765 200.438 266.446 201.103 265.809 201.741L264.468 203.081L260.48 199.093ZM265.385 201.373C266.418 200.34 266.401 199.289 265.334 198.222C264.27 197.159 263.222 197.144 262.188 198.177L261.34 199.025L264.536 202.222L265.385 201.373ZM269.583 195.353L267.57 197.367C267.905 197.672 268.235 197.829 268.559 197.836C268.88 197.84 269.185 197.697 269.476 197.406C269.796 197.086 269.981 196.682 270.03 196.196L270.517 196.377C270.509 196.61 270.445 196.856 270.324 197.112C270.2 197.365 270.04 197.589 269.844 197.785C269.414 198.215 268.948 198.428 268.446 198.424C267.949 198.417 267.477 198.191 267.032 197.746C266.749 197.463 266.555 197.159 266.449 196.835C266.34 196.507 266.323 196.184 266.399 195.867C266.478 195.547 266.644 195.26 266.896 195.008C267.262 194.642 267.669 194.476 268.118 194.51C268.563 194.54 268.995 194.764 269.414 195.183L269.583 195.353ZM267.258 195.358C267.017 195.6 266.898 195.869 266.902 196.167C266.91 196.461 267.038 196.759 267.287 197.061L268.888 195.46C268.601 195.189 268.318 195.045 268.039 195.03C267.756 195.011 267.496 195.121 267.258 195.358ZM272.77 194.859C272.499 195.13 272.204 195.307 271.888 195.39C271.571 195.473 271.252 195.464 270.932 195.362C270.611 195.253 270.308 195.055 270.021 194.768C269.734 194.481 269.538 194.176 269.433 193.852C269.327 193.52 269.314 193.194 269.393 192.873C269.476 192.549 269.653 192.251 269.925 191.979C270.11 191.794 270.324 191.647 270.57 191.538C270.811 191.425 271.041 191.368 271.26 191.368L271.446 191.86C270.975 191.909 270.605 192.068 270.338 192.336C270.055 192.618 269.927 192.931 269.953 193.275C269.979 193.618 270.16 193.957 270.496 194.293C270.828 194.625 271.164 194.802 271.503 194.825C271.842 194.847 272.154 194.717 272.436 194.434C272.704 194.167 272.863 193.797 272.912 193.326L273.404 193.512C273.396 193.739 273.336 193.972 273.223 194.214C273.11 194.455 272.959 194.67 272.77 194.859Z" fill="#2F2F2F"/>
<path d="M19.6031 181.064C18.9578 181.064 18.4671 180.819 18.1311 180.328C17.7951 179.837 17.6271 179.123 17.6271 178.184C17.6271 177.24 17.7951 176.523 18.1311 176.032C18.4671 175.541 18.9578 175.296 19.6031 175.296C20.2485 175.296 20.7391 175.541 21.0751 176.032C21.4111 176.517 21.5791 177.232 21.5791 178.176C21.5791 179.12 21.4111 179.837 21.0751 180.328C20.7391 180.819 20.2485 181.064 19.6031 181.064ZM19.6031 180.512C20.0511 180.512 20.3818 180.323 20.5951 179.944C20.8085 179.565 20.9151 178.976 20.9151 178.176C20.9151 177.371 20.8085 176.784 20.5951 176.416C20.3871 176.043 20.0565 175.856 19.6031 175.856C19.1551 175.856 18.8245 176.043 18.6111 176.416C18.3978 176.789 18.2911 177.376 18.2911 178.176C18.2911 178.976 18.3978 179.565 18.6111 179.944C18.8245 180.323 19.1551 180.512 19.6031 180.512Z" fill="#2F2F2F"/>
<path d="M5.7485 126.448H6.9885V127H3.8525V126.448H5.0925V122.176L4.1005 122.8L3.7965 122.296L5.2765 121.36H5.7485V126.448ZM10.0094 127.064C9.36404 127.064 8.87338 126.819 8.53738 126.328C8.20138 125.837 8.03338 125.123 8.03338 124.184C8.03338 123.24 8.20138 122.523 8.53738 122.032C8.87338 121.541 9.36404 121.296 10.0094 121.296C10.6547 121.296 11.1454 121.541 11.4814 122.032C11.8174 122.517 11.9854 123.232 11.9854 124.176C11.9854 125.12 11.8174 125.837 11.4814 126.328C11.1454 126.819 10.6547 127.064 10.0094 127.064ZM10.0094 126.512C10.4574 126.512 10.788 126.323 11.0014 125.944C11.2147 125.565 11.3214 124.976 11.3214 124.176C11.3214 123.371 11.2147 122.784 11.0014 122.416C10.7934 122.043 10.4627 121.856 10.0094 121.856C9.56138 121.856 9.23071 122.043 9.01738 122.416C8.80404 122.789 8.69738 123.376 8.69738 124.176C8.69738 124.976 8.80404 125.565 9.01738 125.944C9.23071 126.323 9.56138 126.512 10.0094 126.512ZM14.8063 127.064C14.1609 127.064 13.6703 126.819 13.3343 126.328C12.9983 125.837 12.8303 125.123 12.8303 124.184C12.8303 123.24 12.9983 122.523 13.3343 122.032C13.6703 121.541 14.1609 121.296 14.8063 121.296C15.4516 121.296 15.9423 121.541 16.2783 122.032C16.6143 122.517 16.7823 123.232 16.7823 124.176C16.7823 125.12 16.6143 125.837 16.2783 126.328C15.9423 126.819 15.4516 127.064 14.8063 127.064ZM14.8063 126.512C15.2543 126.512 15.5849 126.323 15.7983 125.944C16.0116 125.565 16.1183 124.976 16.1183 124.176C16.1183 123.371 16.0116 122.784 15.7983 122.416C15.5903 122.043 15.2596 121.856 14.8063 121.856C14.3583 121.856 14.0276 122.043 13.8143 122.416C13.6009 122.789 13.4943 123.376 13.4943 124.176C13.4943 124.976 13.6009 125.565 13.8143 125.944C14.0276 126.323 14.3583 126.512 14.8063 126.512ZM19.6031 127.064C18.9578 127.064 18.4671 126.819 18.1311 126.328C17.7951 125.837 17.6271 125.123 17.6271 124.184C17.6271 123.24 17.7951 122.523 18.1311 122.032C18.4671 121.541 18.9578 121.296 19.6031 121.296C20.2485 121.296 20.7391 121.541 21.0751 122.032C21.4111 122.517 21.5791 123.232 21.5791 124.176C21.5791 125.12 21.4111 125.837 21.0751 126.328C20.7391 126.819 20.2485 127.064 19.6031 127.064ZM19.6031 126.512C20.0511 126.512 20.3818 126.323 20.5951 125.944C20.8085 125.565 20.9151 124.976 20.9151 124.176C20.9151 123.371 20.8085 122.784 20.5951 122.416C20.3871 122.043 20.0565 121.856 19.6031 121.856C19.1551 121.856 18.8245 122.043 18.6111 122.416C18.3978 122.789 18.2911 123.376 18.2911 124.176C18.2911 124.976 18.3978 125.565 18.6111 125.944C18.8245 126.323 19.1551 126.512 19.6031 126.512Z" fill="#2F2F2F"/>
<path d="M7.1245 71.448V72H3.4925V71.504L5.4685 69.328C5.73517 69.0293 5.92717 68.7627 6.0445 68.528C6.16717 68.288 6.2285 68.048 6.2285 67.808C6.2285 67.4987 6.13783 67.2613 5.9565 67.096C5.77517 66.9307 5.51917 66.848 5.1885 66.848C4.6445 66.848 4.11117 67.064 3.5885 67.496L3.3405 66.992C3.5645 66.7787 3.8445 66.6107 4.1805 66.488C4.52183 66.36 4.86317 66.296 5.2045 66.296C5.72183 66.296 6.12983 66.4293 6.4285 66.696C6.7325 66.9627 6.8845 67.3227 6.8845 67.776C6.8845 68.1013 6.80983 68.4133 6.6605 68.712C6.5165 69.0107 6.2765 69.344 5.9405 69.712L4.3405 71.448H7.1245ZM10.0094 72.064C9.36404 72.064 8.87338 71.8187 8.53738 71.328C8.20138 70.8373 8.03338 70.1227 8.03338 69.184C8.03338 68.24 8.20138 67.5227 8.53738 67.032C8.87338 66.5413 9.36404 66.296 10.0094 66.296C10.6547 66.296 11.1454 66.5413 11.4814 67.032C11.8174 67.5173 11.9854 68.232 11.9854 69.176C11.9854 70.12 11.8174 70.8373 11.4814 71.328C11.1454 71.8187 10.6547 72.064 10.0094 72.064ZM10.0094 71.512C10.4574 71.512 10.788 71.3227 11.0014 70.944C11.2147 70.5653 11.3214 69.976 11.3214 69.176C11.3214 68.3707 11.2147 67.784 11.0014 67.416C10.7934 67.0427 10.4627 66.856 10.0094 66.856C9.56138 66.856 9.23071 67.0427 9.01738 67.416C8.80404 67.7893 8.69738 68.376 8.69738 69.176C8.69738 69.976 8.80404 70.5653 9.01738 70.944C9.23071 71.3227 9.56138 71.512 10.0094 71.512ZM14.8063 72.064C14.1609 72.064 13.6703 71.8187 13.3343 71.328C12.9983 70.8373 12.8303 70.1227 12.8303 69.184C12.8303 68.24 12.9983 67.5227 13.3343 67.032C13.6703 66.5413 14.1609 66.296 14.8063 66.296C15.4516 66.296 15.9423 66.5413 16.2783 67.032C16.6143 67.5173 16.7823 68.232 16.7823 69.176C16.7823 70.12 16.6143 70.8373 16.2783 71.328C15.9423 71.8187 15.4516 72.064 14.8063 72.064ZM14.8063 71.512C15.2543 71.512 15.5849 71.3227 15.7983 70.944C16.0116 70.5653 16.1183 69.976 16.1183 69.176C16.1183 68.3707 16.0116 67.784 15.7983 67.416C15.5903 67.0427 15.2596 66.856 14.8063 66.856C14.3583 66.856 14.0276 67.0427 13.8143 67.416C13.6009 67.7893 13.4943 68.376 13.4943 69.176C13.4943 69.976 13.6009 70.5653 13.8143 70.944C14.0276 71.3227 14.3583 71.512 14.8063 71.512ZM19.6031 72.064C18.9578 72.064 18.4671 71.8187 18.1311 71.328C17.7951 70.8373 17.6271 70.1227 17.6271 69.184C17.6271 68.24 17.7951 67.5227 18.1311 67.032C18.4671 66.5413 18.9578 66.296 19.6031 66.296C20.2485 66.296 20.7391 66.5413 21.0751 67.032C21.4111 67.5173 21.5791 68.232 21.5791 69.176C21.5791 70.12 21.4111 70.8373 21.0751 71.328C20.7391 71.8187 20.2485 72.064 19.6031 72.064ZM19.6031 71.512C20.0511 71.512 20.3818 71.3227 20.5951 70.944C20.8085 70.5653 20.9151 69.976 20.9151 69.176C20.9151 68.3707 20.8085 67.784 20.5951 67.416C20.3871 67.0427 20.0565 66.856 19.6031 66.856C19.1551 66.856 18.8245 67.0427 18.6111 67.416C18.3978 67.7893 18.2911 68.376 18.2911 69.176C18.2911 69.976 18.3978 70.5653 18.6111 70.944C18.8245 71.3227 19.1551 71.512 19.6031 71.512Z" fill="#2F2F2F"/>
<path d="M5.9885 14.104C6.31917 14.2 6.5725 14.3653 6.7485 14.6C6.9245 14.8293 7.0125 15.12 7.0125 15.472C7.0125 15.9627 6.8445 16.3493 6.5085 16.632C6.17783 16.9147 5.72717 17.056 5.1565 17.056C4.79383 17.056 4.4445 16.9947 4.1085 16.872C3.7725 16.7493 3.48983 16.5787 3.2605 16.36L3.5085 15.856C4.0205 16.288 4.5645 16.504 5.1405 16.504C5.5405 16.504 5.8445 16.416 6.0525 16.24C6.2605 16.0587 6.3645 15.7947 6.3645 15.448C6.3645 14.76 5.9325 14.416 5.0685 14.416H4.4205V13.864H4.9405C5.3565 13.864 5.6765 13.7733 5.9005 13.592C6.1245 13.4053 6.2365 13.1387 6.2365 12.792C6.2365 12.488 6.14583 12.256 5.9645 12.096C5.78317 11.9307 5.5245 11.848 5.1885 11.848C4.6445 11.848 4.11117 12.064 3.5885 12.496L3.3405 11.992C3.56983 11.7733 3.84983 11.6027 4.1805 11.48C4.51117 11.3573 4.85517 11.296 5.2125 11.296C5.7245 11.296 6.12983 11.4267 6.4285 11.688C6.7325 11.944 6.8845 12.2907 6.8845 12.728C6.8845 13.0533 6.8045 13.3387 6.6445 13.584C6.48983 13.824 6.27117 13.9973 5.9885 14.104ZM10.0094 17.064C9.36404 17.064 8.87338 16.8187 8.53738 16.328C8.20138 15.8373 8.03338 15.1227 8.03338 14.184C8.03338 13.24 8.20138 12.5227 8.53738 12.032C8.87338 11.5413 9.36404 11.296 10.0094 11.296C10.6547 11.296 11.1454 11.5413 11.4814 12.032C11.8174 12.5173 11.9854 13.232 11.9854 14.176C11.9854 15.12 11.8174 15.8373 11.4814 16.328C11.1454 16.8187 10.6547 17.064 10.0094 17.064ZM10.0094 16.512C10.4574 16.512 10.788 16.3227 11.0014 15.944C11.2147 15.5653 11.3214 14.976 11.3214 14.176C11.3214 13.3707 11.2147 12.784 11.0014 12.416C10.7934 12.0427 10.4627 11.856 10.0094 11.856C9.56138 11.856 9.23071 12.0427 9.01738 12.416C8.80404 12.7893 8.69738 13.376 8.69738 14.176C8.69738 14.976 8.80404 15.5653 9.01738 15.944C9.23071 16.3227 9.56138 16.512 10.0094 16.512ZM14.8063 17.064C14.1609 17.064 13.6703 16.8187 13.3343 16.328C12.9983 15.8373 12.8303 15.1227 12.8303 14.184C12.8303 13.24 12.9983 12.5227 13.3343 12.032C13.6703 11.5413 14.1609 11.296 14.8063 11.296C15.4516 11.296 15.9423 11.5413 16.2783 12.032C16.6143 12.5173 16.7823 13.232 16.7823 14.176C16.7823 15.12 16.6143 15.8373 16.2783 16.328C15.9423 16.8187 15.4516 17.064 14.8063 17.064ZM14.8063 16.512C15.2543 16.512 15.5849 16.3227 15.7983 15.944C16.0116 15.5653 16.1183 14.976 16.1183 14.176C16.1183 13.3707 16.0116 12.784 15.7983 12.416C15.5903 12.0427 15.2596 11.856 14.8063 11.856C14.3583 11.856 14.0276 12.0427 13.8143 12.416C13.6009 12.7893 13.4943 13.376 13.4943 14.176C13.4943 14.976 13.6009 15.5653 13.8143 15.944C14.0276 16.3227 14.3583 16.512 14.8063 16.512ZM19.6031 17.064C18.9578 17.064 18.4671 16.8187 18.1311 16.328C17.7951 15.8373 17.6271 15.1227 17.6271 14.184C17.6271 13.24 17.7951 12.5227 18.1311 12.032C18.4671 11.5413 18.9578 11.296 19.6031 11.296C20.2485 11.296 20.7391 11.5413 21.0751 12.032C21.4111 12.5173 21.5791 13.232 21.5791 14.176C21.5791 15.12 21.4111 15.8373 21.0751 16.328C20.7391 16.8187 20.2485 17.064 19.6031 17.064ZM19.6031 16.512C20.0511 16.512 20.3818 16.3227 20.5951 15.944C20.8085 15.5653 20.9151 14.976 20.9151 14.176C20.9151 13.3707 20.8085 12.784 20.5951 12.416C20.3871 12.0427 20.0565 11.856 19.6031 11.856C19.1551 11.856 18.8245 12.0427 18.6111 12.416C18.3978 12.7893 18.2911 13.376 18.2911 14.176C18.2911 14.976 18.3978 15.5653 18.6111 15.944C18.8245 16.3227 19.1551 16.512 19.6031 16.512Z" fill="#2F2F2F"/>
<g filter="url(#filter0_d_497_6809)">
<path d="M86 169H80C77.7909 169 76 170.791 76 173V175C76 177.209 77.7909 179 80 179H86C88.2091 179 90 177.209 90 175V173C90 170.791 88.2091 169 86 169Z" fill="#0087FF"/>
</g>
<g filter="url(#filter1_d_497_6809)">
<path d="M107 125H101C98.7909 125 97 126.791 97 129V175C97 177.209 98.7909 179 101 179H107C109.209 179 111 177.209 111 175V129C111 126.791 109.209 125 107 125Z" fill="#0087FF"/>
</g>
<g filter="url(#filter2_d_497_6809)">
<path d="M128 85H122C119.791 85 118 86.7909 118 89V175C118 177.209 119.791 179 122 179H128C130.209 179 132 177.209 132 175V89C132 86.7909 130.209 85 128 85Z" fill="#0087FF"/>
</g>
<g filter="url(#filter3_d_497_6809)">
<path d="M148 48H142C139.791 48 138 49.7909 138 52V175C138 177.209 139.791 179 142 179H148C150.209 179 152 177.209 152 175V52C152 49.7909 150.209 48 148 48Z" fill="#0087FF"/>
</g>
<g filter="url(#filter4_d_497_6809)">
<path d="M169 29H163C160.791 29 159 30.7909 159 33V175C159 177.209 160.791 179 163 179H169C171.209 179 173 177.209 173 175V33C173 30.7909 171.209 29 169 29Z" fill="#0087FF"/>
</g>
<g filter="url(#filter5_d_497_6809)">
<path d="M190 91H184C181.791 91 180 92.7909 180 95V175C180 177.209 181.791 179 184 179H190C192.209 179 194 177.209 194 175V95C194 92.7909 192.209 91 190 91Z" fill="#0087FF"/>
</g>
<g filter="url(#filter6_d_497_6809)">
<path d="M211 96H205C202.791 96 201 97.7909 201 100V175C201 177.209 202.791 179 205 179H211C213.209 179 215 177.209 215 175V100C215 97.7909 213.209 96 211 96Z" fill="#0087FF"/>
</g>
<g filter="url(#filter7_d_497_6809)">
<path d="M232 135H226C223.791 135 222 136.791 222 139V175C222 177.209 223.791 179 226 179H232C234.209 179 236 177.209 236 175V139C236 136.791 234.209 135 232 135Z" fill="#0087FF"/>
</g>
<g filter="url(#filter8_d_497_6809)">
<path d="M253 171H247C244.791 171 243 172.791 243 175C243 177.209 244.791 179 247 179H253C255.209 179 257 177.209 257 175C257 172.791 255.209 171 253 171Z" fill="#0087FF"/>
</g>
<path d="M88.5001 2.48V8H87.7961V2.48H88.5001ZM90.2841 2.48V3.104H86.0201V2.48H90.2841ZM95.0392 2.376C95.4392 2.376 95.7779 2.424 96.0552 2.52C96.3379 2.616 96.5619 2.776 96.7272 3C96.8979 3.21867 97.0205 3.512 97.0952 3.88C97.1752 4.248 97.2152 4.70133 97.2152 5.24C97.2152 5.77867 97.1752 6.232 97.0952 6.6C97.0205 6.968 96.8979 7.264 96.7272 7.488C96.5619 7.70667 96.3379 7.864 96.0552 7.96C95.7779 8.056 95.4392 8.104 95.0392 8.104C94.6392 8.104 94.2979 8.056 94.0152 7.96C93.7379 7.864 93.5139 7.70667 93.3432 7.488C93.1725 7.264 93.0472 6.968 92.9672 6.6C92.8925 6.232 92.8552 5.77867 92.8552 5.24C92.8552 4.70133 92.8925 4.248 92.9672 3.88C93.0472 3.512 93.1725 3.21867 93.3432 3C93.5139 2.776 93.7379 2.616 94.0152 2.52C94.2979 2.424 94.6392 2.376 95.0392 2.376ZM95.0392 3.008C94.6765 3.008 94.3885 3.07733 94.1752 3.216C93.9672 3.35467 93.8179 3.58667 93.7272 3.912C93.6419 4.232 93.5992 4.67467 93.5992 5.24C93.5992 5.8 93.6419 6.24267 93.7272 6.568C93.8179 6.89333 93.9672 7.12533 94.1752 7.264C94.3885 7.40267 94.6765 7.472 95.0392 7.472C95.4019 7.472 95.6872 7.40267 95.8952 7.264C96.1085 7.12533 96.2579 6.89333 96.3432 6.568C96.4339 6.24267 96.4792 5.8 96.4792 5.24C96.4792 4.67467 96.4339 4.232 96.3432 3.912C96.2579 3.58667 96.1085 3.35467 95.8952 3.216C95.6872 3.07733 95.4019 3.008 95.0392 3.008ZM102.274 2.48V8H101.57V2.48H102.274ZM104.058 2.48V3.104H99.7936V2.48H104.058ZM108.637 2.48C108.701 2.48 108.757 2.49867 108.805 2.536C108.853 2.568 108.885 2.61333 108.901 2.672L110.677 8H109.949L108.517 3.472C108.496 3.39733 108.472 3.32267 108.445 3.248C108.424 3.168 108.403 3.09333 108.381 3.024H108.157C108.136 3.09333 108.115 3.168 108.093 3.248C108.072 3.32267 108.048 3.39733 108.021 3.472L106.589 8H105.861L107.637 2.672C107.653 2.61333 107.685 2.568 107.733 2.536C107.781 2.49867 107.837 2.48 107.901 2.48H108.637ZM109.661 5.664V6.272H106.861V5.664H109.661ZM114.134 2.48V6.88C114.134 7.06133 114.176 7.19467 114.262 7.28C114.352 7.36533 114.488 7.408 114.67 7.408H116.662L116.694 7.952C116.347 7.97867 115.992 7.99467 115.63 8C115.272 8.00533 114.915 8.008 114.558 8.008C114.152 8.008 113.864 7.90933 113.694 7.712C113.523 7.51467 113.438 7.26667 113.438 6.968V2.48H114.134ZM124.173 2.472C124.44 2.472 124.706 2.472 124.973 2.472C125.245 2.472 125.512 2.47733 125.773 2.488C126.04 2.49333 126.296 2.504 126.541 2.52L126.509 3.072H124.293C124.128 3.072 124.005 3.11467 123.925 3.2C123.85 3.28 123.813 3.41333 123.813 3.6V6.88C123.813 7.06667 123.85 7.20267 123.925 7.288C124.005 7.37333 124.128 7.416 124.293 7.416H126.509L126.541 7.96C126.296 7.976 126.04 7.98667 125.773 7.992C125.512 7.99733 125.245 8 124.973 8C124.706 8.00533 124.44 8.008 124.173 8.008C123.848 8.008 123.589 7.92267 123.397 7.752C123.21 7.576 123.114 7.34133 123.109 7.048V3.432C123.114 3.13333 123.21 2.89867 123.397 2.728C123.589 2.55733 123.848 2.472 124.173 2.472ZM123.253 4.8H126.197V5.368H123.253V4.8ZM133.882 2.48V7.72C133.882 7.90667 133.791 8 133.61 8H132.922C132.842 8 132.778 7.98133 132.73 7.944C132.682 7.90667 132.642 7.85067 132.61 7.776L130.746 3.864C130.698 3.75733 130.642 3.63733 130.578 3.504C130.514 3.37067 130.466 3.248 130.434 3.136H130.306C130.316 3.25333 130.324 3.37333 130.33 3.496C130.335 3.61867 130.338 3.74133 130.338 3.864V8H129.634V2.76C129.634 2.57333 129.727 2.48 129.914 2.48H130.578C130.658 2.48 130.722 2.49867 130.77 2.536C130.818 2.57333 130.858 2.62933 130.89 2.704L132.698 6.52C132.756 6.632 132.818 6.76 132.882 6.904C132.951 7.04267 133.015 7.18133 133.074 7.32H133.21C133.204 7.176 133.199 7.03467 133.194 6.896C133.188 6.75733 133.186 6.61867 133.186 6.48V2.48H133.882ZM138.29 2.472C138.557 2.472 138.823 2.472 139.09 2.472C139.362 2.472 139.629 2.47733 139.89 2.488C140.157 2.49333 140.413 2.504 140.658 2.52L140.626 3.072H138.41C138.245 3.072 138.122 3.11467 138.042 3.2C137.967 3.28 137.93 3.41333 137.93 3.6V6.88C137.93 7.06667 137.967 7.20267 138.042 7.288C138.122 7.37333 138.245 7.416 138.41 7.416H140.626L140.658 7.96C140.413 7.976 140.157 7.98667 139.89 7.992C139.629 7.99733 139.362 8 139.09 8C138.823 8.00533 138.557 8.008 138.29 8.008C137.965 8.008 137.706 7.92267 137.514 7.752C137.327 7.576 137.231 7.34133 137.226 7.048V3.432C137.231 3.13333 137.327 2.89867 137.514 2.728C137.706 2.55733 137.965 2.472 138.29 2.472ZM137.37 4.8H140.314V5.368H137.37V4.8ZM145.655 2.408C146.081 2.408 146.425 2.456 146.687 2.552C146.948 2.64267 147.137 2.80267 147.255 3.032C147.377 3.26133 147.439 3.584 147.439 4C147.439 4.29867 147.404 4.54933 147.335 4.752C147.265 4.94933 147.156 5.104 147.007 5.216C146.863 5.32267 146.668 5.392 146.423 5.424V5.464C146.513 5.48533 146.601 5.53067 146.687 5.6C146.777 5.664 146.86 5.752 146.935 5.864C147.009 5.97067 147.065 6.10133 147.103 6.256L147.639 8H146.887L146.399 6.272C146.329 6.064 146.236 5.91733 146.119 5.832C146.001 5.74133 145.849 5.696 145.663 5.696C145.337 5.696 145.055 5.696 144.815 5.696C144.575 5.69067 144.375 5.68533 144.215 5.68C144.055 5.67467 143.927 5.672 143.831 5.672L143.855 5.088H145.639C145.911 5.08267 146.124 5.05067 146.279 4.992C146.439 4.93333 146.553 4.82933 146.623 4.68C146.692 4.52533 146.727 4.312 146.727 4.04C146.727 3.768 146.692 3.56 146.623 3.416C146.553 3.26667 146.439 3.16267 146.279 3.104C146.124 3.04533 145.911 3.016 145.639 3.016C145.201 3.016 144.823 3.01867 144.503 3.024C144.188 3.02933 143.975 3.032 143.863 3.032L143.751 2.48C143.953 2.45867 144.143 2.44267 144.319 2.432C144.495 2.42133 144.687 2.416 144.895 2.416C145.108 2.41067 145.361 2.408 145.655 2.408ZM144.447 2.48V8H143.751V2.48H144.447ZM152.8 2.376C152.987 2.376 153.168 2.38133 153.344 2.392C153.52 2.40267 153.691 2.42133 153.856 2.448C154.021 2.46933 154.181 2.50133 154.336 2.544L154.264 3.072C154.099 3.056 153.931 3.04267 153.76 3.032C153.595 3.02133 153.435 3.016 153.28 3.016C153.125 3.01067 152.979 3.008 152.84 3.008C152.541 3.008 152.288 3.03733 152.08 3.096C151.877 3.14933 151.715 3.256 151.592 3.416C151.469 3.576 151.379 3.80533 151.32 4.104C151.267 4.40267 151.24 4.792 151.24 5.272C151.24 5.816 151.277 6.25067 151.352 6.576C151.427 6.896 151.552 7.128 151.728 7.272C151.904 7.416 152.139 7.488 152.432 7.488C152.635 7.488 152.819 7.45867 152.984 7.4C153.155 7.34133 153.312 7.26667 153.456 7.176C153.605 7.08 153.749 6.98133 153.888 6.88L153.984 7.312C153.888 7.424 153.755 7.54133 153.584 7.664C153.419 7.78667 153.224 7.89067 153 7.976C152.776 8.06133 152.523 8.104 152.24 8.104C151.829 8.104 151.493 8.00267 151.232 7.8C150.976 7.592 150.789 7.27733 150.672 6.856C150.555 6.42933 150.496 5.88533 150.496 5.224C150.496 4.49333 150.568 3.92267 150.712 3.512C150.861 3.096 151.104 2.80267 151.44 2.632C151.781 2.46133 152.235 2.376 152.8 2.376ZM154.48 4.808V8H153.968L153.856 7.184L153.792 7.024V4.808H154.48ZM161.448 2.48L159.584 6.128H158.952L157.08 2.48H157.832L158.992 4.808C159.04 4.90933 159.083 5.01333 159.12 5.12C159.163 5.22667 159.203 5.33067 159.24 5.432H159.296C159.334 5.33067 159.374 5.22667 159.416 5.12C159.459 5.01333 159.502 4.912 159.544 4.816L160.704 2.48H161.448ZM159.616 5.632V8H158.912V5.632H159.616ZM169.645 1.68L169.733 2.008C169.2 2.26933 168.811 2.69067 168.565 3.272C168.325 3.848 168.205 4.58933 168.205 5.496C168.205 6.088 168.259 6.61333 168.365 7.072C168.472 7.53067 168.637 7.91733 168.861 8.232C169.085 8.552 169.376 8.80533 169.733 8.992L169.645 9.32C168.92 9.03733 168.387 8.58933 168.045 7.976C167.709 7.35733 167.541 6.53333 167.541 5.504C167.541 4.46933 167.709 3.64267 168.045 3.024C168.387 2.40533 168.92 1.95733 169.645 1.68ZM176.277 2.48L174.669 4.768C174.621 4.83733 174.573 4.89867 174.525 4.952C174.482 5 174.429 5.056 174.365 5.12V5.136C174.434 5.2 174.498 5.264 174.557 5.328C174.615 5.392 174.666 5.456 174.709 5.52L176.389 8H175.597L173.637 5.112L175.509 2.48H176.277ZM173.205 2.48V4.208C173.205 4.368 173.197 4.52 173.181 4.664C173.165 4.808 173.141 4.95733 173.109 5.112C173.135 5.26133 173.157 5.41067 173.173 5.56C173.194 5.70933 173.205 5.85333 173.205 5.992V8H172.509V2.48H173.205ZM174.021 4.84V5.408H172.957V4.84H174.021ZM185.875 2.48L184.755 7.792C184.739 7.85067 184.707 7.90133 184.659 7.944C184.611 7.98133 184.55 8 184.475 8H183.675C183.606 8 183.544 7.98133 183.491 7.944C183.443 7.90133 183.414 7.848 183.403 7.784L182.539 3.632C182.518 3.52533 182.496 3.42133 182.475 3.32C182.454 3.21333 182.432 3.10933 182.411 3.008H182.243C182.222 3.10933 182.2 3.21333 182.179 3.32C182.163 3.42667 182.144 3.53067 182.123 3.632L181.267 7.784C181.251 7.848 181.216 7.90133 181.163 7.944C181.115 7.98133 181.056 8 180.987 8H180.179C180.11 8 180.048 7.98133 179.995 7.944C179.947 7.90133 179.918 7.85067 179.907 7.792L178.787 2.48H179.531L180.395 6.784C180.416 6.88533 180.435 6.99467 180.451 7.112C180.467 7.224 180.486 7.34133 180.507 7.464H180.691C180.712 7.34133 180.734 7.224 180.755 7.112C180.776 7 180.798 6.89067 180.819 6.784L181.675 2.712C181.686 2.64267 181.715 2.58667 181.763 2.544C181.816 2.50133 181.878 2.48 181.947 2.48H182.715C182.784 2.48 182.843 2.50133 182.891 2.544C182.939 2.58667 182.971 2.64267 182.987 2.712L183.843 6.784C183.87 6.90133 183.891 7.016 183.907 7.128C183.928 7.24 183.944 7.352 183.955 7.464H184.155C184.171 7.352 184.187 7.24 184.203 7.128C184.219 7.01067 184.238 6.89867 184.259 6.792L185.131 2.48H185.875ZM189.525 2.48V8H188.821V2.48H189.525ZM192.157 4.744V5.352H189.461V4.744H192.157ZM192.773 2.48V8H192.069V2.48H192.773ZM195.633 1.68C196.364 1.95733 196.897 2.40533 197.233 3.024C197.574 3.64267 197.745 4.46933 197.745 5.504C197.745 6.53333 197.574 7.35733 197.233 7.976C196.897 8.58933 196.364 9.03733 195.633 9.32L195.553 8.992C195.91 8.80533 196.198 8.552 196.417 8.232C196.641 7.91733 196.806 7.53067 196.913 7.072C197.02 6.61333 197.073 6.088 197.073 5.496C197.073 4.58933 196.953 3.848 196.713 3.272C196.473 2.69067 196.086 2.26933 195.553 2.008L195.633 1.68Z" fill="#2F2F2F"/>
<defs>
<filter id="filter0_d_497_6809" x="60" y="156" width="58" height="54" filterUnits="userSpaceOnUse" color-interpolation-filters="sRGB">
<feFlood flood-opacity="0" result="BackgroundImageFix"/>
<feColorMatrix in="SourceAlpha" type="matrix" values="0 0 0 0 0 0 0 0 0 0 0 0 0 0 0 0 0 0 127 0" result="hardAlpha"/>
<feOffset dx="6" dy="9"/>
<feGaussianBlur stdDeviation="11"/>
<feComposite in2="hardAlpha" operator="out"/>
<feColorMatrix type="matrix" values="0 0 0 0 0 0 0 0 0 0.529412 0 0 0 0 1 0 0 0 0.08 0"/>
<feBlend mode="normal" in2="BackgroundImageFix" result="effect1_dropShadow_497_6809"/>
<feBlend mode="normal" in="SourceGraphic" in2="effect1_dropShadow_497_6809" result="shape"/>
</filter>
<filter id="filter1_d_497_6809" x="81" y="112" width="58" height="98" filterUnits="userSpaceOnUse" color-interpolation-filters="sRGB">
<feFlood flood-opacity="0" result="BackgroundImageFix"/>
<feColorMatrix in="SourceAlpha" type="matrix" values="0 0 0 0 0 0 0 0 0 0 0 0 0 0 0 0 0 0 127 0" result="hardAlpha"/>
<feOffset dx="6" dy="9"/>
<feGaussianBlur stdDeviation="11"/>
<feComposite in2="hardAlpha" operator="out"/>
<feColorMatrix type="matrix" values="0 0 0 0 0 0 0 0 0 0.529412 0 0 0 0 1 0 0 0 0.08 0"/>
<feBlend mode="normal" in2="BackgroundImageFix" result="effect1_dropShadow_497_6809"/>
<feBlend mode="normal" in="SourceGraphic" in2="effect1_dropShadow_497_6809" result="shape"/>
</filter>
<filter id="filter2_d_497_6809" x="102" y="72" width="58" height="138" filterUnits="userSpaceOnUse" color-interpolation-filters="sRGB">
<feFlood flood-opacity="0" result="BackgroundImageFix"/>
<feColorMatrix in="SourceAlpha" type="matrix" values="0 0 0 0 0 0 0 0 0 0 0 0 0 0 0 0 0 0 127 0" result="hardAlpha"/>
<feOffset dx="6" dy="9"/>
<feGaussianBlur stdDeviation="11"/>
<feComposite in2="hardAlpha" operator="out"/>
<feColorMatrix type="matrix" values="0 0 0 0 0 0 0 0 0 0.529412 0 0 0 0 1 0 0 0 0.08 0"/>
<feBlend mode="normal" in2="BackgroundImageFix" result="effect1_dropShadow_497_6809"/>
<feBlend mode="normal" in="SourceGraphic" in2="effect1_dropShadow_497_6809" result="shape"/>
</filter>
<filter id="filter3_d_497_6809" x="122" y="35" width="58" height="175" filterUnits="userSpaceOnUse" color-interpolation-filters="sRGB">
<feFlood flood-opacity="0" result="BackgroundImageFix"/>
<feColorMatrix in="SourceAlpha" type="matrix" values="0 0 0 0 0 0 0 0 0 0 0 0 0 0 0 0 0 0 127 0" result="hardAlpha"/>
<feOffset dx="6" dy="9"/>
<feGaussianBlur stdDeviation="11"/>
<feComposite in2="hardAlpha" operator="out"/>
<feColorMatrix type="matrix" values="0 0 0 0 0 0 0 0 0 0.529412 0 0 0 0 1 0 0 0 0.08 0"/>
<feBlend mode="normal" in2="BackgroundImageFix" result="effect1_dropShadow_497_6809"/>
<feBlend mode="normal" in="SourceGraphic" in2="effect1_dropShadow_497_6809" result="shape"/>
</filter>
<filter id="filter4_d_497_6809" x="143" y="16" width="58" height="194" filterUnits="userSpaceOnUse" color-interpolation-filters="sRGB">
<feFlood flood-opacity="0" result="BackgroundImageFix"/>
<feColorMatrix in="SourceAlpha" type="matrix" values="0 0 0 0 0 0 0 0 0 0 0 0 0 0 0 0 0 0 127 0" result="hardAlpha"/>
<feOffset dx="6" dy="9"/>
<feGaussianBlur stdDeviation="11"/>
<feComposite in2="hardAlpha" operator="out"/>
<feColorMatrix type="matrix" values="0 0 0 0 0 0 0 0 0 0.529412 0 0 0 0 1 0 0 0 0.08 0"/>
<feBlend mode="normal" in2="BackgroundImageFix" result="effect1_dropShadow_497_6809"/>
<feBlend mode="normal" in="SourceGraphic" in2="effect1_dropShadow_497_6809" result="shape"/>
</filter>
<filter id="filter5_d_497_6809" x="164" y="78" width="58" height="132" filterUnits="userSpaceOnUse" color-interpolation-filters="sRGB">
<feFlood flood-opacity="0" result="BackgroundImageFix"/>
<feColorMatrix in="SourceAlpha" type="matrix" values="0 0 0 0 0 0 0 0 0 0 0 0 0 0 0 0 0 0 127 0" result="hardAlpha"/>
<feOffset dx="6" dy="9"/>
<feGaussianBlur stdDeviation="11"/>
<feComposite in2="hardAlpha" operator="out"/>
<feColorMatrix type="matrix" values="0 0 0 0 0 0 0 0 0 0.529412 0 0 0 0 1 0 0 0 0.08 0"/>
<feBlend mode="normal" in2="BackgroundImageFix" result="effect1_dropShadow_497_6809"/>
<feBlend mode="normal" in="SourceGraphic" in2="effect1_dropShadow_497_6809" result="shape"/>
</filter>
<filter id="filter6_d_497_6809" x="185" y="83" width="58" height="127" filterUnits="userSpaceOnUse" color-interpolation-filters="sRGB">
<feFlood flood-opacity="0" result="BackgroundImageFix"/>
<feColorMatrix in="SourceAlpha" type="matrix" values="0 0 0 0 0 0 0 0 0 0 0 0 0 0 0 0 0 0 127 0" result="hardAlpha"/>
<feOffset dx="6" dy="9"/>
<feGaussianBlur stdDeviation="11"/>
<feComposite in2="hardAlpha" operator="out"/>
<feColorMatrix type="matrix" values="0 0 0 0 0 0 0 0 0 0.529412 0 0 0 0 1 0 0 0 0.08 0"/>
<feBlend mode="normal" in2="BackgroundImageFix" result="effect1_dropShadow_497_6809"/>
<feBlend mode="normal" in="SourceGraphic" in2="effect1_dropShadow_497_6809" result="shape"/>
</filter>
<filter id="filter7_d_497_6809" x="206" y="122" width="58" height="88" filterUnits="userSpaceOnUse" color-interpolation-filters="sRGB">
<feFlood flood-opacity="0" result="BackgroundImageFix"/>
<feColorMatrix in="SourceAlpha" type="matrix" values="0 0 0 0 0 0 0 0 0 0 0 0 0 0 0 0 0 0 127 0" result="hardAlpha"/>
<feOffset dx="6" dy="9"/>
<feGaussianBlur stdDeviation="11"/>
<feComposite in2="hardAlpha" operator="out"/>
<feColorMatrix type="matrix" values="0 0 0 0 0 0 0 0 0 0.529412 0 0 0 0 1 0 0 0 0.08 0"/>
<feBlend mode="normal" in2="BackgroundImageFix" result="effect1_dropShadow_497_6809"/>
<feBlend mode="normal" in="SourceGraphic" in2="effect1_dropShadow_497_6809" result="shape"/>
</filter>
<filter id="filter8_d_497_6809" x="227" y="158" width="58" height="52" filterUnits="userSpaceOnUse" color-interpolation-filters="sRGB">
<feFlood flood-opacity="0" result="BackgroundImageFix"/>
<feColorMatrix in="SourceAlpha" type="matrix" values="0 0 0 0 0 0 0 0 0 0 0 0 0 0 0 0 0 0 127 0" result="hardAlpha"/>
<feOffset dx="6" dy="9"/>
<feGaussianBlur stdDeviation="11"/>
<feComposite in2="hardAlpha" operator="out"/>
<feColorMatrix type="matrix" values="0 0 0 0 0 0 0 0 0 0.529412 0 0 0 0 1 0 0 0 0.08 0"/>
<feBlend mode="normal" in2="BackgroundImageFix" result="effect1_dropShadow_497_6809"/>
<feBlend mode="normal" in="SourceGraphic" in2="effect1_dropShadow_497_6809" result="shape"/>
</filter>
</defs>
</svg>
