<svg width="43" height="24" viewBox="0 0 43 24" fill="none" xmlns="http://www.w3.org/2000/svg">
<path d="M19.4738 0.384766C20.5455 0.384766 21.4196 1.25892 21.4196 2.33055C21.4196 3.4024 20.5455 4.27672 19.4738 4.27672C18.4018 4.27672 17.5281 3.4024 17.5281 2.33055C17.5281 1.25892 18.4018 0.384766 19.4738 0.384766ZM7.34301 13.7435C7.34301 13.5166 7.28851 13.2892 7.17595 13.0591C7.06664 12.8319 6.8721 12.6619 6.59572 12.5515C6.34683 12.4537 6.03381 12.4 5.66336 12.3907C5.29284 12.383 4.77358 12.3748 4.10235 12.3748H3.7834V15.2856H4.31775C4.85541 15.2856 5.31716 15.2779 5.69685 15.2617C6.07646 15.2419 6.37401 15.1796 6.59572 15.0754C6.90243 14.9335 7.10621 14.7508 7.20036 14.5267C7.29443 14.2998 7.34301 14.041 7.34301 13.7447V13.7435ZM8.17814 19.3423C8.17814 18.9072 8.09646 18.5697 7.9321 18.3333C7.77135 18.0936 7.49182 17.9169 7.10305 17.8001C6.83584 17.7215 6.46847 17.6773 5.99755 17.6709C5.5298 17.6632 5.04079 17.6632 4.53069 17.6632H3.7834V21.0909H4.0326C4.99214 21.0909 5.68161 21.0871 6.09763 21.0829C6.51073 21.075 6.89365 20.9976 7.24293 20.8432C7.60114 20.6885 7.84441 20.4835 7.97798 20.2279C8.11155 19.9727 8.17814 19.6796 8.17814 19.345V19.3423ZM11.7195 19.4019C11.7195 20.0672 11.5923 20.6602 11.3339 21.1838C11.0759 21.7102 10.7206 22.1425 10.271 22.4891C9.74862 22.8931 9.1744 23.183 8.54859 23.3565C7.92332 23.53 7.1273 23.6149 6.16777 23.6149H0.384766V9.8591H5.52648C6.59572 9.8591 7.37665 9.89497 7.87151 9.96903C8.36683 10.0417 8.85861 10.206 9.34461 10.458C9.84878 10.7229 10.2225 11.0794 10.4685 11.524C10.7174 11.9719 10.839 12.4828 10.839 13.0534C10.839 13.7191 10.6687 14.3057 10.3317 14.8134C9.99467 15.3242 9.51459 15.7182 8.89802 16.0022V16.0747C9.76702 16.2547 10.4533 16.6235 10.9603 17.1846C11.4675 17.7461 11.7195 18.4843 11.7195 19.4019ZM0.384766 5.50739H41.7865V7.97321H0.384766V5.50739ZM21.1373 23.6111H17.8101V9.85471H21.1373V23.6111ZM41.7924 23.6111H38.3253V14.3995L35.8184 20.3788H33.4137L30.9067 14.3995V23.6111H27.6222V9.85471H31.6693L34.7121 16.7548L37.7427 9.85471H41.7924V23.6111Z" fill="#B5152B"/>
</svg>
