<svg width="24" height="24" viewBox="0 0 24 24" fill="none" xmlns="http://www.w3.org/2000/svg">
<g clip-path="url(#clip0_3083_23024)">
<path d="M23.4897 0H0V24H23.4897V0Z" fill="#F0D723"/>
<path d="M6.25462 18.5002C6.25462 19.2286 6.1517 19.8908 5.19374 19.8908H4.59997V17.1104H5.06311C6.1517 17.1104 6.25462 17.7065 6.25462 18.5002ZM6.1517 14.6949C6.1517 15.2574 6.12003 15.9525 4.99582 15.9525H4.59997V13.471H5.09478C6.02107 13.471 6.1517 13.8015 6.1517 14.6949ZM7.97261 18.4349C7.97261 17.5411 7.54509 16.5487 6.28629 16.4822C7.44217 16.2498 7.74302 15.4229 7.74302 14.4966C7.74302 13.3387 7.44217 12.2806 5.36 12.2806H3.63805C3.2422 12.2806 2.94531 12.5779 2.94531 12.9409V20.4854C2.94531 20.9494 3.2422 21.0812 3.63805 21.0812H5.22541C7.4778 21.0812 7.97261 19.8247 7.97261 18.4349ZM14.2943 13.3387C14.4566 12.644 14.0608 12.2141 13.5303 12.2141C13.1028 12.2141 12.802 12.4786 12.707 12.9742L11.7451 17.9373C11.6461 18.4017 11.5788 18.963 11.5471 19.328C11.5155 18.963 11.4482 18.4017 11.3492 17.9373L10.2883 12.9742C10.1577 12.4128 9.82519 12.2141 9.42934 12.2141C8.79994 12.2141 8.50305 12.7758 8.66535 13.4381L10.2883 20.1553C10.4546 20.8171 10.7871 21.1805 11.5471 21.1805C12.2082 21.1805 12.6041 20.8171 12.7703 20.0888L14.2943 13.3387ZM20.5448 19.328V16.7138C20.5448 16.1841 20.3825 15.9525 19.8837 15.9525H18.431C17.9639 15.9525 17.7343 16.1841 17.7343 16.6144C17.7343 17.0114 17.9995 17.2426 18.431 17.2426H18.9258V19.7903C18.8268 19.8247 18.6606 19.8576 18.3637 19.8576C17.2038 19.8576 16.6417 19.2947 16.6417 16.846C16.6417 14.2322 17.3068 13.636 18.2964 13.636C19.0564 13.636 19.4206 13.9008 19.7848 13.9008C20.149 13.9008 20.4815 13.6032 20.4815 13.2069C20.4815 12.9409 20.3469 12.7758 20.2479 12.6765C19.7531 12.2806 18.7595 12.1797 18.332 12.1797C16.2775 12.1797 14.9554 13.5371 14.9554 16.7138C14.9554 19.7242 15.5531 21.1805 18.1658 21.1805C19.7848 21.1805 20.5448 20.6176 20.5448 19.328Z" fill="black"/>
</g>
<defs>
<clipPath id="clip0_3083_23024">
<rect width="23.4897" height="24" fill="white"/>
</clipPath>
</defs>
</svg>
