<svg width="52" height="24" viewBox="0 0 52 24" fill="none" xmlns="http://www.w3.org/2000/svg">
<path d="M2.89095 14.176H5.46424C5.95199 14.176 6.40763 14.5322 6.43237 15.0044H6.4558V13.0642H2.89095L2.88922 9.6586H6.32865C6.81858 9.6586 7.27465 10.0136 7.30025 10.4844H7.32282L7.31935 8.54293L0.101562 8.54597V8.56723C0.587579 8.59371 0.952092 9.10836 0.952092 9.58917V18.5106C0.952092 18.9897 0.587579 19.5065 0.101562 19.5339V19.5547H3.74322V19.5339C3.25677 19.5065 2.88922 18.9897 2.88922 18.5106L2.89095 14.176Z" fill="#E60012"/>
<path d="M10.3421 16.5944C10.3421 17.7391 11.2968 18.7289 12.475 18.7289C13.6518 18.7289 14.61 17.7261 14.61 16.5809V9.58923C14.61 9.10842 14.2441 8.59376 13.7568 8.56729V8.54646L17.4011 8.54299V8.56729C16.9146 8.59376 16.5462 9.10842 16.5462 9.58923V16.383C16.5462 18.5697 14.7332 19.8438 12.4845 19.8438C10.2319 19.8438 8.39936 18.5697 8.39936 16.383L8.40413 9.58923C8.40413 9.10842 8.03658 8.59376 7.55273 8.56729V8.54299H11.1918V8.56729C10.7066 8.59636 10.3404 9.11146 10.3404 9.58923L10.3421 16.5944Z" fill="#E60012"/>
<path d="M40.1192 10.3258C39.5087 9.342 38.1153 9.46047 38.1153 9.46047C35.8362 9.46047 35.9438 11.1941 35.9438 11.1941C35.9438 11.1941 35.7872 12.0637 36.9324 12.6569L39.211 13.8641C41.4107 15.041 41.1499 16.7134 41.1499 16.7134C41.1499 16.7134 41.2492 19.8378 36.649 19.8378C36.649 19.8378 35.3124 19.8786 34.5556 19.5957L33.9082 17.5722H33.9308C34.6316 18.5798 36.6677 18.7252 36.6677 18.7252C39.2527 18.6119 39.2704 16.8605 39.2704 16.8605C39.2704 16.8605 39.3867 16.1063 38.3748 15.56L36.107 14.3532C33.7394 13.0917 34.0106 11.3928 34.0106 11.3928C34.0106 11.3928 33.9546 8.3192 38.0246 8.3192C38.0246 8.3192 39.8515 8.36607 40.1427 8.6503V10.3258H40.1192Z" fill="#E60012"/>
<path d="M22.3614 4.71457C22.7649 5.10946 23.3282 5.35203 23.9431 5.35203C25.182 5.35203 26.1848 4.37739 26.1848 3.17277C26.1848 1.97161 25.182 0.995237 23.9431 0.995237C23.9431 0.995237 22.2173 0.83598 21.4405 2.98313L21.4431 1.37147C22.0211 0.635931 22.9159 0.101313 23.9431 0.101313C25.691 0.101313 27.1052 1.47518 27.1052 3.17277C27.1052 4.86775 25.691 6.24682 23.9431 6.24682C23.07 6.24682 22.2802 5.90444 21.7096 5.34596L20.6221 4.15738C20.324 3.86794 19.9139 3.69176 19.4643 3.69176C18.5587 3.69176 17.8245 4.40343 17.8245 5.2826C17.8245 6.16524 18.5587 6.87865 19.4643 6.87865C19.4643 6.87865 20.6755 7.0366 21.4405 5.57725L21.4431 6.8678C20.9745 7.42064 20.2589 7.77344 19.4643 7.77344C18.0506 7.77344 16.9023 6.6582 16.9023 5.2826C16.9023 3.9096 18.0506 2.79697 19.4643 2.79697C20.1686 2.79697 20.8083 3.07209 21.2726 3.526L22.3614 4.71457Z" fill="#E60012"/>
<path d="M22.9456 9.56682C22.9456 9.08558 22.5793 8.59262 22.0938 8.56789V8.54706H25.7298V8.56789C25.2472 8.59479 24.8792 9.08818 24.8792 9.56682V18.5074C24.8792 18.9873 25.2472 19.5037 25.7298 19.5323V19.5527H22.0938V19.5323C22.5793 19.5037 22.9456 18.9873 22.9456 18.5074V9.56682Z" fill="#E60012"/>
<path d="M20.6608 9.59045C20.6608 9.10964 21.0261 8.59498 21.5122 8.56851V8.54725H17.8705V8.56851C18.3578 8.59498 18.7215 9.10964 18.7215 9.59045L18.7245 20.7675C18.7245 20.7675 18.6837 22.7411 17.0938 23.8767L17.0977 23.8984C17.4114 23.8472 20.6634 23.2471 20.6634 20.1058L20.6608 9.59045Z" fill="#E60012"/>
<path d="M25.7148 10.5276H25.7365C26.2295 9.66967 26.9898 9.65969 26.9898 9.65969H28.9612L28.9625 18.5117C28.9625 18.9908 28.5958 19.5037 28.1102 19.5323V19.5527H31.7566V19.5323C31.2672 19.5037 30.8992 18.9873 30.8992 18.5117L30.9018 9.65969L32.5495 9.65578C33.0498 9.65578 33.446 10.0437 33.4603 10.5276H33.4803L34.0856 8.54358H26.3219L25.7148 10.5276Z" fill="#E60012"/>
<path d="M43.863 16.5944C43.863 17.7391 44.8176 18.7289 45.9962 18.7289C47.1718 18.7289 48.1308 17.7261 48.1308 16.5809V9.58923C48.1308 9.10842 47.7645 8.59376 47.2794 8.56729V8.54646L50.9211 8.54299V8.56729C50.4381 8.59376 50.0701 9.10842 50.0701 9.58923V16.383C50.0701 18.5697 48.2562 19.8438 46.004 19.8438C43.7558 19.8438 41.9228 18.5697 41.9228 16.383L41.9254 9.58923C41.9254 9.10842 41.5587 8.59376 41.0723 8.56729V8.54299H44.7148V8.56729C44.227 8.59636 43.8604 9.11146 43.8604 9.58923L43.863 16.5944Z" fill="#E60012"/>
</svg>
