<svg width="663" height="290" viewBox="0 0 193 20" fill="none" xmlns="http://www.w3.org/2000/svg">
<path d="M0.0273438 0.37889V19.7023H5.06117V11.7456H8.14642V19.7023H13.1803V0.37889H8.14642V7.46955H5.06117V0.37889H0.0273438Z" fill="#003257"/>
<path d="M19.7897 12.3951C19.7897 11.475 19.8077 10.7172 19.8438 10.1218C19.8799 9.52639 19.9521 9.05729 20.0603 8.71448C20.1686 8.37167 20.3039 8.13712 20.4663 8.01083C20.6467 7.88453 20.8722 7.82138 21.1429 7.82138C21.4135 7.82138 21.639 7.88453 21.8195 8.01083C21.9999 8.13712 22.1352 8.37167 22.2254 8.71448C22.3337 9.05729 22.4058 9.52639 22.4419 10.1218C22.478 10.7172 22.4961 11.475 22.4961 12.3951C22.4961 13.3153 22.478 14.0731 22.4419 14.6685C22.4058 15.2458 22.3337 15.7059 22.2254 16.0487C22.1352 16.3915 21.9999 16.6261 21.8195 16.7524C21.639 16.8787 21.4135 16.9418 21.1429 16.9418C20.8722 16.9418 20.6467 16.8787 20.4663 16.7524C20.3039 16.6261 20.1686 16.3915 20.0603 16.0487C19.9521 15.7059 19.8799 15.2458 19.8438 14.6685C19.8077 14.0731 19.7897 13.3153 19.7897 12.3951ZM27.3675 12.3951C27.3675 11.3306 27.3044 10.3383 27.1781 9.41813C27.0698 8.47993 26.8082 7.659 26.3932 6.95535C25.9782 6.25169 25.3558 5.7014 24.5258 5.30447C23.6959 4.88949 22.5682 4.682 21.1429 4.682C19.7717 4.682 18.6711 4.90753 17.8411 5.35859C17.0292 5.79161 16.4067 6.36897 15.9737 7.09066C15.5407 7.81236 15.252 8.63329 15.1077 9.55345C14.9814 10.4736 14.9182 11.4118 14.9182 12.3681C14.9182 13.4326 14.9724 14.4339 15.0806 15.3721C15.2069 16.2923 15.4776 17.1042 15.8925 17.8079C16.3075 18.4935 16.93 19.0347 17.7599 19.4317C18.5899 19.8106 19.7175 20 21.1429 20C22.5141 20 23.6057 19.7925 24.4176 19.3775C25.2475 18.9445 25.879 18.3762 26.312 17.6725C26.745 16.9508 27.0247 16.1299 27.151 15.2097C27.2953 14.2896 27.3675 13.3514 27.3675 12.3951Z" fill="#003257"/>
<path d="M28.7477 5.06089V19.7023H33.6192V11.7185C33.6192 10.7443 33.8537 10.0677 34.3228 9.68877C34.81 9.30988 35.4866 9.12043 36.3526 9.12043C36.5511 9.12043 36.7495 9.12945 36.948 9.1475C37.1465 9.16554 37.354 9.1926 37.5705 9.22869V4.682H36.7856C36.0639 4.682 35.4054 4.91655 34.81 5.38566C34.2146 5.83672 33.7816 6.50429 33.5109 7.38836H33.4568V5.06089H28.7477Z" fill="#003257"/>
<path d="M38.3976 5.06089V19.7023H43.2691V10.0406C43.2691 9.42715 43.3593 8.98512 43.5397 8.71448C43.7201 8.44384 44.0268 8.30853 44.4599 8.30853C44.8929 8.30853 45.1996 8.44384 45.38 8.71448C45.5604 8.98512 45.6507 9.42715 45.6507 10.0406V19.7023H50.5221V8.66035C50.5221 7.86649 50.4229 7.21696 50.2244 6.71177C50.0259 6.20659 49.7553 5.80063 49.4125 5.49391C49.0697 5.18719 48.6637 4.9797 48.1946 4.87145C47.7436 4.74515 47.2474 4.682 46.7061 4.682C44.9741 4.682 43.7923 5.4037 43.1608 6.84709H43.1067V5.06089H38.3976Z" fill="#003257"/>
<path d="M66.2 9.20163V12.6116H67.9862C67.9862 13.4416 67.9411 14.1272 67.8508 14.6685C67.7787 15.1917 67.6704 15.6067 67.5261 15.9134C67.3817 16.2021 67.2013 16.4005 66.9848 16.5088C66.7863 16.6171 66.5518 16.6712 66.2812 16.6712C65.9023 16.6712 65.5955 16.5719 65.361 16.3735C65.1445 16.175 64.9731 15.8232 64.8468 15.318C64.7385 14.8128 64.6664 14.1362 64.6303 13.2882C64.5942 12.4222 64.5761 11.3396 64.5761 10.0406C64.5761 8.74154 64.5942 7.66802 64.6303 6.82003C64.6664 5.95399 64.7385 5.26838 64.8468 4.76319C64.9731 4.25801 65.1535 3.90618 65.3881 3.70771C65.6406 3.50925 65.9744 3.41001 66.3894 3.41001C66.9848 3.41001 67.3727 3.68967 67.5531 4.24899C67.7336 4.71809 67.8238 5.46685 67.8238 6.49526H72.6952C72.6952 5.32251 72.5419 4.33018 72.2351 3.51827C71.9284 2.68832 71.5044 2.01173 70.9632 1.4885C70.4219 0.965269 69.7724 0.586379 69.0146 0.351827C68.2748 0.117276 67.4629 0 66.5789 0C65.0994 0 63.8905 0.22553 62.9523 0.676591C62.0141 1.10961 61.2744 1.75011 60.7331 2.59811C60.2099 3.4461 59.849 4.49256 59.6506 5.73748C59.4701 6.98241 59.3799 8.41678 59.3799 10.0406C59.3799 11.6464 59.425 13.0717 59.5153 14.3166C59.6235 15.5616 59.8671 16.608 60.246 17.456C60.6249 18.304 61.1842 18.9445 61.9239 19.3775C62.6636 19.7925 63.674 20 64.955 20C65.3881 20 65.8121 19.9729 66.227 19.9188C66.66 19.8647 67.057 19.7745 67.4178 19.6482C67.7967 19.5038 68.1305 19.2963 68.4192 19.0257C68.7259 18.7551 68.9604 18.4123 69.1228 17.9973H69.177L69.2852 19.7023H72.6952V9.20163H66.2Z" fill="#003257"/>
<path d="M74.3911 5.06089V19.7023H79.2626V11.7185C79.2626 10.7443 79.4971 10.0677 79.9662 9.68877C80.4534 9.30988 81.13 9.12043 81.996 9.12043C82.1945 9.12043 82.3929 9.12945 82.5914 9.1475C82.7899 9.16554 82.9974 9.1926 83.2139 9.22869V4.682H82.429C81.7073 4.682 81.0488 4.91655 80.4534 5.38566C79.858 5.83672 79.425 6.50429 79.1543 7.38836H79.1002V5.06089H74.3911Z" fill="#003257"/>
<path d="M84.041 5.06089V16.1028C84.041 16.8787 84.1402 17.5282 84.3387 18.0514C84.5372 18.5566 84.8078 18.9626 85.1506 19.2693C85.4934 19.558 85.8904 19.7474 86.3414 19.8376C86.8105 19.9459 87.3157 20 87.857 20C89.6071 20 90.7889 19.3054 91.4023 17.9161H91.4564V19.7023H96.1655V5.06089H91.294V14.7226C91.294 15.336 91.2038 15.7781 91.0234 16.0487C90.843 16.3194 90.5363 16.4547 90.1033 16.4547C89.6702 16.4547 89.3635 16.3194 89.1831 16.0487C89.0027 15.7781 88.9125 15.336 88.9125 14.7226V5.06089H84.041Z" fill="#003257"/>
<path d="M98.1014 5.06089V19.7023H102.973V10.0406C102.973 9.42715 103.063 8.98512 103.243 8.71448C103.424 8.44384 103.731 8.30853 104.164 8.30853C104.597 8.30853 104.903 8.44384 105.084 8.71448C105.264 8.98512 105.354 9.42715 105.354 10.0406V19.7023H110.226V8.66035C110.226 7.86649 110.127 7.21696 109.928 6.71177C109.73 6.20659 109.459 5.80063 109.116 5.49391C108.773 5.18719 108.368 4.9797 107.898 4.87145C107.447 4.74515 106.951 4.682 106.41 4.682C104.678 4.682 103.496 5.4037 102.865 6.84709H102.81V5.06089H98.1014Z" fill="#003257"/>
<path d="M116.6 12.3951C116.6 11.6013 116.618 10.9427 116.654 10.4195C116.69 9.89626 116.754 9.48128 116.844 9.17456C116.952 8.8498 117.096 8.62427 117.277 8.49797C117.457 8.37167 117.692 8.30853 117.98 8.30853C118.251 8.30853 118.477 8.37167 118.657 8.49797C118.837 8.62427 118.973 8.8498 119.063 9.17456C119.171 9.48128 119.243 9.89626 119.28 10.4195C119.316 10.9427 119.334 11.6013 119.334 12.3951C119.334 13.171 119.316 13.8205 119.28 14.3437C119.243 14.8669 119.171 15.2909 119.063 15.6157C118.973 15.9224 118.837 16.1389 118.657 16.2652C118.477 16.3915 118.251 16.4547 117.98 16.4547C117.692 16.4547 117.457 16.3915 117.277 16.2652C117.096 16.1389 116.952 15.9224 116.844 15.6157C116.754 15.2909 116.69 14.8669 116.654 14.3437C116.618 13.8205 116.6 13.171 116.6 12.3951ZM119.334 0.37889V6.71177H119.28C119.027 5.95399 118.621 5.43076 118.062 5.14208C117.52 4.83536 116.907 4.682 116.221 4.682C115.554 4.682 114.94 4.8083 114.381 5.06089C113.822 5.31349 113.344 5.72846 112.947 6.30582C112.568 6.88318 112.27 7.64096 112.054 8.57916C111.837 9.51737 111.729 10.6811 111.729 12.0704C111.729 14.7948 112.054 16.7975 112.703 18.0785C113.353 19.3595 114.489 20 116.113 20C116.979 20 117.674 19.8196 118.197 19.4587C118.72 19.0979 119.135 18.5115 119.442 17.6996H119.496V19.7023H124.205V0.37889H119.334Z" fill="#003257"/>
<path d="M131.175 12.3951C131.175 11.6013 131.193 10.9427 131.229 10.4195C131.265 9.89626 131.328 9.48128 131.418 9.17456C131.527 8.8498 131.671 8.62427 131.851 8.49797C132.032 8.37167 132.257 8.30853 132.528 8.30853C132.817 8.30853 133.051 8.37167 133.232 8.49797C133.412 8.62427 133.547 8.8498 133.638 9.17456C133.746 9.48128 133.818 9.89626 133.854 10.4195C133.89 10.9427 133.908 11.6013 133.908 12.3951C133.908 13.171 133.89 13.8205 133.854 14.3437C133.818 14.8669 133.746 15.2909 133.638 15.6157C133.547 15.9224 133.412 16.1389 133.232 16.2652C133.051 16.3915 132.817 16.4547 132.528 16.4547C132.257 16.4547 132.032 16.3915 131.851 16.2652C131.671 16.1389 131.527 15.9224 131.418 15.6157C131.328 15.2909 131.265 14.8669 131.229 14.3437C131.193 13.8205 131.175 13.171 131.175 12.3951ZM126.303 0.37889V19.7023H131.012V17.6996H131.067C131.373 18.5115 131.788 19.0979 132.311 19.4587C132.835 19.8196 133.529 20 134.395 20C136.019 20 137.156 19.3595 137.805 18.0785C138.455 16.7975 138.78 14.7948 138.78 12.0704C138.78 10.6631 138.671 9.4903 138.455 8.5521C138.256 7.59585 137.968 6.83807 137.589 6.27876C137.21 5.7014 136.741 5.29545 136.182 5.06089C135.622 4.8083 134.991 4.682 134.287 4.682C133.602 4.682 132.979 4.83536 132.42 5.14208C131.878 5.43076 131.482 5.95399 131.229 6.71177H131.175V0.37889H126.303Z" fill="#003257"/>
<path d="M147.4 9.90528V10.5548H144.721V9.90528C144.721 9.12945 144.811 8.56112 144.992 8.20027C145.19 7.83942 145.542 7.659 146.047 7.659C146.57 7.659 146.922 7.83942 147.103 8.20027C147.301 8.56112 147.4 9.12945 147.4 9.90528ZM144.721 13.207H151.947V11.7185C151.947 10.3834 151.821 9.27379 151.568 8.38972C151.334 7.4876 150.964 6.7659 150.458 6.22463C149.971 5.66531 149.358 5.26838 148.618 5.03383C147.896 4.79928 147.048 4.682 146.074 4.682C144.974 4.682 144.026 4.82634 143.232 5.11502C142.457 5.38566 141.816 5.8277 141.311 6.44114C140.806 7.05458 140.436 7.84844 140.201 8.82273C139.967 9.79702 139.85 10.9878 139.85 12.3951C139.85 13.7844 139.949 14.9662 140.147 15.9405C140.364 16.9148 140.716 17.7086 141.203 18.3221C141.69 18.9175 142.33 19.3505 143.124 19.6211C143.918 19.8737 144.901 20 146.074 20C148.095 20 149.547 19.5489 150.431 18.6468C151.315 17.7267 151.776 16.3645 151.812 14.5602H147.427C147.427 15.5526 147.301 16.2291 147.048 16.59C146.814 16.9328 146.48 17.1042 146.047 17.1042C145.704 17.1042 145.398 16.9779 145.127 16.7253C144.856 16.4547 144.721 15.9224 144.721 15.1286V13.207Z" fill="#003257"/>
<path d="M157.074 15.1556H152.798C152.798 16.7614 153.24 17.9702 154.124 18.7821C155.026 19.594 156.497 20 158.535 20C159.456 20 160.277 19.8917 160.998 19.6752C161.738 19.4587 162.351 19.134 162.839 18.7009C163.344 18.2679 163.732 17.7537 164.002 17.1583C164.273 16.5629 164.408 15.9044 164.408 15.1827C164.408 14.2445 164.228 13.4957 163.867 12.9364C163.524 12.359 163.091 11.908 162.568 11.5832C162.045 11.2404 161.476 10.9788 160.863 10.7984C160.268 10.618 159.708 10.4466 159.185 10.2842C158.662 10.1218 158.22 9.94136 157.859 9.7429C157.516 9.52639 157.345 9.21065 157.345 8.79567C157.345 8.43482 157.462 8.15517 157.696 7.9567C157.931 7.75823 158.229 7.659 158.59 7.659C159.005 7.659 159.32 7.77628 159.537 8.01083C159.771 8.22734 159.889 8.65133 159.889 9.28282H164.111C164.111 6.21561 162.279 4.682 158.617 4.682C157.624 4.682 156.758 4.79928 156.019 5.03383C155.297 5.26838 154.692 5.59314 154.205 6.00812C153.736 6.4231 153.384 6.91024 153.15 7.46955C152.915 8.01083 152.798 8.60623 152.798 9.25575C152.798 10.1759 152.969 10.9247 153.312 11.502C153.673 12.0613 154.115 12.5124 154.638 12.8552C155.162 13.198 155.721 13.4687 156.316 13.6671C156.93 13.8656 157.498 14.055 158.021 14.2355C158.544 14.4159 158.978 14.6234 159.32 14.8579C159.681 15.0925 159.862 15.4263 159.862 15.8593C159.862 16.2562 159.717 16.5629 159.429 16.7794C159.158 16.9959 158.833 17.1042 158.454 17.1042C158.003 17.1042 157.66 16.9328 157.426 16.59C157.3 16.4276 157.209 16.2201 157.155 15.9675C157.101 15.7149 157.074 15.4443 157.074 15.1556Z" fill="#003257"/>
<path d="M165.921 0.37889V4.00541H170.792V0.37889H165.921ZM165.921 5.06089V19.7023H170.792V5.06089H165.921Z" fill="#003257"/>
<path d="M171.897 5.06089V8.33559H173.521V16.1299C173.521 16.9418 173.593 17.6004 173.737 18.1055C173.9 18.5927 174.143 18.9626 174.468 19.2152C174.811 19.4678 175.244 19.6301 175.767 19.7023C176.29 19.7564 176.922 19.7835 177.661 19.7835C178.076 19.7835 178.509 19.7655 178.96 19.7294C179.412 19.7113 179.863 19.7023 180.314 19.7023V16.4547H179.556C179.159 16.4547 178.861 16.3735 178.663 16.2111C178.482 16.0307 178.392 15.733 178.392 15.318V8.33559H180.314V5.06089H178.392V0.757781H173.521V5.06089H171.897Z" fill="#003257"/>
<path d="M181.002 5.06089V8.8498H186.009L180.758 15.9134V19.7023H192.017V15.9134H186.415L191.881 8.68742V5.06089H181.002Z" fill="#003257"/>
</svg>
