<svg width="312" height="165" viewBox="0 0 312 165" fill="none" xmlns="http://www.w3.org/2000/svg">
<path d="M0.491455 164.5V149.825H11.3721V152.308H3.45435V155.561H10.8215V158.033H3.45435V162.027H11.6523V164.5H0.491455Z" fill="#123C8A"/>
<path d="M14.1948 164.5V149.825H17.0776L23.0835 159.625V149.825H25.8362V164.5H22.8633L16.9475 154.93V164.5H14.1948Z" fill="#123C8A"/>
<path d="M35.8059 159.104V156.632H42.1921V162.478C41.5715 163.078 40.6707 163.609 39.4895 164.069C38.315 164.523 37.1239 164.75 35.916 164.75C34.3812 164.75 33.0432 164.43 31.9021 163.789C30.761 163.142 29.9035 162.221 29.3296 161.026C28.7557 159.825 28.4688 158.521 28.4688 157.113C28.4688 155.584 28.7891 154.226 29.4297 153.039C30.0703 151.851 31.0079 150.94 32.2424 150.306C33.1833 149.819 34.3545 149.575 35.7559 149.575C37.5776 149.575 38.999 149.959 40.02 150.726C41.0477 151.487 41.7083 152.541 42.002 153.889L39.0591 154.44C38.8522 153.719 38.4618 153.152 37.8879 152.738C37.3207 152.318 36.61 152.108 35.7559 152.108C34.4613 152.108 33.4303 152.518 32.6628 153.339C31.9021 154.16 31.5217 155.378 31.5217 156.992C31.5217 158.734 31.9088 160.042 32.6829 160.916C33.457 161.784 34.4713 162.218 35.7258 162.218C36.3464 162.218 36.967 162.097 37.5876 161.857C38.2149 161.61 38.7521 161.313 39.1992 160.966V159.104H35.8059Z" fill="#123C8A"/>
<path d="M44.8447 164.5V149.825H47.8076V164.5H44.8447Z" fill="#123C8A"/>
<path d="M50.6704 164.5V149.825H53.5532L59.5591 159.625V149.825H62.3118V164.5H59.3389L53.4231 154.93V164.5H50.6704Z" fill="#123C8A"/>
<path d="M65.4548 164.5V149.825H76.3354V152.308H68.4177V155.561H75.7849V158.033H68.4177V162.027H76.6157V164.5H65.4548Z" fill="#123C8A"/>
<path d="M79.1282 164.5V149.825H90.0088V152.308H82.0911V155.561H89.4583V158.033H82.0911V162.027H90.2891V164.5H79.1282Z" fill="#123C8A"/>
<path d="M92.8115 164.5V149.825H99.0476C100.616 149.825 101.754 149.959 102.461 150.226C103.175 150.486 103.746 150.953 104.173 151.627C104.6 152.301 104.813 153.072 104.813 153.939C104.813 155.041 104.49 155.951 103.842 156.672C103.195 157.386 102.227 157.837 100.939 158.023C101.58 158.397 102.107 158.808 102.521 159.255C102.941 159.702 103.505 160.496 104.213 161.637L106.004 164.5H102.461L100.319 161.307C99.5581 160.166 99.0376 159.448 98.7573 159.155C98.4771 158.854 98.1801 158.651 97.8665 158.544C97.5528 158.431 97.0557 158.374 96.375 158.374H95.7744V164.5H92.8115ZM95.7744 156.031H97.9666C99.3879 156.031 100.275 155.971 100.629 155.851C100.983 155.731 101.26 155.524 101.46 155.231C101.66 154.937 101.76 154.57 101.76 154.13C101.76 153.636 101.627 153.239 101.36 152.938C101.1 152.632 100.729 152.438 100.249 152.358C100.009 152.325 99.2878 152.308 98.0867 152.308H95.7744V156.031Z" fill="#123C8A"/>
<path d="M107.526 164.5V149.825H110.489V164.5H107.526Z" fill="#123C8A"/>
<path d="M113.352 164.5V149.825H116.234L122.24 159.625V149.825H124.993V164.5H122.02L116.104 154.93V164.5H113.352Z" fill="#123C8A"/>
<path d="M134.963 159.104V156.632H141.349V162.478C140.728 163.078 139.827 163.609 138.646 164.069C137.472 164.523 136.281 164.75 135.073 164.75C133.538 164.75 132.2 164.43 131.059 163.789C129.918 163.142 129.06 162.221 128.486 161.026C127.912 159.825 127.625 158.521 127.625 157.113C127.625 155.584 127.946 154.226 128.586 153.039C129.227 151.851 130.165 150.94 131.399 150.306C132.34 149.819 133.511 149.575 134.913 149.575C136.734 149.575 138.156 149.959 139.177 150.726C140.204 151.487 140.865 152.541 141.159 153.889L138.216 154.44C138.009 153.719 137.619 153.152 137.045 152.738C136.477 152.318 135.767 152.108 134.913 152.108C133.618 152.108 132.587 152.518 131.82 153.339C131.059 154.16 130.678 155.378 130.678 156.992C130.678 158.734 131.066 160.042 131.84 160.916C132.614 161.784 133.628 162.218 134.883 162.218C135.503 162.218 136.124 162.097 136.744 161.857C137.372 161.61 137.909 161.313 138.356 160.966V159.104H134.963Z" fill="#123C8A"/>
<path d="M149.707 164.5V149.825H152.67V164.5H149.707Z" fill="#123C8A"/>
<path d="M154.752 159.725L157.635 159.445C157.808 160.412 158.159 161.123 158.686 161.577C159.22 162.031 159.937 162.258 160.838 162.258C161.792 162.258 162.51 162.057 162.99 161.657C163.477 161.25 163.721 160.776 163.721 160.236C163.721 159.889 163.617 159.595 163.41 159.355C163.21 159.108 162.857 158.894 162.349 158.714C162.002 158.594 161.212 158.38 159.977 158.073C158.389 157.68 157.274 157.196 156.634 156.622C155.733 155.815 155.282 154.83 155.282 153.669C155.282 152.922 155.493 152.224 155.913 151.577C156.34 150.923 156.951 150.426 157.745 150.086C158.546 149.745 159.51 149.575 160.638 149.575C162.479 149.575 163.864 149.979 164.792 150.786C165.726 151.594 166.216 152.672 166.263 154.02L163.3 154.15C163.174 153.396 162.9 152.855 162.479 152.528C162.066 152.194 161.442 152.028 160.608 152.028C159.747 152.028 159.073 152.204 158.586 152.558C158.272 152.785 158.115 153.089 158.115 153.469C158.115 153.816 158.262 154.113 158.556 154.36C158.929 154.674 159.837 155 161.278 155.341C162.72 155.681 163.784 156.035 164.471 156.402C165.165 156.762 165.706 157.259 166.093 157.893C166.487 158.521 166.684 159.298 166.684 160.226C166.684 161.066 166.45 161.854 165.983 162.588C165.516 163.322 164.855 163.869 164.001 164.229C163.147 164.583 162.082 164.76 160.808 164.76C158.953 164.76 157.528 164.333 156.534 163.479C155.539 162.618 154.945 161.367 154.752 159.725Z" fill="#123C8A"/>
<path d="M174.281 157.253C174.281 155.758 174.505 154.503 174.952 153.489C175.285 152.742 175.739 152.071 176.313 151.477C176.894 150.883 177.528 150.443 178.215 150.156C179.129 149.769 180.183 149.575 181.378 149.575C183.54 149.575 185.268 150.246 186.563 151.587C187.864 152.928 188.515 154.794 188.515 157.183C188.515 159.552 187.871 161.407 186.583 162.748C185.295 164.083 183.573 164.75 181.418 164.75C179.236 164.75 177.501 164.086 176.213 162.758C174.925 161.423 174.281 159.588 174.281 157.253ZM177.334 157.153C177.334 158.814 177.718 160.075 178.485 160.936C179.253 161.79 180.227 162.218 181.408 162.218C182.589 162.218 183.557 161.794 184.311 160.946C185.072 160.092 185.452 158.814 185.452 157.113C185.452 155.431 185.082 154.176 184.341 153.349C183.607 152.521 182.629 152.108 181.408 152.108C180.187 152.108 179.202 152.528 178.455 153.369C177.708 154.203 177.334 155.464 177.334 157.153Z" fill="#123C8A"/>
<path d="M190.817 149.825H193.78V157.773C193.78 159.034 193.817 159.852 193.89 160.226C194.017 160.826 194.317 161.31 194.791 161.677C195.271 162.037 195.925 162.218 196.753 162.218C197.594 162.218 198.228 162.047 198.655 161.707C199.082 161.36 199.339 160.936 199.426 160.436C199.512 159.935 199.556 159.104 199.556 157.943V149.825H202.519V157.533C202.519 159.295 202.438 160.539 202.278 161.267C202.118 161.994 201.821 162.608 201.387 163.108C200.96 163.609 200.386 164.009 199.666 164.31C198.945 164.603 198.004 164.75 196.843 164.75C195.442 164.75 194.377 164.59 193.65 164.27C192.929 163.943 192.359 163.522 191.938 163.008C191.518 162.488 191.241 161.944 191.107 161.377C190.914 160.536 190.817 159.295 190.817 157.653V149.825Z" fill="#123C8A"/>
<path d="M205.662 164.5V149.825H211.898C213.466 149.825 214.604 149.959 215.311 150.226C216.025 150.486 216.596 150.953 217.023 151.627C217.45 152.301 217.663 153.072 217.663 153.939C217.663 155.041 217.34 155.951 216.692 156.672C216.045 157.386 215.077 157.837 213.79 158.023C214.43 158.397 214.957 158.808 215.371 159.255C215.792 159.702 216.355 160.496 217.063 161.637L218.854 164.5H215.311L213.169 161.307C212.408 160.166 211.888 159.448 211.607 159.155C211.327 158.854 211.03 158.651 210.717 158.544C210.403 158.431 209.906 158.374 209.225 158.374H208.625V164.5H205.662ZM208.625 156.031H210.817C212.238 156.031 213.126 155.971 213.479 155.851C213.833 155.731 214.11 155.524 214.31 155.231C214.51 154.937 214.61 154.57 214.61 154.13C214.61 153.636 214.477 153.239 214.21 152.938C213.95 152.632 213.579 152.438 213.099 152.358C212.859 152.325 212.138 152.308 210.937 152.308H208.625V156.031Z" fill="#123C8A"/>
<path d="M226.172 164.5V149.825H237.052V152.308H229.135V155.561H236.502V158.033H229.135V162.027H237.333V164.5H226.172Z" fill="#123C8A"/>
<path d="M239.875 164.5V149.825H242.758L248.764 159.625V149.825H251.516V164.5H248.543L242.628 154.93V164.5H239.875Z" fill="#123C8A"/>
<path d="M254.659 164.5V149.825H265.54V152.308H257.622V155.561H264.99V158.033H257.622V162.027H265.82V164.5H254.659Z" fill="#123C8A"/>
<path d="M268.343 164.5V149.825H274.579C276.147 149.825 277.285 149.959 277.992 150.226C278.706 150.486 279.277 150.953 279.704 151.627C280.131 152.301 280.344 153.072 280.344 153.939C280.344 155.041 280.021 155.951 279.374 156.672C278.726 157.386 277.759 157.837 276.471 158.023C277.111 158.397 277.639 158.808 278.052 159.255C278.473 159.702 279.037 160.496 279.744 161.637L281.536 164.5H277.992L275.85 161.307C275.089 160.166 274.569 159.448 274.289 159.155C274.008 158.854 273.711 158.651 273.398 158.544C273.084 158.431 272.587 158.374 271.906 158.374H271.306V164.5H268.343ZM271.306 156.031H273.498C274.919 156.031 275.807 155.971 276.16 155.851C276.514 155.731 276.791 155.524 276.991 155.231C277.191 154.937 277.292 154.57 277.292 154.13C277.292 153.636 277.158 153.239 276.891 152.938C276.631 152.632 276.26 152.438 275.78 152.358C275.54 152.325 274.819 152.308 273.618 152.308H271.306V156.031Z" fill="#123C8A"/>
<path d="M289.974 159.104V156.632H296.36V162.478C295.74 163.078 294.839 163.609 293.657 164.069C292.483 164.523 291.292 164.75 290.084 164.75C288.549 164.75 287.211 164.43 286.07 163.789C284.929 163.142 284.071 162.221 283.498 161.026C282.924 159.825 282.637 158.521 282.637 157.113C282.637 155.584 282.957 154.226 283.598 153.039C284.238 151.851 285.176 150.94 286.41 150.306C287.351 149.819 288.522 149.575 289.924 149.575C291.746 149.575 293.167 149.959 294.188 150.726C295.216 151.487 295.876 152.541 296.17 153.889L293.227 154.44C293.02 153.719 292.63 153.152 292.056 152.738C291.489 152.318 290.778 152.108 289.924 152.108C288.629 152.108 287.598 152.518 286.831 153.339C286.07 154.16 285.69 155.378 285.69 156.992C285.69 158.734 286.077 160.042 286.851 160.916C287.625 161.784 288.639 162.218 289.894 162.218C290.514 162.218 291.135 162.097 291.756 161.857C292.383 161.61 292.92 161.313 293.367 160.966V159.104H289.974Z" fill="#123C8A"/>
<path d="M302.957 164.5V158.324L297.581 149.825H301.055L304.508 155.631L307.891 149.825H311.305L305.909 158.344V164.5H302.957Z" fill="#123C8A"/>
<path d="M0 127V0H25.5V107H89V127H0Z" fill="#123C8A"/>
<path d="M168.5 0H143L98 127H124.5L133.5 99H160.5L152.5 76H141L156 34L189 127H215.5L168.5 0Z" fill="#123C8A"/>
<path d="M224.5 127V0H312.5V22H250V50.5H312.5V71.5H250V107H312.5V127H224.5Z" fill="#123C8A"/>
<path d="M0 127V0H25.5V107H89V127H0Z" stroke="#123C8A"/>
<path d="M168.5 0H143L98 127H124.5L133.5 99H160.5L152.5 76H141L156 34L189 127H215.5L168.5 0Z" stroke="#123C8A"/>
<path d="M224.5 127V0H312.5V22H250V50.5H312.5V71.5H250V107H312.5V127H224.5Z" stroke="#123C8A"/>
</svg>
