<svg width="80" height="24" viewBox="0 0 80 24" fill="none" xmlns="http://www.w3.org/2000/svg">
<path d="M0.825194 14.7587C0.76633 14.7587 0.713351 14.7411 0.666259 14.7058C0.630941 14.6587 0.613281 14.6057 0.613281 14.5468V2.60905C0.613281 2.55018 0.630941 2.50309 0.666259 2.46777C0.713351 2.42068 0.76633 2.39713 0.825194 2.39713H2.89135C2.95021 2.39713 2.9973 2.42068 3.03262 2.46777C3.07971 2.50309 3.10326 2.55018 3.10326 2.60905V12.5336C3.10326 12.5925 3.13269 12.6219 3.19156 12.6219H7.92428C7.98315 12.6219 8.03024 12.6455 8.06556 12.6926C8.11265 12.7279 8.1362 12.775 8.1362 12.8339V14.5468C8.1362 14.6057 8.11265 14.6587 8.06556 14.7058C8.03024 14.7411 7.98315 14.7587 7.92428 14.7587H0.825194Z" fill="#005F84"/>
<path d="M13.3815 14.9C12.5809 14.9 11.8745 14.7352 11.2623 14.4055C10.6501 14.0759 10.1733 13.6168 9.83191 13.0281C9.50227 12.4277 9.33745 11.739 9.33745 10.962V2.60905C9.33745 2.55018 9.35511 2.50309 9.39043 2.46777C9.43752 2.42068 9.4905 2.39713 9.54936 2.39713H11.6155C11.6744 2.39713 11.7215 2.42068 11.7568 2.46777C11.8039 2.50309 11.8274 2.55018 11.8274 2.60905V11.0856C11.8274 11.5918 11.9687 11.998 12.2513 12.3041C12.5338 12.6102 12.9105 12.7632 13.3815 12.7632C13.8524 12.7632 14.2291 12.6102 14.5117 12.3041C14.7942 11.998 14.9355 11.5918 14.9355 11.0856V2.60905C14.9355 2.55018 14.9531 2.50309 14.9885 2.46777C15.0356 2.42068 15.0885 2.39713 15.1474 2.39713H17.2136C17.2724 2.39713 17.3195 2.42068 17.3548 2.46777C17.4019 2.50309 17.4255 2.55018 17.4255 2.60905V10.962C17.4255 11.739 17.2548 12.4277 16.9133 13.0281C16.5837 13.6168 16.1128 14.0759 15.5006 14.4055C14.8884 14.7352 14.182 14.9 13.3815 14.9Z" fill="#005F84"/>
<path d="M27.2049 11.3328C27.2049 12.4512 26.84 13.3048 26.11 13.8934C25.3919 14.4703 24.4618 14.7587 23.3198 14.7587H19.3641C19.3053 14.7587 19.2523 14.7411 19.2052 14.7058C19.1699 14.6587 19.1522 14.6057 19.1522 14.5468V2.60905C19.1522 2.55018 19.1699 2.50309 19.2052 2.46777C19.2523 2.42068 19.3053 2.39713 19.3641 2.39713H23.055C24.3147 2.39713 25.2918 2.67968 25.9864 3.24479C26.681 3.79812 27.0283 4.64577 27.0283 5.78774C27.0283 6.95327 26.5751 7.79503 25.6686 8.31304C25.6097 8.34836 25.6038 8.38368 25.6509 8.419C26.6869 9.00764 27.2049 9.97891 27.2049 11.3328ZM21.7305 4.53392C21.6716 4.53392 21.6422 4.56336 21.6422 4.62222V7.39475C21.6422 7.45361 21.6716 7.48305 21.7305 7.48305H23.0726C23.5435 7.48305 23.9144 7.35355 24.1852 7.09454C24.4559 6.83554 24.5913 6.47646 24.5913 6.01732C24.5913 5.5464 24.4559 5.18144 24.1852 4.92243C23.9262 4.66343 23.5553 4.53392 23.0726 4.53392H21.7305ZM23.2139 12.6043C23.6848 12.6043 24.0498 12.4689 24.3088 12.1981C24.5796 11.9156 24.7149 11.5212 24.7149 11.0149C24.7149 10.5087 24.5796 10.1143 24.3088 9.83175C24.0498 9.53743 23.6848 9.39027 23.2139 9.39027H21.7305C21.6716 9.39027 21.6422 9.4197 21.6422 9.47856V12.516C21.6422 12.5748 21.6716 12.6043 21.7305 12.6043H23.2139Z" fill="#005F84"/>
<path d="M36.8107 11.3328C36.8107 12.4512 36.4457 13.3048 35.7158 13.8934C34.9976 14.4703 34.0676 14.7587 32.9256 14.7587H28.9699C28.911 14.7587 28.8581 14.7411 28.811 14.7058C28.7756 14.6587 28.758 14.6057 28.758 14.5468V2.60905C28.758 2.55018 28.7756 2.50309 28.811 2.46777C28.8581 2.42068 28.911 2.39713 28.9699 2.39713H32.6607C33.9204 2.39713 34.8976 2.67968 35.5922 3.24479C36.2868 3.79812 36.6341 4.64577 36.6341 5.78774C36.6341 6.95327 36.1808 7.79503 35.2743 8.31304C35.2154 8.34836 35.2096 8.38368 35.2567 8.419C36.2927 9.00764 36.8107 9.97891 36.8107 11.3328ZM31.3363 4.53392C31.2774 4.53392 31.248 4.56336 31.248 4.62222V7.39475C31.248 7.45361 31.2774 7.48305 31.3363 7.48305H32.6784C33.1493 7.48305 33.5201 7.35355 33.7909 7.09454C34.0617 6.83554 34.1971 6.47646 34.1971 6.01732C34.1971 5.5464 34.0617 5.18144 33.7909 4.92243C33.5319 4.66343 33.1611 4.53392 32.6784 4.53392H31.3363ZM32.8197 12.6043C33.2906 12.6043 33.6555 12.4689 33.9145 12.1981C34.1853 11.9156 34.3207 11.5212 34.3207 11.0149C34.3207 10.5087 34.1853 10.1143 33.9145 9.83175C33.6555 9.53743 33.2906 9.39027 32.8197 9.39027H31.3363C31.2774 9.39027 31.248 9.4197 31.248 9.47856V12.516C31.248 12.5748 31.2774 12.6043 31.3363 12.6043H32.8197Z" fill="#005F84"/>
<path d="M38.5929 14.7587C38.534 14.7587 38.4811 14.7411 38.434 14.7058C38.3987 14.6587 38.381 14.6057 38.381 14.5468V2.60905C38.381 2.55018 38.3987 2.50309 38.434 2.46777C38.4811 2.42068 38.534 2.39713 38.5929 2.39713H40.6591C40.7179 2.39713 40.765 2.42068 40.8003 2.46777C40.8474 2.50309 40.871 2.55018 40.871 2.60905V14.5468C40.871 14.6057 40.8474 14.6587 40.8003 14.7058C40.765 14.7411 40.7179 14.7587 40.6591 14.7587H38.5929Z" fill="#005F84"/>
<path d="M48.8017 2.60905C48.8017 2.55018 48.8194 2.50309 48.8547 2.46777C48.9018 2.42068 48.9548 2.39713 49.0136 2.39713H51.0621C51.121 2.39713 51.1681 2.42068 51.2034 2.46777C51.2505 2.50309 51.274 2.55018 51.274 2.60905V14.5468C51.274 14.6057 51.2505 14.6587 51.2034 14.7058C51.1681 14.7411 51.121 14.7587 51.0621 14.7587H48.9077C48.7899 14.7587 48.7075 14.7058 48.6604 14.5998L45.2875 7.41241C45.2639 7.37709 45.2404 7.35943 45.2168 7.35943C45.1933 7.35943 45.1815 7.38298 45.1815 7.43007L45.1992 14.5468C45.1992 14.6057 45.1756 14.6587 45.1285 14.7058C45.0932 14.7411 45.0461 14.7587 44.9873 14.7587H42.9388C42.8799 14.7587 42.8269 14.7411 42.7798 14.7058C42.7445 14.6587 42.7269 14.6057 42.7269 14.5468V2.60905C42.7269 2.55018 42.7445 2.50309 42.7798 2.46777C42.8269 2.42068 42.8799 2.39713 42.9388 2.39713H45.0756C45.1933 2.39713 45.2757 2.45011 45.3228 2.55607L48.6957 9.74345C48.7193 9.77877 48.7428 9.79643 48.7664 9.79643C48.7899 9.79643 48.8017 9.77289 48.8017 9.72579V2.60905Z" fill="#005F84"/>
<path d="M56.9753 14.9C56.1747 14.9 55.4683 14.7411 54.8561 14.4232C54.2439 14.1053 53.7671 13.658 53.4257 13.0811C53.0961 12.4924 52.9312 11.8155 52.9312 11.0503V6.08795C52.9312 5.32271 53.0961 4.65165 53.4257 4.07478C53.7671 3.4979 54.2439 3.05053 54.8561 2.73266C55.4683 2.41479 56.1747 2.25586 56.9753 2.25586C57.764 2.25586 58.4645 2.41479 59.0767 2.73266C59.7007 3.03876 60.1775 3.47436 60.5071 4.03946C60.8486 4.59279 61.0193 5.22264 61.0193 5.92902V6.31753C61.0193 6.37639 60.9957 6.42937 60.9486 6.47646C60.9133 6.51178 60.8662 6.52944 60.8074 6.52944H58.7412C58.6823 6.52944 58.6294 6.51178 58.5823 6.47646C58.5469 6.42937 58.5293 6.37639 58.5293 6.31753V5.94668C58.5293 5.49931 58.388 5.12846 58.1055 4.83413C57.8229 4.53981 57.4462 4.39265 56.9753 4.39265C56.5043 4.39265 56.1217 4.5457 55.8274 4.85179C55.5448 5.15789 55.4036 5.55817 55.4036 6.05263V11.1032C55.4036 11.5977 55.5507 11.998 55.8451 12.3041C56.1512 12.6102 56.5455 12.7632 57.0282 12.7632C57.4874 12.7632 57.8523 12.6278 58.1231 12.357C58.4057 12.0863 58.5469 11.7154 58.5469 11.2445V10.1496C58.5469 10.0908 58.5175 10.0613 58.4587 10.0613H57.0812C57.0224 10.0613 56.9694 10.0437 56.9223 10.0083C56.887 9.96125 56.8693 9.90828 56.8693 9.84941V8.2424C56.8693 8.18354 56.887 8.13645 56.9223 8.10113C56.9694 8.05404 57.0224 8.03049 57.0812 8.03049H60.8074C60.8662 8.03049 60.9133 8.05404 60.9486 8.10113C60.9957 8.13645 61.0193 8.18354 61.0193 8.2424V11.0503C61.0193 12.2275 60.6484 13.1635 59.9067 13.8581C59.1768 14.5527 58.1996 14.9 56.9753 14.9Z" fill="#005F84"/>
<path d="M12.2227 2.89507C12.2227 2.74268 12.3462 2.61914 12.4986 2.61914H14.1542C14.3065 2.61914 14.4301 2.74268 14.4301 2.89507V4.55064C14.4301 4.70303 14.3065 4.82657 14.1542 4.82657H12.4986C12.3462 4.82657 12.2227 4.70303 12.2227 4.55064V2.89507Z" fill="#005E83"/>
<path d="M0.661624 21.9327C0.648195 21.9327 0.63611 21.9287 0.625367 21.9206C0.61731 21.9099 0.613281 21.8978 0.613281 21.8844V19.1611C0.613281 19.1476 0.61731 19.1369 0.625367 19.1288C0.63611 19.1181 0.648195 19.1127 0.661624 19.1127H1.13297C1.14639 19.1127 1.15714 19.1181 1.16519 19.1288C1.17594 19.1369 1.18131 19.1476 1.18131 19.1611V21.8844C1.18131 21.8978 1.17594 21.9099 1.16519 21.9206C1.15714 21.9287 1.14639 21.9327 1.13297 21.9327H0.661624Z" fill="#040404"/>
<path d="M2.99051 19.1611C2.99051 19.1476 2.99454 19.1369 3.00259 19.1288C3.01334 19.1181 3.02542 19.1127 3.03885 19.1127H3.50616C3.51959 19.1127 3.53033 19.1181 3.53839 19.1288C3.54913 19.1369 3.5545 19.1476 3.5545 19.1611V21.8844C3.5545 21.8978 3.54913 21.9099 3.53839 21.9206C3.53033 21.9287 3.51959 21.9327 3.50616 21.9327H3.01468C2.98782 21.9327 2.96902 21.9206 2.95828 21.8965L2.18882 20.2568C2.18345 20.2488 2.17808 20.2447 2.17271 20.2447C2.16734 20.2447 2.16465 20.2501 2.16465 20.2609L2.16868 21.8844C2.16868 21.8978 2.16331 21.9099 2.15257 21.9206C2.14451 21.9287 2.13377 21.9327 2.12034 21.9327H1.65303C1.6396 21.9327 1.62751 21.9287 1.61677 21.9206C1.60871 21.9099 1.60468 21.8978 1.60468 21.8844V19.1611C1.60468 19.1476 1.60871 19.1369 1.61677 19.1288C1.62751 19.1181 1.6396 19.1127 1.65303 19.1127H2.14048C2.16734 19.1127 2.18614 19.1248 2.19688 19.149L2.96634 20.7886C2.97171 20.7967 2.97708 20.8007 2.98245 20.8007C2.98782 20.8007 2.99051 20.7953 2.99051 20.7846V19.1611Z" fill="#040404"/>
<path d="M5.73332 19.1127C5.74675 19.1127 5.7575 19.1181 5.76555 19.1288C5.7763 19.1369 5.78167 19.1476 5.78167 19.1611V19.5559C5.78167 19.5693 5.7763 19.5814 5.76555 19.5921C5.7575 19.6002 5.74675 19.6042 5.73332 19.6042H5.12098C5.10755 19.6042 5.10084 19.6109 5.10084 19.6243V21.8844C5.10084 21.8978 5.09547 21.9099 5.08473 21.9206C5.07667 21.9287 5.06593 21.9327 5.0525 21.9327H4.58116C4.56773 21.9327 4.55564 21.9287 4.5449 21.9206C4.53684 21.9099 4.53281 21.8978 4.53281 21.8844V19.6243C4.53281 19.6109 4.5261 19.6042 4.51267 19.6042H3.92047C3.90705 19.6042 3.89496 19.6002 3.88422 19.5921C3.87616 19.5814 3.87213 19.5693 3.87213 19.5559V19.1611C3.87213 19.1476 3.87616 19.1369 3.88422 19.1288C3.89496 19.1181 3.90705 19.1127 3.92047 19.1127H5.73332Z" fill="#040404"/>
<path d="M7.81757 19.5518C7.81757 19.5653 7.8122 19.5773 7.80145 19.5881C7.7934 19.5961 7.78265 19.6002 7.76922 19.6002H6.68957C6.67614 19.6002 6.66943 19.6069 6.66943 19.6203V20.2488C6.66943 20.2622 6.67614 20.2689 6.68957 20.2689H7.36234C7.37577 20.2689 7.38651 20.2743 7.39457 20.285C7.40531 20.2931 7.41068 20.3038 7.41068 20.3173V20.708C7.41068 20.7215 7.40531 20.7335 7.39457 20.7443C7.38651 20.7523 7.37577 20.7564 7.36234 20.7564H6.68957C6.67614 20.7564 6.66943 20.7631 6.66943 20.7765V21.4251C6.66943 21.4385 6.67614 21.4453 6.68957 21.4453H7.76922C7.78265 21.4453 7.7934 21.4506 7.80145 21.4614C7.8122 21.4694 7.81757 21.4802 7.81757 21.4936V21.8844C7.81757 21.8978 7.8122 21.9099 7.80145 21.9206C7.7934 21.9287 7.78265 21.9327 7.76922 21.9327H6.14974C6.13632 21.9327 6.12423 21.9287 6.11349 21.9206C6.10543 21.9099 6.1014 21.8978 6.1014 21.8844V19.1611C6.1014 19.1476 6.10543 19.1369 6.11349 19.1288C6.12423 19.1181 6.13632 19.1127 6.14974 19.1127H7.76922C7.78265 19.1127 7.7934 19.1181 7.80145 19.1288C7.8122 19.1369 7.81757 19.1476 7.81757 19.1611V19.5518Z" fill="#040404"/>
<path d="M8.2073 21.9327C8.19387 21.9327 8.18178 21.9287 8.17104 21.9206C8.16298 21.9099 8.15896 21.8978 8.15896 21.8844V19.1611C8.15896 19.1476 8.16298 19.1369 8.17104 19.1288C8.18178 19.1181 8.19387 19.1127 8.2073 19.1127H8.67864C8.69207 19.1127 8.70281 19.1181 8.71087 19.1288C8.72161 19.1369 8.72698 19.1476 8.72698 19.1611V21.4251C8.72698 21.4385 8.7337 21.4453 8.74712 21.4453H9.82678C9.84021 21.4453 9.85095 21.4506 9.85901 21.4614C9.86975 21.4694 9.87512 21.4802 9.87512 21.4936V21.8844C9.87512 21.8978 9.86975 21.9099 9.85901 21.9206C9.85095 21.9287 9.84021 21.9327 9.82678 21.9327H8.2073Z" fill="#040404"/>
<path d="M10.2176 21.9327C10.2042 21.9327 10.1921 21.9287 10.1814 21.9206C10.1733 21.9099 10.1693 21.8978 10.1693 21.8844V19.1611C10.1693 19.1476 10.1733 19.1369 10.1814 19.1288C10.1921 19.1181 10.2042 19.1127 10.2176 19.1127H10.689C10.7024 19.1127 10.7132 19.1181 10.7212 19.1288C10.732 19.1369 10.7373 19.1476 10.7373 19.1611V21.4251C10.7373 21.4385 10.744 21.4453 10.7575 21.4453H11.8371C11.8505 21.4453 11.8613 21.4506 11.8694 21.4614C11.8801 21.4694 11.8855 21.4802 11.8855 21.4936V21.8844C11.8855 21.8978 11.8801 21.9099 11.8694 21.9206C11.8613 21.9287 11.8505 21.9327 11.8371 21.9327H10.2176Z" fill="#040404"/>
<path d="M12.228 21.9327C12.2146 21.9327 12.2025 21.9287 12.1917 21.9206C12.1837 21.9099 12.1796 21.8978 12.1796 21.8844V19.1611C12.1796 19.1476 12.1837 19.1369 12.1917 19.1288C12.2025 19.1181 12.2146 19.1127 12.228 19.1127H12.6993C12.7128 19.1127 12.7235 19.1181 12.7316 19.1288C12.7423 19.1369 12.7477 19.1476 12.7477 19.1611V21.8844C12.7477 21.8978 12.7423 21.9099 12.7316 21.9206C12.7235 21.9287 12.7128 21.9327 12.6993 21.9327H12.228Z" fill="#040404"/>
<path d="M14.0452 21.9649C13.8626 21.9649 13.7015 21.9287 13.5618 21.8562C13.4222 21.7837 13.3134 21.6816 13.2355 21.55C13.1603 21.4157 13.1227 21.2613 13.1227 21.0867V19.9547C13.1227 19.7801 13.1603 19.627 13.2355 19.4954C13.3134 19.3638 13.4222 19.2618 13.5618 19.1893C13.7015 19.1168 13.8626 19.0805 14.0452 19.0805C14.2252 19.0805 14.385 19.1168 14.5246 19.1893C14.667 19.2591 14.7758 19.3585 14.851 19.4874C14.9288 19.6136 14.9678 19.7573 14.9678 19.9184V20.0071C14.9678 20.0205 14.9624 20.0326 14.9517 20.0433C14.9436 20.0514 14.9329 20.0554 14.9194 20.0554H14.4481C14.4347 20.0554 14.4226 20.0514 14.4118 20.0433C14.4038 20.0326 14.3998 20.0205 14.3998 20.0071V19.9225C14.3998 19.8204 14.3675 19.7358 14.3031 19.6687C14.2386 19.6015 14.1527 19.5679 14.0452 19.5679C13.9378 19.5679 13.8505 19.6029 13.7834 19.6727C13.7189 19.7425 13.6867 19.8338 13.6867 19.9466V21.0988C13.6867 21.2116 13.7203 21.3029 13.7874 21.3727C13.8572 21.4426 13.9472 21.4775 14.0573 21.4775C14.1621 21.4775 14.2453 21.4466 14.3071 21.3848C14.3716 21.3231 14.4038 21.2385 14.4038 21.131V20.8813C14.4038 20.8678 14.3971 20.8611 14.3836 20.8611H14.0694C14.056 20.8611 14.0439 20.8571 14.0332 20.849C14.0251 20.8383 14.0211 20.8262 14.0211 20.8128V20.4462C14.0211 20.4327 14.0251 20.422 14.0332 20.4139C14.0439 20.4032 14.056 20.3978 14.0694 20.3978H14.9194C14.9329 20.3978 14.9436 20.4032 14.9517 20.4139C14.9624 20.422 14.9678 20.4327 14.9678 20.4462V21.0867C14.9678 21.3553 14.8832 21.5688 14.714 21.7273C14.5475 21.8857 14.3246 21.9649 14.0452 21.9649Z" fill="#040404"/>
<path d="M17.0628 19.5518C17.0628 19.5653 17.0574 19.5773 17.0467 19.5881C17.0386 19.5961 17.0279 19.6002 17.0144 19.6002H15.9348C15.9214 19.6002 15.9146 19.6069 15.9146 19.6203V20.2488C15.9146 20.2622 15.9214 20.2689 15.9348 20.2689H16.6076C16.621 20.2689 16.6317 20.2743 16.6398 20.285C16.6505 20.2931 16.6559 20.3038 16.6559 20.3173V20.708C16.6559 20.7215 16.6505 20.7335 16.6398 20.7443C16.6317 20.7523 16.621 20.7564 16.6076 20.7564H15.9348C15.9214 20.7564 15.9146 20.7631 15.9146 20.7765V21.4251C15.9146 21.4385 15.9214 21.4453 15.9348 21.4453H17.0144C17.0279 21.4453 17.0386 21.4506 17.0467 21.4614C17.0574 21.4694 17.0628 21.4802 17.0628 21.4936V21.8844C17.0628 21.8978 17.0574 21.9099 17.0467 21.9206C17.0386 21.9287 17.0279 21.9327 17.0144 21.9327H15.395C15.3815 21.9327 15.3695 21.9287 15.3587 21.9206C15.3507 21.9099 15.3466 21.8978 15.3466 21.8844V19.1611C15.3466 19.1476 15.3507 19.1369 15.3587 19.1288C15.3695 19.1181 15.3815 19.1127 15.395 19.1127H17.0144C17.0279 19.1127 17.0386 19.1181 17.0467 19.1288C17.0574 19.1369 17.0628 19.1476 17.0628 19.1611V19.5518Z" fill="#040404"/>
<path d="M18.79 19.1611C18.79 19.1476 18.794 19.1369 18.8021 19.1288C18.8128 19.1181 18.8249 19.1127 18.8383 19.1127H19.3057C19.3191 19.1127 19.3298 19.1181 19.3379 19.1288C19.3486 19.1369 19.354 19.1476 19.354 19.1611V21.8844C19.354 21.8978 19.3486 21.9099 19.3379 21.9206C19.3298 21.9287 19.3191 21.9327 19.3057 21.9327H18.8142C18.7873 21.9327 18.7685 21.9206 18.7578 21.8965L17.9883 20.2568C17.9829 20.2488 17.9776 20.2447 17.9722 20.2447C17.9668 20.2447 17.9641 20.2501 17.9641 20.2609L17.9682 21.8844C17.9682 21.8978 17.9628 21.9099 17.9521 21.9206C17.944 21.9287 17.9333 21.9327 17.9198 21.9327H17.4525C17.4391 21.9327 17.427 21.9287 17.4163 21.9206C17.4082 21.9099 17.4042 21.8978 17.4042 21.8844V19.1611C17.4042 19.1476 17.4082 19.1369 17.4163 19.1288C17.427 19.1181 17.4391 19.1127 17.4525 19.1127H17.94C17.9668 19.1127 17.9856 19.1248 17.9964 19.149L18.7658 20.7886C18.7712 20.7967 18.7766 20.8007 18.7819 20.8007C18.7873 20.8007 18.79 20.7953 18.79 20.7846V19.1611Z" fill="#040404"/>
<path d="M21.5328 19.1127C21.5462 19.1127 21.557 19.1181 21.565 19.1288C21.5758 19.1369 21.5812 19.1476 21.5812 19.1611V19.5559C21.5812 19.5693 21.5758 19.5814 21.565 19.5921C21.557 19.6002 21.5462 19.6042 21.5328 19.6042H20.9205C20.907 19.6042 20.9003 19.6109 20.9003 19.6243V21.8844C20.9003 21.8978 20.895 21.9099 20.8842 21.9206C20.8762 21.9287 20.8654 21.9327 20.852 21.9327H20.3806C20.3672 21.9327 20.3551 21.9287 20.3444 21.9206C20.3363 21.9099 20.3323 21.8978 20.3323 21.8844V19.6243C20.3323 19.6109 20.3256 19.6042 20.3122 19.6042H19.72C19.7065 19.6042 19.6945 19.6002 19.6837 19.5921C19.6757 19.5814 19.6716 19.5693 19.6716 19.5559V19.1611C19.6716 19.1476 19.6757 19.1369 19.6837 19.1288C19.6945 19.1181 19.7065 19.1127 19.72 19.1127H21.5328Z" fill="#040404"/>
<path d="M23.6171 19.5518C23.6171 19.5653 23.6117 19.5773 23.6009 19.5881C23.5929 19.5961 23.5821 19.6002 23.5687 19.6002H22.4891C22.4756 19.6002 22.4689 19.6069 22.4689 19.6203V20.2488C22.4689 20.2622 22.4756 20.2689 22.4891 20.2689H23.1618C23.1753 20.2689 23.186 20.2743 23.1941 20.285C23.2048 20.2931 23.2102 20.3038 23.2102 20.3173V20.708C23.2102 20.7215 23.2048 20.7335 23.1941 20.7443C23.186 20.7523 23.1753 20.7564 23.1618 20.7564H22.4891C22.4756 20.7564 22.4689 20.7631 22.4689 20.7765V21.4251C22.4689 21.4385 22.4756 21.4453 22.4891 21.4453H23.5687C23.5821 21.4453 23.5929 21.4506 23.6009 21.4614C23.6117 21.4694 23.6171 21.4802 23.6171 21.4936V21.8844C23.6171 21.8978 23.6117 21.9099 23.6009 21.9206C23.5929 21.9287 23.5821 21.9327 23.5687 21.9327H21.9492C21.9358 21.9327 21.9237 21.9287 21.913 21.9206C21.9049 21.9099 21.9009 21.8978 21.9009 21.8844V19.1611C21.9009 19.1476 21.9049 19.1369 21.913 19.1288C21.9237 19.1181 21.9358 19.1127 21.9492 19.1127H23.5687C23.5821 19.1127 23.5929 19.1181 23.6009 19.1288C23.6117 19.1369 23.6171 19.1476 23.6171 19.1611V19.5518Z" fill="#040404"/>
<path d="M25.6391 21.9649C25.4565 21.9649 25.2954 21.9287 25.1557 21.8562C25.0161 21.7837 24.9073 21.6816 24.8294 21.55C24.7542 21.4157 24.7166 21.2613 24.7166 21.0867V19.9547C24.7166 19.7801 24.7542 19.627 24.8294 19.4954C24.9073 19.3638 25.0161 19.2618 25.1557 19.1893C25.2954 19.1168 25.4565 19.0805 25.6391 19.0805C25.8191 19.0805 25.9789 19.1168 26.1185 19.1893C26.2609 19.2591 26.3697 19.3585 26.4449 19.4874C26.5227 19.6136 26.5617 19.7573 26.5617 19.9184V20.0071C26.5617 20.0205 26.5563 20.0326 26.5456 20.0433C26.5375 20.0514 26.5268 20.0554 26.5133 20.0554H26.042C26.0286 20.0554 26.0165 20.0514 26.0057 20.0433C25.9977 20.0326 25.9937 20.0205 25.9937 20.0071V19.9225C25.9937 19.8204 25.9614 19.7358 25.897 19.6687C25.8325 19.6015 25.7466 19.5679 25.6391 19.5679C25.5317 19.5679 25.4444 19.6029 25.3773 19.6727C25.3128 19.7425 25.2806 19.8338 25.2806 19.9466V21.0988C25.2806 21.2116 25.3142 21.3029 25.3813 21.3727C25.4511 21.4426 25.5411 21.4775 25.6512 21.4775C25.756 21.4775 25.8392 21.4466 25.901 21.3848C25.9655 21.3231 25.9977 21.2385 25.9977 21.131V20.8813C25.9977 20.8678 25.991 20.8611 25.9775 20.8611H25.6633C25.6499 20.8611 25.6378 20.8571 25.6271 20.849C25.619 20.8383 25.615 20.8262 25.615 20.8128V20.4462C25.615 20.4327 25.619 20.422 25.6271 20.4139C25.6378 20.4032 25.6499 20.3978 25.6633 20.3978H26.5133C26.5268 20.3978 26.5375 20.4032 26.5456 20.4139C26.5563 20.422 26.5617 20.4327 26.5617 20.4462V21.0867C26.5617 21.3553 26.4771 21.5688 26.3079 21.7273C26.1414 21.8857 25.9185 21.9649 25.6391 21.9649Z" fill="#040404"/>
<path d="M28.6567 19.5518C28.6567 19.5653 28.6513 19.5773 28.6406 19.5881C28.6325 19.5961 28.6218 19.6002 28.6083 19.6002H27.5287C27.5153 19.6002 27.5085 19.6069 27.5085 19.6203V20.2488C27.5085 20.2622 27.5153 20.2689 27.5287 20.2689H28.2015C28.2149 20.2689 28.2256 20.2743 28.2337 20.285C28.2444 20.2931 28.2498 20.3038 28.2498 20.3173V20.708C28.2498 20.7215 28.2444 20.7335 28.2337 20.7443C28.2256 20.7523 28.2149 20.7564 28.2015 20.7564H27.5287C27.5153 20.7564 27.5085 20.7631 27.5085 20.7765V21.4251C27.5085 21.4385 27.5153 21.4453 27.5287 21.4453H28.6083C28.6218 21.4453 28.6325 21.4506 28.6406 21.4614C28.6513 21.4694 28.6567 21.4802 28.6567 21.4936V21.8844C28.6567 21.8978 28.6513 21.9099 28.6406 21.9206C28.6325 21.9287 28.6218 21.9327 28.6083 21.9327H26.9889C26.9754 21.9327 26.9633 21.9287 26.9526 21.9206C26.9445 21.9099 26.9405 21.8978 26.9405 21.8844V19.1611C26.9405 19.1476 26.9445 19.1369 26.9526 19.1288C26.9633 19.1181 26.9754 19.1127 26.9889 19.1127H28.6083C28.6218 19.1127 28.6325 19.1181 28.6406 19.1288C28.6513 19.1369 28.6567 19.1476 28.6567 19.1611V19.5518Z" fill="#040404"/>
<path d="M30.8351 21.1512C30.8351 21.4063 30.7518 21.601 30.5853 21.7353C30.4215 21.8669 30.2093 21.9327 29.9488 21.9327H29.0464C29.033 21.9327 29.0209 21.9287 29.0102 21.9206C29.0021 21.9099 28.9981 21.8978 28.9981 21.8844V19.1611C28.9981 19.1476 29.0021 19.1369 29.0102 19.1288C29.0209 19.1181 29.033 19.1127 29.0464 19.1127H29.8884C30.1758 19.1127 30.3987 19.1772 30.5571 19.3061C30.7156 19.4323 30.7948 19.6257 30.7948 19.8862C30.7948 20.1521 30.6914 20.3441 30.4846 20.4623C30.4712 20.4703 30.4698 20.4784 30.4806 20.4865C30.7169 20.6207 30.8351 20.8423 30.8351 21.1512ZM29.5862 19.6002C29.5728 19.6002 29.5661 19.6069 29.5661 19.6203V20.2528C29.5661 20.2662 29.5728 20.2729 29.5862 20.2729H29.8924C29.9998 20.2729 30.0844 20.2434 30.1462 20.1843C30.208 20.1252 30.2389 20.0433 30.2389 19.9386C30.2389 19.8311 30.208 19.7479 30.1462 19.6888C30.0871 19.6297 30.0025 19.6002 29.8924 19.6002H29.5862ZM29.9246 21.4412C30.0321 21.4412 30.1153 21.4103 30.1744 21.3486C30.2362 21.2841 30.2671 21.1941 30.2671 21.0787C30.2671 20.9632 30.2362 20.8732 30.1744 20.8087C30.1153 20.7416 30.0321 20.708 29.9246 20.708H29.5862C29.5728 20.708 29.5661 20.7147 29.5661 20.7282V21.4211C29.5661 21.4345 29.5728 21.4412 29.5862 21.4412H29.9246Z" fill="#040404"/>
<path d="M32.5659 21.9327C32.5363 21.9327 32.5175 21.9193 32.5095 21.8924L32.4168 21.4976C32.4141 21.4869 32.4074 21.4815 32.3967 21.4815H31.6433C31.6326 21.4815 31.6259 21.4869 31.6232 21.4976L31.5305 21.8924C31.5225 21.9193 31.505 21.9327 31.4782 21.9327H30.9907C30.9558 21.9327 30.9424 21.9153 30.9504 21.8803L31.6756 19.153C31.6836 19.1262 31.7024 19.1127 31.732 19.1127H32.3161C32.3456 19.1127 32.3644 19.1262 32.3725 19.153L33.0976 21.8803L33.1017 21.8965C33.1017 21.9206 33.0869 21.9327 33.0574 21.9327H32.5659ZM31.732 21.0182C31.7293 21.0263 31.7306 21.033 31.736 21.0384C31.7414 21.0411 31.7467 21.0424 31.7521 21.0424H32.2839C32.2892 21.0424 32.2946 21.0411 32.3 21.0384C32.3054 21.033 32.3067 21.0263 32.304 21.0182L32.026 19.8499C32.0234 19.8392 32.0193 19.8338 32.014 19.8338C32.0086 19.8338 32.0046 19.8392 32.0019 19.8499L31.732 21.0182ZM32.4047 18.867C32.3134 18.867 32.2369 18.8374 32.1751 18.7784C32.116 18.7166 32.0865 18.64 32.0865 18.5487C32.0865 18.4547 32.116 18.3782 32.1751 18.3191C32.2342 18.26 32.3107 18.2305 32.4047 18.2305C32.4987 18.2305 32.5753 18.26 32.6343 18.3191C32.6934 18.3782 32.723 18.4547 32.723 18.5487C32.723 18.64 32.6921 18.7166 32.6303 18.7784C32.5712 18.8374 32.496 18.867 32.4047 18.867ZM31.6312 18.867C31.5399 18.867 31.4634 18.8374 31.4016 18.7784C31.3425 18.7166 31.313 18.64 31.313 18.5487C31.313 18.4547 31.3425 18.3782 31.4016 18.3191C31.4607 18.26 31.5372 18.2305 31.6312 18.2305C31.7252 18.2305 31.8018 18.26 31.8609 18.3191C31.92 18.3782 31.9495 18.4547 31.9495 18.5487C31.9495 18.64 31.9186 18.7166 31.8568 18.7784C31.7978 18.8374 31.7226 18.867 31.6312 18.867Z" fill="#040404"/>
<path d="M34.2752 21.9649C34.0926 21.9649 33.9315 21.9273 33.7918 21.8521C33.6521 21.7769 33.5434 21.6722 33.4655 21.5379C33.3903 21.4009 33.3527 21.2438 33.3527 21.0666V19.1611C33.3527 19.1476 33.3567 19.1369 33.3648 19.1288C33.3755 19.1181 33.3876 19.1127 33.401 19.1127H33.8724C33.8858 19.1127 33.8965 19.1181 33.9046 19.1288C33.9153 19.1369 33.9207 19.1476 33.9207 19.1611V21.0948C33.9207 21.2103 33.9529 21.3029 34.0174 21.3727C34.0819 21.4426 34.1678 21.4775 34.2752 21.4775C34.3827 21.4775 34.4686 21.4426 34.5331 21.3727C34.5975 21.3029 34.6297 21.2103 34.6297 21.0948V19.1611C34.6297 19.1476 34.6338 19.1369 34.6418 19.1288C34.6526 19.1181 34.6647 19.1127 34.6781 19.1127H35.1494C35.1629 19.1127 35.1736 19.1181 35.1817 19.1288C35.1924 19.1369 35.1978 19.1476 35.1978 19.1611V21.0666C35.1978 21.2438 35.1588 21.4009 35.0809 21.5379C35.0057 21.6722 34.8983 21.7769 34.7587 21.8521C34.619 21.9273 34.4579 21.9649 34.2752 21.9649Z" fill="#040404"/>
<path d="M35.64 21.9327C35.6266 21.9327 35.6145 21.9287 35.6038 21.9206C35.5957 21.9099 35.5917 21.8978 35.5917 21.8844V19.1611C35.5917 19.1476 35.5957 19.1369 35.6038 19.1288C35.6145 19.1181 35.6266 19.1127 35.64 19.1127H36.5062C36.6861 19.1127 36.8446 19.1463 36.9815 19.2134C37.1212 19.2806 37.2286 19.3759 37.3038 19.4995C37.379 19.623 37.4166 19.7667 37.4166 19.9305V21.1149C37.4166 21.2787 37.379 21.4224 37.3038 21.546C37.2286 21.6695 37.1212 21.7649 36.9815 21.832C36.8446 21.8991 36.6861 21.9327 36.5062 21.9327H35.64ZM36.1597 21.4251C36.1597 21.4385 36.1664 21.4453 36.1799 21.4453L36.5102 21.4412C36.6096 21.4412 36.6901 21.4063 36.7519 21.3365C36.8137 21.264 36.8459 21.1686 36.8486 21.0505V19.995C36.8486 19.8741 36.8177 19.7788 36.7559 19.7089C36.6942 19.6364 36.6123 19.6002 36.5102 19.6002H36.1799C36.1664 19.6002 36.1597 19.6069 36.1597 19.6203V21.4251Z" fill="#040404"/>
<path d="M39.507 19.5518C39.507 19.5653 39.5017 19.5773 39.4909 19.5881C39.4829 19.5961 39.4721 19.6002 39.4587 19.6002H38.379C38.3656 19.6002 38.3589 19.6069 38.3589 19.6203V20.2488C38.3589 20.2622 38.3656 20.2689 38.379 20.2689H39.0518C39.0652 20.2689 39.076 20.2743 39.084 20.285C39.0948 20.2931 39.1001 20.3038 39.1001 20.3173V20.708C39.1001 20.7215 39.0948 20.7335 39.084 20.7443C39.076 20.7523 39.0652 20.7564 39.0518 20.7564H38.379C38.3656 20.7564 38.3589 20.7631 38.3589 20.7765V21.4251C38.3589 21.4385 38.3656 21.4453 38.379 21.4453H39.4587C39.4721 21.4453 39.4829 21.4506 39.4909 21.4614C39.5017 21.4694 39.507 21.4802 39.507 21.4936V21.8844C39.507 21.8978 39.5017 21.9099 39.4909 21.9206C39.4829 21.9287 39.4721 21.9327 39.4587 21.9327H37.8392C37.8258 21.9327 37.8137 21.9287 37.803 21.9206C37.7949 21.9099 37.7909 21.8978 37.7909 21.8844V19.1611C37.7909 19.1476 37.7949 19.1369 37.803 19.1288C37.8137 19.1181 37.8258 19.1127 37.8392 19.1127H39.4587C39.4721 19.1127 39.4829 19.1181 39.4909 19.1288C39.5017 19.1369 39.507 19.1476 39.507 19.1611V19.5518Z" fill="#040404"/>
<path d="M41.3705 21.9327C41.3409 21.9327 41.3221 21.9193 41.3141 21.8924L41.2214 21.4976C41.2187 21.4869 41.212 21.4815 41.2013 21.4815H40.4479C40.4372 21.4815 40.4305 21.4869 40.4278 21.4976L40.3351 21.8924C40.3271 21.9193 40.3096 21.9327 40.2828 21.9327H39.7953C39.7604 21.9327 39.747 21.9153 39.755 21.8803L40.4802 19.153C40.4882 19.1262 40.507 19.1127 40.5366 19.1127H41.1207C41.1502 19.1127 41.169 19.1262 41.1771 19.153L41.9022 21.8803L41.9063 21.8965C41.9063 21.9206 41.8915 21.9327 41.8619 21.9327H41.3705ZM40.5366 21.0182C40.5339 21.0263 40.5352 21.033 40.5406 21.0384C40.546 21.0411 40.5513 21.0424 40.5567 21.0424H41.0885C41.0938 21.0424 41.0992 21.0411 41.1046 21.0384C41.11 21.033 41.1113 21.0263 41.1086 21.0182L40.8306 19.8499C40.828 19.8392 40.8239 19.8338 40.8186 19.8338C40.8132 19.8338 40.8092 19.8392 40.8065 19.8499L40.5366 21.0182Z" fill="#040404"/>
<path d="M43.0798 21.9649C42.8972 21.9649 42.7361 21.9273 42.5964 21.8521C42.4567 21.7769 42.348 21.6722 42.2701 21.5379C42.1949 21.4009 42.1573 21.2438 42.1573 21.0666V19.1611C42.1573 19.1476 42.1613 19.1369 42.1694 19.1288C42.1801 19.1181 42.1922 19.1127 42.2056 19.1127H42.677C42.6904 19.1127 42.7011 19.1181 42.7092 19.1288C42.7199 19.1369 42.7253 19.1476 42.7253 19.1611V21.0948C42.7253 21.2103 42.7575 21.3029 42.822 21.3727C42.8865 21.4426 42.9724 21.4775 43.0798 21.4775C43.1873 21.4775 43.2732 21.4426 43.3377 21.3727C43.4021 21.3029 43.4343 21.2103 43.4343 21.0948V19.1611C43.4343 19.1476 43.4384 19.1369 43.4464 19.1288C43.4572 19.1181 43.4693 19.1127 43.4827 19.1127H43.954C43.9675 19.1127 43.9782 19.1181 43.9863 19.1288C43.997 19.1369 44.0024 19.1476 44.0024 19.1611V21.0666C44.0024 21.2438 43.9634 21.4009 43.8855 21.5379C43.8103 21.6722 43.7029 21.7769 43.5633 21.8521C43.4236 21.9273 43.2625 21.9649 43.0798 21.9649Z" fill="#040404"/>
<path d="M46.1605 19.1127C46.1739 19.1127 46.1847 19.1181 46.1927 19.1288C46.2035 19.1369 46.2089 19.1476 46.2089 19.1611V19.5559C46.2089 19.5693 46.2035 19.5814 46.1927 19.5921C46.1847 19.6002 46.1739 19.6042 46.1605 19.6042H45.5482C45.5347 19.6042 45.528 19.6109 45.528 19.6243V21.8844C45.528 21.8978 45.5227 21.9099 45.5119 21.9206C45.5039 21.9287 45.4931 21.9327 45.4797 21.9327H45.0083C44.9949 21.9327 44.9828 21.9287 44.9721 21.9206C44.964 21.9099 44.96 21.8978 44.96 21.8844V19.6243C44.96 19.6109 44.9533 19.6042 44.9399 19.6042H44.3477C44.3342 19.6042 44.3221 19.6002 44.3114 19.5921C44.3033 19.5814 44.2993 19.5693 44.2993 19.5559V19.1611C44.2993 19.1476 44.3033 19.1369 44.3114 19.1288C44.3221 19.1181 44.3342 19.1127 44.3477 19.1127H46.1605Z" fill="#040404"/>
<path d="M47.3204 21.969C47.1351 21.969 46.9713 21.9314 46.829 21.8562C46.6893 21.781 46.5805 21.6749 46.5027 21.5379C46.4248 21.4009 46.3858 21.2411 46.3858 21.0585V19.9869C46.3858 19.807 46.4248 19.6485 46.5027 19.5115C46.5805 19.3746 46.6893 19.2685 46.829 19.1933C46.9713 19.1181 47.1351 19.0805 47.3204 19.0805C47.5058 19.0805 47.6696 19.1181 47.8119 19.1933C47.9543 19.2685 48.0644 19.3746 48.1423 19.5115C48.2202 19.6485 48.2591 19.807 48.2591 19.9869V21.0585C48.2591 21.2411 48.2202 21.4009 48.1423 21.5379C48.0644 21.6749 47.9543 21.781 47.8119 21.8562C47.6696 21.9314 47.5058 21.969 47.3204 21.969ZM47.3204 21.4815C47.4332 21.4815 47.5232 21.4453 47.5904 21.3727C47.6575 21.2975 47.6911 21.2009 47.6911 21.0827V19.9708C47.6911 19.8499 47.6575 19.7533 47.5904 19.6807C47.5232 19.6055 47.4332 19.5679 47.3204 19.5679C47.2103 19.5679 47.1217 19.6055 47.0546 19.6807C46.9874 19.7533 46.9538 19.8499 46.9538 19.9708V21.0827C46.9538 21.2009 46.9874 21.2975 47.0546 21.3727C47.1217 21.4453 47.2103 21.4815 47.3204 21.4815Z" fill="#040404"/>
<path d="M50.1883 19.145C50.199 19.1235 50.2178 19.1127 50.2447 19.1127H50.712C50.7254 19.1127 50.7362 19.1181 50.7442 19.1288C50.755 19.1369 50.7603 19.1476 50.7603 19.1611V21.8844C50.7603 21.8978 50.755 21.9099 50.7442 21.9206C50.7362 21.9287 50.7254 21.9327 50.712 21.9327H50.2406C50.2272 21.9327 50.2151 21.9287 50.2044 21.9206C50.1963 21.9099 50.1923 21.8978 50.1923 21.8844V20.0957C50.1923 20.0849 50.1896 20.0796 50.1842 20.0796C50.1789 20.0769 50.1735 20.0796 50.1681 20.0876L49.7975 20.7C49.7868 20.7215 49.768 20.7322 49.7411 20.7322H49.6485C49.6216 20.7322 49.6028 20.7215 49.592 20.7L49.2214 20.0876C49.216 20.0796 49.2107 20.0769 49.2053 20.0796C49.1999 20.0796 49.1973 20.0849 49.1973 20.0957V21.8844C49.1973 21.8978 49.1919 21.9099 49.1811 21.9206C49.1731 21.9287 49.1623 21.9327 49.1489 21.9327H48.6776C48.6641 21.9327 48.6521 21.9287 48.6413 21.9206C48.6333 21.9099 48.6292 21.8978 48.6292 21.8844V19.1611C48.6292 19.1476 48.6333 19.1369 48.6413 19.1288C48.6521 19.1181 48.6641 19.1127 48.6776 19.1127H49.1449C49.1717 19.1127 49.1905 19.1235 49.2013 19.145L49.6847 19.9386C49.6928 19.9547 49.7008 19.9547 49.7089 19.9386L50.1883 19.145Z" fill="#040404"/>
<path d="M52.6693 21.9327C52.6398 21.9327 52.621 21.9193 52.6129 21.8924L52.5202 21.4976C52.5176 21.4869 52.5108 21.4815 52.5001 21.4815H51.7468C51.736 21.4815 51.7293 21.4869 51.7266 21.4976L51.634 21.8924C51.6259 21.9193 51.6084 21.9327 51.5816 21.9327H51.0941C51.0592 21.9327 51.0458 21.9153 51.0539 21.8803L51.779 19.153C51.7871 19.1262 51.8058 19.1127 51.8354 19.1127H52.4195C52.4491 19.1127 52.4679 19.1262 52.4759 19.153L53.2011 21.8803L53.2051 21.8965C53.2051 21.9206 53.1903 21.9327 53.1608 21.9327H52.6693ZM51.8354 21.0182C51.8327 21.0263 51.834 21.033 51.8394 21.0384C51.8448 21.0411 51.8502 21.0424 51.8555 21.0424H52.3873C52.3927 21.0424 52.398 21.0411 52.4034 21.0384C52.4088 21.033 52.4101 21.0263 52.4074 21.0182L52.1295 19.8499C52.1268 19.8392 52.1228 19.8338 52.1174 19.8338C52.112 19.8338 52.108 19.8392 52.1053 19.8499L51.8354 21.0182Z" fill="#040404"/>
<path d="M54.9612 19.1127C54.9746 19.1127 54.9853 19.1181 54.9934 19.1288C55.0041 19.1369 55.0095 19.1476 55.0095 19.1611V19.5559C55.0095 19.5693 55.0041 19.5814 54.9934 19.5921C54.9853 19.6002 54.9746 19.6042 54.9612 19.6042H54.3488C54.3354 19.6042 54.3287 19.6109 54.3287 19.6243V21.8844C54.3287 21.8978 54.3233 21.9099 54.3126 21.9206C54.3045 21.9287 54.2938 21.9327 54.2803 21.9327H53.809C53.7956 21.9327 53.7835 21.9287 53.7727 21.9206C53.7647 21.9099 53.7607 21.8978 53.7607 21.8844V19.6243C53.7607 19.6109 53.7539 19.6042 53.7405 19.6042H53.1483C53.1349 19.6042 53.1228 19.6002 53.1121 19.5921C53.104 19.5814 53.1 19.5693 53.1 19.5559V19.1611C53.1 19.1476 53.104 19.1369 53.1121 19.1288C53.1228 19.1181 53.1349 19.1127 53.1483 19.1127H54.9612Z" fill="#040404"/>
<path d="M55.3776 21.9327C55.3642 21.9327 55.3521 21.9287 55.3413 21.9206C55.3333 21.9099 55.3293 21.8978 55.3293 21.8844V19.1611C55.3293 19.1476 55.3333 19.1369 55.3413 19.1288C55.3521 19.1181 55.3642 19.1127 55.3776 19.1127H55.8489C55.8624 19.1127 55.8731 19.1181 55.8812 19.1288C55.8919 19.1369 55.8973 19.1476 55.8973 19.1611V21.8844C55.8973 21.8978 55.8919 21.9099 55.8812 21.9206C55.8731 21.9287 55.8624 21.9327 55.8489 21.9327H55.3776Z" fill="#040404"/>
<path d="M57.2069 21.969C57.0216 21.969 56.8578 21.9314 56.7155 21.8562C56.5758 21.781 56.467 21.6749 56.3891 21.5379C56.3113 21.4009 56.2723 21.2411 56.2723 21.0585V19.9869C56.2723 19.807 56.3113 19.6485 56.3891 19.5115C56.467 19.3746 56.5758 19.2685 56.7155 19.1933C56.8578 19.1181 57.0216 19.0805 57.2069 19.0805C57.3922 19.0805 57.5561 19.1181 57.6984 19.1933C57.8408 19.2685 57.9509 19.3746 58.0288 19.5115C58.1066 19.6485 58.1456 19.807 58.1456 19.9869V21.0585C58.1456 21.2411 58.1066 21.4009 58.0288 21.5379C57.9509 21.6749 57.8408 21.781 57.6984 21.8562C57.5561 21.9314 57.3922 21.969 57.2069 21.969ZM57.2069 21.4815C57.3197 21.4815 57.4097 21.4453 57.4768 21.3727C57.544 21.2975 57.5776 21.2009 57.5776 21.0827V19.9708C57.5776 19.8499 57.544 19.7533 57.4768 19.6807C57.4097 19.6055 57.3197 19.5679 57.2069 19.5679C57.0968 19.5679 57.0082 19.6055 56.941 19.6807C56.8739 19.7533 56.8403 19.8499 56.8403 19.9708V21.0827C56.8403 21.2009 56.8739 21.2975 56.941 21.3727C57.0082 21.4453 57.0968 21.4815 57.2069 21.4815Z" fill="#040404"/>
<path d="M59.9096 19.1611C59.9096 19.1476 59.9136 19.1369 59.9217 19.1288C59.9324 19.1181 59.9445 19.1127 59.9579 19.1127H60.4252C60.4387 19.1127 60.4494 19.1181 60.4575 19.1288C60.4682 19.1369 60.4736 19.1476 60.4736 19.1611V21.8844C60.4736 21.8978 60.4682 21.9099 60.4575 21.9206C60.4494 21.9287 60.4387 21.9327 60.4252 21.9327H59.9338C59.9069 21.9327 59.8881 21.9206 59.8774 21.8965L59.1079 20.2568C59.1025 20.2488 59.0972 20.2447 59.0918 20.2447C59.0864 20.2447 59.0837 20.2501 59.0837 20.2609L59.0878 21.8844C59.0878 21.8978 59.0824 21.9099 59.0717 21.9206C59.0636 21.9287 59.0528 21.9327 59.0394 21.9327H58.5721C58.5587 21.9327 58.5466 21.9287 58.5359 21.9206C58.5278 21.9099 58.5238 21.8978 58.5238 21.8844V19.1611C58.5238 19.1476 58.5278 19.1369 58.5359 19.1288C58.5466 19.1181 58.5587 19.1127 58.5721 19.1127H59.0596C59.0864 19.1127 59.1052 19.1248 59.116 19.149L59.8854 20.7886C59.8908 20.7967 59.8962 20.8007 59.9015 20.8007C59.9069 20.8007 59.9096 20.7953 59.9096 20.7846V19.1611Z" fill="#040404"/>
<path fill-rule="evenodd" clip-rule="evenodd" d="M61.8909 17.2433H0.634766V16.6914H61.8909V17.2433ZM79.5503 17.2433H76.5151V16.6914H79.5503V17.2433Z" fill="#005F84"/>
<path d="M68.7892 23.5881L62.7188 21.1048L68.7892 22.2085V23.5881Z" fill="#646363"/>
<path d="M68.7892 21.1048V19.7251L62.7188 18.8974V20.0011L68.7892 21.1048Z" fill="#646363"/>
<path d="M68.7892 18.6214V17.2418L62.7188 16.9659V17.7936L68.7892 18.6214Z" fill="#646363"/>
<path d="M68.7892 16.1381V15.0344L62.7188 14.7584V15.8622L68.7892 16.1381Z" fill="#646363"/>
<path d="M68.7892 13.6547V12.551H62.7188V13.6547H68.7892Z" fill="#646363"/>
<path d="M68.7892 11.1714V10.3436H62.7188V11.1714H68.7892Z" fill="#646363"/>
<path d="M68.7892 8.96394V7.86022L62.7188 8.41208V9.23987L68.7892 8.96394Z" fill="#646363"/>
<path d="M68.7892 6.48058V5.10094L62.7188 6.20465V7.03244L68.7892 6.48058Z" fill="#646363"/>
<path d="M68.7892 3.99723V2.89351L62.7188 3.99723V5.10094L68.7892 3.99723Z" fill="#646363"/>
<path d="M68.7892 1.7898V0.410156L62.7188 2.89351L68.7892 1.7898Z" fill="#646363"/>
<path d="M69.617 1.7898V0.410156L75.6874 2.89351L69.617 1.7898Z" fill="#646363"/>
<path d="M69.617 3.99723V2.89351L75.6874 3.99723V5.10094L69.617 3.99723Z" fill="#646363"/>
<path d="M69.617 6.48058V5.10094L75.6874 5.92873V7.30837L69.617 6.48058Z" fill="#646363"/>
<path d="M69.617 8.96394V7.86022L75.6874 8.13615V9.23987L69.617 8.96394Z" fill="#646363"/>
<path d="M69.617 11.1714V10.3436H75.6874V11.1714H69.617Z" fill="#646363"/>
<path d="M69.617 13.6547V12.551H75.6874V13.3788L69.617 13.6547Z" fill="#646363"/>
<path d="M69.617 16.1381V15.0344L75.6874 14.7584V15.5862L69.617 16.1381Z" fill="#646363"/>
<path d="M69.617 18.6214V17.2418L75.6874 16.9659V17.7936L69.617 18.6214Z" fill="#646363"/>
<path d="M69.617 21.1048V19.7251L75.6874 18.8974V20.0011L69.617 21.1048Z" fill="#646363"/>
<path d="M69.617 23.5881V22.2085L75.6874 21.1048V21.3807L69.617 23.5881Z" fill="#646363"/>
<path fill-rule="evenodd" clip-rule="evenodd" d="M69.0637 0V2.02093L62.7667 3.16584L62.6129 2.63898L69.0637 0ZM69.3396 0L75.7904 2.63898L75.6366 3.16584L69.3396 2.02093V0ZM65.2631 2.15105L68.5118 1.56036V0.822009L65.2631 2.15105ZM69.8915 0.822009V1.56036L73.1402 2.15105L69.8915 0.822009ZM69.0637 2.56374V4.22836L62.4414 5.43241V3.76779L69.0637 2.56374ZM69.3396 2.56374L75.9619 3.76779V5.43241L69.3396 4.22836V2.56374ZM62.9933 4.22836V4.77117L68.5118 3.76779V3.22498L62.9933 4.22836ZM69.8915 3.22498V3.76779L75.41 4.77117V4.22836L69.8915 3.22498ZM69.0637 4.77117V6.73341L62.4414 7.33544V5.97522L69.0637 4.77117ZM69.3396 4.78568L75.9619 5.68872V7.62532L69.3396 6.72229V4.78568ZM69.8915 5.4179V6.24058L75.41 6.99311V6.17043L69.8915 5.4179ZM62.9933 6.43579V6.73114L68.5118 6.22945V5.43241L62.9933 6.43579ZM69.0637 7.55892V9.22846L62.4414 9.52947V8.16095L69.0637 7.55892ZM69.3396 7.57232L75.9619 7.87333V9.52947L69.3396 9.22846V7.57232ZM69.8915 8.14983V8.70112L75.41 8.95196V8.40067L69.8915 8.14983ZM62.9933 8.66491V8.95196L68.5118 8.70112V8.16322L62.9933 8.66491ZM62.4414 10.0685H69.0637V11.4481H62.4414V10.0685ZM62.9933 10.6204V10.8963H68.5118V10.6204H62.9933ZM69.3396 10.0685H75.9619V11.4481H69.3396V10.0685ZM69.8915 10.6204V10.8963H75.41V10.6204H69.8915ZM62.4414 12.2759H69.0637V13.9315H62.4414V12.2759ZM62.9933 12.8278V13.3796H68.5118V12.8278H62.9933ZM69.3396 12.2759H75.9619V13.6433L69.3396 13.9443V12.2759ZM69.8915 12.8278V13.3668L75.41 13.116V12.8278H69.8915ZM62.4414 14.4705L69.0637 14.7715V16.4277L62.4414 16.1267V14.4705ZM75.9619 14.4705V15.8391L69.3396 16.4411V14.7715L75.9619 14.4705ZM62.9933 15.048V15.5993L68.5118 15.8502V15.2989L62.9933 15.048ZM69.8915 15.2989V15.8368L75.41 15.3351V15.048L69.8915 15.2989ZM62.4414 16.678L69.0637 16.979V18.9384L62.4414 18.0354V16.678ZM75.9619 16.678V18.0354L69.3396 18.9384V16.979L75.9619 16.678ZM62.9933 17.2555V17.5536L68.5118 18.3062V17.5063L62.9933 17.2555ZM69.8915 17.5063V18.3062L75.41 17.5536V17.2555L69.8915 17.5063ZM62.4414 18.5821L69.0637 19.4851V21.4363L62.4414 20.2322V18.5821ZM75.9619 18.5821V20.2322L69.3396 21.4363V19.4851L75.9619 18.5821ZM62.9933 19.2143V19.7716L68.5118 20.775V19.9669L62.9933 19.2143ZM69.8915 19.9669V20.775L75.41 19.7716V19.2143L69.8915 19.9669ZM75.9619 20.775V21.5748L69.3396 23.9829V21.9791L75.9619 20.775ZM62.6129 21.361L62.7667 20.8342L69.0637 21.9791V24L62.6129 21.361ZM65.2631 21.849L68.5118 23.178V22.4396L65.2631 21.849ZM69.8915 22.4396V23.1951L74.0463 21.6842L69.8915 22.4396Z" fill="#646363"/>
<path d="M68.7892 23.5881L62.7188 21.1048L68.7892 22.2085V23.5881Z" fill="black"/>
<path d="M68.7892 21.1048V19.7251L62.7188 18.8974V20.0011L68.7892 21.1048Z" fill="black"/>
<path d="M68.7892 18.6214V17.2418L62.7188 16.9659V17.7936L68.7892 18.6214Z" fill="black"/>
<path d="M68.7892 16.1381V15.0344L62.7188 14.7584V15.8622L68.7892 16.1381Z" fill="black"/>
<path d="M68.7892 13.6547V12.551H62.7188V13.6547H68.7892Z" fill="black"/>
<path d="M68.7892 11.1714V10.3436H62.7188V11.1714H68.7892Z" fill="black"/>
<path d="M68.7892 8.96394V7.86022L62.7188 8.41208V9.23987L68.7892 8.96394Z" fill="black"/>
<path d="M68.7892 6.48058V5.10094L62.7188 6.20465V7.03244L68.7892 6.48058Z" fill="black"/>
<path d="M68.7892 3.99723V2.89351L62.7188 3.99723V5.10094L68.7892 3.99723Z" fill="black"/>
<path d="M68.7892 1.7898V0.410156L62.7188 2.89351L68.7892 1.7898Z" fill="black"/>
<path fill-rule="evenodd" clip-rule="evenodd" d="M69.0637 0V2.02093L62.7667 3.16584L62.6129 2.63898L69.0637 0ZM65.2631 2.15105L68.5118 1.56036V0.822009L65.2631 2.15105ZM69.0637 2.56374V4.22836L62.4414 5.43241V3.76779L69.0637 2.56374ZM62.9933 4.22836V4.77117L68.5118 3.76779V3.22498L62.9933 4.22836ZM69.0637 4.77117V6.73341L62.4414 7.33544V5.97522L69.0637 4.77117ZM62.9933 6.43579V6.73114L68.5118 6.22945V5.43241L62.9933 6.43579ZM69.0637 7.55892V9.22846L62.4414 9.52947V8.16095L69.0637 7.55892ZM62.9933 8.66491V8.95196L68.5118 8.70112V8.16322L62.9933 8.66491ZM62.4414 10.0685H69.0637V11.4481H62.4414V10.0685ZM62.9933 10.6204V10.8963H68.5118V10.6204H62.9933ZM62.4414 12.2759H69.0637V13.9315H62.4414V12.2759ZM62.9933 12.8278V13.3796H68.5118V12.8278H62.9933ZM62.4414 14.4705L69.0637 14.7715V16.4277L62.4414 16.1267V14.4705ZM62.9933 15.048V15.5993L68.5118 15.8502V15.2989L62.9933 15.048ZM62.4414 16.678L69.0637 16.979V18.9384L62.4414 18.0354V16.678ZM62.9933 17.2555V17.5536L68.5118 18.3062V17.5063L62.9933 17.2555ZM62.4414 18.5821L69.0637 19.4851V21.4363L62.4414 20.2322V18.5821ZM62.9933 19.2143V19.7716L68.5118 20.775V19.9669L62.9933 19.2143ZM62.6129 21.361L62.7667 20.8342L69.0637 21.9791V24L62.6129 21.361ZM65.2631 21.849L68.5118 23.178V22.4396L65.2631 21.849Z" fill="black"/>
</svg>
