<svg width="78" height="24" viewBox="0 0 78 24" fill="none" xmlns="http://www.w3.org/2000/svg">
<g clip-path="url(#clip0_2394_17468)">
<path d="M4.72133 17.9999C4.87594 18.0054 5.02394 18.064 5.14044 18.1658C5.25695 18.2676 5.33485 18.4064 5.36106 18.5589C5.67082 20.202 7.23311 20.8754 8.90314 20.8754C10.2499 20.8754 11.9671 20.3501 11.9671 18.7003C11.9671 17.2794 10.021 16.7878 6.66072 16.0605C3.96712 15.468 1.27351 14.5117 1.27351 11.5151C1.25331 7.15146 5.01089 6.06055 8.67419 6.06055C12.1624 6.06055 15.4082 7.15819 16.0816 10.7339C16.0955 10.8954 16.0508 11.0565 15.9555 11.1876C15.8603 11.3187 15.7209 11.4111 15.5631 11.4478H15.4419H12.2903C12.1425 11.4428 12.0005 11.3894 11.8861 11.2957C11.7717 11.2019 11.6913 11.0732 11.6574 10.9292C11.3207 9.53529 10.0479 9.13799 8.53951 9.13799C7.48227 9.13799 5.93345 9.34001 5.93345 10.7205C5.93345 12.404 8.57318 12.6329 11.2466 13.2592C13.92 13.8855 16.6338 14.8754 16.6338 18.0403C16.6338 22.5252 12.7483 23.973 8.85601 23.973C5.12537 23.973 1.4486 22.6262 0.909878 18.7137C0.892111 18.5432 0.94004 18.3724 1.0439 18.236C1.14775 18.0996 1.29971 18.008 1.4688 17.9797H4.72133V17.9999Z" fill="#209D48"/>
<path d="M29.7723 13.1919C29.9509 13.1919 30.1222 13.1209 30.2485 12.9946C30.3747 12.8683 30.4457 12.6971 30.4457 12.5185C30.4522 12.4648 30.4522 12.4105 30.4457 12.3568C29.9339 10.505 28.9036 9.53529 26.9036 9.53529C26.0437 9.47898 25.1919 9.73162 24.5017 10.2477C23.8116 10.7638 23.3284 11.5093 23.1393 12.3501C23.1014 12.5168 23.1284 12.6916 23.2147 12.8392C23.3009 12.9868 23.4401 13.096 23.6039 13.1447C23.6576 13.1512 23.7119 13.1512 23.7656 13.1447L29.7723 13.1919ZM23.678 16.1616C23.4994 16.1616 23.3281 16.2325 23.2018 16.3588C23.0756 16.4851 23.0046 16.6564 23.0046 16.835C23.0013 16.8618 23.0013 16.8889 23.0046 16.9158C23.3278 19.3737 24.742 20.505 27.1258 20.505C27.8248 20.5261 28.5174 20.3675 29.1376 20.0445C29.7577 19.7214 30.2846 19.2447 30.6679 18.6599C30.7237 18.5521 30.8076 18.4614 30.9108 18.3974C31.0139 18.3334 31.1324 18.2984 31.2538 18.2962H34.0012C34.1798 18.2962 34.3511 18.3672 34.4774 18.4935C34.6037 18.6198 34.6746 18.791 34.6746 18.9696C34.6792 19.0531 34.663 19.1364 34.6275 19.2121C33.2066 22.5791 30.54 24.0605 26.9844 24.0605C21.5972 24.0605 18.2773 20.3636 18.2773 15.0908C18.2841 9.91913 21.7925 6.06055 26.9911 6.06055C32.5669 6.06055 35.3682 10.5319 35.2942 15.5286C35.2806 15.6977 35.2037 15.8554 35.0789 15.9703C34.954 16.0851 34.7904 16.1486 34.6208 16.1481L23.678 16.1616Z" fill="#209D48"/>
<path d="M37.8726 0H41.2396C41.4182 0 41.5895 0.0709474 41.7158 0.197235C41.8421 0.323522 41.913 0.494804 41.913 0.673401V22.8956C41.913 23.0742 41.8421 23.2455 41.7158 23.3718C41.5895 23.4981 41.4182 23.569 41.2396 23.569H37.8726C37.694 23.569 37.5227 23.4981 37.3965 23.3718C37.2702 23.2455 37.1992 23.0742 37.1992 22.8956V0.673401C37.1992 0.494804 37.2702 0.323522 37.3965 0.197235C37.5227 0.0709474 37.694 0 37.8726 0V0Z" fill="#209D48"/>
<path d="M54.148 23.5696H49.8719C49.7378 23.566 49.6078 23.5224 49.4986 23.4444C49.3895 23.3664 49.3061 23.2576 49.2592 23.1319L43.8719 7.38108C43.8233 7.21842 43.838 7.04341 43.9129 6.89108C43.9878 6.73874 44.1175 6.62032 44.276 6.55953C44.3433 6.53636 44.4136 6.52276 44.4847 6.51912H48.0134C48.1511 6.52292 48.2843 6.56885 48.3951 6.65074C48.5059 6.73262 48.5889 6.8465 48.6329 6.97704L52.0942 18.1285H52.1615L55.6093 6.9501C55.6533 6.81957 55.7364 6.70568 55.8471 6.6238C55.9579 6.54192 56.0911 6.49598 56.2288 6.49219H59.5016C59.6802 6.49219 59.8515 6.56313 59.9777 6.68942C60.104 6.81571 60.175 6.98699 60.175 7.16559C60.177 7.23667 60.1655 7.30749 60.1413 7.37434L54.7878 23.0982C54.7419 23.2252 54.659 23.3355 54.5497 23.4147C54.4405 23.494 54.3099 23.5386 54.175 23.5427" fill="#209D48"/>
<path d="M71.9868 13.1919C72.1654 13.1919 72.3366 13.1209 72.4629 12.9946C72.5892 12.8683 72.6602 12.6971 72.6602 12.5185C72.6666 12.4648 72.6666 12.4105 72.6602 12.3568C72.1484 10.505 71.1181 9.53529 69.1181 9.53529C68.2581 9.47898 67.4064 9.73162 66.7162 10.2477C66.0261 10.7638 65.5429 11.5093 65.3538 12.3501C65.3159 12.5168 65.3428 12.6916 65.4291 12.8392C65.5154 12.9868 65.6546 13.096 65.8184 13.1447C65.8721 13.1512 65.9264 13.1512 65.98 13.1447L71.9868 13.1919ZM65.6029 16.1616C65.4243 16.1616 65.253 16.2325 65.1268 16.3588C65.0005 16.4851 64.9295 16.6564 64.9295 16.835C64.9295 16.835 64.9295 16.8888 64.9295 16.9158C65.2595 19.3737 66.6736 20.505 69.0575 20.505C69.7564 20.5261 70.4491 20.3675 71.0692 20.0445C71.6894 19.7214 72.2163 19.2447 72.5996 18.6599C72.6548 18.5531 72.7377 18.463 72.8395 18.3991C72.9414 18.3351 73.0585 18.2996 73.1787 18.2962H75.9329C76.1115 18.2962 76.2828 18.3672 76.4091 18.4935C76.5353 18.6198 76.6063 18.791 76.6063 18.9696C76.6043 19.0525 76.5883 19.1345 76.5591 19.2121C75.1315 22.5791 72.4716 24.0605 68.9093 24.0605C63.5221 24.0605 60.209 20.3636 60.209 15.0908C60.2157 9.91913 63.7376 6.06055 68.9295 6.06055C74.4985 6.06055 77.3066 10.5589 77.2325 15.5555C77.219 15.7246 77.1421 15.8823 77.0172 15.9972C76.8924 16.1121 76.7288 16.1756 76.5591 16.175L65.6029 16.1616Z" fill="#209D48"/>
</g>
<defs>
<clipPath id="clip0_2394_17468">
<rect width="76.303" height="24" fill="white" transform="translate(0.916016)"/>
</clipPath>
</defs>
</svg>
