<svg width="46" height="24" viewBox="0 0 46 24" fill="none" xmlns="http://www.w3.org/2000/svg">
<g clip-path="url(#clip0_2394_17447)">
<path d="M0.492188 2.06445V2.72755H4.40147V16.5016H5.22538V2.72755H9.13466V2.06445H0.492188Z" fill="black"/>
<path d="M12.8429 11.0286H14.5749C17.3609 11.0286 19.4664 9.58363 19.4664 6.82239C19.459 4.35064 17.5638 2.7226 14.6466 2.7226H12.8429V11.0286ZM12.8429 16.5016H12.0215V2.06445H14.7283C18.0957 2.06445 20.3225 4.0092 20.3225 6.76548C20.3225 9.98198 17.7147 11.6397 14.4462 11.6397H14.1468L20.3324 16.4917H19.0953L13.0235 11.6496H12.8429V16.5016Z" fill="black"/>
<path d="M24.591 2.06445H23.7695V16.5016H24.591V2.06445Z" fill="black"/>
<path d="M45.1966 4.94845C44.4008 3.82836 43.3415 2.92139 42.1123 2.30759C40.883 1.69379 39.5216 1.39203 38.1481 1.42895C36.7746 1.46588 35.4313 1.84034 34.2368 2.5193C33.0423 3.19826 32.0333 4.16084 31.2988 5.32206C32.2341 2.2268 35.0201 0 38.3083 0C39.8265 0.0143627 41.3031 0.497503 42.5361 1.3833C43.7692 2.26911 44.6984 3.51429 45.1966 4.94845Z" fill="black"/>
<path d="M37.2422 17.2828C38.5698 17.1109 39.838 16.6278 40.9435 15.8727C42.049 15.1177 42.9604 14.1121 43.6034 12.938C44.3047 11.6785 44.6952 10.2699 44.7425 8.82911C44.7899 7.38835 44.4926 5.95709 43.8756 4.6543C44.937 5.86313 45.5984 7.3708 45.7689 8.97043C45.9395 10.5701 45.6109 12.1833 44.8282 13.5887C44.106 14.9179 42.9867 15.9883 41.6267 16.6505C40.2667 17.3128 38.7339 17.5338 37.2422 17.2828Z" fill="black"/>
<path d="M30.7437 4.05859C30.2221 5.32011 29.9921 6.68312 30.071 8.04593C30.1498 9.40874 30.5354 10.7361 31.1989 11.9291C31.8784 13.1688 32.8566 14.2192 34.0447 14.9853C35.2329 15.7513 36.5934 16.2087 38.0031 16.3159C36.4631 16.6607 34.8527 16.4941 33.4159 15.8413C31.9792 15.1886 30.7943 14.0853 30.041 12.6986C29.2909 11.3503 28.9573 9.80989 29.0823 8.27205C29.2074 6.73421 29.7855 5.26796 30.7437 4.05859Z" fill="black"/>
<path d="M26.4722 22.3917V23.0102H25.6558V22.3917H25.5667V23.9282H25.6558V23.0845H26.4722V23.9282H26.5613V22.3917H26.4722ZM29.0826 22.3917V23.9282H29.7555V23.8589H29.1741V23.0845H29.7432V23.0102H29.1741V22.4609H29.7506V22.3917H29.0826ZM32.2125 23.9282H32.304V22.3917H32.2125V23.9282ZM12.4656 22.3818L11.7852 23.3715L11.1122 22.3818H11.0801V23.9282H11.1667V22.6144L11.7753 23.4902H11.7976L12.4063 22.6144V23.9282H12.4953V22.3818H12.4656ZM18.5201 22.3818V23.9282H18.6017V22.602L19.49 23.943H19.5147V22.3917H19.4306V23.7055L18.5547 22.3818H18.5201ZM22.0384 22.3818V23.9282H22.1201V22.602L23.0083 23.943H23.0331V22.3917H22.9489V23.7055L22.0681 22.3818H22.0384ZM36.2133 22.3818L35.5353 23.3715L34.8599 22.3818H34.8302V23.9282H34.9143V22.6144L35.523 23.4902H35.5452L36.1539 22.6144V23.9282H36.243V22.3818H36.2133ZM15.5139 22.5376L15.8479 23.4407H15.1675L15.5139 22.5376ZM15.5139 22.3546L14.9052 23.9282H14.9918L15.1428 23.5051H15.8727L16.0285 23.9232H16.1201L15.5287 22.3496L15.5139 22.3546Z" fill="black"/>
<path d="M36.1539 22.6144V23.9282H36.2454V22.3793H36.2133L35.5353 23.369L34.8599 22.3793H34.8302V23.9282H34.9143V22.6144L35.523 23.4902H35.5452L36.1539 22.6144ZM32.2941 22.3917H32.2026V23.9282H32.2941V22.3917ZM29.7457 23.9282V23.8589H29.1642V23.0845H29.7333V23.0102H29.1642V22.4609H29.7432V22.3917H29.0751V23.9282H29.7457ZM25.6459 23.0102V22.3917H25.5568V23.9282H25.6459V23.0845H26.4722V23.9282H26.5613V22.3917H26.4722V23.0102H25.6459ZM22.9489 23.703L22.0681 22.3793H22.0384V23.9282H22.1201V22.602L23.0083 23.943H23.0331V22.3917H22.9489V23.703ZM19.4306 23.703L18.5547 22.3793H18.525V23.9282H18.6092V22.602L19.4949 23.943H19.5197V22.3917H19.4355L19.4306 23.703ZM15.8479 23.4407H15.1675L15.5139 22.5376L15.8479 23.4407ZM15.1428 23.5051H15.8727L16.0285 23.9232H16.1201L15.5287 22.3496H15.504L14.8953 23.9232H14.9819L15.1428 23.5051ZM12.4063 22.6144V23.9282H12.4953V22.3793H12.4656L11.7852 23.369L11.1122 22.3793H11.0801V23.9282H11.1667V22.6144L11.7753 23.4902H11.7976L12.4063 22.6144Z" stroke="black" stroke-width="0.47" stroke-miterlimit="2.84"/>
</g>
<defs>
<clipPath id="clip0_2394_17447">
<rect width="45.3204" height="24" fill="white" transform="translate(0.492188)"/>
</clipPath>
</defs>
</svg>
