<svg width="156" height="24" viewBox="0 0 156 24" fill="none" xmlns="http://www.w3.org/2000/svg">
<g clip-path="url(#clip0_2394_16880)">
<path fill-rule="evenodd" clip-rule="evenodd" d="M143.979 0C137.388 0 132.045 5.34319 132.045 11.9344H155.914C155.914 5.34319 150.57 0 143.979 0Z" fill="#FFDA00"/>
<path fill-rule="evenodd" clip-rule="evenodd" d="M143.979 23.868C137.388 23.868 132.045 18.5248 132.045 11.9336H155.914C155.914 18.5248 150.571 23.868 143.979 23.868Z" fill="#2071B5"/>
<path fill-rule="evenodd" clip-rule="evenodd" d="M36.5996 5.48242H25.5195V8.40095H29.4654V19.1023H33.0324V8.40095H36.5996V5.48242Z" fill="#4E4B48"/>
<path fill-rule="evenodd" clip-rule="evenodd" d="M37.8418 5.48242V8.40095H41.409V19.1023H44.976V8.40095H48.9219V5.48242H37.8418Z" fill="#4E4B48"/>
<path fill-rule="evenodd" clip-rule="evenodd" d="M76.0691 19.1023V5.48242H72.6642V13.6325L66.5944 5.48242H63.1895V19.1023H66.5944V11.0506L72.6642 19.1023H76.0691Z" fill="#4E4B48"/>
<path fill-rule="evenodd" clip-rule="evenodd" d="M50.6504 19.1023H54.2176H60.7214V16.1838H54.2176V13.5033H59.7303V10.5847H54.2176V8.40095H60.7214V5.48242H50.6504V19.1023Z" fill="#4E4B48"/>
<path fill-rule="evenodd" clip-rule="evenodd" d="M78.7832 19.1023H82.3504V13.5896H88.1084V10.6708H82.3504V8.40095H89.1785V5.48242H78.7832V19.1023Z" fill="#4E4B48"/>
<path fill-rule="evenodd" clip-rule="evenodd" d="M11.2646 5.48242L7.38565 15.058H7.35505L3.4763 5.48242H0.0273438L5.61472 19.1023H9.1262L14.7136 5.48242H11.2646Z" fill="#4E4B48"/>
<path fill-rule="evenodd" clip-rule="evenodd" d="M115.385 19.1023H125.234V16.0788H118.952V5.48242H115.385V19.1023Z" fill="#4E4B48"/>
<path fill-rule="evenodd" clip-rule="evenodd" d="M103.996 19.1023H113.845V16.0788H107.563V5.48242H103.996V19.1023Z" fill="#4E4B48"/>
<path fill-rule="evenodd" clip-rule="evenodd" d="M93.5371 13.8981L95.4007 9.24624H95.4243L97.2948 13.8976L93.5371 13.8981ZM99.3878 19.1023H102.837L97.1591 5.48242H97.1147H93.7102H93.6659L87.9883 19.1023H91.4372L92.4153 16.6702H98.4098L99.3878 19.1023Z" fill="#4E4B48"/>
<path fill-rule="evenodd" clip-rule="evenodd" d="M17.9629 13.8981L19.8265 9.24624H19.8501L21.7206 13.8976L17.9629 13.8981ZM23.8136 19.1023H27.2624L21.5849 5.48242H21.5404H18.136H18.0917L12.4141 19.1023H15.863L16.8411 16.6702H22.8356L23.8136 19.1023Z" fill="#4E4B48"/>
</g>
<defs>
<clipPath id="clip0_2394_16880">
<rect width="155.89" height="24" fill="white" transform="translate(0.0273438)"/>
</clipPath>
</defs>
</svg>
