<svg width="35" height="24" viewBox="0 0 35 24" fill="none" xmlns="http://www.w3.org/2000/svg">
<g clip-path="url(#clip0_3083_23106)">
<path d="M0 0V24H34.9461V0H0Z" fill="white"/>
<path d="M21.2792 18.8613C20.9344 20.6715 20.6421 22.2086 20.5288 22.8057H33.9417V18.8613H21.2792ZM0.722656 18.8972V22.8416H14.0404L13.1517 18.8972H0.722656Z" fill="#E05F0C"/>
<path d="M7.2669 9.85372L6.29759 5.77337H14.5679L17.2462 17.4863H17.3605L19.0479 9.98315C19.8981 6.5764 20.2193 5.77337 25.0111 5.77337H28.4575C28.4575 5.77337 27.7612 8.9137 26.8949 12.3214C26.5652 13.6214 23.6875 13.4674 23.8311 12.2534C23.8462 12.1268 23.9823 11.2132 24.09 10.5632C24.2468 9.62793 23.1556 9.51078 22.9591 10.4366C22.8193 11.0998 22.1872 14.3913 21.5968 17.4863H33.9427V0.667969H0.722656V17.4863H12.7785L11.061 9.85939L7.2669 9.85372V9.85372Z" fill="#0A438A"/>
</g>
<defs>
<clipPath id="clip0_3083_23106">
<rect width="34.9461" height="24" fill="white"/>
</clipPath>
</defs>
</svg>
