<svg width="127" height="20" viewBox="0 0 127 20" fill="none" xmlns="http://www.w3.org/2000/svg">
<g clip-path="url(#clip0_3083_23108)">
<path d="M23.5059 8.21609C23.5059 4.39991 24.9189 3.04758 28.9043 3.04758C32.7842 3.04758 34.227 4.44867 34.227 8.21609V11.7825C34.227 15.5509 32.7842 16.952 28.9043 16.952C24.9687 16.952 23.5059 15.5509 23.5059 11.7825V8.21609ZM28.9043 -0.000396729C23.1974 -0.000396729 20.3047 2.76397 20.3047 8.21609V11.7825C20.3047 17.3889 23.0372 20 28.9043 20C34.5604 20 37.4283 17.2356 37.4283 11.7825V8.21609C37.4283 2.61073 34.7196 -0.000396729 28.9043 -0.000396729Z" fill="#005475"/>
<path d="M64.4317 8.21609C64.4317 4.39991 65.8447 3.04758 69.8301 3.04758C73.7099 3.04758 75.1518 4.44867 75.1518 8.21609V11.7825C75.1518 15.5509 73.7099 16.952 69.8301 16.952C65.8945 16.952 64.4317 15.5509 64.4317 11.7825V8.21609ZM69.8301 -0.000396729C64.1232 -0.000396729 61.2305 2.76397 61.2305 8.21609V11.7825C61.2305 17.3889 63.963 20 69.8301 20C75.4862 20 78.354 17.2356 78.354 11.7825V8.21609C78.354 2.61073 75.6454 -0.000396729 69.8301 -0.000396729Z" fill="#005475"/>
<path d="M4.02018 15.9961C5.37351 15.6219 6.36661 14.3821 6.36661 12.9103C6.36661 12.6367 6.33278 12.371 6.2681 12.1172L3.24998 0.383067H0L3.73359 15.008C3.82713 15.3582 3.92167 15.6876 4.02018 15.9961Z" fill="#005475"/>
<path d="M14.9253 0.382462L11.2126 14.9666C10.7459 16.6791 10.1827 16.9518 9.10697 16.9518C9.09602 16.9518 9.08508 16.9518 9.07513 16.9508H4.35938C4.70567 17.8245 5.0848 18.4743 5.50473 18.9191C6.23712 19.6107 7.44914 19.9609 9.10697 19.9609C10.7807 19.9609 11.9808 19.6097 12.6764 18.9131C13.359 18.1907 13.9362 16.914 14.4417 15.0064L18.2151 0.382462H14.9253Z" fill="#005475"/>
<path d="M105.135 0.382055H105.13C103.367 0.38504 101.937 1.813 101.934 3.57631V19.6152H105.261V0.382055H105.135Z" fill="#005475"/>
<path d="M44.2315 7.09496C44.2315 5.53565 43.116 4.23705 41.6403 3.95146C41.2343 4.90775 41.0273 6.03519 41.0273 7.33378V19.6152H44.2286V7.33378C44.2286 7.25318 44.2296 7.17357 44.2315 7.09496Z" fill="#005475"/>
<path d="M49.3575 -9.91821e-05C45.8647 -9.91821e-05 43.4188 1.02186 42.1172 3.04787H49.3575C52.9757 3.04787 54.4086 4.16935 54.4086 7.33474V19.6172H57.6486V7.33474C57.6486 2.39907 54.8345 -9.91821e-05 49.3575 -9.91821e-05Z" fill="#005475"/>
<path d="M84.485 15.9961C85.8384 15.6219 86.8315 14.3821 86.8315 12.9103C86.8315 12.6367 86.7976 12.371 86.7329 12.1172L83.7148 0.383067H80.4648L84.1984 15.008C84.292 15.3582 84.3865 15.6876 84.485 15.9961Z" fill="#005475"/>
<path d="M95.3892 0.382462L91.6765 14.9666C91.2088 16.6791 90.6466 16.9518 89.5709 16.9518C89.5599 16.9518 89.549 16.9518 89.539 16.9508H84.8223C85.1696 17.8245 85.5487 18.4743 85.9686 18.9191C86.701 19.6107 87.912 19.9609 89.5709 19.9609C91.2446 19.9609 92.4437 19.6097 93.1403 18.9131C93.8219 18.1907 94.4 16.914 94.9056 15.0064L98.679 0.382462H95.3892Z" fill="#005475"/>
<path d="M117.752 2.90263H122.199C121.888 2.10158 121.551 1.49855 121.154 1.07862C120.423 0.387032 119.41 -0.00105476 117.752 -0.00105476C116.078 -0.00105476 115.066 0.389021 114.37 1.08559C113.688 1.80703 113.192 3.08473 112.685 4.99133L108.57 19.6152H111.934L115.973 4.88287C116.441 3.17031 116.737 2.90263 117.752 2.90263Z" fill="#005475"/>
<path d="M122.854 4.99034C122.747 4.58533 122.639 4.20919 122.53 3.8609C121.195 4.247 120.219 5.47793 120.219 6.93674C120.219 7.23129 120.259 7.51688 120.333 7.78755L121.302 11.2873H117.941C116.24 11.2873 114.849 12.6138 114.746 14.2895H122.134L123.608 19.6152H126.932L122.854 4.99034Z" fill="#005475"/>
</g>
<defs>
<clipPath id="clip0_3083_23108">
<rect width="126.933" height="20" fill="white"/>
</clipPath>
</defs>
</svg>
