<svg width="291" height="244" viewBox="0 0 291 244" fill="none" xmlns="http://www.w3.org/2000/svg">
<path d="M19.5 6.00195V182.002" stroke="#FAFBFC"/>
<path d="M40.5 6.00195V182.002" stroke="#FAFBFC"/>
<path d="M62.5 6.00195V182.002" stroke="#FAFBFC"/>
<path d="M83.5 6.00195V182.002" stroke="#FAFBFC"/>
<path d="M104.5 6.00195V182.002" stroke="#FAFBFC"/>
<path d="M125.5 6.00195V182.002" stroke="#FAFBFC"/>
<path d="M147.5 6.00195V182.002" stroke="#FAFBFC"/>
<path d="M168.5 6.00195V182.002" stroke="#FAFBFC"/>
<path d="M189.5 6.00195V182.002" stroke="#FAFBFC"/>
<path d="M210.5 6.00195V182.002" stroke="#FAFBFC"/>
<path d="M232.5 6.00195V182.002" stroke="#FAFBFC"/>
<path d="M253.5 6.00195V182.002" stroke="#FAFBFC"/>
<path d="M275 6.00195V182.002" stroke="#FAFBFC"/>
<path d="M20 182.502H275" stroke="#FAFBFC"/>
<path d="M20 123.502H275" stroke="#FAFBFC"/>
<path d="M20 65.502H275" stroke="#FAFBFC"/>
<path d="M20 5.50195H275" stroke="#FAFBFC"/>
<path d="M20 182.502H275" stroke="#FAFBFC"/>
<path d="M19 6.00195V182.002" stroke="#FAFBFC"/>
<path d="M20.5016 196.066C19.8562 196.066 19.3656 195.821 19.0296 195.33C18.6936 194.839 18.5256 194.125 18.5256 193.186C18.5256 192.242 18.6936 191.525 19.0296 191.034C19.3656 190.543 19.8562 190.298 20.5016 190.298C21.1469 190.298 21.6376 190.543 21.9736 191.034C22.3096 191.519 22.4776 192.234 22.4776 193.178C22.4776 194.122 22.3096 194.839 21.9736 195.33C21.6376 195.821 21.1469 196.066 20.5016 196.066ZM20.5016 195.514C20.9496 195.514 21.2802 195.325 21.4936 194.946C21.7069 194.567 21.8136 193.978 21.8136 193.178C21.8136 192.373 21.7069 191.786 21.4936 191.418C21.2856 191.045 20.9549 190.858 20.5016 190.858C20.0536 190.858 19.7229 191.045 19.5096 191.418C19.2962 191.791 19.1896 192.378 19.1896 193.178C19.1896 193.978 19.2962 194.567 19.5096 194.946C19.7229 195.325 20.0536 195.514 20.5016 195.514Z" fill="#2F2F2F"/>
<path d="M43.8636 194.234V194.778H43.0156V196.002H42.3676V194.778H39.7596V194.282L42.4796 190.362H43.0156V194.234H43.8636ZM40.4396 194.234H42.3676V191.458L40.4396 194.234Z" fill="#2F2F2F"/>
<path d="M63.9776 193.106C64.3082 193.207 64.5642 193.381 64.7456 193.626C64.9322 193.871 65.0256 194.165 65.0256 194.506C65.0256 194.991 64.8496 195.373 64.4976 195.65C64.1456 195.922 63.6469 196.058 63.0016 196.058C62.3562 196.058 61.8576 195.922 61.5056 195.65C61.1536 195.373 60.9776 194.991 60.9776 194.506C60.9776 194.159 61.0709 193.863 61.2576 193.618C61.4442 193.373 61.7029 193.202 62.0336 193.106C61.7509 192.999 61.5269 192.831 61.3616 192.602C61.1962 192.373 61.1136 192.103 61.1136 191.794C61.1136 191.335 61.2789 190.973 61.6096 190.706C61.9456 190.434 62.4096 190.298 63.0016 190.298C63.5936 190.298 64.0549 190.434 64.3856 190.706C64.7216 190.973 64.8896 191.335 64.8896 191.794C64.8896 192.103 64.8069 192.375 64.6416 192.61C64.4762 192.839 64.2549 193.005 63.9776 193.106ZM61.7616 191.842C61.7616 192.173 61.8656 192.426 62.0736 192.602C62.2869 192.778 62.5962 192.866 63.0016 192.866C63.4069 192.866 63.7136 192.778 63.9216 192.602C64.1349 192.426 64.2416 192.173 64.2416 191.842C64.2416 191.527 64.1349 191.282 63.9216 191.106C63.7136 190.93 63.4069 190.842 63.0016 190.842C62.5962 190.842 62.2869 190.93 62.0736 191.106C61.8656 191.282 61.7616 191.527 61.7616 191.842ZM63.0016 195.514C63.9189 195.514 64.3776 195.165 64.3776 194.466C64.3776 193.767 63.9189 193.418 63.0016 193.418C62.0842 193.418 61.6256 193.767 61.6256 194.466C61.6256 195.165 62.0842 195.514 63.0016 195.514Z" fill="#2F2F2F"/>
<path d="M81.8891 195.45H83.1291V196.002H79.9931V195.45H81.2331V191.178L80.2411 191.802L79.9371 191.298L81.4171 190.362H81.8891V195.45ZM88.062 195.45V196.002H84.43V195.506L86.406 193.33C86.6727 193.031 86.8647 192.765 86.982 192.53C87.1047 192.29 87.166 192.05 87.166 191.81C87.166 191.501 87.0753 191.263 86.894 191.098C86.7127 190.933 86.4567 190.85 86.126 190.85C85.582 190.85 85.0487 191.066 84.526 191.498L84.278 190.994C84.502 190.781 84.782 190.613 85.118 190.49C85.4593 190.362 85.8007 190.298 86.142 190.298C86.6593 190.298 87.0673 190.431 87.366 190.698C87.67 190.965 87.822 191.325 87.822 191.778C87.822 192.103 87.7473 192.415 87.598 192.714C87.454 193.013 87.214 193.346 86.878 193.714L85.278 195.45H88.062Z" fill="#2F2F2F"/>
<path d="M103.143 195.45H104.383V196.002H101.247V195.45H102.487V191.178L101.495 191.802L101.191 191.298L102.671 190.362H103.143V195.45ZM107.644 192.458C107.985 192.458 108.289 192.533 108.556 192.682C108.823 192.831 109.031 193.042 109.18 193.314C109.329 193.586 109.404 193.898 109.404 194.25C109.404 194.597 109.327 194.909 109.172 195.186C109.017 195.463 108.801 195.679 108.524 195.834C108.247 195.989 107.935 196.066 107.588 196.066C106.905 196.066 106.377 195.829 106.004 195.354C105.636 194.879 105.452 194.202 105.452 193.322C105.452 192.687 105.537 192.143 105.708 191.69C105.884 191.237 106.135 190.893 106.46 190.658C106.785 190.418 107.175 190.298 107.628 190.298C107.953 190.298 108.271 190.359 108.58 190.482C108.889 190.599 109.161 190.77 109.396 190.994L109.148 191.498C108.881 191.274 108.625 191.111 108.38 191.01C108.14 190.903 107.895 190.85 107.644 190.85C107.159 190.85 106.78 191.066 106.508 191.498C106.241 191.925 106.108 192.53 106.108 193.314V193.434C106.231 193.135 106.428 192.898 106.7 192.722C106.972 192.546 107.287 192.458 107.644 192.458ZM107.556 195.514C107.919 195.514 108.209 195.399 108.428 195.17C108.647 194.941 108.756 194.637 108.756 194.258C108.756 193.885 108.644 193.583 108.42 193.354C108.201 193.125 107.911 193.01 107.548 193.01C107.18 193.01 106.879 193.127 106.644 193.362C106.415 193.591 106.3 193.89 106.3 194.258C106.3 194.631 106.415 194.935 106.644 195.17C106.879 195.399 107.183 195.514 107.556 195.514Z" fill="#2F2F2F"/>
<path d="M125.765 195.45V196.002H122.133V195.506L124.109 193.33C124.376 193.031 124.568 192.765 124.685 192.53C124.808 192.29 124.869 192.05 124.869 191.81C124.869 191.501 124.778 191.263 124.597 191.098C124.416 190.933 124.16 190.85 123.829 190.85C123.285 190.85 122.752 191.066 122.229 191.498L121.981 190.994C122.205 190.781 122.485 190.613 122.821 190.49C123.162 190.362 123.504 190.298 123.845 190.298C124.362 190.298 124.77 190.431 125.069 190.698C125.373 190.965 125.525 191.325 125.525 191.778C125.525 192.103 125.45 192.415 125.301 192.714C125.157 193.013 124.917 193.346 124.581 193.714L122.981 195.45H125.765ZM128.65 196.066C128.005 196.066 127.514 195.821 127.178 195.33C126.842 194.839 126.674 194.125 126.674 193.186C126.674 192.242 126.842 191.525 127.178 191.034C127.514 190.543 128.005 190.298 128.65 190.298C129.295 190.298 129.786 190.543 130.122 191.034C130.458 191.519 130.626 192.234 130.626 193.178C130.626 194.122 130.458 194.839 130.122 195.33C129.786 195.821 129.295 196.066 128.65 196.066ZM128.65 195.514C129.098 195.514 129.429 195.325 129.642 194.946C129.855 194.567 129.962 193.978 129.962 193.178C129.962 192.373 129.855 191.786 129.642 191.418C129.434 191.045 129.103 190.858 128.65 190.858C128.202 190.858 127.871 191.045 127.658 191.418C127.445 191.791 127.338 192.378 127.338 193.178C127.338 193.978 127.445 194.567 127.658 194.946C127.871 195.325 128.202 195.514 128.65 195.514Z" fill="#2F2F2F"/>
<path d="M148.002 196.066C147.356 196.066 146.866 195.821 146.53 195.33C146.194 194.839 146.026 194.125 146.026 193.186C146.026 192.242 146.194 191.525 146.53 191.034C146.866 190.543 147.356 190.298 148.002 190.298C148.647 190.298 149.138 190.543 149.474 191.034C149.81 191.519 149.978 192.234 149.978 193.178C149.978 194.122 149.81 194.839 149.474 195.33C149.138 195.821 148.647 196.066 148.002 196.066ZM148.002 195.514C148.45 195.514 148.78 195.325 148.994 194.946C149.207 194.567 149.314 193.978 149.314 193.178C149.314 192.373 149.207 191.786 148.994 191.418C148.786 191.045 148.455 190.858 148.002 190.858C147.554 190.858 147.223 191.045 147.01 191.418C146.796 191.791 146.69 192.378 146.69 193.178C146.69 193.978 146.796 194.567 147.01 194.946C147.223 195.325 147.554 195.514 148.002 195.514Z" fill="#2F2F2F"/>
<path d="M171.364 194.234V194.778H170.516V196.002H169.868V194.778H167.26V194.282L169.98 190.362H170.516V194.234H171.364ZM167.94 194.234H169.868V191.458L167.94 194.234Z" fill="#2F2F2F"/>
<path d="M191.478 193.106C191.808 193.207 192.064 193.381 192.246 193.626C192.432 193.871 192.526 194.165 192.526 194.506C192.526 194.991 192.35 195.373 191.998 195.65C191.646 195.922 191.147 196.058 190.502 196.058C189.856 196.058 189.358 195.922 189.006 195.65C188.654 195.373 188.478 194.991 188.478 194.506C188.478 194.159 188.571 193.863 188.758 193.618C188.944 193.373 189.203 193.202 189.534 193.106C189.251 192.999 189.027 192.831 188.862 192.602C188.696 192.373 188.614 192.103 188.614 191.794C188.614 191.335 188.779 190.973 189.11 190.706C189.446 190.434 189.91 190.298 190.502 190.298C191.094 190.298 191.555 190.434 191.886 190.706C192.222 190.973 192.39 191.335 192.39 191.794C192.39 192.103 192.307 192.375 192.142 192.61C191.976 192.839 191.755 193.005 191.478 193.106ZM189.262 191.842C189.262 192.173 189.366 192.426 189.574 192.602C189.787 192.778 190.096 192.866 190.502 192.866C190.907 192.866 191.214 192.778 191.422 192.602C191.635 192.426 191.742 192.173 191.742 191.842C191.742 191.527 191.635 191.282 191.422 191.106C191.214 190.93 190.907 190.842 190.502 190.842C190.096 190.842 189.787 190.93 189.574 191.106C189.366 191.282 189.262 191.527 189.262 191.842ZM190.502 195.514C191.419 195.514 191.878 195.165 191.878 194.466C191.878 193.767 191.419 193.418 190.502 193.418C189.584 193.418 189.126 193.767 189.126 194.466C189.126 195.165 189.584 195.514 190.502 195.514Z" fill="#2F2F2F"/>
<path d="M209.389 195.45H210.629V196.002H207.493V195.45H208.733V191.178L207.741 191.802L207.437 191.298L208.917 190.362H209.389V195.45ZM215.562 195.45V196.002H211.93V195.506L213.906 193.33C214.173 193.031 214.365 192.765 214.482 192.53C214.605 192.29 214.666 192.05 214.666 191.81C214.666 191.501 214.575 191.263 214.394 191.098C214.213 190.933 213.957 190.85 213.626 190.85C213.082 190.85 212.549 191.066 212.026 191.498L211.778 190.994C212.002 190.781 212.282 190.613 212.618 190.49C212.959 190.362 213.301 190.298 213.642 190.298C214.159 190.298 214.567 190.431 214.866 190.698C215.17 190.965 215.322 191.325 215.322 191.778C215.322 192.103 215.247 192.415 215.098 192.714C214.954 193.013 214.714 193.346 214.378 193.714L212.778 195.45H215.562Z" fill="#2F2F2F"/>
<path d="M230.643 195.45H231.883V196.002H228.747V195.45H229.987V191.178L228.995 191.802L228.691 191.298L230.171 190.362H230.643V195.45ZM235.144 192.458C235.485 192.458 235.789 192.533 236.056 192.682C236.323 192.831 236.531 193.042 236.68 193.314C236.829 193.586 236.904 193.898 236.904 194.25C236.904 194.597 236.827 194.909 236.672 195.186C236.517 195.463 236.301 195.679 236.024 195.834C235.747 195.989 235.435 196.066 235.088 196.066C234.405 196.066 233.877 195.829 233.504 195.354C233.136 194.879 232.952 194.202 232.952 193.322C232.952 192.687 233.037 192.143 233.208 191.69C233.384 191.237 233.635 190.893 233.96 190.658C234.285 190.418 234.675 190.298 235.128 190.298C235.453 190.298 235.771 190.359 236.08 190.482C236.389 190.599 236.661 190.77 236.896 190.994L236.648 191.498C236.381 191.274 236.125 191.111 235.88 191.01C235.64 190.903 235.395 190.85 235.144 190.85C234.659 190.85 234.28 191.066 234.008 191.498C233.741 191.925 233.608 192.53 233.608 193.314V193.434C233.731 193.135 233.928 192.898 234.2 192.722C234.472 192.546 234.787 192.458 235.144 192.458ZM235.056 195.514C235.419 195.514 235.709 195.399 235.928 195.17C236.147 194.941 236.256 194.637 236.256 194.258C236.256 193.885 236.144 193.583 235.92 193.354C235.701 193.125 235.411 193.01 235.048 193.01C234.68 193.01 234.379 193.127 234.144 193.362C233.915 193.591 233.8 193.89 233.8 194.258C233.8 194.631 233.915 194.935 234.144 195.17C234.379 195.399 234.683 195.514 235.056 195.514Z" fill="#2F2F2F"/>
<path d="M253.265 195.45V196.002H249.633V195.506L251.609 193.33C251.876 193.031 252.068 192.765 252.185 192.53C252.308 192.29 252.369 192.05 252.369 191.81C252.369 191.501 252.278 191.263 252.097 191.098C251.916 190.933 251.66 190.85 251.329 190.85C250.785 190.85 250.252 191.066 249.729 191.498L249.481 190.994C249.705 190.781 249.985 190.613 250.321 190.49C250.662 190.362 251.004 190.298 251.345 190.298C251.862 190.298 252.27 190.431 252.569 190.698C252.873 190.965 253.025 191.325 253.025 191.778C253.025 192.103 252.95 192.415 252.801 192.714C252.657 193.013 252.417 193.346 252.081 193.714L250.481 195.45H253.265ZM256.15 196.066C255.505 196.066 255.014 195.821 254.678 195.33C254.342 194.839 254.174 194.125 254.174 193.186C254.174 192.242 254.342 191.525 254.678 191.034C255.014 190.543 255.505 190.298 256.15 190.298C256.795 190.298 257.286 190.543 257.622 191.034C257.958 191.519 258.126 192.234 258.126 193.178C258.126 194.122 257.958 194.839 257.622 195.33C257.286 195.821 256.795 196.066 256.15 196.066ZM256.15 195.514C256.598 195.514 256.929 195.325 257.142 194.946C257.355 194.567 257.462 193.978 257.462 193.178C257.462 192.373 257.355 191.786 257.142 191.418C256.934 191.045 256.603 190.858 256.15 190.858C255.702 190.858 255.371 191.045 255.158 191.418C254.945 191.791 254.838 192.378 254.838 193.178C254.838 193.978 254.945 194.567 255.158 194.946C255.371 195.325 255.702 195.514 256.15 195.514Z" fill="#2F2F2F"/>
<path d="M274.515 195.45V196.002H270.883V195.506L272.859 193.33C273.126 193.031 273.318 192.765 273.435 192.53C273.558 192.29 273.619 192.05 273.619 191.81C273.619 191.501 273.528 191.263 273.347 191.098C273.166 190.933 272.91 190.85 272.579 190.85C272.035 190.85 271.502 191.066 270.979 191.498L270.731 190.994C270.955 190.781 271.235 190.613 271.571 190.49C271.912 190.362 272.254 190.298 272.595 190.298C273.112 190.298 273.52 190.431 273.819 190.698C274.123 190.965 274.275 191.325 274.275 191.778C274.275 192.103 274.2 192.415 274.051 192.714C273.907 193.013 273.667 193.346 273.331 193.714L271.731 195.45H274.515ZM279.512 194.234V194.778H278.664V196.002H278.016V194.778H275.408V194.282L278.128 190.362H278.664V194.234H279.512ZM276.088 194.234H278.016V191.458L276.088 194.234Z" fill="#2F2F2F"/>
<path d="M12.6031 184.066C11.9578 184.066 11.4671 183.821 11.1311 183.33C10.7951 182.839 10.6271 182.125 10.6271 181.186C10.6271 180.242 10.7951 179.525 11.1311 179.034C11.4671 178.543 11.9578 178.298 12.6031 178.298C13.2485 178.298 13.7391 178.543 14.0751 179.034C14.4111 179.519 14.5791 180.234 14.5791 181.178C14.5791 182.122 14.4111 182.839 14.0751 183.33C13.7391 183.821 13.2485 184.066 12.6031 184.066ZM12.6031 183.514C13.0511 183.514 13.3818 183.325 13.5951 182.946C13.8085 182.567 13.9151 181.978 13.9151 181.178C13.9151 180.373 13.8085 179.786 13.5951 179.418C13.3871 179.045 13.0565 178.858 12.6031 178.858C12.1551 178.858 11.8245 179.045 11.6111 179.418C11.3978 179.791 11.2911 180.378 11.2911 181.178C11.2911 181.978 11.3978 182.567 11.6111 182.946C11.8245 183.325 12.1551 183.514 12.6031 183.514Z" fill="#2F2F2F"/>
<path d="M4.92138 125.45V126.002H1.28938V125.506L3.26538 123.33C3.53204 123.031 3.72404 122.765 3.84138 122.53C3.96404 122.29 4.02538 122.05 4.02538 121.81C4.02538 121.501 3.93471 121.263 3.75338 121.098C3.57204 120.933 3.31604 120.85 2.98538 120.85C2.44138 120.85 1.90804 121.066 1.38538 121.498L1.13737 120.994C1.36138 120.781 1.64138 120.613 1.97738 120.49C2.31871 120.362 2.66004 120.298 3.00138 120.298C3.51871 120.298 3.92671 120.431 4.22538 120.698C4.52938 120.965 4.68138 121.325 4.68138 121.778C4.68138 122.103 4.60671 122.415 4.45738 122.714C4.31338 123.013 4.07338 123.346 3.73738 123.714L2.13738 125.45H4.92138ZM8.04625 122.466C8.40358 122.466 8.71292 122.541 8.97425 122.69C9.24092 122.839 9.44625 123.05 9.59025 123.322C9.73425 123.589 9.80625 123.898 9.80625 124.25C9.80625 124.607 9.72625 124.922 9.56625 125.194C9.41158 125.466 9.19025 125.679 8.90225 125.834C8.61425 125.983 8.27825 126.058 7.89425 126.058C7.55292 126.058 7.21425 125.997 6.87825 125.874C6.54758 125.746 6.26758 125.575 6.03825 125.362L6.28625 124.858C6.80892 125.29 7.34492 125.506 7.89425 125.506C8.28892 125.506 8.59825 125.394 8.82225 125.17C9.04625 124.946 9.15825 124.642 9.15825 124.258C9.15825 123.885 9.04625 123.583 8.82225 123.354C8.60358 123.125 8.31025 123.01 7.94225 123.01C7.40358 123.01 6.97425 123.229 6.65425 123.666H6.19825V120.362H9.58225V120.906H6.84625V122.914C6.99558 122.77 7.17158 122.661 7.37425 122.586C7.58225 122.506 7.80625 122.466 8.04625 122.466ZM12.6031 126.066C11.9578 126.066 11.4671 125.821 11.1311 125.33C10.7951 124.839 10.6271 124.125 10.6271 123.186C10.6271 122.242 10.7951 121.525 11.1311 121.034C11.4671 120.543 11.9578 120.298 12.6031 120.298C13.2485 120.298 13.7391 120.543 14.0751 121.034C14.4111 121.519 14.5791 122.234 14.5791 123.178C14.5791 124.122 14.4111 124.839 14.0751 125.33C13.7391 125.821 13.2485 126.066 12.6031 126.066ZM12.6031 125.514C13.0511 125.514 13.3818 125.325 13.5951 124.946C13.8085 124.567 13.9151 123.978 13.9151 123.178C13.9151 122.373 13.8085 121.786 13.5951 121.418C13.3871 121.045 13.0565 120.858 12.6031 120.858C12.1551 120.858 11.8245 121.045 11.6111 121.418C11.3978 121.791 11.2911 122.378 11.2911 123.178C11.2911 123.978 11.3978 124.567 11.6111 124.946C11.8245 125.325 12.1551 125.514 12.6031 125.514Z" fill="#2F2F2F"/>
<path d="M3.24938 63.466C3.60671 63.466 3.91604 63.5406 4.17738 63.69C4.44404 63.8393 4.64938 64.05 4.79338 64.322C4.93738 64.5886 5.00938 64.898 5.00938 65.25C5.00938 65.6073 4.92938 65.922 4.76938 66.194C4.61471 66.466 4.39338 66.6793 4.10538 66.834C3.81738 66.9833 3.48138 67.058 3.09738 67.058C2.75604 67.058 2.41738 66.9966 2.08138 66.874C1.75071 66.746 1.47071 66.5753 1.24138 66.362L1.48938 65.858C2.01204 66.29 2.54804 66.506 3.09738 66.506C3.49204 66.506 3.80138 66.394 4.02538 66.17C4.24938 65.946 4.36138 65.642 4.36138 65.258C4.36138 64.8846 4.24938 64.5833 4.02538 64.354C3.80671 64.1246 3.51338 64.01 3.14538 64.01C2.60671 64.01 2.17738 64.2286 1.85738 64.666H1.40138V61.362H4.78538V61.906H2.04938V63.914C2.19871 63.77 2.37471 63.6606 2.57738 63.586C2.78538 63.506 3.00938 63.466 3.24938 63.466ZM7.80625 67.066C7.16092 67.066 6.67025 66.8206 6.33425 66.33C5.99825 65.8393 5.83025 65.1246 5.83025 64.186C5.83025 63.242 5.99825 62.5246 6.33425 62.034C6.67025 61.5433 7.16092 61.298 7.80625 61.298C8.45158 61.298 8.94225 61.5433 9.27825 62.034C9.61425 62.5193 9.78225 63.234 9.78225 64.178C9.78225 65.122 9.61425 65.8393 9.27825 66.33C8.94225 66.8206 8.45158 67.066 7.80625 67.066ZM7.80625 66.514C8.25425 66.514 8.58492 66.3246 8.79825 65.946C9.01158 65.5673 9.11825 64.978 9.11825 64.178C9.11825 63.3726 9.01158 62.786 8.79825 62.418C8.59025 62.0446 8.25958 61.858 7.80625 61.858C7.35825 61.858 7.02758 62.0446 6.81425 62.418C6.60092 62.7913 6.49425 63.378 6.49425 64.178C6.49425 64.978 6.60092 65.5673 6.81425 65.946C7.02758 66.3246 7.35825 66.514 7.80625 66.514ZM12.6031 67.066C11.9578 67.066 11.4671 66.8206 11.1311 66.33C10.7951 65.8393 10.6271 65.1246 10.6271 64.186C10.6271 63.242 10.7951 62.5246 11.1311 62.034C11.4671 61.5433 11.9578 61.298 12.6031 61.298C13.2485 61.298 13.7391 61.5433 14.0751 62.034C14.4111 62.5193 14.5791 63.234 14.5791 64.178C14.5791 65.122 14.4111 65.8393 14.0751 66.33C13.7391 66.8206 13.2485 67.066 12.6031 67.066ZM12.6031 66.514C13.0511 66.514 13.3818 66.3246 13.5951 65.946C13.8085 65.5673 13.9151 64.978 13.9151 64.178C13.9151 63.3726 13.8085 62.786 13.5951 62.418C13.3871 62.0446 13.0565 61.858 12.6031 61.858C12.1551 61.858 11.8245 62.0446 11.6111 62.418C11.3978 62.7913 11.2911 63.378 11.2911 64.178C11.2911 64.978 11.3978 65.5673 11.6111 65.946C11.8245 66.3246 12.1551 66.514 12.6031 66.514Z" fill="#2F2F2F"/>
<path d="M1.14538 2.36195H4.87338V2.84995L2.23338 8.00195H1.52138L4.15338 2.91395H1.14538V2.36195ZM8.04625 4.46595C8.40358 4.46595 8.71292 4.54062 8.97425 4.68995C9.24092 4.83929 9.44625 5.04995 9.59025 5.32195C9.73425 5.58862 9.80625 5.89795 9.80625 6.24995C9.80625 6.60729 9.72625 6.92195 9.56625 7.19395C9.41158 7.46595 9.19025 7.67929 8.90225 7.83395C8.61425 7.98329 8.27825 8.05795 7.89425 8.05795C7.55292 8.05795 7.21425 7.99662 6.87825 7.87395C6.54758 7.74595 6.26758 7.57529 6.03825 7.36195L6.28625 6.85795C6.80892 7.28995 7.34492 7.50595 7.89425 7.50595C8.28892 7.50595 8.59825 7.39395 8.82225 7.16995C9.04625 6.94595 9.15825 6.64195 9.15825 6.25795C9.15825 5.88462 9.04625 5.58329 8.82225 5.35395C8.60358 5.12462 8.31025 5.00995 7.94225 5.00995C7.40358 5.00995 6.97425 5.22862 6.65425 5.66595H6.19825V2.36195H9.58225V2.90595H6.84625V4.91395C6.99558 4.76995 7.17158 4.66062 7.37425 4.58595C7.58225 4.50595 7.80625 4.46595 8.04625 4.46595ZM12.6031 8.06595C11.9578 8.06595 11.4671 7.82062 11.1311 7.32995C10.7951 6.83929 10.6271 6.12462 10.6271 5.18595C10.6271 4.24195 10.7951 3.52462 11.1311 3.03395C11.4671 2.54329 11.9578 2.29795 12.6031 2.29795C13.2485 2.29795 13.7391 2.54329 14.0751 3.03395C14.4111 3.51929 14.5791 4.23395 14.5791 5.17795C14.5791 6.12195 14.4111 6.83929 14.0751 7.32995C13.7391 7.82062 13.2485 8.06595 12.6031 8.06595ZM12.6031 7.51395C13.0511 7.51395 13.3818 7.32462 13.5951 6.94595C13.8085 6.56729 13.9151 5.97795 13.9151 5.17795C13.9151 4.37262 13.8085 3.78595 13.5951 3.41795C13.3871 3.04462 13.0565 2.85795 12.6031 2.85795C12.1551 2.85795 11.8245 3.04462 11.6111 3.41795C11.3978 3.79129 11.2911 4.37795 11.2911 5.17795C11.2911 5.97795 11.3978 6.56729 11.6111 6.94595C11.8245 7.32462 12.1551 7.51395 12.6031 7.51395Z" fill="#2F2F2F"/>
<path d="M20 182.002C20 182.002 23.1875 182.002 25.3125 182.002C27.4375 182.002 28.5 182.002 30.625 182.002C32.75 182.002 33.8125 182.002 35.9375 182.002C38.0625 182.002 39.125 182.002 41.25 182.002C43.375 182.002 44.4375 180.594 46.5625 179.655C48.6875 178.717 49.75 178.611 51.875 177.309C54 176.006 55.0625 174.387 57.1875 173.143C59.3125 171.9 60.375 171.853 62.5 171.09C64.625 170.327 65.6875 171.09 67.8125 169.33C69.9375 167.57 71 157.245 73.125 143.575C75.25 129.906 76.3125 112.459 78.4375 100.983C80.5625 89.5083 81.625 90.7051 83.75 86.1995C85.875 81.6939 86.9375 78.4555 89.0625 78.4555C91.1875 78.4555 92.25 78.6901 94.375 78.6901C96.5 78.6901 97.5625 77.3995 99.6875 77.3995C101.812 77.3995 102.875 77.3995 105 77.5755C107.125 77.7515 108.188 77.5755 110.312 78.6901C112.438 79.8048 113.5 172.615 115.625 175.373C117.75 178.13 118.812 177.086 120.938 178.13C123.062 179.174 124.125 180.594 126.25 180.594C128.375 180.594 129.438 179.479 131.562 179.479C133.688 179.479 134.75 181.885 136.875 181.885C139 181.885 140.062 180.594 142.188 180.594C144.312 180.594 145.375 182.002 147.5 182.002C149.625 182.002 150.688 182.002 152.812 182.002C154.938 182.002 156 182.002 158.125 182.002C160.25 182.002 161.312 182.002 163.438 182.002C165.562 182.002 166.625 182.002 168.75 182.002C170.875 182.002 171.938 180.594 174.062 179.655C176.188 178.717 177.25 178.611 179.375 177.309C181.5 176.006 182.562 174.387 184.688 173.143C186.812 171.9 187.875 171.853 190 171.09C192.125 170.327 193.188 171.09 195.312 169.33C197.438 167.57 198.5 152.716 200.625 137.415C202.75 122.115 203.812 105.97 205.938 92.8288C208.062 79.6875 209.125 76.4021 211.25 71.7088C213.375 67.0155 214.438 69.3621 216.562 67.0155C218.688 64.6688 219.75 62.4629 221.875 59.9755C224 57.488 225.062 54.5781 227.188 54.5781C229.312 54.5781 230.375 55.1531 232.5 59.9755C234.625 64.7979 235.688 61.7941 237.812 78.6901C239.938 95.5861 241 124.567 243.125 144.455C245.25 164.343 246.312 175.666 248.438 178.13C250.562 180.594 251.625 180.594 253.75 180.594C255.875 180.594 256.938 179.479 259.062 179.479C261.188 179.479 262.25 181.885 264.375 181.885C266.5 181.885 267.562 180.594 269.688 180.594C271.812 180.594 275 182.002 275 182.002" stroke="#0087FF"/>
<path d="M288.603 184.066C287.958 184.066 287.467 183.821 287.131 183.33C286.795 182.839 286.627 182.125 286.627 181.186C286.627 180.242 286.795 179.525 287.131 179.034C287.467 178.543 287.958 178.298 288.603 178.298C289.248 178.298 289.739 178.543 290.075 179.034C290.411 179.519 290.579 180.234 290.579 181.178C290.579 182.122 290.411 182.839 290.075 183.33C289.739 183.821 289.248 184.066 288.603 184.066ZM288.603 183.514C289.051 183.514 289.382 183.325 289.595 182.946C289.808 182.567 289.915 181.978 289.915 181.178C289.915 180.373 289.808 179.786 289.595 179.418C289.387 179.045 289.056 178.858 288.603 178.858C288.155 178.858 287.824 179.045 287.611 179.418C287.398 179.791 287.291 180.378 287.291 181.178C287.291 181.978 287.398 182.567 287.611 182.946C287.824 183.325 288.155 183.514 288.603 183.514Z" fill="#2F2F2F"/>
<path d="M281.978 126.066C281.333 126.066 280.842 125.821 280.506 125.33C280.17 124.839 280.002 124.125 280.002 123.186C280.002 122.242 280.17 121.525 280.506 121.034C280.842 120.543 281.333 120.298 281.978 120.298C282.623 120.298 283.114 120.543 283.45 121.034C283.786 121.519 283.954 122.234 283.954 123.178C283.954 124.122 283.786 124.839 283.45 125.33C283.114 125.821 282.623 126.066 281.978 126.066ZM281.978 125.514C282.426 125.514 282.757 125.325 282.97 124.946C283.183 124.567 283.29 123.978 283.29 123.178C283.29 122.373 283.183 121.786 282.97 121.418C282.762 121.045 282.431 120.858 281.978 120.858C281.53 120.858 281.199 121.045 280.986 121.418C280.773 121.791 280.666 122.378 280.666 123.178C280.666 123.978 280.773 124.567 280.986 124.946C281.199 125.325 281.53 125.514 281.978 125.514ZM284.879 125.186H285.695V126.002H284.879V125.186ZM288.843 122.466C289.2 122.466 289.51 122.541 289.771 122.69C290.038 122.839 290.243 123.05 290.387 123.322C290.531 123.589 290.603 123.898 290.603 124.25C290.603 124.607 290.523 124.922 290.363 125.194C290.208 125.466 289.987 125.679 289.699 125.834C289.411 125.983 289.075 126.058 288.691 126.058C288.35 126.058 288.011 125.997 287.675 125.874C287.344 125.746 287.064 125.575 286.835 125.362L287.083 124.858C287.606 125.29 288.142 125.506 288.691 125.506C289.086 125.506 289.395 125.394 289.619 125.17C289.843 124.946 289.955 124.642 289.955 124.258C289.955 123.885 289.843 123.583 289.619 123.354C289.4 123.125 289.107 123.01 288.739 123.01C288.2 123.01 287.771 123.229 287.451 123.666H286.995V120.362H290.379V120.906H287.643V122.914C287.792 122.77 287.968 122.661 288.171 122.586C288.379 122.506 288.603 122.466 288.843 122.466Z" fill="#2F2F2F"/>
<path d="M289.139 66.45H290.379V67.002H287.243V66.45H288.483V62.178L287.491 62.802L287.187 62.298L288.667 61.362H289.139V66.45Z" fill="#2F2F2F"/>
<path d="M282.514 7.44995H283.754V8.00195H280.618V7.44995H281.858V3.17795L280.866 3.80195L280.562 3.29795L282.042 2.36195H282.514V7.44995ZM284.879 7.18595H285.695V8.00195H284.879V7.18595ZM288.843 4.46595C289.2 4.46595 289.51 4.54062 289.771 4.68995C290.038 4.83929 290.243 5.04995 290.387 5.32195C290.531 5.58862 290.603 5.89795 290.603 6.24995C290.603 6.60729 290.523 6.92195 290.363 7.19395C290.208 7.46595 289.987 7.67929 289.699 7.83395C289.411 7.98329 289.075 8.05795 288.691 8.05795C288.35 8.05795 288.011 7.99662 287.675 7.87395C287.344 7.74595 287.064 7.57529 286.835 7.36195L287.083 6.85795C287.606 7.28995 288.142 7.50595 288.691 7.50595C289.086 7.50595 289.395 7.39395 289.619 7.16995C289.843 6.94595 289.955 6.64195 289.955 6.25795C289.955 5.88462 289.843 5.58329 289.619 5.35395C289.4 5.12462 289.107 5.00995 288.739 5.00995C288.2 5.00995 287.771 5.22862 287.451 5.66595H286.995V2.36195H290.379V2.90595H287.643V4.91395C287.792 4.76995 287.968 4.66062 288.171 4.58595C288.379 4.50595 288.603 4.46595 288.843 4.46595Z" fill="#2F2F2F"/>
<path opacity="0.5" d="M19.15 5.5C19.15 5.5 22.375 5.5 24.525 5.5C26.675 5.5 27.75 5.5 29.9 5.5C32.05 5.5 33.125 5.5 35.275 5.5C37.425 5.5 38.5 5.5 40.65 5.5C42.8 5.5 43.875 5.5 46.025 5.5C48.175 5.5 49.25 5.5 51.4 5.5C53.55 5.5 54.625 5.5 56.775 5.5C58.925 5.5 60 5.5 62.15 5.5C64.3 5.5 63.225 101.2 65.375 124.667C67.525 148.133 68.6 183.333 70.75 183.333C72.9 183.333 73.975 183.333 76.125 183.333C78.275 183.333 79.35 183.333 81.5 183.333C83.65 183.333 84.725 183.333 86.875 183.333C89.025 183.333 90.1 183.333 92.25 183.333C94.4 183.333 95.475 183.333 97.625 183.333C99.775 183.333 100.85 183.333 103 183.333C105.15 183.333 106.225 183.333 108.375 183.333C110.525 183.333 111.6 5 113.75 5C115.9 5 116.975 5 119.125 5C121.275 5 122.35 5 124.5 5C126.65 5 127.725 5 129.875 5C132.025 5 133.1 5 135.25 5C137.4 5 138.475 5 140.625 5C142.775 5 143.85 5 146 5C148.15 5 149.225 5 151.375 5C153.525 5 154.6 5 156.75 5C158.9 5 159.975 5 162.125 5C164.275 5 165.35 5 167.5 5C169.65 5 170.725 5 172.875 5C175.025 5 176.1 5 178.25 5C180.4 5 181.475 5 183.625 5C185.775 5 186.85 5 189 5C191.15 5 192.225 101.2 194.375 124.667C196.525 148.133 197.6 183.333 199.75 183.333C201.9 183.333 202.975 183.333 205.125 183.333C207.275 183.333 208.35 183.333 210.5 183.333C212.65 183.333 213.725 183.333 215.875 183.333C218.025 183.333 219.1 183.333 221.25 183.333C223.4 183.333 224.475 183.333 226.625 183.333C228.775 183.333 229.85 183.333 232 183.333C234.15 183.333 235.225 183.333 237.375 183.333C239.525 183.333 240.6 148.133 242.75 124.667C244.9 101.2 245.975 5.33301 248.125 5.33301C250.275 5.33301 251.35 5.33301 253.5 5.33301C255.65 5.33301 256.725 5.33301 258.875 5.33301C261.025 5.33301 262.1 5.33301 264.25 5.33301C266.4 5.33301 267.475 5.33301 269.625 5.33301C271.775 5.33301 275 5.33301 275 5.33301V183.333C275 183.333 271.775 183.333 269.625 183.333C267.475 183.333 266.4 183.333 264.25 183.333C262.1 183.333 261.025 183.333 258.875 183.333C256.725 183.333 255.65 183.333 253.5 183.333C251.35 183.333 250.275 183.333 248.125 183.333C245.975 183.333 244.9 183.333 242.75 183.333C240.6 183.333 239.525 183.333 237.375 183.333C235.225 183.333 234.15 183.333 232 183.333C229.85 183.333 228.775 183.333 226.625 183.333C224.475 183.333 223.4 183.333 221.25 183.333C219.1 183.333 218.025 183.333 215.875 183.333C213.725 183.333 212.65 183.333 210.5 183.333C208.35 183.333 207.275 183.333 205.125 183.333C202.975 183.333 201.9 183.333 199.75 183.333C197.6 183.333 196.525 183.333 194.375 183.333C192.225 183.333 191.15 183.333 189 183.333C186.85 183.333 185.775 183.333 183.625 183.333C181.475 183.333 180.4 183.333 178.25 183.333C176.1 183.333 175.025 183.333 172.875 183.333C170.725 183.333 169.65 183.333 167.5 183.333C165.35 183.333 164.275 183.333 162.125 183.333C159.975 183.333 158.9 183.333 156.75 183.333C154.6 183.333 153.525 183.333 151.375 183.333C149.225 183.333 148.15 183.333 146 183.333C143.85 183.333 142.775 183.333 140.625 183.333C138.475 183.333 137.4 183.333 135.25 183.333C133.1 183.333 132.025 183.333 129.875 183.333C127.725 183.333 126.65 183.333 124.5 183.333C122.35 183.333 121.275 183.333 119.125 183.333C116.975 183.333 115.9 183.333 113.75 183.333C111.6 183.333 110.525 183.333 108.375 183.333C106.225 183.333 105.15 183.333 103 183.333C100.85 183.333 99.775 183.333 97.625 183.333C95.475 183.333 94.4 183.333 92.25 183.333C90.1 183.333 89.025 183.333 86.875 183.333C84.725 183.333 83.65 183.333 81.5 183.333C79.35 183.333 78.275 183.333 76.125 183.333C73.975 183.333 72.9 183.333 70.75 183.333C68.6 183.333 67.525 183.333 65.375 183.333C63.225 183.333 62.15 183.333 60 183.333C57.85 183.333 56.775 183.333 54.625 183.333C52.475 183.333 51.4 183.333 49.25 183.333C47.1 183.333 46.025 183.333 43.875 183.333C41.725 183.333 40.65 183.333 38.5 183.333C36.35 183.333 35.275 183.333 33.125 183.333C30.975 183.333 29.9 183.333 27.75 183.333C25.6 183.333 24.525 183.333 22.375 183.333C20.225 183.333 17 183.333 17 183.333L19.15 5.5Z" fill="#EFF2F5"/>
<path d="M21.384 157.77C21.3893 157.509 21.4027 157.239 21.424 156.962C21.4453 156.685 21.4853 156.407 21.544 156.13L22.056 156.178C22.0453 156.407 22.0373 156.661 22.032 156.938C22.0213 157.215 22.016 157.482 22.016 157.738C22.016 157.935 22.024 158.106 22.04 158.25C22.0507 158.389 22.0827 158.503 22.136 158.594C22.184 158.685 22.2667 158.751 22.384 158.794C22.496 158.831 22.6533 158.85 22.856 158.85C23.16 158.85 23.3733 158.797 23.496 158.69C23.6133 158.578 23.7013 158.399 23.76 158.154L24.04 157.034C24.1413 156.607 24.32 156.317 24.576 156.162C24.8267 156.002 25.1653 155.922 25.592 155.922C25.912 155.922 26.1707 155.959 26.368 156.034C26.5653 156.103 26.7173 156.213 26.824 156.362C26.9253 156.511 26.9947 156.703 27.032 156.938C27.0747 157.173 27.096 157.45 27.096 157.77C27.096 157.951 27.088 158.189 27.072 158.482C27.056 158.77 27.0133 159.103 26.944 159.482L26.424 159.434C26.4347 159.119 26.4453 158.866 26.456 158.674C26.4613 158.482 26.464 158.317 26.464 158.178C26.464 158.039 26.464 157.895 26.464 157.746C26.464 157.463 26.4427 157.242 26.4 157.082C26.3573 156.917 26.272 156.802 26.144 156.738C26.016 156.669 25.8267 156.634 25.576 156.634C25.3627 156.634 25.1973 156.658 25.08 156.706C24.9627 156.754 24.8747 156.831 24.816 156.938C24.752 157.039 24.7013 157.17 24.664 157.33L24.376 158.474C24.2747 158.874 24.0987 159.157 23.848 159.322C23.5973 159.482 23.2613 159.562 22.84 159.562C22.52 159.562 22.264 159.527 22.072 159.458C21.8747 159.383 21.728 159.274 21.632 159.13C21.5307 158.981 21.464 158.794 21.432 158.57C21.4 158.346 21.384 158.079 21.384 157.77ZM21.376 150.846C21.376 150.446 21.424 150.107 21.52 149.83C21.616 149.547 21.776 149.323 22 149.158C22.2187 148.987 22.512 148.864 22.88 148.79C23.248 148.71 23.7013 148.67 24.24 148.67C24.7787 148.67 25.232 148.71 25.6 148.79C25.968 148.864 26.264 148.987 26.488 149.158C26.7067 149.323 26.864 149.547 26.96 149.83C27.056 150.107 27.104 150.446 27.104 150.846C27.104 151.246 27.056 151.587 26.96 151.87C26.864 152.147 26.7067 152.371 26.488 152.542C26.264 152.712 25.968 152.838 25.6 152.918C25.232 152.992 24.7787 153.03 24.24 153.03C23.7013 153.03 23.248 152.992 22.88 152.918C22.512 152.838 22.2187 152.712 22 152.542C21.776 152.371 21.616 152.147 21.52 151.87C21.424 151.587 21.376 151.246 21.376 150.846ZM22.008 150.846C22.008 151.208 22.0773 151.496 22.216 151.71C22.3547 151.918 22.5867 152.067 22.912 152.158C23.232 152.243 23.6747 152.286 24.24 152.286C24.8 152.286 25.2427 152.243 25.568 152.158C25.8933 152.067 26.1253 151.918 26.264 151.71C26.4027 151.496 26.472 151.208 26.472 150.846C26.472 150.483 26.4027 150.198 26.264 149.99C26.1253 149.776 25.8933 149.627 25.568 149.542C25.2427 149.451 24.8 149.406 24.24 149.406C23.6747 149.406 23.232 149.451 22.912 149.542C22.5867 149.627 22.3547 149.776 22.216 149.99C22.0773 150.198 22.008 150.483 22.008 150.846ZM21.48 144.798H25.88C26.0613 144.798 26.1947 144.755 26.28 144.67C26.3653 144.579 26.408 144.443 26.408 144.262V142.27L26.952 142.238C26.9787 142.584 26.9947 142.939 27 143.302C27.0053 143.659 27.008 144.016 27.008 144.374C27.008 144.779 26.9093 145.067 26.712 145.238C26.5147 145.408 26.2667 145.494 25.968 145.494H21.48V144.798ZM21.48 137.208C21.48 137.144 21.4987 137.088 21.536 137.04C21.568 136.992 21.6133 136.96 21.672 136.944L27 135.168V135.896L22.472 137.328C22.3973 137.35 22.3227 137.374 22.248 137.4C22.168 137.422 22.0933 137.443 22.024 137.464V137.688C22.0933 137.71 22.168 137.731 22.248 137.752C22.3227 137.774 22.3973 137.798 22.472 137.824L27 139.256V139.984L21.672 138.208C21.6133 138.192 21.568 138.16 21.536 138.112C21.4987 138.064 21.48 138.008 21.48 137.944V137.208ZM24.664 136.184H25.272V138.984H24.664V136.184ZM21.408 130.488C21.408 130.061 21.456 129.717 21.552 129.456C21.6427 129.195 21.8027 129.005 22.032 128.888C22.2613 128.765 22.584 128.704 23 128.704C23.2987 128.704 23.5493 128.739 23.752 128.808C23.9493 128.877 24.104 128.987 24.216 129.136C24.3227 129.28 24.392 129.475 24.424 129.72H24.464C24.4853 129.629 24.5307 129.541 24.6 129.456C24.664 129.365 24.752 129.283 24.864 129.208C24.9707 129.133 25.1013 129.077 25.256 129.04L27 128.504V129.256L25.272 129.744C25.064 129.813 24.9173 129.907 24.832 130.024C24.7413 130.141 24.696 130.293 24.696 130.48C24.696 130.805 24.696 131.088 24.696 131.328C24.6907 131.568 24.6853 131.768 24.68 131.928C24.6747 132.088 24.672 132.216 24.672 132.312L24.088 132.288V130.504C24.0827 130.232 24.0507 130.019 23.992 129.864C23.9333 129.704 23.8293 129.589 23.68 129.52C23.5253 129.451 23.312 129.416 23.04 129.416C22.768 129.416 22.56 129.451 22.416 129.52C22.2667 129.589 22.1627 129.704 22.104 129.864C22.0453 130.019 22.016 130.232 22.016 130.504C22.016 130.941 22.0187 131.32 22.024 131.64C22.0293 131.955 22.032 132.168 22.032 132.28L21.48 132.392C21.4587 132.189 21.4427 132 21.432 131.824C21.4213 131.648 21.416 131.456 21.416 131.248C21.4107 131.035 21.408 130.781 21.408 130.488ZM21.48 131.696H27V132.392H21.48V131.696ZM21.408 119.761C21.408 119.335 21.456 118.991 21.552 118.729C21.6427 118.468 21.8027 118.279 22.032 118.161C22.2613 118.039 22.584 117.977 23 117.977C23.2987 117.977 23.5493 118.012 23.752 118.081C23.9493 118.151 24.104 118.26 24.216 118.409C24.3227 118.553 24.392 118.748 24.424 118.993H24.464C24.4853 118.903 24.5307 118.815 24.6 118.729C24.664 118.639 24.752 118.556 24.864 118.481C24.9707 118.407 25.1013 118.351 25.256 118.313L27 117.777V118.529L25.272 119.017C25.064 119.087 24.9173 119.18 24.832 119.297C24.7413 119.415 24.696 119.567 24.696 119.753C24.696 120.079 24.696 120.361 24.696 120.601C24.6907 120.841 24.6853 121.041 24.68 121.201C24.6747 121.361 24.672 121.489 24.672 121.585L24.088 121.561V119.777C24.0827 119.505 24.0507 119.292 23.992 119.137C23.9333 118.977 23.8293 118.863 23.68 118.793C23.5253 118.724 23.312 118.689 23.04 118.689C22.768 118.689 22.56 118.724 22.416 118.793C22.2667 118.863 22.1627 118.977 22.104 119.137C22.0453 119.292 22.016 119.505 22.016 119.777C22.016 120.215 22.0187 120.593 22.024 120.913C22.0293 121.228 22.032 121.441 22.032 121.553L21.48 121.665C21.4587 121.463 21.4427 121.273 21.432 121.097C21.4213 120.921 21.416 120.729 21.416 120.521C21.4107 120.308 21.408 120.055 21.408 119.761ZM21.48 120.969H27V121.665H21.48V120.969ZM21.48 112.56C21.48 112.496 21.4987 112.44 21.536 112.392C21.568 112.344 21.6133 112.312 21.672 112.296L27 110.52V111.248L22.472 112.68C22.3973 112.701 22.3227 112.725 22.248 112.752C22.168 112.773 22.0933 112.795 22.024 112.816V113.04C22.0933 113.061 22.168 113.083 22.248 113.104C22.3227 113.125 22.3973 113.149 22.472 113.176L27 114.608V115.336L21.672 113.56C21.6133 113.544 21.568 113.512 21.536 113.464C21.4987 113.416 21.48 113.36 21.48 113.296V112.56ZM24.664 111.536H25.272V114.336H24.664V111.536ZM21.408 105.775C21.408 105.381 21.456 105.047 21.552 104.775C21.648 104.498 21.8053 104.277 22.024 104.111C22.2427 103.941 22.5333 103.818 22.896 103.743C23.2587 103.663 23.7067 103.623 24.24 103.623C24.7733 103.623 25.2213 103.663 25.584 103.743C25.9467 103.818 26.2373 103.941 26.456 104.111C26.6747 104.277 26.832 104.498 26.928 104.775C27.024 105.047 27.072 105.381 27.072 105.775C27.072 106.154 27.064 106.506 27.048 106.831C27.0373 107.151 27.0213 107.455 27 107.743L26.424 107.439C26.4293 107.215 26.4373 106.967 26.448 106.695C26.4533 106.418 26.456 106.111 26.456 105.775C26.456 105.423 26.3893 105.143 26.256 104.935C26.1173 104.727 25.888 104.581 25.568 104.495C25.2427 104.405 24.8 104.359 24.24 104.359C23.68 104.359 23.24 104.405 22.92 104.495C22.5947 104.581 22.3627 104.727 22.224 104.935C22.0853 105.143 22.016 105.423 22.016 105.775C22.016 106.106 22.0187 106.405 22.024 106.671C22.0293 106.933 22.0347 107.189 22.04 107.439L21.48 107.743C21.4587 107.455 21.4427 107.151 21.432 106.831C21.416 106.506 21.408 106.154 21.408 105.775ZM21.48 107.039H27V107.743H21.48V107.039ZM21.48 99.727H27V100.431H21.48V99.727ZM21.48 94.1772C21.48 94.1132 21.4987 94.0572 21.536 94.0092C21.568 93.9612 21.6133 93.9292 21.672 93.9132L27 92.1372V92.8652L22.472 94.2972C22.3973 94.3185 22.3227 94.3425 22.248 94.3692C22.168 94.3905 22.0933 94.4119 22.024 94.4332V94.6572C22.0933 94.6785 22.168 94.6999 22.248 94.7212C22.3227 94.7425 22.3973 94.7665 22.472 94.7932L27 96.2252V96.9532L21.672 95.1772C21.6133 95.1612 21.568 95.1292 21.536 95.0812C21.4987 95.0332 21.48 94.9772 21.48 94.9132V94.1772ZM24.664 93.1532H25.272V95.9532H24.664V93.1532ZM21.48 87.8534H27V88.5574H21.48V87.8534ZM21.48 86.0694H22.104V90.3334H21.48V86.0694ZM21.48 82.477H27V83.181H21.48V82.477ZM21.376 77.1112C21.376 76.7112 21.424 76.3725 21.52 76.0952C21.616 75.8125 21.776 75.5885 22 75.4232C22.2187 75.2525 22.512 75.1299 22.88 75.0552C23.248 74.9752 23.7013 74.9352 24.24 74.9352C24.7787 74.9352 25.232 74.9752 25.6 75.0552C25.968 75.1299 26.264 75.2525 26.488 75.4232C26.7067 75.5885 26.864 75.8125 26.96 76.0952C27.056 76.3725 27.104 76.7112 27.104 77.1112C27.104 77.5112 27.056 77.8525 26.96 78.1352C26.864 78.4125 26.7067 78.6365 26.488 78.8072C26.264 78.9779 25.968 79.1032 25.6 79.1832C25.232 79.2579 24.7787 79.2952 24.24 79.2952C23.7013 79.2952 23.248 79.2579 22.88 79.1832C22.512 79.1032 22.2187 78.9779 22 78.8072C21.776 78.6365 21.616 78.4125 21.52 78.1352C21.424 77.8525 21.376 77.5112 21.376 77.1112ZM22.008 77.1112C22.008 77.4739 22.0773 77.7619 22.216 77.9752C22.3547 78.1832 22.5867 78.3325 22.912 78.4232C23.232 78.5085 23.6747 78.5512 24.24 78.5512C24.8 78.5512 25.2427 78.5085 25.568 78.4232C25.8933 78.3325 26.1253 78.1832 26.264 77.9752C26.4027 77.7619 26.472 77.4739 26.472 77.1112C26.472 76.7485 26.4027 76.4632 26.264 76.2552C26.1253 76.0419 25.8933 75.8925 25.568 75.8072C25.2427 75.7165 24.8 75.6712 24.24 75.6712C23.6747 75.6712 23.232 75.7165 22.912 75.8072C22.5867 75.8925 22.3547 76.0419 22.216 76.2552C22.0773 76.4632 22.008 76.7485 22.008 77.1112ZM21.48 67.4955H26.72C26.9067 67.4955 27 67.5861 27 67.7675V68.4555C27 68.5355 26.9813 68.5995 26.944 68.6475C26.9067 68.6955 26.8507 68.7355 26.776 68.7675L22.864 70.6315C22.7573 70.6795 22.6373 70.7355 22.504 70.7995C22.3707 70.8635 22.248 70.9115 22.136 70.9435V71.0715C22.2533 71.0608 22.3733 71.0528 22.496 71.0475C22.6187 71.0421 22.7413 71.0395 22.864 71.0395H27V71.7435H21.76C21.5733 71.7435 21.48 71.6501 21.48 71.4635V70.7995C21.48 70.7195 21.4987 70.6555 21.536 70.6075C21.5733 70.5595 21.6293 70.5195 21.704 70.4875L25.52 68.6795C25.632 68.6208 25.76 68.5595 25.904 68.4955C26.0427 68.4261 26.1813 68.3621 26.32 68.3035V68.1675C26.176 68.1728 26.0347 68.1781 25.896 68.1835C25.7573 68.1888 25.6187 68.1915 25.48 68.1915H21.48V67.4955ZM21.48 56.5536L23.768 58.1616C23.8373 58.2096 23.8987 58.2576 23.952 58.3056C24 58.3482 24.056 58.4016 24.12 58.4656H24.136C24.2 58.3962 24.264 58.3322 24.328 58.2736C24.392 58.2149 24.456 58.1642 24.52 58.1216L27 56.4416V57.2336L24.112 59.1936L21.48 57.3216V56.5536ZM21.48 59.6256H23.208C23.368 59.6256 23.52 59.6336 23.664 59.6496C23.808 59.6656 23.9573 59.6896 24.112 59.7216C24.2613 59.6949 24.4107 59.6736 24.56 59.6576C24.7093 59.6362 24.8533 59.6256 24.992 59.6256H27V60.3216H21.48V59.6256ZM23.84 58.8096H24.408V59.8736H23.84V58.8096ZM21.48 46.955L26.792 48.075C26.8507 48.091 26.9013 48.123 26.944 48.171C26.9813 48.219 27 48.2803 27 48.355V49.155C27 49.2243 26.9813 49.2857 26.944 49.339C26.9013 49.387 26.848 49.4163 26.784 49.427L22.632 50.291C22.5253 50.3123 22.4213 50.3337 22.32 50.355C22.2133 50.3763 22.1093 50.3977 22.008 50.419V50.587C22.1093 50.6083 22.2133 50.6297 22.32 50.651C22.4267 50.667 22.5307 50.6857 22.632 50.707L26.784 51.563C26.848 51.579 26.9013 51.6137 26.944 51.667C26.9813 51.715 27 51.7737 27 51.843V52.651C27 52.7203 26.9813 52.7817 26.944 52.835C26.9013 52.883 26.8507 52.9123 26.792 52.923L21.48 54.043V53.299L25.784 52.435C25.8853 52.4137 25.9947 52.395 26.112 52.379C26.224 52.363 26.3413 52.3443 26.464 52.323V52.139C26.3413 52.1177 26.224 52.0963 26.112 52.075C26 52.0537 25.8907 52.0323 25.784 52.011L21.712 51.155C21.6427 51.1443 21.5867 51.115 21.544 51.067C21.5013 51.0137 21.48 50.9523 21.48 50.883V50.115C21.48 50.0457 21.5013 49.987 21.544 49.939C21.5867 49.891 21.6427 49.859 21.712 49.843L25.784 48.987C25.9013 48.9603 26.016 48.939 26.128 48.923C26.24 48.9017 26.352 48.8857 26.464 48.875V48.675C26.352 48.659 26.24 48.643 26.128 48.627C26.0107 48.611 25.8987 48.5923 25.792 48.571L21.48 47.699V46.955ZM21.48 43.3051H27V44.0091H21.48V43.3051ZM23.744 40.6731H24.352V43.3691H23.744V40.6731ZM21.48 40.0571H27V40.7611H21.48V40.0571ZM21.48 33.4413L27.528 36.5853V37.1453L21.48 34.0013V33.4413ZM21.48 25.3165C21.48 25.1245 21.5787 25.0285 21.776 25.0285L27 24.7965V25.5005L22.064 25.7005V25.8685L26.136 27.1005C26.296 27.1432 26.376 27.2445 26.376 27.4045V28.0365C26.376 28.2018 26.296 28.3085 26.136 28.3565L22.064 29.5885V29.7485L27 29.9405V30.6445L21.776 30.4285C21.5787 30.4178 21.48 30.3192 21.48 30.1325V29.3325C21.48 29.1832 21.56 29.0845 21.72 29.0365L25.088 28.0045C25.2107 27.9618 25.3333 27.9272 25.456 27.9005C25.5787 27.8685 25.704 27.8338 25.832 27.7965V27.6525C25.704 27.6152 25.5787 27.5805 25.456 27.5485C25.3333 27.5165 25.2053 27.4818 25.072 27.4445L21.72 26.4125C21.56 26.3698 21.48 26.2685 21.48 26.1085V25.3165ZM21.384 20.0449C21.384 19.6929 21.4133 19.3916 21.472 19.1409C21.5307 18.8849 21.6453 18.6902 21.816 18.5569C21.9867 18.4182 22.24 18.3489 22.576 18.3489C22.8053 18.3489 23.0213 18.3809 23.224 18.4449C23.4267 18.5036 23.6373 18.6049 23.856 18.7489C24.0693 18.8929 24.312 19.0876 24.584 19.3329L26.352 20.9169C26.3413 20.7782 26.3333 20.6316 26.328 20.4769C26.3227 20.3169 26.32 20.1649 26.32 20.0209V18.1489H27V21.7729H26.56C26.5013 21.7729 26.448 21.7649 26.4 21.7489C26.3467 21.7329 26.2987 21.7062 26.256 21.6689L24.448 20.0689C24.0693 19.7169 23.7333 19.4582 23.44 19.2929C23.1467 19.1276 22.8693 19.0502 22.608 19.0609C22.4267 19.0662 22.296 19.1116 22.216 19.1969C22.1307 19.2769 22.0747 19.3942 22.048 19.5489C22.0213 19.6982 22.008 19.8796 22.008 20.0929C22.008 20.2636 22.0107 20.4262 22.016 20.5809C22.0213 20.7356 22.0347 20.9009 22.056 21.0769C22.072 21.2476 22.0987 21.4476 22.136 21.6769L21.592 21.7249C21.5333 21.4742 21.4907 21.2556 21.464 21.0689C21.432 20.8769 21.4107 20.7009 21.4 20.5409C21.3893 20.3756 21.384 20.2102 21.384 20.0449Z" fill="#2F2F2F"/>
<path d="M18.4 205.48V211H17.696V205.48H18.4ZM21.032 207.744V208.352H18.336V207.744H21.032ZM21.648 205.48V211H20.944V205.48H21.648ZM27.0158 205.376C27.4158 205.376 27.7544 205.424 28.0318 205.52C28.3144 205.616 28.5384 205.776 28.7038 206C28.8744 206.219 28.9971 206.512 29.0718 206.88C29.1518 207.248 29.1918 207.701 29.1918 208.24C29.1918 208.779 29.1518 209.232 29.0718 209.6C28.9971 209.968 28.8744 210.264 28.7038 210.488C28.5384 210.707 28.3144 210.864 28.0318 210.96C27.7544 211.056 27.4158 211.104 27.0158 211.104C26.6158 211.104 26.2744 211.056 25.9918 210.96C25.7144 210.864 25.4904 210.707 25.3198 210.488C25.1491 210.264 25.0238 209.968 24.9438 209.6C24.8691 209.232 24.8318 208.779 24.8318 208.24C24.8318 207.701 24.8691 207.248 24.9438 206.88C25.0238 206.512 25.1491 206.219 25.3198 206C25.4904 205.776 25.7144 205.616 25.9918 205.52C26.2744 205.424 26.6158 205.376 27.0158 205.376ZM27.0158 206.008C26.6531 206.008 26.3651 206.077 26.1518 206.216C25.9438 206.355 25.7944 206.587 25.7038 206.912C25.6184 207.232 25.5758 207.675 25.5758 208.24C25.5758 208.8 25.6184 209.243 25.7038 209.568C25.7944 209.893 25.9438 210.125 26.1518 210.264C26.3651 210.403 26.6531 210.472 27.0158 210.472C27.3784 210.472 27.6638 210.403 27.8718 210.264C28.0851 210.125 28.2344 209.893 28.3198 209.568C28.4104 209.243 28.4557 208.8 28.4557 208.24C28.4557 207.675 28.4104 207.232 28.3198 206.912C28.2344 206.587 28.0851 206.355 27.8718 206.216C27.6638 206.077 27.3784 206.008 27.0158 206.008ZM36.3595 205.48V208.888C36.3595 209.421 36.2955 209.851 36.1675 210.176C36.0395 210.501 35.8315 210.739 35.5435 210.888C35.2555 211.032 34.8688 211.104 34.3835 211.104C33.8875 211.104 33.4902 211.032 33.1915 210.888C32.8928 210.739 32.6768 210.501 32.5435 210.176C32.4102 209.851 32.3435 209.421 32.3435 208.888V205.48H33.0475V208.888C33.0475 209.283 33.0875 209.597 33.1675 209.832C33.2528 210.061 33.3915 210.227 33.5835 210.328C33.7755 210.424 34.0315 210.472 34.3515 210.472C34.6715 210.472 34.9248 210.424 35.1115 210.328C35.3035 210.227 35.4422 210.061 35.5275 209.832C35.6128 209.597 35.6555 209.283 35.6555 208.888V205.48H36.3595ZM41.6156 205.408C42.0423 205.408 42.3863 205.456 42.6476 205.552C42.909 205.643 43.0983 205.803 43.2156 206.032C43.3383 206.261 43.3996 206.584 43.3996 207C43.3996 207.299 43.365 207.549 43.2956 207.752C43.2263 207.949 43.117 208.104 42.9676 208.216C42.8236 208.323 42.629 208.392 42.3836 208.424V208.464C42.4743 208.485 42.5623 208.531 42.6476 208.6C42.7383 208.664 42.821 208.752 42.8956 208.864C42.9703 208.971 43.0263 209.101 43.0636 209.256L43.5996 211H42.8476L42.3596 209.272C42.2903 209.064 42.197 208.917 42.0796 208.832C41.9623 208.741 41.8103 208.696 41.6236 208.696C41.2983 208.696 41.0156 208.696 40.7756 208.696C40.5356 208.691 40.3356 208.685 40.1756 208.68C40.0156 208.675 39.8876 208.672 39.7916 208.672L39.8156 208.088H41.5996C41.8716 208.083 42.085 208.051 42.2396 207.992C42.3996 207.933 42.5143 207.829 42.5836 207.68C42.653 207.525 42.6876 207.312 42.6876 207.04C42.6876 206.768 42.653 206.56 42.5836 206.416C42.5143 206.267 42.3996 206.163 42.2396 206.104C42.085 206.045 41.8716 206.016 41.5996 206.016C41.1623 206.016 40.7836 206.019 40.4636 206.024C40.149 206.029 39.9356 206.032 39.8236 206.032L39.7116 205.48C39.9143 205.459 40.1036 205.443 40.2796 205.432C40.4556 205.421 40.6476 205.416 40.8556 205.416C41.069 205.411 41.3223 205.408 41.6156 205.408ZM40.4076 205.48V211H39.7116V205.48H40.4076ZM52.4142 205.376C52.8142 205.376 53.1529 205.424 53.4302 205.52C53.7129 205.616 53.9369 205.776 54.1022 206C54.2729 206.219 54.3955 206.512 54.4702 206.88C54.5502 207.248 54.5902 207.701 54.5902 208.24C54.5902 208.779 54.5502 209.232 54.4702 209.6C54.3955 209.968 54.2729 210.264 54.1022 210.488C53.9369 210.707 53.7129 210.864 53.4302 210.96C53.1529 211.056 52.8142 211.104 52.4142 211.104C52.0142 211.104 51.6729 211.056 51.3902 210.96C51.1129 210.864 50.8889 210.707 50.7182 210.488C50.5475 210.264 50.4222 209.968 50.3422 209.6C50.2675 209.232 50.2302 208.779 50.2302 208.24C50.2302 207.701 50.2675 207.248 50.3422 206.88C50.4222 206.512 50.5475 206.219 50.7182 206C50.8889 205.776 51.1129 205.616 51.3902 205.52C51.6729 205.424 52.0142 205.376 52.4142 205.376ZM52.4142 206.008C52.0515 206.008 51.7635 206.077 51.5502 206.216C51.3422 206.355 51.1929 206.587 51.1022 206.912C51.0169 207.232 50.9742 207.675 50.9742 208.24C50.9742 208.8 51.0169 209.243 51.1022 209.568C51.1929 209.893 51.3422 210.125 51.5502 210.264C51.7635 210.403 52.0515 210.472 52.4142 210.472C52.7769 210.472 53.0622 210.403 53.2702 210.264C53.4835 210.125 53.6329 209.893 53.7182 209.568C53.8089 209.243 53.8542 208.8 53.8542 208.24C53.8542 207.675 53.8089 207.232 53.7182 206.912C53.6329 206.587 53.4835 206.355 53.2702 206.216C53.0622 206.077 52.7769 206.008 52.4142 206.008ZM58.8299 205.472C59.0859 205.472 59.3446 205.475 59.6059 205.48C59.8673 205.48 60.1259 205.483 60.3819 205.488C60.6379 205.493 60.8833 205.507 61.1179 205.528L61.0779 206.072H59.0059C58.8193 206.072 58.6833 206.115 58.5979 206.2C58.5126 206.28 58.4699 206.413 58.4699 206.6V211H57.7659V206.464C57.7659 206.149 57.8619 205.907 58.0539 205.736C58.2459 205.56 58.5046 205.472 58.8299 205.472ZM57.9019 207.88H60.7739V208.448H57.9019V207.88ZM69.5314 205.48V211H68.8274V205.48H69.5314ZM71.3154 205.48V206.104H67.0514V205.48H71.3154ZM74.9078 205.48V211H74.2038V205.48H74.9078ZM77.5398 207.744V208.352H74.8438V207.744H77.5398ZM78.1558 205.48V211H77.4518V205.48H78.1558ZM82.5636 205.472C82.8302 205.472 83.0969 205.472 83.3636 205.472C83.6356 205.472 83.9022 205.477 84.1636 205.488C84.4302 205.493 84.6862 205.504 84.9316 205.52L84.8996 206.072H82.6836C82.5182 206.072 82.3956 206.115 82.3156 206.2C82.2409 206.28 82.2036 206.413 82.2036 206.6V209.88C82.2036 210.067 82.2409 210.203 82.3156 210.288C82.3956 210.373 82.5182 210.416 82.6836 210.416H84.8996L84.9316 210.96C84.6862 210.976 84.4302 210.987 84.1636 210.992C83.9022 210.997 83.6356 211 83.3636 211C83.0969 211.005 82.8302 211.008 82.5636 211.008C82.2382 211.008 81.9796 210.923 81.7876 210.752C81.6009 210.576 81.5049 210.341 81.4996 210.048V206.432C81.5049 206.133 81.6009 205.899 81.7876 205.728C81.9796 205.557 82.2382 205.472 82.5636 205.472ZM81.6436 207.8H84.5876V208.368H81.6436V207.8ZM93.7734 205.408C94.168 205.408 94.5014 205.456 94.7734 205.552C95.0507 205.648 95.272 205.805 95.4374 206.024C95.608 206.243 95.7307 206.533 95.8054 206.896C95.8854 207.259 95.9254 207.707 95.9254 208.24C95.9254 208.773 95.8854 209.221 95.8054 209.584C95.7307 209.947 95.608 210.237 95.4374 210.456C95.272 210.675 95.0507 210.832 94.7734 210.928C94.5014 211.024 94.168 211.072 93.7734 211.072C93.3947 211.072 93.0427 211.064 92.7174 211.048C92.3974 211.037 92.0934 211.021 91.8054 211L92.1094 210.424C92.3334 210.429 92.5814 210.437 92.8534 210.448C93.1307 210.453 93.4374 210.456 93.7734 210.456C94.1254 210.456 94.4054 210.389 94.6134 210.256C94.8214 210.117 94.968 209.888 95.0534 209.568C95.144 209.243 95.1894 208.8 95.1894 208.24C95.1894 207.68 95.144 207.24 95.0534 206.92C94.968 206.595 94.8214 206.363 94.6134 206.224C94.4054 206.085 94.1254 206.016 93.7734 206.016C93.4427 206.016 93.144 206.019 92.8774 206.024C92.616 206.029 92.36 206.035 92.1094 206.04L91.8054 205.48C92.0934 205.459 92.3974 205.443 92.7174 205.432C93.0427 205.416 93.3947 205.408 93.7734 205.408ZM92.5094 205.48V211H91.8054V205.48H92.5094ZM101.247 205.48C101.311 205.48 101.367 205.499 101.415 205.536C101.463 205.568 101.495 205.613 101.511 205.672L103.287 211H102.559L101.127 206.472C101.105 206.397 101.081 206.323 101.055 206.248C101.033 206.168 101.012 206.093 100.991 206.024H100.767C100.745 206.093 100.724 206.168 100.703 206.248C100.681 206.323 100.657 206.397 100.631 206.472L99.1986 211H98.4706L100.247 205.672C100.263 205.613 100.295 205.568 100.343 205.536C100.391 205.499 100.447 205.48 100.511 205.48H101.247ZM102.271 208.664V209.272H99.4706V208.664H102.271ZM109.394 205.48L107.53 209.128H106.898L105.026 205.48H105.778L106.938 207.808C106.986 207.909 107.028 208.013 107.066 208.12C107.108 208.227 107.148 208.331 107.186 208.432H107.242C107.279 208.331 107.319 208.227 107.362 208.12C107.404 208.013 107.447 207.912 107.49 207.816L108.65 205.48H109.394ZM107.562 208.632V211H106.858V208.632H107.562Z" fill="#2F2F2F"/>
<path d="M43.4509 235.386C43.7123 235.391 43.9816 235.405 44.2589 235.426C44.5363 235.447 44.8136 235.487 45.0909 235.546L45.0429 236.058C44.8136 236.047 44.5603 236.039 44.2829 236.034C44.0056 236.023 43.7389 236.018 43.4829 236.018C43.2856 236.018 43.1149 236.026 42.9709 236.042C42.8323 236.053 42.7176 236.085 42.6269 236.138C42.5363 236.186 42.4696 236.269 42.4269 236.386C42.3896 236.498 42.3709 236.655 42.3709 236.858C42.3709 237.162 42.4243 237.375 42.5309 237.498C42.6429 237.615 42.8216 237.703 43.0669 237.762L44.1869 238.042C44.6136 238.143 44.9043 238.322 45.0589 238.578C45.2189 238.829 45.2989 239.167 45.2989 239.594C45.2989 239.914 45.2616 240.173 45.1869 240.37C45.1176 240.567 45.0083 240.719 44.8589 240.826C44.7096 240.927 44.5176 240.997 44.2829 241.034C44.0483 241.077 43.7709 241.098 43.4509 241.098C43.2696 241.098 43.0323 241.09 42.7389 241.074C42.4509 241.058 42.1176 241.015 41.7389 240.946L41.7869 240.426C42.1016 240.437 42.3549 240.447 42.5469 240.458C42.7389 240.463 42.9043 240.466 43.0429 240.466C43.1816 240.466 43.3256 240.466 43.4749 240.466C43.7576 240.466 43.9789 240.445 44.1389 240.402C44.3043 240.359 44.4189 240.274 44.4829 240.146C44.5523 240.018 44.5869 239.829 44.5869 239.578C44.5869 239.365 44.5629 239.199 44.5149 239.082C44.4669 238.965 44.3896 238.877 44.2829 238.818C44.1816 238.754 44.0509 238.703 43.8909 238.666L42.7469 238.378C42.3469 238.277 42.0643 238.101 41.8989 237.85C41.7389 237.599 41.6589 237.263 41.6589 236.842C41.6589 236.522 41.6936 236.266 41.7629 236.074C41.8376 235.877 41.9469 235.73 42.0909 235.634C42.2403 235.533 42.4269 235.466 42.6509 235.434C42.8749 235.402 43.1416 235.386 43.4509 235.386ZM47.887 235.482V241.002H47.183V235.482H47.887ZM50.519 237.746V238.354H47.823V237.746H50.519ZM51.135 235.482V241.002H50.431V235.482H51.135ZM55.4704 235.482C55.5344 235.482 55.5904 235.501 55.6384 235.538C55.6864 235.57 55.7184 235.615 55.7344 235.674L57.5104 241.002H56.7824L55.3504 236.474C55.3291 236.399 55.3051 236.325 55.2784 236.25C55.2571 236.17 55.2357 236.095 55.2144 236.026H54.9904C54.9691 236.095 54.9477 236.17 54.9264 236.25C54.9051 236.325 54.8811 236.399 54.8544 236.474L53.4224 241.002H52.6944L54.4704 235.674C54.4864 235.615 54.5184 235.57 54.5664 235.538C54.6144 235.501 54.6704 235.482 54.7344 235.482H55.4704ZM56.4944 238.666V239.274H53.6944V238.666H56.4944ZM61.0386 235.41C61.4333 235.41 61.7666 235.458 62.0386 235.554C62.316 235.65 62.5373 235.807 62.7026 236.026C62.8733 236.245 62.996 236.535 63.0706 236.898C63.1506 237.261 63.1906 237.709 63.1906 238.242C63.1906 238.775 63.1506 239.223 63.0706 239.586C62.996 239.949 62.8733 240.239 62.7026 240.458C62.5373 240.677 62.316 240.834 62.0386 240.93C61.7666 241.026 61.4333 241.074 61.0386 241.074C60.66 241.074 60.308 241.066 59.9826 241.05C59.6626 241.039 59.3586 241.023 59.0706 241.002L59.3746 240.426C59.5986 240.431 59.8466 240.439 60.1186 240.45C60.396 240.455 60.7026 240.458 61.0386 240.458C61.3906 240.458 61.6706 240.391 61.8786 240.258C62.0866 240.119 62.2333 239.89 62.3186 239.57C62.4093 239.245 62.4546 238.802 62.4546 238.242C62.4546 237.682 62.4093 237.242 62.3186 236.922C62.2333 236.597 62.0866 236.365 61.8786 236.226C61.6706 236.087 61.3906 236.018 61.0386 236.018C60.708 236.018 60.4093 236.021 60.1426 236.026C59.8813 236.031 59.6253 236.037 59.3746 236.042L59.0706 235.482C59.3586 235.461 59.6626 235.445 59.9826 235.434C60.308 235.418 60.66 235.41 61.0386 235.41ZM59.7746 235.482V241.002H59.0706V235.482H59.7746ZM65.8708 235.482V241.002H65.1668V235.482H65.8708ZM72.2922 235.482V240.722C72.2922 240.909 72.2016 241.002 72.0202 241.002H71.3322C71.2522 241.002 71.1882 240.983 71.1402 240.946C71.0922 240.909 71.0522 240.853 71.0202 240.778L69.1562 236.866C69.1082 236.759 69.0522 236.639 68.9882 236.506C68.9242 236.373 68.8762 236.25 68.8442 236.138H68.7162C68.7269 236.255 68.7349 236.375 68.7402 236.498C68.7456 236.621 68.7482 236.743 68.7482 236.866V241.002H68.0442V235.762C68.0442 235.575 68.1376 235.482 68.3242 235.482H68.9882C69.0682 235.482 69.1322 235.501 69.1802 235.538C69.2282 235.575 69.2682 235.631 69.3002 235.706L71.1082 239.522C71.1669 239.634 71.2282 239.762 71.2922 239.906C71.3616 240.045 71.4256 240.183 71.4842 240.322H71.6202C71.6149 240.178 71.6096 240.037 71.6042 239.898C71.5989 239.759 71.5962 239.621 71.5962 239.482V235.482H72.2922ZM76.5725 235.378C76.7592 235.378 76.9405 235.383 77.1165 235.394C77.2925 235.405 77.4632 235.423 77.6285 235.45C77.7938 235.471 77.9538 235.503 78.1085 235.546L78.0365 236.074C77.8712 236.058 77.7032 236.045 77.5325 236.034C77.3672 236.023 77.2072 236.018 77.0525 236.018C76.8978 236.013 76.7512 236.01 76.6125 236.01C76.3138 236.01 76.0605 236.039 75.8525 236.098C75.6498 236.151 75.4872 236.258 75.3645 236.418C75.2418 236.578 75.1512 236.807 75.0925 237.106C75.0392 237.405 75.0125 237.794 75.0125 238.274C75.0125 238.818 75.0498 239.253 75.1245 239.578C75.1992 239.898 75.3245 240.13 75.5005 240.274C75.6765 240.418 75.9112 240.49 76.2045 240.49C76.4072 240.49 76.5912 240.461 76.7565 240.402C76.9272 240.343 77.0845 240.269 77.2285 240.178C77.3778 240.082 77.5218 239.983 77.6605 239.882L77.7565 240.314C77.6605 240.426 77.5272 240.543 77.3565 240.666C77.1912 240.789 76.9965 240.893 76.7725 240.978C76.5485 241.063 76.2952 241.106 76.0125 241.106C75.6018 241.106 75.2658 241.005 75.0045 240.802C74.7485 240.594 74.5618 240.279 74.4445 239.858C74.3272 239.431 74.2685 238.887 74.2685 238.226C74.2685 237.495 74.3405 236.925 74.4845 236.514C74.6338 236.098 74.8765 235.805 75.2125 235.634C75.5538 235.463 76.0072 235.378 76.5725 235.378ZM78.2525 237.81V241.002H77.7405L77.6285 240.186L77.5645 240.026V237.81H78.2525ZM84.7365 235.41C85.1792 235.41 85.5285 235.461 85.7845 235.562C86.0459 235.663 86.2325 235.839 86.3445 236.09C86.4565 236.335 86.5125 236.685 86.5125 237.138C86.5125 237.591 86.4565 237.943 86.3445 238.194C86.2379 238.445 86.0592 238.621 85.8085 238.722C85.5632 238.818 85.2325 238.866 84.8165 238.866C84.5925 238.866 84.3765 238.861 84.1685 238.85C83.9659 238.839 83.7792 238.826 83.6085 238.81C83.4379 238.789 83.2912 238.767 83.1685 238.746C83.0512 238.725 82.9685 238.706 82.9205 238.69L82.9445 238.258C83.2272 238.258 83.5205 238.258 83.8245 238.258C84.1285 238.258 84.4299 238.258 84.7285 238.258C84.9952 238.253 85.2059 238.221 85.3605 238.162C85.5205 238.098 85.6325 237.986 85.6965 237.826C85.7659 237.661 85.8005 237.431 85.8005 237.138C85.8005 236.839 85.7659 236.61 85.6965 236.45C85.6325 236.29 85.5205 236.178 85.3605 236.114C85.2059 236.05 84.9952 236.018 84.7285 236.018C84.2912 236.018 83.9125 236.021 83.5925 236.026C83.2779 236.031 83.0645 236.039 82.9525 236.05L82.8405 235.482C83.0432 235.461 83.2325 235.445 83.4085 235.434C83.5845 235.423 83.7765 235.418 83.9845 235.418C84.1925 235.413 84.4432 235.41 84.7365 235.41ZM83.5445 235.482V241.002H82.8405V235.482H83.5445ZM90.3189 235.378C90.7189 235.378 91.0576 235.426 91.3349 235.522C91.6176 235.618 91.8416 235.778 92.0069 236.002C92.1776 236.221 92.3003 236.514 92.3749 236.882C92.4549 237.25 92.4949 237.703 92.4949 238.242C92.4949 238.781 92.4549 239.234 92.3749 239.602C92.3003 239.97 92.1776 240.266 92.0069 240.49C91.8416 240.709 91.6176 240.866 91.3349 240.962C91.0576 241.058 90.7189 241.106 90.3189 241.106C89.9189 241.106 89.5776 241.058 89.2949 240.962C89.0176 240.866 88.7936 240.709 88.6229 240.49C88.4523 240.266 88.3269 239.97 88.2469 239.602C88.1723 239.234 88.1349 238.781 88.1349 238.242C88.1349 237.703 88.1723 237.25 88.2469 236.882C88.3269 236.514 88.4523 236.221 88.6229 236.002C88.7936 235.778 89.0176 235.618 89.2949 235.522C89.5776 235.426 89.9189 235.378 90.3189 235.378ZM90.3189 236.01C89.9563 236.01 89.6683 236.079 89.4549 236.218C89.2469 236.357 89.0976 236.589 89.0069 236.914C88.9216 237.234 88.8789 237.677 88.8789 238.242C88.8789 238.802 88.9216 239.245 89.0069 239.57C89.0976 239.895 89.2469 240.127 89.4549 240.266C89.6683 240.405 89.9563 240.474 90.3189 240.474C90.6816 240.474 90.9669 240.405 91.1749 240.266C91.3883 240.127 91.5376 239.895 91.6229 239.57C91.7136 239.245 91.7589 238.802 91.7589 238.242C91.7589 237.677 91.7136 237.234 91.6229 236.914C91.5376 236.589 91.3883 236.357 91.1749 236.218C90.9669 236.079 90.6816 236.01 90.3189 236.01ZM96.0064 235.386C96.2677 235.391 96.537 235.405 96.8144 235.426C97.0917 235.447 97.369 235.487 97.6464 235.546L97.5984 236.058C97.369 236.047 97.1157 236.039 96.8384 236.034C96.561 236.023 96.2944 236.018 96.0384 236.018C95.841 236.018 95.6704 236.026 95.5264 236.042C95.3877 236.053 95.273 236.085 95.1824 236.138C95.0917 236.186 95.025 236.269 94.9824 236.386C94.945 236.498 94.9264 236.655 94.9264 236.858C94.9264 237.162 94.9797 237.375 95.0864 237.498C95.1984 237.615 95.377 237.703 95.6224 237.762L96.7424 238.042C97.169 238.143 97.4597 238.322 97.6144 238.578C97.7744 238.829 97.8544 239.167 97.8544 239.594C97.8544 239.914 97.817 240.173 97.7424 240.37C97.673 240.567 97.5637 240.719 97.4144 240.826C97.265 240.927 97.073 240.997 96.8384 241.034C96.6037 241.077 96.3264 241.098 96.0064 241.098C95.825 241.098 95.5877 241.09 95.2944 241.074C95.0064 241.058 94.673 241.015 94.2944 240.946L94.3424 240.426C94.657 240.437 94.9104 240.447 95.1024 240.458C95.2944 240.463 95.4597 240.466 95.5984 240.466C95.737 240.466 95.881 240.466 96.0304 240.466C96.313 240.466 96.5344 240.445 96.6944 240.402C96.8597 240.359 96.9744 240.274 97.0384 240.146C97.1077 240.018 97.1424 239.829 97.1424 239.578C97.1424 239.365 97.1184 239.199 97.0704 239.082C97.0224 238.965 96.945 238.877 96.8384 238.818C96.737 238.754 96.6064 238.703 96.4464 238.666L95.3024 238.378C94.9024 238.277 94.6197 238.101 94.4544 237.85C94.2944 237.599 94.2144 237.263 94.2144 236.842C94.2144 236.522 94.249 236.266 94.3184 236.074C94.393 235.877 94.5024 235.73 94.6464 235.634C94.7957 235.533 94.9824 235.466 95.2064 235.434C95.4304 235.402 95.697 235.386 96.0064 235.386ZM100.442 235.482V241.002H99.7384V235.482H100.442ZM104.592 235.482V241.002H103.888V235.482H104.592ZM106.376 235.482V236.106H102.112V235.482H106.376ZM108.752 235.482V241.002H108.048V235.482H108.752ZM112.901 235.378C113.301 235.378 113.64 235.426 113.917 235.522C114.2 235.618 114.424 235.778 114.589 236.002C114.76 236.221 114.883 236.514 114.957 236.882C115.037 237.25 115.077 237.703 115.077 238.242C115.077 238.781 115.037 239.234 114.957 239.602C114.883 239.97 114.76 240.266 114.589 240.49C114.424 240.709 114.2 240.866 113.917 240.962C113.64 241.058 113.301 241.106 112.901 241.106C112.501 241.106 112.16 241.058 111.877 240.962C111.6 240.866 111.376 240.709 111.205 240.49C111.035 240.266 110.909 239.97 110.829 239.602C110.755 239.234 110.717 238.781 110.717 238.242C110.717 237.703 110.755 237.25 110.829 236.882C110.909 236.514 111.035 236.221 111.205 236.002C111.376 235.778 111.6 235.618 111.877 235.522C112.16 235.426 112.501 235.378 112.901 235.378ZM112.901 236.01C112.539 236.01 112.251 236.079 112.037 236.218C111.829 236.357 111.68 236.589 111.589 236.914C111.504 237.234 111.461 237.677 111.461 238.242C111.461 238.802 111.504 239.245 111.589 239.57C111.68 239.895 111.829 240.127 112.037 240.266C112.251 240.405 112.539 240.474 112.901 240.474C113.264 240.474 113.549 240.405 113.757 240.266C113.971 240.127 114.12 239.895 114.205 239.57C114.296 239.245 114.341 238.802 114.341 238.242C114.341 237.677 114.296 237.234 114.205 236.914C114.12 236.589 113.971 236.357 113.757 236.218C113.549 236.079 113.264 236.01 112.901 236.01ZM121.301 235.482V240.722C121.301 240.909 121.21 241.002 121.029 241.002H120.341C120.261 241.002 120.197 240.983 120.149 240.946C120.101 240.909 120.061 240.853 120.029 240.778L118.165 236.866C118.117 236.759 118.061 236.639 117.997 236.506C117.933 236.373 117.885 236.25 117.853 236.138H117.725C117.735 236.255 117.743 236.375 117.749 236.498C117.754 236.621 117.757 236.743 117.757 236.866V241.002H117.053V235.762C117.053 235.575 117.146 235.482 117.333 235.482H117.997C118.077 235.482 118.141 235.501 118.189 235.538C118.237 235.575 118.277 235.631 118.309 235.706L120.117 239.522C120.175 239.634 120.237 239.762 120.301 239.906C120.37 240.045 120.434 240.183 120.493 240.322H120.629C120.623 240.178 120.618 240.037 120.613 239.898C120.607 239.759 120.605 239.621 120.605 239.482V235.482H121.301Z" fill="#2F2F2F"/>
<g filter="url(#filter0_d_496_44981)">
<path d="M143 227.002H20C19.4477 227.002 19 227.45 19 228.002C19 228.554 19.4477 229.002 20 229.002H143C143.552 229.002 144 228.554 144 228.002C144 227.45 143.552 227.002 143 227.002Z" fill="#E4E9EF"/>
</g>
<path d="M169.911 235.378C170.098 235.378 170.279 235.383 170.455 235.394C170.631 235.405 170.802 235.423 170.967 235.45C171.132 235.471 171.292 235.503 171.447 235.546L171.375 236.074C171.21 236.058 171.042 236.045 170.871 236.034C170.706 236.023 170.546 236.018 170.391 236.018C170.236 236.013 170.09 236.01 169.951 236.01C169.652 236.01 169.399 236.039 169.191 236.098C168.988 236.151 168.826 236.258 168.703 236.418C168.58 236.578 168.49 236.807 168.431 237.106C168.378 237.405 168.351 237.794 168.351 238.274C168.351 238.818 168.388 239.253 168.463 239.578C168.538 239.898 168.663 240.13 168.839 240.274C169.015 240.418 169.25 240.49 169.543 240.49C169.746 240.49 169.93 240.461 170.095 240.402C170.266 240.343 170.423 240.269 170.567 240.178C170.716 240.082 170.86 239.983 170.999 239.882L171.095 240.314C170.999 240.426 170.866 240.543 170.695 240.666C170.53 240.789 170.335 240.893 170.111 240.978C169.887 241.063 169.634 241.106 169.351 241.106C168.94 241.106 168.604 241.005 168.343 240.802C168.087 240.594 167.9 240.279 167.783 239.858C167.666 239.431 167.607 238.887 167.607 238.226C167.607 237.495 167.679 236.925 167.823 236.514C167.972 236.098 168.215 235.805 168.551 235.634C168.892 235.463 169.346 235.378 169.911 235.378ZM171.591 237.81V241.002H171.079L170.967 240.186L170.903 240.026V237.81H171.591ZM174.294 235.482V239.882C174.294 240.063 174.337 240.197 174.422 240.282C174.513 240.367 174.649 240.41 174.83 240.41H176.822L176.854 240.954C176.508 240.981 176.153 240.997 175.79 241.002C175.433 241.007 175.076 241.01 174.718 241.01C174.313 241.01 174.025 240.911 173.854 240.714C173.684 240.517 173.598 240.269 173.598 239.97V235.482H174.294ZM180.358 235.378C180.758 235.378 181.097 235.426 181.374 235.522C181.657 235.618 181.881 235.778 182.046 236.002C182.217 236.221 182.34 236.514 182.414 236.882C182.494 237.25 182.534 237.703 182.534 238.242C182.534 238.781 182.494 239.234 182.414 239.602C182.34 239.97 182.217 240.266 182.046 240.49C181.881 240.709 181.657 240.866 181.374 240.962C181.097 241.058 180.758 241.106 180.358 241.106C179.958 241.106 179.617 241.058 179.334 240.962C179.057 240.866 178.833 240.709 178.662 240.49C178.492 240.266 178.366 239.97 178.286 239.602C178.212 239.234 178.174 238.781 178.174 238.242C178.174 237.703 178.212 237.25 178.286 236.882C178.366 236.514 178.492 236.221 178.662 236.002C178.833 235.778 179.057 235.618 179.334 235.522C179.617 235.426 179.958 235.378 180.358 235.378ZM180.358 236.01C179.996 236.01 179.708 236.079 179.494 236.218C179.286 236.357 179.137 236.589 179.046 236.914C178.961 237.234 178.918 237.677 178.918 238.242C178.918 238.802 178.961 239.245 179.046 239.57C179.137 239.895 179.286 240.127 179.494 240.266C179.708 240.405 179.996 240.474 180.358 240.474C180.721 240.474 181.006 240.405 181.214 240.266C181.428 240.127 181.577 239.895 181.662 239.57C181.753 239.245 181.798 238.802 181.798 238.242C181.798 237.677 181.753 237.234 181.662 236.914C181.577 236.589 181.428 236.357 181.214 236.218C181.006 236.079 180.721 236.01 180.358 236.01ZM186.302 235.418C186.755 235.418 187.115 235.461 187.382 235.546C187.648 235.626 187.84 235.77 187.958 235.978C188.08 236.186 188.142 236.479 188.142 236.858C188.142 237.253 188.067 237.554 187.918 237.762C187.774 237.97 187.536 238.09 187.206 238.122V238.154C187.616 238.191 187.902 238.335 188.062 238.586C188.227 238.837 188.31 239.183 188.31 239.626C188.31 240.005 188.251 240.298 188.134 240.506C188.016 240.714 187.827 240.861 187.566 240.946C187.31 241.026 186.971 241.066 186.55 241.066C186.235 241.066 185.963 241.063 185.734 241.058C185.51 241.058 185.302 241.053 185.11 241.042C184.918 241.031 184.718 241.018 184.51 241.002L184.622 240.442C184.739 240.447 184.96 240.453 185.286 240.458C185.616 240.463 186 240.466 186.438 240.466C186.731 240.466 186.96 240.442 187.126 240.394C187.296 240.341 187.416 240.245 187.486 240.106C187.56 239.967 187.598 239.767 187.598 239.506C187.598 239.218 187.56 238.997 187.486 238.842C187.411 238.687 187.286 238.578 187.11 238.514C186.934 238.45 186.694 238.415 186.39 238.41H184.614V237.874H186.382C186.648 237.869 186.859 237.842 187.014 237.794C187.174 237.741 187.288 237.647 187.358 237.514C187.427 237.375 187.462 237.183 187.462 236.938C187.462 236.687 187.424 236.495 187.35 236.362C187.275 236.229 187.15 236.138 186.974 236.09C186.803 236.042 186.568 236.018 186.27 236.018C186.008 236.018 185.774 236.018 185.566 236.018C185.358 236.018 185.174 236.021 185.014 236.026C184.859 236.026 184.728 236.031 184.622 236.042L184.51 235.482C184.696 235.461 184.872 235.447 185.038 235.442C185.208 235.431 185.392 235.426 185.59 235.426C185.792 235.421 186.03 235.418 186.302 235.418ZM185.198 235.482V241.002H184.51V235.482H185.198ZM192.414 235.482C192.478 235.482 192.534 235.501 192.582 235.538C192.63 235.57 192.662 235.615 192.678 235.674L194.454 241.002H193.726L192.294 236.474C192.273 236.399 192.249 236.325 192.222 236.25C192.201 236.17 192.18 236.095 192.158 236.026H191.934C191.913 236.095 191.892 236.17 191.87 236.25C191.849 236.325 191.825 236.399 191.798 236.474L190.366 241.002H189.638L191.414 235.674C191.43 235.615 191.462 235.57 191.51 235.538C191.558 235.501 191.614 235.482 191.678 235.482H192.414ZM193.438 238.666V239.274H190.638V238.666H193.438ZM196.694 235.482V239.882C196.694 240.063 196.737 240.197 196.822 240.282C196.913 240.367 197.049 240.41 197.23 240.41H199.222L199.254 240.954C198.908 240.981 198.553 240.997 198.19 241.002C197.833 241.007 197.476 241.01 197.118 241.01C196.713 241.01 196.425 240.911 196.254 240.714C196.084 240.517 195.998 240.269 195.998 239.97V235.482H196.694ZM204.821 235.386C205.082 235.391 205.352 235.405 205.629 235.426C205.906 235.447 206.184 235.487 206.461 235.546L206.413 236.058C206.184 236.047 205.93 236.039 205.653 236.034C205.376 236.023 205.109 236.018 204.853 236.018C204.656 236.018 204.485 236.026 204.341 236.042C204.202 236.053 204.088 236.085 203.997 236.138C203.906 236.186 203.84 236.269 203.797 236.386C203.76 236.498 203.741 236.655 203.741 236.858C203.741 237.162 203.794 237.375 203.901 237.498C204.013 237.615 204.192 237.703 204.437 237.762L205.557 238.042C205.984 238.143 206.274 238.322 206.429 238.578C206.589 238.829 206.669 239.167 206.669 239.594C206.669 239.914 206.632 240.173 206.557 240.37C206.488 240.567 206.378 240.719 206.229 240.826C206.08 240.927 205.888 240.997 205.653 241.034C205.418 241.077 205.141 241.098 204.821 241.098C204.64 241.098 204.402 241.09 204.109 241.074C203.821 241.058 203.488 241.015 203.109 240.946L203.157 240.426C203.472 240.437 203.725 240.447 203.917 240.458C204.109 240.463 204.274 240.466 204.413 240.466C204.552 240.466 204.696 240.466 204.845 240.466C205.128 240.466 205.349 240.445 205.509 240.402C205.674 240.359 205.789 240.274 205.853 240.146C205.922 240.018 205.957 239.829 205.957 239.578C205.957 239.365 205.933 239.199 205.885 239.082C205.837 238.965 205.76 238.877 205.653 238.818C205.552 238.754 205.421 238.703 205.261 238.666L204.117 238.378C203.717 238.277 203.434 238.101 203.269 237.85C203.109 237.599 203.029 237.263 203.029 236.842C203.029 236.522 203.064 236.266 203.133 236.074C203.208 235.877 203.317 235.73 203.461 235.634C203.61 235.533 203.797 235.466 204.021 235.434C204.245 235.402 204.512 235.386 204.821 235.386ZM210.529 235.378C210.929 235.378 211.268 235.426 211.545 235.522C211.828 235.618 212.052 235.778 212.217 236.002C212.388 236.221 212.51 236.514 212.585 236.882C212.665 237.25 212.705 237.703 212.705 238.242C212.705 238.781 212.665 239.234 212.585 239.602C212.51 239.97 212.388 240.266 212.217 240.49C212.052 240.709 211.828 240.866 211.545 240.962C211.268 241.058 210.929 241.106 210.529 241.106C210.129 241.106 209.788 241.058 209.505 240.962C209.228 240.866 209.004 240.709 208.833 240.49C208.662 240.266 208.537 239.97 208.457 239.602C208.382 239.234 208.345 238.781 208.345 238.242C208.345 237.703 208.382 237.25 208.457 236.882C208.537 236.514 208.662 236.221 208.833 236.002C209.004 235.778 209.228 235.618 209.505 235.522C209.788 235.426 210.129 235.378 210.529 235.378ZM210.529 236.01C210.166 236.01 209.878 236.079 209.665 236.218C209.457 236.357 209.308 236.589 209.217 236.914C209.132 237.234 209.089 237.677 209.089 238.242C209.089 238.802 209.132 239.245 209.217 239.57C209.308 239.895 209.457 240.127 209.665 240.266C209.878 240.405 210.166 240.474 210.529 240.474C210.892 240.474 211.177 240.405 211.385 240.266C211.598 240.127 211.748 239.895 211.833 239.57C211.924 239.245 211.969 238.802 211.969 238.242C211.969 237.677 211.924 237.234 211.833 236.914C211.748 236.589 211.598 236.357 211.385 236.218C211.177 236.079 210.892 236.01 210.529 236.01ZM215.36 235.482V239.882C215.36 240.063 215.403 240.197 215.488 240.282C215.579 240.367 215.715 240.41 215.896 240.41H217.888L217.92 240.954C217.574 240.981 217.219 240.997 216.856 241.002C216.499 241.007 216.142 241.01 215.784 241.01C215.379 241.01 215.091 240.911 214.92 240.714C214.75 240.517 214.664 240.269 214.664 239.97V235.482H215.36ZM221.733 235.482C221.797 235.482 221.853 235.501 221.901 235.538C221.949 235.57 221.981 235.615 221.997 235.674L223.773 241.002H223.045L221.613 236.474C221.592 236.399 221.568 236.325 221.541 236.25C221.52 236.17 221.499 236.095 221.477 236.026H221.253C221.232 236.095 221.211 236.17 221.189 236.25C221.168 236.325 221.144 236.399 221.117 236.474L219.685 241.002H218.957L220.733 235.674C220.749 235.615 220.781 235.57 220.829 235.538C220.877 235.501 220.933 235.482 220.997 235.482H221.733ZM222.757 238.666V239.274H219.957V238.666H222.757ZM227.238 235.41C227.664 235.41 228.008 235.458 228.27 235.554C228.531 235.645 228.72 235.805 228.838 236.034C228.96 236.263 229.022 236.586 229.022 237.002C229.022 237.301 228.987 237.551 228.918 237.754C228.848 237.951 228.739 238.106 228.59 238.218C228.446 238.325 228.251 238.394 228.006 238.426V238.466C228.096 238.487 228.184 238.533 228.27 238.602C228.36 238.666 228.443 238.754 228.518 238.866C228.592 238.973 228.648 239.103 228.686 239.258L229.222 241.002H228.47L227.982 239.274C227.912 239.066 227.819 238.919 227.702 238.834C227.584 238.743 227.432 238.698 227.246 238.698C226.92 238.698 226.638 238.698 226.398 238.698C226.158 238.693 225.958 238.687 225.798 238.682C225.638 238.677 225.51 238.674 225.414 238.674L225.438 238.09H227.222C227.494 238.085 227.707 238.053 227.862 237.994C228.022 237.935 228.136 237.831 228.206 237.682C228.275 237.527 228.31 237.314 228.31 237.042C228.31 236.77 228.275 236.562 228.206 236.418C228.136 236.269 228.022 236.165 227.862 236.106C227.707 236.047 227.494 236.018 227.222 236.018C226.784 236.018 226.406 236.021 226.086 236.026C225.771 236.031 225.558 236.034 225.446 236.034L225.334 235.482C225.536 235.461 225.726 235.445 225.902 235.434C226.078 235.423 226.27 235.418 226.478 235.418C226.691 235.413 226.944 235.41 227.238 235.41ZM226.03 235.482V241.002H225.334V235.482H226.03ZM234.332 235.482V241.002H233.628V235.482H234.332ZM240.753 235.482V240.722C240.753 240.909 240.662 241.002 240.481 241.002H239.793C239.713 241.002 239.649 240.983 239.601 240.946C239.553 240.909 239.513 240.853 239.481 240.778L237.617 236.866C237.569 236.759 237.513 236.639 237.449 236.506C237.385 236.373 237.337 236.25 237.305 236.138H237.177C237.188 236.255 237.196 236.375 237.201 236.498C237.206 236.621 237.209 236.743 237.209 236.866V241.002H236.505V235.762C236.505 235.575 236.598 235.482 236.785 235.482H237.449C237.529 235.482 237.593 235.501 237.641 235.538C237.689 235.575 237.729 235.631 237.761 235.706L239.569 239.522C239.628 239.634 239.689 239.762 239.753 239.906C239.822 240.045 239.886 240.183 239.945 240.322H240.081C240.076 240.178 240.07 240.037 240.065 239.898C240.06 239.759 240.057 239.621 240.057 239.482V235.482H240.753ZM244.905 235.482V241.002H244.201V235.482H244.905ZM246.689 235.482V236.106H242.425V235.482H246.689ZM250.053 235.482C250.117 235.482 250.173 235.501 250.221 235.538C250.269 235.57 250.301 235.615 250.317 235.674L252.093 241.002H251.365L249.933 236.474C249.911 236.399 249.887 236.325 249.861 236.25C249.839 236.17 249.818 236.095 249.797 236.026H249.573C249.551 236.095 249.53 236.17 249.509 236.25C249.487 236.325 249.463 236.399 249.437 236.474L248.005 241.002H247.277L249.053 235.674C249.069 235.615 249.101 235.57 249.149 235.538C249.197 235.501 249.253 235.482 249.317 235.482H250.053ZM251.077 238.666V239.274H248.277V238.666H251.077ZM257.421 235.482L255.813 237.77C255.765 237.839 255.717 237.901 255.669 237.954C255.626 238.002 255.573 238.058 255.509 238.122V238.138C255.578 238.202 255.642 238.266 255.701 238.33C255.759 238.394 255.81 238.458 255.853 238.522L257.533 241.002H256.741L254.781 238.114L256.653 235.482H257.421ZM254.349 235.482V237.21C254.349 237.37 254.341 237.522 254.325 237.666C254.309 237.81 254.285 237.959 254.253 238.114C254.279 238.263 254.301 238.413 254.317 238.562C254.338 238.711 254.349 238.855 254.349 238.994V241.002H253.653V235.482H254.349ZM255.165 237.842V238.41H254.101V237.842H255.165ZM260.124 235.474C260.391 235.474 260.658 235.474 260.924 235.474C261.196 235.474 261.463 235.479 261.724 235.49C261.991 235.495 262.247 235.506 262.492 235.522L262.46 236.074H260.244C260.079 236.074 259.956 236.117 259.876 236.202C259.802 236.282 259.764 236.415 259.764 236.602V239.882C259.764 240.069 259.802 240.205 259.876 240.29C259.956 240.375 260.079 240.418 260.244 240.418H262.46L262.492 240.962C262.247 240.978 261.991 240.989 261.724 240.994C261.463 240.999 261.196 241.002 260.924 241.002C260.658 241.007 260.391 241.01 260.124 241.01C259.799 241.01 259.54 240.925 259.348 240.754C259.162 240.578 259.066 240.343 259.06 240.05V236.434C259.066 236.135 259.162 235.901 259.348 235.73C259.54 235.559 259.799 235.474 260.124 235.474ZM259.204 237.802H262.148V238.37H259.204V237.802Z" fill="#2F2F2F"/>
<g filter="url(#filter1_d_496_44981)">
<path d="M276 227.002H153C152.448 227.002 152 227.45 152 228.002C152 228.554 152.448 229.002 153 229.002H276C276.552 229.002 277 228.554 277 228.002C277 227.45 276.552 227.002 276 227.002Z" fill="#0087FF"/>
</g>
<path d="M265.384 136.77C265.389 136.509 265.403 136.239 265.424 135.962C265.445 135.685 265.485 135.407 265.544 135.13L266.056 135.178C266.045 135.407 266.037 135.661 266.032 135.938C266.021 136.215 266.016 136.482 266.016 136.738C266.016 136.935 266.024 137.106 266.04 137.25C266.051 137.389 266.083 137.503 266.136 137.594C266.184 137.685 266.267 137.751 266.384 137.794C266.496 137.831 266.653 137.85 266.856 137.85C267.16 137.85 267.373 137.797 267.496 137.69C267.613 137.578 267.701 137.399 267.76 137.154L268.04 136.034C268.141 135.607 268.32 135.317 268.576 135.162C268.827 135.002 269.165 134.922 269.592 134.922C269.912 134.922 270.171 134.959 270.368 135.034C270.565 135.103 270.717 135.213 270.824 135.362C270.925 135.511 270.995 135.703 271.032 135.938C271.075 136.173 271.096 136.45 271.096 136.77C271.096 136.951 271.088 137.189 271.072 137.482C271.056 137.77 271.013 138.103 270.944 138.482L270.424 138.434C270.435 138.119 270.445 137.866 270.456 137.674C270.461 137.482 270.464 137.317 270.464 137.178C270.464 137.039 270.464 136.895 270.464 136.746C270.464 136.463 270.443 136.242 270.4 136.082C270.357 135.917 270.272 135.802 270.144 135.738C270.016 135.669 269.827 135.634 269.576 135.634C269.363 135.634 269.197 135.658 269.08 135.706C268.963 135.754 268.875 135.831 268.816 135.938C268.752 136.039 268.701 136.17 268.664 136.33L268.376 137.474C268.275 137.874 268.099 138.157 267.848 138.322C267.597 138.482 267.261 138.562 266.84 138.562C266.52 138.562 266.264 138.527 266.072 138.458C265.875 138.383 265.728 138.274 265.632 138.13C265.531 137.981 265.464 137.794 265.432 137.57C265.4 137.346 265.384 137.079 265.384 136.77ZM265.48 131.118H271V131.822H265.48V131.118ZM267.744 128.486H268.352V131.182H267.744V128.486ZM265.48 127.87H271V128.574H265.48V127.87ZM265.48 122.318C265.48 122.254 265.499 122.198 265.536 122.15C265.568 122.102 265.613 122.07 265.672 122.054L271 120.278V121.006L266.472 122.438C266.397 122.459 266.323 122.483 266.248 122.51C266.168 122.531 266.093 122.552 266.024 122.574V122.798C266.093 122.819 266.168 122.84 266.248 122.862C266.323 122.883 266.397 122.907 266.472 122.934L271 124.366V125.094L265.672 123.318C265.613 123.302 265.568 123.27 265.536 123.222C265.499 123.174 265.48 123.118 265.48 123.054V122.318ZM268.664 121.294H269.272V124.094H268.664V121.294ZM265.408 115.533C265.408 115.139 265.456 114.805 265.552 114.533C265.648 114.256 265.805 114.035 266.024 113.869C266.243 113.699 266.533 113.576 266.896 113.501C267.259 113.421 267.707 113.381 268.24 113.381C268.773 113.381 269.221 113.421 269.584 113.501C269.947 113.576 270.237 113.699 270.456 113.869C270.675 114.035 270.832 114.256 270.928 114.533C271.024 114.805 271.072 115.139 271.072 115.533C271.072 115.912 271.064 116.264 271.048 116.589C271.037 116.909 271.021 117.213 271 117.501L270.424 117.197C270.429 116.973 270.437 116.725 270.448 116.453C270.453 116.176 270.456 115.869 270.456 115.533C270.456 115.181 270.389 114.901 270.256 114.693C270.117 114.485 269.888 114.339 269.568 114.253C269.243 114.163 268.8 114.117 268.24 114.117C267.68 114.117 267.24 114.163 266.92 114.253C266.595 114.339 266.363 114.485 266.224 114.693C266.085 114.901 266.016 115.181 266.016 115.533C266.016 115.864 266.019 116.163 266.024 116.429C266.029 116.691 266.035 116.947 266.04 117.197L265.48 117.501C265.459 117.213 265.443 116.909 265.432 116.589C265.416 116.264 265.408 115.912 265.408 115.533ZM265.48 116.797H271V117.501H265.48V116.797ZM265.48 109.485H271V110.189H265.48V109.485ZM265.48 101.847H270.72C270.907 101.847 271 101.938 271 102.119V102.807C271 102.887 270.981 102.951 270.944 102.999C270.907 103.047 270.851 103.087 270.776 103.119L266.864 104.983C266.757 105.031 266.637 105.087 266.504 105.151C266.371 105.215 266.248 105.263 266.136 105.295V105.423C266.253 105.412 266.373 105.404 266.496 105.399C266.619 105.394 266.741 105.391 266.864 105.391H271V106.095H265.76C265.573 106.095 265.48 106.002 265.48 105.815V105.151C265.48 105.071 265.499 105.007 265.536 104.959C265.573 104.911 265.629 104.871 265.704 104.839L269.52 103.031C269.632 102.972 269.76 102.911 269.904 102.847C270.043 102.778 270.181 102.714 270.32 102.655V102.519C270.176 102.524 270.035 102.53 269.896 102.535C269.757 102.54 269.619 102.543 269.48 102.543H265.48V101.847ZM265.376 96.3504C265.376 96.1637 265.381 95.9824 265.392 95.8064C265.403 95.6304 265.421 95.4597 265.448 95.2944C265.469 95.1291 265.501 94.9691 265.544 94.8144L266.072 94.8864C266.056 95.0517 266.043 95.2197 266.032 95.3904C266.021 95.5557 266.016 95.7157 266.016 95.8704C266.011 96.0251 266.008 96.1717 266.008 96.3104C266.008 96.6091 266.037 96.8624 266.096 97.0704C266.149 97.2731 266.256 97.4357 266.416 97.5584C266.576 97.6811 266.805 97.7717 267.104 97.8304C267.403 97.8837 267.792 97.9104 268.272 97.9104C268.816 97.9104 269.251 97.8731 269.576 97.7984C269.896 97.7237 270.128 97.5984 270.272 97.4224C270.416 97.2464 270.488 97.0117 270.488 96.7184C270.488 96.5157 270.459 96.3317 270.4 96.1664C270.341 95.9957 270.267 95.8384 270.176 95.6944C270.08 95.5451 269.981 95.4011 269.88 95.2624L270.312 95.1664C270.424 95.2624 270.541 95.3957 270.664 95.5664C270.787 95.7317 270.891 95.9264 270.976 96.1504C271.061 96.3744 271.104 96.6277 271.104 96.9104C271.104 97.3211 271.003 97.6571 270.8 97.9184C270.592 98.1744 270.277 98.3611 269.856 98.4784C269.429 98.5957 268.885 98.6544 268.224 98.6544C267.493 98.6544 266.923 98.5824 266.512 98.4384C266.096 98.2891 265.803 98.0464 265.632 97.7104C265.461 97.3691 265.376 96.9157 265.376 96.3504ZM267.808 94.6704H271V95.1824L270.184 95.2944L270.024 95.3584H267.808V94.6704ZM265.408 85.7537C265.408 85.311 265.459 84.9617 265.56 84.7057C265.661 84.4444 265.837 84.2577 266.088 84.1457C266.333 84.0337 266.683 83.9777 267.136 83.9777C267.589 83.9777 267.941 84.0337 268.192 84.1457C268.443 84.2524 268.619 84.431 268.72 84.6817C268.816 84.927 268.864 85.2577 268.864 85.6737C268.864 85.8977 268.859 86.1137 268.848 86.3217C268.837 86.5244 268.824 86.711 268.808 86.8817C268.787 87.0524 268.765 87.199 268.744 87.3217C268.723 87.439 268.704 87.5217 268.688 87.5697L268.256 87.5457C268.256 87.263 268.256 86.9697 268.256 86.6657C268.256 86.3617 268.256 86.0604 268.256 85.7617C268.251 85.495 268.219 85.2844 268.16 85.1297C268.096 84.9697 267.984 84.8577 267.824 84.7937C267.659 84.7244 267.429 84.6897 267.136 84.6897C266.837 84.6897 266.608 84.7244 266.448 84.7937C266.288 84.8577 266.176 84.9697 266.112 85.1297C266.048 85.2844 266.016 85.495 266.016 85.7617C266.016 86.199 266.019 86.5777 266.024 86.8977C266.029 87.2124 266.037 87.4257 266.048 87.5377L265.48 87.6497C265.459 87.447 265.443 87.2577 265.432 87.0817C265.421 86.9057 265.416 86.7137 265.416 86.5057C265.411 86.2977 265.408 86.047 265.408 85.7537ZM265.48 86.9457H271V87.6497H265.48V86.9457ZM265.376 78.955C265.376 78.555 265.424 78.2163 265.52 77.939C265.616 77.6563 265.776 77.4323 266 77.267C266.219 77.0963 266.512 76.9736 266.88 76.899C267.248 76.819 267.701 76.779 268.24 76.779C268.779 76.779 269.232 76.819 269.6 76.899C269.968 76.9736 270.264 77.0963 270.488 77.267C270.707 77.4323 270.864 77.6563 270.96 77.939C271.056 78.2163 271.104 78.555 271.104 78.955C271.104 79.355 271.056 79.6963 270.96 79.979C270.864 80.2563 270.707 80.4803 270.488 80.651C270.264 80.8216 269.968 80.947 269.6 81.027C269.232 81.1016 268.779 81.139 268.24 81.139C267.701 81.139 267.248 81.1016 266.88 81.027C266.512 80.947 266.219 80.8216 266 80.651C265.776 80.4803 265.616 80.2563 265.52 79.979C265.424 79.6963 265.376 79.355 265.376 78.955ZM266.008 78.955C266.008 79.3176 266.077 79.6056 266.216 79.819C266.355 80.027 266.587 80.1763 266.912 80.267C267.232 80.3523 267.675 80.395 268.24 80.395C268.8 80.395 269.243 80.3523 269.568 80.267C269.893 80.1763 270.125 80.027 270.264 79.819C270.403 79.6056 270.472 79.3176 270.472 78.955C270.472 78.5923 270.403 78.307 270.264 78.099C270.125 77.8856 269.893 77.7363 269.568 77.651C269.243 77.5603 268.8 77.515 268.24 77.515C267.675 77.515 267.232 77.5603 266.912 77.651C266.587 77.7363 266.355 77.8856 266.216 78.099C266.077 78.307 266.008 78.5923 266.008 78.955ZM265.384 72.0512C265.389 71.7899 265.403 71.5205 265.424 71.2432C265.445 70.9659 265.485 70.6885 265.544 70.4112L266.056 70.4592C266.045 70.6885 266.037 70.9419 266.032 71.2192C266.021 71.4965 266.016 71.7632 266.016 72.0192C266.016 72.2165 266.024 72.3872 266.04 72.5312C266.051 72.6699 266.083 72.7845 266.136 72.8752C266.184 72.9659 266.267 73.0325 266.384 73.0752C266.496 73.1125 266.653 73.1312 266.856 73.1312C267.16 73.1312 267.373 73.0779 267.496 72.9712C267.613 72.8592 267.701 72.6805 267.76 72.4352L268.04 71.3152C268.141 70.8885 268.32 70.5979 268.576 70.4432C268.827 70.2832 269.165 70.2032 269.592 70.2032C269.912 70.2032 270.171 70.2405 270.368 70.3152C270.565 70.3845 270.717 70.4939 270.824 70.6432C270.925 70.7925 270.995 70.9845 271.032 71.2192C271.075 71.4539 271.096 71.7312 271.096 72.0512C271.096 72.2325 271.088 72.4699 271.072 72.7632C271.056 73.0512 271.013 73.3845 270.944 73.7632L270.424 73.7152C270.435 73.4005 270.445 73.1472 270.456 72.9552C270.461 72.7632 270.464 72.5979 270.464 72.4592C270.464 72.3205 270.464 72.1765 270.464 72.0272C270.464 71.7445 270.443 71.5232 270.4 71.3632C270.357 71.1979 270.272 71.0832 270.144 71.0192C270.016 70.9499 269.827 70.9152 269.576 70.9152C269.363 70.9152 269.197 70.9392 269.08 70.9872C268.963 71.0352 268.875 71.1125 268.816 71.2192C268.752 71.3205 268.701 71.4512 268.664 71.6112L268.376 72.7552C268.275 73.1552 268.099 73.4379 267.848 73.6032C267.597 73.7632 267.261 73.8432 266.84 73.8432C266.52 73.8432 266.264 73.8085 266.072 73.7392C265.875 73.6645 265.728 73.5552 265.632 73.4112C265.531 73.2619 265.464 73.0752 265.432 72.8512C265.4 72.6272 265.384 72.3605 265.384 72.0512ZM265.48 66.3988H271V67.1028H265.48V66.3988ZM265.48 61.0331H271V61.7371H265.48V61.0331ZM265.48 59.2491H266.104V63.5131H265.48V59.2491ZM265.48 55.6566H271V56.3606H265.48V55.6566ZM265.376 50.2909C265.376 49.8909 265.424 49.5522 265.52 49.2749C265.616 48.9922 265.776 48.7682 266 48.6029C266.219 48.4322 266.512 48.3096 266.88 48.2349C267.248 48.1549 267.701 48.1149 268.24 48.1149C268.779 48.1149 269.232 48.1549 269.6 48.2349C269.968 48.3096 270.264 48.4322 270.488 48.6029C270.707 48.7682 270.864 48.9922 270.96 49.2749C271.056 49.5522 271.104 49.8909 271.104 50.2909C271.104 50.6909 271.056 51.0322 270.96 51.3149C270.864 51.5922 270.707 51.8162 270.488 51.9869C270.264 52.1576 269.968 52.2829 269.6 52.3629C269.232 52.4376 268.779 52.4749 268.24 52.4749C267.701 52.4749 267.248 52.4376 266.88 52.3629C266.512 52.2829 266.219 52.1576 266 51.9869C265.776 51.8162 265.616 51.5922 265.52 51.3149C265.424 51.0322 265.376 50.6909 265.376 50.2909ZM266.008 50.2909C266.008 50.6536 266.077 50.9416 266.216 51.1549C266.355 51.3629 266.587 51.5122 266.912 51.6029C267.232 51.6882 267.675 51.7309 268.24 51.7309C268.8 51.7309 269.243 51.6882 269.568 51.6029C269.893 51.5122 270.125 51.3629 270.264 51.1549C270.403 50.9416 270.472 50.6536 270.472 50.2909C270.472 49.9282 270.403 49.6429 270.264 49.4349C270.125 49.2216 269.893 49.0722 269.568 48.9869C269.243 48.8962 268.8 48.8509 268.24 48.8509C267.675 48.8509 267.232 48.8962 266.912 48.9869C266.587 49.0722 266.355 49.2216 266.216 49.4349C266.077 49.6429 266.008 49.9282 266.008 50.2909ZM265.48 40.6751H270.72C270.907 40.6751 271 40.7658 271 40.9471V41.6351C271 41.7151 270.981 41.7791 270.944 41.8271C270.907 41.8751 270.851 41.9151 270.776 41.9471L266.864 43.8111C266.757 43.8591 266.637 43.9151 266.504 43.9791C266.371 44.0431 266.248 44.0911 266.136 44.1231V44.2511C266.253 44.2405 266.373 44.2325 266.496 44.2271C266.619 44.2218 266.741 44.2191 266.864 44.2191H271V44.9231H265.76C265.573 44.9231 265.48 44.8298 265.48 44.6431V43.9791C265.48 43.8991 265.499 43.8351 265.536 43.7871C265.573 43.7391 265.629 43.6991 265.704 43.6671L269.52 41.8591C269.632 41.8005 269.76 41.7391 269.904 41.6751C270.043 41.6058 270.181 41.5418 270.32 41.4831V41.3471C270.176 41.3525 270.035 41.3578 269.896 41.3631C269.757 41.3685 269.619 41.3711 269.48 41.3711H265.48V40.6751Z" fill="#2F2F2F"/>
<defs>
<filter id="filter0_d_496_44981" x="12.9078" y="222.052" width="141.754" height="18.7537" filterUnits="userSpaceOnUse" color-interpolation-filters="sRGB">
<feFlood flood-opacity="0" result="BackgroundImageFix"/>
<feColorMatrix in="SourceAlpha" type="matrix" values="0 0 0 0 0 0 0 0 0 0 0 0 0 0 0 0 0 0 127 0" result="hardAlpha"/>
<feOffset dx="2.28459" dy="3.42689"/>
<feGaussianBlur stdDeviation="4.18842"/>
<feComposite in2="hardAlpha" operator="out"/>
<feColorMatrix type="matrix" values="0 0 0 0 0 0 0 0 0 0.529412 0 0 0 0 1 0 0 0 0.15 0"/>
<feBlend mode="normal" in2="BackgroundImageFix" result="effect1_dropShadow_496_44981"/>
<feBlend mode="normal" in="SourceGraphic" in2="effect1_dropShadow_496_44981" result="shape"/>
</filter>
<filter id="filter1_d_496_44981" x="145.908" y="222.052" width="141.754" height="18.7537" filterUnits="userSpaceOnUse" color-interpolation-filters="sRGB">
<feFlood flood-opacity="0" result="BackgroundImageFix"/>
<feColorMatrix in="SourceAlpha" type="matrix" values="0 0 0 0 0 0 0 0 0 0 0 0 0 0 0 0 0 0 127 0" result="hardAlpha"/>
<feOffset dx="2.28459" dy="3.42689"/>
<feGaussianBlur stdDeviation="4.18842"/>
<feComposite in2="hardAlpha" operator="out"/>
<feColorMatrix type="matrix" values="0 0 0 0 0 0 0 0 0 0.529412 0 0 0 0 1 0 0 0 0.15 0"/>
<feBlend mode="normal" in2="BackgroundImageFix" result="effect1_dropShadow_496_44981"/>
<feBlend mode="normal" in="SourceGraphic" in2="effect1_dropShadow_496_44981" result="shape"/>
</filter>
</defs>
</svg>
