<svg width="143" height="242" viewBox="0 0 143 242" fill="none" xmlns="http://www.w3.org/2000/svg">
<g opacity="0.1">
<path d="M142.606 231.657C142.649 231.673 142.688 231.7 142.717 231.736C142.747 231.771 142.767 231.814 142.774 231.86C142.837 232.176 142.8 232.505 142.668 232.799C142.602 232.93 142.527 232.992 142.458 232.988L136.715 232.885L131.212 232.789L125.74 232.693L124.458 232.668L120.358 232.596L118.958 232.572L114.973 232.5L113.628 232.476L109.46 232.404L108.146 232.379L103.936 232.304L102.434 232.276L98.3548 232.204H97.6463C97.4952 232.834 97.2761 233.445 96.9928 234.028C96.5148 234.977 95.9611 235.438 95.4865 235.404L94.4548 235.363C94.3338 235.355 94.2162 235.319 94.1109 235.259C93.7423 234.988 93.4806 234.596 93.3715 234.151C93.2733 234.316 93.1377 234.454 92.9757 234.556C92.8137 234.658 92.63 234.719 92.4395 234.736L89.193 234.609C87.5181 239.024 84.2682 242.069 80.8841 241.934C79.9989 241.902 79.1354 241.651 78.3701 241.205C75.7323 239.681 74.0402 235.927 74.0918 231.423L73.6344 231.444C73.529 231.798 73.3944 232.143 73.2321 232.476C72.8331 233.264 72.3895 233.646 71.9871 233.628L71.1308 233.594C71.0313 233.591 70.9344 233.562 70.8487 233.511C70.6286 233.511 70.5049 233.57 70.3673 233.563L69.5109 233.532C69.4074 233.528 69.3068 233.497 69.2186 233.443C68.9366 233.284 68.6959 232.899 68.5308 232.29C68.4816 232.1 68.4425 231.907 68.4139 231.712L25.6864 232.262C25.0226 233.591 24.3107 234.206 23.6607 234.182L17.2502 233.931C17.085 233.924 16.9241 233.876 16.7825 233.79C16.3354 233.532 15.9468 232.913 15.6889 231.936C15.001 229.341 15.4584 225.199 16.7206 222.68C17.3568 221.421 18.0756 220.805 18.7222 220.832L25.1258 221.087C25.2919 221.095 25.4536 221.144 25.597 221.228C26.044 221.486 26.4327 222.105 26.6906 223.076L68.9263 227.074C69.0019 226.878 69.0845 226.688 69.1704 226.513C69.5694 225.728 70.0165 225.343 70.4188 225.36L71.2615 225.395C71.3671 225.396 71.4704 225.426 71.5607 225.481C71.7189 225.454 71.8785 225.436 72.0387 225.426L72.8813 225.457C72.9887 225.46 73.0938 225.49 73.1873 225.543C73.5539 225.828 73.7996 226.241 73.8752 226.699C73.9649 227.037 74.0224 227.382 74.0471 227.731L74.4942 227.79C75.7323 222.04 79.5497 217.749 83.5563 217.908C84.4404 217.94 85.3029 218.191 86.0668 218.637C88.1784 219.855 89.6848 222.505 90.1731 225.825L93.423 225.952C93.5324 225.959 93.6385 225.992 93.7326 226.048C93.9421 226.187 94.1089 226.381 94.2141 226.609C94.6543 225.852 95.1323 225.481 95.569 225.498L96.6008 225.539C96.7222 225.547 96.8401 225.584 96.9447 225.646C97.2886 225.842 97.5741 226.307 97.7701 227.039C97.9233 227.647 98.003 228.271 98.0074 228.897L98.7296 228.942L104.057 229.286L107.957 229.527L109.81 229.637L113.937 229.899L115.285 229.978L119.192 230.226L120.661 230.308L124.612 230.563L126.033 230.638L131.109 230.962L136.408 231.306L136.883 231.337L142.606 231.657Z" fill="#2F2F2F"/>
</g>
<path d="M23.607 229.747V217.955H23.356C22.9023 217.029 22.1633 216.273 21.2478 215.798C18.1182 213.988 13.0352 213.988 9.89875 215.798C8.98216 216.27 8.24356 217.027 7.79402 217.955H7.54297V229.747C7.54297 230.937 8.33052 232.124 9.89875 233.029C13.0283 234.839 18.1113 234.839 21.2478 233.029C22.8229 232.128 23.607 230.937 23.607 229.747Z" fill="url(#paint0_linear_2088_19912)"/>
<path d="M21.2463 221.231C18.1167 223.041 13.0337 223.041 9.89727 221.231C6.76081 219.421 6.76081 216.486 9.89727 214.676C13.0337 212.866 18.1099 212.863 21.2463 214.676C24.3828 216.49 24.3862 219.425 21.2463 221.231Z" fill="url(#paint1_linear_2088_19912)"/>
<path d="M21.2746 217.811L18.3411 134.349H12.8075L9.88086 217.811C9.88086 218.651 10.4345 219.494 11.5454 220.137C13.7705 221.42 17.3918 221.42 19.6066 220.137C20.7175 219.494 21.2746 218.651 21.2746 217.811Z" fill="white"/>
<path d="M20.584 134.067V132.491H20.4292C20.1474 131.914 19.6866 131.443 19.1155 131.149C17.1621 130.017 13.9947 130.017 12.0344 131.149C11.4642 131.443 11.0044 131.914 10.7241 132.491H10.5693V134.067C10.5693 134.81 11.0611 135.55 12.0344 136.131C13.9947 137.26 17.1621 137.26 19.1155 136.131C20.0991 135.55 20.584 134.81 20.584 134.067Z" fill="url(#paint2_linear_2088_19912)"/>
<path d="M19.1145 134.538C17.1611 135.666 13.9937 135.666 12.0334 134.538C10.0731 133.409 10.0765 131.575 12.0334 130.447C13.9902 129.318 17.1611 129.315 19.1145 130.447C21.0679 131.579 21.0713 133.409 19.1145 134.538Z" fill="url(#paint3_linear_2088_19912)"/>
<path d="M20.584 131.087V129.511H20.4292C20.1464 128.935 19.6858 128.464 19.1155 128.169C17.1621 127.037 13.9947 127.037 12.0344 128.169C11.4649 128.464 11.0055 128.935 10.7241 129.511H10.5693V131.087C10.5693 131.827 11.0611 132.57 12.0344 133.152C13.9947 134.284 17.1621 134.284 19.1155 133.152C20.0991 132.57 20.584 131.827 20.584 131.087Z" fill="url(#paint4_linear_2088_19912)"/>
<path d="M19.1145 131.558C17.1611 132.687 13.9937 132.687 12.0334 131.558C10.0731 130.43 10.0765 128.596 12.0334 127.467C13.9902 126.339 17.1611 126.339 19.1145 127.467C21.0679 128.596 21.0713 130.43 19.1145 131.558Z" fill="url(#paint5_linear_2088_19912)"/>
<path d="M18.0013 129.439L17.3135 117.304H13.8743L13.1865 129.439C13.2077 129.654 13.285 129.858 13.4106 130.033C13.5362 130.207 13.7056 130.346 13.9018 130.434C14.435 130.704 15.024 130.844 15.6214 130.844C16.2188 130.844 16.8078 130.704 17.341 130.434C17.5269 130.338 17.6852 130.197 17.8008 130.023C17.9164 129.849 17.9854 129.648 18.0013 129.439Z" fill="white"/>
<path d="M30.3026 111.544C30.2436 115.413 28.6658 119.104 25.9102 121.819C23.1546 124.534 19.4422 126.056 15.5746 126.056C11.7071 126.056 7.99466 124.534 5.23906 121.819C2.48345 119.104 0.905775 115.413 0.84668 111.544H30.3026Z" fill="url(#paint6_linear_2088_19912)"/>
<path d="M0.850586 111.485C0.909681 107.616 2.48736 103.925 5.24296 101.21C7.99857 98.495 11.711 96.9731 15.5785 96.9731C19.4461 96.9731 23.1585 98.495 25.9141 101.21C28.6697 103.925 30.2474 107.616 30.3065 111.485C30.3065 111.485 28.4907 119.846 15.202 119.846C1.91326 119.846 0.850586 111.485 0.850586 111.485Z" fill="url(#paint7_linear_2088_19912)"/>
<path d="M11.498 108.494C10.597 110.352 8.44756 111.168 6.68329 110.321C4.91903 109.475 4.24153 107.28 5.13569 105.422C6.02986 103.564 8.18274 102.748 9.95045 103.598C11.7181 104.448 12.3922 106.64 11.498 108.494Z" fill="url(#paint8_linear_2088_19912)"/>
<path d="M8.89809 106.568C8.74667 106.84 8.51908 107.061 8.24343 107.204C7.96779 107.347 7.65621 107.407 7.34722 107.375C7.03822 107.343 6.74537 107.221 6.5049 107.024C6.26443 106.827 6.08686 106.564 5.9942 106.268C5.90154 105.971 5.89783 105.654 5.98354 105.355C6.06924 105.056 6.24059 104.789 6.4764 104.587C6.71221 104.385 7.00215 104.256 7.31031 104.217C7.61848 104.177 7.93135 104.229 8.21027 104.366C8.59277 104.568 8.87996 104.912 9.00888 105.325C9.1378 105.738 9.09794 106.185 8.89809 106.568Z" fill="url(#paint9_linear_2088_19912)"/>
<path d="M19.8552 102.546C17.4925 103.922 13.6648 103.922 11.2987 102.546C8.93257 101.17 8.93601 98.9709 11.2987 97.6084C13.6613 96.2458 17.4891 96.2321 19.8552 97.6084C22.2213 98.9847 22.2179 101.18 19.8552 102.546Z" fill="white"/>
<path d="M20.9652 99.7208V91.8071H20.7967C20.496 91.1861 20.0025 90.6792 19.3901 90.362C17.2819 89.144 13.8669 89.144 11.7656 90.362C11.1514 90.678 10.6565 91.1852 10.3555 91.8071H10.1836V99.7208C10.1836 100.516 10.7166 101.31 11.7656 101.919C13.8669 103.134 17.2681 103.134 19.3901 101.919C20.439 101.31 20.9652 100.516 20.9652 99.7208Z" fill="url(#paint10_linear_2088_19912)"/>
<path d="M19.3892 93.999C17.2811 95.2136 13.8661 95.2136 11.7648 93.999C9.66347 92.7844 9.66003 90.8129 11.7648 89.5983C13.8695 88.3837 17.2673 88.3837 19.3892 89.5983C21.5112 90.8129 21.4871 92.7776 19.3892 93.999Z" fill="url(#paint11_linear_2088_19912)"/>
<path d="M19.7791 91.6119V87.0117H19.6656C19.4267 86.5287 19.0399 86.1345 18.5617 85.8866C16.9212 84.9369 14.2593 84.9369 12.6189 85.8866C12.1399 86.1335 11.7529 86.5279 11.5149 87.0117H11.3877V91.6119C11.3877 92.2313 11.7969 92.8541 12.6189 93.3323C14.2593 94.282 16.9212 94.282 18.5617 93.3323C19.3664 92.8541 19.7791 92.2313 19.7791 91.6119Z" fill="url(#paint12_linear_2088_19912)"/>
<path d="M18.5472 88.7282C16.9067 89.6745 14.2448 89.6745 12.6044 88.7282C10.9639 87.782 10.9639 86.244 12.6044 85.2875C14.2448 84.331 16.9067 84.3413 18.5472 85.2875C20.1876 86.2337 20.1876 87.782 18.5472 88.7282Z" fill="#566480"/>
<path d="M21.6251 87.9607V86.058H21.4394C21.0979 85.3603 20.5424 84.7901 19.854 84.4305C17.4914 83.0542 13.6636 83.0542 11.2975 84.4305C10.6084 84.7879 10.0533 85.3588 9.71549 86.058H9.52637V87.9607C9.52637 88.8519 10.1179 89.7465 11.2975 90.4312C13.6602 91.8075 17.4879 91.8075 19.854 90.4312C21.0405 89.7499 21.6251 88.8553 21.6251 87.9607Z" fill="url(#paint13_linear_2088_19912)"/>
<path d="M19.8552 88.5286C17.4925 89.9049 13.6648 89.9049 11.2987 88.5286C8.93257 87.1523 8.93601 84.9537 11.2987 83.5912C13.6613 82.2286 17.4891 82.2149 19.8552 83.5912C22.2213 84.9675 22.2179 87.1661 19.8552 88.5286Z" fill="url(#paint14_linear_2088_19912)"/>
<path d="M17.6406 85.7719L16.3956 0.472412H14.7621L13.5137 85.7719C13.5306 85.954 13.5955 86.1283 13.7019 86.277C13.8082 86.4258 13.9522 86.5435 14.119 86.6183C14.5715 86.8456 15.0708 86.964 15.5771 86.964C16.0835 86.964 16.5828 86.8456 17.0353 86.6183C17.2021 86.5435 17.346 86.4258 17.4524 86.277C17.5588 86.1283 17.6237 85.954 17.6406 85.7719Z" fill="white"/>
<path d="M13.5756 81.4402C13.5779 81.6171 13.6302 81.7898 13.7263 81.9383C13.8224 82.0869 13.9585 82.2052 14.119 82.2797C14.5709 82.5089 15.0705 82.6283 15.5771 82.6283C16.0838 82.6283 16.5834 82.5089 17.0353 82.2797C17.196 82.2055 17.3323 82.0873 17.4285 81.9387C17.5247 81.7901 17.5768 81.6172 17.5787 81.4402L17.6406 85.7721C17.6237 85.9542 17.5588 86.1285 17.4524 86.2772C17.346 86.4259 17.2021 86.5437 17.0353 86.6185C16.5828 86.8458 16.0835 86.9642 15.5771 86.9642C15.0708 86.9642 14.5715 86.8458 14.119 86.6185C13.9522 86.5437 13.8082 86.4259 13.7019 86.2772C13.5955 86.1285 13.5306 85.9542 13.5137 85.7721L13.5756 81.4402Z" fill="url(#paint15_linear_2088_19912)"/>
<path d="M13.7254 71.1636C13.725 71.3369 13.7714 71.507 13.8598 71.6561C13.9482 71.8051 14.0753 71.9274 14.2275 72.01C14.6407 72.2386 15.1052 72.3586 15.5774 72.3586C16.0496 72.3586 16.5141 72.2386 16.9273 72.01C17.0795 71.9274 17.2066 71.8051 17.295 71.6561C17.3834 71.507 17.4298 71.3369 17.4294 71.1636L17.4878 75.5024C17.4747 75.6792 17.4161 75.8497 17.3179 75.9973C17.2198 76.145 17.0852 76.2648 16.9273 76.3453C16.5141 76.574 16.0496 76.6939 15.5774 76.6939C15.1052 76.6939 14.6407 76.574 14.2275 76.3453C14.0696 76.2648 13.935 76.145 13.8368 75.9973C13.7387 75.8497 13.6802 75.6792 13.667 75.5024L13.7254 71.1636Z" fill="url(#paint16_linear_2088_19912)"/>
<path d="M13.867 60.9963C13.866 61.164 13.9078 61.3291 13.9884 61.476C14.0691 61.6229 14.1859 61.7468 14.3279 61.8359C14.7039 62.0636 15.135 62.184 15.5745 62.184C16.0141 62.184 16.4452 62.0636 16.8212 61.8359C16.9638 61.7475 17.0812 61.6238 17.1619 61.4767C17.2427 61.3296 17.284 61.1641 17.282 60.9963L17.3371 65.3317C17.3279 65.5036 17.2759 65.6704 17.1858 65.817C17.0957 65.9636 16.9703 66.0854 16.8212 66.1712C16.4452 66.3989 16.0141 66.5193 15.5745 66.5193C15.135 66.5193 14.7039 66.3989 14.3279 66.1712C14.1794 66.085 14.0547 65.963 13.9653 65.8164C13.8758 65.6698 13.8243 65.5032 13.8154 65.3317L13.867 60.9963Z" fill="url(#paint17_linear_2088_19912)"/>
<path d="M14.0149 50.873C14.0104 51.0377 14.0463 51.2009 14.1195 51.3485C14.1926 51.496 14.3008 51.6234 14.4345 51.7195C14.7729 51.9444 15.1701 52.0643 15.5763 52.0643C15.9825 52.0643 16.3797 51.9444 16.7181 51.7195C16.8518 51.6234 16.96 51.496 17.0331 51.3485C17.1063 51.2009 17.1421 51.0377 17.1376 50.873L17.1892 55.2084C17.1825 55.3765 17.1364 55.5408 17.0545 55.6878C16.9727 55.8348 16.8574 55.9605 16.7181 56.0548C16.3797 56.2797 15.9825 56.3997 15.5763 56.3997C15.1701 56.3997 14.7729 56.2797 14.4345 56.0548C14.2954 55.9606 14.1805 55.8348 14.0992 55.6877C14.018 55.5406 13.9726 55.3764 13.9668 55.2084L14.0149 50.873Z" fill="url(#paint18_linear_2088_19912)"/>
<path d="M14.1634 40.9569C14.1566 41.1172 14.1873 41.2768 14.253 41.4231C14.3186 41.5694 14.4175 41.6984 14.5417 41.7999C14.8393 42.0232 15.2014 42.144 15.5734 42.144C15.9455 42.144 16.3075 42.0232 16.6051 41.7999C16.7312 41.6995 16.832 41.571 16.8995 41.4246C16.967 41.2782 16.9993 41.118 16.9938 40.9569L17.0385 45.2922C17.035 45.456 16.9942 45.6168 16.9191 45.7623C16.844 45.9078 16.7366 46.0342 16.6051 46.1318C16.3075 46.3551 15.9455 46.4759 15.5734 46.4759C15.2014 46.4759 14.8393 46.3551 14.5417 46.1318C14.4122 46.0328 14.3067 45.9059 14.2329 45.7606C14.1591 45.6153 14.1189 45.4552 14.1152 45.2922L14.1634 40.9569Z" fill="url(#paint19_linear_2088_19912)"/>
<path d="M14.2996 31.0405C14.2917 31.1972 14.3184 31.3536 14.3779 31.4987C14.4373 31.6438 14.528 31.774 14.6435 31.8801C14.9014 32.1047 15.2318 32.2284 15.5738 32.2284C15.9157 32.2284 16.2462 32.1047 16.5041 31.8801C16.6198 31.7742 16.7106 31.644 16.77 31.4988C16.8295 31.3537 16.8561 31.1972 16.848 31.0405L16.8893 35.3724C16.8891 35.5328 16.8546 35.6913 16.7882 35.8373C16.7217 35.9833 16.6249 36.1134 16.5041 36.2188C16.2455 36.4421 15.9153 36.565 15.5738 36.565C15.2322 36.565 14.9021 36.4421 14.6435 36.2188C14.5223 36.1136 14.4248 35.9836 14.3578 35.8376C14.2908 35.6917 14.2557 35.5331 14.2549 35.3724L14.2996 31.0405Z" fill="url(#paint20_linear_2088_19912)"/>
<path d="M14.4584 21.1208C14.4476 21.2744 14.468 21.4285 14.5182 21.5739C14.5685 21.7194 14.6475 21.8532 14.7507 21.9673C14.9083 22.1404 15.116 22.2599 15.3448 22.309C15.5737 22.3581 15.8121 22.3343 16.0268 22.2409C16.2414 22.1476 16.4214 21.9894 16.5417 21.7886C16.6619 21.5877 16.7163 21.3542 16.6973 21.1208L16.7454 25.4562C16.747 25.7717 16.6233 26.0749 16.4015 26.2992C16.2941 26.41 16.1656 26.4981 16.0235 26.5583C15.8814 26.6184 15.7287 26.6494 15.5744 26.6494C15.4201 26.6494 15.2674 26.6184 15.1253 26.5583C14.9832 26.4981 14.8547 26.41 14.7473 26.2992C14.6369 26.1886 14.5496 26.057 14.4906 25.9123C14.4315 25.7676 14.4019 25.6125 14.4034 25.4562L14.4584 21.1208Z" fill="url(#paint21_linear_2088_19912)"/>
<path d="M14.607 11.0189C14.5825 11.3203 14.6693 11.6203 14.8511 11.8619C14.9381 11.9709 15.0485 12.0589 15.1741 12.1194C15.2997 12.1799 15.4374 12.2113 15.5768 12.2113C15.7162 12.2113 15.8538 12.1799 15.9794 12.1194C16.105 12.0589 16.2154 11.9709 16.3024 11.8619C16.4837 11.6199 16.5716 11.3206 16.55 11.0189L16.6051 15.3543C16.6071 15.6622 16.4999 15.961 16.3024 16.1972C16.2154 16.3062 16.105 16.3942 15.9794 16.4547C15.8538 16.5152 15.7162 16.5466 15.5768 16.5466C15.4374 16.5466 15.2997 16.5152 15.1741 16.4547C15.0485 16.3942 14.9381 16.3062 14.8511 16.1972C14.6533 15.9614 14.5471 15.6621 14.5519 15.3543L14.607 11.0189Z" fill="url(#paint22_linear_2088_19912)"/>
<path d="M14.7613 0.472412H16.3949L16.45 4.80775C16.456 5.10906 16.3656 5.40441 16.192 5.65073C16.1281 5.75688 16.0378 5.84469 15.9299 5.90564C15.8221 5.9666 15.7003 5.99863 15.5764 5.99863C15.4525 5.99863 15.3307 5.9666 15.2229 5.90564C15.115 5.84469 15.0247 5.75688 14.9608 5.65073C14.7897 5.40337 14.7007 5.10849 14.7063 4.80775L14.7613 0.472412Z" fill="url(#paint23_linear_2088_19912)"/>
<path d="M16.1551 0.80634C15.9763 0.897802 15.7782 0.945495 15.5773 0.945495C15.3764 0.945495 15.1784 0.897802 14.9996 0.80634C14.9252 0.787703 14.8592 0.744756 14.8121 0.684316C14.7649 0.623876 14.7393 0.549412 14.7393 0.472749C14.7393 0.396086 14.7649 0.321621 14.8121 0.261181C14.8592 0.200742 14.9252 0.157792 14.9996 0.139155C15.1784 0.047693 15.3764 0 15.5773 0C15.7782 0 15.9763 0.047693 16.1551 0.139155C16.2295 0.157792 16.2955 0.200742 16.3426 0.261181C16.3898 0.321621 16.4154 0.396086 16.4154 0.472749C16.4154 0.549412 16.3898 0.623876 16.3426 0.684316C16.2955 0.744756 16.2295 0.787703 16.1551 0.80634Z" fill="#CFCFCF"/>
<defs>
<linearGradient id="paint0_linear_2088_19912" x1="15.575" y1="214.44" x2="15.575" y2="234.386" gradientUnits="userSpaceOnUse">
<stop stop-color="#0107F5"/>
<stop offset="0.494792" stop-color="#0087FF"/>
<stop offset="1" stop-color="#04DEEC"/>
</linearGradient>
<linearGradient id="paint1_linear_2088_19912" x1="15.5724" y1="213.318" x2="15.5724" y2="222.588" gradientUnits="userSpaceOnUse">
<stop stop-color="#0107F5"/>
<stop offset="0.494792" stop-color="#0087FF"/>
<stop offset="1" stop-color="#04DEEC"/>
</linearGradient>
<linearGradient id="paint2_linear_2088_19912" x1="15.5767" y1="130.3" x2="15.5767" y2="136.978" gradientUnits="userSpaceOnUse">
<stop stop-color="#0107F5"/>
<stop offset="0.494792" stop-color="#0087FF"/>
<stop offset="1" stop-color="#04DEEC"/>
</linearGradient>
<linearGradient id="paint3_linear_2088_19912" x1="15.5726" y1="129.599" x2="15.5726" y2="135.384" gradientUnits="userSpaceOnUse">
<stop stop-color="#0107F5"/>
<stop offset="0.494792" stop-color="#0087FF"/>
<stop offset="1" stop-color="#04DEEC"/>
</linearGradient>
<linearGradient id="paint4_linear_2088_19912" x1="15.5767" y1="127.32" x2="15.5767" y2="134.001" gradientUnits="userSpaceOnUse">
<stop stop-color="#0107F5"/>
<stop offset="0.494792" stop-color="#0087FF"/>
<stop offset="1" stop-color="#04DEEC"/>
</linearGradient>
<linearGradient id="paint5_linear_2088_19912" x1="15.5726" y1="126.621" x2="15.5726" y2="132.405" gradientUnits="userSpaceOnUse">
<stop stop-color="#0107F5"/>
<stop offset="0.494792" stop-color="#0087FF"/>
<stop offset="1" stop-color="#04DEEC"/>
</linearGradient>
<linearGradient id="paint6_linear_2088_19912" x1="15.5747" y1="111.544" x2="15.5747" y2="126.056" gradientUnits="userSpaceOnUse">
<stop stop-color="#0107F5"/>
<stop offset="0.494792" stop-color="#0087FF"/>
<stop offset="1" stop-color="#04DEEC"/>
</linearGradient>
<linearGradient id="paint7_linear_2088_19912" x1="15.5786" y1="96.9731" x2="15.5786" y2="119.846" gradientUnits="userSpaceOnUse">
<stop stop-color="#0107F5"/>
<stop offset="0.494792" stop-color="#0087FF"/>
<stop offset="1" stop-color="#04DEEC"/>
</linearGradient>
<linearGradient id="paint8_linear_2088_19912" x1="8.31719" y1="103.262" x2="8.31719" y2="110.656" gradientUnits="userSpaceOnUse">
<stop stop-color="#0107F5"/>
<stop offset="0.494792" stop-color="#0087FF"/>
<stop offset="1" stop-color="#04DEEC"/>
</linearGradient>
<linearGradient id="paint9_linear_2088_19912" x1="7.50255" y1="104.204" x2="7.50255" y2="107.383" gradientUnits="userSpaceOnUse">
<stop stop-color="#0107F5"/>
<stop offset="0.494792" stop-color="#0087FF"/>
<stop offset="1" stop-color="#04DEEC"/>
</linearGradient>
<linearGradient id="paint10_linear_2088_19912" x1="15.5744" y1="89.4485" x2="15.5744" y2="102.83" gradientUnits="userSpaceOnUse">
<stop stop-color="#0107F5"/>
<stop offset="0.494792" stop-color="#0087FF"/>
<stop offset="1" stop-color="#04DEEC"/>
</linearGradient>
<linearGradient id="paint11_linear_2088_19912" x1="15.5796" y1="88.6874" x2="15.5796" y2="94.91" gradientUnits="userSpaceOnUse">
<stop stop-color="#0107F5"/>
<stop offset="0.494792" stop-color="#0087FF"/>
<stop offset="1" stop-color="#04DEEC"/>
</linearGradient>
<linearGradient id="paint12_linear_2088_19912" x1="15.5834" y1="85.1743" x2="15.5834" y2="94.0446" gradientUnits="userSpaceOnUse">
<stop stop-color="#0107F5"/>
<stop offset="0.494792" stop-color="#0087FF"/>
<stop offset="1" stop-color="#04DEEC"/>
</linearGradient>
<linearGradient id="paint13_linear_2088_19912" x1="15.5757" y1="83.3983" x2="15.5757" y2="91.4634" gradientUnits="userSpaceOnUse">
<stop stop-color="#0107F5"/>
<stop offset="0.494792" stop-color="#0087FF"/>
<stop offset="1" stop-color="#04DEEC"/>
</linearGradient>
<linearGradient id="paint14_linear_2088_19912" x1="15.5769" y1="82.5641" x2="15.5769" y2="89.5609" gradientUnits="userSpaceOnUse">
<stop stop-color="#0107F5"/>
<stop offset="0.494792" stop-color="#0087FF"/>
<stop offset="1" stop-color="#04DEEC"/>
</linearGradient>
<linearGradient id="paint15_linear_2088_19912" x1="13.5137" y1="84.1997" x2="17.6406" y2="84.1997" gradientUnits="userSpaceOnUse">
<stop offset="0.29" stop-color="#CC2F2F"/>
<stop offset="1" stop-color="#FF3131"/>
</linearGradient>
<linearGradient id="paint16_linear_2088_19912" x1="13.667" y1="73.9299" x2="17.4878" y2="73.9299" gradientUnits="userSpaceOnUse">
<stop offset="0.29" stop-color="#CC2F2F"/>
<stop offset="1" stop-color="#FF3131"/>
</linearGradient>
<linearGradient id="paint17_linear_2088_19912" x1="13.8154" y1="63.7593" x2="17.3371" y2="63.7593" gradientUnits="userSpaceOnUse">
<stop offset="0.29" stop-color="#CC2F2F"/>
<stop offset="1" stop-color="#FF3131"/>
</linearGradient>
<linearGradient id="paint18_linear_2088_19912" x1="13.9668" y1="53.636" x2="17.1892" y2="53.636" gradientUnits="userSpaceOnUse">
<stop offset="0.29" stop-color="#CC2F2F"/>
<stop offset="1" stop-color="#FF3131"/>
</linearGradient>
<linearGradient id="paint19_linear_2088_19912" x1="14.1118" y1="43.7198" x2="17.0419" y2="43.7198" gradientUnits="userSpaceOnUse">
<stop offset="0.29" stop-color="#CC2F2F"/>
<stop offset="1" stop-color="#FF3131"/>
</linearGradient>
<linearGradient id="paint20_linear_2088_19912" x1="14.2583" y1="33.8034" x2="16.8927" y2="33.8034" gradientUnits="userSpaceOnUse">
<stop offset="0.29" stop-color="#CC2F2F"/>
<stop offset="1" stop-color="#FF3131"/>
</linearGradient>
<linearGradient id="paint21_linear_2088_19912" x1="14.4068" y1="23.8872" x2="16.7454" y2="23.8872" gradientUnits="userSpaceOnUse">
<stop offset="0.29" stop-color="#CC2F2F"/>
<stop offset="1" stop-color="#FF3131"/>
</linearGradient>
<linearGradient id="paint22_linear_2088_19912" x1="14.5519" y1="13.7818" x2="16.6051" y2="13.7818" gradientUnits="userSpaceOnUse">
<stop offset="0.29" stop-color="#CC2F2F"/>
<stop offset="1" stop-color="#FF3131"/>
</linearGradient>
<linearGradient id="paint23_linear_2088_19912" x1="14.7063" y1="3.23533" x2="16.45" y2="3.23533" gradientUnits="userSpaceOnUse">
<stop offset="0.29" stop-color="#CC2F2F"/>
<stop offset="1" stop-color="#FF3131"/>
</linearGradient>
</defs>
</svg>
