<svg width="138" height="20" viewBox="0 0 138 20" fill="none" xmlns="http://www.w3.org/2000/svg">
<path d="M4.5347 19.1159C3.03229 19.1159 1.89633 18.7909 1.1268 18.1409C0.375601 17.4737 0 16.3875 0 14.8822V0.179614H3.38041V14.369C3.38041 15.0703 3.55447 15.5579 3.90259 15.8316C4.26903 16.1053 4.76372 16.2421 5.38667 16.2421H12.12V19.1159H4.5347Z" fill="#0087FF"/>
<path d="M20.7546 19.2442C19.4721 19.2442 18.3636 18.9791 17.4292 18.4488C16.5131 17.9185 16.055 16.8494 16.055 15.2414V4.3107C16.055 2.85669 16.4764 1.80468 17.3192 1.15465C18.1621 0.504627 19.1789 0.179614 20.3699 0.179614C22.0921 0.179614 23.5762 0.205273 24.8221 0.256591C26.068 0.307908 27.4971 0.376332 29.1095 0.461862V3.10473H21.4417C20.8004 3.10473 20.3057 3.25869 19.9576 3.56659C19.6095 3.85739 19.4354 4.30215 19.4354 4.90086V8.26218L27.8727 8.44179V10.9307L19.4354 11.1103V14.369C19.4354 15.6348 20.095 16.2678 21.4142 16.2678H29.1095V18.9106C26.8009 19.0988 24.0159 19.21 20.7546 19.2442Z" fill="#0087FF"/>
<path d="M39.0789 0.179614H43.3663L49.9622 19.1159H46.4169L44.8504 14.6256H37.5124L35.9734 19.1159H32.483L39.0789 0.179614ZM44.0259 11.7774L41.1676 2.89946L38.3094 11.7774H44.0259Z" fill="#0087FF"/>
<path d="M53.2913 4.3107C53.2913 2.85669 53.7127 1.80468 54.5555 1.15465C55.3983 0.504627 56.4152 0.179614 57.6061 0.179614C61.2156 0.179614 64.1288 0.273696 66.3457 0.461862V3.10473H58.5955C57.9909 3.10473 57.5145 3.25869 57.1664 3.56659C56.8366 3.8745 56.6717 4.3107 56.6717 4.8752V8.69838L65.109 8.87799V11.3669L56.6717 11.5465V19.1159H53.2913V4.3107Z" fill="#0087FF"/>
<path d="M74.897 3.02775H69.0706V0.179614H84.1039V3.02775H78.3049V19.1159H74.897V3.02775Z" fill="#0087FF"/>
<path d="M92.2481 19.2442C90.9655 19.2442 89.857 18.9791 88.9226 18.4488C88.0065 17.9185 87.5485 16.8494 87.5485 15.2414V4.3107C87.5485 2.85669 87.9699 1.80468 88.8127 1.15465C89.6555 0.504627 90.6724 0.179614 91.8633 0.179614C93.5856 0.179614 95.0697 0.205273 96.3156 0.256591C97.5615 0.307908 98.9906 0.376332 100.603 0.461862V3.10473H92.9351C92.2939 3.10473 91.7992 3.25869 91.4511 3.56659C91.1029 3.85739 90.9289 4.30215 90.9289 4.90086V8.26218L99.3662 8.44179V10.9307L90.9289 11.1103V14.369C90.9289 15.6348 91.5885 16.2678 92.9077 16.2678H100.603V18.9106C98.2943 19.0988 95.5094 19.21 92.2481 19.2442Z" fill="#0087FF"/>
<path d="M112.001 19.2699C110.279 19.2699 108.905 19.0218 107.879 18.5258C106.853 18.0126 106.065 17.0546 105.515 15.6519C104.984 14.2493 104.718 12.2222 104.718 9.57078C104.718 7.05621 104.993 5.10613 105.543 3.72055C106.093 2.31786 106.899 1.35137 107.961 0.821086C109.024 0.273696 110.398 0 112.084 0C113.183 0 114.283 0.0855305 115.382 0.256591C116.5 0.410545 117.452 0.59871 118.24 0.821086V3.25869C117.69 3.15605 116.903 3.06197 115.877 2.97644C114.869 2.89091 113.834 2.84814 112.771 2.84814C111.562 2.84814 110.627 3.02776 109.968 3.38698C109.326 3.7291 108.859 4.37913 108.566 5.33706C108.273 6.29499 108.126 7.72334 108.126 9.6221C108.126 11.5209 108.264 12.9492 108.539 13.9071C108.813 14.8651 109.272 15.5237 109.913 15.8829C110.554 16.2421 111.498 16.4217 112.744 16.4217C114.832 16.4217 116.664 16.3276 118.24 16.1395V18.5771C116.573 19.0389 114.493 19.2699 112.001 19.2699Z" fill="#0087FF"/>
<path d="M122.664 0.179614H126.045V8.36481H134.592V0.179614H138V19.1159H134.592V11.213H126.045V19.1159H122.664V0.179614Z" fill="#0087FF"/>
</svg>
