<svg width="101" height="16" viewBox="0 0 101 16" fill="none" xmlns="http://www.w3.org/2000/svg">
<path d="M3.31887 14.939C2.21929 14.939 1.38789 14.7011 0.82469 14.2254C0.274896 13.7371 0 12.9421 0 11.8404V1.07982H2.47407V11.4648C2.47407 11.9781 2.60146 12.3349 2.85624 12.5352C3.12444 12.7355 3.48649 12.8357 3.94242 12.8357H8.87045V14.939H3.31887Z" fill="#0087FF"/>
<path d="M15.19 15.0329C14.2513 15.0329 13.44 14.8388 12.7561 14.4507C12.0857 14.0626 11.7504 13.2801 11.7504 12.1033V4.1033C11.7504 3.03913 12.0588 2.26918 12.6757 1.79344C13.2925 1.31769 14.0368 1.07982 14.9084 1.07982C16.1689 1.07982 17.2551 1.0986 18.1669 1.13616C19.0788 1.17372 20.1247 1.2238 21.3048 1.28639V3.22067H15.6928C15.2235 3.22067 14.8614 3.33335 14.6067 3.5587C14.3519 3.77153 14.2245 4.09704 14.2245 4.53522V6.99532L20.3996 7.12678V8.94837L14.2245 9.07983V11.4648C14.2245 12.3913 14.7072 12.8545 15.6727 12.8545H21.3048V14.7888C19.6151 14.9265 17.5769 15.0079 15.19 15.0329Z" fill="#0087FF"/>
<path d="M28.6013 1.07982H31.7391L36.5666 14.939H33.9718L32.8253 11.6526H27.4547L26.3283 14.939H23.7738L28.6013 1.07982ZM32.2218 9.56809L30.1299 3.07043L28.038 9.56809H32.2218Z" fill="#0087FF"/>
<path d="M39.0031 4.1033C39.0031 3.03913 39.3115 2.26918 39.9283 1.79344C40.5452 1.31769 41.2894 1.07982 42.161 1.07982C44.8027 1.07982 46.9348 1.14868 48.5574 1.28639V3.22067H42.8851C42.4426 3.22067 42.094 3.33335 41.8392 3.5587C41.5978 3.78405 41.4771 4.1033 41.4771 4.51644V7.31457L47.6523 7.44603V9.26762L41.4771 9.39908V14.939H39.0031V4.1033Z" fill="#0087FF"/>
<path d="M54.816 3.16433H50.5517V1.07982H61.5543V3.16433H57.3102V14.939H54.816V3.16433Z" fill="#0087FF"/>
<path d="M67.5149 15.0329C66.5762 15.0329 65.765 14.8388 65.0811 14.4507C64.4106 14.0626 64.0753 13.2801 64.0753 12.1033V4.1033C64.0753 3.03913 64.3838 2.26918 65.0006 1.79344C65.6174 1.31769 66.3617 1.07982 67.2333 1.07982C68.4938 1.07982 69.58 1.0986 70.4918 1.13616C71.4037 1.17372 72.4496 1.2238 73.6297 1.28639V3.22067H68.0178C67.5484 3.22067 67.1864 3.33335 66.9316 3.5587C66.6768 3.77153 66.5494 4.09704 66.5494 4.53522V6.99532L72.7245 7.12678V8.94837L66.5494 9.07983V11.4648C66.5494 12.3913 67.0322 12.8545 67.9976 12.8545H73.6297V14.7888C71.9401 14.9265 69.9018 15.0079 67.5149 15.0329Z" fill="#0087FF"/>
<path d="M81.9721 15.0517C80.7116 15.0517 79.7059 14.8701 78.955 14.5071C78.204 14.1315 77.6274 13.4304 77.2251 12.4038C76.8363 11.3772 76.6418 9.8936 76.6418 7.95307C76.6418 6.11269 76.843 4.68546 77.2452 3.67137C77.6475 2.64477 78.2375 1.93741 79.0153 1.5493C79.7931 1.14868 80.7988 0.948364 82.0325 0.948364C82.837 0.948364 83.6416 1.01096 84.4462 1.13616C85.2642 1.24884 85.9615 1.38655 86.5381 1.5493V3.33334C86.1358 3.25823 85.5592 3.18937 84.8083 3.12677C84.0707 3.06417 83.3131 3.03288 82.5353 3.03288C81.6503 3.03288 80.9664 3.16433 80.4837 3.42724C80.0143 3.67763 79.6724 4.15338 79.4578 4.85447C79.2433 5.55557 79.136 6.60095 79.136 7.99063C79.136 9.3803 79.2366 10.4257 79.4377 11.1268C79.6389 11.8279 79.9741 12.3099 80.4434 12.5728C80.9128 12.8357 81.6034 12.9672 82.5152 12.9672C84.0439 12.9672 85.3849 12.8983 86.5381 12.7606V14.5446C85.3178 14.8827 83.7958 15.0517 81.9721 15.0517Z" fill="#0087FF"/>
<path d="M89.7762 1.07982H92.2503V7.07044H98.5058V1.07982H101V14.939H98.5058V9.15495H92.2503V14.939H89.7762V1.07982Z" fill="#0087FF"/>
</svg>
