<svg width="619" height="395" viewBox="0 0 619 395" fill="none" xmlns="http://www.w3.org/2000/svg">
<path d="M84.5889 6V345" stroke="#FAFBFC"/>
<path d="M131.589 6V345" stroke="#FAFBFC"/>
<path d="M178.589 6V345" stroke="#FAFBFC"/>
<path d="M225.589 6V345" stroke="#FAFBFC"/>
<path d="M272.589 6V345" stroke="#FAFBFC"/>
<path d="M319.589 6V345" stroke="#FAFBFC"/>
<path d="M367.589 6V345" stroke="#FAFBFC"/>
<path d="M414.589 6V345" stroke="#FAFBFC"/>
<path d="M461.589 6V345" stroke="#FAFBFC"/>
<path d="M508.589 6V345" stroke="#FAFBFC"/>
<path d="M555.589 6V345" stroke="#FAFBFC"/>
<path d="M602.589 6V345" stroke="#FAFBFC"/>
<path d="M61.0889 345.675L603 345.023" stroke="#FAFBFC"/>
<path d="M61 290H603" stroke="#FAFBFC"/>
<path d="M61 233H603" stroke="#FAFBFC"/>
<path d="M61 177H603" stroke="#FAFBFC"/>
<path d="M61 120H603" stroke="#FAFBFC"/>
<path d="M61 64H603" stroke="#FAFBFC"/>
<path d="M61 6H603" stroke="#FAFBFC"/>
<path d="M61 346H603" stroke="#FAFBFC"/>
<path d="M60.5889 6V345" stroke="#FAFBFC"/>
<path d="M61.4149 367.084L61.3429 366.256L62.0629 366.208C62.4709 366.176 62.7829 366.036 62.9989 365.788C63.2149 365.532 63.3229 365.184 63.3229 364.744V358.54H64.3069V364.756C64.3069 365.452 64.1269 365.996 63.7669 366.388C63.4069 366.772 62.8829 366.988 62.1949 367.036L61.4149 367.084ZM68.1015 367.108C67.7015 367.108 67.3415 367.032 67.0215 366.88C66.7095 366.72 66.4615 366.504 66.2775 366.232C66.0935 365.96 66.0015 365.656 66.0015 365.32C66.0015 364.896 66.1095 364.56 66.3255 364.312C66.5495 364.064 66.9135 363.888 67.4175 363.784C67.9295 363.672 68.6255 363.616 69.5055 363.616H69.8895V363.244C69.8895 362.748 69.7855 362.392 69.5775 362.176C69.3775 361.952 69.0535 361.84 68.6055 361.84C68.2535 361.84 67.9135 361.892 67.5855 361.996C67.2575 362.092 66.9215 362.252 66.5775 362.476L66.2415 361.768C66.5455 361.552 66.9135 361.38 67.3455 361.252C67.7855 361.124 68.2055 361.06 68.6055 361.06C69.3575 361.06 69.9135 361.244 70.2735 361.612C70.6415 361.98 70.8255 362.552 70.8255 363.328V367H69.9135V365.992C69.7615 366.336 69.5255 366.608 69.2055 366.808C68.8935 367.008 68.5255 367.108 68.1015 367.108ZM68.2575 366.376C68.7375 366.376 69.1295 366.212 69.4335 365.884C69.7375 365.548 69.8895 365.124 69.8895 364.612V364.252H69.5175C68.8695 364.252 68.3575 364.284 67.9815 364.348C67.6135 364.404 67.3535 364.508 67.2015 364.66C67.0575 364.804 66.9855 365.004 66.9855 365.26C66.9855 365.588 67.0975 365.856 67.3215 366.064C67.5535 366.272 67.8655 366.376 68.2575 366.376ZM72.6288 367V361.168H73.5768V362.164C73.7688 361.796 74.0408 361.52 74.3928 361.336C74.7448 361.152 75.1408 361.06 75.5808 361.06C76.9648 361.06 77.6568 361.828 77.6568 363.364V367H76.6848V363.424C76.6848 362.88 76.5768 362.484 76.3608 362.236C76.1528 361.98 75.8168 361.852 75.3528 361.852C74.8168 361.852 74.3888 362.02 74.0688 362.356C73.7568 362.684 73.6008 363.124 73.6008 363.676V367H72.6288Z" fill="#2F2F2F"/>
<path d="M106.177 367V358.54H111.409V359.368H107.161V362.32H111.169V363.148H107.161V367H106.177ZM115.024 367.108C114.104 367.108 113.376 366.84 112.84 366.304C112.304 365.76 112.036 365.024 112.036 364.096C112.036 363.496 112.156 362.968 112.396 362.512C112.636 362.048 112.964 361.692 113.38 361.444C113.804 361.188 114.292 361.06 114.844 361.06C115.636 361.06 116.256 361.316 116.704 361.828C117.152 362.332 117.376 363.028 117.376 363.916V364.288H112.984C113.016 364.952 113.208 365.46 113.56 365.812C113.912 366.156 114.4 366.328 115.024 366.328C115.376 366.328 115.712 366.276 116.032 366.172C116.352 366.06 116.656 365.88 116.944 365.632L117.28 366.316C117.016 366.564 116.68 366.76 116.272 366.904C115.864 367.04 115.448 367.108 115.024 367.108ZM114.868 361.78C114.316 361.78 113.88 361.952 113.56 362.296C113.24 362.64 113.052 363.092 112.996 363.652H116.536C116.512 363.06 116.356 362.6 116.068 362.272C115.788 361.944 115.388 361.78 114.868 361.78ZM121.735 367.108C121.271 367.108 120.863 367.004 120.511 366.796C120.167 366.588 119.907 366.304 119.731 365.944V367H118.783V358.54H119.755V362.176C119.923 361.832 120.183 361.56 120.535 361.36C120.887 361.16 121.287 361.06 121.735 361.06C122.255 361.06 122.707 361.184 123.091 361.432C123.483 361.672 123.783 362.02 123.991 362.476C124.207 362.924 124.315 363.46 124.315 364.084C124.315 364.7 124.207 365.236 123.991 365.692C123.783 366.14 123.483 366.488 123.091 366.736C122.707 366.984 122.255 367.108 121.735 367.108ZM121.531 366.328C122.075 366.328 122.511 366.136 122.839 365.752C123.167 365.36 123.331 364.804 123.331 364.084C123.331 363.356 123.167 362.8 122.839 362.416C122.511 362.032 122.075 361.84 121.531 361.84C120.987 361.84 120.551 362.032 120.223 362.416C119.895 362.8 119.731 363.356 119.731 364.084C119.731 364.804 119.895 365.36 120.223 365.752C120.551 366.136 120.987 366.328 121.531 366.328Z" fill="#2F2F2F"/>
<path d="M152.103 367V358.54H152.931L156.183 364.648L159.411 358.54H160.239V367H159.327V360.388L156.507 365.692H155.859L153.003 360.4V367H152.103ZM164.049 367.108C163.649 367.108 163.289 367.032 162.969 366.88C162.657 366.72 162.409 366.504 162.225 366.232C162.041 365.96 161.949 365.656 161.949 365.32C161.949 364.896 162.057 364.56 162.273 364.312C162.497 364.064 162.861 363.888 163.365 363.784C163.877 363.672 164.573 363.616 165.453 363.616H165.837V363.244C165.837 362.748 165.733 362.392 165.525 362.176C165.325 361.952 165.001 361.84 164.553 361.84C164.201 361.84 163.861 361.892 163.533 361.996C163.205 362.092 162.869 362.252 162.525 362.476L162.189 361.768C162.493 361.552 162.861 361.38 163.293 361.252C163.733 361.124 164.153 361.06 164.553 361.06C165.305 361.06 165.861 361.244 166.221 361.612C166.589 361.98 166.773 362.552 166.773 363.328V367H165.861V365.992C165.709 366.336 165.473 366.608 165.153 366.808C164.841 367.008 164.473 367.108 164.049 367.108ZM164.205 366.376C164.685 366.376 165.077 366.212 165.381 365.884C165.685 365.548 165.837 365.124 165.837 364.612V364.252H165.465C164.817 364.252 164.305 364.284 163.929 364.348C163.561 364.404 163.301 364.508 163.149 364.66C163.005 364.804 162.933 365.004 162.933 365.26C162.933 365.588 163.045 365.856 163.269 366.064C163.501 366.272 163.813 366.376 164.205 366.376ZM168.576 367V361.168H169.524V362.212C169.836 361.508 170.476 361.12 171.444 361.048L171.792 361.012L171.864 361.852L171.252 361.924C170.7 361.972 170.28 362.148 169.992 362.452C169.704 362.748 169.56 363.156 169.56 363.676V367H168.576Z" fill="#2F2F2F"/>
<path d="M198.708 367L202.44 358.54H203.28L207.012 367H205.992L205.056 364.84H200.652L199.728 367H198.708ZM202.848 359.692L201.012 364.012H204.708L202.872 359.692H202.848ZM208.135 369.16V361.168H209.083V362.212C209.259 361.852 209.519 361.572 209.863 361.372C210.215 361.164 210.623 361.06 211.087 361.06C211.607 361.06 212.059 361.184 212.443 361.432C212.835 361.672 213.135 362.02 213.343 362.476C213.559 362.924 213.667 363.46 213.667 364.084C213.667 364.7 213.559 365.236 213.343 365.692C213.135 366.14 212.835 366.488 212.443 366.736C212.059 366.984 211.607 367.108 211.087 367.108C210.639 367.108 210.239 367.008 209.887 366.808C209.535 366.608 209.275 366.332 209.107 365.98V369.16H208.135ZM210.883 366.328C211.427 366.328 211.863 366.136 212.191 365.752C212.519 365.36 212.683 364.804 212.683 364.084C212.683 363.356 212.519 362.8 212.191 362.416C211.863 362.032 211.427 361.84 210.883 361.84C210.339 361.84 209.903 362.032 209.575 362.416C209.247 362.8 209.083 363.356 209.083 364.084C209.083 364.804 209.247 365.36 209.575 365.752C209.903 366.136 210.339 366.328 210.883 366.328ZM215.131 367V361.168H216.079V362.212C216.391 361.508 217.031 361.12 217.999 361.048L218.347 361.012L218.419 361.852L217.807 361.924C217.255 361.972 216.835 362.148 216.547 362.452C216.259 362.748 216.115 363.156 216.115 363.676V367H215.131Z" fill="#2F2F2F"/>
<path d="M245.201 367V358.54H246.029L249.281 364.648L252.509 358.54H253.337V367H252.425V360.388L249.605 365.692H248.957L246.101 360.4V367H245.201ZM257.146 367.108C256.746 367.108 256.386 367.032 256.066 366.88C255.754 366.72 255.506 366.504 255.322 366.232C255.138 365.96 255.046 365.656 255.046 365.32C255.046 364.896 255.154 364.56 255.37 364.312C255.594 364.064 255.958 363.888 256.462 363.784C256.974 363.672 257.67 363.616 258.55 363.616H258.934V363.244C258.934 362.748 258.83 362.392 258.622 362.176C258.422 361.952 258.098 361.84 257.65 361.84C257.298 361.84 256.958 361.892 256.63 361.996C256.302 362.092 255.966 362.252 255.622 362.476L255.286 361.768C255.59 361.552 255.958 361.38 256.39 361.252C256.83 361.124 257.25 361.06 257.65 361.06C258.402 361.06 258.958 361.244 259.318 361.612C259.686 361.98 259.87 362.552 259.87 363.328V367H258.958V365.992C258.806 366.336 258.57 366.608 258.25 366.808C257.938 367.008 257.57 367.108 257.146 367.108ZM257.302 366.376C257.782 366.376 258.174 366.212 258.478 365.884C258.782 365.548 258.934 365.124 258.934 364.612V364.252H258.562C257.914 364.252 257.402 364.284 257.026 364.348C256.658 364.404 256.398 364.508 256.246 364.66C256.102 364.804 256.03 365.004 256.03 365.26C256.03 365.588 256.142 365.856 256.366 366.064C256.598 366.272 256.91 366.376 257.302 366.376ZM262.287 369.16L263.283 366.904L260.823 361.168H261.879L263.811 365.896L265.755 361.168H266.775L263.307 369.16H262.287Z" fill="#2F2F2F"/>
<path d="M290.04 367.084L289.968 366.256L290.688 366.208C291.096 366.176 291.408 366.036 291.624 365.788C291.84 365.532 291.948 365.184 291.948 364.744V358.54H292.932V364.756C292.932 365.452 292.752 365.996 292.392 366.388C292.032 366.772 291.508 366.988 290.82 367.036L290.04 367.084ZM296.955 367.108C295.555 367.108 294.855 366.336 294.855 364.792V361.168H295.827V364.78C295.827 365.3 295.931 365.684 296.139 365.932C296.355 366.18 296.691 366.304 297.147 366.304C297.643 366.304 298.047 366.14 298.359 365.812C298.671 365.476 298.827 365.032 298.827 364.48V361.168H299.799V367H298.851V366.016C298.667 366.368 298.407 366.64 298.071 366.832C297.743 367.016 297.371 367.108 296.955 367.108ZM301.617 367V361.168H302.565V362.164C302.757 361.796 303.029 361.52 303.381 361.336C303.733 361.152 304.129 361.06 304.569 361.06C305.953 361.06 306.645 361.828 306.645 363.364V367H305.673V363.424C305.673 362.88 305.565 362.484 305.349 362.236C305.141 361.98 304.805 361.852 304.341 361.852C303.805 361.852 303.377 362.02 303.057 362.356C302.745 362.684 302.589 363.124 302.589 363.676V367H301.617ZM311.065 367.108C310.145 367.108 309.417 366.84 308.881 366.304C308.345 365.76 308.077 365.024 308.077 364.096C308.077 363.496 308.197 362.968 308.437 362.512C308.677 362.048 309.005 361.692 309.421 361.444C309.845 361.188 310.333 361.06 310.885 361.06C311.677 361.06 312.297 361.316 312.745 361.828C313.193 362.332 313.417 363.028 313.417 363.916V364.288H309.025C309.057 364.952 309.249 365.46 309.601 365.812C309.953 366.156 310.441 366.328 311.065 366.328C311.417 366.328 311.753 366.276 312.073 366.172C312.393 366.06 312.697 365.88 312.985 365.632L313.321 366.316C313.057 366.564 312.721 366.76 312.313 366.904C311.905 367.04 311.489 367.108 311.065 367.108ZM310.909 361.78C310.357 361.78 309.921 361.952 309.601 362.296C309.281 362.64 309.093 363.092 309.037 363.652H312.577C312.553 363.06 312.397 362.6 312.109 362.272C311.829 361.944 311.429 361.78 310.909 361.78Z" fill="#2F2F2F"/>
<path d="M339.35 367.084L339.278 366.256L339.998 366.208C340.406 366.176 340.718 366.036 340.934 365.788C341.15 365.532 341.258 365.184 341.258 364.744V358.54H342.242V364.756C342.242 365.452 342.062 365.996 341.702 366.388C341.342 366.772 340.818 366.988 340.13 367.036L339.35 367.084ZM346.265 367.108C344.865 367.108 344.165 366.336 344.165 364.792V361.168H345.137V364.78C345.137 365.3 345.241 365.684 345.449 365.932C345.665 366.18 346.001 366.304 346.457 366.304C346.953 366.304 347.357 366.14 347.669 365.812C347.981 365.476 348.137 365.032 348.137 364.48V361.168H349.109V367H348.161V366.016C347.977 366.368 347.717 366.64 347.381 366.832C347.053 367.016 346.681 367.108 346.265 367.108ZM352.716 367.108C352.124 367.108 351.676 366.936 351.372 366.592C351.076 366.24 350.928 365.732 350.928 365.068V358.54H351.9V364.996C351.9 365.852 352.24 366.28 352.92 366.28C353.12 366.28 353.3 366.256 353.46 366.208L353.436 367.024C353.188 367.08 352.948 367.108 352.716 367.108ZM355.021 369.16L356.018 366.904L353.558 361.168H354.614L356.546 365.896L358.49 361.168H359.51L356.042 369.16H355.021Z" fill="#2F2F2F"/>
<path d="M385.478 367L389.21 358.54H390.05L393.782 367H392.762L391.826 364.84H387.422L386.498 367H385.478ZM389.618 359.692L387.782 364.012H391.478L389.642 359.692H389.618ZM396.968 367.108C395.568 367.108 394.868 366.336 394.868 364.792V361.168H395.84V364.78C395.84 365.3 395.944 365.684 396.152 365.932C396.368 366.18 396.704 366.304 397.16 366.304C397.656 366.304 398.06 366.14 398.372 365.812C398.684 365.476 398.84 365.032 398.84 364.48V361.168H399.812V367H398.864V366.016C398.68 366.368 398.42 366.64 398.084 366.832C397.756 367.016 397.384 367.108 396.968 367.108ZM404.211 369.268C403.707 369.268 403.231 369.2 402.783 369.064C402.343 368.936 401.951 368.74 401.607 368.476L401.931 367.768C402.291 368.024 402.647 368.208 402.999 368.32C403.359 368.432 403.747 368.488 404.163 368.488C405.315 368.488 405.891 367.896 405.891 366.712V365.68C405.723 366.048 405.459 366.34 405.099 366.556C404.747 366.764 404.343 366.868 403.887 366.868C403.351 366.868 402.887 366.744 402.495 366.496C402.103 366.248 401.799 365.908 401.583 365.476C401.375 365.036 401.271 364.528 401.271 363.952C401.271 363.376 401.375 362.872 401.583 362.44C401.799 362 402.103 361.66 402.495 361.42C402.887 361.18 403.351 361.06 403.887 361.06C404.343 361.06 404.747 361.164 405.099 361.372C405.459 361.58 405.723 361.864 405.891 362.224V361.168H406.839V366.58C406.839 367.476 406.615 368.148 406.167 368.596C405.727 369.044 405.075 369.268 404.211 369.268ZM404.067 366.076C404.627 366.076 405.071 365.884 405.399 365.5C405.727 365.116 405.891 364.6 405.891 363.952C405.891 363.304 405.727 362.792 405.399 362.416C405.071 362.032 404.627 361.84 404.067 361.84C403.515 361.84 403.075 362.032 402.747 362.416C402.419 362.792 402.255 363.304 402.255 363.952C402.255 364.6 402.419 365.116 402.747 365.5C403.075 365.884 403.515 366.076 404.067 366.076Z" fill="#2F2F2F"/>
<path d="M436.897 367.108C436.233 367.108 435.633 367.024 435.097 366.856C434.561 366.68 434.097 366.428 433.705 366.1L434.053 365.308C434.461 365.62 434.889 365.852 435.337 366.004C435.785 366.156 436.305 366.232 436.897 366.232C437.617 366.232 438.149 366.1 438.493 365.836C438.845 365.564 439.021 365.208 439.021 364.768C439.021 364.416 438.893 364.136 438.637 363.928C438.389 363.72 437.969 363.556 437.377 363.436L436.129 363.184C435.377 363.024 434.813 362.764 434.437 362.404C434.069 362.036 433.885 361.548 433.885 360.94C433.885 360.436 434.013 359.996 434.269 359.62C434.533 359.244 434.897 358.952 435.361 358.744C435.825 358.536 436.361 358.432 436.969 358.432C437.537 358.432 438.065 358.524 438.553 358.708C439.041 358.884 439.453 359.14 439.789 359.476L439.441 360.244C439.081 359.916 438.701 359.68 438.301 359.536C437.901 359.384 437.453 359.308 436.957 359.308C436.325 359.308 435.821 359.456 435.445 359.752C435.069 360.04 434.881 360.424 434.881 360.904C434.881 361.288 434.997 361.592 435.229 361.816C435.469 362.04 435.857 362.204 436.393 362.308L437.641 362.572C438.449 362.74 439.045 362.996 439.429 363.34C439.821 363.676 440.017 364.136 440.017 364.72C440.017 365.192 439.889 365.608 439.633 365.968C439.385 366.328 439.025 366.608 438.553 366.808C438.089 367.008 437.537 367.108 436.897 367.108ZM444.04 367.108C443.12 367.108 442.392 366.84 441.856 366.304C441.32 365.76 441.052 365.024 441.052 364.096C441.052 363.496 441.172 362.968 441.412 362.512C441.652 362.048 441.98 361.692 442.396 361.444C442.82 361.188 443.308 361.06 443.86 361.06C444.652 361.06 445.272 361.316 445.72 361.828C446.168 362.332 446.392 363.028 446.392 363.916V364.288H442C442.032 364.952 442.224 365.46 442.576 365.812C442.928 366.156 443.416 366.328 444.04 366.328C444.392 366.328 444.728 366.276 445.048 366.172C445.368 366.06 445.672 365.88 445.96 365.632L446.296 366.316C446.032 366.564 445.696 366.76 445.288 366.904C444.88 367.04 444.464 367.108 444.04 367.108ZM443.884 361.78C443.332 361.78 442.896 361.952 442.576 362.296C442.256 362.64 442.068 363.092 442.012 363.652H445.552C445.528 363.06 445.372 362.6 445.084 362.272C444.804 361.944 444.404 361.78 443.884 361.78ZM447.799 369.16V361.168H448.747V362.212C448.923 361.852 449.183 361.572 449.527 361.372C449.879 361.164 450.287 361.06 450.751 361.06C451.271 361.06 451.723 361.184 452.107 361.432C452.499 361.672 452.799 362.02 453.007 362.476C453.223 362.924 453.331 363.46 453.331 364.084C453.331 364.7 453.223 365.236 453.007 365.692C452.799 366.14 452.499 366.488 452.107 366.736C451.723 366.984 451.271 367.108 450.751 367.108C450.303 367.108 449.903 367.008 449.551 366.808C449.199 366.608 448.939 366.332 448.771 365.98V369.16H447.799ZM450.547 366.328C451.091 366.328 451.527 366.136 451.855 365.752C452.183 365.36 452.347 364.804 452.347 364.084C452.347 363.356 452.183 362.8 451.855 362.416C451.527 362.032 451.091 361.84 450.547 361.84C450.003 361.84 449.567 362.032 449.239 362.416C448.911 362.8 448.747 363.356 448.747 364.084C448.747 364.804 448.911 365.36 449.239 365.752C449.567 366.136 450.003 366.328 450.547 366.328Z" fill="#2F2F2F"/>
<path d="M485.621 367.108C484.837 367.108 484.153 366.932 483.569 366.58C482.993 366.22 482.545 365.716 482.225 365.068C481.913 364.42 481.757 363.652 481.757 362.764C481.757 361.876 481.913 361.108 482.225 360.46C482.537 359.812 482.981 359.312 483.557 358.96C484.141 358.608 484.829 358.432 485.621 358.432C486.421 358.432 487.109 358.608 487.685 358.96C488.269 359.312 488.717 359.812 489.029 360.46C489.349 361.1 489.509 361.864 489.509 362.752C489.509 363.64 489.349 364.412 489.029 365.068C488.709 365.716 488.257 366.22 487.673 366.58C487.097 366.932 486.413 367.108 485.621 367.108ZM485.621 366.232C486.525 366.232 487.225 365.928 487.721 365.32C488.217 364.712 488.465 363.86 488.465 362.764C488.465 361.668 488.217 360.82 487.721 360.22C487.225 359.612 486.525 359.308 485.621 359.308C484.733 359.308 484.041 359.612 483.545 360.22C483.049 360.82 482.801 361.668 482.801 362.764C482.801 363.852 483.049 364.704 483.545 365.32C484.041 365.928 484.733 366.232 485.621 366.232ZM493.609 367.108C493.025 367.108 492.521 366.984 492.097 366.736C491.673 366.48 491.345 366.124 491.113 365.668C490.889 365.204 490.777 364.664 490.777 364.048C490.777 363.12 491.029 362.392 491.533 361.864C492.037 361.328 492.729 361.06 493.609 361.06C493.969 361.06 494.325 361.124 494.677 361.252C495.029 361.38 495.321 361.56 495.553 361.792L495.217 362.5C494.985 362.276 494.729 362.112 494.449 362.008C494.177 361.904 493.917 361.852 493.669 361.852C493.061 361.852 492.593 362.044 492.265 362.428C491.937 362.804 491.773 363.348 491.773 364.06C491.773 364.756 491.937 365.308 492.265 365.716C492.593 366.116 493.061 366.316 493.669 366.316C493.917 366.316 494.177 366.264 494.449 366.16C494.729 366.056 494.985 365.888 495.217 365.656L495.553 366.364C495.321 366.596 495.025 366.78 494.665 366.916C494.313 367.044 493.961 367.108 493.609 367.108ZM499.031 367.108C498.343 367.108 497.827 366.928 497.483 366.568C497.139 366.2 496.967 365.672 496.967 364.984V361.924H495.827V361.168H496.967V359.38H497.939V361.168H499.787V361.924H497.939V364.888C497.939 365.344 498.035 365.692 498.227 365.932C498.419 366.164 498.731 366.28 499.163 366.28C499.291 366.28 499.419 366.264 499.547 366.232C499.675 366.2 499.791 366.168 499.895 366.136L500.063 366.88C499.959 366.936 499.807 366.988 499.607 367.036C499.407 367.084 499.215 367.108 499.031 367.108Z" fill="#2F2F2F"/>
<path d="M529.222 367V358.54H529.99L535.09 365.344V358.54H536.002V367H535.258L530.146 360.172V367H529.222ZM540.397 367.108C539.829 367.108 539.337 366.984 538.921 366.736C538.505 366.488 538.181 366.14 537.949 365.692C537.725 365.236 537.613 364.7 537.613 364.084C537.613 363.468 537.725 362.936 537.949 362.488C538.181 362.032 538.505 361.68 538.921 361.432C539.337 361.184 539.829 361.06 540.397 361.06C540.957 361.06 541.445 361.184 541.861 361.432C542.285 361.68 542.609 362.032 542.833 362.488C543.065 362.936 543.181 363.468 543.181 364.084C543.181 364.7 543.065 365.236 542.833 365.692C542.609 366.14 542.285 366.488 541.861 366.736C541.445 366.984 540.957 367.108 540.397 367.108ZM540.397 366.328C540.941 366.328 541.377 366.136 541.705 365.752C542.033 365.36 542.197 364.804 542.197 364.084C542.197 363.356 542.033 362.8 541.705 362.416C541.377 362.032 540.941 361.84 540.397 361.84C539.845 361.84 539.405 362.032 539.077 362.416C538.757 362.8 538.597 363.356 538.597 364.084C538.597 364.804 538.757 365.36 539.077 365.752C539.405 366.136 539.845 366.328 540.397 366.328ZM546.274 367L543.766 361.168H544.822L546.754 365.896L548.71 361.168H549.706L547.186 367H546.274Z" fill="#2F2F2F"/>
<path d="M577.12 367V358.54H579.976C581.344 358.54 582.4 358.904 583.144 359.632C583.888 360.352 584.26 361.396 584.26 362.764C584.26 364.132 583.888 365.18 583.144 365.908C582.4 366.636 581.344 367 579.976 367H577.12ZM578.104 366.16H579.904C582.112 366.16 583.216 365.028 583.216 362.764C583.216 360.508 582.112 359.38 579.904 359.38H578.104V366.16ZM588.522 367.108C587.602 367.108 586.874 366.84 586.338 366.304C585.802 365.76 585.534 365.024 585.534 364.096C585.534 363.496 585.654 362.968 585.894 362.512C586.134 362.048 586.462 361.692 586.878 361.444C587.302 361.188 587.79 361.06 588.342 361.06C589.134 361.06 589.754 361.316 590.202 361.828C590.65 362.332 590.874 363.028 590.874 363.916V364.288H586.482C586.514 364.952 586.706 365.46 587.058 365.812C587.41 366.156 587.898 366.328 588.522 366.328C588.874 366.328 589.21 366.276 589.53 366.172C589.85 366.06 590.154 365.88 590.442 365.632L590.778 366.316C590.514 366.564 590.178 366.76 589.77 366.904C589.362 367.04 588.946 367.108 588.522 367.108ZM588.366 361.78C587.814 361.78 587.378 361.952 587.058 362.296C586.738 362.64 586.55 363.092 586.494 363.652H590.034C590.01 363.06 589.854 362.6 589.566 362.272C589.286 361.944 588.886 361.78 588.366 361.78ZM594.753 367.108C594.169 367.108 593.665 366.984 593.241 366.736C592.817 366.48 592.489 366.124 592.257 365.668C592.033 365.204 591.921 364.664 591.921 364.048C591.921 363.12 592.173 362.392 592.677 361.864C593.181 361.328 593.873 361.06 594.753 361.06C595.113 361.06 595.469 361.124 595.821 361.252C596.173 361.38 596.465 361.56 596.697 361.792L596.361 362.5C596.129 362.276 595.873 362.112 595.593 362.008C595.321 361.904 595.061 361.852 594.813 361.852C594.205 361.852 593.737 362.044 593.409 362.428C593.081 362.804 592.917 363.348 592.917 364.06C592.917 364.756 593.081 365.308 593.409 365.716C593.737 366.116 594.205 366.316 594.813 366.316C595.061 366.316 595.321 366.264 595.593 366.16C595.873 366.056 596.129 365.888 596.361 365.656L596.697 366.364C596.465 366.596 596.169 366.78 595.809 366.916C595.457 367.044 595.105 367.108 594.753 367.108Z" fill="#2F2F2F"/>
<path d="M47.4047 351.108C46.4367 351.108 45.7007 350.736 45.1967 349.992C44.6927 349.248 44.4407 348.172 44.4407 346.764C44.4407 345.348 44.6927 344.272 45.1967 343.536C45.7007 342.8 46.4367 342.432 47.4047 342.432C48.3807 342.432 49.1167 342.8 49.6127 343.536C50.1167 344.264 50.3687 345.336 50.3687 346.752C50.3687 348.168 50.1127 349.248 49.6007 349.992C49.0967 350.736 48.3647 351.108 47.4047 351.108ZM47.4047 350.256C48.0767 350.256 48.5727 349.972 48.8927 349.404C49.2207 348.836 49.3847 347.952 49.3847 346.752C49.3847 345.552 49.2247 344.676 48.9047 344.124C48.5847 343.564 48.0847 343.284 47.4047 343.284C46.7327 343.284 46.2327 343.564 45.9047 344.124C45.5847 344.684 45.4247 345.56 45.4247 346.752C45.4247 347.952 45.5847 348.836 45.9047 349.404C46.2327 349.972 46.7327 350.256 47.4047 350.256Z" fill="#2F2F2F"/>
<path d="M33.1941 295.108C32.6501 295.108 32.1301 295.02 31.6341 294.844C31.1381 294.668 30.7181 294.42 30.3741 294.1L30.7461 293.32C31.4901 293.928 32.3021 294.232 33.1821 294.232C33.7661 294.232 34.2261 294.068 34.5621 293.74C34.8981 293.412 35.0661 292.98 35.0661 292.444C35.0661 291.892 34.9061 291.44 34.5861 291.088C34.2661 290.736 33.8261 290.56 33.2661 290.56C32.4581 290.56 31.8221 290.896 31.3581 291.568H30.6381V286.54H35.5461V287.38H31.6101V290.404C32.0741 289.94 32.6861 289.708 33.4461 289.708C33.9741 289.708 34.4341 289.82 34.8261 290.044C35.2181 290.268 35.5181 290.584 35.7261 290.992C35.9421 291.392 36.0501 291.86 36.0501 292.396C36.0501 292.924 35.9341 293.392 35.7021 293.8C35.4701 294.208 35.1381 294.528 34.7061 294.76C34.2821 294.992 33.7781 295.108 33.1941 295.108ZM40.2094 295.108C39.2414 295.108 38.5054 294.736 38.0014 293.992C37.4974 293.248 37.2454 292.172 37.2454 290.764C37.2454 289.348 37.4974 288.272 38.0014 287.536C38.5054 286.8 39.2414 286.432 40.2094 286.432C41.1854 286.432 41.9214 286.8 42.4174 287.536C42.9214 288.264 43.1734 289.336 43.1734 290.752C43.1734 292.168 42.9174 293.248 42.4054 293.992C41.9014 294.736 41.1694 295.108 40.2094 295.108ZM40.2094 294.256C40.8814 294.256 41.3774 293.972 41.6974 293.404C42.0254 292.836 42.1894 291.952 42.1894 290.752C42.1894 289.552 42.0294 288.676 41.7094 288.124C41.3894 287.564 40.8894 287.284 40.2094 287.284C39.5374 287.284 39.0374 287.564 38.7094 288.124C38.3894 288.684 38.2294 289.56 38.2294 290.752C38.2294 291.952 38.3894 292.836 38.7094 293.404C39.0374 293.972 39.5374 294.256 40.2094 294.256ZM47.4047 295.108C46.4367 295.108 45.7007 294.736 45.1967 293.992C44.6927 293.248 44.4407 292.172 44.4407 290.764C44.4407 289.348 44.6927 288.272 45.1967 287.536C45.7007 286.8 46.4367 286.432 47.4047 286.432C48.3807 286.432 49.1167 286.8 49.6127 287.536C50.1167 288.264 50.3687 289.336 50.3687 290.752C50.3687 292.168 50.1127 293.248 49.6007 293.992C49.0967 294.736 48.3647 295.108 47.4047 295.108ZM47.4047 294.256C48.0767 294.256 48.5727 293.972 48.8927 293.404C49.2207 292.836 49.3847 291.952 49.3847 290.752C49.3847 289.552 49.2247 288.676 48.9047 288.124C48.5847 287.564 48.0847 287.284 47.4047 287.284C46.7327 287.284 46.2327 287.564 45.9047 288.124C45.5847 288.684 45.4247 289.56 45.4247 290.752C45.4247 291.952 45.5847 292.836 45.9047 293.404C46.2327 293.972 46.7327 294.256 47.4047 294.256Z" fill="#2F2F2F"/>
<path d="M23.7068 239V238.16H25.6388V231.728L24.1148 232.688L23.6948 231.956L25.9148 230.54H26.6228V238.16H28.4348V239H23.7068ZM33.0141 239.108C32.0461 239.108 31.3101 238.736 30.8061 237.992C30.3021 237.248 30.0501 236.172 30.0501 234.764C30.0501 233.348 30.3021 232.272 30.8061 231.536C31.3101 230.8 32.0461 230.432 33.0141 230.432C33.9901 230.432 34.7261 230.8 35.2221 231.536C35.7261 232.264 35.9781 233.336 35.9781 234.752C35.9781 236.168 35.7221 237.248 35.2101 237.992C34.7061 238.736 33.9741 239.108 33.0141 239.108ZM33.0141 238.256C33.6861 238.256 34.1821 237.972 34.5021 237.404C34.8301 236.836 34.9941 235.952 34.9941 234.752C34.9941 233.552 34.8341 232.676 34.5141 232.124C34.1941 231.564 33.6941 231.284 33.0141 231.284C32.3421 231.284 31.8421 231.564 31.5141 232.124C31.1941 232.684 31.0341 233.56 31.0341 234.752C31.0341 235.952 31.1941 236.836 31.5141 237.404C31.8421 237.972 32.3421 238.256 33.0141 238.256ZM40.2094 239.108C39.2414 239.108 38.5054 238.736 38.0014 237.992C37.4974 237.248 37.2454 236.172 37.2454 234.764C37.2454 233.348 37.4974 232.272 38.0014 231.536C38.5054 230.8 39.2414 230.432 40.2094 230.432C41.1854 230.432 41.9214 230.8 42.4174 231.536C42.9214 232.264 43.1734 233.336 43.1734 234.752C43.1734 236.168 42.9174 237.248 42.4054 237.992C41.9014 238.736 41.1694 239.108 40.2094 239.108ZM40.2094 238.256C40.8814 238.256 41.3774 237.972 41.6974 237.404C42.0254 236.836 42.1894 235.952 42.1894 234.752C42.1894 233.552 42.0294 232.676 41.7094 232.124C41.3894 231.564 40.8894 231.284 40.2094 231.284C39.5374 231.284 39.0374 231.564 38.7094 232.124C38.3894 232.684 38.2294 233.56 38.2294 234.752C38.2294 235.952 38.3894 236.836 38.7094 237.404C39.0374 237.972 39.5374 238.256 40.2094 238.256ZM47.4047 239.108C46.4367 239.108 45.7007 238.736 45.1967 237.992C44.6927 237.248 44.4407 236.172 44.4407 234.764C44.4407 233.348 44.6927 232.272 45.1967 231.536C45.7007 230.8 46.4367 230.432 47.4047 230.432C48.3807 230.432 49.1167 230.8 49.6127 231.536C50.1167 232.264 50.3687 233.336 50.3687 234.752C50.3687 236.168 50.1127 237.248 49.6007 237.992C49.0967 238.736 48.3647 239.108 47.4047 239.108ZM47.4047 238.256C48.0767 238.256 48.5727 237.972 48.8927 237.404C49.2207 236.836 49.3847 235.952 49.3847 234.752C49.3847 233.552 49.2247 232.676 48.9047 232.124C48.5847 231.564 48.0847 231.284 47.4047 231.284C46.7327 231.284 46.2327 231.564 45.9047 232.124C45.5847 232.684 45.4247 233.56 45.4247 234.752C45.4247 235.952 45.5847 236.836 45.9047 237.404C46.2327 237.972 46.7327 238.256 47.4047 238.256Z" fill="#2F2F2F"/>
<path d="M23.7068 183V182.16H25.6388V175.728L24.1148 176.688L23.6948 175.956L25.9148 174.54H26.6228V182.16H28.4348V183H23.7068ZM33.1941 183.108C32.6501 183.108 32.1301 183.02 31.6341 182.844C31.1381 182.668 30.7181 182.42 30.3741 182.1L30.7461 181.32C31.4901 181.928 32.3021 182.232 33.1821 182.232C33.7661 182.232 34.2261 182.068 34.5621 181.74C34.8981 181.412 35.0661 180.98 35.0661 180.444C35.0661 179.892 34.9061 179.44 34.5861 179.088C34.2661 178.736 33.8261 178.56 33.2661 178.56C32.4581 178.56 31.8221 178.896 31.3581 179.568H30.6381V174.54H35.5461V175.38H31.6101V178.404C32.0741 177.94 32.6861 177.708 33.4461 177.708C33.9741 177.708 34.4341 177.82 34.8261 178.044C35.2181 178.268 35.5181 178.584 35.7261 178.992C35.9421 179.392 36.0501 179.86 36.0501 180.396C36.0501 180.924 35.9341 181.392 35.7021 181.8C35.4701 182.208 35.1381 182.528 34.7061 182.76C34.2821 182.992 33.7781 183.108 33.1941 183.108ZM40.2094 183.108C39.2414 183.108 38.5054 182.736 38.0014 181.992C37.4974 181.248 37.2454 180.172 37.2454 178.764C37.2454 177.348 37.4974 176.272 38.0014 175.536C38.5054 174.8 39.2414 174.432 40.2094 174.432C41.1854 174.432 41.9214 174.8 42.4174 175.536C42.9214 176.264 43.1734 177.336 43.1734 178.752C43.1734 180.168 42.9174 181.248 42.4054 181.992C41.9014 182.736 41.1694 183.108 40.2094 183.108ZM40.2094 182.256C40.8814 182.256 41.3774 181.972 41.6974 181.404C42.0254 180.836 42.1894 179.952 42.1894 178.752C42.1894 177.552 42.0294 176.676 41.7094 176.124C41.3894 175.564 40.8894 175.284 40.2094 175.284C39.5374 175.284 39.0374 175.564 38.7094 176.124C38.3894 176.684 38.2294 177.56 38.2294 178.752C38.2294 179.952 38.3894 180.836 38.7094 181.404C39.0374 181.972 39.5374 182.256 40.2094 182.256ZM47.4047 183.108C46.4367 183.108 45.7007 182.736 45.1967 181.992C44.6927 181.248 44.4407 180.172 44.4407 178.764C44.4407 177.348 44.6927 176.272 45.1967 175.536C45.7007 174.8 46.4367 174.432 47.4047 174.432C48.3807 174.432 49.1167 174.8 49.6127 175.536C50.1167 176.264 50.3687 177.336 50.3687 178.752C50.3687 180.168 50.1127 181.248 49.6007 181.992C49.0967 182.736 48.3647 183.108 47.4047 183.108ZM47.4047 182.256C48.0767 182.256 48.5727 181.972 48.8927 181.404C49.2207 180.836 49.3847 179.952 49.3847 178.752C49.3847 177.552 49.2247 176.676 48.9047 176.124C48.5847 175.564 48.0847 175.284 47.4047 175.284C46.7327 175.284 46.2327 175.564 45.9047 176.124C45.5847 176.684 45.4247 177.56 45.4247 178.752C45.4247 179.952 45.5847 180.836 45.9047 181.404C46.2327 181.972 46.7327 182.256 47.4047 182.256Z" fill="#2F2F2F"/>
<path d="M23.2988 127V126.256L26.1908 123.136C26.5988 122.688 26.8908 122.28 27.0668 121.912C27.2508 121.544 27.3428 121.168 27.3428 120.784C27.3428 119.8 26.7708 119.308 25.6268 119.308C24.7708 119.308 24.0148 119.628 23.3588 120.268L22.9868 119.5C23.2988 119.18 23.6948 118.924 24.1748 118.732C24.6628 118.532 25.1748 118.432 25.7108 118.432C26.5588 118.432 27.2068 118.632 27.6548 119.032C28.1108 119.424 28.3388 119.984 28.3388 120.712C28.3388 121.216 28.2148 121.712 27.9668 122.2C27.7188 122.68 27.3388 123.192 26.8268 123.736L24.5588 126.16H28.6868V127H23.2988ZM33.0141 127.108C32.0461 127.108 31.3101 126.736 30.8061 125.992C30.3021 125.248 30.0501 124.172 30.0501 122.764C30.0501 121.348 30.3021 120.272 30.8061 119.536C31.3101 118.8 32.0461 118.432 33.0141 118.432C33.9901 118.432 34.7261 118.8 35.2221 119.536C35.7261 120.264 35.9781 121.336 35.9781 122.752C35.9781 124.168 35.7221 125.248 35.2101 125.992C34.7061 126.736 33.9741 127.108 33.0141 127.108ZM33.0141 126.256C33.6861 126.256 34.1821 125.972 34.5021 125.404C34.8301 124.836 34.9941 123.952 34.9941 122.752C34.9941 121.552 34.8341 120.676 34.5141 120.124C34.1941 119.564 33.6941 119.284 33.0141 119.284C32.3421 119.284 31.8421 119.564 31.5141 120.124C31.1941 120.684 31.0341 121.56 31.0341 122.752C31.0341 123.952 31.1941 124.836 31.5141 125.404C31.8421 125.972 32.3421 126.256 33.0141 126.256ZM40.2094 127.108C39.2414 127.108 38.5054 126.736 38.0014 125.992C37.4974 125.248 37.2454 124.172 37.2454 122.764C37.2454 121.348 37.4974 120.272 38.0014 119.536C38.5054 118.8 39.2414 118.432 40.2094 118.432C41.1854 118.432 41.9214 118.8 42.4174 119.536C42.9214 120.264 43.1734 121.336 43.1734 122.752C43.1734 124.168 42.9174 125.248 42.4054 125.992C41.9014 126.736 41.1694 127.108 40.2094 127.108ZM40.2094 126.256C40.8814 126.256 41.3774 125.972 41.6974 125.404C42.0254 124.836 42.1894 123.952 42.1894 122.752C42.1894 121.552 42.0294 120.676 41.7094 120.124C41.3894 119.564 40.8894 119.284 40.2094 119.284C39.5374 119.284 39.0374 119.564 38.7094 120.124C38.3894 120.684 38.2294 121.56 38.2294 122.752C38.2294 123.952 38.3894 124.836 38.7094 125.404C39.0374 125.972 39.5374 126.256 40.2094 126.256ZM47.4047 127.108C46.4367 127.108 45.7007 126.736 45.1967 125.992C44.6927 125.248 44.4407 124.172 44.4407 122.764C44.4407 121.348 44.6927 120.272 45.1967 119.536C45.7007 118.8 46.4367 118.432 47.4047 118.432C48.3807 118.432 49.1167 118.8 49.6127 119.536C50.1167 120.264 50.3687 121.336 50.3687 122.752C50.3687 124.168 50.1127 125.248 49.6007 125.992C49.0967 126.736 48.3647 127.108 47.4047 127.108ZM47.4047 126.256C48.0767 126.256 48.5727 125.972 48.8927 125.404C49.2207 124.836 49.3847 123.952 49.3847 122.752C49.3847 121.552 49.2247 120.676 48.9047 120.124C48.5847 119.564 48.0847 119.284 47.4047 119.284C46.7327 119.284 46.2327 119.564 45.9047 120.124C45.5847 120.684 45.4247 121.56 45.4247 122.752C45.4247 123.952 45.5847 124.836 45.9047 125.404C46.2327 125.972 46.7327 126.256 47.4047 126.256Z" fill="#2F2F2F"/>
<path d="M23.2988 71V70.256L26.1908 67.136C26.5988 66.688 26.8908 66.28 27.0668 65.912C27.2508 65.544 27.3428 65.168 27.3428 64.784C27.3428 63.8 26.7708 63.308 25.6268 63.308C24.7708 63.308 24.0148 63.628 23.3588 64.268L22.9868 63.5C23.2988 63.18 23.6948 62.924 24.1748 62.732C24.6628 62.532 25.1748 62.432 25.7108 62.432C26.5588 62.432 27.2068 62.632 27.6548 63.032C28.1108 63.424 28.3388 63.984 28.3388 64.712C28.3388 65.216 28.2148 65.712 27.9668 66.2C27.7188 66.68 27.3388 67.192 26.8268 67.736L24.5588 70.16H28.6868V71H23.2988ZM33.1941 71.108C32.6501 71.108 32.1301 71.02 31.6341 70.844C31.1381 70.668 30.7181 70.42 30.3741 70.1L30.7461 69.32C31.4901 69.928 32.3021 70.232 33.1821 70.232C33.7661 70.232 34.2261 70.068 34.5621 69.74C34.8981 69.412 35.0661 68.98 35.0661 68.444C35.0661 67.892 34.9061 67.44 34.5861 67.088C34.2661 66.736 33.8261 66.56 33.2661 66.56C32.4581 66.56 31.8221 66.896 31.3581 67.568H30.6381V62.54H35.5461V63.38H31.6101V66.404C32.0741 65.94 32.6861 65.708 33.4461 65.708C33.9741 65.708 34.4341 65.82 34.8261 66.044C35.2181 66.268 35.5181 66.584 35.7261 66.992C35.9421 67.392 36.0501 67.86 36.0501 68.396C36.0501 68.924 35.9341 69.392 35.7021 69.8C35.4701 70.208 35.1381 70.528 34.7061 70.76C34.2821 70.992 33.7781 71.108 33.1941 71.108ZM40.2094 71.108C39.2414 71.108 38.5054 70.736 38.0014 69.992C37.4974 69.248 37.2454 68.172 37.2454 66.764C37.2454 65.348 37.4974 64.272 38.0014 63.536C38.5054 62.8 39.2414 62.432 40.2094 62.432C41.1854 62.432 41.9214 62.8 42.4174 63.536C42.9214 64.264 43.1734 65.336 43.1734 66.752C43.1734 68.168 42.9174 69.248 42.4054 69.992C41.9014 70.736 41.1694 71.108 40.2094 71.108ZM40.2094 70.256C40.8814 70.256 41.3774 69.972 41.6974 69.404C42.0254 68.836 42.1894 67.952 42.1894 66.752C42.1894 65.552 42.0294 64.676 41.7094 64.124C41.3894 63.564 40.8894 63.284 40.2094 63.284C39.5374 63.284 39.0374 63.564 38.7094 64.124C38.3894 64.684 38.2294 65.56 38.2294 66.752C38.2294 67.952 38.3894 68.836 38.7094 69.404C39.0374 69.972 39.5374 70.256 40.2094 70.256ZM47.4047 71.108C46.4367 71.108 45.7007 70.736 45.1967 69.992C44.6927 69.248 44.4407 68.172 44.4407 66.764C44.4407 65.348 44.6927 64.272 45.1967 63.536C45.7007 62.8 46.4367 62.432 47.4047 62.432C48.3807 62.432 49.1167 62.8 49.6127 63.536C50.1167 64.264 50.3687 65.336 50.3687 66.752C50.3687 68.168 50.1127 69.248 49.6007 69.992C49.0967 70.736 48.3647 71.108 47.4047 71.108ZM47.4047 70.256C48.0767 70.256 48.5727 69.972 48.8927 69.404C49.2207 68.836 49.3847 67.952 49.3847 66.752C49.3847 65.552 49.2247 64.676 48.9047 64.124C48.5847 63.564 48.0847 63.284 47.4047 63.284C46.7327 63.284 46.2327 63.564 45.9047 64.124C45.5847 64.684 45.4247 65.56 45.4247 66.752C45.4247 67.952 45.5847 68.836 45.9047 69.404C46.2327 69.972 46.7327 70.256 47.4047 70.256Z" fill="#2F2F2F"/>
<path d="M25.7228 14.2828C25.1628 14.2828 24.6308 14.1988 24.1268 14.0308C23.6228 13.8548 23.1988 13.6028 22.8548 13.2748L23.2148 12.4948C23.6068 12.8148 24.0028 13.0468 24.4028 13.1908C24.8028 13.3348 25.2348 13.4068 25.6988 13.4068C26.3068 13.4068 26.7708 13.2748 27.0908 13.0108C27.4188 12.7388 27.5828 12.3428 27.5828 11.8228C27.5828 11.3268 27.4188 10.9508 27.0908 10.6948C26.7628 10.4388 26.2868 10.3108 25.6628 10.3108H24.4148V9.4588H25.5788C26.1228 9.4588 26.5508 9.3188 26.8628 9.0388C27.1828 8.7508 27.3428 8.3588 27.3428 7.8628C27.3428 7.4228 27.1948 7.0828 26.8988 6.8428C26.6108 6.6028 26.1988 6.4828 25.6628 6.4828C24.7828 6.4828 24.0148 6.8028 23.3588 7.4428L22.9988 6.6748C23.3108 6.3388 23.7068 6.0788 24.1868 5.8948C24.6748 5.7028 25.1868 5.6068 25.7228 5.6068C26.5388 5.6068 27.1748 5.7988 27.6308 6.1828C28.0948 6.5668 28.3268 7.0988 28.3268 7.7788C28.3268 8.2508 28.2068 8.6668 27.9668 9.0268C27.7268 9.3788 27.3948 9.6348 26.9708 9.7948C27.4748 9.9308 27.8668 10.1828 28.1468 10.5508C28.4268 10.9108 28.5668 11.3588 28.5668 11.8948C28.5668 12.6228 28.3108 13.2028 27.7988 13.6348C27.2948 14.0668 26.6028 14.2828 25.7228 14.2828ZM33.0141 14.2828C32.0461 14.2828 31.3101 13.9108 30.8061 13.1668C30.3021 12.4228 30.0501 11.3468 30.0501 9.9388C30.0501 8.5228 30.3021 7.4468 30.8061 6.7108C31.3101 5.9748 32.0461 5.6068 33.0141 5.6068C33.9901 5.6068 34.7261 5.9748 35.2221 6.7108C35.7261 7.4388 35.9781 8.5108 35.9781 9.9268C35.9781 11.3428 35.7221 12.4228 35.2101 13.1668C34.7061 13.9108 33.9741 14.2828 33.0141 14.2828ZM33.0141 13.4308C33.6861 13.4308 34.1821 13.1468 34.5021 12.5788C34.8301 12.0108 34.9941 11.1268 34.9941 9.9268C34.9941 8.7268 34.8341 7.8508 34.5141 7.2988C34.1941 6.7388 33.6941 6.4588 33.0141 6.4588C32.3421 6.4588 31.8421 6.7388 31.5141 7.2988C31.1941 7.8588 31.0341 8.7348 31.0341 9.9268C31.0341 11.1268 31.1941 12.0108 31.5141 12.5788C31.8421 13.1468 32.3421 13.4308 33.0141 13.4308ZM40.2094 14.2828C39.2414 14.2828 38.5054 13.9108 38.0014 13.1668C37.4974 12.4228 37.2454 11.3468 37.2454 9.9388C37.2454 8.5228 37.4974 7.4468 38.0014 6.7108C38.5054 5.9748 39.2414 5.6068 40.2094 5.6068C41.1854 5.6068 41.9214 5.9748 42.4174 6.7108C42.9214 7.4388 43.1734 8.5108 43.1734 9.9268C43.1734 11.3428 42.9174 12.4228 42.4054 13.1668C41.9014 13.9108 41.1694 14.2828 40.2094 14.2828ZM40.2094 13.4308C40.8814 13.4308 41.3774 13.1468 41.6974 12.5788C42.0254 12.0108 42.1894 11.1268 42.1894 9.9268C42.1894 8.7268 42.0294 7.8508 41.7094 7.2988C41.3894 6.7388 40.8894 6.4588 40.2094 6.4588C39.5374 6.4588 39.0374 6.7388 38.7094 7.2988C38.3894 7.8588 38.2294 8.7348 38.2294 9.9268C38.2294 11.1268 38.3894 12.0108 38.7094 12.5788C39.0374 13.1468 39.5374 13.4308 40.2094 13.4308ZM47.4047 14.2828C46.4367 14.2828 45.7007 13.9108 45.1967 13.1668C44.6927 12.4228 44.4407 11.3468 44.4407 9.9388C44.4407 8.5228 44.6927 7.4468 45.1967 6.7108C45.7007 5.9748 46.4367 5.6068 47.4047 5.6068C48.3807 5.6068 49.1167 5.9748 49.6127 6.7108C50.1167 7.4388 50.3687 8.5108 50.3687 9.9268C50.3687 11.3428 50.1127 12.4228 49.6007 13.1668C49.0967 13.9108 48.3647 14.2828 47.4047 14.2828ZM47.4047 13.4308C48.0767 13.4308 48.5727 13.1468 48.8927 12.5788C49.2207 12.0108 49.3847 11.1268 49.3847 9.9268C49.3847 8.7268 49.2247 7.8508 48.9047 7.2988C48.5847 6.7388 48.0847 6.4588 47.4047 6.4588C46.7327 6.4588 46.2327 6.7388 45.9047 7.2988C45.5847 7.8588 45.4247 8.7348 45.4247 9.9268C45.4247 11.1268 45.5847 12.0108 45.9047 12.5788C46.2327 13.1468 46.7327 13.4308 47.4047 13.4308Z" fill="#2F2F2F"/>
<path d="M3.72 247.508H12V248.564H3.72L3.72 247.508ZM3.72 244.832H4.656V251.228H3.72L3.72 244.832ZM3.564 238.699C3.564 238.099 3.636 237.591 3.78 237.175C3.924 236.751 4.164 236.415 4.5 236.167C4.828 235.911 5.268 235.727 5.82 235.615C6.372 235.495 7.052 235.435 7.86 235.435C8.668 235.435 9.348 235.495 9.9 235.615C10.452 235.727 10.896 235.911 11.232 236.167C11.56 236.415 11.796 236.751 11.94 237.175C12.084 237.591 12.156 238.099 12.156 238.699C12.156 239.299 12.084 239.811 11.94 240.235C11.796 240.651 11.56 240.987 11.232 241.243C10.896 241.499 10.452 241.687 9.9 241.807C9.348 241.919 8.668 241.975 7.86 241.975C7.052 241.975 6.372 241.919 5.82 241.807C5.268 241.687 4.828 241.499 4.5 241.243C4.164 240.987 3.924 240.651 3.78 240.235C3.636 239.811 3.564 239.299 3.564 238.699ZM4.512 238.699C4.512 239.243 4.616 239.675 4.824 239.995C5.032 240.307 5.38 240.531 5.868 240.667C6.348 240.795 7.012 240.859 7.86 240.859C8.7 240.859 9.364 240.795 9.852 240.667C10.34 240.531 10.688 240.307 10.896 239.995C11.104 239.675 11.208 239.243 11.208 238.699C11.208 238.155 11.104 237.727 10.896 237.415C10.688 237.095 10.34 236.871 9.852 236.743C9.364 236.607 8.7 236.539 7.86 236.539C7.012 236.539 6.348 236.607 5.868 236.743C5.38 236.871 5.032 237.095 4.824 237.415C4.616 237.727 4.512 238.155 4.512 238.699ZM3.72 228.847H12V229.903H3.72V228.847ZM3.72 226.171H4.656L4.656 232.567H3.72L3.72 226.171ZM3.72 220.302C3.72 220.206 3.748 220.122 3.804 220.05C3.852 219.978 3.92 219.93 4.008 219.906L12 217.242V218.334L5.208 220.482C5.096 220.514 4.984 220.55 4.872 220.59C4.752 220.622 4.64 220.654 4.536 220.686V221.022C4.64 221.054 4.752 221.086 4.872 221.118C4.984 221.15 5.096 221.186 5.208 221.226L12 223.374V224.466L4.008 221.802C3.92 221.778 3.852 221.73 3.804 221.658C3.748 221.586 3.72 221.502 3.72 221.406V220.302ZM8.496 218.766H9.408V222.966H8.496V218.766ZM3.72 213.057H10.32C10.592 213.057 10.792 212.993 10.92 212.865C11.048 212.729 11.112 212.525 11.112 212.253V209.265L11.928 209.217C11.968 209.737 11.992 210.269 12 210.813C12.008 211.349 12.012 211.885 12.012 212.421C12.012 213.029 11.864 213.461 11.568 213.717C11.272 213.973 10.9 214.101 10.452 214.101H3.72V213.057ZM3.708 199.998C3.708 199.598 3.708 199.198 3.708 198.798C3.708 198.39 3.716 197.99 3.732 197.598C3.74 197.198 3.756 196.814 3.78 196.446L4.608 196.494V199.818C4.608 200.066 4.672 200.25 4.8 200.37C4.92 200.482 5.12 200.538 5.4 200.538H10.32C10.6 200.538 10.804 200.482 10.932 200.37C11.06 200.25 11.124 200.066 11.124 199.818V196.494L11.94 196.446C11.964 196.814 11.98 197.198 11.988 197.598C11.996 197.99 12 198.39 12 198.798C12.008 199.198 12.012 199.598 12.012 199.998C12.012 200.486 11.884 200.874 11.628 201.162C11.364 201.442 11.012 201.586 10.572 201.594H5.148C4.7 201.586 4.348 201.442 4.092 201.162C3.836 200.874 3.708 200.486 3.708 199.998ZM7.2 201.378L7.2 196.962H8.052V201.378H7.2ZM3.72 186.436H11.58C11.86 186.436 12 186.572 12 186.844V187.876C12 187.996 11.972 188.092 11.916 188.164C11.86 188.236 11.776 188.296 11.664 188.344L5.796 191.14C5.636 191.212 5.456 191.296 5.256 191.392C5.056 191.488 4.872 191.56 4.704 191.608V191.8C4.88 191.784 5.06 191.772 5.244 191.764C5.428 191.756 5.612 191.752 5.796 191.752H12V192.808H4.14C3.86 192.808 3.72 192.668 3.72 192.388V191.392C3.72 191.272 3.748 191.176 3.804 191.104C3.86 191.032 3.944 190.972 4.056 190.924L9.78 188.212C9.948 188.124 10.14 188.032 10.356 187.936C10.564 187.832 10.772 187.736 10.98 187.648V187.444C10.764 187.452 10.552 187.46 10.344 187.468C10.136 187.476 9.928 187.48 9.72 187.48H3.72V186.436ZM3.708 180.823C3.708 180.423 3.708 180.023 3.708 179.623C3.708 179.215 3.716 178.815 3.732 178.423C3.74 178.023 3.756 177.639 3.78 177.271L4.608 177.319V180.643C4.608 180.891 4.672 181.075 4.8 181.195C4.92 181.307 5.12 181.363 5.4 181.363H10.32C10.6 181.363 10.804 181.307 10.932 181.195C11.06 181.075 11.124 180.891 11.124 180.643L11.124 177.319L11.94 177.271C11.964 177.639 11.98 178.023 11.988 178.423C11.996 178.815 12 179.215 12 179.623C12.008 180.023 12.012 180.423 12.012 180.823C12.012 181.311 11.884 181.699 11.628 181.987C11.364 182.267 11.012 182.411 10.572 182.419H5.148C4.7 182.411 4.348 182.267 4.092 181.987C3.836 181.699 3.708 181.311 3.708 180.823ZM7.2 182.203V177.787H8.052L8.052 182.203H7.2ZM3.612 170.776C3.612 170.136 3.684 169.62 3.828 169.228C3.964 168.836 4.204 168.552 4.548 168.376C4.892 168.192 5.376 168.1 6 168.1C6.448 168.1 6.824 168.152 7.128 168.256C7.424 168.36 7.656 168.524 7.824 168.748C7.984 168.964 8.088 169.256 8.136 169.624H8.196C8.228 169.488 8.296 169.356 8.4 169.228C8.496 169.092 8.628 168.968 8.796 168.856C8.956 168.744 9.152 168.66 9.384 168.604L12 167.8V168.928L9.408 169.66C9.096 169.764 8.876 169.904 8.748 170.08C8.612 170.256 8.544 170.484 8.544 170.764C8.544 171.252 8.544 171.676 8.544 172.036C8.536 172.396 8.528 172.696 8.52 172.936C8.512 173.176 8.508 173.368 8.508 173.512L7.632 173.476L7.632 170.8C7.624 170.392 7.576 170.072 7.488 169.84C7.4 169.6 7.244 169.428 7.02 169.324C6.788 169.22 6.468 169.168 6.06 169.168C5.652 169.168 5.34 169.22 5.124 169.324C4.9 169.428 4.744 169.6 4.656 169.84C4.568 170.072 4.524 170.392 4.524 170.8C4.524 171.456 4.528 172.024 4.536 172.504C4.544 172.976 4.548 173.296 4.548 173.464L3.72 173.632C3.688 173.328 3.664 173.044 3.648 172.78C3.632 172.516 3.624 172.228 3.624 171.916C3.616 171.596 3.612 171.216 3.612 170.776ZM3.72 172.588H12V173.632H3.72V172.588ZM3.564 161.058C3.564 160.778 3.572 160.506 3.588 160.242C3.604 159.978 3.632 159.722 3.672 159.474C3.704 159.226 3.752 158.986 3.816 158.754L4.608 158.862C4.584 159.11 4.564 159.362 4.548 159.618C4.532 159.866 4.524 160.106 4.524 160.338C4.516 160.57 4.512 160.79 4.512 160.998C4.512 161.446 4.556 161.826 4.644 162.138C4.724 162.442 4.884 162.686 5.124 162.87C5.364 163.054 5.708 163.19 6.156 163.278C6.604 163.358 7.188 163.398 7.908 163.398C8.724 163.398 9.376 163.342 9.864 163.23C10.344 163.118 10.692 162.93 10.908 162.666C11.124 162.402 11.232 162.05 11.232 161.61C11.232 161.306 11.188 161.03 11.1 160.782C11.012 160.526 10.9 160.29 10.764 160.074C10.62 159.85 10.472 159.634 10.32 159.426L10.968 159.282C11.136 159.426 11.312 159.626 11.496 159.882C11.68 160.13 11.836 160.422 11.964 160.758C12.092 161.094 12.156 161.474 12.156 161.898C12.156 162.514 12.004 163.018 11.7 163.41C11.388 163.794 10.916 164.074 10.284 164.25C9.644 164.426 8.828 164.514 7.836 164.514C6.74 164.514 5.884 164.406 5.268 164.19C4.644 163.966 4.204 163.602 3.948 163.098C3.692 162.586 3.564 161.906 3.564 161.058ZM7.212 158.538H12V159.306L10.776 159.474L10.536 159.57H7.212V158.538ZM3.72 149.086L9.192 151.882V152.83L3.72 155.638V154.51L7.212 152.77C7.364 152.698 7.52 152.634 7.68 152.578C7.84 152.514 7.996 152.454 8.148 152.398V152.314C7.996 152.258 7.84 152.198 7.68 152.134C7.52 152.07 7.368 152.006 7.224 151.942L3.72 150.202V149.086ZM8.448 151.834H12V152.89H8.448V151.834ZM2.52 138.79L3.012 138.658C3.404 139.458 4.036 140.042 4.908 140.41C5.772 140.77 6.884 140.95 8.244 140.95C9.132 140.95 9.92 140.87 10.608 140.71C11.296 140.55 11.876 140.302 12.348 139.966C12.828 139.63 13.208 139.194 13.488 138.658L13.98 138.79C13.556 139.878 12.884 140.678 11.964 141.19C11.036 141.694 9.8 141.946 8.256 141.946C6.704 141.946 5.464 141.694 4.536 141.19C3.608 140.678 2.936 139.878 2.52 138.79ZM3.72 129.843L7.152 132.255C7.256 132.327 7.348 132.399 7.428 132.471C7.5 132.535 7.584 132.615 7.68 132.711H7.704C7.8 132.607 7.896 132.511 7.992 132.423C8.088 132.335 8.184 132.259 8.28 132.195L12 129.675V130.863L7.668 133.803L3.72 130.995V129.843ZM3.72 134.451H6.312C6.552 134.451 6.78 134.463 6.996 134.487C7.212 134.511 7.436 134.547 7.668 134.595C7.892 134.555 8.116 134.523 8.34 134.499C8.564 134.467 8.78 134.451 8.988 134.451H12V135.495H3.72V134.451ZM7.26 133.227H8.112V134.823H7.26V133.227ZM3.72 116.445L11.688 118.125C11.776 118.149 11.852 118.197 11.916 118.269C11.972 118.341 12 118.433 12 118.545V119.745C12 119.849 11.972 119.941 11.916 120.021C11.852 120.093 11.772 120.137 11.676 120.153L5.448 121.449C5.288 121.481 5.132 121.513 4.98 121.545C4.82 121.577 4.664 121.609 4.512 121.641V121.893C4.664 121.925 4.82 121.957 4.98 121.989C5.14 122.013 5.296 122.041 5.448 122.073L11.676 123.357C11.772 123.381 11.852 123.433 11.916 123.513C11.972 123.585 12 123.673 12 123.777V124.989C12 125.093 11.972 125.185 11.916 125.265C11.852 125.337 11.776 125.381 11.688 125.397L3.72 127.077V125.961L10.176 124.665C10.328 124.633 10.492 124.605 10.668 124.581C10.836 124.557 11.012 124.529 11.196 124.497V124.221C11.012 124.189 10.836 124.157 10.668 124.125C10.5 124.093 10.336 124.061 10.176 124.029L4.068 122.745C3.964 122.729 3.88 122.685 3.816 122.613C3.752 122.533 3.72 122.441 3.72 122.337V121.185C3.72 121.081 3.752 120.993 3.816 120.921C3.88 120.849 3.964 120.801 4.068 120.777L10.176 119.493C10.352 119.453 10.524 119.421 10.692 119.397C10.86 119.365 11.028 119.341 11.196 119.325V119.025C11.028 119.001 10.86 118.977 10.692 118.953C10.516 118.929 10.348 118.901 10.188 118.869L3.72 117.561V116.445ZM3.72 111.97H12V113.026H3.72V111.97ZM7.116 108.022H8.028V112.066H7.116V108.022ZM3.72 107.098H12V108.154H3.72V107.098ZM2.52 103.808C2.936 102.712 3.608 101.912 4.536 101.408C5.464 100.896 6.704 100.64 8.256 100.64C9.8 100.64 11.036 100.896 11.964 101.408C12.884 101.912 13.556 102.712 13.98 103.808L13.488 103.928C13.208 103.392 12.828 102.96 12.348 102.632C11.876 102.296 11.296 102.048 10.608 101.888C9.92 101.728 9.132 101.648 8.244 101.648C6.884 101.648 5.772 101.828 4.908 102.188C4.036 102.549 3.404 103.128 3.012 103.928L2.52 103.808Z" fill="#2F2F2F"/>
<path d="M69.868 384.72C70.156 384.72 70.3 384.868 70.3 385.164L70.648 393H69.592L69.292 385.596H69.04L67.192 391.704C67.128 391.944 66.976 392.064 66.736 392.064H65.788C65.54 392.064 65.38 391.944 65.308 391.704L63.46 385.596H63.22L62.932 393H61.876L62.2 385.164C62.216 384.868 62.364 384.72 62.644 384.72H63.844C64.068 384.72 64.216 384.84 64.288 385.08L65.836 390.132C65.9 390.316 65.952 390.5 65.992 390.684C66.04 390.868 66.092 391.056 66.148 391.248H66.364C66.42 391.056 66.472 390.868 66.52 390.684C66.568 390.5 66.62 390.308 66.676 390.108L68.224 385.08C68.288 384.84 68.44 384.72 68.68 384.72H69.868ZM77.5314 384.564C78.1314 384.564 78.6394 384.636 79.0554 384.78C79.4794 384.924 79.8154 385.164 80.0634 385.5C80.3194 385.828 80.5034 386.268 80.6154 386.82C80.7354 387.372 80.7954 388.052 80.7954 388.86C80.7954 389.668 80.7354 390.348 80.6154 390.9C80.5034 391.452 80.3194 391.896 80.0634 392.232C79.8154 392.56 79.4794 392.796 79.0554 392.94C78.6394 393.084 78.1314 393.156 77.5314 393.156C76.9314 393.156 76.4194 393.084 75.9954 392.94C75.5794 392.796 75.2434 392.56 74.9874 392.232C74.7314 391.896 74.5434 391.452 74.4234 390.9C74.3114 390.348 74.2554 389.668 74.2554 388.86C74.2554 388.052 74.3114 387.372 74.4234 386.82C74.5434 386.268 74.7314 385.828 74.9874 385.5C75.2434 385.164 75.5794 384.924 75.9954 384.78C76.4194 384.636 76.9314 384.564 77.5314 384.564ZM77.5314 385.512C76.9874 385.512 76.5554 385.616 76.2354 385.824C75.9234 386.032 75.6994 386.38 75.5634 386.868C75.4354 387.348 75.3714 388.012 75.3714 388.86C75.3714 389.7 75.4354 390.364 75.5634 390.852C75.6994 391.34 75.9234 391.688 76.2354 391.896C76.5554 392.104 76.9874 392.208 77.5314 392.208C78.0754 392.208 78.5034 392.104 78.8154 391.896C79.1354 391.688 79.3594 391.34 79.4874 390.852C79.6234 390.364 79.6914 389.7 79.6914 388.86C79.6914 388.012 79.6234 387.348 79.4874 386.868C79.3594 386.38 79.1354 386.032 78.8154 385.824C78.5034 385.616 78.0754 385.512 77.5314 385.512ZM90.9551 384.72V392.58C90.9551 392.86 90.8191 393 90.5471 393H89.5151C89.3951 393 89.2991 392.972 89.2271 392.916C89.1551 392.86 89.0951 392.776 89.0471 392.664L86.2511 386.796C86.1791 386.636 86.0951 386.456 85.9991 386.256C85.9031 386.056 85.8311 385.872 85.7831 385.704H85.5911C85.6071 385.88 85.6191 386.06 85.6271 386.244C85.6351 386.428 85.6391 386.612 85.6391 386.796V393H84.5831V385.14C84.5831 384.86 84.7231 384.72 85.0031 384.72H85.9991C86.1191 384.72 86.2151 384.748 86.2871 384.804C86.3591 384.86 86.4191 384.944 86.4671 385.056L89.1791 390.78C89.2671 390.948 89.3591 391.14 89.4551 391.356C89.5591 391.564 89.6551 391.772 89.7431 391.98H89.9471C89.9391 391.764 89.9311 391.552 89.9231 391.344C89.9151 391.136 89.9111 390.928 89.9111 390.72V384.72H90.9551ZM98.008 384.72V393H96.952V384.72H98.008ZM100.684 384.72V385.656H94.288V384.72H100.684ZM105.073 384.72V393H104.017V384.72H105.073ZM109.021 388.116V389.028H104.977V388.116H109.021ZM109.945 384.72V393H108.889V384.72H109.945Z" fill="#2F2F2F"/>
<g filter="url(#filter0_d_634_7758)">
<path d="M167 323.175H155C149.477 323.175 145 327.652 145 333.175V335.175C145 340.698 149.477 345.175 155 345.175H167C172.523 345.175 177 340.698 177 335.175V333.175C177 327.652 172.523 323.175 167 323.175Z" fill="#0087FF"/>
</g>
<g filter="url(#filter1_d_634_7758)">
<path d="M214 233.175H202C196.477 233.175 192 237.652 192 243.175V335.175C192 340.698 196.477 345.175 202 345.175H214C219.523 345.175 224 340.698 224 335.175V243.175C224 237.652 219.523 233.175 214 233.175Z" fill="#0087FF"/>
</g>
<g filter="url(#filter2_d_634_7758)">
<path d="M261 152.175H249C243.477 152.175 239 156.652 239 162.175V335.175C239 340.698 243.477 345.175 249 345.175H261C266.523 345.175 271 340.698 271 335.175V162.175C271 156.652 266.523 152.175 261 152.175Z" fill="#0087FF"/>
</g>
<g filter="url(#filter3_d_634_7758)">
<path d="M308 73.1748H296C290.477 73.1748 286 77.652 286 83.1748V335.175C286 340.698 290.477 345.175 296 345.175H308C313.523 345.175 318 340.698 318 335.175V83.1748C318 77.652 313.523 73.1748 308 73.1748Z" fill="#0087FF"/>
</g>
<g filter="url(#filter4_d_634_7758)">
<path d="M355 34.1748H343C337.477 34.1748 333 38.652 333 44.1748V335.175C333 340.698 337.477 345.175 343 345.175H355C360.523 345.175 365 340.698 365 335.175V44.1748C365 38.652 360.523 34.1748 355 34.1748Z" fill="#0087FF"/>
</g>
<g filter="url(#filter5_d_634_7758)">
<path d="M402 163.175H390C384.477 163.175 380 167.652 380 173.175V335.175C380 340.698 384.477 345.175 390 345.175H402C407.523 345.175 412 340.698 412 335.175V173.175C412 167.652 407.523 163.175 402 163.175Z" fill="#0087FF"/>
</g>
<g filter="url(#filter6_d_634_7758)">
<path d="M449 173.175H437C431.477 173.175 427 177.652 427 183.175V335.175C427 340.698 431.477 345.175 437 345.175H449C454.523 345.175 459 340.698 459 335.175V183.175C459 177.652 454.523 173.175 449 173.175Z" fill="#0087FF"/>
</g>
<g filter="url(#filter7_d_634_7758)">
<path d="M496 255.175H484C478.477 255.175 474 259.652 474 265.175V335.175C474 340.698 478.477 345.175 484 345.175H496C501.523 345.175 506 340.698 506 335.175V265.175C506 259.652 501.523 255.175 496 255.175Z" fill="#0087FF"/>
</g>
<g filter="url(#filter8_d_634_7758)">
<path d="M544.589 328.175H529.589C524.894 328.175 521.089 331.98 521.089 336.675C521.089 341.369 524.894 345.175 529.589 345.175H544.589C549.283 345.175 553.089 341.369 553.089 336.675C553.089 331.98 549.283 328.175 544.589 328.175Z" fill="#0087FF"/>
</g>
<defs>
<filter id="filter0_d_634_7758" x="129" y="310.175" width="76" height="66" filterUnits="userSpaceOnUse" color-interpolation-filters="sRGB">
<feFlood flood-opacity="0" result="BackgroundImageFix"/>
<feColorMatrix in="SourceAlpha" type="matrix" values="0 0 0 0 0 0 0 0 0 0 0 0 0 0 0 0 0 0 127 0" result="hardAlpha"/>
<feOffset dx="6" dy="9"/>
<feGaussianBlur stdDeviation="11"/>
<feComposite in2="hardAlpha" operator="out"/>
<feColorMatrix type="matrix" values="0 0 0 0 0 0 0 0 0 0.529412 0 0 0 0 1 0 0 0 0.08 0"/>
<feBlend mode="normal" in2="BackgroundImageFix" result="effect1_dropShadow_634_7758"/>
<feBlend mode="normal" in="SourceGraphic" in2="effect1_dropShadow_634_7758" result="shape"/>
</filter>
<filter id="filter1_d_634_7758" x="176" y="220.175" width="76" height="156" filterUnits="userSpaceOnUse" color-interpolation-filters="sRGB">
<feFlood flood-opacity="0" result="BackgroundImageFix"/>
<feColorMatrix in="SourceAlpha" type="matrix" values="0 0 0 0 0 0 0 0 0 0 0 0 0 0 0 0 0 0 127 0" result="hardAlpha"/>
<feOffset dx="6" dy="9"/>
<feGaussianBlur stdDeviation="11"/>
<feComposite in2="hardAlpha" operator="out"/>
<feColorMatrix type="matrix" values="0 0 0 0 0 0 0 0 0 0.529412 0 0 0 0 1 0 0 0 0.08 0"/>
<feBlend mode="normal" in2="BackgroundImageFix" result="effect1_dropShadow_634_7758"/>
<feBlend mode="normal" in="SourceGraphic" in2="effect1_dropShadow_634_7758" result="shape"/>
</filter>
<filter id="filter2_d_634_7758" x="223" y="139.175" width="76" height="237" filterUnits="userSpaceOnUse" color-interpolation-filters="sRGB">
<feFlood flood-opacity="0" result="BackgroundImageFix"/>
<feColorMatrix in="SourceAlpha" type="matrix" values="0 0 0 0 0 0 0 0 0 0 0 0 0 0 0 0 0 0 127 0" result="hardAlpha"/>
<feOffset dx="6" dy="9"/>
<feGaussianBlur stdDeviation="11"/>
<feComposite in2="hardAlpha" operator="out"/>
<feColorMatrix type="matrix" values="0 0 0 0 0 0 0 0 0 0.529412 0 0 0 0 1 0 0 0 0.08 0"/>
<feBlend mode="normal" in2="BackgroundImageFix" result="effect1_dropShadow_634_7758"/>
<feBlend mode="normal" in="SourceGraphic" in2="effect1_dropShadow_634_7758" result="shape"/>
</filter>
<filter id="filter3_d_634_7758" x="270" y="60.1748" width="76" height="316" filterUnits="userSpaceOnUse" color-interpolation-filters="sRGB">
<feFlood flood-opacity="0" result="BackgroundImageFix"/>
<feColorMatrix in="SourceAlpha" type="matrix" values="0 0 0 0 0 0 0 0 0 0 0 0 0 0 0 0 0 0 127 0" result="hardAlpha"/>
<feOffset dx="6" dy="9"/>
<feGaussianBlur stdDeviation="11"/>
<feComposite in2="hardAlpha" operator="out"/>
<feColorMatrix type="matrix" values="0 0 0 0 0 0 0 0 0 0.529412 0 0 0 0 1 0 0 0 0.08 0"/>
<feBlend mode="normal" in2="BackgroundImageFix" result="effect1_dropShadow_634_7758"/>
<feBlend mode="normal" in="SourceGraphic" in2="effect1_dropShadow_634_7758" result="shape"/>
</filter>
<filter id="filter4_d_634_7758" x="317" y="21.1748" width="76" height="355" filterUnits="userSpaceOnUse" color-interpolation-filters="sRGB">
<feFlood flood-opacity="0" result="BackgroundImageFix"/>
<feColorMatrix in="SourceAlpha" type="matrix" values="0 0 0 0 0 0 0 0 0 0 0 0 0 0 0 0 0 0 127 0" result="hardAlpha"/>
<feOffset dx="6" dy="9"/>
<feGaussianBlur stdDeviation="11"/>
<feComposite in2="hardAlpha" operator="out"/>
<feColorMatrix type="matrix" values="0 0 0 0 0 0 0 0 0 0.529412 0 0 0 0 1 0 0 0 0.08 0"/>
<feBlend mode="normal" in2="BackgroundImageFix" result="effect1_dropShadow_634_7758"/>
<feBlend mode="normal" in="SourceGraphic" in2="effect1_dropShadow_634_7758" result="shape"/>
</filter>
<filter id="filter5_d_634_7758" x="364" y="150.175" width="76" height="226" filterUnits="userSpaceOnUse" color-interpolation-filters="sRGB">
<feFlood flood-opacity="0" result="BackgroundImageFix"/>
<feColorMatrix in="SourceAlpha" type="matrix" values="0 0 0 0 0 0 0 0 0 0 0 0 0 0 0 0 0 0 127 0" result="hardAlpha"/>
<feOffset dx="6" dy="9"/>
<feGaussianBlur stdDeviation="11"/>
<feComposite in2="hardAlpha" operator="out"/>
<feColorMatrix type="matrix" values="0 0 0 0 0 0 0 0 0 0.529412 0 0 0 0 1 0 0 0 0.08 0"/>
<feBlend mode="normal" in2="BackgroundImageFix" result="effect1_dropShadow_634_7758"/>
<feBlend mode="normal" in="SourceGraphic" in2="effect1_dropShadow_634_7758" result="shape"/>
</filter>
<filter id="filter6_d_634_7758" x="411" y="160.175" width="76" height="216" filterUnits="userSpaceOnUse" color-interpolation-filters="sRGB">
<feFlood flood-opacity="0" result="BackgroundImageFix"/>
<feColorMatrix in="SourceAlpha" type="matrix" values="0 0 0 0 0 0 0 0 0 0 0 0 0 0 0 0 0 0 127 0" result="hardAlpha"/>
<feOffset dx="6" dy="9"/>
<feGaussianBlur stdDeviation="11"/>
<feComposite in2="hardAlpha" operator="out"/>
<feColorMatrix type="matrix" values="0 0 0 0 0 0 0 0 0 0.529412 0 0 0 0 1 0 0 0 0.08 0"/>
<feBlend mode="normal" in2="BackgroundImageFix" result="effect1_dropShadow_634_7758"/>
<feBlend mode="normal" in="SourceGraphic" in2="effect1_dropShadow_634_7758" result="shape"/>
</filter>
<filter id="filter7_d_634_7758" x="458" y="242.175" width="76" height="134" filterUnits="userSpaceOnUse" color-interpolation-filters="sRGB">
<feFlood flood-opacity="0" result="BackgroundImageFix"/>
<feColorMatrix in="SourceAlpha" type="matrix" values="0 0 0 0 0 0 0 0 0 0 0 0 0 0 0 0 0 0 127 0" result="hardAlpha"/>
<feOffset dx="6" dy="9"/>
<feGaussianBlur stdDeviation="11"/>
<feComposite in2="hardAlpha" operator="out"/>
<feColorMatrix type="matrix" values="0 0 0 0 0 0 0 0 0 0.529412 0 0 0 0 1 0 0 0 0.08 0"/>
<feBlend mode="normal" in2="BackgroundImageFix" result="effect1_dropShadow_634_7758"/>
<feBlend mode="normal" in="SourceGraphic" in2="effect1_dropShadow_634_7758" result="shape"/>
</filter>
<filter id="filter8_d_634_7758" x="505.089" y="315.175" width="76" height="61" filterUnits="userSpaceOnUse" color-interpolation-filters="sRGB">
<feFlood flood-opacity="0" result="BackgroundImageFix"/>
<feColorMatrix in="SourceAlpha" type="matrix" values="0 0 0 0 0 0 0 0 0 0 0 0 0 0 0 0 0 0 127 0" result="hardAlpha"/>
<feOffset dx="6" dy="9"/>
<feGaussianBlur stdDeviation="11"/>
<feComposite in2="hardAlpha" operator="out"/>
<feColorMatrix type="matrix" values="0 0 0 0 0 0 0 0 0 0.529412 0 0 0 0 1 0 0 0 0.08 0"/>
<feBlend mode="normal" in2="BackgroundImageFix" result="effect1_dropShadow_634_7758"/>
<feBlend mode="normal" in="SourceGraphic" in2="effect1_dropShadow_634_7758" result="shape"/>
</filter>
</defs>
</svg>
