<svg width="619" height="395" viewBox="0 0 619 395" fill="none" xmlns="http://www.w3.org/2000/svg">
<path d="M84.5889 6V345" stroke="#FAFBFC"/>
<path d="M131.589 6V345" stroke="#FAFBFC"/>
<path d="M178.589 6V345" stroke="#FAFBFC"/>
<path d="M225.589 6V345" stroke="#FAFBFC"/>
<path d="M272.589 6V345" stroke="#FAFBFC"/>
<path d="M319.589 6V345" stroke="#FAFBFC"/>
<path d="M367.589 6V345" stroke="#FAFBFC"/>
<path d="M414.589 6V345" stroke="#FAFBFC"/>
<path d="M461.589 6V345" stroke="#FAFBFC"/>
<path d="M508.589 6V345" stroke="#FAFBFC"/>
<path d="M555.589 6V345" stroke="#FAFBFC"/>
<path d="M602.589 6V345" stroke="#FAFBFC"/>
<path d="M61.0889 345.676L603 345.024" stroke="#FAFBFC"/>
<path d="M61 290H603" stroke="#FAFBFC"/>
<path d="M61 233H603" stroke="#FAFBFC"/>
<path d="M61 177H603" stroke="#FAFBFC"/>
<path d="M61 120H603" stroke="#FAFBFC"/>
<path d="M61 64H603" stroke="#FAFBFC"/>
<path d="M61 6H603" stroke="#FAFBFC"/>
<path d="M61 346H603" stroke="#FAFBFC"/>
<path d="M60.5889 6V345" stroke="#FAFBFC"/>
<path d="M61.3552 366.256L62.0752 366.208C62.4752 366.176 62.7832 366.036 62.9992 365.788C63.2232 365.532 63.3352 365.184 63.3352 364.744V358.54H64.3192V364.756C64.3192 365.452 64.1392 365.996 63.7792 366.388C63.4192 366.78 62.8952 366.996 62.2072 367.036L61.4272 367.084L61.3552 366.256ZM68.6412 361.012C69.3852 361.012 69.9372 361.204 70.2972 361.588C70.6652 361.964 70.8492 362.54 70.8492 363.316V367H69.9012V366.004C69.7492 366.348 69.5172 366.616 69.2052 366.808C68.8932 366.992 68.5332 367.084 68.1252 367.084C67.7492 367.084 67.4012 367.008 67.0812 366.856C66.7692 366.704 66.5212 366.492 66.3372 366.22C66.1532 365.948 66.0612 365.648 66.0612 365.32C66.0612 364.88 66.1732 364.54 66.3972 364.3C66.6212 364.052 66.9892 363.876 67.5012 363.772C68.0132 363.66 68.7252 363.604 69.6372 363.604H69.9012V363.208C69.9012 362.72 69.8012 362.368 69.6012 362.152C69.4012 361.928 69.0772 361.816 68.6292 361.816C67.9572 361.816 67.2892 362.024 66.6252 362.44L66.3012 361.732C66.6052 361.516 66.9692 361.344 67.3932 361.216C67.8252 361.08 68.2412 361.012 68.6412 361.012ZM68.2572 366.316C68.7372 366.316 69.1292 366.156 69.4332 365.836C69.7452 365.508 69.9012 365.088 69.9012 364.576V364.228H69.6852C68.9812 364.228 68.4452 364.26 68.0772 364.324C67.7092 364.38 67.4452 364.48 67.2852 364.624C67.1332 364.76 67.0572 364.964 67.0572 365.236C67.0572 365.548 67.1692 365.808 67.3932 366.016C67.6252 366.216 67.9132 366.316 68.2572 366.316ZM75.5685 361.012C76.9685 361.012 77.6685 361.784 77.6685 363.328V367H76.6965V363.388C76.6965 362.844 76.5885 362.448 76.3725 362.2C76.1645 361.952 75.8285 361.828 75.3645 361.828C74.8285 361.828 74.4005 361.992 74.0805 362.32C73.7605 362.648 73.6005 363.092 73.6005 363.652V367H72.6285V361.156H73.5885V362.116C73.7805 361.756 74.0485 361.484 74.3925 361.3C74.7365 361.108 75.1285 361.012 75.5685 361.012Z" fill="#2F2F2F"/>
<path d="M106.107 367V358.54H111.339V359.368H107.079V362.284H111.099V363.112H107.079V367H106.107ZM117.421 364.228H113.149C113.181 364.908 113.365 365.424 113.701 365.776C114.037 366.12 114.513 366.292 115.129 366.292C115.809 366.292 116.433 366.06 117.001 365.596L117.325 366.304C117.069 366.544 116.741 366.736 116.341 366.88C115.941 367.016 115.533 367.084 115.117 367.084C114.205 367.084 113.485 366.816 112.957 366.28C112.437 365.744 112.177 365.004 112.177 364.06C112.177 363.46 112.293 362.932 112.525 362.476C112.757 362.012 113.081 361.652 113.497 361.396C113.921 361.14 114.401 361.012 114.937 361.012C115.713 361.012 116.321 361.268 116.761 361.78C117.201 362.284 117.421 362.98 117.421 363.868V364.228ZM114.949 361.768C114.437 361.768 114.025 361.928 113.713 362.248C113.409 362.568 113.229 363.02 113.173 363.604H116.569C116.553 363.012 116.405 362.56 116.125 362.248C115.845 361.928 115.453 361.768 114.949 361.768ZM121.793 361.012C122.305 361.012 122.757 361.136 123.149 361.384C123.541 361.632 123.845 361.984 124.061 362.44C124.277 362.896 124.385 363.424 124.385 364.024C124.385 364.632 124.277 365.168 124.061 365.632C123.845 366.088 123.541 366.444 123.149 366.7C122.757 366.956 122.305 367.084 121.793 367.084C121.337 367.084 120.937 366.984 120.593 366.784C120.257 366.584 120.001 366.3 119.825 365.932V367H118.853V358.54H119.825V362.164C120.001 361.796 120.257 361.512 120.593 361.312C120.937 361.112 121.337 361.012 121.793 361.012ZM121.601 366.28C122.169 366.28 122.609 366.084 122.921 365.692C123.233 365.292 123.389 364.736 123.389 364.024C123.389 363.328 123.233 362.788 122.921 362.404C122.609 362.02 122.169 361.828 121.601 361.828C121.033 361.828 120.593 362.02 120.281 362.404C119.977 362.788 119.825 363.336 119.825 364.048C119.825 364.76 119.977 365.312 120.281 365.704C120.593 366.088 121.033 366.28 121.601 366.28Z" fill="#2F2F2F"/>
<path d="M159.39 358.54H160.194V367H159.294L159.306 360.448L156.558 365.656H155.862L153.102 360.496L153.114 367H152.202V358.54H153.018L156.222 364.672L159.39 358.54ZM164.524 361.012C165.268 361.012 165.82 361.204 166.18 361.588C166.548 361.964 166.732 362.54 166.732 363.316V367H165.784V366.004C165.632 366.348 165.4 366.616 165.088 366.808C164.776 366.992 164.416 367.084 164.008 367.084C163.632 367.084 163.284 367.008 162.964 366.856C162.652 366.704 162.404 366.492 162.22 366.22C162.036 365.948 161.944 365.648 161.944 365.32C161.944 364.88 162.056 364.54 162.28 364.3C162.504 364.052 162.872 363.876 163.384 363.772C163.896 363.66 164.608 363.604 165.52 363.604H165.784V363.208C165.784 362.72 165.684 362.368 165.484 362.152C165.284 361.928 164.96 361.816 164.512 361.816C163.84 361.816 163.172 362.024 162.508 362.44L162.184 361.732C162.488 361.516 162.852 361.344 163.276 361.216C163.708 361.08 164.124 361.012 164.524 361.012ZM164.14 366.316C164.62 366.316 165.012 366.156 165.316 365.836C165.628 365.508 165.784 365.088 165.784 364.576V364.228H165.568C164.864 364.228 164.328 364.26 163.96 364.324C163.592 364.38 163.328 364.48 163.168 364.624C163.016 364.76 162.94 364.964 162.94 365.236C162.94 365.548 163.052 365.808 163.276 366.016C163.508 366.216 163.796 366.316 164.14 366.316ZM162.976 358.66H164.044V359.68H162.976V358.66ZM165.028 358.66H166.096V359.68H165.028V358.66ZM171.823 361.852L171.187 361.912C170.587 361.968 170.151 362.156 169.879 362.476C169.615 362.796 169.483 363.192 169.483 363.664V367H168.511V361.156H169.459V362.176C169.787 361.496 170.431 361.116 171.391 361.036L171.739 361.012L171.823 361.852Z" fill="#2F2F2F"/>
<path d="M205.545 367L204.609 364.828H200.193L199.257 367H198.249L201.969 358.54H202.821L206.541 367H205.545ZM200.541 364.012H204.261L202.401 359.68L200.541 364.012ZM210.592 361.012C211.104 361.012 211.556 361.14 211.948 361.396C212.34 361.652 212.644 362.012 212.86 362.476C213.076 362.932 213.184 363.464 213.184 364.072C213.184 364.68 213.076 365.212 212.86 365.668C212.644 366.116 212.34 366.464 211.948 366.712C211.564 366.96 211.112 367.084 210.592 367.084C210.136 367.084 209.736 366.984 209.392 366.784C209.056 366.584 208.8 366.3 208.624 365.932V369.16H207.652V361.156H208.624V362.164C208.8 361.796 209.056 361.512 209.392 361.312C209.736 361.112 210.136 361.012 210.592 361.012ZM210.4 366.28C210.968 366.28 211.408 366.088 211.72 365.704C212.032 365.32 212.188 364.776 212.188 364.072C212.188 363.368 212.032 362.82 211.72 362.428C211.408 362.028 210.968 361.828 210.4 361.828C209.832 361.828 209.392 362.02 209.08 362.404C208.776 362.788 208.624 363.336 208.624 364.048C208.624 364.76 208.776 365.312 209.08 365.704C209.392 366.088 209.832 366.28 210.4 366.28ZM217.948 361.852L217.312 361.912C216.712 361.968 216.276 362.156 216.004 362.476C215.74 362.796 215.608 363.192 215.608 363.664V367H214.636V361.156H215.584V362.176C215.912 361.496 216.556 361.116 217.516 361.036L217.864 361.012L217.948 361.852Z" fill="#2F2F2F"/>
<path d="M246.359 367V358.54H247.187L250.439 364.648L253.667 358.54H254.495V367H253.583V360.388L250.763 365.692H250.115L247.259 360.4V367H246.359ZM258.305 367.108C257.905 367.108 257.545 367.032 257.225 366.88C256.913 366.72 256.665 366.504 256.481 366.232C256.297 365.96 256.205 365.656 256.205 365.32C256.205 364.896 256.313 364.56 256.529 364.312C256.753 364.064 257.117 363.888 257.621 363.784C258.133 363.672 258.829 363.616 259.709 363.616H260.093V363.244C260.093 362.748 259.989 362.392 259.781 362.176C259.581 361.952 259.257 361.84 258.809 361.84C258.457 361.84 258.117 361.892 257.789 361.996C257.461 362.092 257.125 362.252 256.781 362.476L256.445 361.768C256.749 361.552 257.117 361.38 257.549 361.252C257.989 361.124 258.409 361.06 258.809 361.06C259.561 361.06 260.117 361.244 260.477 361.612C260.845 361.98 261.029 362.552 261.029 363.328V367H260.117V365.992C259.965 366.336 259.729 366.608 259.409 366.808C259.097 367.008 258.729 367.108 258.305 367.108ZM258.461 366.376C258.941 366.376 259.333 366.212 259.637 365.884C259.941 365.548 260.093 365.124 260.093 364.612V364.252H259.721C259.073 364.252 258.561 364.284 258.185 364.348C257.817 364.404 257.557 364.508 257.405 364.66C257.261 364.804 257.189 365.004 257.189 365.26C257.189 365.588 257.301 365.856 257.525 366.064C257.757 366.272 258.069 366.376 258.461 366.376ZM262.712 359.716V358.624H263.912V359.716H262.712ZM262.832 367V361.168H263.804V367H262.832Z" fill="#2F2F2F"/>
<path d="M292.279 366.256L292.999 366.208C293.399 366.176 293.707 366.036 293.923 365.788C294.147 365.532 294.259 365.184 294.259 364.744V358.54H295.243V364.756C295.243 365.452 295.063 365.996 294.703 366.388C294.343 366.78 293.819 366.996 293.131 367.036L292.351 367.084L292.279 366.256ZM302.109 361.156V367H301.161V366.004C300.977 366.356 300.717 366.624 300.381 366.808C300.053 366.992 299.681 367.084 299.265 367.084C298.569 367.084 298.045 366.892 297.693 366.508C297.341 366.116 297.165 365.54 297.165 364.78V361.156H298.137V364.756C298.137 365.276 298.241 365.66 298.449 365.908C298.657 366.148 298.985 366.268 299.433 366.268C299.945 366.268 300.357 366.104 300.669 365.776C300.981 365.44 301.137 365 301.137 364.456V361.156H302.109ZM306.856 361.012C308.256 361.012 308.956 361.784 308.956 363.328V367H307.984V363.388C307.984 362.844 307.876 362.448 307.66 362.2C307.452 361.952 307.116 361.828 306.652 361.828C306.116 361.828 305.688 361.992 305.368 362.32C305.048 362.648 304.888 363.092 304.888 363.652V367H303.916V361.156H304.876V362.116C305.068 361.756 305.336 361.484 305.68 361.3C306.024 361.108 306.416 361.012 306.856 361.012ZM310.736 367V361.156H311.708V367H310.736ZM310.64 358.624H311.816V359.716H310.64V358.624Z" fill="#2F2F2F"/>
<path d="M341.295 366.256L342.015 366.208C342.415 366.176 342.723 366.036 342.939 365.788C343.163 365.532 343.275 365.184 343.275 364.744V358.54H344.259V364.756C344.259 365.452 344.079 365.996 343.719 366.388C343.359 366.78 342.835 366.996 342.147 367.036L341.367 367.084L341.295 366.256ZM351.125 361.156V367H350.177V366.004C349.993 366.356 349.733 366.624 349.397 366.808C349.069 366.992 348.697 367.084 348.281 367.084C347.585 367.084 347.061 366.892 346.709 366.508C346.357 366.116 346.181 365.54 346.181 364.78V361.156H347.153V364.756C347.153 365.276 347.257 365.66 347.465 365.908C347.673 366.148 348.001 366.268 348.449 366.268C348.961 366.268 349.373 366.104 349.685 365.776C349.997 365.44 350.153 365 350.153 364.456V361.156H351.125ZM352.931 367V358.54H353.903V367H352.931ZM355.72 367V361.156H356.692V367H355.72ZM355.624 358.624H356.8V359.716H355.624V358.624Z" fill="#2F2F2F"/>
<path d="M392.774 367L391.838 364.828H387.422L386.486 367H385.478L389.198 358.54H390.05L393.77 367H392.774ZM387.77 364.012H391.49L389.63 359.68L387.77 364.012ZM399.8 361.156V367H398.852V366.004C398.668 366.356 398.408 366.624 398.072 366.808C397.744 366.992 397.372 367.084 396.956 367.084C396.26 367.084 395.736 366.892 395.384 366.508C395.032 366.116 394.856 365.54 394.856 364.78V361.156H395.828V364.756C395.828 365.276 395.932 365.66 396.14 365.908C396.348 366.148 396.676 366.268 397.124 366.268C397.636 366.268 398.048 366.104 398.36 365.776C398.672 365.44 398.828 365 398.828 364.456V361.156H399.8ZM406.839 361.156V366.604C406.839 367.476 406.615 368.132 406.167 368.572C405.719 369.02 405.055 369.244 404.175 369.244C403.151 369.244 402.291 368.98 401.595 368.452L401.919 367.732C402.311 367.988 402.679 368.172 403.023 368.284C403.367 368.396 403.751 368.452 404.175 368.452C404.735 368.452 405.159 368.3 405.447 367.996C405.735 367.7 405.879 367.264 405.879 366.688V365.656C405.711 366.032 405.451 366.32 405.099 366.52C404.755 366.72 404.347 366.82 403.875 366.82C403.363 366.82 402.907 366.7 402.507 366.46C402.115 366.22 401.807 365.88 401.583 365.44C401.367 365 401.259 364.492 401.259 363.916C401.259 363.34 401.367 362.832 401.583 362.392C401.807 361.952 402.115 361.612 402.507 361.372C402.907 361.132 403.363 361.012 403.875 361.012C404.339 361.012 404.743 361.112 405.087 361.312C405.431 361.512 405.691 361.796 405.867 362.164V361.156H406.839ZM404.067 366.016C404.627 366.016 405.067 365.832 405.387 365.464C405.707 365.088 405.867 364.572 405.867 363.916C405.867 363.268 405.707 362.76 405.387 362.392C405.075 362.016 404.635 361.828 404.067 361.828C403.499 361.828 403.051 362.016 402.723 362.392C402.403 362.76 402.243 363.268 402.243 363.916C402.243 364.572 402.403 365.088 402.723 365.464C403.051 365.832 403.499 366.016 404.067 366.016Z" fill="#2F2F2F"/>
<path d="M436.873 367.096C435.553 367.096 434.497 366.74 433.705 366.028L434.089 365.272C434.505 365.624 434.929 365.876 435.361 366.028C435.801 366.18 436.309 366.256 436.885 366.256C437.565 366.256 438.089 366.124 438.457 365.86C438.825 365.596 439.009 365.224 439.009 364.744C439.009 364.464 438.921 364.236 438.745 364.06C438.569 363.884 438.337 363.744 438.049 363.64C437.761 363.536 437.373 363.428 436.885 363.316C436.229 363.164 435.689 363.004 435.265 362.836C434.849 362.668 434.509 362.428 434.245 362.116C433.989 361.804 433.861 361.396 433.861 360.892C433.861 360.412 433.985 359.988 434.233 359.62C434.489 359.244 434.849 358.956 435.313 358.756C435.785 358.548 436.329 358.444 436.945 358.444C437.529 358.444 438.073 358.536 438.577 358.72C439.089 358.904 439.521 359.168 439.873 359.512L439.501 360.268C439.101 359.924 438.693 359.676 438.277 359.524C437.869 359.364 437.425 359.284 436.945 359.284C436.289 359.284 435.773 359.424 435.397 359.704C435.029 359.976 434.845 360.36 434.845 360.856C434.845 361.28 435.009 361.6 435.337 361.816C435.665 362.032 436.161 362.216 436.825 362.368C437.553 362.544 438.125 362.708 438.541 362.86C438.957 363.004 439.301 363.224 439.573 363.52C439.853 363.816 439.993 364.212 439.993 364.708C439.993 365.188 439.865 365.608 439.609 365.968C439.361 366.328 439.001 366.608 438.529 366.808C438.057 367 437.505 367.096 436.873 367.096ZM446.343 364.228H442.071C442.103 364.908 442.287 365.424 442.623 365.776C442.959 366.12 443.435 366.292 444.051 366.292C444.731 366.292 445.355 366.06 445.923 365.596L446.247 366.304C445.991 366.544 445.663 366.736 445.263 366.88C444.863 367.016 444.455 367.084 444.039 367.084C443.127 367.084 442.407 366.816 441.879 366.28C441.359 365.744 441.099 365.004 441.099 364.06C441.099 363.46 441.215 362.932 441.447 362.476C441.679 362.012 442.003 361.652 442.419 361.396C442.843 361.14 443.323 361.012 443.859 361.012C444.635 361.012 445.243 361.268 445.683 361.78C446.123 362.284 446.343 362.98 446.343 363.868V364.228ZM443.871 361.768C443.359 361.768 442.947 361.928 442.635 362.248C442.331 362.568 442.151 363.02 442.095 363.604H445.491C445.475 363.012 445.327 362.56 445.047 362.248C444.767 361.928 444.375 361.768 443.871 361.768ZM450.715 361.012C451.227 361.012 451.679 361.14 452.071 361.396C452.463 361.652 452.767 362.012 452.983 362.476C453.199 362.932 453.307 363.464 453.307 364.072C453.307 364.68 453.199 365.212 452.983 365.668C452.767 366.116 452.463 366.464 452.071 366.712C451.687 366.96 451.235 367.084 450.715 367.084C450.259 367.084 449.859 366.984 449.515 366.784C449.179 366.584 448.923 366.3 448.747 365.932V369.16H447.775V361.156H448.747V362.164C448.923 361.796 449.179 361.512 449.515 361.312C449.859 361.112 450.259 361.012 450.715 361.012ZM450.523 366.28C451.091 366.28 451.531 366.088 451.843 365.704C452.155 365.32 452.311 364.776 452.311 364.072C452.311 363.368 452.155 362.82 451.843 362.428C451.531 362.028 451.091 361.828 450.523 361.828C449.955 361.828 449.515 362.02 449.203 362.404C448.899 362.788 448.747 363.336 448.747 364.048C448.747 364.76 448.899 365.312 449.203 365.704C449.515 366.088 449.955 366.28 450.523 366.28Z" fill="#2F2F2F"/>
<path d="M484.986 367.096C484.202 367.096 483.518 366.92 482.934 366.568C482.358 366.216 481.914 365.716 481.602 365.068C481.29 364.42 481.134 363.656 481.134 362.776C481.134 361.888 481.286 361.12 481.59 360.472C481.902 359.816 482.346 359.316 482.922 358.972C483.506 358.62 484.194 358.444 484.986 358.444C485.778 358.444 486.462 358.62 487.038 358.972C487.622 359.316 488.066 359.816 488.37 360.472C488.682 361.12 488.838 361.884 488.838 362.764C488.838 363.644 488.682 364.412 488.37 365.068C488.058 365.716 487.61 366.216 487.026 366.568C486.45 366.92 485.77 367.096 484.986 367.096ZM484.986 366.256C485.882 366.256 486.578 365.956 487.074 365.356C487.578 364.748 487.83 363.884 487.83 362.764C487.83 361.644 487.582 360.784 487.086 360.184C486.59 359.584 485.89 359.284 484.986 359.284C484.09 359.284 483.39 359.588 482.886 360.196C482.39 360.796 482.142 361.652 482.142 362.764C482.142 363.876 482.39 364.736 482.886 365.344C483.39 365.952 484.09 366.256 484.986 366.256ZM495.674 367H494.414L491.438 364.204V367H490.466V358.54H491.438V363.808L494.162 361.168H495.398L492.494 363.964L495.674 367ZM498.988 366.304C499.164 366.304 499.34 366.292 499.516 366.268L499.468 367.036C499.284 367.068 499.084 367.084 498.868 367.084C498.164 367.084 497.632 366.9 497.272 366.532C496.92 366.164 496.744 365.652 496.744 364.996V361.924H495.604V361.156H496.744V359.38H497.716V361.156H499.372V361.924H497.716V364.924C497.716 365.844 498.14 366.304 498.988 366.304Z" fill="#2F2F2F"/>
<path d="M535.089 358.54H536.013V367H535.257L530.157 360.196V367H529.233V358.54H529.989L535.089 365.344V358.54ZM540.385 367.084C539.833 367.084 539.345 366.96 538.921 366.712C538.505 366.464 538.181 366.112 537.949 365.656C537.725 365.192 537.613 364.656 537.613 364.048C537.613 363.44 537.725 362.908 537.949 362.452C538.181 361.988 538.505 361.632 538.921 361.384C539.345 361.136 539.833 361.012 540.385 361.012C540.937 361.012 541.425 361.136 541.849 361.384C542.273 361.632 542.597 361.988 542.821 362.452C543.053 362.908 543.169 363.44 543.169 364.048C543.169 364.656 543.053 365.192 542.821 365.656C542.597 366.112 542.273 366.464 541.849 366.712C541.425 366.96 540.937 367.084 540.385 367.084ZM540.385 366.28C540.961 366.28 541.401 366.092 541.705 365.716C542.017 365.332 542.173 364.776 542.173 364.048C542.173 363.336 542.017 362.788 541.705 362.404C541.393 362.012 540.953 361.816 540.385 361.816C539.817 361.816 539.377 362.012 539.065 362.404C538.753 362.788 538.597 363.336 538.597 364.048C538.597 364.768 538.749 365.32 539.053 365.704C539.365 366.088 539.809 366.28 540.385 366.28ZM548.734 361.168H549.706L547.186 367H546.274L543.766 361.168H544.798L546.754 365.944L548.734 361.168Z" fill="#2F2F2F"/>
<path d="M576.45 358.54H579.294C580.646 358.54 581.69 358.908 582.426 359.644C583.17 360.372 583.542 361.412 583.542 362.764C583.542 364.116 583.17 365.16 582.426 365.896C581.69 366.632 580.646 367 579.294 367H576.45V358.54ZM579.234 366.16C581.426 366.16 582.522 365.028 582.522 362.764C582.522 360.508 581.426 359.38 579.234 359.38H577.434V366.16H579.234ZM590.073 364.228H585.801C585.833 364.908 586.017 365.424 586.353 365.776C586.689 366.12 587.165 366.292 587.781 366.292C588.461 366.292 589.085 366.06 589.653 365.596L589.977 366.304C589.721 366.544 589.393 366.736 588.993 366.88C588.593 367.016 588.185 367.084 587.769 367.084C586.857 367.084 586.137 366.816 585.609 366.28C585.089 365.744 584.829 365.004 584.829 364.06C584.829 363.46 584.945 362.932 585.177 362.476C585.409 362.012 585.733 361.652 586.149 361.396C586.573 361.14 587.053 361.012 587.589 361.012C588.365 361.012 588.973 361.268 589.413 361.78C589.853 362.284 590.073 362.98 590.073 363.868V364.228ZM587.601 361.768C587.089 361.768 586.677 361.928 586.365 362.248C586.061 362.568 585.881 363.02 585.825 363.604H589.221C589.205 363.012 589.057 362.56 588.777 362.248C588.497 361.928 588.105 361.768 587.601 361.768ZM592.335 366.232H596.091V367H591.135V366.328L594.783 361.924H591.255V361.156H595.959V361.864L592.335 366.232Z" fill="#2F2F2F"/>
<path d="M47.4047 351.096C46.4367 351.096 45.7007 350.728 45.1967 349.992C44.6927 349.256 44.4407 348.184 44.4407 346.776C44.4407 345.36 44.6927 344.284 45.1967 343.548C45.7007 342.812 46.4367 342.444 47.4047 342.444C48.3727 342.444 49.1087 342.812 49.6127 343.548C50.1167 344.276 50.3687 345.348 50.3687 346.764C50.3687 348.18 50.1167 349.256 49.6127 349.992C49.1087 350.728 48.3727 351.096 47.4047 351.096ZM47.4047 350.268C48.0767 350.268 48.5727 349.984 48.8927 349.416C49.2127 348.848 49.3727 347.964 49.3727 346.764C49.3727 345.556 49.2127 344.676 48.8927 344.124C48.5807 343.564 48.0847 343.284 47.4047 343.284C46.7327 343.284 46.2367 343.564 45.9167 344.124C45.5967 344.684 45.4367 345.564 45.4367 346.764C45.4367 347.964 45.5967 348.848 45.9167 349.416C46.2367 349.984 46.7327 350.268 47.4047 350.268Z" fill="#2F2F2F"/>
<path d="M33.3741 289.696C33.9101 289.696 34.3741 289.808 34.7661 290.032C35.1661 290.256 35.4741 290.572 35.6901 290.98C35.9061 291.38 36.0141 291.844 36.0141 292.372C36.0141 292.908 35.8941 293.38 35.6541 293.788C35.4221 294.196 35.0901 294.516 34.6581 294.748C34.2261 294.972 33.7221 295.084 33.1461 295.084C32.6341 295.084 32.1261 294.992 31.6221 294.808C31.1261 294.616 30.7061 294.36 30.3621 294.04L30.7341 293.284C31.5181 293.932 32.3221 294.256 33.1461 294.256C33.7381 294.256 34.2021 294.088 34.5381 293.752C34.8741 293.416 35.0421 292.96 35.0421 292.384C35.0421 291.824 34.8741 291.372 34.5381 291.028C34.2101 290.684 33.7701 290.512 33.2181 290.512C32.4101 290.512 31.7661 290.84 31.2861 291.496H30.6021V286.54H35.6781V287.356H31.5741V290.368C31.7981 290.152 32.0621 289.988 32.3661 289.876C32.6781 289.756 33.0141 289.696 33.3741 289.696ZM40.2094 295.096C39.2414 295.096 38.5054 294.728 38.0014 293.992C37.4974 293.256 37.2454 292.184 37.2454 290.776C37.2454 289.36 37.4974 288.284 38.0014 287.548C38.5054 286.812 39.2414 286.444 40.2094 286.444C41.1774 286.444 41.9134 286.812 42.4174 287.548C42.9214 288.276 43.1734 289.348 43.1734 290.764C43.1734 292.18 42.9214 293.256 42.4174 293.992C41.9134 294.728 41.1774 295.096 40.2094 295.096ZM40.2094 294.268C40.8814 294.268 41.3774 293.984 41.6974 293.416C42.0174 292.848 42.1774 291.964 42.1774 290.764C42.1774 289.556 42.0174 288.676 41.6974 288.124C41.3854 287.564 40.8894 287.284 40.2094 287.284C39.5374 287.284 39.0414 287.564 38.7214 288.124C38.4014 288.684 38.2414 289.564 38.2414 290.764C38.2414 291.964 38.4014 292.848 38.7214 293.416C39.0414 293.984 39.5374 294.268 40.2094 294.268ZM47.4047 295.096C46.4367 295.096 45.7007 294.728 45.1967 293.992C44.6927 293.256 44.4407 292.184 44.4407 290.776C44.4407 289.36 44.6927 288.284 45.1967 287.548C45.7007 286.812 46.4367 286.444 47.4047 286.444C48.3727 286.444 49.1087 286.812 49.6127 287.548C50.1167 288.276 50.3687 289.348 50.3687 290.764C50.3687 292.18 50.1167 293.256 49.6127 293.992C49.1087 294.728 48.3727 295.096 47.4047 295.096ZM47.4047 294.268C48.0767 294.268 48.5727 293.984 48.8927 293.416C49.2127 292.848 49.3727 291.964 49.3727 290.764C49.3727 289.556 49.2127 288.676 48.8927 288.124C48.5807 287.564 48.0847 287.284 47.4047 287.284C46.7327 287.284 46.2367 287.564 45.9167 288.124C45.5967 288.684 45.4367 289.564 45.4367 290.764C45.4367 291.964 45.5967 292.848 45.9167 293.416C46.2367 293.984 46.7327 294.268 47.4047 294.268Z" fill="#2F2F2F"/>
<path d="M26.6228 238.172H28.4828V239H23.7788V238.172H25.6388V231.764L24.1508 232.7L23.6948 231.944L25.9148 230.54H26.6228V238.172ZM33.0141 239.096C32.0461 239.096 31.3101 238.728 30.8061 237.992C30.3021 237.256 30.0501 236.184 30.0501 234.776C30.0501 233.36 30.3021 232.284 30.8061 231.548C31.3101 230.812 32.0461 230.444 33.0141 230.444C33.9821 230.444 34.7181 230.812 35.2221 231.548C35.7261 232.276 35.9781 233.348 35.9781 234.764C35.9781 236.18 35.7261 237.256 35.2221 237.992C34.7181 238.728 33.9821 239.096 33.0141 239.096ZM33.0141 238.268C33.6861 238.268 34.1821 237.984 34.5021 237.416C34.8221 236.848 34.9821 235.964 34.9821 234.764C34.9821 233.556 34.8221 232.676 34.5021 232.124C34.1901 231.564 33.6941 231.284 33.0141 231.284C32.3421 231.284 31.8461 231.564 31.5261 232.124C31.2061 232.684 31.0461 233.564 31.0461 234.764C31.0461 235.964 31.2061 236.848 31.5261 237.416C31.8461 237.984 32.3421 238.268 33.0141 238.268ZM40.2094 239.096C39.2414 239.096 38.5054 238.728 38.0014 237.992C37.4974 237.256 37.2454 236.184 37.2454 234.776C37.2454 233.36 37.4974 232.284 38.0014 231.548C38.5054 230.812 39.2414 230.444 40.2094 230.444C41.1774 230.444 41.9134 230.812 42.4174 231.548C42.9214 232.276 43.1734 233.348 43.1734 234.764C43.1734 236.18 42.9214 237.256 42.4174 237.992C41.9134 238.728 41.1774 239.096 40.2094 239.096ZM40.2094 238.268C40.8814 238.268 41.3774 237.984 41.6974 237.416C42.0174 236.848 42.1774 235.964 42.1774 234.764C42.1774 233.556 42.0174 232.676 41.6974 232.124C41.3854 231.564 40.8894 231.284 40.2094 231.284C39.5374 231.284 39.0414 231.564 38.7214 232.124C38.4014 232.684 38.2414 233.564 38.2414 234.764C38.2414 235.964 38.4014 236.848 38.7214 237.416C39.0414 237.984 39.5374 238.268 40.2094 238.268ZM47.4047 239.096C46.4367 239.096 45.7007 238.728 45.1967 237.992C44.6927 237.256 44.4407 236.184 44.4407 234.776C44.4407 233.36 44.6927 232.284 45.1967 231.548C45.7007 230.812 46.4367 230.444 47.4047 230.444C48.3727 230.444 49.1087 230.812 49.6127 231.548C50.1167 232.276 50.3687 233.348 50.3687 234.764C50.3687 236.18 50.1167 237.256 49.6127 237.992C49.1087 238.728 48.3727 239.096 47.4047 239.096ZM47.4047 238.268C48.0767 238.268 48.5727 237.984 48.8927 237.416C49.2127 236.848 49.3727 235.964 49.3727 234.764C49.3727 233.556 49.2127 232.676 48.8927 232.124C48.5807 231.564 48.0847 231.284 47.4047 231.284C46.7327 231.284 46.2367 231.564 45.9167 232.124C45.5967 232.684 45.4367 233.564 45.4367 234.764C45.4367 235.964 45.5967 236.848 45.9167 237.416C46.2367 237.984 46.7327 238.268 47.4047 238.268Z" fill="#2F2F2F"/>
<path d="M26.6228 182.172H28.4828V183H23.7788V182.172H25.6388V175.764L24.1508 176.7L23.6948 175.944L25.9148 174.54H26.6228V182.172ZM33.3741 177.696C33.9101 177.696 34.3741 177.808 34.7661 178.032C35.1661 178.256 35.4741 178.572 35.6901 178.98C35.9061 179.38 36.0141 179.844 36.0141 180.372C36.0141 180.908 35.8941 181.38 35.6541 181.788C35.4221 182.196 35.0901 182.516 34.6581 182.748C34.2261 182.972 33.7221 183.084 33.1461 183.084C32.6341 183.084 32.1261 182.992 31.6221 182.808C31.1261 182.616 30.7061 182.36 30.3621 182.04L30.7341 181.284C31.5181 181.932 32.3221 182.256 33.1461 182.256C33.7381 182.256 34.2021 182.088 34.5381 181.752C34.8741 181.416 35.0421 180.96 35.0421 180.384C35.0421 179.824 34.8741 179.372 34.5381 179.028C34.2101 178.684 33.7701 178.512 33.2181 178.512C32.4101 178.512 31.7661 178.84 31.2861 179.496H30.6021V174.54H35.6781V175.356H31.5741V178.368C31.7981 178.152 32.0621 177.988 32.3661 177.876C32.6781 177.756 33.0141 177.696 33.3741 177.696ZM40.2094 183.096C39.2414 183.096 38.5054 182.728 38.0014 181.992C37.4974 181.256 37.2454 180.184 37.2454 178.776C37.2454 177.36 37.4974 176.284 38.0014 175.548C38.5054 174.812 39.2414 174.444 40.2094 174.444C41.1774 174.444 41.9134 174.812 42.4174 175.548C42.9214 176.276 43.1734 177.348 43.1734 178.764C43.1734 180.18 42.9214 181.256 42.4174 181.992C41.9134 182.728 41.1774 183.096 40.2094 183.096ZM40.2094 182.268C40.8814 182.268 41.3774 181.984 41.6974 181.416C42.0174 180.848 42.1774 179.964 42.1774 178.764C42.1774 177.556 42.0174 176.676 41.6974 176.124C41.3854 175.564 40.8894 175.284 40.2094 175.284C39.5374 175.284 39.0414 175.564 38.7214 176.124C38.4014 176.684 38.2414 177.564 38.2414 178.764C38.2414 179.964 38.4014 180.848 38.7214 181.416C39.0414 181.984 39.5374 182.268 40.2094 182.268ZM47.4047 183.096C46.4367 183.096 45.7007 182.728 45.1967 181.992C44.6927 181.256 44.4407 180.184 44.4407 178.776C44.4407 177.36 44.6927 176.284 45.1967 175.548C45.7007 174.812 46.4367 174.444 47.4047 174.444C48.3727 174.444 49.1087 174.812 49.6127 175.548C50.1167 176.276 50.3687 177.348 50.3687 178.764C50.3687 180.18 50.1167 181.256 49.6127 181.992C49.1087 182.728 48.3727 183.096 47.4047 183.096ZM47.4047 182.268C48.0767 182.268 48.5727 181.984 48.8927 181.416C49.2127 180.848 49.3727 179.964 49.3727 178.764C49.3727 177.556 49.2127 176.676 48.8927 176.124C48.5807 175.564 48.0847 175.284 47.4047 175.284C46.7327 175.284 46.2367 175.564 45.9167 176.124C45.5967 176.684 45.4367 177.564 45.4367 178.764C45.4367 179.964 45.5967 180.848 45.9167 181.416C46.2367 181.984 46.7327 182.268 47.4047 182.268Z" fill="#2F2F2F"/>
<path d="M28.6868 126.172V127H23.2388V126.256L26.2028 122.992C26.6028 122.544 26.8908 122.144 27.0668 121.792C27.2508 121.432 27.3428 121.072 27.3428 120.712C27.3428 120.248 27.2068 119.892 26.9348 119.644C26.6628 119.396 26.2788 119.272 25.7828 119.272C24.9668 119.272 24.1668 119.596 23.3828 120.244L23.0107 119.488C23.3468 119.168 23.7668 118.916 24.2708 118.732C24.7828 118.54 25.2948 118.444 25.8068 118.444C26.5828 118.444 27.1948 118.644 27.6428 119.044C28.0988 119.444 28.3268 119.984 28.3268 120.664C28.3268 121.152 28.2148 121.62 27.9908 122.068C27.7748 122.516 27.4148 123.016 26.9108 123.568L24.5108 126.172H28.6868ZM33.0141 127.096C32.0461 127.096 31.3101 126.728 30.8061 125.992C30.3021 125.256 30.0501 124.184 30.0501 122.776C30.0501 121.36 30.3021 120.284 30.8061 119.548C31.3101 118.812 32.0461 118.444 33.0141 118.444C33.9821 118.444 34.7181 118.812 35.2221 119.548C35.7261 120.276 35.9781 121.348 35.9781 122.764C35.9781 124.18 35.7261 125.256 35.2221 125.992C34.7181 126.728 33.9821 127.096 33.0141 127.096ZM33.0141 126.268C33.6861 126.268 34.1821 125.984 34.5021 125.416C34.8221 124.848 34.9821 123.964 34.9821 122.764C34.9821 121.556 34.8221 120.676 34.5021 120.124C34.1901 119.564 33.6941 119.284 33.0141 119.284C32.3421 119.284 31.8461 119.564 31.5261 120.124C31.2061 120.684 31.0461 121.564 31.0461 122.764C31.0461 123.964 31.2061 124.848 31.5261 125.416C31.8461 125.984 32.3421 126.268 33.0141 126.268ZM40.2094 127.096C39.2414 127.096 38.5054 126.728 38.0014 125.992C37.4974 125.256 37.2454 124.184 37.2454 122.776C37.2454 121.36 37.4974 120.284 38.0014 119.548C38.5054 118.812 39.2414 118.444 40.2094 118.444C41.1774 118.444 41.9134 118.812 42.4174 119.548C42.9214 120.276 43.1734 121.348 43.1734 122.764C43.1734 124.18 42.9214 125.256 42.4174 125.992C41.9134 126.728 41.1774 127.096 40.2094 127.096ZM40.2094 126.268C40.8814 126.268 41.3774 125.984 41.6974 125.416C42.0174 124.848 42.1774 123.964 42.1774 122.764C42.1774 121.556 42.0174 120.676 41.6974 120.124C41.3854 119.564 40.8894 119.284 40.2094 119.284C39.5374 119.284 39.0414 119.564 38.7214 120.124C38.4014 120.684 38.2414 121.564 38.2414 122.764C38.2414 123.964 38.4014 124.848 38.7214 125.416C39.0414 125.984 39.5374 126.268 40.2094 126.268ZM47.4047 127.096C46.4367 127.096 45.7007 126.728 45.1967 125.992C44.6927 125.256 44.4407 124.184 44.4407 122.776C44.4407 121.36 44.6927 120.284 45.1967 119.548C45.7007 118.812 46.4367 118.444 47.4047 118.444C48.3727 118.444 49.1087 118.812 49.6127 119.548C50.1167 120.276 50.3687 121.348 50.3687 122.764C50.3687 124.18 50.1167 125.256 49.6127 125.992C49.1087 126.728 48.3727 127.096 47.4047 127.096ZM47.4047 126.268C48.0767 126.268 48.5727 125.984 48.8927 125.416C49.2127 124.848 49.3727 123.964 49.3727 122.764C49.3727 121.556 49.2127 120.676 48.8927 120.124C48.5807 119.564 48.0847 119.284 47.4047 119.284C46.7327 119.284 46.2367 119.564 45.9167 120.124C45.5967 120.684 45.4367 121.564 45.4367 122.764C45.4367 123.964 45.5967 124.848 45.9167 125.416C46.2367 125.984 46.7327 126.268 47.4047 126.268Z" fill="#2F2F2F"/>
<path d="M28.6868 70.172V71H23.2388V70.256L26.2028 66.992C26.6028 66.544 26.8908 66.144 27.0668 65.792C27.2508 65.432 27.3428 65.072 27.3428 64.712C27.3428 64.248 27.2068 63.892 26.9348 63.644C26.6628 63.396 26.2788 63.272 25.7828 63.272C24.9668 63.272 24.1668 63.596 23.3828 64.244L23.0107 63.488C23.3468 63.168 23.7668 62.916 24.2708 62.732C24.7828 62.54 25.2948 62.444 25.8068 62.444C26.5828 62.444 27.1948 62.644 27.6428 63.044C28.0988 63.444 28.3268 63.984 28.3268 64.664C28.3268 65.152 28.2148 65.62 27.9908 66.068C27.7748 66.516 27.4148 67.016 26.9108 67.568L24.5108 70.172H28.6868ZM33.3741 65.696C33.9101 65.696 34.3741 65.808 34.7661 66.032C35.1661 66.256 35.4741 66.572 35.6901 66.98C35.9061 67.38 36.0141 67.844 36.0141 68.372C36.0141 68.908 35.8941 69.38 35.6541 69.788C35.4221 70.196 35.0901 70.516 34.6581 70.748C34.2261 70.972 33.7221 71.084 33.1461 71.084C32.6341 71.084 32.1261 70.992 31.6221 70.808C31.1261 70.616 30.7061 70.36 30.3621 70.04L30.7341 69.284C31.5181 69.932 32.3221 70.256 33.1461 70.256C33.7381 70.256 34.2021 70.088 34.5381 69.752C34.8741 69.416 35.0421 68.96 35.0421 68.384C35.0421 67.824 34.8741 67.372 34.5381 67.028C34.2101 66.684 33.7701 66.512 33.2181 66.512C32.4101 66.512 31.7661 66.84 31.2861 67.496H30.6021V62.54H35.6781V63.356H31.5741V66.368C31.7981 66.152 32.0621 65.988 32.3661 65.876C32.6781 65.756 33.0141 65.696 33.3741 65.696ZM40.2094 71.096C39.2414 71.096 38.5054 70.728 38.0014 69.992C37.4974 69.256 37.2454 68.184 37.2454 66.776C37.2454 65.36 37.4974 64.284 38.0014 63.548C38.5054 62.812 39.2414 62.444 40.2094 62.444C41.1774 62.444 41.9134 62.812 42.4174 63.548C42.9214 64.276 43.1734 65.348 43.1734 66.764C43.1734 68.18 42.9214 69.256 42.4174 69.992C41.9134 70.728 41.1774 71.096 40.2094 71.096ZM40.2094 70.268C40.8814 70.268 41.3774 69.984 41.6974 69.416C42.0174 68.848 42.1774 67.964 42.1774 66.764C42.1774 65.556 42.0174 64.676 41.6974 64.124C41.3854 63.564 40.8894 63.284 40.2094 63.284C39.5374 63.284 39.0414 63.564 38.7214 64.124C38.4014 64.684 38.2414 65.564 38.2414 66.764C38.2414 67.964 38.4014 68.848 38.7214 69.416C39.0414 69.984 39.5374 70.268 40.2094 70.268ZM47.4047 71.096C46.4367 71.096 45.7007 70.728 45.1967 69.992C44.6927 69.256 44.4407 68.184 44.4407 66.776C44.4407 65.36 44.6927 64.284 45.1967 63.548C45.7007 62.812 46.4367 62.444 47.4047 62.444C48.3727 62.444 49.1087 62.812 49.6127 63.548C50.1167 64.276 50.3687 65.348 50.3687 66.764C50.3687 68.18 50.1167 69.256 49.6127 69.992C49.1087 70.728 48.3727 71.096 47.4047 71.096ZM47.4047 70.268C48.0767 70.268 48.5727 69.984 48.8927 69.416C49.2127 68.848 49.3727 67.964 49.3727 66.764C49.3727 65.556 49.2127 64.676 48.8927 64.124C48.5807 63.564 48.0847 63.284 47.4047 63.284C46.7327 63.284 46.2367 63.564 45.9167 64.124C45.5967 64.684 45.4367 65.564 45.4367 66.764C45.4367 67.964 45.5967 68.848 45.9167 69.416C46.2367 69.984 46.7327 70.268 47.4047 70.268Z" fill="#2F2F2F"/>
<path d="M26.9828 9.83178C27.4788 9.97578 27.8588 10.2238 28.1228 10.5758C28.3868 10.9198 28.5188 11.3558 28.5188 11.8838C28.5188 12.6198 28.2668 13.1998 27.7628 13.6238C27.2668 14.0478 26.5908 14.2598 25.7348 14.2598C25.1908 14.2598 24.6668 14.1678 24.1628 13.9838C23.6588 13.7998 23.2348 13.5438 22.8908 13.2158L23.2628 12.4598C24.0308 13.1078 24.8468 13.4318 25.7108 13.4318C26.3108 13.4318 26.7668 13.2998 27.0788 13.0358C27.3908 12.7638 27.5468 12.3678 27.5468 11.8478C27.5468 10.8158 26.8988 10.2998 25.6028 10.2998H24.6308V9.47178H25.4108C26.0348 9.47178 26.5148 9.33578 26.8508 9.06378C27.1868 8.78378 27.3548 8.38378 27.3548 7.86378C27.3548 7.40778 27.2188 7.05978 26.9468 6.81978C26.6748 6.57178 26.2868 6.44778 25.7828 6.44778C24.9668 6.44778 24.1668 6.77178 23.3828 7.41978L23.0107 6.66378C23.3548 6.33578 23.7748 6.07978 24.2708 5.89578C24.7668 5.71178 25.2828 5.61978 25.8188 5.61978C26.5868 5.61978 27.1948 5.81578 27.6428 6.20778C28.0988 6.59178 28.3268 7.11178 28.3268 7.76778C28.3268 8.25578 28.2068 8.68378 27.9668 9.05178C27.7348 9.41178 27.4068 9.67178 26.9828 9.83178ZM33.0141 14.2718C32.0461 14.2718 31.3101 13.9038 30.8061 13.1678C30.3021 12.4318 30.0501 11.3598 30.0501 9.95178C30.0501 8.53578 30.3021 7.45978 30.8061 6.72378C31.3101 5.98778 32.0461 5.61978 33.0141 5.61978C33.9821 5.61978 34.7181 5.98778 35.2221 6.72378C35.7261 7.45178 35.9781 8.52378 35.9781 9.93978C35.9781 11.3558 35.7261 12.4318 35.2221 13.1678C34.7181 13.9038 33.9821 14.2718 33.0141 14.2718ZM33.0141 13.4438C33.6861 13.4438 34.1821 13.1598 34.5021 12.5918C34.8221 12.0238 34.9821 11.1398 34.9821 9.93978C34.9821 8.73178 34.8221 7.85178 34.5021 7.29978C34.1901 6.73978 33.6941 6.45978 33.0141 6.45978C32.3421 6.45978 31.8461 6.73978 31.5261 7.29978C31.2061 7.85978 31.0461 8.73978 31.0461 9.93978C31.0461 11.1398 31.2061 12.0238 31.5261 12.5918C31.8461 13.1598 32.3421 13.4438 33.0141 13.4438ZM40.2094 14.2718C39.2414 14.2718 38.5054 13.9038 38.0014 13.1678C37.4974 12.4318 37.2454 11.3598 37.2454 9.95178C37.2454 8.53578 37.4974 7.45978 38.0014 6.72378C38.5054 5.98778 39.2414 5.61978 40.2094 5.61978C41.1774 5.61978 41.9134 5.98778 42.4174 6.72378C42.9214 7.45178 43.1734 8.52378 43.1734 9.93978C43.1734 11.3558 42.9214 12.4318 42.4174 13.1678C41.9134 13.9038 41.1774 14.2718 40.2094 14.2718ZM40.2094 13.4438C40.8814 13.4438 41.3774 13.1598 41.6974 12.5918C42.0174 12.0238 42.1774 11.1398 42.1774 9.93978C42.1774 8.73178 42.0174 7.85178 41.6974 7.29978C41.3854 6.73978 40.8894 6.45978 40.2094 6.45978C39.5374 6.45978 39.0414 6.73978 38.7214 7.29978C38.4014 7.85978 38.2414 8.73978 38.2414 9.93978C38.2414 11.1398 38.4014 12.0238 38.7214 12.5918C39.0414 13.1598 39.5374 13.4438 40.2094 13.4438ZM47.4047 14.2718C46.4367 14.2718 45.7007 13.9038 45.1967 13.1678C44.6927 12.4318 44.4407 11.3598 44.4407 9.95178C44.4407 8.53578 44.6927 7.45978 45.1967 6.72378C45.7007 5.98778 46.4367 5.61978 47.4047 5.61978C48.3727 5.61978 49.1087 5.98778 49.6127 6.72378C50.1167 7.45178 50.3687 8.52378 50.3687 9.93978C50.3687 11.3558 50.1167 12.4318 49.6127 13.1678C49.1087 13.9038 48.3727 14.2718 47.4047 14.2718ZM47.4047 13.4438C48.0767 13.4438 48.5727 13.1598 48.8927 12.5918C49.2127 12.0238 49.3727 11.1398 49.3727 9.93978C49.3727 8.73178 49.2127 7.85178 48.8927 7.29978C48.5807 6.73978 48.0847 6.45978 47.4047 6.45978C46.7327 6.45978 46.2367 6.73978 45.9167 7.29978C45.5967 7.85978 45.4367 8.73978 45.4367 9.93978C45.4367 11.1398 45.5967 12.0238 45.9167 12.5918C46.2367 13.1598 46.7327 13.4438 47.4047 13.4438Z" fill="#2F2F2F"/>
<path d="M3.564 261.702C3.564 261.422 3.572 261.15 3.588 260.886C3.604 260.622 3.632 260.366 3.672 260.118C3.704 259.87 3.752 259.63 3.816 259.398L4.608 259.506C4.584 259.754 4.564 260.006 4.548 260.262C4.532 260.51 4.524 260.75 4.524 260.982C4.516 261.214 4.512 261.434 4.512 261.642C4.512 262.09 4.556 262.47 4.644 262.782C4.724 263.086 4.884 263.33 5.124 263.514C5.364 263.698 5.708 263.834 6.156 263.922C6.604 264.002 7.188 264.042 7.908 264.042C8.724 264.042 9.376 263.986 9.864 263.874C10.344 263.762 10.692 263.574 10.908 263.31C11.124 263.046 11.232 262.694 11.232 262.254C11.232 261.95 11.188 261.674 11.1 261.426C11.012 261.17 10.9 260.934 10.764 260.718C10.62 260.494 10.472 260.278 10.32 260.07L10.968 259.926C11.136 260.07 11.312 260.27 11.496 260.526C11.68 260.774 11.836 261.066 11.964 261.402C12.092 261.738 12.156 262.118 12.156 262.542C12.156 263.158 12.004 263.662 11.7 264.054C11.388 264.438 10.916 264.718 10.284 264.894C9.644 265.07 8.828 265.158 7.836 265.158C6.74 265.158 5.884 265.05 5.268 264.834C4.644 264.61 4.204 264.246 3.948 263.742C3.692 263.23 3.564 262.55 3.564 261.702ZM7.212 259.182H12V259.95L10.776 260.118L10.536 260.214H7.212V259.182ZM3.708 253.799C3.708 253.399 3.708 252.999 3.708 252.599C3.708 252.191 3.716 251.791 3.732 251.399C3.74 250.999 3.756 250.615 3.78 250.247L4.608 250.295V253.619C4.608 253.867 4.672 254.051 4.8 254.171C4.92 254.283 5.12 254.339 5.4 254.339H10.32C10.6 254.339 10.804 254.283 10.932 254.171C11.06 254.051 11.124 253.867 11.124 253.619L11.124 250.295L11.94 250.247C11.964 250.615 11.98 250.999 11.988 251.399C11.996 251.791 12 252.191 12 252.599C12.008 252.999 12.012 253.399 12.012 253.799C12.012 254.287 11.884 254.675 11.628 254.963C11.364 255.243 11.012 255.387 10.572 255.395H5.148C4.7 255.387 4.348 255.243 4.092 254.963C3.836 254.675 3.708 254.287 3.708 253.799ZM7.2 255.179V250.763H8.052L8.052 255.179H7.2ZM3.576 244.304C3.584 243.912 3.604 243.508 3.636 243.092C3.668 242.676 3.728 242.26 3.816 241.844L4.584 241.916C4.568 242.26 4.556 242.64 4.548 243.056C4.532 243.472 4.524 243.872 4.524 244.256C4.524 244.552 4.536 244.808 4.56 245.024C4.576 245.232 4.624 245.404 4.704 245.54C4.776 245.676 4.9 245.776 5.076 245.84C5.244 245.896 5.48 245.924 5.784 245.924C6.24 245.924 6.56 245.844 6.744 245.684C6.92 245.516 7.052 245.248 7.14 244.88L7.56 243.2C7.712 242.56 7.98 242.124 8.364 241.892C8.74 241.652 9.248 241.532 9.888 241.532C10.368 241.532 10.756 241.588 11.052 241.7C11.348 241.804 11.576 241.968 11.736 242.192C11.888 242.416 11.992 242.704 12.048 243.056C12.112 243.408 12.144 243.824 12.144 244.304C12.144 244.576 12.132 244.932 12.108 245.372C12.084 245.804 12.02 246.304 11.916 246.872L11.136 246.8C11.152 246.328 11.168 245.948 11.184 245.66C11.192 245.372 11.196 245.124 11.196 244.916C11.196 244.708 11.196 244.492 11.196 244.268C11.196 243.844 11.164 243.512 11.1 243.272C11.036 243.024 10.908 242.852 10.716 242.756C10.524 242.652 10.24 242.6 9.864 242.6C9.544 242.6 9.296 242.636 9.12 242.708C8.944 242.78 8.812 242.896 8.724 243.056C8.628 243.208 8.552 243.404 8.496 243.644L8.064 245.36C7.912 245.96 7.648 246.384 7.272 246.632C6.896 246.872 6.392 246.992 5.76 246.992C5.28 246.992 4.896 246.94 4.608 246.836C4.312 246.724 4.092 246.56 3.948 246.344C3.796 246.12 3.696 245.84 3.648 245.504C3.6 245.168 3.576 244.768 3.576 244.304ZM3.72 234.642C3.72 234.546 3.748 234.462 3.804 234.39C3.852 234.318 3.92 234.27 4.008 234.246L12 231.582V232.674L5.208 234.822C5.096 234.854 4.984 234.89 4.872 234.93C4.752 234.962 4.64 234.994 4.536 235.026V235.362C4.64 235.394 4.752 235.426 4.872 235.458C4.984 235.49 5.096 235.526 5.208 235.566L12 237.714V238.806L4.008 236.142C3.92 236.118 3.852 236.07 3.804 235.998C3.748 235.926 3.72 235.842 3.72 235.746V234.642ZM8.496 233.106H9.408V237.306H8.496V233.106ZM3.72 220.593C3.72 220.305 3.868 220.161 4.164 220.161L12 219.813V220.869L4.596 221.169V221.421L10.704 223.269C10.944 223.333 11.064 223.485 11.064 223.725V224.673C11.064 224.921 10.944 225.081 10.704 225.153L4.596 227.001V227.241L12 227.529V228.585L4.164 228.261C3.868 228.245 3.72 228.097 3.72 227.817V226.617C3.72 226.393 3.84 226.245 4.08 226.173L9.132 224.625C9.316 224.561 9.5 224.509 9.684 224.469C9.868 224.421 10.056 224.369 10.248 224.313V224.097C10.056 224.041 9.868 223.989 9.684 223.941C9.5 223.893 9.308 223.841 9.108 223.785L4.08 222.237C3.84 222.173 3.72 222.021 3.72 221.781V220.593ZM3.72 212.929H12V213.985H3.72V212.929ZM3.72 210.253H4.656L4.656 216.649H3.72L3.72 210.253ZM3.708 205.397C3.708 204.997 3.708 204.597 3.708 204.197C3.708 203.789 3.716 203.389 3.732 202.997C3.74 202.597 3.756 202.213 3.78 201.845L4.608 201.893V205.217C4.608 205.465 4.672 205.649 4.8 205.769C4.92 205.881 5.12 205.937 5.4 205.937H10.32C10.6 205.937 10.804 205.881 10.932 205.769C11.06 205.649 11.124 205.465 11.124 205.217V201.893L11.94 201.845C11.964 202.213 11.98 202.597 11.988 202.997C11.996 203.389 12 203.789 12 204.197C12.008 204.597 12.012 204.997 12.012 205.397C12.012 205.885 11.884 206.273 11.628 206.561C11.364 206.841 11.012 206.985 10.572 206.993H5.148C4.7 206.985 4.348 206.841 4.092 206.561C3.836 206.273 3.708 205.885 3.708 205.397ZM7.2 206.777V202.361H8.052V206.777H7.2ZM3.72 191.834H11.58C11.86 191.834 12 191.97 12 192.242V193.274C12 193.394 11.972 193.49 11.916 193.562C11.86 193.634 11.776 193.694 11.664 193.742L5.796 196.538C5.636 196.61 5.456 196.694 5.256 196.79C5.056 196.886 4.872 196.958 4.704 197.006V197.198C4.88 197.182 5.06 197.17 5.244 197.162C5.428 197.154 5.612 197.15 5.796 197.15H12V198.206H4.14C3.86 198.206 3.72 198.066 3.72 197.786L3.72 196.79C3.72 196.67 3.748 196.574 3.804 196.502C3.86 196.43 3.944 196.37 4.056 196.322L9.78 193.61C9.948 193.522 10.14 193.43 10.356 193.334C10.564 193.23 10.772 193.134 10.98 193.046V192.842C10.764 192.85 10.552 192.858 10.344 192.866C10.136 192.874 9.928 192.878 9.72 192.878H3.72V191.834ZM3.708 186.221C3.708 185.821 3.708 185.421 3.708 185.021C3.708 184.613 3.716 184.213 3.732 183.821C3.74 183.421 3.756 183.037 3.78 182.669L4.608 182.717V186.041C4.608 186.289 4.672 186.473 4.8 186.593C4.92 186.705 5.12 186.761 5.4 186.761H10.32C10.6 186.761 10.804 186.705 10.932 186.593C11.06 186.473 11.124 186.289 11.124 186.041V182.717L11.94 182.669C11.964 183.037 11.98 183.421 11.988 183.821C11.996 184.213 12 184.613 12 185.021C12.008 185.421 12.012 185.821 12.012 186.221C12.012 186.709 11.884 187.097 11.628 187.385C11.364 187.665 11.012 187.809 10.572 187.817H5.148C4.7 187.809 4.348 187.665 4.092 187.385C3.836 187.097 3.708 186.709 3.708 186.221ZM7.2 187.601L7.2 183.185H8.052V187.601H7.2ZM3.612 176.174C3.612 175.534 3.684 175.018 3.828 174.626C3.964 174.234 4.204 173.95 4.548 173.774C4.892 173.59 5.376 173.498 6 173.498C6.448 173.498 6.824 173.55 7.128 173.654C7.424 173.758 7.656 173.922 7.824 174.146C7.984 174.362 8.088 174.654 8.136 175.022H8.196C8.228 174.886 8.296 174.754 8.4 174.626C8.496 174.49 8.628 174.366 8.796 174.254C8.956 174.142 9.152 174.058 9.384 174.002L12 173.198V174.326L9.408 175.058C9.096 175.162 8.876 175.302 8.748 175.478C8.612 175.654 8.544 175.882 8.544 176.162C8.544 176.65 8.544 177.074 8.544 177.434C8.536 177.794 8.528 178.094 8.52 178.334C8.512 178.574 8.508 178.766 8.508 178.91L7.632 178.874V176.198C7.624 175.79 7.576 175.47 7.488 175.238C7.4 174.998 7.244 174.826 7.02 174.722C6.788 174.618 6.468 174.566 6.06 174.566C5.652 174.566 5.34 174.618 5.124 174.722C4.9 174.826 4.744 174.998 4.656 175.238C4.568 175.47 4.524 175.79 4.524 176.198C4.524 176.854 4.528 177.422 4.536 177.902C4.544 178.374 4.548 178.694 4.548 178.862L3.72 179.03C3.688 178.726 3.664 178.442 3.648 178.178C3.632 177.914 3.624 177.626 3.624 177.314C3.616 176.994 3.612 176.614 3.612 176.174ZM3.72 177.986H12V179.03H3.72V177.986ZM3.564 166.456C3.564 166.176 3.572 165.904 3.588 165.64C3.604 165.376 3.632 165.12 3.672 164.872C3.704 164.624 3.752 164.384 3.816 164.152L4.608 164.26C4.584 164.508 4.564 164.76 4.548 165.016C4.532 165.264 4.524 165.504 4.524 165.736C4.516 165.968 4.512 166.188 4.512 166.396C4.512 166.844 4.556 167.224 4.644 167.536C4.724 167.84 4.884 168.084 5.124 168.268C5.364 168.452 5.708 168.588 6.156 168.676C6.604 168.756 7.188 168.796 7.908 168.796C8.724 168.796 9.376 168.74 9.864 168.628C10.344 168.516 10.692 168.328 10.908 168.064C11.124 167.8 11.232 167.448 11.232 167.008C11.232 166.704 11.188 166.428 11.1 166.18C11.012 165.924 10.9 165.688 10.764 165.472C10.62 165.248 10.472 165.032 10.32 164.824L10.968 164.68C11.136 164.824 11.312 165.024 11.496 165.28C11.68 165.528 11.836 165.82 11.964 166.156C12.092 166.492 12.156 166.872 12.156 167.296C12.156 167.912 12.004 168.416 11.7 168.808C11.388 169.192 10.916 169.472 10.284 169.648C9.644 169.824 8.828 169.912 7.836 169.912C6.74 169.912 5.884 169.804 5.268 169.588C4.644 169.364 4.204 169 3.948 168.496C3.692 167.984 3.564 167.304 3.564 166.456ZM7.212 163.936H12L12 164.704L10.776 164.872L10.536 164.968H7.212V163.936ZM3.72 159.021H12V160.077H3.72V159.021ZM3.708 153.412C3.708 153.012 3.708 152.612 3.708 152.212C3.708 151.804 3.716 151.404 3.732 151.012C3.74 150.612 3.756 150.228 3.78 149.86L4.608 149.908V153.232C4.608 153.48 4.672 153.664 4.8 153.784C4.92 153.896 5.12 153.952 5.4 153.952H10.32C10.6 153.952 10.804 153.896 10.932 153.784C11.06 153.664 11.124 153.48 11.124 153.232V149.908L11.94 149.86C11.964 150.228 11.98 150.612 11.988 151.012C11.996 151.404 12 151.804 12 152.212C12.008 152.612 12.012 153.012 12.012 153.412C12.012 153.9 11.884 154.288 11.628 154.576C11.364 154.856 11.012 155 10.572 155.008H5.148C4.7 155 4.348 154.856 4.092 154.576C3.836 154.288 3.708 153.9 3.708 153.412ZM7.2 154.792V150.376H8.052V154.792H7.2ZM2.52 138.79L3.012 138.658C3.404 139.458 4.036 140.042 4.908 140.41C5.772 140.77 6.884 140.95 8.244 140.95C9.132 140.95 9.92 140.87 10.608 140.71C11.296 140.55 11.876 140.302 12.348 139.966C12.828 139.63 13.208 139.194 13.488 138.658L13.98 138.79C13.556 139.878 12.884 140.678 11.964 141.19C11.036 141.694 9.8 141.946 8.256 141.946C6.704 141.946 5.464 141.694 4.536 141.19C3.608 140.678 2.936 139.878 2.52 138.79ZM3.72 129.843L7.152 132.255C7.256 132.327 7.348 132.399 7.428 132.471C7.5 132.535 7.584 132.615 7.68 132.711H7.704C7.8 132.607 7.896 132.511 7.992 132.423C8.088 132.335 8.184 132.259 8.28 132.195L12 129.675V130.863L7.668 133.803L3.72 130.995V129.843ZM3.72 134.451H6.312C6.552 134.451 6.78 134.463 6.996 134.487C7.212 134.511 7.436 134.547 7.668 134.595C7.892 134.555 8.116 134.523 8.34 134.499C8.564 134.467 8.78 134.451 8.988 134.451H12L12 135.495H3.72V134.451ZM7.26 133.227H8.112V134.823H7.26V133.227ZM3.72 116.445L11.688 118.125C11.776 118.149 11.852 118.197 11.916 118.269C11.972 118.341 12 118.433 12 118.545V119.745C12 119.849 11.972 119.941 11.916 120.021C11.852 120.093 11.772 120.137 11.676 120.153L5.448 121.449C5.288 121.481 5.132 121.513 4.98 121.545C4.82 121.577 4.664 121.609 4.512 121.641V121.893C4.664 121.925 4.82 121.957 4.98 121.989C5.14 122.013 5.296 122.041 5.448 122.073L11.676 123.357C11.772 123.381 11.852 123.433 11.916 123.513C11.972 123.585 12 123.673 12 123.777V124.989C12 125.093 11.972 125.185 11.916 125.265C11.852 125.337 11.776 125.381 11.688 125.397L3.72 127.077V125.961L10.176 124.665C10.328 124.633 10.492 124.605 10.668 124.581C10.836 124.557 11.012 124.529 11.196 124.497V124.221C11.012 124.189 10.836 124.157 10.668 124.125C10.5 124.093 10.336 124.061 10.176 124.029L4.068 122.745C3.964 122.729 3.88 122.685 3.816 122.613C3.752 122.533 3.72 122.441 3.72 122.337V121.185C3.72 121.081 3.752 120.993 3.816 120.921C3.88 120.849 3.964 120.801 4.068 120.777L10.176 119.493C10.352 119.453 10.524 119.421 10.692 119.397C10.86 119.365 11.028 119.341 11.196 119.325V119.025C11.028 119.001 10.86 118.977 10.692 118.953C10.516 118.929 10.348 118.901 10.188 118.869L3.72 117.561L3.72 116.445ZM3.72 111.97H12V113.026H3.72V111.97ZM7.116 108.022H8.028V112.066H7.116V108.022ZM3.72 107.098H12V108.154H3.72V107.098ZM2.52 103.808C2.936 102.712 3.608 101.912 4.536 101.408C5.464 100.896 6.704 100.64 8.256 100.64C9.8 100.64 11.036 100.896 11.964 101.408C12.884 101.912 13.556 102.712 13.98 103.808L13.488 103.928C13.208 103.392 12.828 102.96 12.348 102.632C11.876 102.296 11.296 102.048 10.608 101.888C9.92 101.728 9.132 101.648 8.244 101.648C6.884 101.648 5.772 101.828 4.908 102.188C4.036 102.549 3.404 103.128 3.012 103.928L2.52 103.808Z" fill="#2F2F2F"/>
<path d="M69.868 384.72C70.156 384.72 70.3 384.868 70.3 385.164L70.648 393H69.592L69.292 385.596H69.04L67.192 391.704C67.128 391.944 66.976 392.064 66.736 392.064H65.788C65.54 392.064 65.38 391.944 65.308 391.704L63.46 385.596H63.22L62.932 393H61.876L62.2 385.164C62.216 384.868 62.364 384.72 62.644 384.72H63.844C64.068 384.72 64.216 384.84 64.288 385.08L65.836 390.132C65.9 390.316 65.952 390.5 65.992 390.684C66.04 390.868 66.092 391.056 66.148 391.248H66.364C66.42 391.056 66.472 390.868 66.52 390.684C66.568 390.5 66.62 390.308 66.676 390.108L68.224 385.08C68.288 384.84 68.44 384.72 68.68 384.72H69.868ZM77.5314 384.564C78.1314 384.564 78.6394 384.636 79.0554 384.78C79.4794 384.924 79.8154 385.164 80.0634 385.5C80.3194 385.828 80.5034 386.268 80.6154 386.82C80.7354 387.372 80.7954 388.052 80.7954 388.86C80.7954 389.668 80.7354 390.348 80.6154 390.9C80.5034 391.452 80.3194 391.896 80.0634 392.232C79.8154 392.56 79.4794 392.796 79.0554 392.94C78.6394 393.084 78.1314 393.156 77.5314 393.156C76.9314 393.156 76.4194 393.084 75.9954 392.94C75.5794 392.796 75.2434 392.56 74.9874 392.232C74.7314 391.896 74.5434 391.452 74.4234 390.9C74.3114 390.348 74.2554 389.668 74.2554 388.86C74.2554 388.052 74.3114 387.372 74.4234 386.82C74.5434 386.268 74.7314 385.828 74.9874 385.5C75.2434 385.164 75.5794 384.924 75.9954 384.78C76.4194 384.636 76.9314 384.564 77.5314 384.564ZM77.5314 385.512C76.9874 385.512 76.5554 385.616 76.2354 385.824C75.9234 386.032 75.6994 386.38 75.5634 386.868C75.4354 387.348 75.3714 388.012 75.3714 388.86C75.3714 389.7 75.4354 390.364 75.5634 390.852C75.6994 391.34 75.9234 391.688 76.2354 391.896C76.5554 392.104 76.9874 392.208 77.5314 392.208C78.0754 392.208 78.5034 392.104 78.8154 391.896C79.1354 391.688 79.3594 391.34 79.4874 390.852C79.6234 390.364 79.6914 389.7 79.6914 388.86C79.6914 388.012 79.6234 387.348 79.4874 386.868C79.3594 386.38 79.1354 386.032 78.8154 385.824C78.5034 385.616 78.0754 385.512 77.5314 385.512ZM90.9551 384.72V392.58C90.9551 392.86 90.8191 393 90.5471 393H89.5151C89.3951 393 89.2991 392.972 89.2271 392.916C89.1551 392.86 89.0951 392.776 89.0471 392.664L86.2511 386.796C86.1791 386.636 86.0951 386.456 85.9991 386.256C85.9031 386.056 85.8311 385.872 85.7831 385.704H85.5911C85.6071 385.88 85.6191 386.06 85.6271 386.244C85.6351 386.428 85.6391 386.612 85.6391 386.796V393H84.5831V385.14C84.5831 384.86 84.7231 384.72 85.0031 384.72H85.9991C86.1191 384.72 86.2151 384.748 86.2871 384.804C86.3591 384.86 86.4191 384.944 86.4671 385.056L89.1791 390.78C89.2671 390.948 89.3591 391.14 89.4551 391.356C89.5591 391.564 89.6551 391.772 89.7431 391.98H89.9471C89.9391 391.764 89.9311 391.552 89.9231 391.344C89.9151 391.136 89.9111 390.928 89.9111 390.72V384.72H90.9551ZM98.284 384.72C98.38 384.72 98.464 384.748 98.536 384.804C98.608 384.852 98.656 384.92 98.68 385.008L101.344 393H100.252L98.104 386.208C98.072 386.096 98.036 385.984 97.996 385.872C97.964 385.752 97.932 385.64 97.9 385.536H97.564C97.532 385.64 97.5 385.752 97.468 385.872C97.436 385.984 97.4 386.096 97.36 386.208L95.212 393H94.12L96.784 385.008C96.808 384.92 96.856 384.852 96.928 384.804C97 384.748 97.084 384.72 97.18 384.72H98.284ZM99.82 389.496V390.408H95.62V389.496H99.82ZM106.77 384.72V393H105.714V384.72H106.77ZM109.446 384.72V385.656H103.05V384.72H109.446Z" fill="#2F2F2F"/>
<g filter="url(#filter0_d_969_30930)">
<path d="M167 323.176H155C149.477 323.176 145 327.653 145 333.176V335.176C145 340.699 149.477 345.176 155 345.176H167C172.523 345.176 177 340.699 177 335.176V333.176C177 327.653 172.523 323.176 167 323.176Z" fill="#0087FF"/>
</g>
<g filter="url(#filter1_d_969_30930)">
<path d="M214 233.176H202C196.477 233.176 192 237.653 192 243.176V335.176C192 340.699 196.477 345.176 202 345.176H214C219.523 345.176 224 340.699 224 335.176V243.176C224 237.653 219.523 233.176 214 233.176Z" fill="#0087FF"/>
</g>
<g filter="url(#filter2_d_969_30930)">
<path d="M261 152.176H249C243.477 152.176 239 156.653 239 162.176V335.176C239 340.699 243.477 345.176 249 345.176H261C266.523 345.176 271 340.699 271 335.176V162.176C271 156.653 266.523 152.176 261 152.176Z" fill="#0087FF"/>
</g>
<g filter="url(#filter3_d_969_30930)">
<path d="M308 73.1758H296C290.477 73.1758 286 77.6529 286 83.1758V335.176C286 340.699 290.477 345.176 296 345.176H308C313.523 345.176 318 340.699 318 335.176V83.1758C318 77.6529 313.523 73.1758 308 73.1758Z" fill="#0087FF"/>
</g>
<g filter="url(#filter4_d_969_30930)">
<path d="M355 34.1758H343C337.477 34.1758 333 38.6529 333 44.1758V335.176C333 340.699 337.477 345.176 343 345.176H355C360.523 345.176 365 340.699 365 335.176V44.1758C365 38.6529 360.523 34.1758 355 34.1758Z" fill="#0087FF"/>
</g>
<g filter="url(#filter5_d_969_30930)">
<path d="M402 163.176H390C384.477 163.176 380 167.653 380 173.176V335.176C380 340.699 384.477 345.176 390 345.176H402C407.523 345.176 412 340.699 412 335.176V173.176C412 167.653 407.523 163.176 402 163.176Z" fill="#0087FF"/>
</g>
<g filter="url(#filter6_d_969_30930)">
<path d="M449 173.176H437C431.477 173.176 427 177.653 427 183.176V335.176C427 340.699 431.477 345.176 437 345.176H449C454.523 345.176 459 340.699 459 335.176V183.176C459 177.653 454.523 173.176 449 173.176Z" fill="#0087FF"/>
</g>
<g filter="url(#filter7_d_969_30930)">
<path d="M496 255.176H484C478.477 255.176 474 259.653 474 265.176V335.176C474 340.699 478.477 345.176 484 345.176H496C501.523 345.176 506 340.699 506 335.176V265.176C506 259.653 501.523 255.176 496 255.176Z" fill="#0087FF"/>
</g>
<g filter="url(#filter8_d_969_30930)">
<path d="M544.589 328.176H529.589C524.894 328.176 521.089 331.981 521.089 336.676C521.089 341.37 524.894 345.176 529.589 345.176H544.589C549.283 345.176 553.089 341.37 553.089 336.676C553.089 331.981 549.283 328.176 544.589 328.176Z" fill="#0087FF"/>
</g>
<defs>
<filter id="filter0_d_969_30930" x="129" y="310.176" width="76" height="66" filterUnits="userSpaceOnUse" color-interpolation-filters="sRGB">
<feFlood flood-opacity="0" result="BackgroundImageFix"/>
<feColorMatrix in="SourceAlpha" type="matrix" values="0 0 0 0 0 0 0 0 0 0 0 0 0 0 0 0 0 0 127 0" result="hardAlpha"/>
<feOffset dx="6" dy="9"/>
<feGaussianBlur stdDeviation="11"/>
<feComposite in2="hardAlpha" operator="out"/>
<feColorMatrix type="matrix" values="0 0 0 0 0 0 0 0 0 0.529412 0 0 0 0 1 0 0 0 0.08 0"/>
<feBlend mode="normal" in2="BackgroundImageFix" result="effect1_dropShadow_969_30930"/>
<feBlend mode="normal" in="SourceGraphic" in2="effect1_dropShadow_969_30930" result="shape"/>
</filter>
<filter id="filter1_d_969_30930" x="176" y="220.176" width="76" height="156" filterUnits="userSpaceOnUse" color-interpolation-filters="sRGB">
<feFlood flood-opacity="0" result="BackgroundImageFix"/>
<feColorMatrix in="SourceAlpha" type="matrix" values="0 0 0 0 0 0 0 0 0 0 0 0 0 0 0 0 0 0 127 0" result="hardAlpha"/>
<feOffset dx="6" dy="9"/>
<feGaussianBlur stdDeviation="11"/>
<feComposite in2="hardAlpha" operator="out"/>
<feColorMatrix type="matrix" values="0 0 0 0 0 0 0 0 0 0.529412 0 0 0 0 1 0 0 0 0.08 0"/>
<feBlend mode="normal" in2="BackgroundImageFix" result="effect1_dropShadow_969_30930"/>
<feBlend mode="normal" in="SourceGraphic" in2="effect1_dropShadow_969_30930" result="shape"/>
</filter>
<filter id="filter2_d_969_30930" x="223" y="139.176" width="76" height="237" filterUnits="userSpaceOnUse" color-interpolation-filters="sRGB">
<feFlood flood-opacity="0" result="BackgroundImageFix"/>
<feColorMatrix in="SourceAlpha" type="matrix" values="0 0 0 0 0 0 0 0 0 0 0 0 0 0 0 0 0 0 127 0" result="hardAlpha"/>
<feOffset dx="6" dy="9"/>
<feGaussianBlur stdDeviation="11"/>
<feComposite in2="hardAlpha" operator="out"/>
<feColorMatrix type="matrix" values="0 0 0 0 0 0 0 0 0 0.529412 0 0 0 0 1 0 0 0 0.08 0"/>
<feBlend mode="normal" in2="BackgroundImageFix" result="effect1_dropShadow_969_30930"/>
<feBlend mode="normal" in="SourceGraphic" in2="effect1_dropShadow_969_30930" result="shape"/>
</filter>
<filter id="filter3_d_969_30930" x="270" y="60.1758" width="76" height="316" filterUnits="userSpaceOnUse" color-interpolation-filters="sRGB">
<feFlood flood-opacity="0" result="BackgroundImageFix"/>
<feColorMatrix in="SourceAlpha" type="matrix" values="0 0 0 0 0 0 0 0 0 0 0 0 0 0 0 0 0 0 127 0" result="hardAlpha"/>
<feOffset dx="6" dy="9"/>
<feGaussianBlur stdDeviation="11"/>
<feComposite in2="hardAlpha" operator="out"/>
<feColorMatrix type="matrix" values="0 0 0 0 0 0 0 0 0 0.529412 0 0 0 0 1 0 0 0 0.08 0"/>
<feBlend mode="normal" in2="BackgroundImageFix" result="effect1_dropShadow_969_30930"/>
<feBlend mode="normal" in="SourceGraphic" in2="effect1_dropShadow_969_30930" result="shape"/>
</filter>
<filter id="filter4_d_969_30930" x="317" y="21.1758" width="76" height="355" filterUnits="userSpaceOnUse" color-interpolation-filters="sRGB">
<feFlood flood-opacity="0" result="BackgroundImageFix"/>
<feColorMatrix in="SourceAlpha" type="matrix" values="0 0 0 0 0 0 0 0 0 0 0 0 0 0 0 0 0 0 127 0" result="hardAlpha"/>
<feOffset dx="6" dy="9"/>
<feGaussianBlur stdDeviation="11"/>
<feComposite in2="hardAlpha" operator="out"/>
<feColorMatrix type="matrix" values="0 0 0 0 0 0 0 0 0 0.529412 0 0 0 0 1 0 0 0 0.08 0"/>
<feBlend mode="normal" in2="BackgroundImageFix" result="effect1_dropShadow_969_30930"/>
<feBlend mode="normal" in="SourceGraphic" in2="effect1_dropShadow_969_30930" result="shape"/>
</filter>
<filter id="filter5_d_969_30930" x="364" y="150.176" width="76" height="226" filterUnits="userSpaceOnUse" color-interpolation-filters="sRGB">
<feFlood flood-opacity="0" result="BackgroundImageFix"/>
<feColorMatrix in="SourceAlpha" type="matrix" values="0 0 0 0 0 0 0 0 0 0 0 0 0 0 0 0 0 0 127 0" result="hardAlpha"/>
<feOffset dx="6" dy="9"/>
<feGaussianBlur stdDeviation="11"/>
<feComposite in2="hardAlpha" operator="out"/>
<feColorMatrix type="matrix" values="0 0 0 0 0 0 0 0 0 0.529412 0 0 0 0 1 0 0 0 0.08 0"/>
<feBlend mode="normal" in2="BackgroundImageFix" result="effect1_dropShadow_969_30930"/>
<feBlend mode="normal" in="SourceGraphic" in2="effect1_dropShadow_969_30930" result="shape"/>
</filter>
<filter id="filter6_d_969_30930" x="411" y="160.176" width="76" height="216" filterUnits="userSpaceOnUse" color-interpolation-filters="sRGB">
<feFlood flood-opacity="0" result="BackgroundImageFix"/>
<feColorMatrix in="SourceAlpha" type="matrix" values="0 0 0 0 0 0 0 0 0 0 0 0 0 0 0 0 0 0 127 0" result="hardAlpha"/>
<feOffset dx="6" dy="9"/>
<feGaussianBlur stdDeviation="11"/>
<feComposite in2="hardAlpha" operator="out"/>
<feColorMatrix type="matrix" values="0 0 0 0 0 0 0 0 0 0.529412 0 0 0 0 1 0 0 0 0.08 0"/>
<feBlend mode="normal" in2="BackgroundImageFix" result="effect1_dropShadow_969_30930"/>
<feBlend mode="normal" in="SourceGraphic" in2="effect1_dropShadow_969_30930" result="shape"/>
</filter>
<filter id="filter7_d_969_30930" x="458" y="242.176" width="76" height="134" filterUnits="userSpaceOnUse" color-interpolation-filters="sRGB">
<feFlood flood-opacity="0" result="BackgroundImageFix"/>
<feColorMatrix in="SourceAlpha" type="matrix" values="0 0 0 0 0 0 0 0 0 0 0 0 0 0 0 0 0 0 127 0" result="hardAlpha"/>
<feOffset dx="6" dy="9"/>
<feGaussianBlur stdDeviation="11"/>
<feComposite in2="hardAlpha" operator="out"/>
<feColorMatrix type="matrix" values="0 0 0 0 0 0 0 0 0 0.529412 0 0 0 0 1 0 0 0 0.08 0"/>
<feBlend mode="normal" in2="BackgroundImageFix" result="effect1_dropShadow_969_30930"/>
<feBlend mode="normal" in="SourceGraphic" in2="effect1_dropShadow_969_30930" result="shape"/>
</filter>
<filter id="filter8_d_969_30930" x="505.089" y="315.176" width="76" height="61" filterUnits="userSpaceOnUse" color-interpolation-filters="sRGB">
<feFlood flood-opacity="0" result="BackgroundImageFix"/>
<feColorMatrix in="SourceAlpha" type="matrix" values="0 0 0 0 0 0 0 0 0 0 0 0 0 0 0 0 0 0 127 0" result="hardAlpha"/>
<feOffset dx="6" dy="9"/>
<feGaussianBlur stdDeviation="11"/>
<feComposite in2="hardAlpha" operator="out"/>
<feColorMatrix type="matrix" values="0 0 0 0 0 0 0 0 0 0.529412 0 0 0 0 1 0 0 0 0.08 0"/>
<feBlend mode="normal" in2="BackgroundImageFix" result="effect1_dropShadow_969_30930"/>
<feBlend mode="normal" in="SourceGraphic" in2="effect1_dropShadow_969_30930" result="shape"/>
</filter>
</defs>
</svg>
