<svg width="80" height="80" viewBox="0 0 80 80" fill="none" xmlns="http://www.w3.org/2000/svg">
<path d="M15.5 57.314L19.1563 55.0952C19.5189 54.8715 19.8183 54.5589 20.0261 54.187C20.2339 53.8151 20.3433 53.3963 20.3438 52.9702L20.4063 41.689C20.4112 41.2213 20.5524 40.7652 20.8125 40.3765L27 30.6577C27.1857 30.3706 27.4276 30.124 27.7112 29.933C27.9948 29.7419 28.3141 29.6103 28.65 29.546C28.9858 29.4818 29.3312 29.4862 29.6653 29.5591C29.9994 29.632 30.3152 29.7719 30.5938 29.9702L36.7188 34.4077C37.2472 34.7761 37.8904 34.9425 38.5313 34.8765L48.375 33.5327C48.9722 33.4505 49.5177 33.1499 49.9062 32.689L56.8437 24.689C57.2551 24.2013 57.4672 23.5763 57.4375 22.939L57.0938 15.3452" stroke="#2F2F2F" stroke-width="2" stroke-linecap="round" stroke-linejoin="round"/>
<path d="M58.4689 63.6565L55.0939 60.2815C54.7817 59.9695 54.3942 59.7435 53.9689 59.6252L47.2502 57.8752C46.6601 57.7137 46.1497 57.3414 45.8157 56.8289C45.4816 56.3163 45.3472 55.6991 45.4377 55.094L46.1564 50.0315C46.2278 49.6057 46.4056 49.2048 46.6733 48.8661C46.941 48.5274 47.2899 48.2618 47.6877 48.094L57.1877 44.1252C57.6289 43.9412 58.1137 43.8876 58.5845 43.9707C59.0552 44.0537 59.4923 44.2701 59.8439 44.594L67.6252 51.719" stroke="#0087FF" stroke-width="2" stroke-linecap="round" stroke-linejoin="round"/>
<path d="M40 70C56.5685 70 70 56.5685 70 40C70 23.4315 56.5685 10 40 10C23.4315 10 10 23.4315 10 40C10 56.5685 23.4315 70 40 70Z" stroke="#2F2F2F" stroke-width="2" stroke-linecap="round" stroke-linejoin="round"/>
</svg>
