<svg width="80" height="80" viewBox="0 0 80 80" fill="none" xmlns="http://www.w3.org/2000/svg">
<g clip-path="url(#clip0_3048_47945)">
<path d="M67.5 41.9062L62.5 47.7812L51 59.2812C50.6866 59.5743 50.3068 59.7871 49.8932 59.9014C49.4796 60.0157 49.0444 60.0281 48.625 59.9375L30.5 55.4062C30.1689 55.314 29.8604 55.1544 29.5937 54.9375L12.5 41.5938" stroke="#2F2F2F" stroke-width="2" stroke-linecap="round" stroke-linejoin="round"/>
<path d="M62.4993 47.7813L48.7493 37.7813L44.7493 40.7813C43.0163 42.0747 40.9118 42.7735 38.7493 42.7735C36.5868 42.7735 34.4823 42.0747 32.7493 40.7813L31.0618 39.5C30.7764 39.2831 30.5404 39.008 30.3693 38.693C30.1983 38.378 30.0961 38.0302 30.0695 37.6727C30.0429 37.3153 30.0925 36.9562 30.2151 36.6194C30.3377 36.2825 30.5304 35.9755 30.7805 35.7188L43.0305 23.5C43.2607 23.271 43.5337 23.0897 43.834 22.9664C44.1343 22.843 44.4559 22.7801 44.7805 22.7813H57.4993" stroke="#2F2F2F" stroke-width="2" stroke-linecap="round" stroke-linejoin="round"/>
<path d="M75.2187 38.0622L67.5 41.906L57.5 22.781L65.3125 18.8747C65.8931 18.5788 66.5672 18.5244 67.1877 18.7234C67.8082 18.9225 68.3249 19.3588 68.625 19.9372L76.3125 34.656C76.4684 34.9506 76.5638 35.2735 76.5931 35.6055C76.6224 35.9375 76.5849 36.2721 76.483 36.5895C76.3811 36.9068 76.2168 37.2006 75.9997 37.4536C75.7825 37.7065 75.517 37.9134 75.2187 38.0622V38.0622Z" stroke="#2F2F2F" stroke-width="2" stroke-linecap="round" stroke-linejoin="round"/>
<path d="M22.6875 22.4367L38.7188 17.7492C39.2884 17.5859 39.8975 17.6302 40.4375 17.8742L51.25 22.7805" stroke="#2F2F2F" stroke-width="2" stroke-linecap="round" stroke-linejoin="round"/>
<path d="M12.4995 41.5942L4.78072 37.7192C4.48352 37.5736 4.21864 37.3696 4.00183 37.1195C3.78503 36.8695 3.62072 36.5783 3.51868 36.2635C3.41665 35.9486 3.37896 35.6165 3.40787 35.2868C3.43678 34.957 3.5317 34.6365 3.68697 34.3442L11.3745 19.6255C11.6752 19.0474 12.1897 18.6097 12.8084 18.4054C13.4271 18.2011 14.1012 18.2464 14.687 18.5317L22.4995 22.438L12.4995 41.5942Z" stroke="#2F2F2F" stroke-width="2" stroke-linecap="round" stroke-linejoin="round"/>
<path d="M35 66.5312L25.5938 64.1563C25.2104 64.0697 24.8555 63.8868 24.5625 63.625L17.5 57.5" stroke="#0087FF" stroke-width="2" stroke-linecap="round" stroke-linejoin="round"/>
</g>
<defs>
<clipPath id="clip0_3048_47945">
<rect width="80" height="80" fill="white"/>
</clipPath>
</defs>
</svg>
