<svg width="80" height="80" viewBox="0 0 80 80" fill="none" xmlns="http://www.w3.org/2000/svg">
<path d="M40 70C56.5685 70 70 56.5685 70 40C70 23.4315 56.5685 10 40 10C23.4315 10 10 23.4315 10 40C10 56.5685 23.4315 70 40 70Z" stroke="#2F2F2F" stroke-width="2" stroke-linecap="round" stroke-linejoin="round"/>
<path d="M31.1562 31.1562L18.7812 18.7812" stroke="#2F2F2F" stroke-width="2" stroke-linecap="round" stroke-linejoin="round"/>
<path d="M48.8477 31.1562L61.2227 18.7812" stroke="#2F2F2F" stroke-width="2" stroke-linecap="round" stroke-linejoin="round"/>
<path d="M48.8477 48.8438L61.2227 61.2187" stroke="#2F2F2F" stroke-width="2" stroke-linecap="round" stroke-linejoin="round"/>
<path d="M31.1562 48.8438L18.7812 61.2187" stroke="#2F2F2F" stroke-width="2" stroke-linecap="round" stroke-linejoin="round"/>
<path d="M40 52.5C46.9036 52.5 52.5 46.9036 52.5 40C52.5 33.0964 46.9036 27.5 40 27.5C33.0964 27.5 27.5 33.0964 27.5 40C27.5 46.9036 33.0964 52.5 40 52.5Z" stroke="#0087FF" stroke-width="2" stroke-linecap="round" stroke-linejoin="round"/>
</svg>
