<svg width="666" height="339" viewBox="0 0 666 339" fill="none" xmlns="http://www.w3.org/2000/svg">
<path d="M282.464 108.506C281.543 109.313 281.709 110.723 281.018 111.491C279.853 112.773 278.932 114.31 277.179 115.117C275.977 115.545 274.959 116.376 274.299 117.469C273.639 118.562 273.377 119.85 273.557 121.114C273.761 123.677 272.149 125.637 269.717 126.713C265.878 128.405 263.996 131.839 261.897 135.26C260.515 137.515 259.76 140.167 257.84 142.102C256.381 143.588 256.675 145.318 257.379 146.997C258.258 148.836 258.678 150.862 258.602 152.9C258.526 154.937 257.957 156.926 256.944 158.695C256.622 159.26 256.413 159.882 256.33 160.527C256.099 162.385 256.663 164.23 256.061 166.165C255.754 167.177 256.637 168.638 258.006 169.432C259.432 170.239 260.668 171.343 261.63 172.67C262.593 173.996 263.26 175.514 263.587 177.12C263.832 178.15 264.339 179.099 265.058 179.875C267.618 182.707 270.92 184.731 273.825 187.204C276.142 189.178 278.676 187.807 280.02 186.935C282.26 185.487 284.231 186.013 286.202 186.32C288.173 186.628 289.734 186.922 291.641 185.603C294.871 183.537 298.756 182.756 302.532 183.412C303.203 183.5 303.83 183.793 304.327 184.252C304.824 184.711 305.168 185.312 305.31 185.974C305.796 187.602 306.359 188.281 308.394 187.742C309.201 187.408 310.083 187.299 310.946 187.427C311.81 187.556 312.622 187.917 313.296 188.473C315.101 190.164 315.856 192.163 314.87 194.367C314.522 194.881 314.31 195.476 314.257 196.095C314.203 196.714 314.308 197.337 314.563 197.903C315.024 198.826 314.102 199.928 313.693 200.889C313.283 201.85 312.976 202.708 313.91 203.72C316.56 206.578 317.839 210.319 320.015 213.484C322.063 216.457 321.884 219.98 322.575 223.299C322.818 224.58 322.767 225.785 323.036 227.028C323.624 229.795 322.101 232.063 320.706 234.229C320.073 235.206 319.759 236.357 319.81 237.522C319.768 238.622 319.648 239.718 319.452 240.802C319.145 242.967 320.182 244.979 321.231 246.837C323.203 250.377 324.505 254.252 325.071 258.266C325.467 260.829 325.378 263.391 325.941 265.954C326.542 268.709 328.872 270.541 330.075 272.976C331.431 275.705 333.134 278.306 332.929 281.599C332.801 283.457 332.43 285.443 334.516 286.724C334.975 287.074 335.519 287.297 336.091 287.372C336.664 287.446 337.246 287.368 337.78 287.147C340.737 285.914 343.906 285.269 347.11 285.251C348.725 285.281 350.318 284.869 351.717 284.059C354.61 281.971 357.873 280.215 359.486 276.691C360.151 275.399 360.987 274.201 361.969 273.129C363.69 271.115 364.698 268.588 364.836 265.941C364.856 265.258 365.088 264.598 365.501 264.053C365.914 263.509 366.487 263.107 367.139 262.904C370.173 261.738 371.248 259.586 370.684 256.37C370.548 254.641 370.265 252.926 369.84 251.245C369.225 249.451 371.017 248.349 372.476 247.272C375.33 245.158 378.939 244.133 381.179 241.058C382.196 239.879 382.754 238.374 382.753 236.817C382.664 234.011 383.496 231.256 383.265 228.424C383.163 227.143 383.099 225.862 381.986 225.195C380.706 224.311 380.872 223.12 380.834 221.89C380.856 219.701 380.732 217.514 380.463 215.342C380.002 212.574 381.742 210.127 382.766 207.654C383.931 204.989 386.542 203.323 388.231 201.043C390.625 197.801 393.888 195.494 396.537 192.535C397.783 191.282 398.938 189.942 399.993 188.524C402.681 184.514 404.178 179.965 406.213 175.711C406.866 174.327 406.418 172.674 407.339 171.239C407.903 170.393 406.469 168.946 405.573 169.471C403.717 170.547 401.542 170.278 399.775 170.983C397.924 171.594 396.04 172.099 394.131 172.495C391.213 173.289 389.255 172.008 389.242 168.958C389.294 168.392 389.22 167.822 389.026 167.288C388.831 166.754 388.52 166.27 388.116 165.87C385.966 163.809 383.702 161.871 381.333 160.066C380.744 159.691 380.255 159.18 379.905 158.575C379.555 157.971 379.356 157.291 379.323 156.594C379.209 155.832 378.931 155.105 378.509 154.461C378.087 153.817 377.531 153.273 376.879 152.865C376.332 152.416 375.902 151.841 375.626 151.19C375.35 150.538 375.235 149.829 375.292 149.124C375.338 147.603 375.076 146.09 374.521 144.674C373.967 143.258 373.132 141.969 372.067 140.885C370.301 139.001 369.379 136.259 368.458 133.889C367.536 131.518 365.552 129.968 364.772 127.662C364.592 127.136 363.952 126.675 364.528 126.034" stroke="#2F2F2F" stroke-linecap="round" stroke-linejoin="round"/>
<path d="M15.4508 52.5236C15.4508 53.3052 13.979 53.9458 15.2204 54.8556C16.2443 55.6115 16.6283 54.4712 17.3322 54.2021C20.0967 53.1258 21.0949 49.7944 24.0642 49.0128C25.0625 48.7437 26.0224 47.4496 26.8415 49.4484C27.123 50.1147 28.7356 49.7303 29.4012 49.4484C31.6793 48.3337 34.431 48.5515 36.4531 46.7448C37.349 45.9632 38.5009 45.566 39.256 47.1677C39.448 47.5777 40.0751 48.1286 40.3823 48.0646C43.2747 47.4624 45.2329 49.615 47.6518 50.3197C49.5972 50.8835 49.4692 52.2801 49.3924 53.2411C49.0725 56.9185 49.5332 58.2126 52.5153 60.0065C52.9269 60.2231 53.3549 60.4073 53.7951 60.5574C51.8625 62.505 51.1458 64.1835 52.5153 66.0671C52.7124 66.3333 52.8123 66.6593 52.7984 66.9904C52.7844 67.3216 52.6573 67.6379 52.4385 67.8865C51.7218 68.6041 51.8497 69.4882 51.517 70.2826C50.941 70.3723 50.2371 69.4882 49.7252 70.6286C49.7895 71.1474 49.9455 71.6507 50.1859 72.1149C52.9632 75.7154 51.325 78.7777 49.2644 81.9426C47.4343 84.7615 45.1177 87.1575 43.1724 89.8611C41.131 92.5166 39.8085 95.6544 39.3328 98.9713C39.0128 102.008 39.8191 105.173 40.1391 108.286C40.2043 109.167 40.5266 110.01 41.0658 110.709C41.605 111.409 42.3375 111.934 43.1724 112.22C44.721 112.822 44.7722 113.95 44.8106 115.282C44.8874 117.538 45.6297 119.78 45.2329 122.048C45.0537 123.073 45.9752 123.406 46.2824 124.111C46.5896 124.815 47.5622 125.635 47.5622 126.481C47.5622 127.762 45.988 127.096 45.8984 128.301C46.0307 128.711 46.2485 129.09 46.5375 129.41C46.8265 129.73 47.1802 129.985 47.575 130.159C48.3638 130.528 49.014 131.14 49.4308 131.905C49.8475 132.67 50.009 133.549 49.8916 134.412C49.8038 134.817 49.8773 135.24 50.0963 135.591C51.1918 136.877 52.1445 138.277 52.9376 139.768C53.0025 139.944 53.1086 140.101 53.247 140.227C53.3854 140.353 53.552 140.443 53.7327 140.491C53.9135 140.539 54.1031 140.542 54.2855 140.501C54.4678 140.46 54.6377 140.376 54.7806 140.255C54.939 140.141 55.0709 139.994 55.1673 139.824C55.2638 139.655 55.3225 139.466 55.3395 139.271C55.3565 139.077 55.3314 138.881 55.2659 138.697C55.2003 138.513 55.0959 138.345 54.9598 138.205C52.7072 136.424 53.3472 133.439 52.0929 131.465C50.3267 128.711 51.2354 125.225 48.9957 122.701C48.0358 121.612 48.9957 119.101 50.4291 118.024C52.1569 118.729 52.4257 120.113 52.2337 121.868C52.1403 122.575 52.1897 123.292 52.3787 123.979C52.5678 124.666 52.8928 125.308 53.3344 125.866C54.981 127.981 56.1472 130.429 56.7516 133.041C57.0971 134.438 58.7481 135.489 59.644 136.809C61.6534 139.756 64.0595 142.639 62.0246 146.611C61.8326 146.982 61.7942 147.777 62.0246 147.892C64.0211 149.481 65.0834 152.312 68.0526 152.569C68.289 152.595 68.5161 152.676 68.716 152.805C68.9158 152.934 69.0831 153.107 69.2045 153.312C70.7287 155.07 72.7731 156.295 75.0406 156.81C75.6084 156.974 76.1542 157.206 76.666 157.502C78.6754 158.783 80.5696 159.36 83.0653 158.296C83.421 158.111 83.8118 158.003 84.2121 157.98C84.6125 157.956 85.0132 158.018 85.3879 158.161C85.7627 158.304 86.103 158.524 86.3865 158.808C86.67 159.092 86.8903 159.433 87.0328 159.808C87.6332 161.049 88.5463 162.111 89.6819 162.891C90.8175 163.671 92.1365 164.141 93.5089 164.254C95.3007 164.511 96.8365 166.253 98.8586 165.19C98.9866 165.536 99.5882 165.305 99.5754 165.894C99.5754 167.176 100.638 167.88 101.431 168.688C102.048 169.229 102.448 169.975 102.557 170.789C102.647 172.442 102.852 173.851 104.912 174.095C105.258 174.095 105.68 174.62 105.834 175.005C107.242 178.49 111.043 178.477 113.513 180.514C114.358 179.412 114.524 178.067 115.65 177.298C116.777 176.529 118.453 176.696 118.901 177.798C120.578 181.796 121.371 186.101 119.695 190.086C118.539 192.431 116.999 194.566 115.138 196.403C114.146 197.455 113.413 198.724 112.997 200.11C112.582 201.496 112.495 202.96 112.745 204.385C113.065 205.833 114.46 204.808 114.742 205.936C114.242 206.525 114.127 207.358 113.142 207.973C112.787 208.155 112.475 208.411 112.228 208.724C111.98 209.037 111.803 209.4 111.709 209.788C111.614 210.176 111.604 210.579 111.679 210.972C111.754 211.364 111.912 211.735 112.143 212.06C112.143 212.15 112.374 212.265 112.361 212.291C110.761 215.212 113.782 215.417 114.921 216.737C116.723 218.927 118.178 221.382 119.234 224.015C120.938 227.868 122.977 231.564 125.326 235.06C126.904 237.405 129.127 239.243 131.725 240.352C137.357 242.748 139.942 247.284 139.903 253.357C139.957 256.488 140.248 259.611 140.774 262.698C140.771 264.18 140.642 265.658 140.39 267.118C140.124 271.231 140.659 275.357 141.964 279.265C142.436 280.519 142.589 281.871 142.412 283.199C141.964 285.762 142.553 288.324 141.452 290.977C140.915 292.258 141.554 294.385 142.322 295.769C143.674 298.37 143.985 301.39 143.193 304.213C142.898 305.635 144.268 306.173 145.036 307.006" stroke="#2F2F2F" stroke-linecap="round" stroke-linejoin="round"/>
<path d="M446.026 142.59L445.297 143.691C446.065 145.511 448.317 145.78 449.584 147.202C449.762 147.26 449.952 147.276 450.137 147.247C450.322 147.219 450.498 147.148 450.651 147.04C450.804 146.932 450.929 146.789 451.017 146.624C451.105 146.459 451.154 146.275 451.159 146.088C451.159 145.575 451.018 145.011 451.709 144.652C452.784 144.922 453.104 145.703 452.989 146.792C452.953 148.323 453.246 149.843 453.846 151.251C454.038 151.751 454.435 152.379 454.345 152.853C453.552 156.902 456.291 160.015 457.315 163.552C458.094 166.161 459.272 168.634 460.809 170.881C462.229 172.97 462.485 175.724 464.085 177.877C464.572 178.639 465.303 179.213 466.158 179.504C467.912 177.762 468.321 174.917 470.676 173.597C470.779 173.597 470.676 173.149 470.676 172.918C470.446 169.074 471.956 165.077 469.96 161.22C470.799 160.271 471.974 159.688 473.236 159.593C473.508 159.619 473.783 159.57 474.029 159.45C474.275 159.33 474.484 159.144 474.631 158.914C476.154 155.749 478.816 153.468 480.941 150.777C481.434 150.25 481.978 149.774 482.566 149.355C483.027 148.97 483.948 148.458 483.846 148.215C483.001 144.998 485.407 146.036 486.918 145.549C488.85 144.934 491.295 145.267 492.536 143.064C492.536 143.064 492.536 142.91 492.536 142.833C492.536 142.756 492.959 142.833 492.997 142.833C494.725 145.985 497.323 148.42 499.691 151.059C500.32 151.781 500.797 152.623 501.092 153.535C501.387 154.447 501.494 155.409 501.406 156.364C501.342 157.209 501.406 158.068 501.406 158.824C504.298 160.041 505.898 158.632 507.203 156.556C507.826 157.121 508.271 157.856 508.483 158.67C509.328 162.514 511.299 165.897 511.772 169.869C512.017 172.355 512.115 174.854 512.067 177.352C512.067 177.967 511.824 178.492 512.374 178.992C514.934 181.298 515.855 184.54 517.033 187.615C518.504 191.459 520.552 194.803 524.712 196.238C524.942 196.328 524.993 196.238 524.942 196.008C524.187 192.074 524.737 187.641 520.936 184.886C520.386 184.489 519.963 183.886 519.336 183.604C518.623 183.316 518.005 182.833 517.552 182.21C517.1 181.587 516.831 180.849 516.777 180.081C516.505 178.957 515.831 177.972 514.882 177.313C514.536 177.035 514.267 176.672 514.103 176.258C513.94 175.845 513.886 175.396 513.948 174.956C513.912 172.535 514.062 170.114 514.396 167.716C514.524 166.999 514.537 166.281 515.369 166.115C515.519 166.081 515.674 166.079 515.825 166.108C515.976 166.137 516.119 166.196 516.246 166.282C516.373 166.369 516.481 166.48 516.564 166.61C516.646 166.74 516.701 166.885 516.725 167.037C516.815 167.434 516.917 167.857 517.224 167.934C520.386 168.613 522.05 171.368 524.481 173.059C526.055 174.123 525.607 175.878 526.529 177.121C526.684 177.019 526.847 176.929 527.015 176.852C529.785 175.021 532.359 172.909 534.694 170.548C535.339 169.413 535.527 168.075 535.219 166.806C534.403 162.17 531.994 157.964 528.41 154.916C527.541 154.245 526.773 153.451 526.132 152.558C525.544 151.495 525.006 150.213 526.286 149.06C526.783 148.602 527.214 148.076 527.566 147.497C530.125 143.551 532.378 143.653 534.72 147.689C536.675 145.78 539.071 144.384 541.695 143.627C544.933 142.743 548.619 141.744 550.424 138.733C551.806 136.452 554.161 134.479 554.11 131.352C554.261 130.455 554.559 129.589 554.993 128.79C555.786 126.65 555.953 124.228 552.804 122.383L554.302 121.538C553.163 120.256 554.123 118.219 552.267 117.002C550.427 115.892 549.001 114.209 548.21 112.21C547.89 111.325 546.93 111.031 546.175 110.749C546.175 108.02 548.12 106.905 550.014 105.841C549.59 105.354 549.072 104.956 548.492 104.672C547.912 104.387 547.281 104.222 546.636 104.185C545.991 104.148 545.345 104.24 544.736 104.456C544.127 104.673 543.568 105.008 543.09 105.444C542.591 105.316 542.156 105.252 542.13 104.509C542.13 103.227 541.465 102.638 540.057 102.817C539.583 102.817 538.624 102.817 538.649 101.703C538.675 100.588 539.2 100.908 539.814 100.729C540.275 100.65 540.706 100.451 541.066 100.152C541.425 99.8525 541.7 99.4638 541.862 99.0248C542.322 97.7435 543.321 96.6287 545.036 97.3206C545.816 98.6019 545.036 100.229 546.315 101.408C546.763 101.229 547.48 101.165 547.595 100.844C548.722 98.3457 550.846 99.3835 552.523 99.5629C552.835 99.5613 553.143 99.6274 553.428 99.7564C553.712 99.8855 553.965 100.075 554.169 100.311C554.373 100.547 554.524 100.825 554.611 101.124C554.698 101.424 554.719 101.74 554.673 102.049C554.519 103.561 555.044 104.611 556.964 104.419C558.103 104.291 558.474 105.188 558.884 106.226C559.69 108.289 560.816 110.236 561.904 112.402C563.581 111.12 565.539 111.12 567.023 110.031C565.321 105.611 561.571 102.817 558.82 99.2939C559.244 98.2402 559.926 97.3104 560.803 96.5903C559.268 94.4761 561.123 93.0154 561.763 91.606C562.403 90.1965 563.99 91.2472 565.129 91.7725C566.268 92.2979 566.537 92.1185 567.343 90.9269C569.532 87.7236 569.225 83.9565 570.428 80.561C570.653 79.6846 570.678 78.7687 570.5 77.8814C570.323 76.9941 569.948 76.1581 569.404 75.4357C568.457 73.8469 566.512 72.4503 567.459 70.1055" stroke="#2F2F2F" stroke-linecap="round" stroke-linejoin="round"/>
<path d="M183.674 279.496C182.726 280.06 183.034 280.995 182.97 281.828C182.929 282.747 182.666 283.642 182.202 284.436C181.738 285.229 181.087 285.898 180.306 286.383C179.526 286.867 178.639 287.154 177.722 287.218C176.806 287.282 175.887 287.12 175.047 286.748C174.036 286.338 172.987 285.646 171.63 286.249C172.564 287.761 173.767 288.965 174.651 290.413C176.57 293.539 175.93 295.871 172.488 297.217C171.589 297.532 170.634 297.654 169.685 297.575C169.172 297.461 168.64 297.458 168.126 297.566C167.612 297.675 167.126 297.892 166.703 298.203C167.189 299.382 166.703 300.933 167.611 302.342C166.853 302.807 166.006 303.109 165.125 303.228C164.243 303.347 163.346 303.281 162.492 303.034C161.686 303.969 162.492 304.61 162.966 305.122C165.065 307.685 165.103 310.671 162.966 312.81C161.11 314.681 161.391 315.834 163.9 316.782C166.946 317.923 167.407 320.293 164.796 322.33C163.605 323.266 164.45 324.739 163.26 325.713C161.762 326.994 163.644 327.84 164.092 328.929C165.551 332.517 169.032 333.67 171.835 335.656C172.513 336.143 173.345 336.438 173.703 337.309C172.703 337.869 171.526 338.025 170.414 337.745C167.445 337.553 164.373 337.745 161.993 335.246C161.02 334.234 159.254 334.721 158.025 333.619C153.989 330.132 150.747 325.82 148.516 320.972C148.209 320.268 148.234 320.242 149.476 317.923C149.182 317.756 148.721 317.513 148.286 317.244C147.851 316.975 146.43 317.346 146.494 316.321C146.493 316.09 146.54 315.861 146.632 315.649C146.723 315.437 146.856 315.246 147.024 315.087C147.192 314.929 147.391 314.807 147.608 314.728C147.825 314.649 148.055 314.616 148.286 314.63C148.503 314.63 149.015 313.963 148.938 313.758C147.953 311.119 148.119 308.262 147.339 305.584C147.195 305.182 147.028 304.788 146.839 304.405C144.856 306.673 144.817 307.288 146.187 308.146" stroke="#2F2F2F" stroke-linecap="round" stroke-linejoin="round"/>
<path d="M265.288 21.0297C266.657 19.7484 269.128 20.2993 269.895 18.2236C270.292 17.0832 270.766 16.2248 271.713 15.93C272.122 14.5719 270.779 14.4181 270.625 13.5981C270.894 12.7396 271.598 12.3167 272.25 12.6755C273.428 13.3162 274.209 13.1496 274.58 11.9323C274.951 10.7151 274.401 10.1513 273.21 10.0488C273.108 10.0488 273.044 9.76691 272.75 9.24157C274.951 8.21652 276.679 6.67894 279.226 5.9614C281.491 5.38481 284.038 6.11516 286.073 4.33413C283.065 3.56534 280.07 2.52748 276.947 3.36033C276.344 3.57028 275.698 3.62634 275.068 3.52343C274.438 3.42051 273.843 3.16187 273.338 2.77093C271.093 1.47716 268.512 0.883784 265.928 1.06677C264.354 1.14365 262.818 0.977083 261.256 1.00271C258.313 1.06677 255.369 1.43836 252.413 1.4768C248.676 1.54086 244.823 1.39992 241.265 2.30965C238.705 2.96312 236.031 1.93807 233.778 3.59097C233.621 3.72409 233.431 3.81225 233.229 3.84609C233.026 3.87992 232.818 3.85818 232.626 3.78317C230.31 1.64337 227.788 4.206 225.357 3.37314C224.568 3.17493 223.745 3.15252 222.947 3.3075C222.149 3.46248 221.394 3.79107 220.736 4.27007C220.078 4.5844 219.354 4.73808 218.625 4.71853C215.394 5.00372 212.263 5.98733 209.448 7.60149C206.725 9.13536 203.6 9.80137 200.489 9.51065C199.337 9.42096 199.069 9.88223 198.441 10.5741C199.977 12.0861 201.001 14.5334 203.497 13.9696C206.812 13.2137 209.896 13.9696 213.07 14.4693C214.056 14.6103 214.99 14.7512 214.644 15.8916C214.332 17.0537 214.46 18.2903 215.003 19.364C215.668 20.8503 213.544 21.0169 214.094 22.4519C215.079 22.6185 216.654 22.4519 216.551 24.4892C215.092 24.8224 213.045 24.4892 212.84 26.8597C213.403 28.141 214.542 26.4368 215.399 27.6157C215.399 28.1922 215.745 28.897 214.286 29.2686C210.446 30.3449 208.987 35.4958 210.933 39.045C211.854 40.7107 213.851 41.9664 213.39 44.3753C213.275 44.9775 213.992 45.3619 214.734 45.2978C215.567 45.267 216.387 45.515 217.063 46.0025C221.3 48.8983 221.236 47.6426 223.373 44.8365C224.793 42.6698 226.806 40.9574 229.171 39.9035C229.787 39.6962 230.33 39.3132 230.732 38.8015C232.575 35.9827 235.531 35.6367 238.411 35.0601C239.935 34.9463 241.39 34.3847 242.596 33.4456C245.156 30.883 248.714 30.6396 251.952 30.063C255.576 29.3378 259.139 28.3398 262.613 27.0775C263.24 26.7527 263.792 26.2997 264.233 25.7479C264.674 25.1961 264.994 24.5578 265.173 23.8742C265.294 23.6217 265.363 23.3469 265.373 23.0668C265.384 22.7867 265.337 22.5075 265.235 22.2465C265.132 21.9855 264.978 21.7484 264.78 21.5501C264.582 21.3517 264.345 21.1964 264.085 21.0938" stroke="#2F2F2F" stroke-linecap="round" stroke-linejoin="round"/>
<path d="M112.372 30.127C112.974 29.2301 113.268 28.3588 111.681 28.5254C108.456 28.8457 105.704 27.4619 102.799 26.4752C101.391 25.9883 99.7144 24.8992 98.0506 26.7443C97.5002 24.8352 96.0924 25.1427 94.9021 25.258C91.2418 25.6168 87.671 26.6803 83.9466 26.6674C82.5388 26.6674 81.3869 27.7438 80.0303 28.1538C79.1602 28.4675 78.2326 28.5888 77.3113 28.5091C76.3899 28.4295 75.4968 28.1509 74.6933 27.6925C72.1336 26.0012 69.2027 26.3343 66.4639 25.7321C62.2276 24.7967 57.7737 25.0402 53.6654 23.3745C52.2703 22.7979 51.0289 23.5026 49.6978 23.7973C46.4598 24.5276 43.1706 25.0786 39.9326 25.7193C38.8006 25.9709 37.7043 26.3626 36.6689 26.8853C34.5956 27.9231 32.5606 28.9482 30.1417 28.2691C29.722 28.2091 29.2946 28.2325 28.8839 28.338C28.4732 28.4436 28.0874 28.6291 27.7484 28.8841C28.9131 29.9476 27.6716 31.4468 28.2091 32.7281C28.4011 33.2278 27.6204 33.6762 26.9293 33.6378C25.4377 33.7927 23.9304 33.6178 22.5138 33.1253C22.117 32.9331 21.7843 32.5487 21.3363 32.7153C19.4262 33.383 17.6207 34.3192 15.9738 35.4957C15.7492 35.6405 15.5825 35.8597 15.503 36.115C15.4235 36.3703 15.4361 36.6454 15.5386 36.8924C15.7562 37.4818 16.3833 37.4049 16.9081 37.3664L23.9088 36.8667C23.8448 39.2372 21.8739 40.7107 18.7894 40.6082C16.2297 40.6082 13.7852 40.6082 11.5583 42.0176C9.87099 43.1728 8.04304 44.1072 6.11892 44.7981C5.33821 45.0672 4.83907 45.4003 4.73668 46.2331C4.64709 47.3607 5.54298 47.5913 6.37489 47.9501C6.54127 48.8983 4.5319 49.1289 5.4406 50.5127C7.1684 50.5127 9.15216 49.808 10.3168 51.8709C9.34414 53.0754 7.75713 53.2676 6.59246 54.2157" stroke="#2F2F2F" stroke-linecap="round" stroke-linejoin="round"/>
<path d="M585.593 288.659C584.505 289.633 585.043 290.581 586.066 290.683C588.037 290.888 587.346 292.144 586.924 292.81C586.502 293.477 585.644 294.322 585.887 295.642C587.897 295.642 589.33 297.141 591.007 298.281L594.104 296.731C595.384 297.039 595.665 298.346 596.664 298.679C599.454 298.102 601.783 296.116 604.842 296.257C606.621 296.334 607.107 294.079 608.054 292.823C610.413 289.53 613.318 286.666 616.642 284.354C618.55 283.148 620.193 281.566 621.471 279.705C622.75 277.844 623.637 275.742 624.078 273.526C624.603 270.887 625.217 268.209 625.742 265.557C626.011 264.198 626.254 262.558 624.641 261.597C624.136 261.343 623.726 260.933 623.47 260.428C623.215 259.923 623.127 259.35 623.221 258.791C623.221 258.573 623.144 258.176 623.003 258.125C620.341 257.151 620.866 254.281 619.778 252.487C619.053 250.888 617.808 249.582 616.245 248.784C615.145 248.31 615.196 247.426 615.042 246.439C614.523 244.303 614.371 242.093 614.594 239.905C614.689 239.357 614.602 238.793 614.348 238.298C614.094 237.803 613.687 237.405 613.186 237.163C611.625 236.445 611.663 235.125 611.344 233.844C610.832 231.794 610.23 229.757 609.603 227.438C607.338 229.001 607.274 231.41 606.8 233.37C606.198 235.933 606.058 238.495 604.803 240.789C604.176 241.942 604.496 243.505 603.204 244.312C602.999 244.441 602.756 244.517 602.346 244.71C599.966 241.852 595.512 241.622 594.155 237.573C595.435 236.291 595.32 233.921 596.856 232.358C597.406 231.807 596.382 230.525 596.011 230.641C594.449 231.115 593.285 229.885 591.775 229.962C590.264 230.039 589.01 229.078 587.385 228.475C587.385 230.859 585.951 231.038 584.095 231.115C582.931 231.179 581.152 231.179 581.011 233.344C580.921 234.626 578.631 234.882 579.322 236.881C579.565 237.598 577.683 237.803 576.877 236.881C574.561 234.152 573.294 234.036 570.849 236.689C569.748 237.867 567.649 238.559 568.289 240.853C566.856 241.442 565.794 243.211 563.746 242.134C562.901 244.505 562.184 246.773 560.213 248.477C559.619 249.105 558.875 249.572 558.051 249.835C554.134 250.95 550.269 252.244 546.391 253.525C545.474 253.831 544.662 254.391 544.049 255.14C543.332 256.011 542.552 256.805 541.029 256.062C541.029 258.138 541.131 259.765 540.171 261.251C540.003 261.616 539.928 262.017 539.955 262.418C539.982 262.819 540.109 263.206 540.325 263.545C540.721 264.16 540.862 265.057 540.325 265.364C538.187 266.505 539.749 267.607 540.043 268.927C540.606 271.425 540.209 274.052 540.222 276.614C540.222 278.818 540.645 281.253 539.275 283.431C538.84 284.123 538.968 284.879 537.803 285.084C536.639 285.289 536.6 286.083 537.291 287.134C538.047 288.17 539.18 288.866 540.445 289.072C541.709 289.278 543.004 288.978 544.049 288.236C545.162 287.368 546.444 286.744 547.814 286.404C549.183 286.064 550.608 286.016 551.997 286.263C552.691 286.374 553.4 286.338 554.079 286.157C554.758 285.976 555.392 285.654 555.939 285.212C559.778 282.47 564.219 282.034 568.558 281.073C569.195 280.993 569.819 280.829 570.414 280.587C573.537 279.049 576.058 281.24 578.797 282.009C579.539 282.214 579.386 283.085 579.232 283.61C578.733 285.366 579.45 286.814 580.243 288.377L585.094 285.942" stroke="#2F2F2F" stroke-linecap="round" stroke-linejoin="round"/>
<path d="M559.037 186.424C557.757 185.258 556.477 184.041 555.056 182.939C554.225 182.285 553.341 181.939 552.714 183.374C552.087 184.81 550.654 185.937 550.398 187.59C550.398 187.833 550.091 188.269 549.95 188.256C547.39 188.064 547.249 190.729 545.765 191.806C545.192 192.398 544.458 192.809 543.653 192.984C542.463 193.087 541.516 193.522 541.528 195.06C541.528 196.341 540.735 196.162 539.929 195.752C537.369 194.471 536.524 194.906 536.422 197.853C536.452 200.16 537.078 202.42 538.239 204.414C539.276 206.489 540.377 207.668 542.949 207.796C544.472 207.873 545.957 208.745 547.621 208.142C549.284 207.54 548.9 209.744 550.027 210C552.42 209.155 553.073 207.438 553.341 204.875C553.61 202.312 556.208 200.839 556.336 198.11C556.336 197.507 557.987 198.289 558.563 197.379C553.508 189.025 555.709 189.986 558.806 186.667" stroke="#2F2F2F" stroke-linecap="round" stroke-linejoin="round"/>
<path d="M399.202 80.5195C398.306 81.0064 397.333 80.6861 396.399 80.7374C394.326 80.8399 389.885 84.4147 389.693 86.3495C389.668 86.7786 389.733 87.2081 389.885 87.61C390.037 88.0119 390.273 88.3771 390.576 88.6815C393.072 91.2441 394.249 94.8062 396.86 97.3176C397.096 97.6001 397.239 97.949 397.269 98.3162C397.298 98.6833 397.214 99.0507 397.026 99.3677C396.514 100.149 396.655 100.969 396.258 101.93C398.463 103.501 400.853 104.792 403.374 105.774C403.836 105.93 404.326 105.983 404.81 105.93C405.294 105.877 405.76 105.719 406.177 105.467C407.521 104.839 406.587 103.878 406.472 102.904C405.93 99.3753 404.469 96.0518 402.235 93.2686C400.739 91.1643 399.064 89.1924 397.231 87.3746C398.121 86.2262 399.247 85.2824 400.533 84.6069C402.133 83.9535 401.429 81.6343 399.407 80.5195" stroke="#2F2F2F" stroke-linecap="round" stroke-linejoin="round"/>
<path d="M361.459 83.789C361.587 87.2998 362.009 87.5048 364.966 85.9032C365.939 85.4378 367.003 85.1963 368.082 85.1963C369.16 85.1963 370.225 85.4378 371.198 85.9032C375.038 87.5304 378.097 90.3365 381.168 93.4373C378.071 96.2562 374.692 95.9999 371.506 95.0518C369.483 94.4623 367.41 94.0139 365.413 93.3092C364.612 92.9903 363.741 92.8876 362.888 93.0112C362.034 93.1349 361.228 93.4806 360.55 94.0139C359.641 94.7186 358.989 94.9877 357.926 94.2573C357.211 93.906 356.419 93.7387 355.623 93.7704C352.935 93.5526 352.321 92.4891 352.794 89.5421C353.319 86.2875 355.495 84.0965 357.158 80.9316C358.272 83.1227 360.537 81.7773 361.459 83.4943" stroke="#2F2F2F" stroke-linecap="round" stroke-linejoin="round"/>
<path d="M364.246 125.535C366.012 125.958 366.806 127.713 368.086 128.61C368.7 128.392 368.713 127.611 369.468 127.637C370.748 129.687 371.925 131.89 373.307 134.043C374.159 135.349 375.082 136.606 376.072 137.81C377.71 139.847 379.528 142.039 379.412 144.96C379.364 145.363 379.427 145.772 379.594 146.143C379.76 146.513 380.025 146.831 380.359 147.061C384.685 150.2 386.183 155.134 388.256 159.669C389.19 161.707 389.165 164.064 390.573 165.986C391.52 167.268 392.3 167.268 393.67 166.704C395.783 165.769 397.96 164.985 400.184 164.359C401.848 163.872 402.834 162.424 404.549 161.796C406.264 161.169 409.015 160.784 409.668 157.952C410.153 157.3 410.858 156.844 411.652 156.671C413.056 156.537 414.413 156.098 415.629 155.383C416.845 154.668 417.89 153.695 418.691 152.532C419.036 152.046 420.035 152.033 421.046 151.687C419.523 148.458 421.852 146.562 423.772 144.563C423.948 144.425 424.09 144.249 424.187 144.048C424.285 143.847 424.336 143.627 424.336 143.403C424.336 143.18 424.285 142.959 424.187 142.758C424.09 142.557 423.948 142.381 423.772 142.244C422.415 140.962 421.737 139.053 419.356 138.874C418.626 138.727 417.97 138.329 417.503 137.748C417.035 137.168 416.785 136.442 416.797 135.696C416.797 134.748 416.003 134.415 415.901 133.326C414.173 135.183 413.136 137.695 410.653 137.925C409.092 138.079 407.134 138.835 405.777 137.08C406.148 136.031 406.148 134.887 405.777 133.838C405.265 132.557 404.702 133.261 404.152 133.838" stroke="#2F2F2F" stroke-linecap="round" stroke-linejoin="round"/>
<path d="M167.598 83.7871C163.912 85.3631 159.625 84.7994 156.143 87.2339C155.122 87.8464 154.241 88.6672 153.558 89.643C152.874 90.6187 152.403 91.7275 152.176 92.8973C149.798 92.7898 147.444 93.4015 145.418 94.6527C144.302 95.2043 143.345 96.0337 142.641 97.0615C142.065 97.8816 141.835 99.086 140.337 98.9963C139.544 98.9963 139.557 99.8804 139.352 100.56C139.032 101.623 138.469 102.738 137.176 101.405C135.819 102.827 137.458 105.019 135.679 106.172C135.807 109.606 133.119 110.669 130.777 112.002C127.38 113.846 124.199 116.063 121.293 118.613C120.604 119.25 120.128 120.084 119.931 121.001C119.734 121.919 119.825 122.875 120.192 123.739C121.173 126.417 121.369 129.32 120.756 132.106C120.487 133.182 120.09 134.425 118.887 134.668C117.684 134.912 117.057 133.669 116.558 132.631C115.828 131.068 115.086 129.594 115.598 127.711C116.11 125.827 114.599 124.597 113.985 123.072C113.94 122.999 113.875 122.938 113.799 122.898C113.722 122.857 113.636 122.838 113.55 122.842C111.528 123.751 110.12 121.791 108.431 121.753C106.741 121.714 105.231 122.624 103.529 122.355C102.914 122.252 102.684 122.752 102.377 123.072C101.097 124.354 99.7148 124.443 97.9102 123.841C96.8325 123.451 95.6812 123.307 94.5406 123.42C93.4001 123.533 92.2993 123.9 91.319 124.495C88.9711 125.849 86.7481 127.41 84.6766 129.159C84.1902 129.543 83.3967 129.889 83.4991 130.76C84.1006 134.079 81.5153 136.321 80.5811 139.114C79.6468 141.908 79.122 144.24 81.1442 146.636C81.536 147.089 81.7775 147.653 81.8353 148.25C81.8993 150.313 83.4223 151.018 84.8942 151.735C85.5687 152.139 86.3482 152.331 87.1327 152.288C87.9171 152.244 88.6708 151.967 89.2968 151.492C90.2823 150.723 90.8327 152.056 91.9973 151.607C92.2533 149.531 95.0306 148.75 95.0946 145.931C95.0946 144.65 97.5775 143.919 99.0877 144.15C100.598 144.381 102.722 143.356 103.682 145.841C101.289 147.481 101.673 150.646 99.8428 152.735C98.7933 154.016 99.2285 155.887 98.435 157.373C98.1918 157.822 98.5758 158.257 99.3181 158.321C100.717 158.546 102.143 158.546 103.542 158.321C107.535 157.412 109.774 160.192 108.661 164.074C107.663 167.624 107.381 171.058 109.429 174.632C110.709 176.964 112.552 176.644 113.678 175.914C116.967 173.62 119.309 174.876 121.549 177.272C123.066 176.252 124.37 174.947 125.389 173.428C126.54 171.955 127.795 170.468 130.009 170.314C131.289 170.225 131.877 168.815 132.786 168.021C133.695 167.226 134.066 166.445 135.167 167.598C135.064 168.662 133.196 169.507 134.668 170.827" stroke="#2F2F2F" stroke-linecap="round" stroke-linejoin="round"/>
<path d="M446.737 142.586C443.844 141.843 441.848 139.857 439.966 137.692C439.49 136.978 438.821 136.414 438.037 136.064C437.253 135.715 436.387 135.595 435.538 135.718C433.052 136.016 430.536 135.929 428.076 135.462C425.594 134.975 422.957 135.539 420.397 134.95C419.869 134.889 419.363 134.706 418.919 134.414C418.474 134.123 418.104 133.731 417.838 133.271C416.417 130.811 416.289 131.118 413.409 131.528C411.054 131.874 408.495 132.118 406.601 129.581C405.321 127.8 403.03 126.826 402.607 124.174C402.403 122.892 400.048 122.892 398 123.956C398.5 126.303 399.733 128.43 401.52 130.029C403.043 131.311 402.799 133.527 403.875 135.155" stroke="#2F2F2F" stroke-linecap="round" stroke-linejoin="round"/>
<path d="M389.655 24.7705C385.623 21.5801 385.726 20.5806 390.103 17.7489C391.87 16.5915 393.864 15.8268 395.952 15.5066C398.038 15.1863 399.714 13.8409 402.146 13.7768C401.734 13.1729 401.108 12.7482 400.395 12.5889C399.683 12.4295 398.936 12.5472 398.306 12.9184C396.862 13.3388 395.369 13.5672 393.865 13.5975C389.13 14.2509 384.906 15.6476 382.641 20.555C381.272 23.5789 381.105 23.5405 384.075 24.7577C385.874 25.3889 387.82 25.4735 389.667 25.0012" stroke="#2F2F2F" stroke-linecap="round" stroke-linejoin="round"/>
<path d="M652.699 304.688L655.041 301.895C655.117 301.075 654.222 300.742 654.068 299.871C655.348 298.051 658.202 297.539 658.599 294.669C658.88 292.644 658.304 290.825 658.291 288.826C660.186 288.416 661.235 289.159 660.762 291.132C660.288 293.105 662.118 294.271 661.632 296.078C661.529 296.475 662.464 296.834 663.193 296.783C663.718 296.783 664.473 296.001 664.998 297.436C661.158 299.743 658.266 303.522 653.838 305.124C653.07 305.401 652.235 305.426 651.453 305.195C650.67 304.965 649.981 304.491 649.486 303.843C648.782 302.818 648.283 303.036 647.579 303.638C646.414 304.65 645.173 305.585 644.098 306.687C641.436 309.429 637.699 310.147 634.537 311.813C631.671 313.312 628.855 314.926 625.898 316.553C630.058 319.001 632.899 318.86 636.803 315.272C639.874 312.402 643.74 311.057 647.118 308.865C648.766 308.03 650.199 306.824 651.303 305.342" stroke="#2F2F2F" stroke-linecap="round" stroke-linejoin="round"/>
<path d="M604.002 38.8008C605.282 40.9534 608.277 41.0687 609.698 43.2085C608.661 45.0536 607.279 43.6185 606.012 43.7082C605.389 45.0907 604.256 46.1787 602.851 46.7449C602.651 46.7889 602.462 46.8719 602.295 46.9892C602.128 47.1065 601.985 47.2558 601.876 47.4285C601.766 47.6012 601.692 47.7939 601.657 47.9954C601.622 48.197 601.628 48.4034 601.673 48.6029C601.916 50.4479 600.521 50.1404 599.587 49.9482C598.596 49.6017 597.651 49.1371 596.771 48.5644C595.491 50.1789 593.392 48.9616 591.652 49.4613C591.153 49.6023 590.372 49.5895 590.551 50.1661C591.025 51.3192 590.641 52.6262 591.409 53.7025C592.177 54.7788 593.137 53.4847 594.429 53.7922C594.928 54.0484 594.788 55.4195 596.067 55.6501C596.303 55.6997 596.523 55.8048 596.709 55.9567C596.896 56.1087 597.044 56.303 597.14 56.5236C597.236 56.7442 597.279 56.9847 597.264 57.225C597.248 57.4653 597.176 57.6985 597.053 57.9052C596.966 58.0959 596.937 58.3078 596.969 58.515C597 58.7221 597.092 58.9154 597.232 59.0712C598.192 60.1219 600.24 60.8907 598.269 62.9152C598.09 63.0817 599.075 64.4015 599.549 65.2215C597.181 66.8232 601.225 69.9368 598.179 71.4615C598.026 71.4615 597.795 71.4615 597.731 71.4615C594.237 67.6176 589.643 65.1446 586.097 61.416C585.048 60.3141 583.896 59.1096 584.408 57.2389C584.651 56.3548 583.73 55.7142 583.448 54.6763C586.443 53.395 585.112 49.8585 587.172 47.9109L584.408 43.7723C584.165 45.6558 583.128 47.0268 582.719 48.6541C581.439 48.1159 580.159 47.975 579.468 46.5271C578.777 45.0792 577.33 45.1561 574.003 45.6046C575.974 47.2959 572.723 49.4485 575.052 51.3192C573.056 51.7805 571.085 52.3315 569.331 51.5371C567.578 50.7426 566.528 49.7176 564.813 51.3321C564.161 51.9471 563.188 50.922 562.254 50.9092C560.375 51.0029 558.493 50.8652 556.648 50.4992C555.215 50.1404 552.028 52.6262 552.117 54.3432C552.232 56.6751 550.978 58.0846 549.903 59.7119C548.828 61.3391 548.969 60.9932 550.581 61.621C552.54 62.3258 554.421 63.3252 556.328 64.1837C557.454 62.9023 559.784 62.7358 561.78 64.1068C563.777 65.4778 565.825 66.2594 566.464 68.758C566.522 68.9133 566.613 69.0544 566.73 69.1716C566.847 69.2888 566.988 69.3793 567.143 69.4371C571.085 70.5262 571.622 74.4854 573.657 77.125C574.31 77.9962 574.835 78.9572 576.038 79.3032C576.729 77.8681 575.27 76.9456 575.295 75.7283C576.153 74.7417 577.126 75.1133 578.098 75.4849" stroke="#2F2F2F" stroke-linecap="round" stroke-linejoin="round"/>
<path d="M518.957 21.2734C519.354 21.4272 519.789 21.786 520.122 21.7091C524.166 20.7225 528.108 21.786 531.999 22.5291C534.213 22.952 536.273 24.2845 538.539 24.733C539.694 24.8704 540.856 24.9388 542.02 24.938C546.653 25.2455 551.632 24.0026 555.804 27.2956C556.751 28.0388 558.133 27.2956 559.272 27.5903C563.573 28.5513 567.988 28.3719 572.327 28.9485C572.723 29.0601 573.14 29.0777 573.544 28.9999C573.949 28.922 574.329 28.7509 574.656 28.5001" stroke="#2F2F2F" stroke-linecap="round" stroke-linejoin="round"/>
<path d="M600.979 38.5318C603.808 37.7245 606.738 37.0454 609.567 37.9039C611.79 38.5775 614.051 39.1208 616.337 39.5312C616.74 39.5741 617.148 39.5437 617.54 39.4415C617.681 38.4293 616.76 37.1608 618.424 36.5585C616.939 34.4316 615.045 34.1881 612.856 34.2906C609.585 34.5685 606.295 34.0452 603.27 32.7659C598.727 30.6901 593.671 30.2032 588.872 28.9219C585.156 27.8755 581.299 27.4215 577.443 27.5765C576.713 27.5765 575.945 27.4228 575.344 28.0506" stroke="#2F2F2F" stroke-linecap="round" stroke-linejoin="round"/>
<path d="M134.511 174.764C134.165 172.201 134.818 170.715 136.61 169.857C137.494 169.388 138.516 169.25 139.492 169.468C140.468 169.687 141.334 170.247 141.934 171.048C142.715 171.945 143.214 172.573 144.494 171.791C144.82 171.654 145.175 171.602 145.526 171.64C145.878 171.678 146.214 171.805 146.503 172.009C147.847 173.79 149.511 173.162 150.957 172.599C152.403 172.035 153.325 171.868 154.246 173.137C154.553 173.547 155.001 173.483 155.398 173.624C157.868 174.482 157.855 174.508 157.459 177.224C161.503 174.931 162.22 179.069 163.858 180.722C166.123 182.926 167.697 185.066 171.537 184.015C173.162 183.554 175.479 184.694 176.772 186.04C178.583 187.685 179.833 189.859 180.342 192.254C180.342 192.574 180.342 192.971 180.598 193.177C182.224 194.842 182.121 196.546 180.598 198.225C184.617 199.66 184.617 199.66 185.27 201.351C186.23 201.492 186.985 200.07 188.085 201.108C190.056 202.863 193.64 202.274 194.664 205.49C195.368 205.49 196.353 205.042 196.891 205.375C198.683 206.502 200.654 205.964 202.509 206.31C205.258 207.015 207.76 208.465 209.74 210.5C210.662 211.307 211.494 212.127 212.787 211.858C214.079 211.589 214.681 212.614 214.847 213.511C215.461 216.714 216.357 219.918 214.45 223.082C214.155 223.832 213.754 224.535 213.26 225.171C211.187 227.17 210.24 230.117 207.68 231.719C207.104 232.077 207.462 232.795 207.45 233.333C207.45 235.896 207.386 238.458 207.45 241.021C207.564 242.3 207.282 243.584 206.643 244.698C205.517 246.249 205.619 248.017 205.056 249.644C204.224 252.04 203.994 254.769 201.613 256.448C201.012 256.871 200.526 257.319 199.732 257.114C197.671 256.589 196.136 257.857 194.907 259.049C193.051 260.817 190.21 261.253 188.93 263.841C188.698 264.221 188.543 264.643 188.475 265.083C188.406 265.522 188.426 265.972 188.533 266.404C189.059 267.816 189.302 269.318 189.25 270.824C189.25 271.132 189.378 271.567 189.25 271.747C187.369 273.874 186.831 276.782 185.065 278.973C184.975 279.089 184.617 278.973 184.143 278.973C184.348 278.269 183.529 277.692 184.143 276.885" stroke="#2F2F2F" stroke-linecap="round" stroke-linejoin="round"/>
<path d="M349.106 97.0757C348.72 96.5029 348.128 96.1009 347.454 95.953C346.779 95.8051 346.074 95.9227 345.484 96.2812C344.435 97.1141 343.347 96.8835 342.31 97.1525C341.67 98.8054 342.643 99.9458 343.321 100.996C343.999 102.047 344.601 102.803 343.065 103.636C342.259 104.059 342.438 104.764 343.065 105.494C343.127 105.605 343.166 105.728 343.177 105.856C343.189 105.983 343.174 106.111 343.133 106.232C343.092 106.353 343.026 106.463 342.939 106.557C342.853 106.651 342.747 106.725 342.63 106.775C342.439 106.857 342.228 106.884 342.022 106.852C341.816 106.821 341.623 106.732 341.465 106.596C339.705 105.167 338.284 103.364 337.306 101.317C335.834 98.0879 336.026 93.6289 331.93 91.8863C331.521 89.4518 329.371 89.6184 327.733 89.0674C326.837 88.7727 325.979 88.6702 325.762 87.2351C325.544 85.8001 323.087 86.0691 322.652 84.3906C320.092 86.146 319.938 87.2864 322.421 88.7727C323.983 89.6953 323.419 92.6167 325.621 92.2451C327.387 91.9376 327.925 94.308 329.601 93.5264C329.601 95.4228 331.879 95.9737 332.161 97.6779C331.303 98.5492 330.727 97.4344 330.011 97.4729C328.936 98.5235 329.908 99.382 330.241 100.292C329.332 102.252 326.798 102.931 326.402 105.417C326.299 106.096 324.955 106.135 324.187 105.648C323.048 104.943 321.973 104.136 320.706 103.252C321.909 102.265 323.266 102.726 324.405 102.637C326.785 102.457 328.923 99.8049 327.579 98.5235C326.373 97.3397 325.007 96.3305 323.522 95.5253C320.681 94.0517 317.02 93.2958 316.431 89.1187C316.201 87.5042 314.652 87.0942 312.976 87.6836C312.106 87.9783 311.594 88.7984 310.864 89.0418C309.584 89.4646 308.471 91.0278 306.897 89.6056C306.641 89.3749 306.001 89.6056 305.527 89.6056C301.688 89.4518 301.803 89.7593 302.289 93.4495C299.448 93.9877 297.4 95.884 295.557 97.9726C295.084 98.4979 293.842 99.2539 295.032 100.279C295.199 100.42 295.34 100.856 295.263 100.945C294.039 102.581 292.705 104.13 291.27 105.584C290.815 105.925 290.296 106.17 289.743 106.302C289.191 106.434 288.617 106.451 288.057 106.352C287.242 106.256 286.416 106.355 285.646 106.64C284.877 106.925 284.185 107.388 283.629 107.992" stroke="#2F2F2F" stroke-linecap="round" stroke-linejoin="round"/>
<path d="M402.92 241.006C403.304 241.467 403.138 241.877 402.92 242.415C401.243 247.066 399.695 251.756 397.967 256.382C397.468 257.663 397.545 259.072 397.097 260.379C396.839 261.478 396.208 262.454 395.312 263.139C394.415 263.823 393.309 264.175 392.182 264.133C391.478 264.173 390.784 263.954 390.231 263.518C389.677 263.081 389.301 262.457 389.174 261.763C388.061 258.124 387.447 254.536 390.288 251.243C390.708 250.687 390.976 250.031 391.068 249.339C391.16 248.648 391.072 247.944 390.813 247.297C390.292 245.786 390.389 244.131 391.082 242.691C391.774 241.251 393.007 240.143 394.511 239.609C395.936 238.928 397.291 238.108 398.556 237.162C398.855 236.988 399.095 236.727 399.244 236.413C399.392 236.1 399.442 235.749 399.388 235.406C399.388 234.586 399.17 233.689 400.565 233.741C401.461 233.741 401.32 232.933 401.243 232.382C401.141 231.55 401.512 231.101 402.293 230.512C403.786 233.138 404.559 236.113 404.533 239.135C404.597 240.327 403.099 239.891 402.894 240.775" stroke="#2F2F2F" stroke-linecap="round" stroke-linejoin="round"/>
<path d="M128.219 87.2856L129.857 88.9385C130.33 88.1697 131.137 87.6571 131.572 86.8755C132.007 86.0939 132.672 84.441 134.323 85.8377C134.81 86.2477 135.309 85.338 135.603 84.9151C135.708 84.7322 135.747 84.5185 135.712 84.3105C135.677 84.1024 135.57 83.9131 135.411 83.7748C134.131 82.801 132.98 81.5837 131.213 81.699C128.28 81.8338 125.381 82.3817 122.6 83.3263C122.16 83.4538 121.762 83.6972 121.448 84.031C120.074 85.9445 118.752 87.8878 117.481 89.861C116.853 90.822 116.482 92.1418 117.481 92.808C118.479 93.4743 119.311 92.1802 119.695 91.4498C120.416 90.3999 120.94 89.2278 121.243 87.9903C121.64 85.0945 126.363 83.3263 129.05 85.0817C127.771 85.5814 128.295 87.0165 127.451 87.7468" stroke="#2F2F2F" stroke-linecap="round" stroke-linejoin="round"/>
<path d="M468.863 17.7619L470.706 16.5959C466.789 13.8923 463.231 12.4701 459.085 13.3542C458.521 13.5205 457.926 13.5492 457.349 13.4377C456.773 13.3262 456.231 13.0779 455.77 12.7135C454.625 11.9125 453.236 11.5391 451.844 11.6585C450.452 11.778 449.147 12.3826 448.155 13.367C447.314 14.1014 446.224 14.4864 445.109 14.4433C441 14.328 437.25 16.1859 433.219 16.3909C432.771 16.3909 432.029 16.5959 432.31 17.2878C433.219 19.5429 431.248 18.9535 430.416 19.1201C428.532 19.2938 426.666 19.6238 424.836 20.1067" stroke="#2F2F2F" stroke-linecap="round" stroke-linejoin="round"/>
<path d="M196.486 2.14379C193.12 1.25968 189.997 2.96383 186.708 3.11759C183.956 3.24572 181.128 3.30979 178.747 5.12926C178.517 5.30864 177.877 5.12926 177.365 4.9755C174.216 3.79669 171.414 4.86018 168.688 6.25681C169.366 8.81945 170.62 10.3698 173.231 10.1008C173.052 11.1899 172.066 11.2796 171.798 11.9074C171.798 12.3174 171.938 12.3943 172.258 12.4712C174.254 12.8592 176.302 12.9025 178.312 12.5993C179.477 12.4716 180.655 12.5191 181.806 12.7403C183.7 13.1375 185.556 13.9447 186.721 11.523C186.776 11.4562 186.844 11.4014 186.921 11.3617C186.998 11.3221 187.082 11.2985 187.169 11.2924C191.213 11.1899 194.361 8.49912 198.111 7.44844C200.505 6.82059 203.231 7.44844 205.317 6.07743C207.877 4.41172 211.051 4.66798 213.777 3.38667C214.852 2.87414 216.336 3.29697 217.693 3.30979C218.23 3.30979 218.717 3.30979 218.973 2.02847C211.572 1.03948 204.071 1.06966 196.678 2.11816" stroke="#2F2F2F" stroke-linecap="round" stroke-linejoin="round"/>
<path d="M506.618 185.716C506.093 185.716 505.53 185.588 505.172 186.293C505.991 188.202 507.079 189.945 509.408 190.355C509.818 190.432 510.279 190.547 510.317 190.854C510.842 195.044 514.86 197.261 516.14 200.887C517.186 204.152 519.244 206.997 522.015 209.011C523.538 210.113 523.679 211.932 524.69 213.316C525.969 214.994 527.339 213.88 528.529 214.021C529.719 214.162 529.399 212.419 529.463 211.381C529.553 210.284 529.707 209.193 529.924 208.114C530.129 207.05 531.511 208.216 531.818 207.012C531.242 205.807 529.95 205.128 529.259 204.155C528.248 204.155 528.235 205.359 527.326 205.064C526.417 204.77 526.341 203.014 525.022 202.719C524.754 202.719 524.318 202.22 524.357 202.053C525.227 198.735 522.207 198.03 520.581 196.467C517.471 193.507 514.003 190.931 511.302 187.497C510.151 186.075 508.308 186.665 507.079 185.652" stroke="#2F2F2F" stroke-linecap="round" stroke-linejoin="round"/>
<path d="M123.79 18.9412C123.79 17.7752 123.457 16.8526 122.165 16.8526C120.194 16.8526 118.325 16.2376 116.328 16.3273C114.05 16.4298 112.054 16.4298 110.16 18.3518C108.79 19.7484 106.32 20.1072 104.426 20.9144C105.232 23.6436 105.45 23.7461 108.189 23.1311C109.878 22.7467 111.67 22.8748 113.103 21.5294C113.781 20.8888 114.639 21.1066 114.805 22.3751C113.769 22.9261 113.231 24.233 112.463 25.2837C111.939 25.9884 112.706 26.9494 113.743 27.0775C114.498 27.1544 115.317 26.9238 115.842 27.7823C116.152 28.2004 116.6 28.4945 117.107 28.6119C117.613 28.7293 118.145 28.6623 118.607 28.4229C120.987 27.6285 123.496 27.4107 125.838 26.5906C126.474 26.3064 127.169 26.1801 127.864 26.2225C128.559 26.2649 129.234 26.4747 129.831 26.8341C131.341 27.731 133.03 28.6279 134.221 26.3728C134.848 25.194 136.384 26.9494 136.78 25.4246C136.87 24.2715 135.59 24.4637 135.142 23.823C135.616 21.6448 137.331 20.7222 139.097 19.979C139.174 19.159 138.547 18.5696 138.201 18.6977C136.384 19.5562 133.952 18.5312 132.531 20.7094C132.019 21.5038 130.829 22.5801 130.676 20.2737C130.676 20.0175 129.844 19.5818 129.818 19.6075C128.321 21.3372 126.618 18.8002 125.134 19.8125C124.199 20.4403 124.033 19.6587 123.726 19.1078" stroke="#2F2F2F" stroke-linecap="round" stroke-linejoin="round"/>
<path d="M147.543 35.2649C148.334 35.334 149.113 35.5063 149.859 35.7775C150.435 36.0594 151.28 36.1234 151.459 35.9184C153.046 34.1374 155.299 34.1374 157.321 33.3558C158.234 33.1106 159.185 33.0411 160.124 33.1508C161.069 33.2367 162.018 33.0388 162.85 32.5824C163.682 32.126 164.359 31.4317 164.795 30.5881C165 30.1781 165.179 29.5759 165.499 29.4606C166.357 29.1659 167.061 28.743 166.856 27.7949C166.574 26.5136 165.307 26.3982 164.296 26.1932C163.285 25.9882 162.044 26.1932 161.813 27.3336C161.691 27.9538 161.365 28.5153 160.888 28.9287C160.41 29.342 159.807 29.5834 159.177 29.6143C158.362 29.7598 157.624 30.1859 157.091 30.8188C156.592 31.3569 156.003 31.5619 155.478 31.0366C154.953 30.5113 155.171 29.9347 155.67 29.3965C155.9 29.1531 156.502 29.3068 156.297 28.269C155.593 26.6032 153.942 27.9358 152.662 27.7821" stroke="#2F2F2F" stroke-linecap="round" stroke-linejoin="round"/>
<path d="M340.596 54.6261C340.421 54.365 340.196 54.1415 339.934 53.9683C339.672 53.7952 339.378 53.6759 339.07 53.6175C338.761 53.5591 338.444 53.5626 338.137 53.628C337.83 53.6934 337.539 53.8192 337.281 53.9982C336.683 54.429 336.213 55.0138 335.92 55.6906C335.627 56.3673 335.522 57.1108 335.617 57.8422C335.769 58.4152 335.983 58.9695 336.257 59.4951C333.697 62.1474 333.313 62.2243 331.138 60.4048C329.198 61.3714 327.171 62.1522 325.084 62.7368C324.854 62.8137 324.47 63.0315 324.406 62.9546C322.588 60.9173 319.901 63.749 318.006 61.8527C318.186 60.8661 319.376 61.3786 319.773 60.3664C318.339 58.5853 316.176 57.2399 315.383 54.7926C312.631 56.5993 311.902 58.3419 313.245 61.2889C314.001 62.9802 313.181 63.5568 312.196 63.8515C311.171 64.3632 310.082 64.7339 308.958 64.9535C307.678 64.9535 305.925 65.7223 305.554 66.9908C304.862 69.3612 302.994 69.5534 301.253 69.9378C300.927 69.9672 300.613 70.0745 300.337 70.2506C300.061 70.4267 299.831 70.6666 299.666 70.95C298.386 73.6024 295.916 74.0252 293.344 74.1918" stroke="#2F2F2F" stroke-linecap="round" stroke-linejoin="round"/>
<path d="M139.632 149.572C137.93 149.572 136.778 147.996 134.973 148.073C134.377 148.062 133.782 148.109 133.194 148.214C132.734 149.495 134.474 149.687 134.282 150.777C133.233 152.276 131.236 149.726 130.148 151.802C130.809 152.531 131.71 152.996 132.687 153.112C133.663 153.227 134.648 152.985 135.46 152.43L136.432 154.467H137.213L138.787 151.827L139.171 152.212C139.325 152.199 139.479 152.199 139.632 152.212C140.656 152.34 142.192 153.608 142.55 151.943C142.909 150.277 141.194 149.944 139.862 149.649" stroke="#2F2F2F" stroke-linecap="round" stroke-linejoin="round"/>
<path d="M322.304 30.8301L322.905 32.2011C319.885 36.3782 316.429 41.0678 310.439 43.0282C309.48 43.3485 308.801 44.4761 307.662 44.9117C307.43 44.9752 307.219 45.0999 307.051 45.273C306.883 45.4461 306.765 45.661 306.709 45.8955C306.653 46.1299 306.66 46.3752 306.731 46.6056C306.802 46.836 306.934 47.0431 307.112 47.2053C307.457 47.6025 307.368 48.4866 307.329 49.2682C307.313 50.1729 307.616 51.0544 308.185 51.7576C308.754 52.4607 309.552 52.9404 310.439 53.1122C311.27 53.3686 312.159 53.3623 312.986 53.094C313.813 52.8257 314.537 52.3085 315.06 51.613C315.428 51.0266 315.911 50.5209 316.48 50.1267C318.413 51.8437 318.822 54.2141 319.552 56.5333C319.962 57.8146 320.243 59.8519 322.291 59.2753C324.339 58.6987 326.31 58.3271 327.679 56.5461C328.626 55.2648 327.909 54.0603 327.897 52.5868C328.639 51.4208 330.827 51.6002 331.224 49.7295C330.907 49.4174 330.574 49.1223 330.226 48.8454C327.397 46.8722 328.703 43.246 331.16 41.8494C333.067 40.7859 335.307 40.3246 335.704 37.4289C335.896 35.9938 339.249 36.1475 340.951 37.6467C340.278 39.0325 339.115 40.119 337.687 40.6962C335.665 41.6828 334.897 43.8226 335.345 46.744C335.704 49.1017 337.905 49.3067 339.326 49.3964C341.895 49.7695 344.515 49.5815 347.005 48.8454" stroke="#2F2F2F" stroke-linecap="round" stroke-linejoin="round"/>
<path d="M588.633 205.373C587.853 204.028 586.304 203.964 584.922 203.554C586.291 201.696 590.041 200.363 591.398 201.222C591.974 201.58 592.179 202.503 592.409 203.259C592.972 205.155 592.985 207.372 594.969 208.833C596.661 206.87 598.611 205.145 600.766 203.707C604.473 205.427 608.328 206.803 612.285 207.82C613.558 208.118 614.746 208.705 615.756 209.536C616.765 210.367 617.571 211.42 618.108 212.612C618.416 213.215 618.851 213.743 619.384 214.159C619.917 214.575 620.534 214.869 621.193 215.021C622.473 215.316 622.831 216.303 623.906 216.713C623.589 217.138 623.188 217.493 622.728 217.755C622.268 218.018 621.758 218.182 621.231 218.237C622.601 221.812 626.248 223.44 627.567 226.938C625.736 227.642 624.252 226.258 622.562 226.258C622.045 226.313 621.522 226.251 621.031 226.077C620.541 225.903 620.095 225.621 619.727 225.253C619.359 224.885 619.078 224.439 618.904 223.947C618.73 223.456 618.668 222.933 618.723 222.415C618.636 221.811 618.381 221.245 617.987 220.78C617.593 220.316 617.076 219.972 616.496 219.788C614.051 218.75 612.823 219.339 612.746 221.94C612.746 222.261 612.899 222.645 612.362 222.965C609.533 223.504 606.603 224.016 604.107 221.492C603.505 220.877 602.558 221.223 601.803 221.274C600.523 221.377 599.909 220.89 599.935 219.532C600.357 218.878 601.304 218.609 601.56 217.776C601.56 215.957 599 212.343 597.375 211.908C593.535 210.87 593.535 210.87 591.526 209.089C590.643 209.281 590.924 210.46 590.169 210.729C588.8 209.858 588.736 208.166 587.61 207.064C588.416 206.142 589.005 205.386 590.169 206.078" stroke="#2F2F2F" stroke-linecap="round" stroke-linejoin="round"/>
<path d="M109.586 142.219C111.195 141.899 112.837 141.783 114.475 141.873C115.061 141.824 115.647 141.973 116.139 142.296C118.698 144.115 122.116 144.858 124.061 147.677C124.253 147.946 124.957 147.908 125.43 147.921C126.591 147.921 127.756 147.921 128.924 147.921C129.539 147.921 130.307 148.241 130.563 147.242C130.819 146.242 129.961 145.96 129.385 145.871C126.275 145.076 124.266 142.514 121.501 141.091C119.993 140.327 118.344 139.878 116.656 139.772C114.969 139.667 113.277 139.906 111.685 140.476C111.355 140.529 111.055 140.699 110.841 140.956C110.627 141.213 110.513 141.538 110.52 141.873" stroke="#2F2F2F" stroke-linecap="round" stroke-linejoin="round"/>
<path d="M189.971 68.849C188.896 68.029 189.792 67.3627 190.214 66.7733C191.494 64.8385 191.494 64.4413 189.728 63.0319C189.318 62.7115 188.883 62.5321 189.011 61.853C189.139 61.1739 188.653 60.9049 188.102 60.687C185.312 59.5595 185.312 59.5595 184.007 56.6509C184.242 56.5193 184.444 56.3359 184.598 56.1145C184.753 55.8931 184.854 55.6396 184.896 55.373C184.938 55.1064 184.919 54.8338 184.84 54.5757C184.762 54.3177 184.625 54.0809 184.442 53.8833C183.477 52.0185 182.977 49.9482 182.983 47.8483C180.845 48.8989 179.873 50.8722 177.863 51.6922C175.214 52.7301 174.766 52.7685 173.179 50.2315C175.061 48.3352 175.406 47.1179 174.075 46.5798C173.359 46.3602 172.698 45.9923 172.133 45.5C171.569 45.0077 171.114 44.4021 170.799 43.7224C170.235 42.518 168.661 43.2483 167.804 43.1971C165.863 43.2895 163.918 43.2037 161.993 42.9408C161.584 46.9641 159.075 49.2321 156.311 51.2309C158.525 55.0749 157.271 57.6375 152.919 58.9188C151.16 59.4695 149.5 60.3002 148.005 61.379C148.683 65.5176 146.43 67.7855 143.013 69.4384C142.719 67.8624 140.453 66.6067 142.424 64.6976C142.424 63.9672 141.145 64.1722 141.272 63.1087L143.039 60.5461C142.373 59.8718 141.497 59.4466 140.556 59.3417C138.828 59.111 137.036 58.8035 135.91 57.2531C134.093 54.7674 131.699 54.8571 129.152 55.6643C128.845 55.754 128.64 56.2281 128.205 56.0999C128.01 56.0109 127.822 55.9081 127.642 55.7924C127.488 54.5111 128.384 53.3835 128.692 52.0382C128.256 51.5256 127.911 50.7568 126.977 50.68C127.042 50.4506 127.146 50.234 127.284 50.0393C130.612 46.4397 134.756 43.6932 139.366 42.0311C139.865 41.8517 141.081 41.9286 141.068 40.7498C141.068 40.5191 141.759 40.0066 141.938 40.0835C144.562 41.1982 146.238 38.7253 148.465 38.3537C149.361 38.2128 150.487 37.7387 150.103 36.3164" stroke="#2F2F2F" stroke-linecap="round" stroke-linejoin="round"/>
<path d="M116.096 79.3535C117.645 81.2754 119.59 78.8666 121.216 79.7891C121.356 79.8788 121.817 79.5329 121.881 79.5969C124.082 81.993 126.245 79.3278 128.396 79.8276C128.69 77.0471 125.465 74.4845 123.276 75.6633C121.088 76.8421 119.437 78.0209 116.954 78.0081C116.57 78.0081 116.186 78.7256 115.789 79.11" stroke="#2F2F2F" stroke-linecap="round" stroke-linejoin="round"/>
<path d="M586.532 92.885C587.313 92.1034 587.581 90.5786 589.36 91.4115C590.051 91.719 590.243 90.4377 589.975 90.1302C589.437 89.5151 589.04 88.7335 587.94 88.631C585.137 88.2208 582.491 87.0857 580.261 85.3381C579.531 84.8255 579.121 85.3381 578.494 85.1715C579.096 86.7475 578.853 88.5798 580.504 90.0277L578.469 91.309C579.595 92.5903 579.966 93.9613 581.387 94.4995C582.795 94.2176 581.566 91.9368 583.243 91.9368C584.33 91.9368 585.124 93.0003 586.276 92.8594" stroke="#2F2F2F" stroke-linecap="round" stroke-linejoin="round"/>
<path d="M321.375 30.5989C323.218 29.3945 325.624 29.7917 327.441 28.4975C328.671 27.4732 330.248 26.9637 331.844 27.0753C332.496 27.1094 333.147 26.9818 333.738 26.7037C336.08 25.7555 338.474 24.7945 341.174 25.4224C342.096 25.6274 342.928 24.487 344.22 24.9355C345.935 25.5377 347.855 25.2174 349.34 26.7934C350.413 27.5163 351.697 27.8591 352.987 27.7672C356.008 27.8697 358.58 29.3817 361.37 30.1889C362.408 30.2964 363.436 30.4892 364.442 30.7655C364.997 30.9606 365.482 31.3149 365.837 31.7843C366.192 32.2537 366.401 32.8174 366.439 33.405C366.439 34.6863 365.235 34.6863 364.212 35.1348C363.255 35.633 362.185 35.8726 361.108 35.8299C360.03 35.7872 358.983 35.4637 358.068 34.8913C357.275 34.4044 355.944 34.8016 354.856 34.8016" stroke="#2F2F2F" stroke-linecap="round" stroke-linejoin="round"/>
<path d="M562.302 207.653C563.206 209.024 563.9 210.523 564.363 212.099C567.166 210.972 567.358 210.69 565.975 208.371C565.425 207.448 565.489 206.167 564.312 205.731C565.169 203.668 567.345 203.566 569.034 202.207C566.666 200.926 565.041 201.746 563.467 202.976C562.584 203.271 562.699 201.797 561.777 202.348C562.507 198.504 563.39 197.979 567.422 199.017C568.379 199.349 569.429 199.289 570.342 198.85C571.256 198.411 571.959 197.628 572.298 196.672C572.341 196.558 572.36 196.436 572.356 196.314C572.351 196.192 572.323 196.072 572.271 195.961C572.22 195.85 572.148 195.751 572.058 195.668C571.968 195.586 571.862 195.522 571.748 195.48C570.66 195.673 570.352 197.044 569.188 197.441C567.908 196.39 566.18 196.685 564.657 196.031C563.518 195.532 560.51 198.12 560.267 199.722C559.88 202.213 559.157 204.639 558.117 206.935C557.991 207.308 557.913 207.696 557.887 208.089C561.918 209.024 558.143 212.855 560.254 214.739C562.405 213.931 562.417 212.035 562.008 210.472C561.824 210.066 561.738 209.623 561.756 209.178C561.773 208.733 561.895 208.299 562.11 207.909" stroke="#2F2F2F" stroke-linecap="round" stroke-linejoin="round"/>
<path d="M632.194 210.676C630.915 213.238 628.956 213.713 626.358 213.046C625.863 212.911 625.344 212.892 624.84 212.99C624.337 213.088 623.862 213.3 623.453 213.61C625.629 216.39 626.691 216.403 630.364 215.224C631.086 215.068 631.749 214.711 632.276 214.194C632.804 213.678 633.175 213.022 633.346 212.303C633.5 211.752 633.078 211.291 632.668 210.919" stroke="#2F2F2F" stroke-linecap="round" stroke-linejoin="round"/>
<path d="M260.798 36.6613C260.12 36.6613 259.838 37.2379 259.262 37.6992C260.261 38.6217 260.21 40.595 262.436 40.2618C263.716 40.0312 264.907 40.8897 266.391 40.9025C269.604 40.9025 271.779 38.5192 274.774 38.2758C276.182 38.1476 276.054 37.3148 275.056 35.9822C273.558 33.8296 271.971 33.7399 269.616 34.5087C267.953 35.0469 265.969 34.5087 264.279 35.5209C264.033 35.6152 263.762 35.6248 263.51 35.5483C263.257 35.4718 263.037 35.3134 262.884 35.0981C261.515 33.6374 260.184 33.9962 258.93 35.3159C258.93 36.2 260.274 35.8285 260.338 36.7126" stroke="#2F2F2F" stroke-linecap="round" stroke-linejoin="round"/>
<path d="M162.005 20.3364C161.122 21.2205 159.689 21.5023 159.817 23.3731C159.906 24.7697 159.548 24.7825 160.84 24.7697C162.133 24.7569 163.17 24.7697 164.334 24.7697C165.794 24.6684 167.253 24.9791 168.545 25.6666C170.107 26.4995 172.129 26.1535 173.485 27.7552C173.921 28.2805 174.56 27.2683 175.072 26.8967C176.135 27.7424 176.557 29.1774 178.298 29.5362C180.038 29.895 178.502 31.4838 179.488 32.8036C177.53 32.6114 176.084 32.4704 175.981 34.3411C174.125 34.0464 172.973 36.4169 170.862 35.6225C170.263 35.41 169.616 35.3755 168.998 35.5233C168.38 35.6711 167.819 35.9948 167.381 36.4553C167.161 36.6597 167.006 36.9234 166.933 37.2146C166.86 37.5057 166.873 37.8117 166.971 38.0954C167.176 38.8129 167.88 38.8514 168.571 38.8257C169.044 38.8257 169.479 38.3901 169.723 38.4029C171.591 38.5054 173.562 37.4676 174.983 40.1455C176.007 42.1828 178.733 42.7081 180.717 43.8869C181.072 44.0849 181.489 44.142 181.885 44.0472C182.281 43.9523 182.626 43.7122 182.854 43.3744L181.574 40.9271C182.854 39.8636 183.391 41.1193 184.249 41.5421C184.786 41.8112 185.529 42.6569 186.322 41.8497C186.937 41.2602 187.449 40.7733 187.065 39.7227C186.77 38.9411 187.065 38.0185 186.578 37.16C186.314 36.7057 186.234 36.1675 186.352 35.6555C186.471 35.1436 186.781 34.6963 187.218 34.4052C187.961 34.1105 188.383 34.8665 188.588 35.1227C190.29 37.3138 192.235 35.3918 194.001 35.4303C195.153 35.4303 195.281 33.5211 194.219 32.5217C192.67 31.125 190.559 30.6894 188.6 29.3184C189.164 28.729 189.88 28.1011 189.573 27.153C189.418 26.751 189.166 26.3936 188.84 26.112C188.514 25.8305 188.124 25.6335 187.705 25.5385C185.145 24.7569 183.865 22.4633 182.444 20.5542C181.472 19.2729 180.499 18.5297 179.104 18.7988C177.475 19.0044 175.824 18.9786 174.202 18.7219C171.847 18.5169 169.838 19.6444 167.675 20.157" stroke="#2F2F2F" stroke-linecap="round" stroke-linejoin="round"/>
<path d="M147.326 13.574C148.094 14.3684 149.553 14.3171 149.886 15.6625C149.988 16.0853 150.488 15.9444 150.795 15.8931C153.298 15.6362 155.638 14.5283 157.424 12.7539C155.018 11.9082 153.226 11.7289 151.627 13.1896C148.568 11.3573 148.529 11.3573 147.07 13.3433" stroke="#2F2F2F" stroke-linecap="round" stroke-linejoin="round"/>
<path d="M143.128 28.9603C143.704 28.3581 144.702 27.7815 143.576 26.8846C142.923 26.372 142.193 25.6033 141.259 26.6283C140.491 27.4868 138.942 27.3843 138.84 29.1909C138.799 29.5115 138.683 29.8178 138.5 30.0845C138.318 30.3511 138.075 30.5705 137.791 30.7245C137.507 30.8784 137.191 30.9626 136.868 30.97C136.545 30.9774 136.225 30.9078 135.935 30.767C134.631 30.4358 133.286 30.2976 131.942 30.3569C131.251 30.2929 130.278 30.4723 129.894 30.0879C128.294 28.4734 126.336 29.0756 124.493 28.9731C122.88 28.8834 122.381 30.1519 121.639 31.2539C121.306 31.7536 121.434 32.9068 120.295 32.7017C119.015 29.9725 119.015 30.0238 115.867 30.8054C115.409 31.0104 114.908 31.1023 114.407 31.0733C113.906 31.0443 113.419 30.8953 112.987 30.6388C112.154 30.1499 111.176 29.9685 110.223 30.1263" stroke="#2F2F2F" stroke-linecap="round" stroke-linejoin="round"/>
<path d="M515.001 16.135C513.03 15.4559 511.161 14.4309 508.921 15.3919C507.795 15.8788 506.272 14.9306 504.852 16.1991C505.527 16.6286 506.282 16.918 507.071 17.0501C507.86 17.1821 508.668 17.1542 509.446 16.9679C511.699 16.3529 514.22 16.686 516.626 16.5963" stroke="#2F2F2F" stroke-linecap="round" stroke-linejoin="round"/>
<path d="M528.056 217.212C532.254 219.775 537.194 219.903 541.788 221.21C543.798 221.774 545.846 221.21 547.893 221.697C548.67 221.942 549.424 222.255 550.146 222.632C550.991 221.415 550.21 219.506 548.789 219.609C547.913 219.737 547.018 219.623 546.202 219.28C545.386 218.937 544.678 218.377 544.156 217.661C543.158 216.29 541.251 217.776 540.585 216.162C538.103 217.763 536.49 217.687 534.097 216.059C532.817 215.188 531.294 215.496 529.899 215.188C528.875 214.97 528.363 216.175 527.812 216.982" stroke="#2F2F2F" stroke-linecap="round" stroke-linejoin="round"/>
<path d="M463.973 20.3367C464.689 20.7595 465.137 20.3367 465.598 19.8626C467.415 18.2097 469.438 18.4403 471.665 18.9016C474.224 19.427 476.886 19.4013 479.344 20.1829C481.993 21.0286 484.681 20.0804 487.317 20.9517C487.903 21.2046 488.558 21.243 489.169 21.0602C489.78 20.8775 490.307 20.4852 490.658 19.9523C491.745 18.5044 493.908 19.4398 495.419 19.7217C498.331 20.5026 501.041 21.9009 503.366 23.8219C504.186 24.4113 505.145 24.8341 505.926 25.4876C506.707 26.1411 506.886 25.2826 507.347 25.4876C507.5 23.5528 509.049 24.2703 509.907 24.3857C512.959 24.7175 516.047 24.4653 519.006 23.6425C519.275 23.6425 519.621 23.7834 519.928 23.8603" stroke="#2F2F2F" stroke-linecap="round" stroke-linejoin="round"/>
<path d="M152.213 40.3901C154.696 38.8781 157.589 40.2492 160.2 39.3779C160.159 38.6865 159.904 38.025 159.471 37.4853C159.037 36.9457 158.447 36.5547 157.781 36.3668C154.325 35.0854 152.777 37.379 150.934 39.3907C151.151 39.9288 151.42 40.2876 151.932 40.3901" stroke="#2F2F2F" stroke-linecap="round" stroke-linejoin="round"/>
<path d="M161.534 19.4013C161.637 18.7222 162.404 17.7484 160.843 17.7612C158.902 17.6799 156.958 17.7013 155.02 17.8252C153.74 17.9662 152.46 18.5684 153.151 20.0932C156.351 20.8363 159.218 18.9015 162.276 20.0163C162.904 20.2341 163.927 19.2731 164.836 18.94C166.193 18.4275 167.626 17.6587 168.561 19.6319" stroke="#2F2F2F" stroke-linecap="round" stroke-linejoin="round"/>
<path d="M320.207 7.26786C319.196 7.85727 317.891 7.07567 316.688 8.08791C318.94 10.9068 322.588 11.4065 325.007 13.6488C327.029 12.7135 327.566 9.80487 330.395 10.2405C331.207 11.1612 332.293 11.7973 333.493 12.0555C334.693 12.3137 335.944 12.1806 337.063 11.6756C336.538 10.1765 334.964 10.4712 333.953 9.85612C331.239 8.1776 328.078 7.75476 325.122 6.74252C324.936 6.6572 324.732 6.62067 324.528 6.63636C324.324 6.65205 324.128 6.71946 323.957 6.83222C323.47 7.22312 322.885 7.47087 322.265 7.5478C321.646 7.62472 321.018 7.52781 320.45 7.26786" stroke="#2F2F2F" stroke-linecap="round" stroke-linejoin="round"/>
<path d="M181.573 15.4297C181.342 15.1221 181.061 14.5199 180.882 14.5455C177.669 15.0324 174.482 13.3795 171.334 14.3021C170.665 14.5366 169.938 14.5459 169.263 14.3285C168.589 14.111 168.004 13.6788 167.597 13.0977L164.18 15.7372L164.282 16.2881C167.648 16.3778 170.784 17.8642 174.367 16.9672C176.105 16.5208 177.898 16.3266 179.691 16.3906C180.434 16.3906 181.125 16.3906 181.56 15.6859" stroke="#2F2F2F" stroke-linecap="round" stroke-linejoin="round"/>
<path d="M331.841 6.57702C332.84 7.11517 333.889 7.60207 334.862 8.2171C336.654 9.34466 338.125 8.72963 339.738 7.58926C339.098 6.62827 338.458 5.9748 337.434 6.11575C335.335 6.37201 333.236 4.92412 331.112 6.11575C331.112 6.11575 330.523 5.98761 330.203 5.93636" stroke="#2F2F2F" stroke-linecap="round" stroke-linejoin="round"/>
<path d="M134.042 90.5533C131.215 90.2607 128.377 90.9926 126.043 92.6162C126.184 93.6541 126.734 93.8207 127.054 93.7566C129.243 93.2697 131.418 92.7572 133.568 92.1037C133.859 92.0265 134.113 91.8494 134.286 91.6034C134.46 91.3574 134.541 91.0582 134.516 90.7583" stroke="#2F2F2F" stroke-linecap="round" stroke-linejoin="round"/>
<path d="M290.158 53.6914L294.522 54.8574C294.893 56.3053 293.14 55.7415 293.242 57.01C294.816 59.5726 297.261 61.879 298.144 65.1208C300.704 65.582 301.088 66.3252 299.206 68.0678C298.31 68.9006 299.321 69.7207 298.259 70.5151C295.136 69.6438 292.001 71.7964 288.571 71.4248C287.726 71.3479 287.291 71.8733 286.945 72.5908" stroke="#2F2F2F" stroke-linecap="round" stroke-linejoin="round"/>
<path d="M557.402 135.799C554.843 136.606 555.521 139.028 555.214 140.732C555.022 141.783 556.353 142.885 558.106 142.808C558.337 140.886 558.618 138.964 558.759 136.965C558.759 136.606 558.183 136.196 557.876 135.799" stroke="#2F2F2F" stroke-linecap="round" stroke-linejoin="round"/>
<path d="M409.221 28.9615C409.119 26.9498 407.007 26.4757 406.227 24.8869C406.777 24.464 407.506 23.9515 407.506 23.1315C407.686 20.6842 409.452 20.4535 411.269 20.351C412.805 20.2741 414.021 21.0301 413.509 22.6446C413.37 23.0971 413.377 23.582 413.528 24.0304C413.68 24.4789 413.969 24.8682 414.354 25.1431C416.555 26.4245 416.35 29.4868 418.68 30.6784C419.243 30.9603 419.332 32.1776 418.257 32.7157C417.604 33.0361 416.798 33.1257 416.44 33.997C417.873 35.4706 419.217 34.0995 420.574 33.6639C422.199 33.1514 421.124 31.8316 421.278 30.8834C421.662 29.9225 423.377 30.9859 423.402 29.2946C422.225 29.2946 421.316 27.7442 419.844 28.9743C419.396 29.3331 418.436 28.6155 418.564 28.0902C418.961 26.1298 417.604 24.9125 416.798 23.5031C416.971 23.2984 417.209 23.1589 417.472 23.1077C417.735 23.0564 418.007 23.0965 418.244 23.2212C419.588 24.6819 420.906 23.8106 421.726 22.9008C423.249 21.2095 425.053 21.863 426.653 22.1321C427.574 22.406 428.515 22.6032 429.469 22.7215" stroke="#2F2F2F" stroke-linecap="round" stroke-linejoin="round"/>
<path d="M579.77 112.938C579.923 113.092 580.09 113.245 580.231 113.412C580.73 113.976 581.255 114.693 582.086 114.309C582.918 113.924 582.47 113.117 582.573 112.477C582.573 112.233 582.675 112.003 582.765 111.592C584.633 112.964 586.182 111.208 587.884 111.221C588.614 111.221 589.074 110.106 588.806 109.209C588.46 108.12 588.806 106.993 588.562 105.955C587.551 102.034 587.948 97.4596 583.443 95.166C583.211 95.3112 583.012 95.5045 582.861 95.7328C582.709 95.9612 582.608 96.2193 582.565 96.49C582.521 96.7606 582.536 97.0374 582.608 97.3019C582.68 97.5664 582.807 97.8124 582.982 98.0234C583.631 99.0331 583.984 100.205 584 101.406C584.016 102.607 583.694 103.788 583.072 104.814C582.074 106.583 581.382 105.852 580.448 105.007C580.205 104.93 580.218 105.007 580.205 105.237C579.987 108.287 578.452 109.466 575.316 109.555C573.025 109.555 571.617 111.721 570.414 113.643C570.069 114.206 569.621 114.706 569.07 115.449C571.835 116.128 571.092 119.293 573.076 120.651C574.1 120.651 574.356 119.703 574.356 119.011C574.356 117.73 573.934 116.449 574.561 115.231C574.461 114.9 574.255 114.611 573.976 114.407C573.696 114.204 573.358 114.097 573.012 114.104" stroke="#2F2F2F" stroke-linecap="round" stroke-linejoin="round"/>
<path d="M152.211 28.7299C152.672 26.3595 153.849 23.9378 151.776 21.7339C149.101 21.6571 148.077 24.5272 145.71 25.091C145.134 25.2191 145.236 26.2698 146.145 26.6542C146.659 26.9198 147.148 27.233 147.604 27.5896C147.068 28.4314 146.297 29.0982 145.388 29.5079C144.479 29.9176 143.469 30.0525 142.484 29.8959C142.484 29.8959 142.484 29.819 142.484 29.7806C142.484 29.7422 142.561 29.55 142.6 29.4346" stroke="#2F2F2F" stroke-linecap="round" stroke-linejoin="round"/>
<path d="M370.545 83.5449C370.999 82.2831 371.808 81.1796 372.874 80.3673C371.755 80.0879 370.588 80.0578 369.455 80.2792C368.323 80.5006 367.253 80.968 366.321 81.6486C366.117 81.8132 365.968 82.0367 365.895 82.2888C365.821 82.5409 365.827 82.8094 365.911 83.058C366.129 83.6603 366.756 83.4937 367.281 83.5578C368.292 83.6474 369.329 83.2374 370.301 83.7756" stroke="#2F2F2F" stroke-linecap="round" stroke-linejoin="round"/>
<path d="M144.983 8.66384C142.73 8.42039 140.426 7.83098 138.289 9.49669C139.356 10.1485 140.602 10.4428 141.847 10.3369C143.093 10.2309 144.272 9.73007 145.213 8.90729" stroke="#2F2F2F" stroke-linecap="round" stroke-linejoin="round"/>
<path d="M471.665 175.697C469.911 178.157 470.91 180.823 471.23 183.385C471.46 185.153 473.047 184.936 474.212 184.743C474.534 184.647 474.834 184.485 475.092 184.269C475.35 184.052 475.562 183.785 475.714 183.485C475.866 183.184 475.955 182.855 475.976 182.519C475.998 182.182 475.95 181.845 475.837 181.527C474.717 179.459 473.397 177.507 471.895 175.697" stroke="#2F2F2F" stroke-linecap="round" stroke-linejoin="round"/>
<path d="M573.019 183.386C575.093 181.797 575.349 179.235 573.71 176.159C573.345 175.562 572.947 174.985 572.52 174.43C571.599 176.044 571.125 177.723 569.538 178.53C569.001 178.261 568.258 177.62 567.964 178.069C567.324 179.145 565.827 178.863 565.404 179.901C564.982 180.939 566.006 181.067 566.569 181.182C567.061 181.206 567.546 181.057 567.938 180.759C569.116 180.055 569.922 181.041 569.73 181.682C568.873 184.462 571.01 184.796 572.699 185.731C573.531 185.141 573.979 184.45 573.071 183.565" stroke="#2F2F2F" stroke-linecap="round" stroke-linejoin="round"/>
<path d="M657.833 256.624C658.601 255.586 657.526 254.894 657.078 254.599C656.302 253.942 655.696 253.107 655.311 252.165C654.812 251.319 654.032 251.012 653.43 251.306C652.368 251.806 653.097 252.844 653.43 253.318C654.518 254.792 655.606 256.368 657.577 256.854" stroke="#2F2F2F" stroke-linecap="round" stroke-linejoin="round"/>
<path d="M14.5152 53.6904C12.9666 53.0498 11.9555 54.5361 10.5733 54.7411C7.36086 55.1896 3.85407 54.5489 1 56.74" stroke="#2F2F2F" stroke-linecap="round" stroke-linejoin="round"/>
<path d="M120.062 13.3417C120.293 13.5724 120.574 14.0337 120.754 13.9952C123.134 13.5211 125.092 14.5974 127.05 15.6737C128.279 16.2631 129.619 16.5829 130.981 16.6116C132.343 16.6403 133.695 16.3774 134.947 15.8403C137.008 15.1356 138.787 16.071 140.796 15.9941C141.357 16.0687 141.927 15.9888 142.446 15.763C142.964 15.5372 143.412 15.1741 143.74 14.7128C143.1 13.7774 141.602 14.213 141.18 12.9189C141.026 12.4705 139.9 12.4192 139.171 12.9189C136.368 14.7256 135.728 14.6487 133.552 12.2014C133.706 11.7529 133.898 11.2916 134.026 10.8176C134.026 10.6894 133.885 10.51 133.808 10.3563C129.06 9.95765 124.296 10.908 120.062 13.0983" stroke="#2F2F2F" stroke-linecap="round" stroke-linejoin="round"/>
<path d="M313.694 94.5136C313.148 95.0164 312.717 95.632 312.432 96.3178C312.147 97.0037 312.014 97.7434 312.043 98.4857C312.107 99.2545 312.043 100.126 312.99 100.331C313.937 100.536 314.577 99.7927 314.833 98.9342C315.268 97.4991 315.55 95.9103 314.347 94.7955C313.361 93.873 313.72 92.8992 313.72 91.951C313.72 90.7722 314.756 91.4385 315.319 91.2463" stroke="#2F2F2F" stroke-linecap="round" stroke-linejoin="round"/>
<path d="M564.867 63.4922C565.432 63.8472 565.975 64.2366 566.493 64.6582C569.692 67.6821 572.875 70.7145 576.04 73.7555C576.373 74.0759 576.898 74.3065 576.744 74.9215" stroke="#2F2F2F" stroke-linecap="round" stroke-linejoin="round"/>
<path d="M532.008 151.903L534.772 153.632C535.297 153.248 535.911 153.017 536.167 152.582C536.602 151.8 538.087 151.211 537.102 150.019C536.693 149.593 536.156 149.313 535.573 149.223C534.991 149.133 534.394 149.237 533.876 149.519C533.394 149.649 532.96 149.917 532.628 150.29C532.296 150.664 532.081 151.126 532.008 151.621" stroke="#2F2F2F" stroke-linecap="round" stroke-linejoin="round"/>
<path d="M411.318 29.6641C409.655 29.415 408.025 28.9854 406.455 28.3828C405.158 27.6994 403.69 27.41 402.231 27.55C400.569 27.5699 398.915 27.3056 397.342 26.7684C396.433 26.589 395.627 26.6915 394.782 26.5762L394.398 27.204L397.035 28.78L396.728 29.536C394.546 29.1639 392.302 29.5054 390.329 30.5098C388.921 31.2658 388.409 30.9326 386.489 29.0235C384.121 30.9198 380.589 30.3048 378.375 33.0468C378.115 33.292 377.81 33.4835 377.476 33.6105C377.143 33.7374 376.788 33.7972 376.431 33.7865C376.074 33.7758 375.723 33.6947 375.398 33.548C375.073 33.4013 374.779 33.1918 374.535 32.9315C374.42 32.1115 375.316 31.8936 375.559 31.3042C374.663 29.6001 372.846 30.7276 371.72 29.9076C371.4 29.677 370.849 30.3561 371.08 30.7789C371.745 31.9577 370.427 33.7259 372.436 34.546C370.107 34.956 367.88 35.0457 366.127 36.9548C366.063 37.4033 366.946 37.6211 367.189 38.2362C365.167 39.889 363.413 37.0189 361.506 38.0824C361.238 38.7359 362.069 39.0946 361.967 39.7097C359.548 40.4656 358.051 39.7097 357.539 37.3777C357.347 36.5833 357.078 35.8145 356.848 35.0457" stroke="#2F2F2F" stroke-linecap="round" stroke-linejoin="round"/>
<path d="M354.876 96.3837C352.495 96.2299 350.281 96.4862 348.681 98.7797C349.705 100.164 350.87 101.342 350.793 103.38C350.729 104.763 352.495 105.443 353.289 106.506C354.568 106.237 355.643 105.225 356.578 106.826C356.689 107.018 356.851 107.175 357.046 107.28C357.241 107.385 357.461 107.434 357.682 107.422C357.902 107.41 358.116 107.337 358.298 107.212C358.48 107.087 358.625 106.913 358.715 106.711C359.291 105.814 360.596 106.455 361.172 106.955C363.143 108.62 364.871 108.748 366.842 106.955C367.789 106.07 369.107 106.365 370.477 106.75C369.363 108.21 369.875 109.966 369.543 111.567C369.025 114.275 368.236 116.924 367.188 119.473C366.561 120.908 364.82 120.575 363.553 119.96C362.78 119.526 361.897 119.33 361.014 119.396C360.131 119.462 359.287 119.788 358.587 120.331C356.488 121.613 353.826 120.652 351.714 119.857C349.603 119.063 347.644 119.217 345.801 118.179C345.235 117.994 344.693 117.74 344.189 117.423C343.319 116.691 342.23 116.27 341.095 116.226C339.959 116.182 338.842 116.517 337.917 117.179C337.098 117.769 336.638 118.461 337.226 119.511C337.815 120.562 337.226 121.241 336.51 121.831C336.178 122.165 335.737 122.37 335.268 122.408C334.798 122.445 334.331 122.313 333.95 122.036C333.333 121.444 332.598 120.989 331.792 120.702C330.987 120.415 330.13 120.302 329.279 120.37C329.05 120.355 328.829 120.285 328.633 120.167C328.437 120.049 328.272 119.886 328.152 119.691C326.412 116.052 322.802 116.398 319.718 115.847C318.75 115.643 317.82 115.284 316.966 114.783C315.93 114.194 315.379 113.143 316.467 112.041C318.233 110.26 316.467 108.108 317.056 106.173C317.056 105.942 315.635 105.238 314.893 104.763C311.898 106.814 308.66 105.891 305.524 105.686C305.256 105.686 304.859 105.43 304.59 105.519C301.544 106.583 298.089 105.955 295.209 107.992C294.044 108.825 292.329 108.838 291.254 110.119C290.977 110.263 290.67 110.338 290.358 110.338C290.046 110.338 289.739 110.263 289.462 110.119C287.933 109.37 286.175 109.233 284.548 109.735C282.346 107.595 281.028 103.931 276.702 105.302C276.28 102.598 275.333 100.061 276.984 97.255C277.765 95.9736 277.573 93.8979 277.483 92.1297C277.483 91.2968 276.6 90.1821 277.368 89.5671C278.558 88.7342 279.927 87.7091 281.514 88.1192C284.436 88.6711 287.399 88.9754 290.371 89.0289C291.51 89.1186 292.534 89.1314 292.304 87.3888C292.306 86.7511 292.459 86.1231 292.752 85.5565C293.125 84.8483 293.276 84.0435 293.185 83.2477C293.094 82.452 292.764 81.7024 292.24 81.0975C291.344 79.9316 291.062 78.1633 288.976 78.2146C288.605 78.2146 287.21 77.8814 287.581 76.677C287.638 76.4614 287.739 76.2596 287.875 76.0835C288.012 75.9075 288.183 75.7607 288.378 75.6519C288.572 75.5432 288.787 75.4747 289.008 75.4505C289.23 75.4262 289.454 75.4468 289.667 75.511C290.148 75.489 290.63 75.5541 291.088 75.7032C292.7 76.5233 293.353 75.7032 293.404 74.1016" stroke="#2F2F2F" stroke-linecap="round" stroke-linejoin="round"/>
<path d="M568.612 167.766C567.447 166.267 567.268 163.922 564.427 163.922C563.006 163.922 562.75 161.833 561.79 160.885C563.582 158.117 563.557 157.426 562.597 154.235C561.995 152.223 560.319 153.159 559.269 152.954C558.22 152.749 558.245 154.133 558.309 155.158C558.365 155.656 558.555 156.13 558.86 156.529C559.704 157.964 559.474 158.963 557.746 159.565C558.527 160.847 558.86 162.282 560.203 163.115C560.575 163.345 560.664 163.832 560.536 164.498C560.359 165.248 560.385 166.031 560.61 166.767C560.835 167.503 561.251 168.166 561.816 168.688C563.723 168.611 562.52 166.856 563.211 166.126" stroke="#2F2F2F" stroke-linecap="round" stroke-linejoin="round"/>
<path d="M597.948 303.752C596.246 304.009 594.557 304.777 592.829 303.752C592.535 303.586 591.882 303.945 591.459 304.188C590.794 304.572 589.796 309.236 590.026 310.005C590.256 310.774 590.666 310.723 591.216 310.71C593.443 310.71 598.486 306.392 598.895 304.162C598.895 304.047 598.614 303.855 598.46 303.701" stroke="#2F2F2F" stroke-linecap="round" stroke-linejoin="round"/>
<path d="M291.092 53.6894L292.077 52.4081C291.401 51.9273 290.562 51.7342 289.744 51.8711C288.926 52.008 288.196 52.4636 287.713 53.1384C287.111 53.9585 285.153 53.2025 285.742 54.9066C286.42 57.1105 286.177 59.8909 288.57 61.1338C289.094 61.441 289.547 61.8554 289.9 62.35C290.253 62.8446 290.498 63.4082 290.618 64.004C290.17 64.7343 288.583 64.1321 288.75 65.6441C288.878 66.7844 287.854 67.361 287.316 68.0529C287.623 69.1677 288.519 69.1292 289.249 69.488C289.402 70.3849 287.866 70.449 288.058 71.4741" stroke="#2F2F2F" stroke-linecap="round" stroke-linejoin="round"/>
<path d="M189.492 68.8496C186.323 68.8531 183.231 69.8328 180.636 71.6557C179.932 72.1682 179.254 71.8094 178.537 71.6557C177.257 71.3866 175.977 70.9766 174.812 71.8735" stroke="#2F2F2F" stroke-linecap="round" stroke-linejoin="round"/>
<path d="M576.741 221.877C574.872 220.007 573.144 221.98 571.404 222.236C570.636 222.352 569.753 223.389 568.844 223.71C567.474 224.184 567.564 224.991 567.922 226.503C570.583 224.657 573.481 223.179 576.536 222.108" stroke="#2F2F2F" stroke-linecap="round" stroke-linejoin="round"/>
<path d="M285.959 62.3247C285.217 63.0166 284.513 63.6061 284.961 64.8874C285.294 65.8996 285.345 67.2194 283.399 67.2578C281.953 67.2578 280.84 68.7313 279.202 68.6288C277.794 68.5263 277.013 67.6806 277.922 66.7837C278.27 66.4027 278.528 65.9479 278.677 65.4532C278.825 64.9584 278.86 64.4366 278.779 63.9264C278.779 63.6957 278.51 63.2985 278.574 63.2473C279.859 62.0976 281.272 61.1001 282.785 60.2746C284.257 59.6083 285.345 60.8256 286.01 62.0685" stroke="#2F2F2F" stroke-linecap="round" stroke-linejoin="round"/>
<path d="M164.336 85.1839C164.464 86.5421 162.583 86.1321 162.455 87.4518C162.929 88.9766 164.132 88.4769 165.015 87.9515C167.491 86.2826 170.242 85.0638 173.142 84.351C176.354 83.7104 176.687 82.5828 175.701 80.1099C174.127 81.3912 172.822 83.2875 170.416 82.6084C168.445 82.0447 167.114 80.9043 167.434 78.3929L170.403 76.4069C170.505 74.8308 170.019 73.9467 168.317 74.2158C165.474 74.4553 162.704 75.2474 160.164 76.5478" stroke="#2F2F2F" stroke-linecap="round" stroke-linejoin="round"/>
<path d="M186.233 69.5529C184.584 72.6018 182.317 75.2726 179.578 77.3946C181.728 78.0352 183.264 79.5344 185.568 78.4965C186.707 78.2381 187.887 78.2119 189.036 78.4196C190.316 78.4196 189.036 80.111 190.316 80.1878C191.596 79.1756 192.3 78.2659 192.018 77.4971C191.728 76.9668 191.576 76.3719 191.576 75.7673C191.576 75.1627 191.728 74.5678 192.018 74.0375C190.316 73.8838 188.691 73.9222 187.68 72.4743C187.104 71.2699 188.819 70.578 188.524 69.3223" stroke="#2F2F2F" stroke-linecap="round" stroke-linejoin="round"/>
<path d="M142.424 87.2855C142.271 87.1317 142.13 86.8626 141.951 86.837C140.031 86.5679 138.252 87.4264 136.37 87.5802C135.999 87.5802 135.705 88.413 135.359 88.8615C137.919 90.2966 139.954 89.8865 142.424 87.5033" stroke="#2F2F2F" stroke-linecap="round" stroke-linejoin="round"/>
<path d="M172.718 72.3581C170.927 70.5771 169.288 72.3581 167.599 72.6272C166.846 72.8934 166.138 73.2736 165.5 73.7548" stroke="#2F2F2F" stroke-linecap="round" stroke-linejoin="round"/>
<path d="M588.863 25.0014L581.875 24.5273" stroke="#2F2F2F" stroke-linecap="round" stroke-linejoin="round"/>
<path d="M579.545 113.117C579.545 114.629 578.163 114.334 577.561 114.885C577.197 115.271 576.721 115.534 576.201 115.637C575.68 115.74 575.14 115.679 574.656 115.462" stroke="#2F2F2F" stroke-linecap="round" stroke-linejoin="round"/>
<path d="M569.754 220.48C566.5 221.752 562.972 222.154 559.516 221.646" stroke="#2F2F2F" stroke-linecap="round" stroke-linejoin="round"/>
<path d="M163.167 9.33203C164.281 10.1008 163.705 11.1643 163.897 12.0997C162.297 12.3047 161.107 12.4072 160.774 14.2138C160.505 15.6617 158.841 15.2133 157.805 15.6361" stroke="#2F2F2F" stroke-linecap="round" stroke-linejoin="round"/>
<path d="M569.982 172.662C568.83 170.97 567.166 172.38 565.797 171.957" stroke="#2F2F2F" stroke-linecap="round" stroke-linejoin="round"/>
<path d="M340.712 50.4238C339.023 51.2951 340.124 52.5636 340.251 53.6912" stroke="#2F2F2F" stroke-linecap="round" stroke-linejoin="round"/>
<path d="M517.56 22.1447C518.136 21.8372 518.917 21.6578 518.712 20.7481C518.558 20.0561 517.944 19.9921 517.355 19.7614C516.731 19.6406 516.097 19.5806 515.461 19.5821" stroke="#2F2F2F" stroke-linecap="round" stroke-linejoin="round"/>
<path d="M569.063 173.595C567.95 174.325 567.95 175.812 566.708 176.824C564.942 175.209 565.979 172.839 565.211 171.02" stroke="#2F2F2F" stroke-linecap="round" stroke-linejoin="round"/>
<path d="M423.43 20.1073C425.03 19.4923 425.004 20.9658 425.529 21.7346" stroke="#2F2F2F" stroke-linecap="round" stroke-linejoin="round"/>
<path d="M519.892 15.4297C519.533 15.5963 519.021 15.5578 518.906 16.4419C521.466 17.1979 524.026 18.5817 527.366 17.2235C524.883 15.5066 522.464 15.6603 520.135 15.4297" stroke="#2F2F2F" stroke-linecap="round" stroke-linejoin="round"/>
<path d="M154.085 7.49736L152.895 8.39428C154.341 10.4956 156.312 10.9569 159.601 9.7781C159.023 8.93882 158.221 8.27963 157.286 7.8762C156.351 7.47278 155.321 7.34147 154.315 7.49736" stroke="#2F2F2F" stroke-linecap="round" stroke-linejoin="round"/>
<path d="M148.718 17.5312C146.158 17.5312 144.277 19.2738 141.781 19.6582L143.611 22.9768C145.134 22.8743 146.005 21.4393 147.541 21.1702C148.973 20.7259 150.335 20.0786 151.585 19.2482C151.291 17.6338 149.972 17.826 148.948 17.5312" stroke="#2F2F2F" stroke-linecap="round" stroke-linejoin="round"/>
<path d="M430.889 5.16797C430.237 5.41142 429.469 5.4883 429.238 6.44929C430.096 8.2175 431.926 7.2437 433.219 7.7306C434.63 8.43853 436.121 8.97618 437.66 9.33225C438.94 9.52444 440.437 9.81915 441.691 8.58908C437.98 7.93561 434.831 5.71893 431.12 5.20641" stroke="#2F2F2F" stroke-linecap="round" stroke-linejoin="round"/>
<g filter="url(#filter0_d_3048_47828)">
<circle cx="312.957" cy="73.5018" r="6.01156" fill="#0087FF"/>
</g>
<g filter="url(#filter1_d_3048_47828)">
<circle cx="340.012" cy="89.533" r="6.01156" fill="#0087FF"/>
</g>
<g filter="url(#filter2_d_3048_47828)">
<circle cx="408.16" cy="115.584" r="6.01156" fill="#0087FF"/>
</g>
<g filter="url(#filter3_d_3048_47828)">
<circle cx="466.254" cy="143.637" r="6.01156" fill="#0087FF"/>
</g>
<g filter="url(#filter4_d_3048_47828)">
<circle cx="379.086" cy="117.588" r="6.01156" fill="#0087FF"/>
</g>
<g filter="url(#filter5_d_3048_47828)">
<circle cx="46.4491" cy="108.57" r="6.01156" fill="#0087FF"/>
</g>
<g filter="url(#filter6_d_3048_47828)">
<circle cx="315.965" cy="46.451" r="6.01156" fill="#0087FF"/>
</g>
<defs>
<filter id="filter0_d_3048_47828" x="302.945" y="67.4902" width="20.0234" height="20.0229" filterUnits="userSpaceOnUse" color-interpolation-filters="sRGB">
<feFlood flood-opacity="0" result="BackgroundImageFix"/>
<feColorMatrix in="SourceAlpha" type="matrix" values="0 0 0 0 0 0 0 0 0 0 0 0 0 0 0 0 0 0 127 0" result="hardAlpha"/>
<feOffset dy="4"/>
<feGaussianBlur stdDeviation="2"/>
<feComposite in2="hardAlpha" operator="out"/>
<feColorMatrix type="matrix" values="0 0 0 0 0 0 0 0 0 0.529412 0 0 0 0 1 0 0 0 0.25 0"/>
<feBlend mode="normal" in2="BackgroundImageFix" result="effect1_dropShadow_3048_47828"/>
<feBlend mode="normal" in="SourceGraphic" in2="effect1_dropShadow_3048_47828" result="shape"/>
</filter>
<filter id="filter1_d_3048_47828" x="330" y="83.5215" width="20.0234" height="20.0229" filterUnits="userSpaceOnUse" color-interpolation-filters="sRGB">
<feFlood flood-opacity="0" result="BackgroundImageFix"/>
<feColorMatrix in="SourceAlpha" type="matrix" values="0 0 0 0 0 0 0 0 0 0 0 0 0 0 0 0 0 0 127 0" result="hardAlpha"/>
<feOffset dy="4"/>
<feGaussianBlur stdDeviation="2"/>
<feComposite in2="hardAlpha" operator="out"/>
<feColorMatrix type="matrix" values="0 0 0 0 0 0 0 0 0 0.529412 0 0 0 0 1 0 0 0 0.25 0"/>
<feBlend mode="normal" in2="BackgroundImageFix" result="effect1_dropShadow_3048_47828"/>
<feBlend mode="normal" in="SourceGraphic" in2="effect1_dropShadow_3048_47828" result="shape"/>
</filter>
<filter id="filter2_d_3048_47828" x="398.148" y="109.572" width="20.0234" height="20.0229" filterUnits="userSpaceOnUse" color-interpolation-filters="sRGB">
<feFlood flood-opacity="0" result="BackgroundImageFix"/>
<feColorMatrix in="SourceAlpha" type="matrix" values="0 0 0 0 0 0 0 0 0 0 0 0 0 0 0 0 0 0 127 0" result="hardAlpha"/>
<feOffset dy="4"/>
<feGaussianBlur stdDeviation="2"/>
<feComposite in2="hardAlpha" operator="out"/>
<feColorMatrix type="matrix" values="0 0 0 0 0 0 0 0 0 0.529412 0 0 0 0 1 0 0 0 0.25 0"/>
<feBlend mode="normal" in2="BackgroundImageFix" result="effect1_dropShadow_3048_47828"/>
<feBlend mode="normal" in="SourceGraphic" in2="effect1_dropShadow_3048_47828" result="shape"/>
</filter>
<filter id="filter3_d_3048_47828" x="456.242" y="137.625" width="20.0234" height="20.0229" filterUnits="userSpaceOnUse" color-interpolation-filters="sRGB">
<feFlood flood-opacity="0" result="BackgroundImageFix"/>
<feColorMatrix in="SourceAlpha" type="matrix" values="0 0 0 0 0 0 0 0 0 0 0 0 0 0 0 0 0 0 127 0" result="hardAlpha"/>
<feOffset dy="4"/>
<feGaussianBlur stdDeviation="2"/>
<feComposite in2="hardAlpha" operator="out"/>
<feColorMatrix type="matrix" values="0 0 0 0 0 0 0 0 0 0.529412 0 0 0 0 1 0 0 0 0.25 0"/>
<feBlend mode="normal" in2="BackgroundImageFix" result="effect1_dropShadow_3048_47828"/>
<feBlend mode="normal" in="SourceGraphic" in2="effect1_dropShadow_3048_47828" result="shape"/>
</filter>
<filter id="filter4_d_3048_47828" x="369.074" y="111.576" width="20.0234" height="20.0229" filterUnits="userSpaceOnUse" color-interpolation-filters="sRGB">
<feFlood flood-opacity="0" result="BackgroundImageFix"/>
<feColorMatrix in="SourceAlpha" type="matrix" values="0 0 0 0 0 0 0 0 0 0 0 0 0 0 0 0 0 0 127 0" result="hardAlpha"/>
<feOffset dy="4"/>
<feGaussianBlur stdDeviation="2"/>
<feComposite in2="hardAlpha" operator="out"/>
<feColorMatrix type="matrix" values="0 0 0 0 0 0 0 0 0 0.529412 0 0 0 0 1 0 0 0 0.25 0"/>
<feBlend mode="normal" in2="BackgroundImageFix" result="effect1_dropShadow_3048_47828"/>
<feBlend mode="normal" in="SourceGraphic" in2="effect1_dropShadow_3048_47828" result="shape"/>
</filter>
<filter id="filter5_d_3048_47828" x="36.4375" y="102.559" width="20.0234" height="20.0229" filterUnits="userSpaceOnUse" color-interpolation-filters="sRGB">
<feFlood flood-opacity="0" result="BackgroundImageFix"/>
<feColorMatrix in="SourceAlpha" type="matrix" values="0 0 0 0 0 0 0 0 0 0 0 0 0 0 0 0 0 0 127 0" result="hardAlpha"/>
<feOffset dy="4"/>
<feGaussianBlur stdDeviation="2"/>
<feComposite in2="hardAlpha" operator="out"/>
<feColorMatrix type="matrix" values="0 0 0 0 0 0 0 0 0 0.529412 0 0 0 0 1 0 0 0 0.25 0"/>
<feBlend mode="normal" in2="BackgroundImageFix" result="effect1_dropShadow_3048_47828"/>
<feBlend mode="normal" in="SourceGraphic" in2="effect1_dropShadow_3048_47828" result="shape"/>
</filter>
<filter id="filter6_d_3048_47828" x="305.953" y="40.4395" width="20.0234" height="20.0229" filterUnits="userSpaceOnUse" color-interpolation-filters="sRGB">
<feFlood flood-opacity="0" result="BackgroundImageFix"/>
<feColorMatrix in="SourceAlpha" type="matrix" values="0 0 0 0 0 0 0 0 0 0 0 0 0 0 0 0 0 0 127 0" result="hardAlpha"/>
<feOffset dy="4"/>
<feGaussianBlur stdDeviation="2"/>
<feComposite in2="hardAlpha" operator="out"/>
<feColorMatrix type="matrix" values="0 0 0 0 0 0 0 0 0 0.529412 0 0 0 0 1 0 0 0 0.25 0"/>
<feBlend mode="normal" in2="BackgroundImageFix" result="effect1_dropShadow_3048_47828"/>
<feBlend mode="normal" in="SourceGraphic" in2="effect1_dropShadow_3048_47828" result="shape"/>
</filter>
</defs>
</svg>
