<svg width="80" height="80" viewBox="0 0 80 80" fill="none" xmlns="http://www.w3.org/2000/svg">
<path d="M40 47.5L25 40" stroke="#0087FF" stroke-width="2" stroke-linecap="round" stroke-linejoin="round"/>
<path d="M40 40L55 32.5" stroke="#0087FF" stroke-width="2" stroke-linecap="round" stroke-linejoin="round"/>
<path d="M41.4071 56.6253C43.7008 58.1875 46.2945 59.2553 49.0232 59.7607C51.7519 60.2662 54.556 60.1982 57.257 59.5611C59.9581 58.9241 62.497 57.7319 64.7122 56.0603C66.9275 54.3888 68.7707 52.2746 70.1245 49.852C71.4783 47.4295 72.3132 44.7518 72.576 41.9891C72.8387 39.2264 72.5237 36.4393 71.6509 33.805C70.7781 31.1706 69.3665 28.7468 67.5061 26.6876C65.6457 24.6284 63.3771 22.9789 60.8446 21.844C60.2886 21.5645 59.8468 21.1006 59.5946 20.5315C57.9745 16.672 55.2507 13.377 51.7649 11.0597C48.2791 8.74251 44.1866 7.50635 40.0009 7.50635C35.8152 7.50635 31.7226 8.74251 28.2368 11.0597C24.751 13.377 22.0272 16.672 20.4071 20.5315C20.155 21.1006 19.7132 21.5645 19.1571 21.844C16.6246 22.9789 14.356 24.6284 12.4956 26.6876C10.6352 28.7468 9.22372 31.1706 8.35089 33.805C7.47806 36.4393 7.16302 39.2264 7.42581 41.9891C7.68859 44.7518 8.52344 47.4295 9.87727 49.852C11.2311 52.2746 13.0743 54.3888 15.2895 56.0603C17.5048 57.7319 20.0437 58.9241 22.7447 59.5611C25.4458 60.1982 28.2498 60.2662 30.9786 59.7607C33.7073 59.2553 36.301 58.1875 38.5946 56.6253C39.0124 56.3511 39.5012 56.2049 40.0009 56.2049C40.5006 56.2049 40.9894 56.3511 41.4071 56.6253Z" stroke="#2F2F2F" stroke-width="2" stroke-linecap="round" stroke-linejoin="round"/>
<path d="M40 72.5V27.5" stroke="#0087FF" stroke-width="2" stroke-linecap="round" stroke-linejoin="round"/>
</svg>
