<svg width="204" height="347" viewBox="0 0 204 347" fill="none" xmlns="http://www.w3.org/2000/svg">
<g opacity="0.1">
<path d="M0.284531 332.253C0.222061 332.276 0.166718 332.315 0.124237 332.366C0.0817719 332.417 0.0537109 332.479 0.0428467 332.544C-0.046814 332.998 0.00656128 333.469 0.195709 333.892C0.289429 334.079 0.397934 334.168 0.496582 334.163L8.73396 334.015L16.626 333.877L24.4737 333.739L26.3135 333.704L32.1931 333.6L34.2006 333.566L39.9174 333.462L41.8461 333.428L47.8243 333.324L49.7085 333.29L55.7459 333.181L57.9014 333.142L63.7514 333.038H64.7676C64.9842 333.941 65.2984 334.818 65.7048 335.653C66.3904 337.015 67.1845 337.677 67.8652 337.627L69.345 337.568C69.5185 337.557 69.6872 337.506 69.8382 337.42C70.3668 337.031 70.7422 336.469 70.8987 335.831C71.0395 336.067 71.2339 336.265 71.4663 336.411C71.6986 336.557 71.9622 336.646 72.2354 336.67L76.8917 336.487C79.2939 342.819 83.9551 347.186 88.8087 346.994C90.0783 346.947 91.3168 346.587 92.4145 345.948C96.1977 343.761 98.6245 338.377 98.5505 331.918L99.2065 331.947C99.3577 332.456 99.5508 332.951 99.7836 333.428C100.356 334.558 100.992 335.106 101.569 335.081L102.797 335.032C102.94 335.027 103.079 334.986 103.202 334.913C103.518 334.913 103.695 334.997 103.892 334.987L105.121 334.943C105.269 334.937 105.413 334.892 105.54 334.814C105.944 334.587 106.29 334.035 106.526 333.161C106.597 332.888 106.653 332.611 106.694 332.332L167.976 333.122C168.928 335.027 169.949 335.91 170.881 335.875L180.075 335.515C180.313 335.505 180.543 335.436 180.746 335.313C181.388 334.943 181.945 334.054 182.315 332.653C183.301 328.932 182.645 322.99 180.835 319.378C179.923 317.572 178.892 316.689 177.964 316.728L168.78 317.093C168.542 317.105 168.31 317.175 168.104 317.296C167.463 317.666 166.906 318.554 166.536 319.946L105.959 325.68C105.851 325.399 105.732 325.127 105.609 324.876C105.037 323.75 104.396 323.198 103.818 323.222L102.61 323.272C102.458 323.274 102.31 323.316 102.181 323.395C101.954 323.357 101.725 323.33 101.495 323.316L100.287 323.361C100.133 323.365 99.9819 323.408 99.8478 323.484C99.322 323.893 98.9697 324.485 98.8613 325.142C98.7326 325.627 98.65 326.122 98.6146 326.623L97.9734 326.706C96.1977 318.46 90.7225 312.306 84.9762 312.533C83.708 312.58 82.4711 312.939 81.3754 313.58C78.3469 315.327 76.1864 319.126 75.486 323.889L70.8247 324.071C70.6679 324.081 70.5157 324.129 70.3808 324.209C70.0802 324.408 69.841 324.687 69.6902 325.014C69.0589 323.928 68.3733 323.395 67.7468 323.42L66.2671 323.479C66.0929 323.49 65.9239 323.543 65.7738 323.632C65.2806 323.913 64.8712 324.579 64.59 325.631C64.3703 326.502 64.256 327.397 64.2496 328.295L63.2138 328.36L55.5733 328.853L49.9798 329.199L47.3212 329.356L41.4021 329.732L39.4686 329.845L33.8652 330.2L31.759 330.319L26.0915 330.684L24.0544 330.792L16.774 331.256L9.17296 331.75L8.49228 331.794L0.284531 332.253Z" fill="#2F2F2F"/>
</g>
<path d="M170.96 329.513V312.602H171.32C171.971 311.273 173.031 310.188 174.344 309.507C178.832 306.912 186.123 306.912 190.621 309.507C191.936 310.184 192.995 311.27 193.64 312.602H194V329.513C194 331.221 192.87 332.923 190.621 334.221C186.133 336.817 178.842 336.817 174.344 334.221C172.085 332.928 170.96 331.221 170.96 329.513Z" fill="url(#paint0_linear_3048_48061)"/>
<path d="M174.341 317.301C178.83 319.897 186.12 319.897 190.618 317.301C195.117 314.705 195.117 310.496 190.618 307.9C186.12 305.304 178.839 305.299 174.341 307.9C169.842 310.501 169.838 314.71 174.341 317.301Z" fill="url(#paint1_linear_3048_48061)"/>
<path d="M174.299 312.395L178.507 192.689H186.443L190.641 312.395C190.641 313.599 189.847 314.808 188.253 315.731C185.062 317.572 179.868 317.572 176.691 315.731C175.098 314.808 174.299 313.599 174.299 312.395Z" fill="#F4F6F9"/>
<path d="M175.293 192.285V190.025H175.515C175.919 189.197 176.58 188.522 177.399 188.1C180.201 186.477 184.743 186.477 187.555 188.1C188.373 188.522 189.032 189.197 189.434 190.025H189.656V192.285C189.656 193.351 188.951 194.412 187.555 195.246C184.743 196.865 180.201 196.865 177.399 195.246C175.988 194.412 175.293 193.351 175.293 192.285Z" fill="url(#paint2_linear_3048_48061)"/>
<path d="M177.401 192.96C180.203 194.579 184.746 194.579 187.557 192.96C190.369 191.342 190.364 188.711 187.557 187.093C184.751 185.474 180.203 185.469 177.401 187.093C174.599 188.716 174.595 191.342 177.401 192.96Z" fill="url(#paint3_linear_3048_48061)"/>
<path d="M175.293 188.012V185.752H175.515C175.92 184.925 176.581 184.25 177.399 183.827C180.201 182.203 184.743 182.203 187.555 183.827C188.372 184.25 189.031 184.925 189.434 185.752H189.656V188.012C189.656 189.073 188.951 190.139 187.555 190.973C184.743 192.596 180.201 192.596 177.399 190.973C175.988 190.139 175.293 189.073 175.293 188.012Z" fill="url(#paint4_linear_3048_48061)"/>
<path d="M177.401 188.687C180.203 190.306 184.746 190.306 187.557 188.687C190.369 187.068 190.364 184.438 187.557 182.819C184.751 181.201 180.203 181.201 177.401 182.819C174.599 184.438 174.595 187.068 177.401 188.687Z" fill="url(#paint5_linear_3048_48061)"/>
<path d="M179.001 185.648L179.987 168.242H184.92L185.906 185.648C185.876 185.955 185.765 186.248 185.585 186.499C185.405 186.749 185.162 186.947 184.88 187.074C184.116 187.461 183.271 187.662 182.414 187.662C181.557 187.662 180.712 187.461 179.948 187.074C179.681 186.937 179.454 186.734 179.288 186.484C179.122 186.235 179.023 185.946 179.001 185.648Z" fill="white"/>
<path d="M161.354 159.982C161.439 165.531 163.702 170.825 167.654 174.719C171.606 178.613 176.931 180.796 182.478 180.796C188.025 180.796 193.35 178.613 197.302 174.719C201.254 170.825 203.517 165.531 203.602 159.982H161.354Z" fill="url(#paint6_linear_3048_48061)"/>
<path d="M203.598 159.897C203.513 154.348 201.25 149.055 197.298 145.161C193.346 141.267 188.021 139.084 182.474 139.084C176.927 139.084 171.603 141.267 167.65 145.161C163.698 149.055 161.435 154.348 161.351 159.897C161.351 159.897 163.955 171.889 183.014 171.889C202.074 171.889 203.598 159.897 203.598 159.897Z" fill="url(#paint7_linear_3048_48061)"/>
<path d="M188.326 155.608C189.618 158.273 192.701 159.443 195.232 158.229C197.762 157.015 198.734 153.866 197.451 151.202C196.169 148.537 193.081 147.367 190.546 148.586C188.01 149.805 187.044 152.948 188.326 155.608Z" fill="url(#paint8_linear_3048_48061)"/>
<path d="M192.052 152.844C192.269 153.234 192.595 153.551 192.991 153.756C193.386 153.962 193.833 154.047 194.276 154.001C194.719 153.955 195.139 153.78 195.484 153.498C195.829 153.216 196.084 152.839 196.217 152.413C196.349 151.988 196.355 151.533 196.232 151.104C196.109 150.676 195.863 150.293 195.525 150.002C195.187 149.712 194.771 149.528 194.329 149.471C193.887 149.415 193.438 149.49 193.038 149.686C192.49 149.975 192.078 150.469 191.893 151.061C191.708 151.653 191.765 152.294 192.052 152.844Z" fill="url(#paint9_linear_3048_48061)"/>
<path d="M176.341 147.076C179.729 149.05 185.219 149.05 188.613 147.076C192.006 145.102 192.002 141.949 188.613 139.995C185.224 138.04 179.734 138.021 176.341 139.995C172.947 141.969 172.952 145.117 176.341 147.076Z" fill="white"/>
<path d="M174.747 143.024V131.674H174.989C175.42 130.783 176.128 130.056 177.007 129.601C180.03 127.854 184.928 127.854 187.942 129.601C188.823 130.054 189.533 130.782 189.964 131.674H190.211V143.024C190.211 144.164 189.446 145.304 187.942 146.177C184.928 147.92 180.05 147.92 177.007 146.177C175.502 145.304 174.747 144.164 174.747 143.024Z" fill="url(#paint10_linear_3048_48061)"/>
<path d="M177.006 134.817C180.029 136.559 184.927 136.559 187.941 134.817C190.955 133.075 190.96 130.248 187.941 128.506C184.922 126.764 180.049 126.764 177.006 128.506C173.962 130.248 173.997 133.066 177.006 134.817Z" fill="url(#paint11_linear_3048_48061)"/>
<path d="M176.449 131.393V124.795H176.612C176.954 124.103 177.509 123.537 178.195 123.182C180.548 121.82 184.366 121.82 186.719 123.182C187.406 123.536 187.961 124.102 188.302 124.795H188.484V131.393C188.484 132.282 187.897 133.175 186.719 133.861C184.366 135.223 180.548 135.223 178.195 133.861C177.041 133.175 176.449 132.282 176.449 131.393Z" fill="url(#paint12_linear_3048_48061)"/>
<path d="M178.212 127.259C180.565 128.616 184.383 128.616 186.735 127.259C189.088 125.902 189.088 123.696 186.735 122.324C184.383 120.952 180.565 120.967 178.212 122.324C175.859 123.681 175.859 125.902 178.212 127.259Z" fill="#566480"/>
<path d="M173.8 126.157V123.428H174.066C174.556 122.427 175.353 121.609 176.34 121.094C179.729 119.12 185.218 119.12 188.612 121.094C189.601 121.606 190.397 122.425 190.881 123.428H191.152V126.157C191.152 127.435 190.304 128.718 188.612 129.7C185.223 131.674 179.734 131.674 176.34 129.7C174.638 128.723 173.8 127.44 173.8 126.157Z" fill="url(#paint13_linear_3048_48061)"/>
<path d="M176.341 126.973C179.729 128.947 185.219 128.947 188.613 126.973C192.006 124.999 192.002 121.845 188.613 119.891C185.224 117.937 179.734 117.917 176.341 119.891C172.947 121.865 172.952 125.018 176.341 126.973Z" fill="url(#paint14_linear_3048_48061)"/>
<path d="M179.515 123.018L181.3 0.677734H183.643L185.434 123.018C185.409 123.28 185.316 123.53 185.164 123.743C185.011 123.956 184.805 124.125 184.565 124.232C183.916 124.558 183.2 124.728 182.474 124.728C181.748 124.728 181.032 124.558 180.383 124.232C180.143 124.125 179.937 123.956 179.784 123.743C179.632 123.53 179.539 123.28 179.515 123.018Z" fill="white"/>
<path d="M185.345 116.807C185.341 117.06 185.267 117.308 185.129 117.521C184.991 117.734 184.796 117.904 184.565 118.011C183.917 118.339 183.201 118.511 182.474 118.511C181.747 118.511 181.031 118.339 180.383 118.011C180.152 117.904 179.957 117.735 179.819 117.522C179.681 117.308 179.606 117.061 179.603 116.807L179.515 123.02C179.539 123.281 179.632 123.531 179.784 123.744C179.937 123.957 180.143 124.126 180.383 124.234C181.032 124.56 181.748 124.729 182.474 124.729C183.2 124.729 183.916 124.56 184.565 124.234C184.805 124.126 185.011 123.957 185.164 123.744C185.316 123.531 185.409 123.281 185.434 123.02L185.345 116.807Z" fill="url(#paint15_linear_3048_48061)"/>
<path d="M185.131 102.066C185.132 102.315 185.065 102.559 184.938 102.773C184.812 102.987 184.629 103.162 184.411 103.28C183.818 103.608 183.152 103.78 182.475 103.78C181.798 103.78 181.131 103.608 180.539 103.28C180.32 103.162 180.138 102.987 180.011 102.773C179.885 102.559 179.818 102.315 179.819 102.066L179.735 108.289C179.754 108.543 179.838 108.787 179.978 108.999C180.119 109.211 180.312 109.383 180.539 109.498C181.131 109.826 181.798 109.998 182.475 109.998C183.152 109.998 183.818 109.826 184.411 109.498C184.637 109.383 184.83 109.211 184.971 108.999C185.112 108.787 185.196 108.543 185.215 108.289L185.131 102.066Z" fill="url(#paint16_linear_3048_48061)"/>
<path d="M184.926 87.4844C184.927 87.7248 184.868 87.9616 184.752 88.1723C184.636 88.383 184.469 88.5607 184.265 88.6885C183.726 89.0151 183.107 89.1878 182.477 89.1878C181.847 89.1878 181.228 89.0151 180.689 88.6885C180.484 88.5618 180.316 88.3843 180.2 88.1734C180.084 87.9624 180.025 87.7251 180.028 87.4844L179.949 93.7023C179.962 93.9488 180.037 94.1881 180.166 94.3984C180.295 94.6087 180.475 94.7834 180.689 94.9064C181.228 95.2331 181.847 95.4057 182.477 95.4057C183.107 95.4057 183.726 95.2331 184.265 94.9064C184.478 94.7828 184.657 94.6079 184.785 94.3976C184.913 94.1873 184.987 93.9484 185 93.7023L184.926 87.4844Z" fill="url(#paint17_linear_3048_48061)"/>
<path d="M184.716 72.9648C184.723 73.201 184.671 73.4351 184.566 73.6467C184.461 73.8584 184.306 74.041 184.114 74.1788C183.629 74.5014 183.059 74.6734 182.477 74.6734C181.894 74.6734 181.324 74.5014 180.839 74.1788C180.647 74.041 180.492 73.8584 180.387 73.6467C180.282 73.4351 180.231 73.201 180.237 72.9648L180.163 79.1828C180.173 79.424 180.239 79.6595 180.357 79.8704C180.474 80.0813 180.639 80.2616 180.839 80.3968C181.324 80.7193 181.894 80.8914 182.477 80.8914C183.059 80.8914 183.629 80.7193 184.114 80.3968C184.314 80.2616 184.479 80.0812 184.595 79.8702C184.712 79.6593 184.777 79.4237 184.785 79.1828L184.716 72.9648Z" fill="url(#paint18_linear_3048_48061)"/>
<path d="M184.501 58.7422C184.511 58.972 184.467 59.201 184.373 59.4108C184.279 59.6207 184.137 59.8057 183.959 59.9512C183.532 60.2716 183.013 60.4447 182.479 60.4447C181.945 60.4447 181.426 60.2716 180.999 59.9512C180.818 59.8072 180.674 59.6229 180.577 59.4129C180.48 59.203 180.434 58.9733 180.442 58.7422L180.378 64.9601C180.383 65.195 180.441 65.4256 180.549 65.6343C180.657 65.843 180.811 66.0243 180.999 66.1642C181.426 66.4846 181.945 66.6577 182.479 66.6577C183.013 66.6577 183.532 66.4846 183.959 66.1642C184.144 66.0223 184.296 65.8403 184.402 65.6319C184.507 65.4235 184.565 65.1939 184.57 64.9601L184.501 58.7422Z" fill="url(#paint19_linear_3048_48061)"/>
<path d="M184.307 44.5195C184.318 44.7442 184.28 44.9685 184.195 45.1767C184.109 45.3848 183.979 45.5716 183.814 45.7236C183.444 46.0458 182.97 46.2232 182.479 46.2232C181.989 46.2232 181.515 46.0458 181.145 45.7236C180.979 45.5718 180.849 45.385 180.764 45.1769C180.678 44.9687 180.64 44.7442 180.652 44.5195L180.593 50.7325C180.593 50.9626 180.642 51.1899 180.738 51.3993C180.833 51.6087 180.972 51.7953 181.145 51.9465C181.516 52.2667 181.99 52.4429 182.479 52.4429C182.969 52.4429 183.443 52.2667 183.814 51.9465C183.988 51.7955 184.127 51.6091 184.223 51.3998C184.32 51.1904 184.37 50.9629 184.371 50.7325L184.307 44.5195Z" fill="url(#paint20_linear_3048_48061)"/>
<path d="M184.077 30.293C184.093 30.5131 184.063 30.7342 183.991 30.9428C183.919 31.1514 183.806 31.3433 183.658 31.5069C183.432 31.7553 183.134 31.9267 182.806 31.9971C182.478 32.0675 182.136 32.0333 181.828 31.8995C181.52 31.7656 181.262 31.5387 181.089 31.2506C180.917 30.9625 180.839 30.6277 180.866 30.293L180.797 36.5109C180.795 36.9634 180.972 37.3983 181.29 37.72C181.444 37.8789 181.629 38.0053 181.833 38.0916C182.036 38.1778 182.255 38.2223 182.477 38.2223C182.698 38.2223 182.917 38.1778 183.121 38.0916C183.324 38.0053 183.509 37.8789 183.663 37.72C183.821 37.5613 183.946 37.3727 184.031 37.1651C184.116 36.9575 184.158 36.7351 184.156 36.5109L184.077 30.293Z" fill="url(#paint21_linear_3048_48061)"/>
<path d="M183.866 15.8047C183.901 16.237 183.777 16.6672 183.516 17.0137C183.391 17.1701 183.233 17.2963 183.053 17.383C182.873 17.4698 182.675 17.5148 182.475 17.5148C182.275 17.5148 182.078 17.4698 181.898 17.383C181.718 17.2963 181.559 17.1701 181.434 17.0137C181.174 16.6666 181.048 16.2373 181.079 15.8047L181 22.0226C180.997 22.4644 181.151 22.8928 181.434 23.2317C181.559 23.388 181.718 23.5142 181.898 23.601C182.078 23.6877 182.275 23.7328 182.475 23.7328C182.675 23.7328 182.873 23.6877 183.053 23.601C183.233 23.5142 183.391 23.388 183.516 23.2317C183.8 22.8934 183.952 22.4642 183.945 22.0226L183.866 15.8047Z" fill="url(#paint22_linear_3048_48061)"/>
<path d="M183.647 0.677734H181.304L181.225 6.89569C181.217 7.32784 181.346 7.75145 181.595 8.10473C181.687 8.25697 181.817 8.38291 181.971 8.47034C182.126 8.55776 182.301 8.60371 182.478 8.60371C182.656 8.60371 182.831 8.55776 182.985 8.47034C183.14 8.38291 183.269 8.25697 183.361 8.10473C183.607 7.74996 183.734 7.32702 183.726 6.89569L183.647 0.677734Z" fill="url(#paint23_linear_3048_48061)"/>
<path d="M181.649 1.15649C181.906 1.28767 182.19 1.35607 182.478 1.35607C182.766 1.35607 183.05 1.28767 183.306 1.15649C183.413 1.12976 183.508 1.06817 183.575 0.98148C183.643 0.894794 183.68 0.787993 183.68 0.678039C183.68 0.568086 183.643 0.461285 183.575 0.374599C183.508 0.287913 183.413 0.226313 183.306 0.199583C183.05 0.0684036 182.766 0 182.478 0C182.19 0 181.906 0.0684036 181.649 0.199583C181.542 0.226313 181.448 0.287913 181.38 0.374599C181.312 0.461285 181.276 0.568086 181.276 0.678039C181.276 0.787993 181.312 0.894794 181.38 0.98148C181.448 1.06817 181.542 1.12976 181.649 1.15649Z" fill="#CFCFCF"/>
<defs>
<linearGradient id="paint0_linear_3048_48061" x1="182.48" y1="307.561" x2="182.48" y2="336.168" gradientUnits="userSpaceOnUse">
<stop stop-color="#0107F5"/>
<stop offset="0.494792" stop-color="#0087FF"/>
<stop offset="1" stop-color="#04DEEC"/>
</linearGradient>
<linearGradient id="paint1_linear_3048_48061" x1="182.479" y1="305.951" x2="182.479" y2="319.248" gradientUnits="userSpaceOnUse">
<stop stop-color="#0107F5"/>
<stop offset="0.494792" stop-color="#0087FF"/>
<stop offset="1" stop-color="#04DEEC"/>
</linearGradient>
<linearGradient id="paint2_linear_3048_48061" x1="182.474" y1="186.883" x2="182.474" y2="196.46" gradientUnits="userSpaceOnUse">
<stop stop-color="#0107F5"/>
<stop offset="0.494792" stop-color="#0087FF"/>
<stop offset="1" stop-color="#04DEEC"/>
</linearGradient>
<linearGradient id="paint3_linear_3048_48061" x1="182.481" y1="185.877" x2="182.481" y2="194.174" gradientUnits="userSpaceOnUse">
<stop stop-color="#0107F5"/>
<stop offset="0.494792" stop-color="#0087FF"/>
<stop offset="1" stop-color="#04DEEC"/>
</linearGradient>
<linearGradient id="paint4_linear_3048_48061" x1="182.474" y1="182.609" x2="182.474" y2="192.19" gradientUnits="userSpaceOnUse">
<stop stop-color="#0107F5"/>
<stop offset="0.494792" stop-color="#0087FF"/>
<stop offset="1" stop-color="#04DEEC"/>
</linearGradient>
<linearGradient id="paint5_linear_3048_48061" x1="182.481" y1="181.605" x2="182.481" y2="189.901" gradientUnits="userSpaceOnUse">
<stop stop-color="#0107F5"/>
<stop offset="0.494792" stop-color="#0087FF"/>
<stop offset="1" stop-color="#04DEEC"/>
</linearGradient>
<linearGradient id="paint6_linear_3048_48061" x1="182.478" y1="159.982" x2="182.478" y2="180.796" gradientUnits="userSpaceOnUse">
<stop stop-color="#0107F5"/>
<stop offset="0.494792" stop-color="#0087FF"/>
<stop offset="1" stop-color="#04DEEC"/>
</linearGradient>
<linearGradient id="paint7_linear_3048_48061" x1="182.474" y1="139.084" x2="182.474" y2="171.889" gradientUnits="userSpaceOnUse">
<stop stop-color="#0107F5"/>
<stop offset="0.494792" stop-color="#0087FF"/>
<stop offset="1" stop-color="#04DEEC"/>
</linearGradient>
<linearGradient id="paint8_linear_3048_48061" x1="192.888" y1="148.104" x2="192.888" y2="158.708" gradientUnits="userSpaceOnUse">
<stop stop-color="#0107F5"/>
<stop offset="0.494792" stop-color="#0087FF"/>
<stop offset="1" stop-color="#04DEEC"/>
</linearGradient>
<linearGradient id="paint9_linear_3048_48061" x1="194.053" y1="149.453" x2="194.053" y2="154.013" gradientUnits="userSpaceOnUse">
<stop stop-color="#0107F5"/>
<stop offset="0.494792" stop-color="#0087FF"/>
<stop offset="1" stop-color="#04DEEC"/>
</linearGradient>
<linearGradient id="paint10_linear_3048_48061" x1="182.479" y1="128.291" x2="182.479" y2="147.484" gradientUnits="userSpaceOnUse">
<stop stop-color="#0107F5"/>
<stop offset="0.494792" stop-color="#0087FF"/>
<stop offset="1" stop-color="#04DEEC"/>
</linearGradient>
<linearGradient id="paint11_linear_3048_48061" x1="182.47" y1="127.199" x2="182.47" y2="136.124" gradientUnits="userSpaceOnUse">
<stop stop-color="#0107F5"/>
<stop offset="0.494792" stop-color="#0087FF"/>
<stop offset="1" stop-color="#04DEEC"/>
</linearGradient>
<linearGradient id="paint12_linear_3048_48061" x1="182.467" y1="122.16" x2="182.467" y2="134.882" gradientUnits="userSpaceOnUse">
<stop stop-color="#0107F5"/>
<stop offset="0.494792" stop-color="#0087FF"/>
<stop offset="1" stop-color="#04DEEC"/>
</linearGradient>
<linearGradient id="paint13_linear_3048_48061" x1="182.476" y1="119.613" x2="182.476" y2="131.181" gradientUnits="userSpaceOnUse">
<stop stop-color="#0107F5"/>
<stop offset="0.494792" stop-color="#0087FF"/>
<stop offset="1" stop-color="#04DEEC"/>
</linearGradient>
<linearGradient id="paint14_linear_3048_48061" x1="182.477" y1="118.418" x2="182.477" y2="128.453" gradientUnits="userSpaceOnUse">
<stop stop-color="#0107F5"/>
<stop offset="0.494792" stop-color="#0087FF"/>
<stop offset="1" stop-color="#04DEEC"/>
</linearGradient>
<linearGradient id="paint15_linear_3048_48061" x1="185.434" y1="120.764" x2="179.515" y2="120.764" gradientUnits="userSpaceOnUse">
<stop offset="0.29" stop-color="#CC2F2F"/>
<stop offset="1" stop-color="#FF3131"/>
</linearGradient>
<linearGradient id="paint16_linear_3048_48061" x1="185.215" y1="106.034" x2="179.735" y2="106.034" gradientUnits="userSpaceOnUse">
<stop offset="0.29" stop-color="#CC2F2F"/>
<stop offset="1" stop-color="#FF3131"/>
</linearGradient>
<linearGradient id="paint17_linear_3048_48061" x1="185" y1="91.4471" x2="179.949" y2="91.4471" gradientUnits="userSpaceOnUse">
<stop offset="0.29" stop-color="#CC2F2F"/>
<stop offset="1" stop-color="#FF3131"/>
</linearGradient>
<linearGradient id="paint18_linear_3048_48061" x1="184.785" y1="76.9276" x2="180.163" y2="76.9276" gradientUnits="userSpaceOnUse">
<stop offset="0.29" stop-color="#CC2F2F"/>
<stop offset="1" stop-color="#FF3131"/>
</linearGradient>
<linearGradient id="paint19_linear_3048_48061" x1="184.575" y1="62.7049" x2="180.373" y2="62.7049" gradientUnits="userSpaceOnUse">
<stop offset="0.29" stop-color="#CC2F2F"/>
<stop offset="1" stop-color="#FF3131"/>
</linearGradient>
<linearGradient id="paint20_linear_3048_48061" x1="184.366" y1="48.4822" x2="180.588" y2="48.4822" gradientUnits="userSpaceOnUse">
<stop offset="0.29" stop-color="#CC2F2F"/>
<stop offset="1" stop-color="#FF3131"/>
</linearGradient>
<linearGradient id="paint21_linear_3048_48061" x1="184.151" y1="34.2606" x2="180.797" y2="34.2606" gradientUnits="userSpaceOnUse">
<stop offset="0.29" stop-color="#CC2F2F"/>
<stop offset="1" stop-color="#FF3131"/>
</linearGradient>
<linearGradient id="paint22_linear_3048_48061" x1="183.945" y1="19.7674" x2="181" y2="19.7674" gradientUnits="userSpaceOnUse">
<stop offset="0.29" stop-color="#CC2F2F"/>
<stop offset="1" stop-color="#FF3131"/>
</linearGradient>
<linearGradient id="paint23_linear_3048_48061" x1="183.726" y1="4.64045" x2="181.225" y2="4.64045" gradientUnits="userSpaceOnUse">
<stop offset="0.29" stop-color="#CC2F2F"/>
<stop offset="1" stop-color="#FF3131"/>
</linearGradient>
</defs>
</svg>
