<svg width="80" height="80" viewBox="0 0 80 80" fill="none" xmlns="http://www.w3.org/2000/svg">
<path d="M25 62.5C30.5228 62.5 35 58.0228 35 52.5C35 46.9772 30.5228 42.5 25 42.5C19.4772 42.5 15 46.9772 15 52.5C15 58.0228 19.4772 62.5 25 62.5Z" stroke="#2F2F2F" stroke-width="2" stroke-linecap="round" stroke-linejoin="round"/>
<path d="M10 70C11.7465 67.6713 14.0112 65.7813 16.6147 64.4795C19.2183 63.1777 22.0892 62.5 25 62.5C27.9108 62.5 30.7817 63.1777 33.3853 64.4795C35.9888 65.7813 38.2535 67.6713 40 70" stroke="#2F2F2F" stroke-width="2" stroke-linecap="round" stroke-linejoin="round"/>
<path d="M25 30C30.5228 30 35 25.5228 35 20C35 14.4772 30.5228 10 25 10C19.4772 10 15 14.4772 15 20C15 25.5228 19.4772 30 25 30Z" stroke="#2F2F2F" stroke-width="2" stroke-linecap="round" stroke-linejoin="round"/>
<path d="M10 37.5C11.7465 35.1713 14.0112 33.2813 16.6147 31.9795C19.2183 30.6777 22.0892 30 25 30C27.9108 30 30.7817 30.6777 33.3853 31.9795C35.9888 33.2813 38.2535 35.1713 40 37.5" stroke="#2F2F2F" stroke-width="2" stroke-linecap="round" stroke-linejoin="round"/>
<path d="M55 62.5C60.5228 62.5 65 58.0228 65 52.5C65 46.9772 60.5228 42.5 55 42.5C49.4772 42.5 45 46.9772 45 52.5C45 58.0228 49.4772 62.5 55 62.5Z" stroke="#0087FF" stroke-width="2" stroke-linecap="round" stroke-linejoin="round"/>
<path d="M40 70C41.7465 67.6713 44.0112 65.7813 46.6147 64.4795C49.2183 63.1777 52.0892 62.5 55 62.5C57.9108 62.5 60.7817 63.1777 63.3853 64.4795C65.9888 65.7813 68.2535 67.6713 70 70" stroke="#2F2F2F" stroke-width="2" stroke-linecap="round" stroke-linejoin="round"/>
<path d="M55 30C60.5228 30 65 25.5228 65 20C65 14.4772 60.5228 10 55 10C49.4772 10 45 14.4772 45 20C45 25.5228 49.4772 30 55 30Z" stroke="#2F2F2F" stroke-width="2" stroke-linecap="round" stroke-linejoin="round"/>
<path d="M40 37.5C41.7465 35.1713 44.0112 33.2813 46.6147 31.9795C49.2183 30.6777 52.0892 30 55 30C57.9108 30 60.7817 30.6777 63.3853 31.9795C65.9888 33.2813 68.2535 35.1713 70 37.5" stroke="#2F2F2F" stroke-width="2" stroke-linecap="round" stroke-linejoin="round"/>
</svg>
