<svg width="79" height="29" viewBox="0 0 79 29" fill="none" xmlns="http://www.w3.org/2000/svg">
<path fill-rule="evenodd" clip-rule="evenodd" d="M17.2422 10.8875C17.2422 6.28029 20.0686 2.60742 25.0766 2.60742C25.7816 2.60742 26.4434 2.6802 27.0602 2.81847V6.7486H32.0201C32.6067 7.96303 32.9114 9.37467 32.9114 10.8875C32.9114 15.4948 30.0846 19.1671 25.0768 19.1671C20.0686 19.1671 17.2422 15.4948 17.2422 10.8875ZM21.3819 10.8875C21.3819 13.2466 22.4057 15.6059 25.0768 15.6059C27.7478 15.6059 28.7716 13.2466 28.7716 10.8875C28.7716 9.23921 28.2718 7.59277 27.0604 6.7486C26.5373 6.38469 25.8821 6.16841 25.0768 6.16841C22.4057 6.1686 21.3819 8.52787 21.3819 10.8875Z" fill="#898786"/>
<path fill-rule="evenodd" clip-rule="evenodd" d="M46.3554 13.8476C46.3554 14.1447 46.3366 14.427 46.3004 14.6947H42.1716C42.2002 14.5836 42.2154 14.465 42.2154 14.3372C42.2154 12.9349 39.9448 12.6677 37.6527 12.0223C35.3823 11.3766 33.0008 10.353 33.0008 7.43767C33.0008 3.96499 36.4949 2.60742 39.4776 2.60742C42.638 2.60742 45.8211 4.1431 45.8432 7.72673H41.7035C41.7697 6.28029 40.4124 5.81256 39.1437 5.81256C38.2535 5.81256 37.1406 6.12444 37.1406 7.1705C37.1406 8.39485 39.4331 8.61731 41.7477 9.26297C44.0403 9.90789 46.3554 10.9766 46.3554 13.8476ZM39.678 15.9625C40.7826 15.9625 41.9224 15.6124 42.1673 14.7116V18.8316L42.1237 18.8376C41.2298 19.072 40.412 19.1671 39.4333 19.1671C35.7829 19.1671 32.5555 17.5648 32.5332 13.4913H36.6733C36.7623 15.3612 37.9195 15.9625 39.678 15.9625Z" fill="#898786"/>
<path d="M54.1592 6.1686C51.4879 6.1686 50.4645 8.52787 50.4645 10.8875C50.4645 13.2466 51.4879 15.6059 54.1592 15.6059C56.0955 15.6059 57.2081 14.493 57.364 12.6677H61.5037C61.2814 16.7634 58.2763 19.1671 54.2483 19.1671C49.4401 19.1671 46.3242 15.4948 46.3242 10.8875C46.3242 6.28029 49.4399 2.60742 54.2483 2.60742C55.0511 2.60742 55.8695 2.72735 56.6545 2.9601V7.07732C56.6545 7.07732 55.8947 6.1686 54.1592 6.1686Z" fill="#898786"/>
<path d="M16.9477 18.8329V2.94141H12.8078V8.7279H7.35471V2.94141H3.21484V18.8369H7.35471V12.2896H12.8078V18.8329H16.9477Z" fill="#898786"/>
<path d="M70.9746 16.9487C70.9746 15.7307 71.9617 14.7441 73.1797 14.7441C74.3966 14.7441 75.3843 15.7307 75.3843 16.9487C75.3843 18.1667 74.3966 19.1532 73.1797 19.1532C71.9617 19.1532 70.9746 18.1667 70.9746 16.9487Z" fill="#E30613"/>
<path d="M61.5039 18.8329V2.94141H65.6441V8.7279H71.0972V2.94141H75.2373V14.2233H71.0972V12.2896H65.6441V18.8329H61.5039Z" fill="#898786"/>
<path d="M4.73528 22.4395C3.62711 22.4395 3.02148 23.1044 3.02148 24.3265C3.02148 25.4837 3.57847 26.2135 4.46511 26.2135C4.89207 26.2135 5.47599 26.0023 5.84382 25.7161V24.8674C5.84382 24.656 5.85467 24.4453 5.87619 24.3265H5.23295C5.2599 24.456 5.27075 24.6075 5.27075 24.8674V25.5215C5.0438 25.6622 4.77887 25.743 4.54631 25.743C3.99476 25.743 3.63796 25.1699 3.63796 24.2835C3.63796 23.3858 4.02731 22.872 4.69767 22.872C4.99497 22.872 5.3192 22.9373 5.58432 23.0557L5.70892 22.5749C5.42753 22.4879 5.08141 22.4395 4.73528 22.4395Z" fill="#898786"/>
<path d="M7.84877 23.0774V25.597C7.84877 25.8292 7.8383 26.0133 7.81641 26.1377H9.87109V25.6623C9.78989 25.6784 9.64377 25.6892 9.42767 25.6892H8.44916V24.4615H9.27613C9.44376 24.4615 9.59531 24.4669 9.68717 24.4836V24.0129H9.65462C9.60616 24.0183 9.56276 24.0237 9.53581 24.0237H9.42767L9.30325 24.0289H8.44898V22.9644H9.34105C9.51411 22.9644 9.7085 22.9752 9.78989 22.9859V22.5312H7.81641C7.8383 22.6611 7.84877 22.845 7.84877 23.0774Z" fill="#898786"/>
<path fill-rule="evenodd" clip-rule="evenodd" d="M11.7589 23.0772V25.5968C11.7589 25.829 11.7481 26.0131 11.7266 26.1375H12.7808C13.1051 26.1375 13.3105 26.0999 13.5053 26.0077C13.8351 25.846 14.0353 25.5051 14.0353 25.1051C14.0353 24.5914 13.7326 24.2776 13.1919 24.2346C13.6353 24.1592 13.9216 23.84 13.9216 23.4183C13.9216 23.1698 13.8189 22.9427 13.646 22.7911C13.4241 22.5965 13.1431 22.5312 12.5268 22.5312H11.7267C11.7481 22.6609 11.7589 22.8448 11.7589 23.0772ZM12.3374 22.9586H12.6241C13.1107 22.9586 13.3216 23.115 13.3216 23.4718C13.3216 23.8342 13.0729 24.0396 12.6241 24.0396H12.3374V22.9586ZM12.3374 24.4505H12.5917C13.1648 24.4505 13.4241 24.6505 13.4241 25.0834C13.4241 25.4889 13.1702 25.6889 12.6671 25.6889H12.3374V24.4505Z" fill="#898786"/>
<path fill-rule="evenodd" clip-rule="evenodd" d="M16.6039 23.2122L15.7227 25.4776C15.593 25.8071 15.5283 25.9532 15.4258 26.1369H16.096L16.112 26.0885C16.1338 25.9747 16.1932 25.7908 16.2367 25.6668L16.4202 25.153H16.4851L16.7934 25.1369C16.8636 25.1369 16.9663 25.1315 17.0907 25.1315C17.2367 25.1315 17.3499 25.1369 17.4313 25.1369L17.7286 25.153H17.7828L17.9394 25.6177L17.9882 25.7799L18.0367 25.9422C18.0528 26.0015 18.0582 26.0396 18.0745 26.1367H18.81L18.783 26.0883C18.6695 25.872 18.6045 25.7204 18.491 25.4121L17.4097 22.5305H16.8258C16.7772 22.7308 16.7285 22.8824 16.6039 23.2122ZM16.7989 22.12V21.5254H16.3231V22.12H16.7989ZM17.9125 22.12V21.5254H17.4313V22.12H17.9125ZM17.5826 24.6993C17.5555 24.6993 17.4747 24.6993 17.3499 24.694C17.1989 24.694 17.1177 24.694 17.1016 24.694C17.0743 24.694 16.9933 24.694 16.869 24.694C16.7394 24.6993 16.6636 24.6993 16.6421 24.6993C16.626 24.6993 16.6041 24.7047 16.5717 24.7047L17.1179 23.1529L17.6423 24.7047C17.6152 24.7047 17.5991 24.6993 17.5826 24.6993Z" fill="#898786"/>
<path d="M20.3744 23.0776V24.8131C20.3744 25.3861 20.4447 25.6239 20.6771 25.8677C20.8934 26.0894 21.2501 26.2139 21.6829 26.2139C22.1317 26.2139 22.4829 26.084 22.7535 25.8187C23.0236 25.5542 23.1101 25.2786 23.1101 24.6946V23.0884C23.1101 22.8723 23.1211 22.6721 23.1426 22.5314H22.5099C22.5259 22.6506 22.5424 22.8559 22.5424 23.0776V24.6838C22.5424 25.1001 22.4988 25.2892 22.3587 25.4784C22.2232 25.6677 21.9802 25.7809 21.7205 25.7809C21.4936 25.7809 21.2825 25.6947 21.1583 25.5431C21.0286 25.3861 20.9744 25.17 20.9744 24.7753V23.0774C20.9744 22.8557 20.9848 22.6504 21.0069 22.5312H20.3418C20.3637 22.656 20.3744 22.8398 20.3744 23.0776Z" fill="#898786"/>
<path fill-rule="evenodd" clip-rule="evenodd" d="M25.2103 23.0774V25.597C25.2103 25.8292 25.1994 26.0133 25.1777 26.1377H26.2374C26.6971 26.1377 27.0485 26.0623 27.3026 25.9108C27.7784 25.6294 28.065 25.0076 28.065 24.2776C28.065 23.8344 27.9623 23.4505 27.7623 23.126C27.665 22.9696 27.5353 22.8398 27.3892 22.7427C27.1514 22.5805 26.908 22.5312 26.3403 22.5312H25.1779C25.1994 22.6611 25.2103 22.845 25.2103 23.0774ZM25.8103 22.9588H26.1997C26.5836 22.9588 26.8051 23.0074 26.9997 23.1373C27.2809 23.321 27.4485 23.7644 27.4485 24.332C27.4485 24.6727 27.389 24.9699 27.2648 25.2077C27.0809 25.5592 26.7999 25.689 26.2051 25.689H25.8105V22.9588H25.8103Z" fill="#898786"/>
<path d="M29.9796 23.0774V25.597C29.9796 25.8292 29.9688 26.0133 29.9473 26.1377H32.0016V25.6623C31.9207 25.6784 31.7746 25.6892 31.5583 25.6892H30.5798V24.4615H31.4068C31.5744 24.4615 31.7258 24.4669 31.8177 24.4836V24.0129H31.7853C31.7365 24.0183 31.6934 24.0237 31.6665 24.0237H31.5583L31.4337 24.0289H30.5798V22.9644H31.4719C31.6448 22.9644 31.8394 22.9752 31.9207 22.9859V22.5312H29.9473C29.969 22.6611 29.9796 22.845 29.9796 23.0774Z" fill="#898786"/>
<path fill-rule="evenodd" clip-rule="evenodd" d="M34.5379 23.213L33.6567 25.4784C33.5266 25.8079 33.4619 25.954 33.3594 26.1377H34.0296L34.046 26.0892C34.0675 25.9755 34.1268 25.7916 34.1702 25.6675L34.3542 25.1538H34.4191L34.727 25.1377C34.7974 25.1377 34.9001 25.1323 35.0247 25.1323C35.1705 25.1323 35.284 25.1377 35.365 25.1377L35.6623 25.1538H35.7166L35.8732 25.6185L35.922 25.7807L35.9705 25.9429C35.9869 26.0022 35.9924 26.0404 36.0085 26.1375H36.7436L36.7166 26.0891C36.6032 25.8728 36.5381 25.7212 36.4246 25.4129L35.3433 22.5312H34.7592C34.711 22.7316 34.6623 22.8832 34.5379 23.213ZM35.5162 24.7001C35.4893 24.7001 35.4084 24.7001 35.2838 24.6948C35.1327 24.6948 35.0515 24.6948 35.0354 24.6948C35.0081 24.6948 34.9272 24.6948 34.803 24.6948C34.6732 24.7001 34.5972 24.7001 34.5757 24.7001C34.5596 24.7001 34.5379 24.7055 34.5053 24.7055L35.0515 23.1537L35.5757 24.7055C35.5486 24.7055 35.5327 24.7001 35.5162 24.7001Z" fill="#898786"/>
<path d="M38.3095 23.0776V24.8131C38.3095 25.3861 38.3799 25.6239 38.6126 25.8677C38.8287 26.0894 39.1851 26.2139 39.6181 26.2139C40.0671 26.2139 40.4181 26.084 40.689 25.8187C40.959 25.5542 41.0452 25.2786 41.0452 24.6946V23.0884C41.0452 22.8723 41.0566 22.6721 41.0776 22.5314H40.4452C40.4613 22.6506 40.4776 22.8559 40.4776 23.0776V24.6838C40.4776 25.1001 40.4346 25.2892 40.2944 25.4784C40.159 25.6677 39.9154 25.7809 39.656 25.7809C39.4291 25.7809 39.2182 25.6947 39.0936 25.5431C38.964 25.3861 38.9101 25.17 38.9101 24.7753V23.0774C38.9101 22.8557 38.921 22.6504 38.9425 22.5312H38.2773C38.2989 22.656 38.3095 22.8398 38.3095 23.0776Z" fill="#898786"/>
<path d="M43.6261 25.597C43.6261 25.8292 43.6146 26.0245 43.5937 26.1377H44.2584C44.2364 26.0185 44.2261 25.8239 44.2261 25.597V22.9644H44.7664C44.9234 22.9644 45.0802 22.9696 45.1881 22.9805L45.2371 22.9859V22.5312H42.6094V22.9859C42.7014 22.9696 42.8421 22.9644 43.0745 22.9644H43.6261V25.597Z" fill="#898786"/>
<path fill-rule="evenodd" clip-rule="evenodd" d="M48.0519 26.2135C49.0029 26.2135 49.6244 25.4566 49.6244 24.2941C49.6244 23.1371 49.0837 22.4395 48.1864 22.4395C47.2301 22.4395 46.6133 23.1964 46.6133 24.3804C46.6135 25.5376 47.1429 26.2135 48.0519 26.2135ZM48.149 22.8881C48.6893 22.8881 49.0029 23.4021 49.0029 24.2889C49.0029 25.1969 48.6567 25.7591 48.0949 25.7591C47.5482 25.7591 47.2301 25.2453 47.2301 24.348C47.2301 23.4397 47.5757 22.8881 48.149 22.8881Z" fill="#898786"/>
<path d="M51.5899 22.7204C51.5899 22.8018 51.5847 22.9586 51.5791 23.0665L51.4442 25.5106C51.4227 25.8997 51.4118 26.0243 51.3789 26.1375H51.9634C51.9467 26.0352 51.9467 25.9699 51.9467 25.8022C51.9467 25.7268 51.9467 25.6567 51.9467 25.6022L52.0442 23.2287L52.9148 26.1375H53.4227L54.2823 23.2235L54.3691 25.5807C54.3691 25.6238 54.3743 25.673 54.3743 25.7323C54.3797 25.8569 54.3797 25.927 54.3797 25.9646C54.3797 26.0509 54.3797 26.0677 54.3689 26.1377H55.0067C55.0013 26.1162 54.9958 26.1001 54.9958 26.0892C54.9796 26.0185 54.9687 25.9538 54.9635 25.8892C54.958 25.8621 54.958 25.797 54.9472 25.6999L54.9363 25.5323L54.8065 23.1097C54.8065 23.0667 54.8013 23.0074 54.8013 22.9372C54.7958 22.8398 54.7958 22.7588 54.7958 22.7097C54.7958 22.6287 54.7958 22.602 54.8067 22.5312H54.0551L53.1956 25.473L52.3254 22.5312H51.5841C51.5899 22.607 51.5899 22.6342 51.5899 22.7204Z" fill="#898786"/>
<path fill-rule="evenodd" clip-rule="evenodd" d="M57.6244 23.213L56.743 25.4784C56.6131 25.8079 56.5482 25.954 56.4453 26.1377H57.116L57.1321 26.0892C57.1537 25.9755 57.2132 25.7916 57.2567 25.6675L57.4399 25.1538H57.5052L57.8135 25.1377C57.8837 25.1377 57.986 25.1323 58.1106 25.1323C58.2562 25.1323 58.37 25.1377 58.4508 25.1377L58.7485 25.1538H58.8029L58.9593 25.6185L59.0078 25.7807L59.0564 25.9429C59.0731 26.0022 59.0785 26.0404 59.0946 26.1375H59.8301L59.8027 26.0891C59.6895 25.8728 59.6248 25.7212 59.5109 25.4129L58.4295 22.5312H57.8461C57.7971 22.7316 57.7484 22.8832 57.6244 23.213ZM58.6031 24.7001C58.5761 24.7001 58.4948 24.7001 58.3702 24.6948C58.2186 24.6948 58.138 24.6948 58.1217 24.6948C58.0946 24.6948 58.0139 24.6948 57.8893 24.6948C57.7595 24.7001 57.6839 24.7001 57.6618 24.7001C57.6461 24.7001 57.6246 24.7055 57.5922 24.7055L58.138 23.1537L58.6626 24.7055C58.6353 24.7055 58.6188 24.7001 58.6031 24.7001Z" fill="#898786"/>
<path d="M61.9419 25.597C61.9419 25.8292 61.931 26.0245 61.9095 26.1377H62.5748C62.5528 26.0185 62.5419 25.8239 62.5419 25.597V22.9644H63.0828C63.2392 22.9644 63.3966 22.9696 63.5045 22.9805L63.5535 22.9859V22.5312H60.9258V22.9859C61.0173 22.9696 61.158 22.9644 61.3909 22.9644H61.9419V25.597Z" fill="#898786"/>
<path d="M65.1789 23.0774V25.597C65.1789 25.8292 65.168 26.0133 65.1465 26.1377H65.8118C65.7897 26.0247 65.7789 25.8133 65.7789 25.597V23.0774C65.7789 22.8557 65.7897 22.6504 65.8118 22.5312H65.1465C65.1682 22.6559 65.1789 22.8396 65.1789 23.0774Z" fill="#898786"/>
<path fill-rule="evenodd" clip-rule="evenodd" d="M69.1294 26.2135C70.081 26.2135 70.7027 25.4566 70.7027 24.2941C70.7027 23.1371 70.1618 22.4395 69.2647 22.4395C68.3077 22.4395 67.6914 23.1964 67.6914 24.3804C67.6916 25.5376 68.2211 26.2135 69.1294 26.2135ZM69.2271 22.8881C69.7674 22.8881 70.081 23.4021 70.081 24.2889C70.081 25.1969 69.7349 25.7591 69.173 25.7591C68.6263 25.7591 68.3077 25.2453 68.3077 24.348C68.3079 23.4397 68.6533 22.8881 69.2271 22.8881Z" fill="#898786"/>
<path d="M72.5933 23.0772V25.5968C72.5933 25.829 72.5824 26.0131 72.5609 26.1375H73.134C73.1071 25.9699 73.0958 25.8022 73.0958 25.5968V23.2665L74.599 26.1375H75.2426V23.0774C75.2426 22.8504 75.2587 22.6504 75.2802 22.5312H74.7017C74.7288 22.6989 74.7447 22.888 74.7447 23.0774V25.3538L73.2794 22.5312H72.5605C72.5824 22.6557 72.5933 22.8394 72.5933 23.0772Z" fill="#898786"/>
</svg>
