<svg width="67" height="24" viewBox="0 0 67 24" fill="none" xmlns="http://www.w3.org/2000/svg">
<g clip-path="url(#clip0_2394_17423)">
<path d="M43.9294 11.2403V12.7603H46.0577V14.1293H41.8011V9.87203H50.9225V5.00716H38.7604C37.7529 5.00716 36.9355 5.82384 36.9355 6.83133V17.17C36.9355 18.1768 37.7529 18.9941 38.7604 18.9941H49.0984C50.1059 18.9941 50.9225 18.1768 50.9225 17.17V11.2403H43.9294Z" fill="#76B82A"/>
<path d="M61.7491 14.1273H57.4925V9.87007H61.7491V14.1273ZM64.7898 5.00522H54.4518C53.4443 5.00522 52.627 5.82254 52.627 6.83003V17.1674C52.627 18.1755 53.4443 18.9922 54.4518 18.9922H64.7898C65.7973 18.9922 66.6139 18.1755 66.6139 17.1674V6.83003C66.6139 5.82254 65.7973 5.00522 64.7898 5.00522Z" fill="#76B82A"/>
<path d="M26.9368 14.1283L30.3702 8.84142V14.1283H26.9368ZM27.0598 5.00619L16.9895 20.5138H15.2441L17.5086 24L24.9745 20.5138H22.7902L25.3575 16.5607H30.3702V18.9932H35.235V5.00619H27.0598Z" fill="#76B82A"/>
<path d="M5.94004 18.9941L10.1582 12.4985V18.9941H16.0013L26.0716 3.48649H27.6476L25.3832 0.000326157L17.9172 3.48649H20.2175L15.0231 11.4852V5.00716H9.22235L5.01916 11.4793V5.00716H0.154297V18.9941H5.94004Z" fill="#76B82A"/>
</g>
<defs>
<clipPath id="clip0_2394_17423">
<rect width="66.4585" height="24" fill="white" transform="translate(0.154297)"/>
</clipPath>
</defs>
</svg>
