<svg width="86" height="24" viewBox="0 0 86 24" fill="none" xmlns="http://www.w3.org/2000/svg">
<path d="M56.6309 11.5098V2.03125H59.4163L63.4965 6.28592V2.03125H66.7626V11.5098H64.1458L59.9008 7.26479V11.5098H56.6309Z" fill="#231F20"/>
<path d="M32.2871 11.5098V2.03125H35.5523V5.30705H38.4947V2.03125H41.7705V11.5098H38.4947V7.92384H35.5523V11.5098H32.2871Z" fill="#231F20"/>
<path d="M71.6955 2.02148H75.1263L77.0841 4.4735L79.0515 2.02148H82.4824L78.8867 6.59599L82.9767 11.5H79.0515L77.0841 8.89293L75.1263 11.5H71.2012L75.2814 6.59599L71.6955 2.02148Z" fill="#231F20"/>
<path d="M30.5324 13.0892C29.7473 12.6046 28.6628 12.498 27.6704 12.498C24.8792 12.498 22.6055 14.5333 22.6055 17.2373C22.6055 19.9316 24.8792 21.9766 27.6704 21.9766C28.721 21.9766 29.6553 21.8409 30.4858 21.3176V18.7105C30.0701 19.4858 29.286 19.6893 28.3633 19.6893C27.0133 19.6893 25.9171 18.5845 25.9171 17.2373C25.9171 15.8902 27.0133 14.7756 28.3633 14.7756C29.2395 14.7756 30.0478 15.0567 30.4858 15.7545V13.1474L30.5324 13.0892Z" fill="#231F20"/>
<path d="M41.2852 21.9766V12.498H44.0657L48.1498 16.7527V12.498H51.415V21.9766H48.7963L44.5503 17.7316V21.9766H41.2852Z" fill="#231F20"/>
<path d="M54.5076 21.9766V14.9501H52.0508V12.498H60.2306V14.9501H57.7689V21.9766H54.5076Z" fill="#231F20"/>
<path d="M73.7981 14.9501C73.7497 14.9501 73.7012 14.9501 73.6721 14.9501C72.4704 15.0857 71.6272 16.1422 71.6272 17.3924C71.6272 18.7492 72.7224 19.6893 74.0792 19.6893C74.9999 19.6893 75.7849 19.4858 76.2017 18.7105V21.3176C75.3682 21.8409 74.4281 21.9766 73.3814 21.9766C70.5902 21.9766 68.3223 20.0964 68.3223 17.3924C68.3223 14.6981 70.5902 12.498 73.3814 12.498C73.4202 12.498 73.4395 12.498 73.4783 12.498H83.0053V14.9501H80.5436V21.9766H77.2872V14.9501H73.7981Z" fill="#231F20"/>
<path d="M67.6055 11.5098H70.8813V2.03125H67.6055V11.5098Z" fill="#231F20"/>
<path d="M12.0034 5.84979L12.9271 5.85948V6.94497C12.9271 7.31326 13.1228 7.68155 13.4116 7.8657C14.4496 8.32121 15.1649 9.34852 15.1649 10.56C15.1649 11.6939 14.4961 12.6922 13.5386 13.1768C13.2498 13.3609 12.9271 13.8067 12.9271 14.1653V16.0649V16.0552C12.9271 16.6271 13.3884 17.1019 13.965 17.1019C17.5646 17.1019 20.507 14.1557 20.507 10.56C20.507 6.94496 17.5646 3.99866 13.965 3.99866C13.3884 3.99866 12.9271 4.648 12.9271 5.21013V6.08242L11.5537 6.03394V5.05508C11.5537 4.47358 11.0808 4.01805 10.5157 4.01805H6.86971L6.70785 2.03125H20.507C21.2222 2.03125 21.8222 2.63214 21.8222 3.33962V20.5135C21.8222 21.2306 21.199 21.8994 20.4837 21.8994H3.47756C2.76232 21.8994 2.19727 21.2985 2.19727 20.5813V3.33962C2.19727 2.63214 2.78559 2.03125 3.50083 2.03125H6.77761L6.97341 4.01805H5.35874C4.78111 4.01805 4.31978 4.47358 4.31978 5.05508V18.8271C4.31978 19.3892 4.78111 19.8544 5.35874 19.8544H10.5274C11.0924 19.8544 11.5537 19.5636 11.5537 18.9918V14.1653C11.5537 13.8067 11.3928 13.4772 11.0924 13.3028C9.99624 12.8763 9.31588 11.8005 9.31588 10.56C9.31588 9.45515 9.90418 8.50536 10.8036 8.00138C11.0924 7.81724 11.5537 7.31326 11.5537 6.94497V5.90796H12.3959L12.2457 9.00933C11.4035 9.00933 10.6999 9.69742 10.6999 10.56C10.6999 11.3935 11.3928 12.0913 12.2351 12.0913C13.0879 12.0913 13.7809 11.3935 13.7809 10.56C13.7809 9.69742 13.0996 9.00933 12.2457 9.00933L12.0034 5.84979Z" fill="#231F20"/>
<path d="M23.125 5.0066V11.5098H26.7245V8.57317H28.5243C30.324 8.57317 31.7894 7.10973 31.7894 5.30705C31.7894 3.50438 30.324 2.04095 28.5243 2.04095L23.125 2.03125V5.2683L26.7245 5.29735V4.16342H27.5551C28.1783 4.16342 28.6978 4.68678 28.6978 5.30705C28.6978 5.92735 28.1783 6.45069 27.5551 6.45069H26.7245V5.15198L23.125 5.0066Z" fill="#231F20"/>
<path d="M47.204 2.04095C44.5503 2.17662 42.3125 4.12467 42.3125 6.73175C42.3125 9.43576 44.5387 11.5098 47.3309 11.5098C47.423 11.5098 55.9954 11.5098 55.9954 11.5098V9.23222H52.0731V7.92384H55.8345V5.62689H52.0731V4.32817H55.9954V2.03125H47.1807L47.3193 4.46389C48.4503 4.44451 49.1656 5.4912 49.1656 6.75113C49.1656 8.00138 48.5075 9.019 47.3425 9.02869C46.3501 9.02869 45.5312 8.00138 45.5312 6.75113C45.5312 5.4912 46.3501 4.45419 47.3425 4.45419L47.204 2.04095Z" fill="#231F20"/>
<path d="M35.701 14.9596C36.6925 14.9596 37.5347 15.9869 37.5347 17.2469C37.5347 18.5068 36.7041 19.5341 35.7126 19.5341C34.7202 19.5341 33.9013 18.5068 33.9013 17.2469C33.9013 15.9869 34.7202 14.9499 35.7126 14.9499L35.7815 12.4785C32.9893 12.4785 30.6816 14.5332 30.6816 17.2372C30.6816 19.9315 32.9553 21.9765 35.7466 21.9765C38.5388 21.9765 40.8231 19.9315 40.8231 17.2372C40.8231 14.5332 38.5504 12.4979 35.7582 12.4979L35.701 14.9596Z" fill="#231F20"/>
<path d="M63.98 18.381H63.0205L63.8443 16.0937L64.6584 18.381H63.8249L63.7959 20.5131H65.3175L65.8021 21.9766H69.3977L65.6567 12.498H62.0417H62.0611L58.2812 21.9766H61.8769L62.3712 20.5131H63.9412L63.98 18.381Z" fill="#231F20"/>
</svg>
